<svg height="414pt" viewBox="0 0 414 414" width="414pt" xmlns="http://www.w3.org/2000/svg"><path d="m276.480469 275.300781c32.492187-33.09375 37.136719-84.511719 11.105469-122.894531-26.035157-38.378906-75.523438-53.078125-118.285157-35.132812-42.765625 17.949218-66.941406 63.5625-57.785156 109.027343 9.160156 45.464844 49.105469 78.164063 95.484375 78.160157 26.144531.039062 51.195312-10.476563 69.480469-29.160157zm-69.480469-268.300781c110.460938 0 200 89.539062 200 200s-89.539062 200-200 200-200-89.539062-200-200 89.539062-200 200-200zm0 0" fill="#00acea"/><path d="m207 109.648438c39.238281 0 74.644531 23.542968 89.820312 59.722656 15.175782 36.183594 7.15625 77.941406-20.339843 105.929687l-16.339844-16.339843c5.5-5.277344 7.71875-13.117188 5.796875-20.496094-1.925781-7.378906-7.683594-13.136719-15.0625-15.058594-7.378906-1.925781-15.21875.292969-20.496094 5.792969l-17.328125-17.328125c9.953125-7.707032 14.558594-20.46875 11.816407-32.757813-2.742188-12.285156-12.335938-21.878906-24.621094-24.621093-12.285156-2.742188-25.050782 1.863281-32.757813 11.816406l-28.738281-28.738282c18.191406-17.921874 42.710938-27.953124 68.25-27.921874zm66.839844 100.960937c8.679687 0 8.699218-13.5 0-13.5-8.699219 0-8.710938 13.5 0 13.5zm-21.109375-49.820313c13.519531 0 13.539062-21 0-21-13.511719 0-13.53125 21 0 21zm-1.621094 36.039063c6.269531 0 6.28125-9.75 0-9.75s-6.28125 9.75 0 9.75zm-35.710937-49.898437c10.292968 0 10.3125-16 0-16-10.308594 0-10.320313 16 0 16zm0 0" fill="#00efd1"/><path d="m207 304.460938c-39.554688 0-75.179688-23.921876-90.152344-60.53125-14.972656-36.613282-6.316406-78.644532 21.902344-106.359376l28.738281 28.738282c-9.992187 12.933594-8.820312 31.273437 2.734375 42.828125 11.554688 11.558593 29.898438 12.726562 42.828125 2.734375l17.328125 17.328125c-7.964844 8.261719-7.84375 21.378906.269532 29.492187 8.113281 8.113282 21.230468 8.234375 29.492187.269532l16.339844 16.339843c-18.285157 18.679688-43.339844 29.195313-69.480469 29.160157zm-10.539062-18.679688c13.507812 0 13.527343-21 0-21-13.511719 0-13.539063 21 0 21zm-5.949219-34.300781c8.359375 0 8.378906-13 0-13-8.382813 0-8.382813 13 0 13zm-36.800781-5.910157c7.71875 0 7.738281-12 0-12-7.722657 0-7.730469 12 0 12zm-11.910157-68.761718c8.371094 0 8.378907-13 0-13-8.359375 0-8.378906 13 0 13zm0 0" fill="#00efd1"/><path d="m273.839844 197.109375c8.699218 0 8.679687 13.5 0 13.5-8.710938 0-8.691406-13.5 0-13.5zm0 0"/><path d="m245.550781 222.738281c8.585938 0 16.316407 5.21875 19.523438 13.183594 3.210937 7.96875 1.257812 17.085937-4.933594 23.039063l-29.761719-29.761719c3.964844-4.132813 9.445313-6.46875 15.171875-6.460938zm0 0" fill="#f4b844"/><path d="m230.378906 229.199219 29.761719 29.761719c-8.261719 7.964843-21.378906 7.84375-29.492187-.269532-8.113282-8.113281-8.234376-21.230468-.269532-29.492187zm0 0" fill="#f4b844"/><path d="m252.730469 139.789062c13.539062 0 13.519531 21 0 21s-13.511719-21 0-21zm0 0"/><path d="m251.109375 187.078125c6.28125 0 6.269531 9.75 0 9.75s-6.269531-9.75 0-9.75zm0 0"/><path d="m193.179688 153.710938c13.886718 0 26.238281 8.832031 30.726562 21.976562 4.492188 13.140625.125 27.683594-10.855469 36.183594l-45.5625-45.5625c6.152344-7.949219 15.640625-12.601563 25.691407-12.597656zm0 0" fill="#f4b844"/><path d="m215.398438 130.929688c10.3125 0 10.292968 16 0 16-10.320313 0-10.296876-16 0-16zm0 0"/><path d="m167.488281 166.308594 45.5625 45.5625c-12.929687 9.992187-31.273437 8.824218-42.828125-2.734375-11.554687-11.554688-12.726562-29.894531-2.734375-42.828125zm0 0" fill="#f4b844"/><path d="m196.460938 264.78125c13.527343 0 13.507812 21 0 21-13.539063 0-13.511719-21 0-21zm0 0"/><path d="m190.511719 238.480469c8.378906 0 8.359375 13 0 13-8.382813 0-8.371094-13 0-13zm0 0"/><path d="m153.710938 233.570312c7.738281 0 7.71875 12 0 12-7.722657 0-7.722657-12 0-12zm0 0"/><path d="m141.800781 163.808594c8.378907 0 8.371094 13 0 13-8.371093 0-8.359375-13 0-13zm0 0"/><g fill="#083863"><path d="m251.109375 186.578125c-2.1875-.066406-4.203125 1.199219-5.089844 3.203125-.886719 2-.46875 4.34375 1.054688 5.917969 1.527343 1.570312 3.855469 2.0625 5.882812 1.238281 2.03125-.820312 3.359375-2.792969 3.359375-4.984375.066406-1.417969-.457031-2.796875-1.441406-3.8125-.984375-1.019531-2.347656-1.582031-3.765625-1.5625zm0 9.75c-1.785156.070313-3.433594-.949219-4.164063-2.578125-.734374-1.628906-.402343-3.539062.835938-4.828125s3.132812-1.695313 4.789062-1.027344c1.65625.664063 2.746094 2.269531 2.746094 4.058594.074219 1.152344-.339844 2.28125-1.140625 3.113281-.800781.832032-1.910156 1.289063-3.066406 1.261719zm0 0"/><path d="m190.511719 251.980469c4.449219 0 6.777343-3.523438 6.777343-7 .027344-1.746094-.574218-3.449219-1.691406-4.792969-1.28125-1.457031-3.148437-2.265625-5.085937-2.199219-4.453125 0-6.78125 3.523438-6.78125 7 0 3.476563 2.328125 6.992188 6.78125 6.992188zm-4.332031-11.140625c1.128906-1.1875 2.691406-1.859375 4.328124-1.859375 1.636719 0 3.203126.671875 4.332032 1.859375.960937 1.164062 1.472656 2.628906 1.449218 4.140625 0 2.890625-1.808593 6-5.777343 6-3.972657 0-5.78125-3.109375-5.78125-6-.027344-1.511719.488281-2.976563 1.449219-4.140625zm0 0"/><path d="m153.710938 233.070312c-1.714844-.027343-3.363282.65625-4.554688 1.886719s-1.824219 2.902344-1.738281 4.613281c-.027344 1.621094.53125 3.199219 1.566406 4.449219 1.1875 1.355469 2.921875 2.109375 4.726563 2.046875 1.714843.027344 3.363281-.65625 4.558593-1.886718 1.191407-1.234376 1.824219-2.90625 1.742188-4.617188.023437-1.625-.535157-3.199219-1.570313-4.449219-1.191406-1.355469-2.929687-2.105469-4.730468-2.042969zm0 12c-3.636719 0-5.292969-2.847656-5.292969-5.5 0-2.652343 1.65625-5.5 5.292969-5.5 1.511718-.058593 2.96875.566407 3.96875 1.699219.882812 1.066407 1.351562 2.410157 1.328124 3.792969 0 2.652344-1.65625 5.507812-5.296874 5.507812zm0 0"/><path d="m215.398438 147.429688c5.402343 0 8.226562-4.28125 8.226562-8.503907 0-4.09375-2.574219-8.496093-8.226562-8.496093-5.398438 0-8.230469 4.28125-8.230469 8.507812-.035157 2.121094.695312 4.1875 2.054687 5.820312 1.554688 1.773438 3.820313 2.753907 6.175782 2.671876zm0-16c2.0625-.074219 4.050781.777343 5.417968 2.324218 1.199219 1.453125 1.839844 3.285156 1.808594 5.171875 0 3.613281-2.261719 7.503907-7.226562 7.503907-4.960938 0-7.230469-3.882813-7.230469-7.492188s2.261719-7.507812 7.230469-7.507812zm0 0"/><path d="m273.839844 211.109375c4.605468 0 7.015625-3.648437 7.015625-7.253906.027343-1.8125-.589844-3.570313-1.746094-4.964844-1.324219-1.511719-3.261719-2.347656-5.269531-2.28125-4.613282 0-7.023438 3.652344-7.023438 7.257813-.027344 1.808593.59375 3.570312 1.75 4.960937 1.328125 1.511719 3.261719 2.351563 5.273438 2.28125zm0-13.5c1.71875-.0625 3.371094.644531 4.511718 1.933594 1 1.210937 1.53125 2.742187 1.503907 4.3125 0 3.011719-1.878907 6.253906-6.015625 6.253906-1.71875.066406-3.375-.644531-4.515625-1.933594-1-1.210937-1.535157-2.738281-1.507813-4.308593 0-3.011719 1.882813-6.257813 6.023438-6.257813zm0 0"/><path d="m252.730469 161.289062c7.316406 0 10.648437-5.699218 10.648437-11.003906 0-5.308594-3.332031-10.996094-10.648437-10.996094-7.316407 0-10.640625 5.710938-10.640625 11.011719s3.332031 10.988281 10.640625 10.988281zm0-21c6.628906 0 9.648437 5.183594 9.648437 9.996094s-3.019531 10.003906-9.648437 10.003906c-6.628907 0-9.640625-5.179687-9.640625-9.992187s3.015625-10.007813 9.640625-10.007813zm0 0"/><path d="m196.460938 264.28125c-7.3125 0-10.644532 5.707031-10.644532 11.007812-.042968 2.75.898438 5.421876 2.65625 7.539063 2.007813 2.289063 4.941406 3.558594 7.988282 3.453125 7.308593 0 10.640624-5.703125 10.640624-11.007812 0-5.304688-3.332031-10.992188-10.640624-10.992188zm7.222656 17.890625c-1.878906 1.984375-4.492188 3.105469-7.226563 3.109375-2.730469 0-5.34375-1.121094-7.226562-3.105469-1.601563-1.933593-2.457031-4.375-2.414063-6.886719 0-4.820312 3.019532-10.007812 9.644532-10.007812s9.640624 5.179688 9.640624 9.992188c.039063 2.515624-.816406 4.960937-2.417968 6.898437zm0 0"/><path d="m141.800781 163.308594c-4.449219 0-6.777343 3.527344-6.777343 7-.027344 1.75.570312 3.449218 1.6875 4.792968 1.28125 1.457032 3.148437 2.265626 5.089843 2.199219 4.453125 0 6.78125-3.523437 6.78125-7 0-3.476562-2.328125-6.992187-6.78125-6.992187zm4.332031 11.140625c-1.128906 1.1875-2.695312 1.859375-4.332031 1.859375s-3.203125-.671875-4.332031-1.859375c-.960938-1.160157-1.472656-2.628907-1.445312-4.136719 0-2.894531 1.808593-6 5.777343-6s5.78125 3.105469 5.78125 6c.023438 1.507812-.488281 2.976562-1.449219 4.136719zm0 0"/><path d="m207 0c-114.140625 0-207 92.859375-207 207s92.859375 207 207 207 207-92.859375 207-207-92.859375-207-207-207zm-193 207c-.035156-49.050781 18.679688-96.261719 52.308594-131.96875l62.667968 62.597656c-14.933593 16.808594-24.050781 37.980469-26 60.375h-32.816406c-3.867187 0-7 3.136719-7 7 0 3.867188 3.132813 7 7 7h32.566406c1.066407 23.054688 9.800782 45.09375 24.8125 62.625l-22.25 22.292969c-1.804687 1.761719-2.523437 4.355469-1.882812 6.796875.640625 2.4375 2.542969 4.347656 4.980469 4.996094 2.4375.644531 5.035156-.066406 6.804687-1.863282l22.117188-22.128906c17.335937 15.617188 39.414062 24.949219 62.691406 26.496094v30.761719c0 3.867187 3.132812 7 7 7s7-3.132813 7-7v-30.757813c23.128906-1.46875 45.09375-10.679687 62.355469-26.144531l62.613281 62.613281c-35.707031 33.628906-82.917969 52.34375-131.96875 52.308594-106.421875 0-193-86.578125-193-193zm193-90.351562c35.136719-.007813 67.09375 20.34375 81.9375 52.191406 14.847656 31.84375 9.890625 69.40625-12.710938 96.308594l-6.730468-6.730469c5.28125-8.660157 5.480468-19.5.515625-28.34375-4.964844-8.847657-14.316407-14.328125-24.460938-14.335938-5.15625.011719-10.210937 1.4375-14.613281 4.121094l-7.886719-7.886719c13.515625-15.652344 12.65625-39.078125-1.964843-53.699218-14.621094-14.621094-38.046876-15.476563-53.699219-1.964844l-18.488281-18.484375c16.25-13.714844 36.839843-21.21875 58.101562-21.175781zm1.601562 180.773437c-1.074218-.261719-2.195312-.253906-3.265624.015625-49.246094-.964844-88.679688-41.132812-88.734376-90.386719-.066406-21.867187 7.871094-43 22.308594-59.421875l19.621094 19.625c-8.390625 15.375-5.644531 34.445313 6.742188 46.832032 12.386718 12.386718 31.457031 15.128906 46.832031 6.742187l9.070312 9.066406c-6.257812 10.980469-4.398437 24.789063 4.539063 33.726563s22.746094 10.796875 33.726562 4.539062l6.984375 6.984375c-16.007812 14.074219-36.511719 21.972657-57.824219 22.277344zm4.515626-95.386719-35.792969-35.792968c10.136719-8.058594 24.710937-7.230469 33.867187 1.925781 9.160156 9.160156 9.988282 23.730469 1.925782 33.867187zm-11.582032 8.21875c-9.222656 3.183594-19.453125.824219-26.351562-6.074218-6.902344-6.898438-9.257813-17.128907-6.074219-26.351563zm57.453125 37.652344-17.554687-17.554688c4.972656-1.519531 10.375-.167968 14.050781 3.507813 3.675781 3.671875 5.023437 9.078125 3.503906 14.046875zm-10.246093 9.554688c-4.730469 1.128906-9.707032-.28125-13.148438-3.71875-3.4375-3.441407-4.847656-8.417969-3.722656-13.148438zm100.085937 80.285156-38.664063-38.664063c-.347656-.792969-.839843-1.515625-1.453124-2.132812l-22.214844-22.296875c14.972656-17.5625 23.6875-39.601563 24.78125-62.652344h32.5625c3.867187 0 7-3.132812 7-7s-3.132813-7-7-7h-32.824219c-1.972656-22.554688-11.21875-43.855469-26.34375-60.699219l24.039063-24c2.722656-2.734375 2.71875-7.160156-.015626-9.886719-2.734374-2.726562-7.160156-2.722656-9.886718.011719l-24.164063 24.171875c-17.027343-14.554687-38.296875-23.21875-60.644531-24.707031v-34.589844c0-3.867187-3.132812-7-7-7s-7 3.132813-7 7v34.585938c-22.363281 1.445312-43.652344 10.105469-60.679688 24.675781l-24.128906-24.132812c-.617187-.613282-1.339844-1.105469-2.132812-1.453126l-36.800782-36.804687c35.570313-32.929687 82.269532-51.207031 130.742188-51.171875 106.421875 0 193 86.578125 193 193 .035156 48.476562-18.242188 95.175781-51.171875 130.746094zm0 0"/></g></svg>