<svg height="436pt" viewBox="-43 0 436 436.87913" width="436pt" xmlns="http://www.w3.org/2000/svg"><path d="m343.601562 97.871094v104.839844c-.066406 94.199218-55.878906 179.425781-142.203124 217.140624l-23.007813 10.027344-25.960937-11.207031c-87.929688-36.910156-145.136719-122.960937-145.148438-218.320313v-102.480468l170.519531-90.871094zm-23.160156 107.007812v-90.410156l-142.960937-78.347656-147.039063 78.347656v88.371094c.019532 82.222656 49.347656 156.417968 125.160156 188.25l22.378907 9.671875 19.851562-8.652344c74.425781-32.519531 122.550781-106.007813 122.609375-187.230469zm0 0" fill="#00efd1"/><path d="m175.441406 289.25c39.308594 0 71.179688-31.867188 71.179688-71.179688s-31.871094-71.179687-71.179688-71.179687c-39.3125 0-71.179687 31.867187-71.179687 71.179687s31.867187 71.179688 71.179687 71.179688zm145-174.78125v90.410156c-.058594 81.222656-48.183594 154.710938-122.609375 187.230469l-19.851562 8.652344-22.378907-9.671875c-75.8125-31.832032-125.140624-106.027344-125.160156-188.25v-88.371094l147.039063-78.347656zm0 0" fill="#00acea"/><path d="m175.441406 289.25c-39.3125 0-71.179687-31.867188-71.179687-71.179688s31.867187-71.179687 71.179687-71.179687c39.308594 0 71.179688 31.867187 71.179688 71.179687-.003906 39.3125-31.871094 71.179688-71.179688 71.179688zm48.839844-66.761719c8.6875 0 8.699219-13.5 0-13.5-8.679688 0-8.699219 13.5 0 13.5zm-7.269531 20.890625c0-6.554687-5.3125-11.867187-11.863281-11.867187-6.554688-.003907-11.867188 5.3125-11.867188 11.863281 0 6.554688 5.316406 11.867188 11.867188 11.863281 6.550781-.003906 11.855468-5.308593 11.863281-11.859375zm-8.152344-58.917968c10.128906 0 10.152344-15.75 0-15.75-10.128906 0-10.148437 15.75 0 15.75zm-1.1875 27.449218c6.277344 0 6.289063-9.75 0-9.75-6.273437 0-6.28125 9.75 0 9.75zm-17.070313-5.25c-.003906-13.101562-10.628906-23.722656-23.730468-23.71875-13.105469 0-23.722656 10.625-23.722656 23.730469.003906 13.101563 10.628906 23.722656 23.730468 23.71875 13.105469 0 23.726563-10.625 23.722656-23.730469zm-9.019531-30.371094c10.289063 0 10.308594-16 0-16-10.3125 0-10.320312 16 0 16zm-13.84375 99.519532c10.132813 0 10.152344-15.75 0-15.75-10.148437 0-10.15625 15.75 0 15.75zm-4.347656-23.519532c8.359375 0 8.378906-13 0-13s-8.378906 13 0 13zm-26.890625-4.457031c7.71875 0 7.730469-12 0-12s-7.738281 12 0 12zm-8.710938-50.113281c8.371094 0 8.382813-13 0-13-8.359374 0-8.367187 13 0 13zm0 0" fill="#00efd1"/><path d="m224.28125 208.988281c8.699219 0 8.6875 13.5 0 13.5-8.691406 0-8.679688-13.5 0-13.5zm0 0"/><path d="m205.148438 231.511719c6.554687 0 11.863281 5.3125 11.863281 11.863281-.003907 6.554688-5.3125 11.863281-11.863281 11.863281-6.554688.003907-11.867188-5.304687-11.867188-11.859375 0-6.554687 5.3125-11.871094 11.867188-11.867187zm0 0" fill="#f4b844"/><path d="m208.859375 168.710938c10.152344 0 10.128906 15.75 0 15.75-10.148437 0-10.128906-15.75 0-15.75zm0 0"/><path d="m207.671875 202.160156c6.289063 0 6.277344 9.75 0 9.75-6.28125 0-6.273437-9.75 0-9.75zm0 0"/><path d="m166.878906 182.941406c13.105469 0 23.722656 10.625 23.722656 23.730469-.003906 13.101563-10.628906 23.722656-23.730468 23.71875-13.105469-.003906-23.722656-10.628906-23.722656-23.730469 0-13.105468 10.628906-23.726562 23.730468-23.71875zm0 0" fill="#f4b844"/><path d="m181.582031 160.289062c10.308594 0 10.289063 16 0 16-10.320312 0-10.300781-16 0-16zm0 0"/><path d="m167.738281 260.058594c10.152344 0 10.132813 15.75 0 15.75-10.15625 0-10.136719-15.75 0-15.75zm0 0"/><path d="m163.390625 239.289062c8.378906 0 8.359375 13 0 13-8.378906 0-8.371094-13 0-13zm0 0"/><path d="m136.5 235.832031c7.730469 0 7.71875 12 0 12-7.738281 0-7.71875-12 0-12zm0 0"/><path d="m127.789062 184.71875c8.382813 0 8.371094 13 0 13-8.367187 0-8.359374-13 0-13zm0 0"/><g fill="#083863"><path d="m174.1875 29.941406-147.039062 78.351563c-2.28125 1.214843-3.707032 3.589843-3.707032 6.175781v88.371094c.019532 85.027344 51.019532 161.753906 129.410156 194.6875l22.351563 9.660156c1.78125.765625 3.796875.761719 5.574219-.011719l19.863281-8.65625c76.957031-33.652343 126.71875-109.644531 126.800781-193.640625v-90.410156c0-2.554688-1.394531-4.90625-3.636718-6.136719l-142.964844-78.351562c-2.070313-1.132813-4.570313-1.148438-6.652344-.039063zm139.253906 88.675782v86.261718c-.082031 78.433594-46.546875 149.386719-118.40625 180.8125l-17.066406 7.4375-19.589844-8.464844-.050781-.019531c-73.222656-30.738281-120.867187-102.390625-120.886719-181.804687v-84.167969l139.992188-74.59375zm0 0"/><path d="m168.441406 116.671875v23.546875c-15.511718 1.382812-30.253906 7.390625-42.3125 17.242188l-16.449218-16.449219c-2.734376-2.734375-7.164063-2.734375-9.898438 0-2.734375 2.730469-2.734375 7.164062 0 9.898437l16.332031 16.21875c-10.269531 11.917969-16.683593 26.671875-18.394531 42.3125h-22.277344c-3.867187 0-7 3.132813-7 7 0 3.863282 3.132813 7 7 7h22.039063c1.042969 16.066406 7.113281 31.398438 17.347656 43.824219l-15.046875 15.109375c-2.75 2.734375-2.757812 7.175781-.023438 9.921875 2.730469 2.75 7.175782 2.757813 9.921876.023437l14.929687-14.925781c12.320313 10.597657 27.644531 17.078125 43.832031 18.527344v20.75c0 3.863281 3.132813 7 7 7 3.863282 0 7-3.136719 7-7v-20.75c16.183594-1.449219 31.511719-7.925781 43.828125-18.523437l14.929688 14.933593c2.734375 2.730469 7.167969 2.730469 9.902343 0 2.734376-2.734375 2.734376-7.167969 0-9.902343l-15.050781-15.164063c10.234375-12.425781 16.304688-27.757813 17.347657-43.824219h22.042968c3.863282 0 7-3.136718 7-7 0-3.867187-3.136718-7-7-7h-22.277344c-1.714843-15.640625-8.132812-30.394531-18.402343-42.316406l16.332031-16.273438c2.722656-2.734374 2.710938-7.15625-.019531-9.878906-2.734375-2.71875-7.15625-2.710937-9.878907.023438l-16.449218 16.457031c-12.058594-9.851563-26.796875-15.851563-42.304688-17.234375v-23.546875c0-3.867187-3.136718-7-7-7-3.867187 0-7 3.132813-7 7zm8.363282 165.542969c-.902344-.179688-1.828126-.179688-2.730469 0-35.171875-.746094-63.183594-29.671875-62.808594-64.847656.371094-35.175782 28.996094-63.496094 64.175781-63.496094 35.179688 0 63.800782 28.320312 64.175782 63.496094.375 35.175781-27.640626 64.101562-62.8125 64.847656zm0 0"/><path d="m197.601562 206.660156c-.003906-16.96875-13.761718-30.722656-30.730468-30.71875-16.96875 0-30.722656 13.761719-30.722656 30.730469.003906 16.96875 13.761718 30.722656 30.730468 30.71875 16.964844-.019531 30.707032-13.769531 30.722656-30.730469zm-47.453124 0c.003906-9.234375 7.492187-16.722656 16.726562-16.71875 9.238281 0 16.722656 7.488282 16.726562 16.722656 0 9.234376-7.484374 16.722657-16.722656 16.726563-9.234375-.007813-16.722656-7.492187-16.730468-16.730469zm0 0"/><path d="m205.148438 224.511719c-10.417969-.003907-18.867188 8.441406-18.867188 18.859375-.003906 10.417968 8.441406 18.867187 18.859375 18.867187 10.417969.003907 18.867187-8.4375 18.871094-18.859375-.011719-10.410156-8.449219-18.851562-18.863281-18.867187zm0 23.726562c-2.6875.003907-4.867188-2.171875-4.867188-4.863281 0-2.6875 2.175781-4.867188 4.867188-4.863281 2.6875 0 4.863281 2.179687 4.863281 4.867187-.007813 2.683594-2.179688 4.855469-4.863281 4.859375zm0 0"/><path d="m202.464844 207.039062c.089844 2.859376 2.464844 5.109376 5.320312 5.046876 2.859375-.058594 5.132813-2.410157 5.101563-5.269532-.03125-2.855468-2.359375-5.15625-5.214844-5.152344-1.417969-.023437-2.785156.539063-3.769531 1.558594-.988282 1.019532-1.507813 2.402344-1.4375 3.816406zm9.417968-.003906c-.085937 2.304688-2.007812 4.109375-4.3125 4.050782-2.304687-.054688-4.136718-1.957032-4.109374-4.261719.027343-2.304688 1.902343-4.160157 4.210937-4.160157 1.152344-.027343 2.261719.429688 3.0625 1.257813.800781.832031 1.21875 1.957031 1.148437 3.109375zm0 0"/><path d="m170.167969 245.785156c.027343-1.75-.570313-3.449218-1.6875-4.792968-1.28125-1.457032-3.148438-2.265626-5.089844-2.199219-4.453125 0-6.78125 3.523437-6.78125 7 0 3.476562 2.328125 7 6.78125 7s6.777344-3.527344 6.777344-7.007813zm-12.558594.007813c-.027344-1.511719.488281-2.980469 1.449219-4.144531 1.128906-1.183594 2.695312-1.855469 4.332031-1.855469s3.199219.671875 4.328125 1.855469c.960938 1.164062 1.476562 2.632812 1.449219 4.140624 0 2.890626-1.808594 6.003907-5.777344 6.003907s-5.78125-3.113281-5.78125-6zm0 0"/><path d="m136.5 235.332031c-1.714844-.03125-3.367188.652344-4.558594 1.886719-1.195312 1.230469-1.824218 2.902344-1.742187 4.617188-.023438 1.621093.535156 3.199218 1.570312 4.445312 1.191407 1.359375 2.925781 2.109375 4.730469 2.050781 1.710938.027344 3.359375-.65625 4.554688-1.886719 1.191406-1.234374 1.820312-2.902343 1.738281-4.613281.023437-1.625-.53125-3.203125-1.570313-4.449219-1.1875-1.359374-2.921875-2.113281-4.722656-2.050781zm0 12c-1.511719.054688-2.96875-.570312-3.96875-1.703125-.882812-1.0625-1.351562-2.410156-1.328125-3.792968 0-2.652344 1.65625-5.503907 5.300781-5.503907 3.640625 0 5.292969 2.847657 5.292969 5.5 0 2.648438-1.65625 5.5-5.296875 5.5zm0 0"/><path d="m181.582031 176.789062c5.398438 0 8.222657-4.277343 8.222657-8.503906 0-4.09375-2.574219-8.496094-8.222657-8.496094-5.402343 0-8.234375 4.28125-8.234375 8.5 0 4.097657 2.578125 8.5 8.234375 8.5zm0-16c2.058594-.074218 4.046875.777344 5.414063 2.324219 1.199218 1.453125 1.84375 3.285157 1.808594 5.171875 0 3.613282-2.261719 7.503906-7.222657 7.503906-2.066406.078126-4.054687-.777343-5.421875-2.324218-1.203125-1.453125-1.84375-3.285156-1.8125-5.167969 0-3.617187 2.261719-7.507813 7.234375-7.507813zm0 0"/><path d="m217.261719 215.746094c-.027344 1.808594.59375 3.570312 1.75 4.964844 1.367187 1.453124 3.273437 2.28125 5.269531 2.28125s3.902344-.828126 5.269531-2.28125c1.15625-1.394532 1.777344-3.15625 1.75-4.96875 0-3.601563-2.410156-7.246094-7.019531-7.246094s-7.019531 3.644531-7.019531 7.25zm7.019531-6.257813c4.136719 0 6.019531 3.238281 6.019531 6.25.027344 1.570313-.507812 3.101563-1.507812 4.316407-1.175781 1.234374-2.808594 1.933593-4.511719 1.933593-1.707031 0-3.335938-.699219-4.511719-1.933593-1-1.214844-1.535156-2.742188-1.507812-4.3125 0-3.007813 1.882812-6.253907 6.019531-6.253907zm0 0"/><path d="m208.859375 184.960938c5.320313 0 8.101563-4.214844 8.101563-8.382813.03125-2.089844-.683594-4.128906-2.019532-5.738281-1.53125-1.746094-3.765625-2.710938-6.085937-2.632813-5.320313 0-8.105469 4.214844-8.105469 8.382813-.03125 2.089844.6875 4.125 2.023438 5.734375 1.53125 1.75 3.765624 2.714843 6.085937 2.636719zm0-15.75c4.882813 0 7.101563 3.820312 7.101563 7.367187 0 3.550781-2.226563 7.382813-7.101563 7.382813s-7.105469-3.820313-7.105469-7.371094c0-3.546875 2.226563-7.378906 7.105469-7.378906zm0 0"/><path d="m167.738281 259.558594c-5.324219 0-8.109375 4.21875-8.109375 8.382812-.03125 2.089844.683594 4.125 2.019532 5.734375 1.535156 1.746094 3.769531 2.714844 6.089843 2.632813 5.324219 0 8.101563-4.214844 8.101563-8.378906.03125-2.09375-.683594-4.125-2.019532-5.738282-1.53125-1.742187-3.761718-2.707031-6.082031-2.632812zm0 15.75c-2.027343.078125-3.984375-.761719-5.328125-2.285156-1.183594-1.425782-1.8125-3.230469-1.78125-5.082032 0-3.554687 2.222656-7.382812 7.109375-7.382812 2.03125-.074219 3.984375.765625 5.328125 2.285156 1.179688 1.429688 1.8125 3.230469 1.777344 5.085938 0 3.554687-2.222656 7.378906-7.105469 7.378906zm0 0"/><path d="m132.878906 196.011719c1.121094-1.34375 1.71875-3.046875 1.691406-4.796875 0-3.480469-2.328124-7-6.78125-7-4.449218 0-6.773437 3.523437-6.773437 7 0 3.472656 2.328125 7 6.773437 7 1.941407.066406 3.808594-.742188 5.089844-2.203125zm-5.089844 1.207031c-3.964843 0-5.773437-3.105469-5.773437-6-.023437-1.507812.488281-2.976562 1.449219-4.144531 1.089844-1.234375 2.679687-1.917969 4.324218-1.855469 3.972657 0 5.78125 3.105469 5.78125 6 .027344 1.507812-.488281 2.980469-1.449218 4.144531-1.089844 1.238281-2.679688 1.917969-4.332032 1.855469zm0 0"/><path d="m346.882812 91.730469-165.757812-90.871094c-2.0625-1.132813-4.558594-1.148437-6.636719-.039063l-170.429687 90.871094c-2.261719 1.226563-3.652344 3.605469-3.617188 6.179688v102.480468c-.0625 98.148438 58.785156 186.746094 149.277344 224.753907l25.917969 11.199219c1.773437.769531 3.785156.765624 5.554687-.007813l22.941406-10.035156c88.828126-38.863281 146.246094-126.597657 146.308594-223.550781v-104.839844c.03125-2.546875-1.335937-4.902344-3.558594-6.140625zm-10.441406 110.980469c-.0625 91.390624-54.1875 174.089843-137.917968 210.722656l-20.183594 8.816406-23.15625-10.011719c-.015625-.003906-.019532-.011719-.035156-.019531-85.300782-35.832031-140.765626-119.351562-140.707032-211.867188v-98.28125l163.3125-87.113281 158.6875 87.058594zm0 0"/></g></svg>