<svg height="354pt" viewBox="0 0 354 354.92412" width="354pt" xmlns="http://www.w3.org/2000/svg"><path d="m348.371094 75.871094c.027344 18.011718-7.121094 35.289062-19.859375 48.019531l-53.601563 53.601563-96.960937-96.953126 53.140625-53.136718c26.570312-26.570313 70.378906-26.570313 96.949218 0 13.023438 12.761718 20.351563 30.234375 20.332032 48.46875zm0 0" fill="#f4b844"/><path d="m328.039062 230.628906c26.570313 26.570313 26.570313 70.382813 0 96.953125-26.851562 26.570313-70.09375 26.570313-96.949218 0l-53.140625-53.132812 96.960937-96.957031zm0 0" fill="#00efd1"/><path d="m274.910156 177.492188-96.960937 96.957031-96.960938-96.957031 96.960938-96.953126zm-48.949218 8.386718c6.058593-5.589844 6.058593-14.917968 0-20.976562-5.792969-5.796875-15.1875-5.796875-20.980469 0-5.792969 5.792968-5.792969 15.183594 0 20.976562 5.792969 5.796875 15.1875 5.796875 20.980469 0zm-35.429688-35.417968c5.792969-5.792969 5.792969-15.183594.003906-20.976563-5.792968-5.792969-15.1875-5.792969-20.980468 0-5.789063 5.792969-5.789063 15.183594.003906 20.976563 5.871094 5.59375 15.101562 5.59375 20.972656 0zm-4.191406 75.039062c2.898437-2.71875 4.546875-6.515625 4.546875-10.488281 0-3.976563-1.648438-7.773438-4.546875-10.492188-5.792969-5.792969-15.1875-5.792969-20.980469 0s-5.792969 15.1875 0 20.980469 15.1875 5.792969 20.980469 0zm-35.429688-35.417969c6.058594-6.0625 6.058594-15.390625 0-20.980469-5.792968-5.792968-15.183594-5.789062-20.972656 0-5.792969 5.792969-5.792969 15.183594 0 20.976563 5.789062 5.792969 15.179688 5.792969 20.972656.003906zm0 0" fill="#00acea"/><path d="m225.960938 164.902344c6.058593 6.058594 6.058593 15.386718 0 20.976562-5.792969 5.796875-15.1875 5.796875-20.980469 0-5.792969-5.792968-5.792969-15.183594 0-20.976562 5.792969-5.796875 15.1875-5.796875 20.980469 0zm0 0" fill="#00efd1"/><path d="m190.53125 129.480469c5.792969 5.792969 5.792969 15.183593.003906 20.976562-5.792968 5.792969-15.1875 5.792969-20.980468 0-5.789063-5.792969-5.789063-15.183593.003906-20.976562 5.871094-5.59375 15.101562-5.59375 20.972656 0zm0 0" fill="#00efd1"/><path d="m186.339844 204.519531c2.898437 2.71875 4.546875 6.515625 4.546875 10.492188 0 3.972656-1.648438 7.769531-4.546875 10.488281-5.792969 5.792969-15.1875 5.792969-20.980469 0s-5.792969-15.1875 0-20.980469 15.1875-5.792969 20.980469 0zm0 0" fill="#00efd1"/><path d="m80.988281 177.492188 96.960938 96.957031-53.597657 53.601562c-26.570312 26.570313-70.390624 26.570313-96.960937 0-26.574219-26.859375-26.574219-70.101562 0-96.960937zm0 0" fill="#f4b844"/><path d="m124.351562 26.929688 53.597657 53.609374-96.960938 96.953126-53.597656-53.601563c-26.570313-26.570313-26.570313-70.390625 0-96.960937 12.972656-12.777344 30.449219-19.9375 48.660156-19.929688 18.109375-.042969 35.488281 7.128906 48.300781 19.929688zm0 0" fill="#00efd1"/><path d="m150.910156 169.101562c6.058594 5.589844 6.058594 14.917969 0 20.980469-5.792968 5.789063-15.183594 5.789063-20.972656-.003906-5.792969-5.792969-5.792969-15.183594 0-20.976563 5.789062-5.789062 15.179688-5.792968 20.972656 0zm0 0" fill="#00efd1"/><g fill="#083863"><path d="m355.371094 75.871094c-.179688-30.535156-18.648438-57.980469-46.867188-69.648438-28.21875-11.664062-60.679687-5.269531-82.363281 16.226563l-48.191406 48.191406-48.652344-48.660156c-14.101563-14.140625-33.273437-22.0546878-53.246094-21.980469-20.070312-.03125-39.339843 7.867188-53.609375 21.980469-29.304687 29.59375-29.304687 77.269531 0 106.859375l48.652344 48.652344-48.652344 48.644531c-29.3125 29.542969-29.222656 77.226562.207032 106.65625 29.425781 29.425781 77.109374 29.519531 106.652343.207031l48.652344-48.652344 48.1875 48.183594c29.539063 29.296875 77.210937 29.199219 106.628906-.21875 29.421875-29.421875 29.519531-77.089844.21875-106.632812l-48.179687-48.1875 48.652344-48.652344c14.082031-14.023438 21.96875-33.097656 21.910156-52.96875zm-177.421875 14.570312 87.0625 87.050782-87.058594 87.054687-87.058594-87.054687zm-145.609375 28.5c-23.820313-24.109375-23.839844-62.886718-.042969-87.015625 11.648437-11.511719 27.375-17.953125 43.753906-17.925781 16.257813-.066406 31.863281 6.375 43.347657 17.878906l48.652343 48.660156-87.058593 87.050782zm87.058594 204.15625c-24.070313 23.855469-62.898438 23.765625-86.859376-.195312-23.964843-23.964844-24.054687-62.789063-.199218-86.863282l48.652344-48.648437 87.0625 87.054687zm203.691406-87.519531c23.851562 24.070313 23.761718 62.890625-.199219 86.851563-23.960937 23.960937-62.78125 24.050781-86.851563.199218l-48.183593-48.183594 87.054687-87.054687zm-48.179688-67.988281-87.058594-87.050782 48.1875-48.1875c23.910157-24.167968 62.886719-24.378906 87.054688-.464843 24.167969 23.910156 24.378906 62.886719.464844 87.054687zm0 0"/><path d="m124.988281 195.03125c6.375 6.257812 15.894531 8.050781 24.109375 4.535156 8.210938-3.519531 13.484375-11.644531 13.351563-20.574218-.101563-5.683594-2.519531-11.078126-6.691407-14.9375-8.554687-8.496094-22.378906-8.449219-30.875.105468-8.496093 8.554688-8.449218 22.378906.105469 30.875zm9.902344-20.980469c3.136719-2.859375 7.933594-2.859375 11.070313 0 .066406.066407.132812.128907.199218.199219 1.429688 1.28125 2.261719 3.101562 2.289063 5.023438.007812 2.210937-.894531 4.332031-2.492188 5.859374-1.972656 2.015626-4.875 2.8125-7.597656 2.089844-2.722656-.71875-4.851563-2.847656-5.570313-5.570312-.71875-2.726563.082032-5.628906 2.097657-7.597656zm0 0"/><path d="m191.191406 199.472656c-8.585937-8.304687-22.253906-8.167968-30.671875.304688-8.421875 8.476562-8.464843 22.148437-.097656 30.675781 8.554687 8.324219 22.164063 8.367187 30.773437.101563 4.273438-4.039063 6.695313-9.660157 6.695313-15.539063s-2.421875-11.5-6.695313-15.535156zm-9.597656 20.882813c-.070312.0625-.140625.128906-.203125.199219-3.058594 3.0625-8.019531 3.0625-11.078125.003906-3.0625-3.058594-3.0625-8.019532-.003906-11.078125 3.144531-2.847657 7.9375-2.847657 11.082031 0 .066406.0625.132813.128906.203125.191406 1.460938 1.390625 2.292969 3.324219 2.292969 5.34375 0 2.023437-.832031 3.953125-2.292969 5.347656zm0 0"/><path d="m180.046875 161.652344c9.765625-.09375 18.265625-6.710938 20.753906-16.15625 2.488281-9.445313-1.644531-19.390625-10.097656-24.289063-8.453125-4.894531-19.136719-3.535156-26.09375 3.324219-8.363281 8.59375-8.363281 22.285156 0 30.878906 4.125 4.03125 9.667969 6.273438 15.4375 6.242188zm-5.535156-27.222656c3.136719-2.855469 7.929687-2.855469 11.066406 0 2.910156 3.082031 2.839844 7.917968-.15625 10.914062-2.992187 2.996094-7.828125 3.070312-10.914063.167969-2.84375-3.148438-2.84375-7.9375.003907-11.082031zm0 0"/><path d="m200.035156 190.835938c8.554688 8.320312 22.164063 8.363281 30.773438.097656 4.171875-3.859375 6.589844-9.253906 6.691406-14.933594.277344-9.984375-6.230469-18.890625-15.824219-21.664062-9.59375-2.769532-19.847656 1.289062-24.941406 9.878906s-3.734375 19.539062 3.300781 26.625zm9.890625-20.980469c3.144531-2.847657 7.9375-2.847657 11.085938 0 1.597656 1.527343 2.5 3.648437 2.492187 5.859375-.03125 1.921875-.859375 3.742187-2.289062 5.023437-.070313.066407-.136719.128907-.199219.199219-3.058594 3.0625-8.019531 3.0625-11.082031.003906s-3.0625-8.019531-.003906-11.078125zm0 0"/></g></svg>