<svg height="444pt" viewBox="0 -19 444 444" width="444pt" xmlns="http://www.w3.org/2000/svg"><path d="m303.089844 162.273438h107.820312v22.21875h-107.820312zm0 0" fill="#00acea"/><path d="m303.089844 82.214844v-1.292969c.003906-5.683594 4.617187-10.289063 10.300781-10.289063h87.21875c5.683594 0 10.296875 4.605469 10.300781 10.289063v81.351563h-107.820312zm0 0" fill="#00efd1"/><path d="m57.660156 356.285156c-13.320312-14.699218-20.683594-33.828125-20.660156-53.660156v-70h370v70c.015625 44.1875-35.8125 80.015625-80 80h-210c-22.617188.023438-44.183594-9.550781-59.339844-26.339844zm0 0" fill="#00acea"/><path d="m402.609375 372.554688c5.859375 5.859374 5.855469 15.355468-.003906 21.214843-5.859375 5.855469-15.359375 5.855469-21.214844-.007812l-19.25-19.257813c9.148437-4.480468 17.359375-10.664062 24.1875-18.21875l.0625.046875zm0 0" fill="#00efd1"/><path d="m93.878906 63.164062c17.660156-17.050781 45.722656-16.808593 63.082032.550782l3.539062 3.527344-63.640625 63.640624-3.539063-3.53125c-17.570312-17.574218-17.570312-46.0625 0-63.636718.191407-.191406.371094-.371094.558594-.550782zm0 0" fill="#00efd1"/><path d="m81.859375 374.511719-19.25 19.25c-5.855469 5.863281-15.355469 5.863281-21.214844.007812-5.859375-5.859375-5.863281-15.355469-.003906-21.214843l16.269531-16.269532c6.839844 7.554688 15.050782 13.738282 24.199219 18.226563zm0 0" fill="#00efd1"/><g fill="#083863"><path d="m437 225.554688h-393v-156.929688c.015625-12.699219 10.304688-22.988281 23-23 9.207031-.007812 17.222656 6.285156 19.398438 15.226562-18.375 20.585938-17.507813 51.925782 1.980468 71.460938l3.539063 3.53125c2.734375 2.726562 7.160156 2.722656 9.890625-.007812l63.640625-63.640626c1.316406-1.3125 2.054687-3.097656 2.050781-4.953124 0-1.859376-.742188-3.640626-2.058594-4.953126l-3.53125-3.523437c-17.046875-17.046875-43.574218-20.140625-64.085937-7.476563-5.574219-11.992187-17.597657-19.664062-30.824219-19.664062-20.425781.023438-36.976562 16.574219-37 37v156.929688h-23c-3.867188 0-7 3.132812-7 7 0 3.863281 3.132812 7 7 7h23v63.070312c-.007812 19.265625 6.394531 37.992188 18.199219 53.21875l-11.757813 11.757812c-8.59375 8.59375-8.589844 22.527344.003906 31.117188s22.523438 8.589844 31.113282-.003906l15.824218-15.863282c10.644532 4.464844 22.074219 6.742188 33.617188 6.703126h210c11.542969.042968 22.976562-2.234376 33.621094-6.703126l15.820312 15.847657c5.515625 5.746093 13.703125 8.0625 21.414063 6.054687 7.707031-2.007812 13.726562-8.023437 15.738281-15.726562 2.015625-7.707032-.292969-15.898438-6.035156-21.417969l-11.757813-11.769531c11.804688-15.226563 18.207031-33.949219 18.199219-53.214844v-63.070312h23c3.867188 0 7-3.136719 7-7 0-3.867188-3.132812-7-7-7zm-286.441406-158.269532-53.664063 53.667969c-13.492187-15.035156-12.886719-37.992187 1.382813-52.292969.140625-.140625.273437-.3125.460937-.492187.570313-.546875 1.15625-.613281 1.753907-1.613281h.507812v-.351563c14.511719-11.957031 35.585938-11.496094 49.558594 1.082031zm-92.898438 321.53125c-3.125 3.125-8.191406 3.125-11.316406.003906-3.125-3.125-3.128906-8.191406-.003906-11.316406l11.300781-11.300781c3.9375 3.679687 8.207031 6.984375 12.757813 9.871094zm342.339844-5.664062c.003906 3.238281-1.945312 6.160156-4.9375 7.398437-2.988281 1.238281-6.433594.554688-8.722656-1.734375l-12.734375-12.742187c4.550781-2.882813 8.820312-6.1875 12.753906-9.871094l11.300781 11.300781c1.503906 1.496094 2.347656 3.53125 2.339844 5.648438zm0-80.527344c.015625 19.355469-7.675781 37.925781-21.371094 51.609375-13.695312 13.679687-32.269531 21.351563-51.628906 21.320313h-210c-11.109375.042968-22.082031-2.476563-32.058594-7.359376-25.050781-12.242187-40.941406-37.6875-40.941406-65.570312v-63.070312h356zm0 0"/><path d="m154.070312 130.695312c2.832032 0 5.382813-1.707031 6.46875-4.324218 1.082032-2.617188.484376-5.625-1.519531-7.628906l-2.191406-2.1875c-2.734375-2.734376-7.164063-2.734376-9.898437 0-2.734376 2.734374-2.734376 7.164062 0 9.898437l2.1875 2.191406c1.3125 1.3125 3.09375 2.050781 4.953124 2.050781zm0 0"/><path d="m125.070312 138.414062c-2.734374 2.730469-2.734374 7.164063 0 9.898438l2.191407 2.191406c2.734375 2.730469 7.164062 2.730469 9.898437 0 2.734375-2.734375 2.734375-7.167968 0-9.902344l-2.1875-2.191406c-2.734375-2.734375-7.167968-2.730468-9.902344.003906zm0 0"/><path d="m175.929688 108.832031c2.832031 0 5.382812-1.703125 6.46875-4.320312 1.082031-2.613281.484374-5.625-1.519532-7.628907l-2.1875-2.1875c-2.734375-2.734374-7.167968-2.734374-9.902344 0-2.734374 2.734376-2.734374 7.164063 0 9.898438l2.191407 2.191406c1.3125 1.3125 3.09375 2.050782 4.949219 2.046875zm0 0"/><path d="m173.183594 152.695312c2.738281 2.726563 7.171875 2.714844 9.898437-.023437 2.726563-2.742187 2.714844-7.171875-.023437-9.902344l-2.191406-2.179687c-2.738282-2.726563-7.171876-2.714844-9.898438.027344-2.726562 2.738281-2.71875 7.171874.023438 9.898437zm0 0"/><path d="m151.3125 174.554688c2.730469 2.734374 7.164062 2.734374 9.898438 0 2.734374-2.734376 2.734374-7.167969 0-9.902344l-2.191407-2.1875c-2.730469-2.734375-7.164062-2.734375-9.898437 0s-2.734375 7.164062 0 9.898437zm0 0"/><path d="m192.828125 118.753906c-2.726563 2.738282-2.71875 7.171875.023437 9.898438l2.1875 2.179687c1.769532 1.792969 4.363282 2.503907 6.792969 1.851563 2.433594-.648438 4.328125-2.550782 4.96875-4.988282.636719-2.433593-.082031-5.023437-1.882812-6.78125l-2.1875-2.179687c-2.742188-2.730469-7.171875-2.71875-9.902344.019531zm0 0"/><path d="m296 184.492188c.035156 3.898437 3.195312 7.039062 7.089844 7.0625h107.820312c3.894532-.023438 7.054688-3.164063 7.089844-7.0625v-94.9375h9.871094c6.855468-.085938 12.921875-4.453126 15.183594-10.925782 2.257812-6.472656.226562-13.667968-5.085938-18.003906l-70.859375-57.066406c-5.898437-4.734375-14.292969-4.746094-20.207031-.027344l-70.871094 57.023438c-5.324219 4.339843-7.363281 11.546874-5.105469 18.035156 2.261719 6.488281 8.335938 10.871094 15.207031 10.964844h9.867188zm108-28.9375h-94v-74.632813c.039062-1.851563 1.539062-3.339844 3.390625-3.367187h87.21875c1.851563.027343 3.351563 1.515624 3.390625 3.367187zm-94 22v-8h94v8zm-25.859375-103.582032c-.347656-.871094-.074219-1.867187.667969-2.441406l70.878906-57.078125c.765625-.621094 1.863281-.628906 2.632812-.011719l70.871094 57.019532c.746094.605468 1.015625 1.621093.667969 2.515624-.234375.914063-1.046875 1.558594-1.988281 1.578126h-10.949219c-2.296875-7.089844-8.863281-11.921876-16.3125-12h-87.21875c-7.449219.078124-14.015625 4.910156-16.3125 12h-10.949219c-.941406-.023438-1.753906-.667969-1.988281-1.582032zm0 0"/></g></svg>