<svg height="464pt" viewBox="0 -46 464 464" width="464pt" xmlns="http://www.w3.org/2000/svg"><path d="m450.121094 190.808594c6.722656 6.722656 8.734375 16.832031 5.097656 25.617187-3.640625 8.78125-12.210938 14.507813-21.71875 14.503907h-403c-12.980469 0-23.5-10.519532-23.5-23.5 0-12.976563 10.519531-23.5 23.5-23.5h403c6.234375-.007813 12.214844 2.46875 16.621094 6.878906zm0 0" fill="#00efd1"/><path d="m396.808594 324.058594c-15.175782 17.097656-36.945313 26.878906-59.808594 26.871094h-210c-44.183594.003906-80.003906-35.816407-80-80v-17h370v17c.027344 19.589843-7.160156 38.503906-20.191406 53.128906zm0 0" fill="#00efd1"/><path d="m47 230.929688h370v23h-370zm0 0" fill="#00acea"/><path d="m411.609375 338.859375c5.859375 5.859375 5.855469 15.359375-.003906 21.214844-5.859375 5.859375-15.359375 5.855469-21.214844-.003907l-17.589844-17.589843c9.101563-4.558594 17.25-10.808594 24.007813-18.421875zm0 0" fill="#00acea"/><path d="m124 35.929688c8.285156 0 15 6.714843 15 15 0 8.285156-6.714844 15-15 15h-40c-8.285156 0-15-6.714844-15-15 0-8.285157 6.714844-15 15-15zm0 0" fill="#00acea"/><path d="m91.628906 342.699219-.347656.699219-17.671875 17.671874c-5.855469 5.859376-15.355469 5.863282-21.214844.003907-5.859375-5.855469-5.863281-15.355469-.003906-21.214844l15.269531-15.269531c6.78125 7.492187 14.910156 13.632812 23.96875 18.109375zm0 0" fill="#00acea"/><g fill="#083863"><path d="m30.5 238.199219h9.5v32.730469c-.007812 19.269531 6.394531 37.992187 18.199219 53.222656l-10.761719 10.757812c-8.589844 8.59375-8.585938 22.523438.007812 31.117188 8.59375 8.589844 22.523438 8.585937 31.117188-.007813l14.824219-14.691406c10.632812 4.519531 22.0625 6.855469 33.613281 6.871094h210c11.808594-.011719 23.488281-2.453125 34.3125-7.167969l14.125 14.058594c8.625 8.503906 22.5 8.453125 31.058594-.121094 8.558594-8.570312 8.585937-22.445312.0625-31.054688l-10.324219-10.328124c11.527344-15.132813 17.769531-33.632813 17.765625-52.65625v-32.730469h9.5c16.863281-.082031 30.492188-13.769531 30.5-30.632813-.003906-8.078125-3.222656-15.820312-8.945312-21.519531-5.722657-5.695313-13.480469-8.878906-21.554688-8.847656h-379.5v-140.269531c.015625-12.695313 10.304688-22.984376 23-23 5.324219.039062 10.417969 2.195312 14.144531 6 2.644531 2.484374 4.457031 5.722656 5.203125 9.269531h-12.347656c-5.816406-.0625-11.417969 2.207031-15.550781 6.308593-6.292969 6.308594-8.179688 15.785157-4.777344 24.023438 3.398437 8.242188 11.414063 13.628906 20.328125 13.667969h40c5.851562-.035157 11.449219-2.398438 15.550781-6.574219 4.140625-4.089844 6.464844-9.671875 6.449219-15.492188-.019531-12.132812-9.867188-21.949218-22-21.933593h-13.363281c-1.09375-7.246094-4.453125-13.957031-9.601563-19.175781-6.351562-6.414063-15.007812-10.023438-24.035156-10.023438-20.410156-.0078125-36.96875 16.519531-37 36.929688v140.269531h-9.5c-16.84375 0-30.5 13.65625-30.5 30.5s13.65625 30.5 30.5 30.5zm101.5-187.132813c.003906 2.144532-.839844 4.203125-2.351562 5.726563-1.488282 1.519531-3.519532 2.386719-5.648438 2.40625h-40c-4.441406-.066407-8.003906-3.691407-8-8.132813-.003906-2.105468.84375-4.125 2.351562-5.59375 1.5-1.484375 3.535157-2.304687 5.648438-2.273437h40c2.105469-.027344 4.136719.789062 5.636719 2.265625 1.503906 1.476562 2.355469 3.492187 2.363281 5.601562zm-63.339844 305.054688c-3.125 3.125-8.1875 3.128906-11.316406.003906-3.125-3.125-3.125-8.1875-.003906-11.316406l10.300781-10.296875c3.9375 3.679687 8.207031 6.984375 12.757813 9.871093zm340.339844-6.652344c0 3.238281-1.953125 6.152344-4.941406 7.390625-2.992188 1.234375-6.433594.550781-8.71875-1.738281l-11.125-11.128906c4.519531-2.917969 8.761718-6.257813 12.664062-9.964844l9.78125 9.78125c1.503906 1.5 2.347656 3.539062 2.339844 5.660156zm-17.421875-30.058594c-6.160156 6.992188-13.601563 12.746094-21.921875 16.949219-10.117188 5.144531-21.304688 7.828125-32.65625 7.839844h-210c-11.203125-.011719-22.253906-2.628907-32.273438-7.640625-24.929687-12.375-40.707031-37.796875-40.726562-65.628906v-9.730469h356v9.730469c.011719 17.871093-6.546875 35.125-18.421875 48.480468zm18.421875-72.210937h-356v-9h356zm-379.5-56h403c4.363281-.058594 8.566406 1.632812 11.671875 4.695312 4.714844 4.742188 6.125 11.851563 3.574219 18.03125-2.550782 6.183594-8.558594 10.234375-15.246094 10.273438h-403c-4.394531-.039063-8.59375-1.828125-11.671875-4.964844-3.101563-3.0625-4.839844-7.242187-4.828125-11.601563.015625-9.09375 7.40625-16.453124 16.5-16.433593zm0 0"/><path d="m111 84.929688c0-3.867188-3.132812-7-7-7s-7 3.132812-7 7v2c0 3.867187 3.132812 7 7 7s7-3.132813 7-7zm0 0"/><path d="m91 84.929688c0-3.867188-3.132812-7-7-7s-7 3.132812-7 7v2c0 3.867187 3.132812 7 7 7s7-3.132813 7-7zm0 0"/><path d="m131 84.929688c0-3.867188-3.132812-7-7-7s-7 3.132812-7 7v2c0 3.867187 3.132812 7 7 7s7-3.132813 7-7zm0 0"/><path d="m104 99.929688c-3.867188 0-7 3.132812-7 7v2c0 3.867187 3.132812 7 7 7s7-3.132813 7-7v-2c0-3.867188-3.132812-7-7-7zm0 0"/><path d="m84 99.929688c-3.867188 0-7 3.132812-7 7v2c0 3.867187 3.132812 7 7 7s7-3.132813 7-7v-2c0-3.867188-3.132812-7-7-7zm0 0"/><path d="m124 99.929688c-3.867188 0-7 3.132812-7 7v2c0 3.867187 3.132812 7 7 7s7-3.132813 7-7v-2c0-3.867188-3.132812-7-7-7zm0 0"/></g></svg>