<svg height="430pt" viewBox="0 -28 430 430" width="430pt" xmlns="http://www.w3.org/2000/svg"><path d="m379.328125 324.660156c-15.15625 16.78125-36.714844 26.355469-59.328125 26.339844h-210c-44.183594.003906-80.003906-35.816406-80-80v-70h185v94.769531h98v-94.769531h87v70c.027344 19.835938-7.34375 38.96875-20.671875 53.660156zm0 0" fill="#00efd1"/><path d="m395.609375 340.929688c5.859375 5.859374 5.855469 15.359374-.003906 21.214843-5.859375 5.859375-15.359375 5.855469-21.214844-.003906l-19.199219-19.199219-.03125-.070312c9.144532-4.476563 17.347656-10.65625 24.167969-18.210938zm0 0" fill="#00acea"/><path d="m215 256.769531h98v39h-98zm0 0" fill="#f4b844"/><path d="m313 201v55.769531h-98v-59c-.003906-11.046875 8.953125-20.003906 20-20h58c11.046875-.003906 20.003906 8.953125 20 20zm0 0" fill="#00acea"/><path d="m86.878906 31.539062c17.660156-17.050781 45.722656-16.804687 63.082032.550782l3.539062 3.539062-63.640625 63.640625-3.539063-3.539062c-17.570312-17.574219-17.570312-46.066407 0-63.640625.191407-.191406.371094-.371094.558594-.550782zm0 0" fill="#00acea"/><path d="m74.78125 342.839844-.121094.25-19.050781 19.050781c-5.855469 5.859375-15.355469 5.863281-21.214844.003906-5.859375-5.855469-5.863281-15.355469-.003906-21.214843l16.269531-16.269532c6.816406 7.535156 15 13.703125 24.121094 18.179688zm0 0" fill="#00acea"/><g fill="#083863"><path d="m147.070312 99.070312c2.832032 0 5.386719-1.710937 6.46875-4.328124 1.082032-2.621094.476563-5.632813-1.53125-7.632813l-2.191406-2.179687c-1.765625-1.792969-4.359375-2.5-6.789062-1.851563-2.433594.648437-4.328125 2.554687-4.96875 4.988281-.636719 2.4375.082031 5.027344 1.882812 6.785156l2.191406 2.179688c1.308594 1.308594 3.085938 2.042969 4.9375 2.039062zm0 0"/><path d="m118.058594 106.8125c-2.726563 2.738281-2.71875 7.171875.023437 9.898438l2.191407 2.179687c1.765624 1.792969 4.359374 2.5 6.789062 1.851563 2.433594-.648438 4.328125-2.554688 4.96875-4.988282.636719-2.4375-.082031-5.027344-1.882812-6.785156l-2.191407-2.179688c-2.738281-2.726562-7.171875-2.714843-9.898437.023438zm0 0"/><path d="m171.679688 63.070312c-1.765626-1.792968-4.359376-2.5-6.792969-1.851562-2.429688.648438-4.328125 2.554688-4.964844 4.988281-.640625 2.433594.078125 5.023438 1.878906 6.78125l2.191407 2.183594c1.765624 1.792969 4.359374 2.5 6.789062 1.851563 2.433594-.648438 4.328125-2.554688 4.96875-4.988282.636719-2.4375-.078125-5.027344-1.882812-6.785156zm0 0"/><path d="m163.980469 108.980469c-2.734375 2.734375-2.734375 7.167969 0 9.902343l2.191406 2.1875c2.730469 2.734376 7.164063 2.734376 9.898437 0 2.734376-2.734374 2.734376-7.164062 0-9.898437l-2.191406-2.191406c-2.730468-2.734375-7.164062-2.734375-9.898437 0zm0 0"/><path d="m144.308594 142.929688c2.734375 2.734374 7.167968 2.734374 9.902344 0 2.734374-2.734376 2.734374-7.167969 0-9.902344l-2.191407-2.1875c-2.734375-2.734375-7.164062-2.734375-9.898437 0-2.734375 2.730468-2.734375 7.164062 0 9.898437zm0 0"/><path d="m192.980469 101.261719c2.832031 0 5.382812-1.707031 6.464843-4.324219 1.085938-2.613281.484376-5.625-1.515624-7.625l-2.191407-2.191406c-2.730469-2.734375-7.164062-2.734375-9.898437 0s-2.734375 7.167968 0 9.898437l2.191406 2.191407c1.308594 1.316406 3.089844 2.050781 4.949219 2.050781zm0 0"/><path d="m293 170.769531h-58c-13.386719-.042969-24.777344 9.753907-26.730469 23h-171.269531v-156.769531c.015625-12.695312 10.304688-22.984375 23-23 9.207031-.007812 17.222656 6.285156 19.398438 15.230469-18.371094 20.578125-17.507813 51.914062 1.972656 71.449219l3.539062 3.539062c2.734375 2.734375 7.167969 2.734375 9.898438 0l63.640625-63.636719c2.734375-2.734375 2.734375-7.167969 0-9.902343l-3.539063-3.539063c-17.046875-17.042969-43.570312-20.140625-64.085937-7.476563-5.574219-11.992187-17.597657-19.664062-30.824219-19.664062-20.425781.0234375-36.976562 16.574219-37 37v156.769531h-23v14h23v63.230469c-.007812 19.269531 6.394531 37.992188 18.199219 53.222656l-11.757813 11.757813c-8.589844 8.59375-8.589844 22.523437.003906 31.113281s22.523438 8.589844 31.113282-.003906l15.828125-15.941406c10.648437 4.441406 22.078125 6.691406 33.613281 6.621093h210c11.535156.070313 22.964844-2.179687 33.613281-6.621093l15.828125 15.882812c8.574219 8.59375 22.492188 8.605469 31.085938.03125s8.605468-22.496094.03125-31.085938l-11.765625-11.757812c11.8125-15.226562 18.214843-33.949219 18.207031-53.21875v-63.230469h23v-14h-110.269531c-1.953125-13.246093-13.34375-23.042969-26.730469-23zm-149.4375-135.097656-53.664062 53.660156c-13.496094-15.035156-12.890626-37.996093 1.378906-52.300781.144531-.144531.28125-.398438.464844-.570312.570312-.550782 1.15625-.695313 1.75-1.695313h.507812v-.191406c14.511719-11.957031 35.589844-11.492188 49.5625 1.089843zm78.4375 228.097656h84v25h-84zm13-79h58c7.175781.007813 12.992188 5.824219 13 13v52h-84v-52c.007812-7.175781 5.824219-12.992187 13-13zm-184.339844 172.421875c-3.125 3.125-8.191406 3.128906-11.316406.003906s-3.128906-8.191406-.003906-11.316406l11.300781-11.292968c3.9375 3.679687 8.207031 6.984374 12.757813 9.867187zm342.339844-5.652344c0 3.238282-1.953125 6.152344-4.941406 7.390626-2.992188 1.234374-6.433594.550781-8.71875-1.738282l-12.734375-12.734375c4.550781-2.886719 8.820312-6.191406 12.753906-9.871093l11.296875 11.300781c1.503906 1.496093 2.347656 3.53125 2.34375 5.652343zm0-80.539062c.058594 27.871094-15.847656 53.3125-40.925781 65.46875-9.984375 4.875-20.960938 7.375-32.074219 7.300781h-210c-20.621094.101563-40.308594-8.574219-54.148438-23.863281-12.144531-13.390625-18.863281-30.828125-18.851562-48.90625v-63.230469h171v88c0 3.867188 3.132812 7 7 7h98c3.867188 0 7-3.132812 7-7v-88h73zm0 0"/><path d="m323 114.769531c0 3.867188 3.132812 7 7 7h85c3.867188 0 7-3.132812 7-7 0-3.867187-3.132812-7-7-7h-85c-3.867188 0-7 3.132813-7 7zm0 0"/><path d="m335 52.769531h-85c-3.867188 0-7 3.132813-7 7 0 3.867188 3.132812 7 7 7h85c3.867188 0 7-3.132812 7-7 0-3.867187-3.132812-7-7-7zm0 0"/></g></svg>