<svg height="439pt" viewBox="-27 0 439 439.62" width="439pt" xmlns="http://www.w3.org/2000/svg"><path d="m378.308594 30c0 12.703125-10.296875 23-23 23-12.699219 0-23-10.296875-23-23s10.300781-23 23-23c12.703125 0 23 10.296875 23 23zm0 0" fill="#00acea"/><path d="m362.308594 128c0 8.285156-6.714844 15-15 15-8.28125 0-15-6.714844-15-15s6.71875-15 15-15c8.285156 0 15 6.714844 15 15zm0 0" fill="#00acea"/><path d="m332.28125 171.890625c6.167969 3.238281 10.03125 9.632813 10.027344 16.597656v.011719c.003906 4.972656-1.972656 9.742188-5.488282 13.257812-3.519531 3.515626-8.289062 5.488282-13.261718 5.480469h-141.25v-27.488281c0-5.523438 4.480468-10 10-10h131.25c3.039062-.007812 6.03125.726562 8.722656 2.140625zm0 0" fill="#fedb41"/><path d="m324.628906 161.671875c4.347656 1.589844 7.347656 5.597656 7.652344 10.21875-2.691406-1.414063-5.683594-2.148437-8.722656-2.140625h-43.277344c-.160156-4.019531-1.167969-7.957031-2.953125-11.558594 2.75-2.453125 6.300781-3.804687 9.980469-3.800781.203125 0 .390625 0 .589844.007813 2.480468-9.632813 12.046874-15.652344 21.800781-13.722657 9.757812 1.929688 16.308593 11.144531 14.929687 20.996094zm0 0" fill="#00acea"/><path d="m322.308594 72.929688-33.429688 37.910156-28.558594-21.199219v53.789063c-7.890624-2.574219-16.503906-1.644532-23.664062 2.550781-7.160156 4.191406-12.179688 11.25-13.796875 19.390625l-.550781-.101563c-.003906-14.632812-11.863282-26.496093-26.5-26.5-.347656 0-.699219.011719-1.039063.019531-4.160156-16.160156-19.691406-26.703124-36.246093-24.605468-16.554688 2.097656-28.964844 16.179687-28.964844 32.867187.003906 1.53125.105468 3.0625.3125 4.578125-5.570313 2.050782-9.992188 6.390625-12.152344 11.921875l-.410156-.160156c0-7.515625-5.5625-13.867187-13.007813-14.859375v-58.890625l-28.5625 21.199219-33.429687-37.910156 61.992187-50.5h33.429688c0 24.621093 19.957031 44.582031 44.578125 44.582031s44.582031-19.960938 44.582031-44.582031h28.429687zm0 0" fill="#00efd1"/><path d="m307.308594 207.238281-10.617188 94.542969c-21.441406 25.316406-50.679687 42.796875-83.132812 49.699219h-.027344c-.398438-5.214844-4.742188-9.238281-9.972656-9.242188h-42.5c-5.230469.003907-9.578125 4.035157-9.96875 9.25-32.453125-6.90625-61.703125-24.386719-83.160156-49.699219l-10.621094-94.550781h65v82.761719c0 5.523438 4.480468 10 10 10 5.523437 0 10-4.476562 10-10v-90.011719c0-5.519531 4.480468-10 10-10 5.523437 0 10 4.480469 10 10v40.011719c0 5.523438 4.480468 10 10 10 5.523437 0 10-4.476562 10-10v-32.761719zm-120 89.761719c0-5.523438-4.476563-10-10-10-5.519532 0-10 4.476562-10 10s4.480468 10 10 10c5.523437 0 10-4.476562 10-10zm0 0" fill="#00efd1"/><path d="m296.691406 301.78125-12.132812 107.949219c-1.277344 12.777343-12.027344 22.507812-24.867188 22.507812h-154.761718c-12.839844 0-23.589844-9.730469-24.871094-22.507812l-12.128906-107.941407c21.457031 25.3125 50.707031 42.792969 83.160156 49.699219-.019532.242188-.03125.5-.03125.75v5.011719c0 5.523438 4.480468 10 10 10h42.5c5.523437 0 10-4.476562 10-10v-5.011719c0-.257812-.007813-.507812-.027344-.757812h.027344c32.453125-6.902344 61.691406-24.382813 83.132812-49.699219zm0 0" fill="#00efd1"/><path d="m260.320312 143.429688c7.425782 2.429687 13.558594 7.75 17.007813 14.761718-3.195313 2.84375-5.023437 6.917969-5.019531 11.199219v.359375h-49.96875c.394531-9.0625 5.003906-17.417969 12.460937-22.585938 7.453125-5.164062 16.894531-6.546874 25.519531-3.734374zm0 0" fill="#00acea"/><path d="m137.730469 22.429688h89.160156c0 24.621093-19.960937 44.582031-44.582031 44.582031s-44.578125-19.960938-44.578125-44.582031zm0 0" fill="#fedb41"/><path d="m222.308594 165.269531.550781.101563c-.285156 1.445312-.457031 2.90625-.519531 4.378906h-30.03125c-5.519532 0-10 4.476562-10 10v60.25c0 5.523438-4.476563 10-10 10-5.519532 0-10-4.476562-10-10v-40.011719c0-5.519531-4.476563-10-10-10-5.519532 0-10 4.480469-10 10v90.011719c0 5.523438-4.476563 10-10 10-5.519532 0-10-4.476562-10-10v-110.261719c.003906-3.964843-2.347656-7.558593-5.988282-9.136719.042969-2.417968.519532-4.804687 1.398438-7.050781 2.160156-5.53125 6.582031-9.871093 12.152344-11.921875-.207032-1.515625-.308594-3.046875-.3125-4.578125 0-16.6875 12.410156-30.769531 28.964844-32.867187 16.554687-2.097656 32.085937 8.445312 36.246093 24.605468.339844-.007812.691407-.019531 1.039063-.019531 14.636718.003907 26.496094 11.867188 26.5 26.5zm0 0" fill="#00acea"/><path d="m151.089844 351.488281c.390625-5.214843 4.738281-9.246093 9.96875-9.25h42.5c5.230468.003907 9.574218 4.027344 9.972656 9.242188.019531.25.027344.5.027344.757812v5.011719c0 5.523438-4.476563 10-10 10h-42.5c-5.519532 0-10-4.476562-10-10v-5.011719c0-.25.011718-.507812.03125-.75zm0 0" fill="#00acea"/><path d="m187.308594 297c0 5.523438-4.476563 10-10 10-5.519532 0-10-4.476562-10-10s4.480468-10 10-10c5.523437 0 10 4.476562 10 10zm0 0" fill="#00acea"/><path d="m32.308594 205.078125c-6.152344-3.238281-10-9.625-10-16.578125v-.011719c.003906-10.351562 8.398437-18.742187 18.75-18.738281h71.25c1.382812-.003906 2.75.285156 4.011718.851562 3.640626 1.578126 5.992188 5.171876 5.988282 9.136719v27.5h-81.25c-3.046875.007813-6.050782-.734375-8.75-2.160156zm0 0" fill="#fedb41"/><path d="m104.300781 148.53125c7.445313.992188 13.007813 7.34375 13.007813 14.859375l.410156.160156c-.878906 2.246094-1.355469 4.632813-1.398438 7.050781-1.261718-.566406-2.628906-.855468-4.011718-.851562h-55v-.078125c0-5.0625 3.203125-12.363281 7.679687-14-1.378906-9.851563 5.175781-19.066406 14.929688-20.996094 9.757812-1.929687 19.324219 4.089844 21.800781 13.722657.203125-.007813.390625-.007813.589844-.007813.667968-.003906 1.332031.042969 1.992187.140625zm0 0" fill="#00acea"/><path d="m46.308594 22c0 8.285156-6.714844 15-15 15-8.28125 0-15-6.714844-15-15s6.71875-15 15-15c8.285156 0 15 6.714844 15 15zm0 0" fill="#00acea"/><path d="m37.308594 134c0 8.285156-6.714844 15-15 15-8.28125 0-15-6.714844-15-15s6.71875-15 15-15c8.285156 0 15 6.714844 15 15zm0 0" fill="#00acea"/><g fill="#083863"><path d="m355.308594 0c-16.566406 0-30 13.429688-30 30s13.433594 30 30 30c16.570312 0 30-13.429688 30-30-.015625-16.5625-13.4375-29.9804688-30-30zm0 46c-8.835938 0-16-7.164062-16-16s7.164062-16 16-16c8.839844 0 16 7.164062 16 16-.007813 8.832031-7.167969 15.988281-16 16zm0 0"/><path d="m347.308594 150c12.152344 0 22-9.851562 22-22s-9.847656-22-22-22c-12.148438 0-22 9.851562-22 22 .015625 12.144531 9.855468 21.984375 22 22zm0-30c4.417968 0 8 3.582031 8 8s-3.582032 8-8 8c-4.417969 0-8-3.582031-8-8 .007812-4.417969 3.585937-7.996094 8-8zm0 0"/><path d="m9.308594 22c0 12.148438 9.851562 22 22 22 12.152344 0 22-9.851562 22-22s-9.847656-22-22-22c-12.144532.015625-21.984375 9.855469-22 22zm30 0c0 4.417969-3.582032 8-8 8-4.417969 0-8-3.582031-8-8s3.582031-8 8-8c4.417968.003906 7.996094 3.582031 8 8zm0 0"/><path d="m44.308594 134c0-12.148438-9.847656-22-22-22-12.148438 0-22 9.851562-22 22s9.851562 22 22 22c12.144531-.015625 21.988281-9.855469 22-22zm-30 0c0-4.417969 3.582031-8 8-8 4.417968 0 8 3.582031 8 8s-3.582032 8-8 8c-4.414063-.003906-7.992188-3.582031-8-8zm0 0"/><path d="m177.308594 314c9.390625 0 17-7.609375 17-17s-7.609375-17-17-17c-9.386719 0-17 7.609375-17 17 .011718 9.382812 7.617187 16.988281 17 17zm0-20c1.660156 0 3 1.34375 3 3s-1.339844 3-3 3c-1.65625 0-3-1.34375-3-3s1.34375-3 3-3zm0 0"/><path d="m25.367188 208.898438c.9375 35.023437 13.550781 68.726562 35.84375 95.757812l11.882812 105.964844c1.578125 16.414062 15.347656 28.957031 31.835938 29h154.761718c16.460938-.035156 30.21875-12.535156 31.824219-28.917969l11.894531-105.964844c22.289063-27.042969 34.902344-60.757812 35.839844-95.792969 6.457031-4.964843 10.183594-12.691406 10.054688-20.835937-.125-8.144531-4.09375-15.746094-10.703126-20.507813-1.121093-3.976562-3.519531-7.472656-6.832031-9.945312-.644531-11.71875-9.132812-21.519531-20.644531-23.828125-11.507812-2.3125-23.121094 3.449219-28.242188 14.011719-1.027343.230468-2.039062.546875-3.015624.945312-3.398438-4.023437-7.480469-7.417968-12.058594-10.027344v-35.199218l17.144531 12.90625c2.878906 2.167968 6.945313 1.734375 9.300781-.992188l33.367188-37.910156c1.28125-1.472656 1.890625-3.40625 1.683594-5.34375-.207032-1.941406-1.207032-3.707031-2.765626-4.875l-67-50.402344c-1.222656-.886718-2.707031-1.351562-4.21875-1.320312h-151.019531c-1.601562-.035156-3.164062.488281-4.421875 1.476562l-61.988281 50.453125c-1.476563 1.195313-2.402344 2.941407-2.558594 4.832031-.15625 1.894532.46875 3.765626 1.726563 5.1875l33.429687 37.90625c2.308594 2.722657 6.34375 3.15625 9.179688.988282l17.140625-12.910156v27.734374c-4.023438-2.597656-8.710938-3.976562-13.5-3.96875-13.777344 0-25.089844 10.898438-25.597656 24.667969-2.996094 2.929688-5.171876 6.597657-6.300782 10.632813h-10.351562c-11.039063.03125-20.835938 7.078125-24.382813 17.53125-3.542969 10.457031-.050781 22.007812 8.691407 28.746094zm14.257812 5.488281c.476562.027343.957031.234375 1.433594.234375h9.996094l6.851562 60.917968c-10.605469-18.753906-16.851562-39.65625-18.28125-61.152343zm92.433594 92.613281c4.484375-.011719 8.777344-1.8125 11.921875-5.007812 3.144531-3.191407 4.886719-7.511719 4.828125-11.992188v-90.011719c.125-1.695312 1.546875-3.007812 3.25-2.988281.761718-.007812 1.488281.308594 2 .867188.515625.585937.785156 1.34375.75 2.121093v40.011719c.128906 9.433594 7.816406 17.007812 17.25 17 4.484375-.011719 8.777344-1.8125 11.921875-5.007812 3.144531-3.191407 4.886719-7.511719 4.828125-11.992188v-25.378906h110.671875l-9.5 84.410156c-18.992188 21.726562-44.082031 37.234375-72.007813 44.511719-3.121094-4.945313-8.566406-7.941407-14.414062-7.921875h-42.5c-5.832032-.054688-11.285156 2.902344-14.417969 7.824218-27.898437-7.214843-52.984375-22.65625-71.996094-44.308593l-9.503906-84.515625h49.667969v75.378906c.128906 9.433594 7.816406 17.007812 17.25 17zm4.75-156.296875c-.164063-1.210937-.246094-2.429687-.246094-3.652344-.003906-13.160156 9.785156-24.269531 22.839844-25.921875 13.054687-1.65625 25.304687 6.65625 28.589844 19.402344.8125 3.167969 3.710937 5.347656 6.980468 5.253906.273438-.007812.554688-.082031.839844-.082031 9.898438 0 18.074219 7.917969 19.316406 16.917969h-22.820312c-9.371094 0-17.5 7.753906-17.5 17.128906v60.25c.0625.761719-.160156 1.515625-.628906 2.121094-.613282.558594-1.414063.875-2.246094.878906-1.679688.007812-3.0625-1.320312-3.125-3v-40.011719c.105468-4.484375-1.605469-8.824219-4.742188-12.03125-4.90625-4.84375-12.234375-6.289062-18.609375-3.664062-6.378906 2.621093-10.570312 8.800781-10.648437 15.695312v90.011719c.0625.761719-.160156 1.515625-.628906 2.121094-.613282.558594-1.414063.875-2.246094.878906-1.679688.007812-3.0625-1.320312-3.125-3v-110.261719c.09375-4.707031-1.800782-9.234375-5.210938-12.476562.113282-.394531.367188-.785157.519532-1.171875 1.449218-3.664063 4.398437-6.535156 8.101562-7.890625 3.09375-1.117188 5-4.230469 4.589844-7.496094zm121.34375-.617187c4.203125 1.355468 7.894531 3.953124 10.601562 7.445312-1.054687 1.5625-1.863281 3.28125-2.402344 5.089844h-35.433593c3.429687-8.246094 11.460937-13.636719 20.390625-13.6875 2.328125.019531 4.636718.410156 6.84375 1.152344zm65.40625 26.535156c1.910156.011718 3.785156.492187 5.460937 1.398437 3.878907 2.042969 6.300781 6.066407 6.289063 10.449219.011718 4.414062-2.394532 8.484375-6.269532 10.597656-1.671874.957032-3.554687 1.492188-5.480468 1.554688h-134.75v-20.871094c0-1.652344 1.847656-3.128906 3.5-3.128906zm-116.75 175.617187v5.011719c-.089844 1.777344-1.476563 3.214844-3.25 3.371094h-42.5c-1.773438-.15625-3.160156-1.59375-3.25-3.371094v-5.011719c0-.054687.128906.078125.136718-.042969.203126-1.542968 1.5625-2.667968 3.113282-2.574218h42.5c1.527344-.082032 2.847656 1.054687 2.992187 2.574218 0 .011719.125-.074218.128907-.0625.003906.066407.128906.039063.128906.105469zm70.785156 56.980469c-.875 9.253906-8.613281 16.339844-17.902344 16.402344h-154.761718c-9.320313-.074219-17.066407-7.199219-17.914063-16.480469l-9.972656-87.742187c18.992187 17.183593 41.921875 29.425781 66.765625 35.640624v.210938c.101562 9.503906 7.746094 17.207031 17.25 17.371094h42.5c9.507812-.164063 17.152344-7.867188 17.25-17.371094v-.210938c24.847656-6.207031 47.78125-18.449218 66.765625-35.636718zm35.972656-194.597656h9.992188c.480468 0 .957031-.207032 1.433594-.234375-1.425782 21.492187-7.675782 42.390625-18.277344 61.140625zm-26.042968-53c3.332031.050781 6.273437-2.152344 7.15625-5.363282 1.445312-5.746093 6.941406-9.515624 12.820312-8.792968s10.300781 5.710937 10.308594 11.632812c0 .515625-.035156 1.03125-.109375 1.542969-.089844.65625-.078125 1.324219.035156 1.980469h-31.382813c-.097656 0-.199218-.65625-.316406-1.074219.425782-.007813.851563.015625 1.273438.074219zm-68.300782-132c-3.527344 17.625-18.9375 30.351562-36.914062 30.484375-9.964844.046875-19.535156-3.902344-26.570313-10.960938-5.277343-5.359375-8.878906-12.144531-10.351562-19.523437zm-142.488281 71.761718-24.359375-27.527343 54.414062-44.234375h24.421876c3.519531 25.519531 25.332031 44.53125 51.09375 44.53125 25.765624 0 47.578124-19.011719 51.097656-44.53125h19.574218l59.082032 44.445312-24.171875 27.363282-23.394531-17.386719c-2.027344-1.582031-4.792969-1.832031-7.074219-.644531-2.304688 1.210937-3.707031 3.640624-3.609375 6.242187v45.4375c-1-.035156-1.582032-.078125-2.253906-.078125-10.460938.007812-20.410157 4.527344-27.300782 12.398438-5.386718-8.5-14.300781-14.144532-24.289062-15.382813-7.207032-17.8125-26.023438-28.027344-44.886719-24.363281-18.863281 3.664062-32.488281 20.179687-32.5 39.394531 0 .125-.007813.25-.007813.375-1.164062.667969-2.28125 1.414063-3.351562 2.226563-2.105469-2.898438-5.035156-5.097657-8.410156-6.308594v-53.699219c.113281-2.609375-1.296875-5.042969-3.609375-6.246094-2.316407-1.207031-5.117188-.960937-7.1875.625zm-9.335937 60.796876c3.097656-1.121094 4.984374-4.261719 4.523437-7.523438-.074219-.527344-.113281-1.0625-.113281-1.597656 0-5.9375 4.433594-10.941406 10.324218-11.652344 5.894532-.714844 11.390626 3.085938 12.808594 8.851562.871094 3.210938 3.8125 5.421876 7.140625 5.363282h.226563c.308594-.035156.613281-.054688.921875-.058594.050781.007812.097656-.109375.152343-.097656 3.753907.351562 6.683594 3.394531 6.898438 7.15625h-43.4375c.199219 0 .386719-.351563.554688-.441406zm-26.339844 14.441406h71.25c.414062 0 .542968.140625.976562.335937 1.027344.53125 1.628906 1.632813 1.523438 2.78125v20.882813h-73.75c-1.925782-.058594-3.808594-.589844-5.480469-1.542969-4.78125-2.582031-7.21875-8.066406-5.929687-13.34375 1.289062-5.28125 5.976562-9.023437 11.410156-9.113281zm0 0"/></g></svg>