<svg height="364pt" viewBox="0 -46 364.00058 364" width="364pt" xmlns="http://www.w3.org/2000/svg"><path d="m7 116.46875h350c.007812 20.386719-16.523438 36.917969-36.910156 36.910156h-276.179688c-20.386718.003906-36.910156-16.523437-36.910156-36.910156zm0 0" fill="#00acea"/><path d="m320.089844 153.378906h36.910156c0 20.386719-16.523438 36.910156-36.910156 36.910156h-276.179688c-20.386718.003907-36.910156-16.523437-36.910156-36.910156zm0 0" fill="#fedb41"/><path d="m320.089844 190.289062h36.910156c0 20.382813-16.527344 36.90625-36.910156 36.902344h-276.179688c-20.382812 0-36.90625-16.519531-36.910156-36.902344zm0 0" fill="#00acea"/><path d="m320.089844 227.191406h36.910156c0 20.382813-16.523438 36.910156-36.910156 36.910156h-276.179688c-20.386718 0-36.910156-16.527343-36.910156-36.910156zm0 0" fill="#fedb41"/><path d="m326.742188 36.460938c4.921874 8.402343 3.078124 19.128906-4.367188 25.40625-7.445312 6.273437-18.332031 6.273437-25.777344 0-7.449218-6.277344-9.292968-17.003907-4.367187-25.40625l17.261719-29.460938zm0 0" fill="#00acea"/><path d="m241.75 36.460938c4.925781 8.402343 3.082031 19.128906-4.367188 25.40625-7.445312 6.273437-18.328124 6.273437-25.777343 0-7.445313-6.277344-9.289063-17.003907-4.363281-25.40625l17.257812-29.460938zm0 0" fill="#00acea"/><path d="m156.761719 36.460938c4.921875 8.402343 3.078125 19.128906-4.367188 25.40625-7.445312 6.273437-18.332031 6.273437-25.777343 0-7.445313-6.277344-9.289063-17.003907-4.367188-25.40625l17.25-29.460938zm0 0" fill="#00acea"/><path d="m71.730469 43.390625c4.953125 8.382813 3.148437 19.113281-4.269531 25.417969-7.421876 6.300781-18.300782 6.34375-25.773438.101562-7.472656-6.242187-9.363281-16.957031-4.476562-25.378906l17.140624-29.53125zm0 0" fill="#00acea"/><g fill="#083863"><path d="m0 227.371094c-.0234375 24.304687 19.605469 44.054687 43.910156 44.179687h276.179688c24.25-.050781 43.886718-19.707031 43.910156-43.957031.003906-3.875-3.125-7.023438-7-7.042969h-4.800781c7.566406-8.140625 11.777343-18.835937 11.800781-29.949219.003906-3.878906-3.125-7.027343-7-7.050781h-4.800781c7.566406-8.144531 11.78125-18.839843 11.800781-29.957031.003906-3.875-3.125-7.023438-7-7.042969h-4.800781c7.566406-8.144531 11.78125-18.839843 11.800781-29.957031.003906-3.875-3.125-7.023438-7-7.042969h-350c-3.875.019531-7.00390625 3.167969-7 7.042969-.0546875 11.125 4.160156 21.847656 11.777344 29.957031h-4.777344c-3.875.019531-7.00390625 3.167969-7 7.042969-.0546875 11.125 4.160156 21.847656 11.777344 29.957031h-4.777344c-3.875.023438-7.00390625 3.171875-7 7.050781-.0585938 11.121094 4.15625 21.84375 11.773438 29.949219h-4.773438c-1.835938-.042969-3.613281.660157-4.929688 1.941407-1.316406 1.28125-2.0624995 3.039062-2.070312 4.878906zm320.089844 30.179687h-276.179688c-7.941406.007813-15.554687-3.164062-21.148437-8.800781-3.851563-3.953125-6.589844-8.851562-7.941407-14.199219h334.351563c-3.285156 13.417969-15.265625 22.894531-29.082031 23zm-297.328125-119.804687c-3.851563-3.953125-6.589844-8.847656-7.941407-14.195313h334.351563c-3.285156 13.417969-15.265625 22.894531-29.082031 23h-276.179688c-7.941406.003907-15.558594-3.164062-21.148437-8.804687zm0 37c-3.851563-3.953125-6.589844-8.847656-7.941407-14.195313h334.351563c-3.285156 13.417969-15.265625 22.894531-29.082031 23h-276.179688c-7.941406.003907-15.558594-3.164062-21.148437-8.804687zm0 36.992187c-3.851563-3.949219-6.589844-8.84375-7.941407-14.1875h334.351563c-3.285156 13.417969-15.265625 22.894531-29.082031 23h-276.179688c-7.945312.003907-15.5625-3.171875-21.152344-8.8125zm0 0"/><path d="m139.5 0c-2.484375 0-4.785156 1.320312-6.039062 3.464844l-17.25 29.457031c-6.207032 10.597656-4.480469 24.050781 4.199218 32.738281 9.605469 9.605469 24.847656 10.582032 35.597656 2.277344 10.75-8.300781 13.65625-23.296875 6.792969-35.015625l-17.257812-29.460937c-1.257813-2.144532-3.558594-3.460938-6.042969-3.460938zm9.207031 55.753906c-2.4375 2.445313-5.746093 3.816406-9.195312 3.820313-3.453125 0-6.765625-1.371094-9.203125-3.8125-4.179688-4.183594-5.011719-10.664063-2.019532-15.765625l11.210938-19.144532 11.21875 19.148438c2.988281 5.097656 2.160156 11.566406-2.011719 15.75zm0 0"/><path d="m224.5 0c-2.484375 0-4.785156 1.316406-6.039062 3.460938l-17.261719 29.460937c-6.207031 10.597656-4.480469 24.050781 4.203125 32.738281l.003906.007813c9.605469 9.597656 24.847656 10.570312 35.59375 2.265625 10.746094-8.300782 13.652344-23.292969 6.792969-35.011719l-17.25-29.457031c-1.257813-2.148438-3.558594-3.464844-6.042969-3.464844zm9.191406 55.761719c-4.625 4.625-11.964844 5.09375-17.140625 1.097656s-6.578125-11.21875-3.269531-16.859375l11.21875-19.148438 11.210938 19.148438c2.992187 5.101562 2.160156 11.578125-2.019532 15.761719zm0 0"/><path d="m315.53125 3.464844c-1.253906-2.144532-3.554688-3.464844-6.039062-3.464844-2.484376 0-4.785157 1.316406-6.039063 3.460938l-17.261719 29.460937c-6.210937 10.601563-4.480468 24.058594 4.214844 32.742187 9.609375 9.578126 24.832031 10.539063 35.570312 2.242188 10.734376-8.296875 13.648438-23.269531 6.804688-34.984375zm3.15625 52.289062c-4.621094 4.628906-11.960938 5.101563-17.140625 1.105469s-6.582031-11.214844-3.277344-16.859375l11.21875-19.148438 11.210938 19.148438c2.988281 5.097656 2.160156 11.566406-2.011719 15.75zm0 0"/><path d="m35.5 72.738281c9.644531 9.566407 24.890625 10.476563 35.605469 2.132813 10.714843-8.347656 13.5625-23.355469 6.648437-35.042969l-17.378906-29.617187c-1.234375-2.183594-3.515625-3.570313-6.023438-3.660157h-.027343c-2.523438.097657-4.808594 1.503907-6.027344 3.710938l-17.144531 29.648437c-6.148438 10.664063-4.367188 24.132813 4.347656 32.828125zm7.765625-25.695312 11.140625-19.199219 11.300781 19.101562c3.21875 5.449219 2.042969 12.421876-2.777343 16.519532-4.824219 4.09375-11.894532 4.125-16.75.066406-4.855469-4.054688-6.085938-11.019531-2.914063-16.496094zm0 0"/></g></svg>