<svg height="448pt" viewBox="-2 0 448 448" width="448pt" xmlns="http://www.w3.org/2000/svg"><path d="m437.050781 55.378906v104.929688c-19.617187 0-35.515625-15.902344-35.511719-35.519532v-33.898437c0-19.613281 15.898438-35.511719 35.511719-35.511719zm0 0" fill="#00efd1"/><path d="m401.539062 124.789062v4.039063h-80.71875c-8.917968 0-16.144531 7.226563-16.148437 16.140625v26.152344h-32.28125v-42.292969c-.003906-17.828125 14.449219-32.285156 32.28125-32.289063h96.867187zm0 0" fill="#00acea"/><path d="m368.421875 37.640625c6.542969 6.535156 7.558594 16.785156 2.421875 24.480469-5.136719 7.691406-14.992188 10.683594-23.539062 7.148437-8.542969-3.539062-13.402344-12.621093-11.597657-21.691406 1.800781-9.074219 9.761719-15.609375 19.011719-15.609375 5.140625-.003906 10.070312 2.035156 13.703125 5.671875zm0 0" fill="#fedb41"/><path d="m87.511719 421.53125h-46.613281c-18.75-.003906-33.953126-15.207031-33.949219-33.960938v-61.109374c-.003907-18.753907 15.199219-33.960938 33.949219-33.960938h36.882812c8.296875-18.109375 26.390625-29.714844 46.308594-29.710938h120.121094c1.910156 0 3.746093.757813 5.101562 2.109376 1.351562 1.351562 2.109375 3.1875 2.109375 5.101562 0 19.457031-15.773437 35.230469-35.230469 35.230469h77.679688c9.375 0 16.980468 7.601562 16.980468 16.980469 0 9.375-7.605468 16.980468-16.980468 16.980468h25.457031c9.375 0 16.976563 7.597656 16.976563 16.972656s-7.601563 16.976563-16.976563 16.976563h-16.96875c9.378906 0 16.980469 7.601563 16.980469 16.980469 0 9.375-7.601563 16.980468-16.980469 16.980468h-29.71875l-.109375.5c8.316406 2.082032 13.777344 10.039063 12.726562 18.550782-1.050781 8.511718-8.28125 14.902344-16.859374 14.898437h-137.6875c-16.539063.019531-32.285157-7.097656-43.199219-19.519531zm0 0" fill="#00efd1"/><path d="m321.628906 171.121094v27.4375h-64.578125v-27.4375zm0 0" fill="#00efd1"/><path d="m318.800781 242.421875c7.339844 9.691406 6.082031 23.378906-2.898437 31.570313-8.980469 8.195312-22.726563 8.195312-31.707032 0-8.980468-8.191407-10.234374-21.878907-2.894531-31.570313l18.75-24.78125zm0 0" fill="#00acea"/><g fill="#083863"><path d="m437.023438 48.378906c-23.035157.207032-41.789063 18.59375-42.449219 41.621094h-32.574219v-13.316406c8.976562-2.578125 15.917969-9.710938 18.257812-18.753906 2.335938-9.039063-.285156-18.644532-6.886718-25.246094-3.199219-3.113282-7.097656-5.414063-11.371094-6.699219v-11.984375h40.210938c3.863281 0 7-3.132812 7-7s-3.136719-7-7-7h-94.441407c-3.867187 0-7 3.132812-7 7s3.132813 7 7 7h40.230469v11.839844c-4.472656 1.292968-8.5625 3.648437-11.933594 6.859375-10.292968 10.304687-10.285156 27.003906.019532 37.300781 3.363281 3.207031 7.449218 5.550781 11.914062 6.84375v13.15625h-43.328125c-21.660156 0-39.671875 17.164062-39.671875 38.828125v35.171875h-7.949219c-3.898437.050781-7.035156 3.21875-7.050781 7.121094v27.4375c0 3.867187 3.183594 7.441406 7.050781 7.441406h64.578125c4.023438-.175781 7.234375-3.417969 7.371094-7.441406v-27.4375c-.164062-3.960938-3.40625-7.09375-7.371094-7.121094h-9.628906v-19.03125c-.0625-2.371094.839844-4.667969 2.503906-6.359375 1.664063-1.691406 3.941406-2.632813 6.316406-2.609375h75.179688c5.042969 18.511719 21.839844 31.363281 41.023438 31.398438 3.878906-.039063 6.996093-3.207032 6.976562-7.089844v-104.929688c.003906-1.851562-.726562-3.632812-2.035156-4.945312s-3.085938-2.050782-4.941406-2.054688zm-94.671876 2.960938c.003907-5.894532 4.171876-10.960938 9.953126-12.109375 5.78125-1.148438 11.566406 1.949219 13.820312 7.394531s.351562 11.722656-4.546875 15-11.429687 2.636719-15.601563-1.527344c-2.328124-2.316406-3.636718-5.472656-3.625-8.757812zm-27.351562 140.660156h-51v-14h51zm-17-47.03125v19.03125h-19v-35.171875c0-13.941406 11.730469-24.828125 25.671875-24.828125h90.328125v18h-74.179688c-6.085937-.019531-11.921874 2.398438-16.210937 6.714844s-6.667969 10.171875-6.609375 16.253906zm132 7.472656c-12.453125-3.402344-21.066406-14.742187-21-27.652344v-33.898437c-.113281-7.53125 2.804688-14.792969 8.089844-20.15625 3.523437-3.648437 7.996094-6.242187 12.910156-7.492187zm0 0"/><path d="m321.628906 278.191406c10.726563-10.796875 11.898438-27.832031 2.753906-39.996094l-18.75-24.777343c-1.324218-1.75-3.390624-2.777344-5.582031-2.777344-2.195312 0-4.257812 1.027344-5.582031 2.777344l-18.746094 24.773437c-9.671875 12.789063-7.796875 30.882813 4.292969 41.414063 12.089844 10.535156 30.269531 9.914062 41.613281-1.414063zm-38.097656-21.589844c-.011719-3.597656 1.167969-7.09375 3.347656-9.953124l13.167969-17.398438 13.167969 17.402344c4.949218 6.585937 4.316406 15.804687-1.488282 21.648437-4.726562 4.722657-11.832031 6.136719-18.007812 3.574219-6.171875-2.558594-10.195312-8.585938-10.191406-15.265625zm0 0"/><path d="m40.898438 429h43.566406c12.324218 12.15625 28.933594 18.980469 46.246094 19h137.6875c8.167968-.011719 15.773437-4.175781 20.179687-11.050781 4.410156-6.875 5.023437-15.519531 1.625-22.949219h12.15625c8.242187.011719 15.910156-4.21875 20.296875-11.195312 4.386719-6.976563 4.878906-15.71875 1.296875-23.140626 12.105469-2.4375 20.402344-13.632812 19.210937-25.921874-1.191406-12.285157-11.488281-21.679688-23.835937-21.742188h-3.671875c1.445312-3.09375 2.191406-6.46875 2.183594-9.886719.007812-13.261719-10.703125-24.042969-23.96875-24.113281h-46.300782c6.742188-7 10.855469-17.269531 10.855469-28.113281 0-3.734375-1.507812-7.304688-4.183593-9.910157-2.675782-2.613281-6.289063-4.046874-10.03125-3.976562h-120.121094c-21.132813-.195312-40.625 11.363281-50.589844 30h-32.601562c-10.800782-.097656-21.191407 4.121094-28.871094 11.714844-7.679688 7.597656-12.0078128 17.945312-12.027344 28.746094v61.109374c0 22.585938 18.320312 41.429688 40.898438 41.429688zm-26.898438-102.539062c0-14.867188 12.039062-26.460938 26.898438-26.460938h27.035156c-1.21875 4.554688-1.8125 9.253906-1.773438 13.96875.023438 18.648438 7.457032 36.523438 20.660156 49.691406l3.460938 3.429688c2.742188 2.710937 7.164062 2.695312 9.886719-.039063 2.722656-2.730469 2.730469-7.148437.011719-9.886719l-3.460938-3.460937c-10.597656-10.609375-16.550781-24.988281-16.558594-39.980469-.019531-6.285156 1.339844-12.5 3.984375-18.203125 7.195313-15.570312 22.792969-25.535156 39.945313-25.519531h120.121094c.027343 0 .089843-.105469.128906-.0625.082031.078125.082031-.03125.082031 0-.015625 7.464844-3 14.621094-8.296875 19.886719-5.296875 5.261719-12.46875 8.203125-19.933594 8.175781h-48.8125c-3.886718.054688-7.007812 3.226562-7 7.113281-.007812 13.484375-10.914062 24.425781-24.398437 24.46875-3.871094.015625-7.003907 3.15625-7 7.027344.003906 1.847656.746093 3.617187 2.058593 4.910156 1.316407 1.296875 3.09375 2.015625 4.941407 1.992188 18.542969-.011719 34.429687-13.269531 37.761719-31.511719h120.128906c2.660156.035156 5.199218 1.132812 7.050781 3.046875 1.871094 1.847656 2.925781 4.375 2.917969 7.011719-.007813 5.496094-4.46875 9.949218-9.96875 9.941406h-101.019532c-3.867187 0-7 3.132812-7 7s3.132813 7 7 7h126.476563c2.65625.027344 5.195313 1.109375 7.054687 3.007812 2.855469 2.84375 3.710938 7.132813 2.167969 10.859376-1.546875 3.722656-5.1875 6.144531-9.222656 6.132812h-126.476563c-3.867187 0-7 3.132812-7 7s3.132813 7 7 7h109.507813c5.523437 0 10 4.476562 10 10s-4.476563 10-10 10h-29.71875c-.5 0-.996094.054688-1.484375.160156-.914062-.105468-1.835938-.160156-2.757812-.160156h-58.570313c-3.863281 0-7 3.132812-7 7s3.136719 7 7 7h58.570313c5.5.101562 9.921874 4.554688 9.980468 10.054688 0 2.644531-1.050781 5.179687-2.925781 7.042968-1.871094 1.867188-4.410156 2.910156-7.054687 2.902344h-137.6875c-23.46875.011719-43.859376-16.125-49.234376-38.972656-.878906-3.761719-4.640624-6.097656-8.40625-5.222656-3.792968.992187-6.109374 4.824218-5.226562 8.644531 1.324219 5.691406 3.445312 10.550781 6.257812 16.550781h-33.203124c-14.859376 0-26.898438-12.5625-26.898438-27.429688zm0 0"/></g></svg>