<svg height="384pt" viewBox="0 -1 384.00976 384" width="384pt" xmlns="http://www.w3.org/2000/svg"><path d="m377 192.007812h-54.179688v182.21875h-261.640624v-182.21875h-54.179688l185-185zm-100.699219 40.730469v-52.570312l-83.121093-45.550781-85.480469 45.550781v51.378906c.003906 47.804687 28.683593 90.945313 72.761719 109.449219l13.019531 5.621094 11.539062-5.03125c43.269531-18.90625 71.246094-61.628907 71.28125-108.847657zm0 0" fill="#00acea"/><path d="m276.300781 180.167969v52.570312c-.035156 47.21875-28.011719 89.941407-71.28125 108.847657l-11.539062 5.03125-13.019531-5.621094c-44.078126-18.503906-72.757813-61.644532-72.761719-109.449219v-51.378906l85.480469-45.550781zm-34.300781 75.449219v-30h-35v-35h-30v35h-35v30h35v35h30v-35zm0 0" fill="#00efd1"/><path d="m242 225.617188v30h-35v35h-30v-35h-35v-30h35v-35h30v35zm0 0" fill="#fedb41"/><g fill="#083863"><path d="m196.949219 2.054688c-2.734375-2.734376-7.164063-2.734376-9.898438 0l-185 185c-1.9999998 1.925781-2.601562 4.882812-1.519531 7.4375 1.105469 2.570312 3.671875 4.203124 6.46875 4.125h47v175.609374c.054688 3.976563 3.207031 7.21875 7.179688 7.390626h261.640624c3.972657-.171876 7.125-3.414063 7.179688-7.390626v-175.609374h47c2.804688.089843 5.375-1.550782 6.46875-4.132813 1.097656-2.582031.492188-5.570313-1.519531-7.527344zm125.871093 182.5625c-3.867187 0-6.820312 3.523437-6.820312 7.390624v175.609376h-248v-175.609376c0-3.867187-2.953125-7.390624-6.820312-7.390624h-37.28125l168.101562-168.101563 168.101562 168.101563zm0 0"/><path d="m104.558594 173.988281c-2.246094 1.234375-3.617188 3.617188-3.558594 6.179688v51.378906c-.132812 50.582031 30.152344 96.289063 76.785156 115.886719l12.957032 5.609375c1.769531.769531 3.777343.765625 5.542968-.007813l11.402344-5.039062c45.765625-20.050782 75.328125-65.292969 75.3125-115.257813v-52.570312c.058594-2.535157-1.28125-4.894531-3.488281-6.140625l-83.042969-45.550782c-2.03125-1.132812-4.5-1.148437-6.542969-.039062zm164.441406 10.328125v48.421875c.015625 44.402344-26.253906 84.609375-66.925781 102.429688l-8.683594 3.820312-10.191406-4.417969c-.015625-.007812-.011719-.015624-.027344-.019531-41.417969-17.445312-68.300781-58.0625-68.171875-103.003906v-47.179687l78.132812-41.796876zm0 0"/><path d="m142 262.617188h28v28c0 3.863281 3.132812 7 7 7h30c3.867188 0 7-3.136719 7-7v-28h28c3.867188 0 7-3.136719 7-7v-30c0-3.867188-3.132812-7-7-7h-28v-28c0-3.867188-3.132812-7-7-7h-30c-3.867188 0-7 3.132812-7 7v28h-28c-3.867188 0-7 3.132812-7 7v30c0 3.863281 3.132812 7 7 7zm7-30h28c3.867188 0 7-3.136719 7-7v-28h16v28c0 3.863281 3.132812 7 7 7h28v16h-28c-3.867188 0-7 3.132812-7 7v28h-16v-28c0-3.867188-3.132812-7-7-7h-28zm0 0"/></g></svg>