<svg height="470pt" viewBox="0 -29 470.66103 470" width="470pt" xmlns="http://www.w3.org/2000/svg"><path d="m401.660156 357.476562c-14.910156 0-27-12.085937-27-27v-37c-.003906-7.769531 3.34375-15.167968 9.183594-20.296874 5.84375-5.125 13.609375-7.484376 21.316406-6.472657 8.757813-5.578125 19.9375-5.640625 28.753906-.164062 8.820313 5.480469 13.714844 15.527343 12.597657 25.851562-1.121094 10.320313-8.0625 19.085938-17.851563 22.542969v15.539062c0 14.914063-12.085937 27-27 27zm0 0" fill="#46c43d"/><path d="m390.949219 84.289062c9.132812 9.140626 21.183593 14.785157 34.050781 15.949219-26.550781 2.410157-47.585938 23.449219-50 50-2.414062-26.550781-23.449219-47.585937-50-50 26.550781-2.417969 47.585938-23.453125 50-50 1.164062 12.867188 6.808594 24.917969 15.949219 34.050781zm0 0" fill="#00acea"/><path d="m356.660156 243.6875h-46.859375v157.589844h-73.140625v-114.800782h-80v114.800782h-73.140625v-157.589844h-46.859375l160-160zm-130-61.210938c0-16.566406-13.429687-30-30-30-16.566406 0-30 13.433594-30 30 0 16.570313 13.433594 30 30 30 16.570313 0 30-13.429687 30-30zm0 0" fill="#00acea"/><path d="m236.660156 400.476562v.800782h-40v-114.800782h40zm0 0" fill="#f4b844"/><path d="m226.660156 182.476562c0 16.570313-13.429687 30-30 30-16.566406 0-30-13.429687-30-30 0-16.566406 13.433594-30 30-30 16.570313 0 30 13.433594 30 30zm0 0" fill="#00efd1"/><path d="m196.660156 289.476562v111.800782h-40v-114.800782h40zm0 0" fill="#fedb41"/><path d="m123.570312 27.765625c5.480469 5.488281 12.710938 8.875 20.429688 9.570313-15.929688 1.453124-28.550781 14.070312-30 30-1.449219-15.929688-14.070312-28.546876-30-30 15.929688-1.449219 28.550781-14.070313 30-30 .699219 7.722656 4.085938 14.953124 9.570312 20.429687zm0 0" fill="#00efd1"/><path d="m93.570312 90.765625c5.480469 5.488281 12.710938 8.875 20.429688 9.570313-15.929688 1.453124-28.550781 14.070312-30 30-1.449219-15.929688-14.070312-28.546876-30-30 15.929688-1.449219 28.550781-14.070313 30-30 .699219 7.722656 4.085938 14.953124 9.570312 20.429687zm0 0" fill="#00acea"/><path d="m46.570312 296.765625c5.480469 5.488281 12.710938 8.875 20.429688 9.570313-15.929688 1.453124-28.550781 14.070312-30 30-1.449219-15.929688-14.070312-28.546876-30-30 15.929688-1.449219 28.550781-14.070313 30-30 .699219 7.722656 4.085938 14.953124 9.570312 20.429687zm0 0" fill="#00efd1"/><g fill="#083863"><path d="m196.660156 219.476562c20.433594 0 37-16.566406 37-37 0-20.433593-16.566406-37-37-37s-37 16.566407-37 37c.023438 20.425782 16.574219 36.976563 37 37zm0-60c12.703125 0 23 10.296876 23 23 0 12.703126-10.296875 23-23 23s-23-10.296874-23-23c.015625-12.695312 10.304688-22.984374 23-23zm0 0"/><path d="m463.660156 397.90625h-55.328125v-34.15625c15.851563-3.121094 27.210938-17.117188 27-33.273438v-11c10.78125-5.636718 17.722657-16.617187 18.183594-28.773437.464844-12.160156-5.621094-23.636719-15.945313-30.074219-10.324218-6.441406-23.304687-6.859375-34.019531-1.097656-.636719-.035156-1.429687-.054688-2.058593-.054688-18.800782.007813-34.066407 15.199219-34.160157 34v37c0 16.347657 12 30.035157 27 33.273438v34.15625h-78v-147h40.328125c2.847656-.050781 5.390625-1.789062 6.464844-4.425781 1.078125-2.636719.480469-5.660157-1.515625-7.6875l-160-160.027344c-2.726563-2.738281-7.160156-2.746094-9.898437-.015625l-160 159.996094c-2.003907 2.042968-2.601563 5.082031-1.515626 7.734375 1.070313 2.640625 3.617188 4.382812 6.464844 4.425781h39.671875v147h-44.671875c-3.863281 0-7 3.136719-7 7 0 3.867188 3.136719 7 7 7h432c3.867188 0 7-3.132812 7-7 0-3.863281-3.132812-7-7-7zm-82.328125-67.429688v-37c.089844-11.070312 9.089844-20 20.164063-20 .894531 0 1.785156.058594 2.671875.171876 1.652343.214843 3.324219-.15625 4.730469-1.050782 8.605468-5.480468 19.960937-3.605468 26.347656 4.355469 6.390625 7.957031 5.765625 19.445313-1.449219 26.664063-2.164063 2.113281-4.769531 3.722656-7.625 4.71875-2.839844.964843-4.769531 3.601562-4.84375 6.597656v15.539062c.035156 8.660156-5.339844 16.417969-13.457031 19.433594h-12.421875c-7.996094-3-14.117188-10.570312-14.117188-19.429688zm-152 63.429688h-26v-100h26zm-40 0h-26v-100h26zm-135.773437-157 143.101562-143.097656 143.101563 143.097656h-29.960938c-3.867187 0-7.46875 2.914062-7.46875 6.78125v150.21875h-59v-107.429688c.058594-1.777343-.628906-3.496093-1.898437-4.746093-1.265625-1.246094-2.996094-1.90625-4.773438-1.824219h-80c-3.863281 0-7.328125 2.703125-7.328125 6.570312v107.429688h-59v-150.21875c.035157-1.8125-.671875-3.5625-1.960937-4.84375-1.285156-1.277344-3.035156-1.980469-4.851563-1.9375zm0 0"/><path d="m368.03125 49.601562c-2.109375 23.183594-20.480469 41.554688-43.664062 43.664063-3.605469.328125-6.363282 3.351563-6.363282 6.972656 0 3.617188 2.757813 6.640625 6.363282 6.96875 23.121093 2.109375 41.464843 20.386719 43.664062 43.5.34375 3.574219 3.382812 6.277344 6.972656 6.199219 3.585938.078125 6.625-2.628906 6.96875-6.199219 2.105469-23.171875 20.484375-41.515625 43.660156-43.582031 3.597657-.308594 6.363282-3.324219 6.363282-6.9375s-2.765625-6.628906-6.363282-6.941406c-23.183593-2.101563-41.558593-20.464844-43.667968-43.648438-.328125-3.605468-3.351563-6.363281-6.972656-6.363281-3.617188.003906-6.640626 2.761719-6.96875 6.367187zm17.96875 39.636719c4.390625 4.382813 9.40625 8.085938 14.890625 10.984375-11.03125 5.847656-20.054687 14.871094-25.898437 25.902344-5.832032-11.039062-14.859376-20.0625-25.898438-25.890625 11.046875-5.832031 20.082031-14.863281 25.914062-25.914063 2.898438 5.492188 6.605469 10.523438 10.992188 14.917969zm0 0"/><path d="m30.03125 336.761719c.351562 3.558593 3.394531 6.242187 6.96875 6.144531 3.578125.097656 6.621094-2.585938 6.96875-6.148438 1.152344-12.542968 11.117188-22.464843 23.664062-23.558593 3.597657-.308594 6.363282-3.316407 6.363282-6.929688 0-3.609375-2.765625-6.621093-6.363282-6.929687-12.566406-1.128906-22.527343-11.082032-23.664062-23.648438-.332031-3.605468-3.351562-6.363281-6.972656-6.363281s-6.640625 2.757813-6.972656 6.363281c-1.140626 12.570313-11.097657 22.527344-23.664063 23.671875-3.601563.328125-6.359375 3.351563-6.359375 6.96875 0 3.617188 2.757812 6.640625 6.359375 6.96875 12.535156 1.046875 22.515625 10.933594 23.671875 23.460938zm2.351562-35.042969c1.703126-1.707031 3.25-3.558594 4.621094-5.542969 2.742188 3.972657 6.183594 7.414063 10.152344 10.15625-3.96875 2.75-7.410156 6.191407-10.160156 10.160157-2.742188-3.96875-6.183594-7.410157-10.15625-10.152344 1.980468-1.371094 3.835937-2.917969 5.542968-4.621094zm0 0"/><path d="m53.363281 107.308594c6.085938.558594 11.789063 3.230468 16.117188 7.550781 4.3125 4.242187 6.984375 9.875 7.550781 15.898437.347656 3.5625 3.390625 6.246094 6.96875 6.148438 3.578125.097656 6.621094-2.585938 6.96875-6.148438 1.152344-12.542968 11.117188-22.464843 23.664062-23.558593 3.597657-.308594 6.363282-3.316407 6.363282-6.929688 0-3.609375-2.765625-6.621093-6.363282-6.929687-12.566406-1.128906-22.527343-11.082032-23.664062-23.648438-.332031-3.605468-3.351562-6.363281-6.972656-6.363281s-6.640625 2.757813-6.972656 6.363281c-1.140626 12.570313-11.097657 22.527344-23.664063 23.671875-3.601563.328125-6.359375 3.351563-6.359375 6.96875 0 3.617188 2.757812 6.640625 6.359375 6.96875zm26.019531-11.589844c1.703126-1.707031 3.25-3.558594 4.617188-5.542969 2.746094 3.972657 6.183594 7.414063 10.15625 10.15625-3.96875 2.75-7.410156 6.191407-10.160156 10.160157-2.742188-3.96875-6.183594-7.410157-10.15625-10.152344 1.980468-1.371094 3.835937-2.917969 5.542968-4.621094zm0 0"/><path d="m83.363281 44.308594c6.085938.558594 11.789063 3.230468 16.117188 7.550781 4.3125 4.242187 6.984375 9.875 7.550781 15.898437.347656 3.5625 3.390625 6.246094 6.96875 6.148438 3.578125.097656 6.621094-2.585938 6.96875-6.148438 1.152344-12.542968 11.117188-22.464843 23.664062-23.558593 3.597657-.308594 6.363282-3.316407 6.363282-6.929688 0-3.609375-2.765625-6.621093-6.363282-6.929687-12.566406-1.128906-22.527343-11.082032-23.664062-23.648438-.332031-3.605468-3.355469-6.363281-6.976562-6.359375-3.617188 0-6.640626 2.761719-6.96875 6.363281-1.140626 12.570313-11.097657 22.527344-23.664063 23.671876-3.601563.332031-6.359375 3.351562-6.359375 6.96875 0 3.617187 2.757812 6.640624 6.359375 6.972656zm26.019531-11.589844c1.703126-1.707031 3.25-3.558594 4.617188-5.542969 2.746094 3.972657 6.183594 7.414063 10.15625 10.15625-3.96875 2.75-7.410156 6.191407-10.160156 10.160157-2.742188-3.96875-6.183594-7.410157-10.15625-10.152344 1.980468-1.371094 3.835937-2.917969 5.542968-4.621094zm0 0"/></g></svg>