<svg height="477pt" viewBox="0 -33 477.68769 477" width="477pt" xmlns="http://www.w3.org/2000/svg"><path d="m463.164062 96.464844c-7.902343 13.90625-4.738281 31.472656 7.519532 41.75-13.910156-7.898438-31.476563-4.730469-41.75 7.527344 7.898437-13.910157 4.730468-31.480469-7.53125-41.757813 13.910156 7.910156 31.484375 4.746094 41.761718-7.519531zm0 0" fill="#fedb41"/><path d="m392.792969 96.105469v273.097656c.003906 18.855469-15.28125 34.144531-34.140625 34.140625h-110.949219v-305.648438l35.660156 35.648438 57.761719-71.378906h17.527344c18.859375-.003906 34.144531 15.28125 34.140625 34.140625zm0 0" fill="#00efd1"/><path d="m355.785156 43.855469-14.660156 18.109375-57.761719 71.378906-35.660156-35.648438.550781-.550781-.550781-.679687 27.929687-34.5 43.949219-54.3125zm0 0" fill="#fedb41"/><path d="m247.703125 96.464844-27.917969-34.5-43.960937-54.3125.191406-.308594h143.378906l.1875.308594-43.949219 54.3125zm0 0" fill="#00acea"/><path d="m247.703125 401.632812v1.710938h-110.949219c-18.855468.003906-34.144531-15.285156-34.140625-34.140625v-25.800781l-.03125-.109375c14.003907-3.734375 28.914063-1.804688 41.5 5.371093-20.410156-17.148437-25.65625-46.429687-12.46875-69.601562-7.507812 8.949219-17.660156 15.277344-29 18.082031v-201.039062c-.003906-18.859375 15.285157-34.144531 34.140625-34.140625h17.53125l57.757813 71.378906 35.660156-35.648438zm0 0" fill="#00acea"/><path d="m219.785156 61.964844 27.917969 34.5-.550781.679687.550781.550781-35.660156 35.648438-57.757813-71.378906-14.660156-18.109375 36.199219-36.203125zm0 0" fill="#fedb41"/><path d="m102.613281 297.144531c11.339844-2.804687 21.492188-9.132812 29-18.082031-13.1875 23.171875-7.941406 52.453125 12.46875 69.601562-23.167969-13.175781-52.445312-7.929687-69.597656 12.46875 13.191406-23.167968 7.9375-52.457031-12.480469-69.597656 8.3125 4.742188 17.71875 7.234375 27.289063 7.230469 4.488281-.003906 8.960937-.546875 13.320312-1.621094zm0 0" fill="#fedb41"/><path d="m48.5625 351.054688c-7.5625 14.097656-3.980469 31.585937 8.519531 41.570312-14.089843-7.566406-31.578125-3.984375-41.558593 8.519531 2.585937-4.8125 3.941406-10.1875 3.941406-15.652343.007812-10.082032-4.578125-19.617188-12.460938-25.910157 14.09375 7.570313 31.585938 3.980469 41.558594-8.527343zm0 0" fill="#fedb41"/><g fill="#083863"><path d="m302.324219 202.34375h35.851562c3.863281 0 7-3.132812 7-7s-3.136719-7-7-7h-35.851562c-3.867188 0-7 3.132812-7 7s3.132812 7 7 7zm0 0"/><path d="m57.5 296.894531c17.835938 14.96875 22.421875 40.546875 10.902344 60.78125-1.230469 2.167969-1.21875 4.824219.035156 6.976563 1.253906 2.15625 3.554688 3.480468 6.046875 3.480468 2.101563.003907 4.101563-.90625 5.476563-2.5 4.378906-5.164062 9.789062-9.359374 15.882812-12.316406v15.886719c-.039062 10.882813 4.25 21.335937 11.925781 29.054687 7.671875 7.714844 18.101563 12.066407 28.984375 12.085938h221.898438c22.722656-.019531 41.140625-18.417969 41.191406-41.140625v-273.097656c-.039062-10.875-4.402344-21.285157-12.132812-28.933594-7.730469-7.648437-18.183594-11.902344-29.058594-11.828125h-2.855469l5.429687-6.898438c2.25-2.820312 2.039063-6.878906-.492187-9.449218l-35.976563-36.246094c-1.363281-1.21875-3.089843-1.953125-4.914062-2.085938v-.320312h-144v.320312c-1.898438-.074218-3.738281.667969-5.054688 2.039063l-36.15625 36.199219c-2.53125 2.613281-2.730468 6.695312-.472656 9.542968l5.449219 6.902344h-2.855469c-10.84375-.066406-21.261718 4.203125-28.945312 11.855469-7.679688 7.652344-11.988282 18.058594-11.964844 28.902344v195.230469c-2.132812.285156-4.28125.425781-6.433594.429687-8.375-.007813-16.601562-2.183594-23.886718-6.316406-3.144532-1.796875-7.144532-.902344-9.226563 2.066406s-1.558594 7.035156 1.203125 9.378906zm301.152344-227.550781c7.164062-.078125 14.058594 2.699219 19.164062 7.722656 5.101563 5.023438 7.992188 11.875 8.027344 19.039063v273.097656c-.039062 14.992187-12.199219 27.128906-27.191406 27.140625h-103.808594v-281.753906l23.640625 23.699218c1.300781 1.3125 3.070313 2.050782 4.914063 2.050782.121093 0 .226562 0 .351562-.011719 1.953125-.03125 3.800781-.90625 5.0625-2.398437l55.65625-68.585938zm-110.949219 15.992188-57.460937-70.992188h114.921874zm72.429687-67.234376 26.246094 26.242188-63.566406 78.550781-26.253906-26.246093zm-144.859374 0 63.570312 78.546876-26.25 26.246093-63.5625-78.550781zm-38.519532 51.242188h14.191406l55.660157 68.59375c1.257812 1.515625 3.105469 2.421875 5.074219 2.492188.125.007812.246093-.039063.367187-.039063 1.878906-.007813 3.683594-.753906 5.019531-2.074219l23.777344-23.726562v281.753906h-104.089844c-7.171875-.015625-14.042968-2.890625-19.089844-7.980469-5.050781-5.09375-7.863281-11.988281-7.820312-19.160156v-20.222656c10.652344-1.574219 21.523438.453125 30.890625 5.765625 3.128906 1.792968 7.109375.886718 9.152344-2.082032 2.0625-2.976562 1.511719-7.035156-1.269531-9.359374-17.832032-14.96875-22.421876-40.539063-10.914063-60.777344 1.792969-3.144532.886719-7.140625-2.085937-9.207032-2.929688-2.070312-6.964844-1.53125-9.246094 1.238282-4.578125 5.335937-10.203125 9.671875-16.527344 12.742187v-191.195312c-.027344-7.132813 2.800781-13.980469 7.859375-19.007813 5.058594-5.03125 11.917969-7.824218 19.050781-7.753906zm-32.46875 234.601562h.011719c4.695313-1.160156 9.242187-2.863281 13.546875-5.074218-1.503906 12.371094.738281 24.90625 6.433594 35.988281-12.382813-1.460937-24.917969.792969-36.015625 6.476563 1.507812-12.382813-.738281-24.933594-6.449219-36.027344 7.511719.90625 15.128906.445312 22.472656-1.363282zm0 0"/><path d="m475.183594 132.851562c-9.667969-8.105468-12.164063-21.960937-5.933594-32.929687 1.789062-3.148437.878906-7.140625-2.09375-9.207031s-7.03125-1.523438-9.355469 1.253906c-8.105469 9.671875-21.96875 12.167969-32.9375 5.929688-3.148437-1.78125-7.132812-.875-9.195312 2.09375-2.066407 2.972656-1.527344 7.023437 1.238281 9.351562 9.667969 8.105469 12.167969 21.960938 5.945312 32.933594-1.796874 3.148437-.890624 7.148437 2.085938 9.214844 2.976562 2.070312 7.039062 1.523437 9.363281-1.257813 8.101563-9.667969 21.953125-12.164063 32.921875-5.941406 3.144532 1.796875 7.144532.890625 9.210938-2.082031 2.070312-2.976563 1.527344-7.039063-1.25-9.363282zm-20.839844-5.507812c-4.914062-.113281-9.816406.589844-14.5 2.089844v-.03125c0-4.878906-.46875-10.058594-2.128906-14.058594h.039062c4.796875.074219 9.566406-.714844 14.082032-2.328125.039062 4.886719.898437 9.730469 2.546874 14.328125zm0 0"/><path d="m62.925781 396.480469c1.996094-3.019531 1.355469-7.066407-1.472656-9.324219-9.863281-7.875-12.691406-21.671875-6.71875-32.792969 1.710937-3.191406.707031-7.160156-2.316406-9.152343-3.023438-1.996094-7.066407-1.351563-9.324219 1.476562-7.867188 9.867188-21.660156 12.699219-32.777344 6.730469-3.1875-1.71875-7.160156-.714844-9.15625 2.304687-1.996094 3.023438-1.359375 7.070313 1.476563 9.332032 6.226562 4.953124 9.847656 12.480468 9.828125 20.4375-.007813 4.308593-1.074219 8.546874-3.109375 12.34375-1.710938 3.1875-.707031 7.15625 2.316406 9.152343 3.019531 1.992188 7.0625 1.351563 9.320313-1.476562 7.871093-9.863281 21.664062-12.691407 32.777343-6.722657 3.191407 1.714844 7.160157.714844 9.15625-2.308593zm-36.472656-11.910157c-.101563-4.820312-1.074219-9.582031-2.863281-14.058593 4.816406-.105469 9.574218-1.078125 14.046875-2.867188.101562 4.8125 1.070312 9.566407 2.859375 14.039063-4.816406.113281-9.574219 1.089844-14.042969 2.886718zm0 0"/></g></svg>