<svg height="476pt" viewBox="0 -48 476.58014 476" width="476pt" xmlns="http://www.w3.org/2000/svg"><path d="m466.492188 41.359375c1.03125 0 2.058593-.039063 3.089843-.128906-16.421875 4.515625-27.277343 20.109375-25.808593 37.078125-4.210938-15.3125-18.128907-25.929688-34.011719-25.941406-1.019531 0-2.039063.042968-3.070313.132812 15.3125-4.199219 25.929688-18.113281 25.941406-33.992188 0-1.027343-.042968-2.058593-.132812-3.089843 4.199219 15.3125 18.113281 25.929687 33.992188 25.941406zm0 0" fill="#00efd1"/><path d="m375.441406 22.628906c25.789063 25.800782 17.949219 78.449219-15.160156 134.03125-4.066406 6.863282-4.429688 15.308594-.96875 22.5 28.566406 59.539063 10.554688 130.984375-42.820312 169.867188-13.300782-65.117188-44.339844-110.777344-80.539063-110.777344-36.203125 0-67.242187 45.660156-80.550781 110.777344-30.625-22.265625-50.640625-56.238282-55.269532-93.820313-.339843-2.75-.59375-5.519531-.761718-8.316406l-.128906-.550781c13.558593-3.191406 27.820312-1.132813 39.917968 5.769531-20.417968-17.148437-25.667968-46.4375-12.476562-69.609375-5.785156 6.910156-13.183594 12.289062-21.542969 15.660156 2-6.511718 4.488281-12.863281 7.441406-19 2.503907-5.183594 3.046875-11.101562 1.519531-16.652344-.558593-2.054687-1.398437-4.019531-2.488281-5.847656-33.113281-55.582031-40.953125-108.230468-15.160156-134.03125 22.757813-22.75 66.410156-19.328125 114.539063 4.519532 15.730468 7.78125 34.1875 7.78125 49.917968 0 48.121094-23.847657 91.773438-27.269532 114.53125-4.519532zm0 0" fill="#00acea"/><path d="m105.140625 198.160156c8.359375-3.371094 15.757813-8.75 21.542969-15.660156-13.191406 23.171875-7.941406 52.460938 12.476562 69.609375-23.171875-13.183594-52.453125-7.9375-69.609375 12.46875 13.1875-23.167969 7.941407-52.449219-12.46875-69.597656 14.6875 8.363281 32.398438 9.535156 48.058594 3.179687zm0 0" fill="#00efd1"/><path d="m48.5625 323.988281c-7.566406 14.09375-3.980469 31.582031 8.519531 41.5625-14.09375-7.5625-31.578125-3.980469-41.558593 8.519531 2.585937-4.8125 3.941406-10.1875 3.9375-15.652343.007812-10.082031-4.578126-19.617188-12.460938-25.910157 14.09375 7.566407 31.582031 3.980469 41.5625-8.519531zm0 0" fill="#00efd1"/><g fill="#083863"><path d="m380.390625 17.679688c-12.410156-12.410157-30.753906-18.378907-53.054687-17.253907-20.570313 1.03125-44.617188 8.105469-69.53125 20.449219-13.777344 6.78125-29.921876 6.78125-43.699219 0-24.921875-12.34375-48.96875-19.417969-69.542969-20.449219-22.316406-1.125-40.644531 4.84375-53.0625 17.253907-27.375 27.386718-21.972656 82.011718 14.101562 142.570312.765626 1.28125 1.351563 2.664062 1.746094 4.105469 1.078125 3.925781.695313 8.109375-1.078125 11.773437-2.585937 5.394532-4.832031 10.945313-6.722656 16.621094-12.960937 4.308594-27.144531 2.90625-39.011719-3.859375-3.144531-1.785156-7.136718-.878906-9.203125 2.09375-2.066406 2.96875-1.527343 7.023437 1.246094 9.355469 17.820313 14.972656 22.402344 40.542968 10.886719 60.773437-1.789063 3.148438-.882813 7.140625 2.085937 9.207031 2.972657 2.070313 7.03125 1.53125 9.359375-1.242187 4.914063-5.871094 11.164063-10.480469 18.230469-13.433594.015625.132813.027344.277344.042969.410157 4.925781 39.484374 25.953125 75.179687 58.101562 98.628906 1.921875 1.402344 4.429688 1.730468 6.652344.867187 2.21875-.859375 3.851562-2.792969 4.328125-5.125 12.855469-62.910156 42.472656-105.179687 73.691406-105.179687s60.832031 42.269531 73.679688 105.179687c.476562 2.332031 2.109375 4.265625 4.328125 5.125 2.222656.859375 4.726562.535157 6.652344-.867187 37.109374-27.117188 59.082031-70.292969 59.164062-116.253906.054688-21.574219-4.785156-42.878907-14.164062-62.304688-1.09375-2.28125-1.660157-4.777344-1.664063-7.304688-.007813-3.019531.800781-5.984374 2.339844-8.578124 36.074219-60.550782 41.476562-115.175782 14.097656-142.5625zm-303.507813 191.070312c10.472657 1.28125 21.101563-.128906 30.882813-4.097656 1.75-.707032 3.464844-1.492188 5.144531-2.359375-1.507812 12.382812.734375 24.933593 6.441406 36.027343-12.382812-1.472656-24.925781.773438-36.023437 6.453126 1.503906-12.378907-.742187-24.929688-6.445313-36.019532zm276.121094-26.554688c8.460938 17.535157 12.832032 36.765626 12.777344 56.234376-.066406 37.671874-16.4375 73.472656-44.890625 98.164062-6.945313-28.648438-17.359375-53.183594-30.378906-71.4375-15.820313-22.175781-34.6875-33.90625-54.558594-33.90625s-38.742187 11.730469-54.5625 33.90625c-13.019531 18.253906-23.433594 42.785156-30.382813 71.441406-24.300781-21.046875-39.949218-50.347656-43.929687-82.246094-.085937-.71875-.15625-1.464843-.234375-2.199218 10.015625-1.0625 20.109375 1.050781 28.855469 6.039062 3.144531 1.796875 7.140625.894532 9.210937-2.078125 2.070313-2.972656 1.527344-7.035156-1.246094-9.363281-17.832031-14.972656-22.417968-40.550781-10.898437-60.789062 1.792969-3.148438.882813-7.144532-2.089844-9.210938-2.976562-2.066406-7.035156-1.523438-9.363281 1.253906-.40625.484375-.835938.945313-1.257812 1.414063 2.21875-6.015625 2.496093-12.570313.800781-18.75-.726563-2.664063-1.8125-5.21875-3.230469-7.589844-16.03125-26.910156-25.96875-53-28.734375-75.457031-1.875-15.238282-1.230469-36.292969 12.507813-50.039063 19.65625-19.644531 59.460937-17.460937 106.484374 5.839844 17.699219 8.710937 38.4375 8.710937 56.136719 0 47.015625-23.300781 86.820313-25.484375 106.472657-5.839844 13.742187 13.746094 14.386718 34.800781 12.507812 50.039063-2.765625 22.457031-12.699219 48.546875-28.730469 75.453125-2.832031 4.765625-4.324219 10.207031-4.316406 15.746093.007813 4.632813 1.050781 9.199219 3.050781 13.375zm0 0"/><path d="m468.972656 34.253906c-.785156.070313-1.621094.101563-2.480468.101563-12.71875-.027344-23.859376-8.53125-27.238282-20.789063-.957031-3.496094-4.421875-5.683594-7.988281-5.042968-3.566406.636718-6.054687 3.890624-5.738281 7.5.070312.785156.101562 1.621093.101562 2.480468-.027344 12.71875-8.53125 23.859375-20.792968 27.238282-3.492188.957031-5.679688 4.421874-5.039063 7.988281.636719 3.566406 3.890625 6.054687 7.5 5.738281.800781-.070312 1.601563-.101562 2.460937-.101562 12.726563.03125 23.871094 8.535156 27.261719 20.800781.832031 3.039062 3.59375 5.144531 6.742188 5.144531.417969 0 .832031-.035156 1.242187-.109375 3.566406-.636719 6.054688-3.890625 5.738282-7.5-1.183594-13.601563 7.523437-26.109375 20.691406-29.722656 3.492187-.960938 5.675781-4.421875 5.035156-7.988281-.636719-3.566407-3.890625-6.054688-7.5-5.738282zm-28.800781 24.070313c-3.84375-3.980469-8.429687-7.175781-13.5-9.402344 3.992187-3.851563 7.191406-8.445313 9.417969-13.519531 3.84375 3.980468 8.429687 7.175781 13.492187 9.402344-3.988281 3.847656-7.183593 8.441406-9.40625 13.519531zm0 0"/><path d="m61.449219 360.078125c-9.859375-7.867187-12.6875-21.660156-6.71875-32.777344 1.714843-3.191406.710937-7.164062-2.3125-9.15625-3.019531-1.996093-7.066407-1.355469-9.328125 1.476563-7.867188 9.859375-21.660156 12.6875-32.773438 6.722656-3.191406-1.714844-7.164062-.714844-9.15625 2.308594-1.996094 3.023437-1.359375 7.066406 1.472656 9.328125 6.230469 4.949219 9.851563 12.480469 9.828126 20.4375-.003907 4.304687-1.070313 8.542969-3.105469 12.335937-1.710938 3.191406-.710938 7.160156 2.3125 9.15625 3.019531 1.992188 7.0625 1.355469 9.324219-1.472656 7.871093-9.863281 21.664062-12.6875 32.777343-6.71875 3.191407 1.714844 7.164063.714844 9.160157-2.3125 1.996093-3.023438 1.355468-7.070312-1.480469-9.328125zm-35-2.582031c-.101563-4.820313-1.070313-9.582032-2.863281-14.058594 4.816406-.101562 9.574218-1.070312 14.046874-2.859375.105469 4.8125 1.074219 9.570313 2.859376 14.039063-4.816407.113281-9.570313 1.089843-14.042969 2.878906zm0 0"/></g></svg>