<svg height="470pt" viewBox="0 -37 470.00382 470" width="470pt" xmlns="http://www.w3.org/2000/svg"><path d="m411.9375 145.808594 51.078125 77.882812h-102.160156zm0 0" fill="#00efd1"/><path d="m307.304688 188.828125c20.617187 35.199219 12.886718 80.125-18.304688 106.40625-31.191406 26.285156-76.777344 26.285156-107.96875 0-31.191406-26.28125-38.917969-71.207031-18.304688-106.40625l72.289063-123.398437zm-32.289063 53.363281v-24h-28v-28h-24v28h-28v24h28v28h24v-28zm0 0" fill="#00acea"/><path d="m275.015625 218.191406v24h-28v28h-24v-28h-28v-24h28v-28h24v28zm0 0" fill="#00efd1"/><path d="m109.175781 172.691406-51.078125 77.878906-51.082031-77.878906zm0 0" fill="#00acea"/><g fill="#083863"><path d="m417.789062 141.972656c-1.292968-1.972656-3.492187-3.164062-5.851562-3.164062s-4.5625 1.191406-5.855469 3.164062l-51.078125 77.878906c-1.414062 2.242188-1.527344 5.0625-.304687 7.414063 1.191406 2.324219 3.546875 3.824219 6.15625 3.925781h42.0625c-6.398438 42.476563-27.847657 81.242188-60.4375 109.222656-31.289063 26.828126-70.582031 42.089844-107.800781 42.089844-24.265626 0-49.644532-6.605468-73.394532-18.988281-24.683594-12.898437-46.09375-31.269531-62.585937-53.710937-2.28125-3.121094-6.65625-3.800782-9.773438-1.523438-3.121093 2.277344-3.800781 6.652344-1.523437 9.773438 17.769531 24.160156 40.828125 43.9375 67.410156 57.816406 25.742188 13.417968 53.359375 20.511718 79.867188 20.511718 40.507812 0 83.121093-16.367187 116.910156-45.339843 35.675781-30.660157 58.957031-73.269531 65.480468-119.851563h45.945313c2.605469-.117187 4.953125-1.609375 6.160156-3.921875 1.203125-2.3125 1.089844-5.089843-.304687-7.292969zm-43.972656 75.21875 38.117188-58.117187 38.121094 58.117187zm0 0"/><path d="m115.335938 169.613281c-1.253907-2.203125-3.628907-3.523437-6.160157-3.421875h-42.058593c6.152343-42.703125 27.632812-81.703125 60.433593-109.726562 31.292969-26.828125 70.582031-42.339844 107.800781-42.339844 24.265626 0 49.644532 6.480469 73.402344 18.863281 24.679688 12.878907 46.089844 31.226563 62.585938 53.648438 2.292968 3.121093 6.679687 3.789062 9.796875 1.5 3.121093-2.292969 3.789062-6.679688 1.496093-9.796875-17.769531-24.164063-40.828124-43.941406-67.417968-57.824219-25.738282-13.417969-53.355469-20.515625-79.867188-20.515625-40.507812 0-83.121094 16.867188-116.910156 45.839844-35.878906 30.699218-59.191406 73.546875-65.476562 120.351562h-45.945313c-2.535156-.121094-4.921875 1.203125-6.164063 3.417969-1.238281 2.21875-1.117187 4.945313.3125 7.042969l51.078126 77.820312c1.304687 1.960938 3.511718 3.136719 5.867187 3.128906 2.359375-.011718 4.550781-1.203124 5.839844-3.175781l51.082031-77.765625c1.410156-2.105468 1.527344-4.824218.304688-7.046875zm-57.238282 68.691407-38.121094-58.113282h76.238282zm0 0"/><path d="m235.015625 58.429688c-2.484375 0-4.785156 1.316406-6.039063 3.460937l-72.289062 123.398437c-22.339844 38.136719-13.964844 86.816407 19.832031 115.296876 33.796875 28.480468 83.195313 28.480468 116.992188 0 33.796875-28.480469 42.171875-77.160157 19.835937-115.296876l-72.292968-123.398437c-1.253907-2.144531-3.554688-3.460937-6.039063-3.460937zm54.292969 227.03125c-27.308594 27.308593-70.65625 30.085937-101.222656 6.476562-30.566407-23.605469-38.839844-66.246094-19.320313-99.570312l66.25-113.089844 66.25 113.089844c17.644531 30.140624 12.730469 68.390624-11.957031 93.09375zm0 0"/><path d="m216.015625 190.191406v21h-21c-3.867187 0-7 3.132813-7 7v24c0 3.863282 3.132813 7 7 7h21v21c0 3.863282 3.132813 7 7 7h24c3.867187 0 7-3.136718 7-7v-21h21c3.867187 0 7-3.136718 7-7v-24c0-3.867187-3.132813-7-7-7h-21v-21c0-3.867187-3.132813-7-7-7h-24c-3.867187 0-7 3.132813-7 7zm14 28v-21h10v21c0 3.863282 3.132813 7 7 7h21v10h-21c-3.867187 0-7 3.132813-7 7v21h-10v-21c0-3.867187-3.132813-7-7-7h-21v-10h21c3.867187 0 7-3.136718 7-7zm0 0"/></g></svg>