<svg height="436pt" viewBox="-66 0 436 436" width="436pt" xmlns="http://www.w3.org/2000/svg"><path d="m297 146-5.441406 16.320312c-2.726563 8.167969-10.367188 13.675782-18.976563 13.679688h-241.160156c-8.613281-.003906-16.253906-5.511719-18.980469-13.679688l-5.441406-16.320312zm0 0" fill="#fedb41"/><path d="m287 200v16l-121 30h-28l-121-30v-16zm0 0" fill="#00acea"/><path d="m287 190v10h-270v-30l.070312-.070312c3.761719 3.882812 8.941407 6.074218 14.351563 6.070312h241.160156c5.40625.003906 10.585938-2.1875 14.347657-6.070312l.070312.070312zm0 0" fill="#00efd1"/><path d="m166 374v41c0 7.730469-6.269531 14-14 14s-14-6.269531-14-14v-41zm0 0" fill="#00acea"/><path d="m138 246h28v128h-28zm0 0" fill="#00efd1"/><g fill="#083863"><path d="m1.320312 141.90625c-1.31640575 1.824219-1.671874 4.171875-.960937 6.308594l5.4375 16.3125c.941406 2.859375 2.363281 5.535156 4.199219 7.921875v43.550781c0 3.21875 2.195312 6.019531 5.316406 6.792969l115.6875 28.683593v163.523438c0 11.597656 9.402344 21 21 21s21-9.402344 21-21v-163.523438l115.683594-28.683593c3.125-.773438 5.316406-3.574219 5.316406-6.792969v-43.554688c1.835938-2.382812 3.257812-5.058593 4.199219-7.914062l5.441406-16.316406c.710937-2.136719.351563-4.484375-.960937-6.308594-1.316407-1.824219-3.429688-2.90625-5.679688-2.90625h-290c-2.25 0-4.363281 1.082031-5.679688 2.90625zm157.679688 225.09375h-14v-114h14zm-7 55c-3.867188 0-7-3.132812-7-7v-34h14v34c-.003906 3.863281-3.136719 6.996094-7 7zm13.144531-183h-26.289062l-114.855469-28.476562v-3.523438h256v3.523438zm114.855469-46h-256v-11.058594c2.410156.699219 4.910156 1.054688 7.421875 1.058594h241.160156c2.507813-.003906 5.007813-.359375 7.417969-1.058594zm7.289062-40-2.371093 7.113281c-.613281 1.851563-1.636719 3.535157-3 4.925781l-.019531.019532c-2.449219 2.515625-5.808594 3.933594-9.316407 3.941406h-241.160156c-3.523437-.007812-6.890625-1.433594-9.34375-3.960938-1.363281-1.390624-2.390625-3.082031-3-4.933593l-2.367187-7.105469zm0 0"/><path d="m257 86v-79c0-3.867188-3.132812-7-7-7s-7 3.132812-7 7v79c0 3.867188 3.132812 7 7 7s7-3.132812 7-7zm0 0"/><path d="m208 112v-53c0-3.867188-3.132812-7-7-7s-7 3.132812-7 7v53c0 3.867188 3.132812 7 7 7s7-3.132812 7-7zm0 0"/><path d="m159 102v-95c0-3.867188-3.132812-7-7-7s-7 3.132812-7 7v95c0 3.867188 3.132812 7 7 7s7-3.132812 7-7zm0 0"/><path d="m110 102v-42c0-3.867188-3.132812-7-7-7s-7 3.132812-7 7v42c0 3.867188 3.132812 7 7 7s7-3.132812 7-7zm0 0"/><path d="m60 102v-79c0-3.867188-3.132812-7-7-7s-7 3.132812-7 7v79c0 3.867188 3.132812 7 7 7s7-3.132812 7-7zm0 0"/></g></svg>