<svg height="434pt" viewBox="-118 0 434 434.00018" width="434pt" xmlns="http://www.w3.org/2000/svg"><path d="m191.339844 387.480469v19.03125c.003906 11.3125-9.164063 20.488281-20.480469 20.488281h-133.179687c-11.3125 0-20.484376-9.175781-20.480469-20.488281v-164.929688c0-40.972656 7.492187-91.632812 22.113281-130.09375h29.109375v67.5c.042969 21.292969 14.136719 39.996094 34.589844 45.910157 31.617187 9.304687 58.191406 30.890624 73.777343 59.933593h-56.707031c-28.347656 0-51.328125 22.976563-51.328125 51.324219 0 28.34375 22.980469 51.324219 51.328125 51.324219zm0 0" fill="#00efd1"/><path d="m191.339844 342.890625v44.589844h-71.257813c-28.347656 0-51.328125-22.980469-51.328125-51.324219 0-28.347656 22.980469-51.324219 51.328125-51.324219h56.707031c9.585938 17.847657 14.585938 37.796875 14.550782 58.058594zm0 0" fill="#00acea"/><path d="m133.640625 16.171875c7.589844 0 13.746094 6.152344 13.746094 13.742187 0 7.59375-6.15625 13.746094-13.746094 13.746094h-17v-27.488281zm0 0" fill="#00acea"/><path d="m116.640625 43.660156v9.171875h-109.980469v-2.183593c-.003906-24.101563 19.535156-43.644532 43.640625-43.648438h66.339844zm0 0" fill="#00efd1"/><path d="m68.421875 111.488281h-29.109375c-7.179688-.078125-12.957031-5.921875-12.953125-13.097656v-1.308594c0-7.234375 5.867187-13.097656 13.101563-13.09375h28.800781c7.230469 0 13.09375 5.859375 13.097656 13.09375v1.308594c0 7.171875-5.765625 13.011719-12.9375 13.097656zm0 0" fill="#00acea"/><g fill="#083863"><path d="m6.660156 60h40.339844v17h-7.539062c-11.082032 0-20.460938 9-20.460938 20.082031v1.308594c.054688 7.484375 4.246094 14.328125 10.894531 17.777344-12.394531 35.902343-19.894531 83.132812-19.894531 125.414062v164.929688c.109375 15.210937 12.46875 27.484375 27.679688 27.488281h133.179687c7.253906-.023438 14.195313-2.9375 19.289063-8.097656 5.097656-5.160156 7.921874-12.140625 7.851562-19.390625v-63.621094c.234375-57.746094-37.851562-108.640625-93.316406-124.707031-17.546875-4.953125-29.667969-20.960938-29.683594-39.195313v-61.851562c7.898438-2.824219 13.125-10.359375 13-18.746094v-1.308594c.074219-5.292969-1.96875-10.390625-5.675781-14.164062-3.710938-3.769531-8.773438-5.902344-14.0625-5.917969h-7.261719v-17h24.269531c1.238281 11 6.425781 32.0625 27.617188 42.378906.957031.453125 2.003906.679688 3.058593.664063 2.683594-.003907 5.128907-1.542969 6.300782-3.957031.8125-1.660157.925781-3.574219.320312-5.316407-.605468-1.742187-1.882812-3.171875-3.550781-3.96875-14.347656-6.980469-18.484375-21.800781-19.664063-29.800781h17.289063c3.96875-.050781 7.203125-3.203125 7.359375-7.167969v-1.832031h9.640625c11.597656 0 21-9.402344 21-21s-9.402344-21-21-21h-9.640625v-2c-.167969-3.933594-3.421875-7.0273438-7.359375-7h-66.339844c-13.390625.03125-26.222656 5.386719-35.660156 14.890625-9.433594 9.5-14.703125 22.367187-14.640625 35.757813v2.183593c0 3.867188 2.792969 7.167969 6.660156 7.167969zm177.339844 282.890625v37.109375h-63.917969c-11.730469.042969-22.992187-4.582031-31.308593-12.851562-8.316407-8.273438-13-19.511719-13.023438-31.238282.015625-11.714844 4.703125-22.9375 13.027344-31.179687 8.320312-8.246094 19.589844-12.828125 31.304687-12.730469h52.429688c7.648437 15.867188 11.578125 33.273438 11.488281 50.890625zm-83.167969-111.191406c25.851563 7.714843 48.273438 24.054687 63.53125 46.300781h-44.28125c-15.472656-.070312-30.324219 6.050781-41.253906 17-10.960937 10.804688-17.113281 25.5625-17.078125 40.953125.03125 15.4375 6.195312 30.226563 17.132812 41.113281 10.941407 10.886719 25.761719 16.980469 41.199219 16.933594h63.917969v12.511719c.074219 3.539062-1.273438 6.957031-3.746094 9.496093-2.46875 2.535157-5.851562 3.972657-9.394531 3.992188h-133.179687c-7.480469.003906-13.578126-6.007812-13.679688-13.488281v-164.929688c0-41.742187 7.816406-88.582031 20.199219-123.582031h16.800781v60.988281c0 24.15625 16.5 45.882813 39.832031 52.710938zm-26.832031-134.617188v1.308594c.066406 1.511719-.503906 2.980469-1.578125 4.046875-1.070313 1.070312-2.542969 1.636719-4.054687 1.5625h-28.980469c-3.320313 0-6.386719-2.28125-6.386719-5.609375v-1.308594c.179688-3.429687 3.027344-6.113281 6.460938-6.082031h28.800781c1.578125.015625 3.082031.671875 4.164062 1.816406 1.082031 1.148438 1.652344 2.6875 1.574219 4.265625zm59.640625-74.082031c3.867187 0 7 3.132812 7 7s-3.132813 7-7 7h-9.640625v-14zm-83.339844-9h59.699219v32h-96.023438c2.398438-18.25 17.914063-31.921875 36.324219-32zm0 0"/><path d="m162.242188 317h-55.910157c-3.867187 0-7 3.132812-7 7s3.132813 7 7 7h55.910157c3.863281 0 7-3.132812 7-7s-3.136719-7-7-7zm0 0"/><path d="m151.242188 342h-44.910157c-3.867187 0-7 3.132812-7 7s3.132813 7 7 7h44.910157c3.863281 0 7-3.132812 7-7s-3.136719-7-7-7zm0 0"/></g></svg>