<svg height="479pt" viewBox="0 -46 479.00236 479" width="479pt" xmlns="http://www.w3.org/2000/svg"><path d="m451.664062 80.832031-48.960937 55.511719-41.808594-31.042969v212.300781c-37.148437 10.613282-75.59375 15.996094-114.230469 16-38.632812-.003906-77.082031-5.386718-114.230468-16v-212.300781l-41.808594 31.042969-48.960938-55.511719 90.769532-73.949219h48.949218c0 36.050782 29.230469 65.277344 65.28125 65.277344 36.054688 0 65.28125-29.226562 65.28125-65.277344h41.628907zm0 0" fill="#00acea"/><path d="m441.355469 200.761719c8.210937 8.238281 19.0625 13.320312 30.648437 14.359375-23.898437 2.167968-42.832031 21.101562-45 45-2.164062-23.898438-21.101562-42.832032-45-45 23.894532-2.171875 42.828125-21.105469 45-45 1.042969 11.582031 6.121094 22.425781 14.351563 30.640625zm0 0" fill="#fedb41"/><path d="m181.382812 6.882812h130.5625c0 36.050782-29.226562 65.277344-65.28125 65.277344-36.050781 0-65.28125-29.226562-65.28125-65.277344zm0 0" fill="#00efd1"/><path d="m83.164062 332.953125c6.390626 6.40625 14.828126 10.359375 23.839844 11.167969-18.585937 1.6875-33.3125 16.414062-35 35-1.679687-18.589844-16.410156-33.316406-35-35 18.585938-1.691406 33.308594-16.414063 35-35 .8125 9.007812 4.761719 17.441406 11.160156 23.832031zm0 0" fill="#fedb41"/><path d="m53.164062 253.953125c6.390626 6.40625 14.828126 10.359375 23.839844 11.167969-18.585937 1.6875-33.3125 16.414062-35 35-1.679687-18.589844-16.410156-33.316406-35-35 18.585938-1.691406 33.308594-16.414063 35-35 .8125 9.007812 4.761719 17.441406 11.160156 23.832031zm0 0" fill="#fedb41"/><g fill="#083863"><path d="m85.375 140.972656c2.421875 2.726563 6.523438 3.15625 9.457031.988282l30.671875-22.742188v198.382812c-.015625 3.121094 2.046875 5.871094 5.042969 6.730469 37.769531 10.792969 76.855469 16.265625 116.136719 16.269531 39.21875-.003906 78.242187-5.476562 115.945312-16.269531 2.964844-.878906 4.964844-3.640625 4.875-6.730469v-198.382812l30.832032 22.742188c2.957031 2.167968 7.074218 1.742187 9.523437-.988282l49.007813-55.511718c1.296874-1.453126 1.925781-3.386719 1.738281-5.328126-.191407-1.941406-1.183594-3.714843-2.738281-4.890624l-98.085938-73.890626c-1.21875-.894531-2.695312-1.3710932-4.207031-1.351562h-221.140625c-1.601563-.0195312-3.164063.515625-4.421875 1.515625l-90.769531 73.917969c-1.472657 1.199218-2.398438 2.949218-2.554688 4.84375-.15625 1.890625.46875 3.769531 1.726562 5.191406zm219.132812-126.972656c-2.707031 22.121094-17.785156 40.761719-38.847656 48.03125-21.066406 7.269531-44.429687 1.894531-60.203125-13.847656-9.261719-9.179688-15.128906-21.230469-16.640625-34.183594zm-169.582031 0h39.796875c1.511719 16.6875 8.894532 32.300781 20.835938 44.054688 13.523437 13.601562 31.925781 21.234374 51.109375 21.199218 37.492187 0 68.398437-29.25 71.933593-65.25h32.632813l90.183594 67.929688-39.699219 44.984375-36.644531-27.21875c-2.195313-1.582031-5.082031-1.828125-7.515625-.640625-2.410156 1.160156-3.972656 3.570312-4.054688 6.242187v206.984375c-34.871094 9.5-70.855468 14.3125-107 14.316406-36.144531-.003906-72.125-4.816406-107-14.316406v-206.984375c-.015625-2.648437-1.519531-5.066406-3.886718-6.253906-2.371094-1.183594-5.207032-.941406-7.335938.632813l-36.65625 27.199218-39.890625-45.15625zm0 0"/><path d="m472.632812 208.148438c-20.523437-1.867188-36.785156-18.132813-38.65625-38.65625-.324218-3.609376-3.347656-6.375-6.972656-6.375-3.621094 0-6.648437 2.765624-6.972656 6.375-1.867188 20.523437-18.128906 36.789062-38.65625 38.65625-3.609375.324218-6.375 3.351562-6.375 6.972656 0 3.625 2.765625 6.648437 6.375 6.972656 20.507812 1.863281 36.765625 18.09375 38.65625 38.601562.332031 3.59375 3.363281 6.335938 6.972656 6.304688 3.609375.03125 6.640625-2.710938 6.972656-6.304688 1.863282-20.527343 18.132813-36.785156 38.660157-38.632812 3.605469-.320312 6.367187-3.339844 6.367187-6.957031 0-3.617188-2.761718-6.636719-6.367187-6.957031zm-45.632812 28.800781c-5.113281-9.160157-12.675781-16.71875-21.839844-21.828125 9.164063-5.121094 16.726563-12.683594 21.84375-21.847656 5.113282 9.160156 12.671875 16.722656 21.832032 21.839843-9.15625 5.125-16.714844 12.683594-21.835938 21.835938zm0 0"/><path d="m88.113281 328c-5.230469-5.234375-8.464843-12.136719-9.136719-19.507812-.324218-3.609376-3.347656-6.375-6.972656-6.375-3.621094 0-6.648437 2.765624-6.972656 6.375-1.386719 15.214843-13.441406 27.269531-28.65625 28.65625-3.609375.324218-6.375 3.351562-6.375 6.972656 0 3.625 2.765625 6.648437 6.375 6.972656 15.199219 1.378906 27.246094 13.40625 28.65625 28.601562.332031 3.59375 3.363281 6.335938 6.972656 6.304688 3.609375.027344 6.636719-2.710938 6.972656-6.304688 1.382813-15.214843 13.445313-27.265624 28.660157-28.632812 3.605469-.324219 6.363281-3.34375 6.363281-6.960938 0-3.617187-2.757812-6.636718-6.363281-6.957031-7.375-.671875-14.28125-3.90625-19.523438-9.144531zm-16.109375 30.074219c-3.570312-5.621094-8.335937-10.386719-13.960937-13.953125 5.621093-3.578125 10.386719-8.34375 13.960937-13.960938 3.574219 5.617188 8.339844 10.378906 13.953125 13.957032-5.609375 3.582031-10.371093 8.34375-13.953125 13.957031zm0 0"/><path d="m35.03125 300.691406c.332031 3.59375 3.363281 6.339844 6.972656 6.308594 3.609375.027344 6.636719-2.710938 6.972656-6.304688 1.382813-15.214843 13.445313-27.265624 28.660157-28.632812 3.605469-.324219 6.363281-3.34375 6.363281-6.960938 0-3.617187-2.757812-6.636718-6.363281-6.957031-15.214844-1.386719-27.269531-13.4375-28.65625-28.65625-.324219-3.609375-3.347657-6.371093-6.972657-6.371093-3.621093 0-6.648437 2.761718-6.972656 6.371093-1.382812 15.21875-13.441406 27.277344-28.660156 28.660157-3.609375.324218-6.375 3.351562-6.375 6.972656 0 3.625 2.765625 6.648437 6.375 6.972656 15.210938 1.351562 27.273438 13.390625 28.65625 28.601562zm.761719-41.789062c2.347656-2.347656 4.429687-4.941406 6.210937-7.742188 3.574219 5.617188 8.339844 10.378906 13.953125 13.957032-5.609375 3.582031-10.371093 8.34375-13.953125 13.957031-3.570312-5.621094-8.335937-10.386719-13.960937-13.953125 2.804687-1.785156 5.402343-3.871094 7.75-6.21875zm0 0"/></g></svg>