<svg height="374pt" viewBox="-13 0 374 374.0001" width="374pt" xmlns="http://www.w3.org/2000/svg"><path d="m341.261719 34.578125c.152343 4.179687-1.363281 8.246094-4.210938 11.308594-2.84375 3.0625-6.792969 4.863281-10.972656 5.011719-.1875.011718-.378906.011718-.566406.011718h-65.5625c-8.707031 0-15.765625 7.0625-15.757813 15.769532v284.558593c0 8.707031-7.058594 15.765625-15.765625 15.765625s-15.765625-7.058594-15.765625-15.765625v-284.558593c0-26.117188 21.171875-47.292969 47.289063-47.289063h65.179687c8.582032-.082031 15.695313 6.621094 16.132813 15.1875zm0 0" fill="#00acea"/><path d="m145.78125 7c8.441406 0 15.285156 6.84375 15.285156 15.285156s-6.84375 15.285156-15.285156 15.285156h-92.640625c-8.652344.203126-15.625 7.15625-15.851563 15.808594v11.359375h108.492188c8.4375 0 15.277344 6.84375 15.277344 15.28125s-6.839844 15.28125-15.277344 15.28125h-108.492188v22.929688h108.492188c8.4375 0 15.277344 6.839843 15.277344 15.28125 0 8.4375-6.839844 15.277343-15.277344 15.277343h-108.492188v22.929688h108.492188c8.4375 0 15.277344 6.84375 15.277344 15.28125s-6.839844 15.28125-15.277344 15.28125h-108.492188v22.929688h108.492188c8.4375 0 15.277344 6.839843 15.277344 15.277343 0 8.441407-6.839844 15.28125-15.277344 15.28125h-108.492188v22.929688h108.492188c8.4375 0 15.277344 6.84375 15.277344 15.28125s-6.839844 15.28125-15.277344 15.28125h-108.492188v11.71875c0 8.429687 7.410157 15.449219 15.851563 15.449219h92.640625c8.441406 0 15.285156 6.84375 15.285156 15.285156s-6.84375 15.285156-15.285156 15.285156h-92.640625c-25.300781 0-46.410156-20.730469-46.410156-46.019531v-267.601563c0-25.300781 21.109375-46.378906 46.410156-46.378906zm0 0" fill="#00efd1"/><g fill="#083863"><path d="m53.140625 45h92.640625c12.425781 0 22.5-10.074219 22.5-22.5s-10.074219-22.5-22.5-22.5h-92.640625c-29.339844.242188-53.03125 24.039062-53.140625 53.378906v267.601563c.0078125 14.082031 5.609375 27.582031 15.578125 37.527343 9.96875 9.945313 23.480469 15.519532 37.5625 15.492188h92.640625c12.425781 0 22.5-10.074219 22.5-22.5s-10.074219-22.5-22.5-22.5h-92.640625c-4.714844 0-9.140625-3.519531-9.140625-8.019531v-4.980469h101.78125c12.148438 0 22-9.851562 22-22s-9.851562-22-22-22h-101.78125v-9h101.78125c12.425781 0 22.5-10.074219 22.5-22.5s-10.074219-22.5-22.5-22.5h-101.78125v-9h101.78125c12.148438 0 22-9.851562 22-22s-9.851562-22-22-22h-101.78125v-9h101.78125c12.425781 0 22.5-10.074219 22.5-22.5s-10.074219-22.5-22.5-22.5h-101.78125v-9h101.78125c12.148438 0 22-9.851562 22-22s-9.851562-22-22-22h-101.78125v-4.621094c0-4.527344 4.589844-8.378906 9.140625-8.378906zm-15.851563 27h108.492188c2.925781-.101562 5.671875 1.398438 7.167969 3.917969 1.492187 2.515625 1.492187 5.648437 0 8.164062-1.496094 2.519531-4.242188 4.019531-7.167969 3.917969h-108.492188c-3.980468.117188-7.175781 3.320312-7.289062 7.300781v22.929688c0 3.867187 3.425781 6.769531 7.289062 6.769531h108.492188c4.691406 0 8.5 3.804688 8.5 8.5s-3.808594 8.5-8.5 8.5h-108.492188c-3.863281 0-7.289062 2.925781-7.289062 6.789062v22.929688c.113281 3.976562 3.3125 7.171875 7.289062 7.28125h108.492188c2.925781-.101562 5.671875 1.398438 7.167969 3.917969 1.492187 2.515625 1.492187 5.648437 0 8.164062-1.496094 2.519531-4.242188 4.019531-7.167969 3.917969h-108.492188c-3.976562.109375-7.175781 3.304688-7.289062 7.28125v22.929688c0 3.863281 3.425781 6.789062 7.289062 6.789062h108.492188c4.691406 0 8.5 3.804688 8.5 8.5s-3.808594 8.5-8.5 8.5h-108.492188c-3.863281 0-7.289062 2.898438-7.289062 6.769531v22.929688c.113281 3.980469 3.308594 7.183593 7.289062 7.300781h108.492188c2.925781-.101562 5.671875 1.398438 7.167969 3.917969 1.492187 2.515625 1.492187 5.648437 0 8.164062-1.496094 2.519531-4.242188 4.019531-7.167969 3.917969h-108.492188c-3.972656.097656-7.175781 3.289062-7.289062 7.261719v11.71875c0 12.167969 10.753906 22.019531 23.140625 22.019531h92.640625c4.691406 0 8.5 3.804688 8.5 8.5s-3.808594 8.5-8.5 8.5h-92.640625c-21.363281 0-39.140625-17.867188-39.140625-39.019531v-267.601563c0-21.34375 17.777344-39.378906 39.140625-39.378906h92.640625c4.691406 0 8.5 3.804688 8.5 8.5s-3.808594 8.5-8.5 8.5h-92.640625c-12.386719 0-23.140625 10.015625-23.140625 22.378906v11.359375c.113281 3.972657 3.316406 7.164063 7.289062 7.261719zm0 0"/><path d="m259.949219 58h65.5625c.285156 0 .574219-.046875.863281-.0625 6.023438-.214844 11.714844-2.832031 15.804688-7.261719 6.210937-6.746093 7.835937-16.53125 4.136718-24.917969-3.699218-8.390624-12.015625-13.792968-21.1875-13.757812h-65.179687c-29.933594 0-53.949219 24.742188-53.949219 54.679688v284.558593c-.082031 6.015625 2.253906 11.808594 6.480469 16.082031 4.1875 4.289063 9.933593 6.699219 15.929687 6.679688 6.015625-.011719 11.78125-2.421875 16.019532-6.691406 4.238281-4.269532 6.601562-10.050782 6.570312-16.070313v-145.238281h85.539062c3.867188 0 7-3.132812 7-7s-3.132812-7-7-7h-85.539062v-11h85.539062c3.867188 0 7-3.132812 7-7s-3.132812-7-7-7h-85.539062v-11h85.539062c3.867188 0 7-3.132812 7-7s-3.132812-7-7-7h-85.539062v-12h85.539062c3.867188 0 7-3.132812 7-7s-3.132812-7-7-7h-85.539062v-11h85.539062c3.867188 0 7-3.132812 7-7s-3.132812-7-7-7h-85.539062v-11h85.539062c3.867188 0 7-3.132812 7-7s-3.132812-7-7-7h-85.3125c.089844-2.21875 1.0625-4.3125 2.699219-5.8125s3.804688-2.289062 6.023438-2.1875zm-22.949219 293.238281c.019531 2.316407-.886719 4.542969-2.515625 6.183594-1.628906 1.644531-3.84375 2.574219-6.160156 2.578125-2.261719.007812-4.429688-.921875-5.980469-2.570312-1.585938-1.660157-2.429688-3.894532-2.34375-6.191407v-284.558593c0-22.214844 17.734375-40.679688 39.949219-40.679688h65.179687c4.847656.023438 8.84375 3.804688 9.136719 8.644531.09375 2.363281-.746094 4.667969-2.335937 6.421875-1.566407 1.796875-3.8125 2.859375-6.195313 2.933594h-65.785156c-12.585938-.039062-22.839844 10.09375-22.949219 22.679688zm0 0"/></g></svg>