<svg height="476pt" viewBox="1 -22 476.99901 476" width="476pt" xmlns="http://www.w3.org/2000/svg"><path d="m447 139v18.609375l-16.898438 11.390625-18.332031-11.390625-22.328125 11.390625-22.339844-11.390625-18.332031 11.390625-21.769531-11.390625v-23.609375h120zm0 0" fill="#00acea"/><path d="m447 127v7h-120v-50h120zm0 0" fill="#00efd1"/><path d="m272 7.25c8.285156 0 15 6.714844 15 15s-6.714844 15-15 15h-250c-8.285156 0-15-6.714844-15-15s6.714844-15 15-15zm0 0" fill="#00efd1"/><path d="m266.910156 247.25h-244.910156c-8.285156 0-15-6.714844-15-15s6.714844-15 15-15h250c8.285156 0 15 6.714844 15 15s-6.714844 15-15 15zm0 0" fill="#00acea"/><path d="m107.039062 355.929688c-46.402343-16.421876-78.085937-59.492188-79.949218-108.679688h239.820312c-1.449218 38.121094-20.929687 73.28125-52.480468 94.730469-31.546876 21.445312-71.410157 26.625-107.390626 13.949219zm0 0" fill="#00efd1"/><path d="m103 82.25c0-10.214844-8.28125-18.5-18.5-18.5s-18.5 8.285156-18.5 18.5c0 10.21875 8.28125 18.5 18.5 18.5s18.5-8.28125 18.5-18.5zm159-45v80c0 22.09375-17.910156 40-40 40h-150c-22.089844 0-40-17.90625-40-40v-80zm0 0" fill="#00acea"/><path d="m187 216.25v1h-80v-60h80zm0 0" fill="#fedb41"/><path d="m186.960938 355.929688-3.761719 18.8125c-4.039063 20.230468-2.757813 31.25 3.722656 50.757812h-79.84375c6.480469-19.507812 7.761719-30.527344 3.722656-50.757812l-3.761719-18.8125c25.863282 9.09375 54.058594 9.09375 79.921876 0zm0 0" fill="#00acea"/><path d="m103 82.25c0 10.21875-8.28125 18.5-18.5 18.5s-18.5-8.28125-18.5-18.5c0-10.214844 8.28125-18.5 18.5-18.5s18.5 8.285156 18.5 18.5zm0 0" fill="#00efd1"/><g fill="#083863"><path d="m57.199219 332.546875c12.457031 12.4375 27.347656 22.167969 43.742187 28.578125l3 14.988281c3.515625 17.621094 2.660156 27.359375-1.96875 42.386719h-40.972656c-3.867188 0-7 3.132812-7 7s3.132812 7 7 7h172c3.867188 0 7-3.132812 7-7s-3.132812-7-7-7h-40.96875c-4.628906-15.027344-5.484375-24.765625-1.96875-42.386719l3-14.992187c44.933594-17.488282 76.082031-58.917969 80.40625-106.941406 5.316406-.332032 10.324219-2.597657 14.082031-6.367188 4.140625-4.070312 6.464844-9.632812 6.453125-15.4375-.011718-5.820312-2.339844-11.394531-6.464844-15.5-4.128906-4.101562-9.71875-6.398438-15.539062-6.375h-78.5v-46h28.5c25.914062 0 46.5-21.332031 46.5-47.25v-72.75h3.5c5.851562-.03125 11.445312-2.390625 15.550781-6.5625 4.140625-4.09375 6.464844-9.679688 6.449219-15.5-.019531-12.132812-9.867188-21.953125-22-21.9375h-250c-5.820312-.0625-11.421875 2.214844-15.550781 6.316406-6.292969 6.308594-8.179688 15.785156-4.777344 24.023438 3.398437 8.238281 11.414063 13.625 20.328125 13.660156h2.5v72.75c0 25.917969 21.585938 47.25 47.5 47.25h27.5v46h-77.5c-5.820312-.054688-11.417969 2.21875-15.550781 6.316406-4.132813 4.097656-6.45312525 9.675782-6.449219 15.496094.0195312 11.5625 8.984375 21.136719 20.523438 21.914062 2.632812 29.609376 15.621093 57.339844 36.675781 78.320313zm59.335937 85.953125c4.488282-16.234375 4.613282-27.675781 1.128906-45.132812l-1.476562-7.390626c20.234375 5.03125 41.390625 5.03125 61.625 0l-1.476562 7.394532c-3.484376 17.453125-3.359376 28.894531 1.128906 45.128906zm121.074219-108.097656c-27.828125 37.335937-75.710937 53.78125-120.609375 41.417968-44.898438-12.363281-77.613281-51-82.410156-97.320312h224.808594c-2.082032 20.257812-9.613282 39.574219-21.789063 55.902344zm-223.609375-288.027344c.007812-2.109375.855469-4.125 2.359375-5.605469 1.5-1.476562 3.53125-2.296875 5.640625-2.269531h250c2.109375-.027344 4.140625.792969 5.640625 2.269531 1.503906 1.480469 2.351563 3.496094 2.359375 5.605469.003906 2.144531-.839844 4.203125-2.351562 5.722656-1.488282 1.519532-3.519532 2.386719-5.648438 2.402344h-250c-4.441406-.0625-8.003906-3.683594-8-8.125zm24.5 94.875v-72.75h216v72.75c0 18.199219-14.300781 33.25-32.5 33.25h-150c-18.199219 0-33.5-15.054688-33.5-33.25zm75 47.25h66v46h-66zm-99.5 67.875c.007812-2.109375.855469-4.125 2.359375-5.605469 1.5-1.476562 3.53125-2.296875 5.640625-2.269531h250c2.109375-.027344 4.140625.792969 5.640625 2.269531 1.503906 1.480469 2.351563 3.496094 2.359375 5.605469.003906 2.144531-.839844 4.203125-2.351562 5.722656-1.488282 1.519532-3.519532 2.386719-5.648438 2.402344h-250c-4.441406-.0625-8.003906-3.683594-8-8.125zm0 0"/><path d="m111.253906 305.863281c-26.953125-4.898437-29.183594-27.582031-29.273437-28.632812-.324219-3.816407-3.65625-6.664063-7.476563-6.390625-3.820312.273437-6.710937 3.566406-6.488281 7.390625.824219 11.910156 10.390625 35.886719 40.730469 41.402343 2.476562.480469 5.015625-.40625 6.65625-2.324218 1.636718-1.914063 2.117187-4.5625 1.257812-6.933594-.859375-2.367188-2.925781-4.09375-5.414062-4.515625zm0 0"/><path d="m130.785156 65.609375-22.488281 7.5c-4.550781-11.824219-17.09375-18.511719-29.449219-15.699219-12.355468 2.8125-20.765625 14.277344-19.746094 26.90625 1.019532 12.628906 11.164063 22.59375 23.808594 23.386719 12.648438.792969 23.957032-7.820313 26.550782-20.222656l25.753906-8.585938c3.664062-1.222656 5.648437-5.1875 4.425781-8.855469-1.222656-3.667968-5.1875-5.648437-8.855469-4.425781zm-46.285156 28.140625c-6.351562 0-11.5-5.148438-11.5-11.5s5.148438-11.5 11.5-11.5 11.5 5.148438 11.5 11.5c-.007812 6.347656-5.152344 11.492188-11.5 11.5zm0 0"/><path d="m470 97.5h-16.5v-13.5c.09375-1.75-.558594-3.457031-1.800781-4.699219-1.238281-1.238281-2.949219-1.894531-4.699219-1.800781h-120c-3.867188 0-7.5 2.632812-7.5 6.5v13.5h-15.5c-3.867188 0-7 3.132812-7 7s3.132812 7 7 7h15.5v46.109375c.101562 2.644531 1.632812 5.019531 4 6.203125l21.898438 11.386719c2.21875 1.148437 4.875 1.050781 7-.253907l15.007812-9.304687 18.835938 9.597656c2.003906 1.019531 4.371093 1.019531 6.375 0l18.8125-9.59375 14.972656 9.304688c2.34375 1.453125 5.320312 1.398437 7.609375-.140625l16.648437-11.390625c1.867188-1.328125 2.933594-3.511719 2.839844-5.800781v-46.117188h16.5c3.863281 0 7-3.132812 7-7s-3.136719-7-7-7zm-136.5-6h106v36h-106zm96.199219 69.164062-14.355469-9c-2.058594-1.292968-4.648438-1.40625-6.8125-.289062l-19.117188 9.765625-19.144531-9.765625c-2.183593-1.117188-4.789062-1.003906-6.867187.289062l-15.179688 9.28125-14.722656-7.574218v-11.871094h106v12.386719zm0 0"/></g></svg>