<svg height="432pt" viewBox="-69 0 432 432.00125" width="432pt" xmlns="http://www.w3.org/2000/svg"><path d="m272 6.75c8.285156 0 15 6.71875 15 15 0 8.285156-6.714844 15-15 15h-250c-8.285156 0-15-6.714844-15-15 0-8.28125 6.714844-15 15-15zm0 0" fill="#00efd1"/><path d="m266.910156 246.75h-244.910156c-8.285156 0-15-6.714844-15-15 0-8.28125 6.714844-15 15-15h250c8.285156 0 15 6.71875 15 15 0 8.285156-6.714844 15-15 15zm0 0" fill="#00acea"/><path d="m186.960938 355.429688c-35.980469 12.695312-75.855469 7.523437-107.40625-13.925782-31.554688-21.453125-51.03125-56.625-52.464844-94.753906h239.820312c-1.84375 49.195312-33.539062 92.273438-79.949218 108.679688zm0 0" fill="#00efd1"/><path d="m103 81.75c0-10.214844-8.28125-18.5-18.5-18.5-10.214844 0-18.5 8.285156-18.5 18.5 0 10.21875 8.285156 18.5 18.5 18.5 10.21875 0 18.5-8.28125 18.5-18.5zm159-45v80c0 22.09375-17.90625 40-40 40h-150c-22.089844 0-40-17.90625-40-40v-80zm0 0" fill="#00acea"/><path d="m187 215.75v1h-80v-60h80zm0 0" fill="#fedb41"/><path d="m186.960938 355.429688-3.761719 18.8125c-4.039063 20.230468-2.757813 31.25 3.722656 50.757812h-79.839844c6.480469-19.507812 7.757813-30.527344 3.71875-50.757812l-3.761719-18.8125c25.867188 9.09375 54.058594 9.09375 79.921876 0zm0 0" fill="#00acea"/><path d="m103 81.75c0 10.21875-8.28125 18.5-18.5 18.5-10.214844 0-18.5-8.28125-18.5-18.5 0-10.214844 8.285156-18.5 18.5-18.5 10.21875 0 18.5 8.285156 18.5 18.5zm0 0" fill="#00efd1"/><g fill="#083863"><path d="m22 210c-5.820312-.054688-11.417969 2.21875-15.550781 6.316406-4.132813 4.097656-6.45312525 9.675782-6.449219 15.496094.0195312 11.5625 8.984375 21.136719 20.523438 21.914062 2.632812 29.613282 15.621093 57.351563 36.675781 78.335938 12.457031 12.4375 27.347656 22.164062 43.742187 28.570312l3 14.984376c3.515625 17.617187 2.660156 27.355468-1.96875 42.382812h-40.972656c-3.867188 0-7 3.136719-7 7 0 3.867188 3.132812 7 7 7h172c3.867188 0 7-3.132812 7-7 0-3.863281-3.132812-7-7-7h-40.96875c-4.628906-15.027344-5.484375-24.769531-1.964844-42.386719l3-14.992187c44.929688-17.488282 76.082032-58.917969 80.402344-106.941406 5.316406-.332032 10.324219-2.597657 14.082031-6.367188 4.140625-4.070312 6.464844-9.632812 6.449219-15.4375-.011719-5.820312-2.335938-11.394531-6.464844-15.5-4.125-4.101562-9.714844-6.394531-15.535156-6.375h-78v-46h28c25.996094-.144531 46.992188-21.253906 47-47.25v-72.75h3c5.851562-.027344 11.449219-2.390625 15.550781-6.5625 4.140625-4.09375 6.464844-9.675781 6.449219-15.5-.019531-12.128906-9.867188-21.953125-22-21.9375h-250c-5.820312-.0625-11.421875 2.214844-15.546875 6.316406-6.296875 6.308594-8.183594 15.78125-4.78125 24.023438 3.398437 8.238281 11.417969 13.625 20.328125 13.660156h3v72.75c.007812 25.996094 21.007812 47.105469 47 47.25h28v46zm94.535156 208c4.492188-16.234375 4.613282-27.675781 1.128906-45.128906l-1.476562-7.394532c20.234375 5.03125 41.390625 5.03125 61.625 0l-1.476562 7.394532c-3.484376 17.453125-3.359376 28.894531 1.128906 45.128906zm121.078125-108.097656c-27.832031 37.335937-75.714843 53.78125-120.613281 41.417968-44.894531-12.363281-77.613281-51-82.410156-97.320312h224.8125c-2.085938 20.257812-9.617188 39.574219-21.789063 55.902344zm42.386719-78.027344c.007812 2.144531-.839844 4.203125-2.351562 5.722656-1.488282 1.523438-3.519532 2.386719-5.648438 2.402344h-250c-4.441406-.0625-8.003906-3.683594-8-8.125.007812-2.105469.855469-4.125 2.359375-5.605469 1.5-1.476562 3.53125-2.296875 5.640625-2.269531h250c2.109375-.027344 4.140625.792969 5.644531 2.269531 1.5 1.480469 2.347657 3.5 2.355469 5.605469zm-266-210c.007812-2.105469.855469-4.125 2.359375-5.605469 1.5-1.476562 3.53125-2.296875 5.640625-2.269531h250c2.109375-.027344 4.140625.792969 5.644531 2.269531 1.5 1.480469 2.347657 3.5 2.355469 5.605469.007812 2.144531-.839844 4.203125-2.351562 5.722656-1.488282 1.523438-3.519532 2.386719-5.648438 2.402344h-250c-4.441406-.0625-8.003906-3.683594-8-8.125zm25 94.875v-72.75h216v72.75c0 18.265625-14.734375 33.113281-33 33.25h-150c-18.265625-.136719-33-14.984375-33-33.25zm75 47.25h66v46h-66zm0 0"/><path d="m111.253906 305.363281c-26.953125-4.898437-29.183594-27.582031-29.273437-28.632812-.324219-3.816407-3.65625-6.664063-7.476563-6.390625-3.816406.273437-6.710937 3.566406-6.484375 7.390625.820313 11.910156 10.390625 35.890625 40.730469 41.40625 2.472656.476562 5.015625-.410157 6.652344-2.328125 1.636718-1.914063 2.117187-4.5625 1.257812-6.933594-.859375-2.367188-2.925781-4.09375-5.410156-4.515625zm0 0"/><path d="m130.785156 65.109375-22.488281 7.5c-4.550781-11.824219-17.09375-18.511719-29.449219-15.695313-12.355468 2.816407-20.765625 14.277344-19.742187 26.90625 1.019531 12.628907 11.164062 22.589844 23.808593 23.382813 12.644532.792969 23.953126-7.820313 26.546876-20.222656l25.753906-8.585938c3.667968-1.222656 5.648437-5.1875 4.425781-8.855469-1.222656-3.667968-5.1875-5.648437-8.855469-4.425781zm-46.285156 28.140625c-6.351562 0-11.5-5.148438-11.5-11.5s5.148438-11.5 11.5-11.5 11.5 5.148438 11.5 11.5c-.007812 6.347656-5.152344 11.492188-11.5 11.5zm0 0"/></g></svg>