<svg height="395pt" viewBox="0 -31 395.55926 395" width="395pt" xmlns="http://www.w3.org/2000/svg"><path d="m374.28125 21.636719c24.148438 24.160156 16.808594 73.460937-14.203125 125.5-2.046875 3.449219-3.125 7.386719-3.117187 11.398437 0 3.355469.757812 6.664063 2.21875 9.679688 26.742187 55.753906 9.878906 122.648437-40.101563 159.0625-12.457031-60.972656-41.519531-103.730469-75.417969-103.730469-33.898437 0-62.960937 42.757813-75.421875 103.730469-22.875-16.648438-39.601562-40.394532-47.566406-67.539063 34.402344-21.765625 55.269531-59.628906 55.289063-100.34375v-52.566406l-77.230469-42.320313c-.550781-17.710937 4.019531-32.582031 14.308593-42.871093 21.3125-21.300781 62.179688-18.089844 107.25 4.238281 14.730469 7.28125 32.011719 7.28125 46.742188 0 45.070312-22.328125 85.9375-25.539062 107.25-4.238281zm0 0" fill="#00efd1"/><path d="m120.671875 259.738281c-5.113281 3.234375-10.460937 6.078125-16 8.507813l-11.542969 5.03125-13.007812-5.621094c-44.085938-18.5-72.769532-61.640625-72.769532-109.449219v-51.378906l85.488282-45.550781 5.890625 3.230468 77.230469 42.320313v52.566406c-.019532 40.714844-20.886719 78.578125-55.289063 100.34375zm20.988281-77.460937v-30h-35v-35h-30v35h-35v30h35v35h30v-35zm0 0" fill="#00acea"/><path d="m141.660156 152.277344v30h-35v35h-30v-35h-35v-30h35v-35h30v35zm0 0" fill="#fedb41"/><g fill="#083863"><path d="m379.230469 16.683594c-11.714844-11.707032-29-17.328125-50.015625-16.28125-19.324219.972656-41.902344 7.613281-65.289063 19.199218-12.78125 6.285157-27.75 6.285157-40.527343 0-23.390626-11.585937-45.96875-18.226562-65.292969-19.199218-21.011719-1.046875-38.300781 4.574218-50.015625 16.285156-9.3125 9.3125-14.78125 22.203125-16.089844 37.640625-.855469.101563-1.6875.363281-2.453125.769531l-85.664063 45.550782c-2.324218 1.195312-3.8124995 3.566406-3.882812 6.179687v51.378906c.160156 50.628907 30.582031 96.257813 77.257812 115.875l13.050782 5.621094c1.792968.769531 3.820312.765625 5.605468-.007813l11.554688-5.035156c3.132812-1.371094 6.234375-2.894531 9.277344-4.539062 9.253906 25.148437 25.734375 47 47.371094 62.8125 1.925781 1.402344 4.433593 1.730468 6.652343.871094 2.222657-.863282 3.855469-2.792969 4.332031-5.128907 11.992188-58.695312 39.546876-98.128906 68.558594-98.128906 29.015625 0 56.566406 39.433594 68.5625 98.128906.476563 2.335938 2.109375 4.265625 4.328125 5.125 2.222657.863281 4.726563.535157 6.652344-.867187 34.867187-25.476563 55.507813-66.035156 55.585937-109.21875.050782-20.265625-4.496093-40.285156-13.308593-58.539063-.996094-2.070312-1.515625-4.335937-1.519531-6.632812-.007813-2.75.730468-5.453125 2.132812-7.820313 33.890625-56.878906 38.925781-108.234375 13.136719-134.039062zm-277.359375 245.144531-8.753906 3.816406-10.269532-4.433593c-20.335937-8.535157-37.722656-22.851563-49.996094-41.171876-12.257812-18.296874-18.816406-39.8125-18.851562-61.832031v-47.179687l78.617188-41.976563 2.746093 1.226563 73.636719 40.699218v48.417969c.074219 38.339844-19.59375 74.019531-52.050781 94.425781-4.816407 3.046876-9.855469 5.722657-15.078125 8.007813zm252.191406-118.265625c-5.011719 8.449219-5.457031 18.84375-1.191406 27.691406 7.890625 16.359375 11.96875 34.296875 11.917968 52.460938-.066406 34.894531-15.121093 68.074218-41.332031 91.101562-6.519531-26.574218-16.230469-49.347656-28.347656-66.335937-14.898437-20.890625-32.691406-31.933594-51.449219-31.933594-18.757812 0-36.546875 11.042969-51.449218 31.933594-12.109376 16.996093-21.828126 39.761719-28.347657 66.335937-15.996093-14.042968-28.03125-32.035156-34.90625-52.183594 33.914063-23.414062 54.125-62.023437 54.042969-103.238281v-52.566406c-.007812-2.5625-1.410156-4.914063-3.65625-6.140625l-73.625-40.34375c.226562-14.46875 4.339844-25.820312 12.273438-33.753906 18.257812-18.25 55.335937-16.167969 99.195312 5.558594 16.695312 8.210937 36.253906 8.210937 52.953125 0 43.851563-21.726563 80.9375-23.808594 99.1875-5.5625 20.71875 20.726562 14.730469 66.636718-15.265625 116.976562zm0 0"/><path d="m149 182.277344v-30c-.160156-3.929688-3.40625-7.027344-7.339844-7h-27.660156v-28c-.160156-3.929688-3.40625-7.027344-7.339844-7h-30c-1.820312.011718-3.558594.765625-4.816406 2.085937-1.253906 1.320313-1.921875 3.09375-1.84375 4.914063v28h-28.339844c-1.820312.011718-3.558594.765625-4.816406 2.085937-1.253906 1.320313-1.921875 3.09375-1.84375 4.914063v30c-.078125 1.820312.589844 3.59375 1.84375 4.910156 1.257812 1.320312 2.996094 2.074219 4.816406 2.089844h28.339844v28c-.078125 1.820312.589844 3.59375 1.84375 4.910156 1.257812 1.320312 2.996094 2.074219 4.816406 2.089844h30c3.933594.023437 7.179688-3.070313 7.339844-7v-28h27.660156c3.933594.023437 7.179688-3.070313 7.339844-7zm-14-7h-28.339844c-1.820312.011718-3.558594.765625-4.816406 2.085937-1.253906 1.320313-1.921875 3.09375-1.84375 4.914063v28h-16v-28c-.160156-3.929688-3.40625-7.027344-7.339844-7h-27.660156v-16h27.660156c3.933594.023437 7.179688-3.070313 7.339844-7v-28h16v28c-.078125 1.820312.589844 3.59375 1.84375 4.910156 1.257812 1.320312 2.996094 2.074219 4.816406 2.089844h28.339844zm0 0"/></g></svg>