<svg height="453pt" viewBox="-30 0 453 453.99074" width="453pt" xmlns="http://www.w3.org/2000/svg"><path d="m383.105469 291.871094c3.621093 3.582031 5.046875 8.828125 3.738281 13.753906-1.308594 4.921875-5.152344 8.765625-10.078125 10.074219-4.921875 1.3125-10.167969-.117188-13.75-3.738281l-7.269531-7.28125 20.089844-20.089844zm0 0" fill="#fedb41"/><path d="m338.425781 287.367188 20.089844-20.089844 17.316406 17.316406-20.089843 20.089844zm0 0" fill="#00efd1"/><path d="m271.246094 180 87.269531 87.28125-20.089844 20.089844-87.273437-87.28125 10.042968-10.039063zm0 0" fill="#00acea"/><path d="m254.464844 95.152344c0 48.6875-39.46875 88.160156-88.160156 88.160156-48.691407 0-88.164063-39.472656-88.164063-88.160156 0-48.691406 39.472656-88.164063 88.164063-88.164063 48.691406 0 88.160156 39.472657 88.160156 88.164063zm0 0" fill="#00efd1"/><path d="m212.234375 219.851562c17.941406 17.949219 12.488281 54.589844-10.558594 93.269532-2.835937 4.777344-3.089843 10.65625-.671875 15.660156 19.871094 41.433594 7.339844 91.148438-29.800781 118.210938-9.257813-45.320313-30.859375-77.089844-56.050781-77.089844-25.1875 0-46.789063 31.769531-56.046875 77.089844-37.140625-27.0625-49.671875-76.777344-29.800781-118.210938 2.417968-5.003906 2.164062-10.882812-.671876-15.660156-23.046874-38.679688-28.5-75.320313-10.558593-93.269532 15.839843-15.832031 46.21875-13.449218 79.710937 3.140626 10.945313 5.417968 23.792969 5.417968 34.738282 0 33.492187-16.589844 63.871093-18.972657 79.710937-3.140626zm0 0" fill="#00acea"/><g fill="#083863"><path d="m12.933594 370.019531c.054687 32.667969 15.671875 63.355469 42.046875 82.628907 1.925781 1.402343 4.433593 1.730468 6.652343.867187 2.222657-.859375 3.851563-2.789063 4.328126-5.125 8.738281-42.761719 28.507812-71.488281 49.191406-71.488281 20.6875 0 40.457031 28.726562 49.195312 71.488281.476563 2.335937 2.105469 4.265625 4.324219 5.125 2.222656.863281 4.726563.535156 6.652344-.867187 26.378906-19.273438 41.996093-49.960938 42.050781-82.628907.042969-15.328125-3.394531-30.464843-10.0625-44.269531-.625-1.300781-.953125-2.726562-.957031-4.167969-.003907-1.71875.457031-3.402343 1.332031-4.878906 25.628906-43.007813 29.269531-82.015625 9.5-101.800781-17.710938-17.699219-49.699219-17.035156-87.765625 1.820312-8.992187 4.429688-19.53125 4.429688-28.523437 0-38.066407-18.855468-70.054688-19.519531-87.769532-1.816406-19.773437 19.785156-16.132812 58.792969 9.5 101.800781.875 1.476563 1.335938 3.160157 1.332032 4.875-.003907 1.441407-.332032 2.863281-.957032 4.164063-6.667968 13.804687-10.113281 28.945312-10.070312 44.273437zm10.089844-145.21875c5.808593-5.804687 14.367187-8.683593 24.90625-8.683593 13.042968 0 29.117187 4.414062 46.746093 13.144531 12.910157 6.359375 28.042969 6.359375 40.957031 0 31.867188-15.785157 58.652344-17.453125 71.648438-4.464844 14.796875 14.800781 10.234375 48.066406-11.621094 84.738281-2.167968 3.644532-3.308594 7.804688-3.304687 12.042969.007812 3.546875.808593 7.042969 2.34375 10.242187 5.75 11.910157 8.714843 24.972657 8.675781 38.199219-.042969 24.382813-10.140625 47.671875-27.910156 64.371094-4.882813-18.726563-11.921875-34.820313-20.613282-47-11.425781-16.019531-25.152343-24.484375-39.699218-24.484375s-28.269532 8.464844-39.699219 24.484375c-8.691406 12.183594-15.730469 28.273437-20.613281 47-17.769532-16.699219-27.863282-39.984375-27.90625-64.371094-.039063-13.230469 2.929687-26.296875 8.679687-38.210937 1.53125-3.191406 2.332031-6.6875 2.339844-10.226563.003906-4.242187-1.136719-8.402343-3.304687-12.046875-21.855469-36.671875-26.414063-69.933594-11.625-84.734375zm0 0"/><path d="m380.789062 279.644531-17.324218-17.3125-87.269532-87.28125c-2.734374-2.734375-7.167968-2.734375-9.902343 0l-5.097657 5.101563-22.835937-22.835938c33.4375-38.761718 30.21875-97.035156-7.289063-131.875-37.507812-34.84375-95.855468-33.769531-132.054687 2.429688-36.199219 36.199218-37.273437 94.550781-2.433594 132.054687 34.84375 37.507813 93.113281 40.730469 131.878907 7.292969l22.832031 22.832031-5.089844 5.089844c-2.734375 2.734375-2.734375 7.167969 0 9.898437l87.273437 87.285157 24.59375 24.59375c8.292969 8.214843 21.664063 8.183593 29.921876-.070313 8.253906-8.257812 8.28125-21.628906.066406-29.921875zm-214.484374-103.332031c-36.734376.003906-68.890626-24.671875-78.402344-60.152344-9.507813-35.484375 6.003906-72.929687 37.816406-91.296875 31.816406-18.371093 72-13.078125 97.972656 12.898438 23.210938 23.210937 30.15625 58.121093 17.59375 88.449219-12.5625 30.328124-42.15625 50.101562-74.980468 50.101562zm192.210937 100.867188 7.414063 7.414062-10.191407 10.195312-7.414062-7.414062zm-87.269531-87.277344 77.367187 77.378906-10.1875 10.1875-77.371093-77.378906zm106.910156 117.105468c-2.816406 2.804688-7.367188 2.808594-10.1875.007813l-2.335938-2.324219 10.191407-10.191406 2.324219 2.324219c2.816406 2.8125 2.816406 7.375 0 10.1875zm0 0"/><path d="m190.773438 81.992188c-1.757813-1.828126-4.363282-2.5625-6.816407-1.925782-2.453125.640625-4.367187 2.558594-5.003906 5.011719-.640625 2.449219.097656 5.058594 1.925781 6.8125l11.898438 11.890625c1.757812 1.828125 4.363281 2.5625 6.816406 1.921875 2.449219-.640625 4.367188-2.554687 5.003906-5.007813.640625-2.453124-.097656-5.058593-1.925781-6.816406zm0 0"/><path d="m185.382812 41.339844c-2.734374-2.734375-7.164062-2.734375-9.898437 0s-2.734375 7.167968 0 9.898437l33.941406 33.933594c2.730469 2.734375 7.164063 2.734375 9.898438 0s2.734375-7.167969 0-9.902344zm0 0"/><path d="m178.335938 281.691406c3.863281 0 7-3.132812 7-7v-33.300781c0-3.867187-3.136719-7-7-7-3.867188 0-7 3.132813-7 7v33.300781c0 3.867188 3.132812 7 7 7zm0 0"/></g></svg>