<svg height="454pt" viewBox="0 -20 454.23656 454" width="454pt" xmlns="http://www.w3.org/2000/svg"><path d="m249.339844 395.378906c-.019532-.0625-.042969-.128906-.0625-.191406-2.550782-9.542969-4.5625-19.226562-6.019532-29-1.480468-9.5-2.71875-19.507812-3.660156-29.1875-.617187-6.332031-1.117187-12.523438-1.488281-18.351562-.242187-3.789063-.429687-7.421876-.5625-10.832032-.148437-4.058594-.226563-7.808594-.226563-11.15625 0-6.082031.257813-12.09375.777344-18.03125 2.480469-28.691406 10.8125-55.191406 23.222656-76.121094-5.5625-3.042968-10.746093-6.734374-15.441406-10.988281-8.089844-7.53125-12.679687-16.0625-12.679687-25.511719.085937-6.449218 2.113281-12.722656 5.808593-18.007812 8.929688-13.371094 27.511719-24.421875 51.441407-30.921875 9.929687-2.660156 20.070312-4.472656 30.308593-5.410156 6.3125-.601563 12.820313-.910157 19.460938-.910157s13.148438.308594 19.460938.910157c49.820312 4.71875 87.558593 27.25 87.558593 54.339843 0 14.402344-10.660156 27.492188-28.121093 37.320313 14.980468 25.25 24.011718 57.800781 24.011718 93.332031 0 24.597656-4.332031 71.378906-11.96875 98.527344-2.019531 7.089844-8.511718 11.964844-15.882812 11.929688h-150.109375c-7.296875.039062-13.746094-4.742188-15.828125-11.738282zm151.519531-24.679687c5.078125-18.460938 7.96875-50.261719 7.96875-66.972657 0-54.566406-30.71875-98.796874-68.609375-98.796874s-68.609375 44.230468-68.609375 98.796874c0 16.710938 2.890625 48.511719 7.980469 66.972657 1.300781 4.777343 5.636718 8.09375 10.589844 8.097656h100.078124c4.953126-.003906 9.292969-3.320313 10.601563-8.097656zm0 0" fill="#fedb41"/><path d="m435.136719 63.238281c5.078125 7.640625 3.714843 17.863281-3.1875 23.90625-6.90625 6.042969-17.214844 6.042969-24.121094 0-6.902344-6.042969-8.265625-16.265625-3.191406-23.90625l15.25-22.949219zm0 0" fill="#00acea"/><path d="m408.828125 303.726562c0 16.710938-2.890625 48.511719-7.96875 66.972657-1.308594 4.777343-5.648437 8.09375-10.601563 8.097656h-100.078124c-4.953126-.003906-9.289063-3.320313-10.589844-8.097656-5.089844-18.460938-7.980469-50.261719-7.980469-66.972657 0-54.566406 30.71875-98.796874 68.609375-98.796874s68.609375 44.230468 68.609375 98.796874zm0 0" fill="#00acea"/><path d="m373.148438 50.289062v31.558594h-65.859376v-31.558594zm0 0" fill="#00acea"/><path d="m359.679688 82.507812v29.160157c-6.3125-.601563-12.8125-.910157-19.460938-.910157s-13.148438.308594-19.460938.910157v-29.820313h38.921876zm0 0" fill="#00efd1"/><path d="m249.277344 395.1875c.019531.0625.042968.128906.0625.191406h-156.730469c-16.117187-.003906-29.179687-13.074218-29.179687-29.191406h179.828124c1.457032 9.773438 3.46875 19.457031 6.019532 29zm0 0" fill="#00ceb4"/><path d="m245.878906 191.519531-.492187 1.277344c-.1875 1.8125-.429688 3.601563-.71875 5.371094-7.136719 42.726562-44.453125 73.804687-87.765625 73.097656s-79.597656-32.988281-85.335938-75.925781c-5.738281-42.933594 20.789063-83.613282 62.394532-95.671875 41.609374-12.058594 85.777343 8.128906 103.886718 47.480469l1.160156.851562c-3.695312 5.285156-5.722656 11.558594-5.808593 18.007812 0 9.449219 4.589843 17.980469 12.679687 25.511719zm-29.21875-7.75c0-32.242187-26.132812-58.378906-58.375-58.382812-32.242187 0-58.378906 26.136719-58.375 58.378906 0 32.242187 26.136719 58.375 58.378906 58.371094 32.238282.003906 58.371094-26.128907 58.371094-58.367188zm0 0" fill="#00acea"/><path d="m243.257812 366.1875h-150.648437c-16.117187-.003906-29.179687-13.070312-29.179687-29.1875h176.167968c.941406 9.679688 2.179688 19.6875 3.660156 29.1875zm0 0" fill="#00efd1"/><path d="m239.597656 337h-146.988281c-16.117187-.003906-29.179687-13.066406-29.179687-29.183594h174.117187c.132813 3.410156.320313 7.042969.5625 10.832032.371094 5.828124.871094 12.019531 1.488281 18.351562zm0 0" fill="#00ceb4"/><path d="m63.429688 278.628906h174.667968c-.507812 5.929688-.769531 11.9375-.777344 18.03125 0 3.347656.078126 7.097656.226563 11.15625h-144.9375c-16.117187-.003906-29.179687-13.070312-29.179687-29.1875zm0 0" fill="#00efd1"/><path d="m158.289062 125.398438c32.234376.003906 58.363282 26.140624 58.359376 58.375-.003907 32.238281-26.136719 58.367187-58.375 58.363281-32.234376 0-58.363282-26.132813-58.363282-58.367188-.003906-32.242187 26.136719-58.378906 58.378906-58.371093zm0 0" fill="#00efd1"/><path d="m169.546875 42.617188c4.898437 4.902343 10.867187 8.59375 17.441406 10.78125-13.320312 4.441406-23.773437 14.890624-28.21875 28.210937-4.441406-13.320313-14.890625-23.773437-28.210937-28.210937 13.320312-4.4375 23.769531-14.890626 28.210937-28.210938 2.191407 6.570312 5.882813 12.535156 10.777344 17.429688zm0 0" fill="#00efd1"/><path d="m45.988281 240.117188c4.894531 4.902343 10.867188 8.59375 17.441407 10.78125-13.324219 4.441406-23.777344 14.898437-28.222657 28.21875-4.433593-13.324219-14.886719-23.777344-28.207031-28.21875 13.316406-4.4375 23.769531-14.890626 28.207031-28.210938 2.191407 6.570312 5.882813 12.535156 10.78125 17.429688zm0 0" fill="#00efd1"/><g fill="#083863"><path d="m152.128906 83.816406c.953125 2.859375 3.628906 4.789063 6.640625 4.789063s5.6875-1.929688 6.640625-4.789063c3.75-11.226562 12.5625-20.035156 23.792969-23.78125 2.855469-.953125 4.785156-3.628906 4.785156-6.640625s-1.929687-5.6875-4.785156-6.640625c-11.230469-3.746094-20.042969-12.554687-23.792969-23.785156-.953125-2.855469-3.628906-4.785156-6.640625-4.785156s-5.6875 1.929687-6.640625 4.785156c-3.742187 11.230469-12.554687 20.042969-23.78125 23.785156-2.859375.953125-4.785156 3.628906-4.785156 6.640625s1.925781 5.6875 4.785156 6.640625c11.210938 3.769532 20.011719 12.570313 23.78125 23.78125zm.820313-36.253906c2.140625-2.144531 4.089843-4.472656 5.824219-6.960938 3.472656 4.988282 7.800781 9.320313 12.789062 12.792969-4.992188 3.476563-9.328125 7.8125-12.800781 12.804688-3.488281-4.980469-7.820313-9.3125-12.800781-12.800781 2.496093-1.734376 4.835937-3.683594 6.988281-5.832032zm0 0"/><path d="m4.785156 257.539062c11.214844 3.769532 20.015625 12.574219 23.78125 23.792969.953125 2.855469 3.628906 4.785157 6.640625 4.785157s5.6875-1.925782 6.640625-4.785157c3.746094-11.234375 12.5625-20.046875 23.792969-23.792969 2.859375-.953124 4.785156-3.628906 4.785156-6.640624 0-3.011719-1.925781-5.6875-4.785156-6.640626-11.226563-3.746093-20.039063-12.554687-23.792969-23.785156-.953125-2.855468-3.625-4.785156-6.640625-4.785156-3.011719 0-5.6875 1.929688-6.640625 4.785156-3.742187 11.230469-12.550781 20.042969-23.78125 23.785156-2.859375.953126-4.785156 3.628907-4.785156 6.640626 0 3.011718 1.925781 5.6875 4.785156 6.640624zm24.605469-12.472656c2.140625-2.144531 4.089844-4.472656 5.820313-6.960937 3.472656 4.988281 7.804687 9.320312 12.792968 12.792969-4.992187 3.476562-9.328125 7.8125-12.800781 12.808593-3.488281-4.980469-7.820313-9.3125-12.800781-12.800781 2.496094-1.734375 4.835937-3.691406 6.988281-5.839844zm0 0"/><path d="m285.957031 229.871094c-13.765625 19.820312-21.347656 46.050781-21.347656 73.855468 0 15.722657 2.613281 48.625 8.226563 68.984376 2.132812 7.84375 9.214843 13.316406 17.34375 13.40625h100.078124c8.125-.09375 15.203126-5.5625 17.351563-13.398438 5.363281-19.492188 8.21875-52.578125 8.21875-68.90625 0-27.804688-7.582031-54.078125-21.347656-73.902344-14.304688-20.597656-33.574219-31.960937-54.261719-31.960937s-39.957031 11.324219-54.261719 31.921875zm115.871094 73.855468c0 15.539063-2.683594 46.972657-7.714844 65.269532-.460937 1.773437-2.023437 3.039062-3.855469 3.121094h-100.078124c-1.828126-.078126-3.390626-1.347657-3.84375-3.121094-5.042969-18.285156-7.726563-49.640625-7.726563-65.1875 0-50.621094 27.636719-91.839844 61.609375-91.839844s61.609375 41.140625 61.609375 91.757812zm0 0"/><path d="m295.347656 337.117188c0 3.867187 3.136719 7 7 7h75.742188c3.863281 0 7-3.132813 7-7 0-3.863282-3.136719-7-7-7h-75.742188c-3.863281 0-7 3.136718-7 7zm0 0"/><path d="m311.820312 304.117188c0 3.867187 3.132813 7 7 7h42.808594c3.867188 0 7-3.132813 7-7 0-3.863282-3.132812-7-7-7h-42.808594c-3.867187 0-7 3.136718-7 7zm0 0"/><path d="m381.378906.117188h-87.261718c-3.863282 0-7 3.136718-7 7 0 3.867187 3.136718 7 7 7h39v29h-25.828126c-3.933593.066406-7.105468 3.238281-7.171874 7.171874v31.558594c.058593 3.953125 3.21875 7.15625 7.171874 7.269532h6.828126v16.292968c-8.546876 1.027344-17.011719 2.667969-25.324219 4.914063-20.941407 5.6875-37.910157 14.628906-48.816407 25.652343-17.039062-28.921874-48.078124-46.699218-81.644531-46.769531-52.144531 0-94.589843 42.664063-94.589843 94.804688.046874 38.769531 23.621093 73.628906 59.585937 88.105469h-59.898437c-1.847657-.019532-3.625.695312-4.9375 1.992187-1.316407 1.296875-2.058594 3.0625-2.0625 4.910156-.03125 8.015625 2.660156 15.808594 7.628906 22.097657h-.628906c-1.847657-.019532-3.628907.699218-4.941407 1.996093-1.316406 1.296875-2.054687 3.066407-2.058593 4.914063-.027344 8.015625 2.660156 15.800781 7.625 22.089844h-.625c-1.847657-.019532-3.625.695312-4.9375 1.992187-1.316407 1.296875-2.058594 3.0625-2.0625 4.910156-.03125 8.015625 2.660156 15.808594 7.628906 22.097657h-.628906c-1.847657-.019532-3.625.695312-4.9375 1.992187-1.316407 1.296875-2.058594 3.0625-2.0625 4.910156.023437 19.957031 16.21875 36.117188 36.179687 36.097657h152.179687c4.230469 7.285156 11.957032 11.835937 20.378907 12h150.109375c10.5.011718 19.730468-6.941407 22.621094-17.03125 7.980468-28.363282 12.230468-76.546876 12.230468-100.425782 0-32.765625-7.632812-64.742187-21.601562-90.882812 16.640625-11.019532 25.710937-24.960938 25.710937-39.769532 0-15.527343-9.878906-30.273437-28.21875-41.523437-15.460937-9.488281-36.902343-16.167969-58.902343-19.066406v-16.300781h6.03125c3.910156-.128907 7.003906-3.355469 6.96875-7.269532v-31.558594c.027343-3.894531-3.074219-7.085937-6.96875-7.171874h-26.03125v-29h32.746093l25.789063 11.722656c2.277344 1.054687 4.945312.804687 6.992187-.652344 2.042969-1.457031 3.152344-3.894531 2.90625-6.394531-.25-2.496094-1.816406-4.671875-4.105469-5.695313l-27.171874-12.351562c-.910157-.414063-1.894532-.628906-2.894532-.628906zm-129.480468 204.863281c-1.066407 2-2.078126 4.035156-3.070313 6.101562.691406-2.292969 1.292969-4.609375 1.804687-6.957031.421876.28125.832032.574219 1.265626.855469zm-174.179688-21.210938c.003906-37.5 25.878906-70.039062 62.414062-78.488281 36.535157-8.453125 74.070313 9.417969 90.542969 43.109375-2.902343 5.417969-4.441406 11.46875-4.476562 17.617187 0 9.976563 4.050781 19.292969 12.023437 27.753907-.136718 1.101562-.285156 2.191406-.460937 3.261719-6.902344 41.34375-44.351563 70.492187-86.121094 67.03125-41.773437-3.460938-73.917969-38.371094-73.921875-80.285157zm142.03125 72.109375c8.953125-7.640625 16.402344-16.882812 21.960938-27.261718-5.003907 14.0625-8.332032 28.664062-9.925782 43.5h-38.597656c9.648438-3.988282 18.613281-9.46875 26.5625-16.238282zm-148.191406 30.238282h159.058594c-.1875 3-.296876 7.289062-.296876 10.9375 0 1.304687.015626 2.0625.039063 4.0625h-137.75c-9.789063 0-18.113281-7-21.050781-15zm0 29h159.3125c.078125 1 .160156 2.722656.25 4.183593.226562 3.554688.5 6.816407.816406 10.816407h-139.328125c-9.542969.140624-18.070313-5.933594-21.050781-15zm0 29h161.726562c.558594 5 1.183594 10 1.875 15h-142.550781c-9.542969.140624-18.070313-5.933594-21.050781-15zm0 29h165.769531c.953125 6 1.960937 11 3.015625 15h-147.734375c-9.542969.140624-18.070313-5.933594-21.050781-15zm368.679687-206.867188c0 11.21875-8.71875 22.183594-24.554687 31.097656-1.640625.902344-2.84375 2.433594-3.332032 4.242188-.488281 1.808594-.21875 3.734375.746094 5.339844 14.851563 25.03125 23.03125 56.894531 23.03125 89.742187 0 23.070313-4.070312 69.476563-11.710937 96.636719-1.183594 4.058594-4.914063 6.835937-9.140625 6.808594h-150.109375c-4.183594.019531-7.886719-2.703126-9.113281-6.703126-.019532-.074218-.03125-.121093-.054688-.191406l-.011719-.027344c-2.464843-9.242187-4.40625-18.621093-5.8125-28.085937-1.414062-9.078125-2.664062-19.035156-3.609375-28.796875-.605468-6.179688-1.101562-12.273438-1.472656-18.109375-.242188-3.824219-.425781-7.410156-.550781-10.644531-.148438-4.054688-.222657-7.722656-.222657-10.902344 0-5.753906.253907-11.617188.753907-17.425781 2.355469-27.261719 10.054687-52.558594 22.265625-73.152344.960937-1.621094 1.226562-3.558594.742187-5.378906-.488281-1.820313-1.6875-3.367188-3.328125-4.289063-5.078125-2.777344-9.8125-6.136718-14.105468-10.015625-6.933594-6.453125-10.449219-13.3125-10.449219-20.386719.09375-5.066406 1.707031-9.984374 4.628906-14.121093 7.863281-11.773438 25.160156-22 47.457031-28.054688 9.554688-2.476562 19.300782-4.132812 29.136719-4.957031 12.265625-1.164062 25.328125-1.757812 37.597656.242188 46.300781 4 81.21875 24.511718 81.21875 47.132812zm-87.121093-62.117188c-8.324219-.476562-16.671876-.476562-25 0v-15.015624h25zm13-29.015624h-52v-18h52zm0 0"/><path d="m414.058594 36.417969-15.253906 22.953125c-6.636719 10.042968-5.304688 23.371094 3.191406 31.898437 9.882812 9.882813 25.90625 9.882813 35.792968 0 8.492188-8.53125 9.820313-21.855469 3.179688-31.898437l-15.25-22.953125c-1.296875-1.953125-3.484375-3.125-5.832031-3.125-2.34375 0-4.53125 1.171875-5.828125 3.125zm15.25 30.699219c2.308594 3.46875 2.523437 7.925781.554687 11.601562-1.96875 3.671875-5.796875 5.964844-9.964843 5.960938-3 .015624-5.878907-1.175782-7.992188-3.300782l-.011719-.007812c-3.796875-3.8125-4.390625-9.765625-1.425781-14.253906l9.417969-14.175782zm0 0"/><path d="m223.660156 183.769531c0-36.109375-29.269531-65.378906-65.375-65.382812-36.105468 0-65.378906 29.269531-65.375 65.378906 0 36.105469 29.269532 65.375 65.378906 65.371094 36.085938-.039063 65.328126-29.28125 65.371094-65.367188zm-116.75 0c-.003906-28.375 22.996094-51.378906 51.367188-51.382812 28.375 0 51.378906 22.996093 51.382812 51.371093 0 28.375-22.996094 51.378907-51.371094 51.378907-28.359374-.027344-51.347656-23.007813-51.378906-51.367188zm0 0"/></g></svg>