<svg height="394pt" viewBox="-4 0 394 394.0001" width="394pt" xmlns="http://www.w3.org/2000/svg"><path d="m360.96875 234.75 17.570312 152.25h-38.1875v-.679688l-10.773437-127.691406c-1.726563-13.8125-13.46875-24.175781-27.386719-24.179687h-94.691406c-13.917969.003906-25.65625 10.371093-27.378906 24.179687l-10.78125 127.691406v.679688h-38.191406l17.570312-152.25c2.8125-22.507812 21.949219-39.398438 44.632812-39.398438h122.988282c22.683594-.003906 41.820312 16.886719 44.628906 39.398438zm0 0" fill="#00acea"/><path d="m340.351562 386.320312v.679688h-171.011718v-.679688l10.78125-127.691406c1.722656-13.808594 13.460937-24.175781 27.378906-24.179687h94.691406c13.917969.003906 25.660156 10.367187 27.386719 24.179687zm0 0" fill="#00efd1"/><path d="m237.980469 167.460938c2.371093-.621094 4.808593-.933594 7.257812-.929688h19.210938c2.449219-.003906 4.890625.308594 7.261719.929688 12.695312 3.304687 21.558593 14.769531 21.558593 27.890624h-76.847656c-.007813-13.125 8.859375-24.589843 21.558594-27.890624zm0 0" fill="#fedb41"/><path d="m271.710938 132.390625v35.070313c-2.371094-.621094-4.8125-.933594-7.261719-.929688h-19.210938c-2.449219-.003906-4.886719.308594-7.257812.929688v-35.070313zm0 0" fill="#00efd1"/><path d="m271.710938 82.820312v49.570313h-33.730469v-49.570313c0-9.316406 7.550781-16.867187 16.863281-16.867187 9.316406 0 16.867188 7.550781 16.867188 16.867187zm0 0" fill="#00acea"/><path d="m72 7h64.53125v51.609375c-.003906 23.773437-19.277344 43.042969-43.050781 43.039063h-42.96875c-23.773438.003906-43.050781-19.265626-43.050781-43.039063v-51.609375zm0 0" fill="#00efd1"/><path d="m85.5 144.679688h-45.769531c-5.941407 0-10.757813-4.816407-10.761719-10.757813v-32.273437h86.050781v32.273437c0 5.941406-4.816406 10.757813-10.757812 10.757813zm0 0" fill="#00acea"/><path d="m85.5 144.679688v228.808593c0 7.460938-6.046875 13.507813-13.503906 13.507813-7.460938 0-13.507813-6.046875-13.507813-13.507813v-228.808593zm0 0" fill="#fedb41"/><g fill="#083863"><path d="m124.199219 386.199219c-.226563 1.984375.402343 3.96875 1.730469 5.460937 1.328124 1.488282 3.230468 2.339844 5.222656 2.339844h247.386718c1.996094 0 3.898438-.851562 5.226563-2.339844 1.328125-1.492187 1.957031-3.476562 1.726563-5.460937l-17.574219-152.492188c-3.265625-26.03125-25.34375-45.59375-51.578125-45.707031h-16.765625c-2.28125-11-10.574219-20.851562-20.574219-25.511719v-79.667969c0-13.253906-10.746094-24-24-24s-24 10.746094-24 24v79.667969c-10.707031 4.589844-18.503906 14.109375-20.886719 25.511719h-16.761719c-26.257812.121094-48.34375 19.71875-51.585937 45.773438zm52.699219-6.199219 10.1875-120.859375c1.332031-10.289063 10.039062-18.023437 20.414062-18.140625h94.691406c10.375.117188 19.085938 7.855469 20.425782 18.144531l10.175781 120.855469zm88.101562-220.460938s-.464844.460938-.550781.460938h-19.210938c-.085937 0-.238281-.464844-.238281-.460938v-20.539062h20zm-10.140625-86.589843c2.65625-.007813 5.210937 1.03125 7.109375 2.890625 1.898438 1.832031 2.988281 4.34375 3.03125 6.980468v42.179688h-20v-42.179688c0-5.445312 4.414062-9.863281 9.859375-9.871093zm-15.101563 101.339843c1.808594-.328124 3.648438-.425781 5.480469-.289062h19.210938c1.839843-.136719 3.691406-.035156 5.503906.300781 6.917969 1.945313 12.527344 7.015625 15.160156 13.699219h-60.539062c2.644531-6.691406 8.261719-11.761719 15.1875-13.710938zm-46.40625 27.710938h122.988282c19.15625.097656 35.269531 14.375 37.675781 33.378906l16.671875 144.621094h-23.84375l-10.289062-121.957031c-.007813-.097657-.019532-.414063-.03125-.507813-2.167969-17.347656-16.851563-30.40625-34.332032-30.535156h-94.691406c-17.484375.125-32.167969 13.1875-34.324219 30.539062-.015625.09375-.023437.300782-.03125.390626l-10.296875 122.070312h-23.84375l16.664063-144.558594c2.378906-19.027344 18.503906-33.335937 37.683593-33.441406zm0 0"/><path d="m204 311.71875c-3.867188 0-7 3.136719-7 7v22.300781c0 3.867188 3.132812 7 7 7s7-3.132812 7-7v-22.300781c0-3.863281-3.132812-7-7-7zm0 0"/><path d="m306 311.71875c-3.867188 0-7 3.136719-7 7v22.300781c0 3.867188 3.132812 7 7 7s7-3.132812 7-7v-22.300781c0-3.863281-3.132812-7-7-7zm0 0"/><path d="m238 311.71875c-3.867188 0-7 3.136719-7 7v22.300781c0 3.867188 3.132812 7 7 7s7-3.132812 7-7v-22.300781c0-3.863281-3.132812-7-7-7zm0 0"/><path d="m272 311.71875c-3.867188 0-7 3.136719-7 7v22.300781c0 3.867188 3.132812 7 7 7s7-3.132812 7-7v-22.300781c0-3.863281-3.132812-7-7-7zm0 0"/><path d="m22 99.855469c-.078125.597656-.078125 1.199219 0 1.796875v32.273437c-.027344 9.859375 7.871094 17.910157 17.730469 18.074219h11.269531v221.488281c.070312 5.46875 2.316406 10.683594 6.242188 14.492188 3.785156 3.863281 8.972656 6.035156 14.386718 6.019531 5.421875-.011719 10.617188-2.183594 14.4375-6.027344 3.824219-3.847656 5.957032-9.058594 5.933594-14.484375v-221.488281h12.261719c9.859375-.164062 17.761719-8.21875 17.738281-18.078125v-32.273437c.078125-.597657.078125-1.199219 0-1.796876 13.671875-9.292968 21.898438-24.714843 22-41.246093v-51.605469c0-3.867188-3.601562-7-7.46875-7h-129.070312c-3.867188 0-7.460938 3.132812-7.460938 7v51.609375c.101562 16.53125 8.328125 31.953125 22 41.246094zm56 273.632812c.058594 1.699219-.574219 3.347657-1.75 4.574219-1.179688 1.226562-2.800781 1.925781-4.5 1.9375-1.769531.007812-3.46875-.683594-4.730469-1.921875-1.253906-1.199219-1.980469-2.851563-2.019531-4.589844v-221.488281h13zm30-264.488281v24.921875c.03125 2.132813-1.609375 3.921875-3.738281 4.078125h-64.53125c-2.128907-.15625-3.765625-1.945312-3.730469-4.078125v-24.921875zm-94-95h12.09375c-3.558594 15.851562-2.210938 39.773438 4.050781 49.492188 2.09375 3.25 6.425781 4.1875 9.675781 2.09375s4.1875-6.425782 2.09375-9.675782c-4.488281-6.96875-4.964843-31.238281-1.4375-41.910156h24.523438v45.699219c0 3.867187 3.132812 7 7 7s7-3.132813 7-7v-45.699219h25.125c3.523438 10.671875 3.050781 34.941406-1.4375 41.910156-2.09375 3.25-1.160156 7.582032 2.089844 9.675782s7.582031 1.15625 9.675781-2.09375c6.265625-9.71875 7.613281-33.640626 4.054687-49.492188h11.492188v44.609375c0 19.871094-16.640625 36.390625-36.519531 36.390625h-42.96875c-19.878907 0-36.511719-16.519531-36.511719-36.390625zm0 0"/></g></svg>