<svg height="416pt" viewBox="-44 0 416 416" width="416pt" xmlns="http://www.w3.org/2000/svg"><path d="m204.398438 195.550781.433593-.011719v-23.808593c0-7.515625 6.089844-13.605469 13.601563-13.605469 7.515625 0 13.605468 6.089844 13.605468 13.605469v-13.609375c0-7.519532 6.09375-13.609375 13.609376-13.609375 7.519531 0 13.613281 6.089843 13.613281 13.609375v20.410156c0-7.519531 6.089843-13.609375 13.609375-13.609375 7.515625 0 13.609375 6.089844 13.609375 13.609375v62.269531c-.003907-15.601562 12.640625-28.25 28.238281-28.25 1.535156-.003906 3.007812.605469 4.089844 1.6875 1.085937 1.085938 1.695312 2.558594 1.691406 4.089844v96.292969c.007812 15.96875-9.300781 30.472656-23.820312 37.117187v29.5625c.003906 15.03125-12.179688 27.214844-27.210938 27.21875h-48.988281c-15.035157 0-27.222657-12.1875-27.21875-27.21875v-37.359375c-9.964844-8.75-15.667969-21.371094-15.652344-34.632812v-110.359375c0-6.851563 5.097656-12.636719 11.898437-13.5 6.800782-.863281 13.179688 3.464843 14.890626 10.101562zm0 0" fill="#00acea"/><path d="m34.320312 351.738281c-14.519531-6.644531-23.828124-21.148437-23.820312-37.117187v-96.292969c-.003906-1.53125.605469-3.003906 1.691406-4.089844 1.082032-1.082031 2.554688-1.691406 4.089844-1.6875 15.597656 0 28.242188 12.648438 28.238281 28.25v-62.269531c0-7.519531 6.09375-13.609375 13.609375-13.609375 7.519532 0 13.609375 6.089844 13.609375 13.609375v-20.410156c0-7.519532 6.09375-13.609375 13.613281-13.609375 7.515626 0 13.609376 6.089843 13.609376 13.609375v13.609375c0-7.515625 6.089843-13.605469 13.605468-13.605469 7.511719 0 13.605469 6.089844 13.605469 13.605469v23.808593l.429687.011719c1.707032-6.644531 8.089844-10.980469 14.894532-10.117187 6.800781.867187 11.902344 6.65625 11.894531 13.515625v110.359375c.019531 13.261718-5.6875 25.882812-15.652344 34.632812v37.359375c.003907 15.03125-12.183593 27.21875-27.21875 27.21875h-48.988281c-15.03125-.003906-27.214844-12.1875-27.210938-27.21875zm0 0" fill="#00acea"/><g fill="#083863"><path d="m139.570312 178.339844c-2.3125.070312-4.601562.4375-6.820312 1.089844v-7.699219c.042969-5.441407-2.085938-10.675781-5.910156-14.542969-3.828125-3.867188-9.039063-6.050781-14.480469-6.066406-2.496094.003906-4.972656.472656-7.300781 1.382812-2.492188-8.851562-10.558594-14.976562-19.757813-14.992187-5.457031.003906-10.691406 2.179687-14.546875 6.042969-3.855468 3.867187-6.015625 9.105468-6.003906 14.566406v.90625c-6.265625-2.136719-13.175781-1.105469-18.542969 2.769531-5.363281 3.875-8.515625 10.113281-8.457031 16.730469v34.171875c-6.15625-4.628907-13.652344-7.136719-21.355469-7.144531-3.375.003906-6.609375 1.355468-8.984375 3.753906-2.375 2.398437-3.691406 5.644531-3.660156 9.019531v96.292969c-.070312 17.113281 9.105469 32.929687 24 41.359375v25.320312c0 18.867188 14.917969 34.699219 33.78125 34.699219h48.988281c18.871094 0 34.230469-15.832031 34.230469-34.699219v-34.339843c10.121094-9.929688 15.875-23.476563 16-37.652344v-110.359375c-.09375-5.507813-2.367188-10.753907-6.324219-14.589844-3.972656-3.875-9.308593-6.035156-14.855469-6.019531zm7.179688 130.96875c-.136719 18.21875-12.730469 33.972656-30.472656 38.117187-2.449219.539063-4.421875 2.351563-5.167969 4.75-.746094 2.394531-.148437 5.007813 1.5625 6.84375 1.710937 1.835938 4.273437 2.613281 6.71875 2.039063 3.910156-.992188 7.714844-2.363282 11.359375-4.101563v24.34375c0 11.148438-9.082031 20.699219-20.230469 20.699219h-48.988281c-11.144531 0-19.78125-9.550781-19.78125-20.699219v-19.902343c3.214844.71875 6.5 1.070312 9.796875 1.054687 15.308594-.023437 29.980469-6.125 40.789063-16.972656l2.75-2.78125c2.734374-2.738281 2.730468-7.175781-.007813-9.910157-2.742187-2.730468-7.175781-2.726562-9.910156.011719l-2.777344 2.773438c-8.238281 8.238281-19.410156 12.871093-31.058594 12.875-4.828125.011719-9.597656-1.035157-13.972656-3.074219-11.980469-5.542969-19.640625-17.554688-19.609375-30.753906v-95.035156c11.207031.714843 19.945312 9.984374 20 21.214843v39.121094c-.027344 1.84375.6875 3.621094 1.980469 4.9375 1.292969 1.3125 3.058593 2.058594 4.90625 2.0625 10.019531.011719 18.132812 8.144531 18.121093 18.167969-.007812 1.855468.722657 3.632812 2.03125 4.945312 1.308594 1.316406 3.085938 2.054688 4.941407 2.054688 3.882812.007812 7.050781-3.113282 7.097656-7-.128906-14.996094-10.484375-27.960938-25.078125-31.402344v-95.15625c-.050781-1.738281.609375-3.425781 1.824219-4.667969 1.210937-1.246093 2.878906-1.949219 4.617187-1.941406 1.746094.003906 3.421875.703125 4.652344 1.941406 1.230469 1.242188 1.914062 2.917969 1.90625 4.667969v80.96875c0 3.867188 3.132812 7 7 7s7-3.132812 7-7v-101.378906c-.007812-1.757813.695312-3.445313 1.945312-4.683594 1.191407-1.238281 2.835938-1.933594 4.554688-1.925781 1.738281.003906 3.40625.707031 4.625 1.949219 1.222656 1.242187 1.894531 2.917968 1.875 4.660156v101.378906c0 3.867188 3.132812 7 7 7 3.863281 0 7-3.132812 7-7v-87.769531c.03125-1.769531.769531-3.453125 2.042969-4.679688 1.175781-1.238281 2.808593-1.9375 4.511719-1.929687 1.738281.007812 3.394531.714844 4.605468 1.957031 1.210938 1.242187 1.875 2.917969 1.839844 4.652344v23.808593c0 .425782.042969.851563.121094 1.269532-.078125.710937-.117188 1.425781-.121094 2.140625v46.949219c0 3.867187 3.132812 7 7 7s7-3.132813 7-7v-46.949219c.070312-.566407.214844-1.121094.417969-1.65625.800781-2.929688 3.46875-4.960938 6.507812-4.953125 1.816407-.007813 3.570313.679687 4.898438 1.921875 1.3125 1.21875 2.089843 2.902343 2.175781 4.6875zm0 0"/><path d="m314.855469 205.550781c-7.628907.007813-15.042969 2.519531-21.105469 7.148438v-34.167969c-.03125-5.484375-2.25-10.722656-6.164062-14.558594-3.785157-3.886718-8.980469-6.066406-14.402344-6.050781-2.191406-.003906-4.367188.371094-6.433594 1.105469v-.90625c-.117188-10.328125-7.773438-19.011719-18.003906-20.417969-10.230469-1.40625-19.949219 4.890625-22.847656 14.800781-2.386719-.914062-4.921876-1.382812-7.476563-1.382812-11.390625.007812-20.628906 9.21875-20.671875 20.609375v7.699219c-2.113281-.730469-4.335938-1.097657-6.570312-1.089844-5.449219 0-10.671876 2.179687-14.507813 6.050781-3.835937 3.867187-5.96875 9.109375-5.921875 14.558594v110.359375c.125 14.175781 5.878906 27.722656 16 37.652344v34.339843c0 18.867188 14.859375 34.699219 33.730469 34.699219h48.988281c18.863281 0 34.28125-15.832031 34.28125-34.699219v-25.320312c14.894531-8.429688 24.070312-24.246094 24-41.359375v-96.292969c-.046875-7.082031-5.8125-12.792969-12.894531-12.777344zm-1.105469 109.070313c-.085938 18.722656-15.296875 33.847656-34.019531 33.828125-11.660157 0-22.847657-4.628907-31.097657-12.867188l-2.78125-2.78125c-2.734374-2.734375-7.167968-2.738281-9.90625-.003906-2.734374 2.734375-2.734374 7.167969 0 9.902344l2.785157 2.785156c10.867187 10.867187 25.609375 16.96875 40.976562 16.964844 3.375.015625 6.742188-.335938 10.042969-1.050781v19.902343c0 11.148438-9.136719 20.699219-20.28125 20.699219h-48.988281c-11.148438 0-19.730469-9.550781-19.730469-20.699219v-24.347656c3.492188 1.894531 7.238281 3.277344 11.121094 4.101563.484375.121093.980468.183593 1.476562.183593 3.238282-.007812 6.039063-2.25 6.75-5.40625.867188-3.773437-1.484375-7.535156-5.253906-8.410156-17.660156-4.179687-30.121094-19.964844-30.09375-38.113281v-110.359375c-.046875-3.3125 2.398438-6.132813 5.683594-6.554688 3.285156-.425781 6.367187 1.683594 7.164062 4.898438.121094.542969.171875 1.101562.152344 1.65625v46.949219c0 3.867187 3.132812 7 7 7s7-3.132813 7-7v-46.949219c-.003906-.714844-.042969-1.429688-.121094-2.140625.078125-.417969.121094-.84375.121094-1.269532v-23.808593c.019531-3.65625 2.984375-6.605469 6.640625-6.609375 1.714844-.003906 3.355469.691406 4.542969 1.929687 1.210937 1.25 1.867187 2.9375 1.816406 4.679688v87.769531c0 3.867188 3.132812 7 7 7s7-3.132812 7-7v-101.378906c.074219-3.679688 3.078125-6.617188 6.753906-6.609375 1.855469-.011719 3.644532.6875 5 1.949219 1.328125 1.199218 2.132813 2.871093 2.246094 4.660156v101.378906c0 3.867188 3.132812 7 7 7s7-3.132812 7-7v-80.96875c-.054688-1.726562.59375-3.402344 1.789062-4.648438 1.199219-1.242187 2.847657-1.949218 4.574219-1.960937 3.65625.003906 6.617188 2.957031 6.636719 6.609375v95.15625c-14.859375 3.066406-25.472656 16.226562-25.316406 31.398438 0 3.839843 3.113281 6.949218 6.953125 6.949218 3.835937 0 6.949219-3.109375 6.949219-6.949218.070312-10.054688 8.242187-18.167969 18.300781-18.167969 3.886719.007812 7.0625-3.113281 7.117187-7v-39.117188c.054688-11.230469 8.792969-20.5 20-21.214843zm0 0"/><path d="m60.832031 90.445312c5.605469-3.5 13.289063-8.304687 13.289063-18.433593 0-10.132813-7.683594-14.933594-13.289063-18.4375-5.035156-3.148438-6.710937-4.539063-6.710937-6.5625 0-2.027344 1.675781-3.421875 6.710937-6.570313 4.363281-2.726562 9.308594-5.816406 11.816407-11.421875 1.582031-3.53125 0-7.671875-3.527344-9.25-3.53125-1.578125-7.671875 0-9.25 3.53125-.765625 1.710938-3.660156 3.519531-6.457032 5.265625-5.609374 3.507813-13.292968 8.3125-13.292968 18.441406 0 10.132813 7.679687 14.929688 13.289062 18.433594 5.035156 3.148438 6.710938 4.539063 6.710938 6.566406 0 2.027344-1.675782 3.417969-6.710938 6.5625-5.609375 3.507813-13.289062 8.308594-13.289062 18.4375 0 9.972657 7.925781 15.03125 11.734375 17.460938 3.253906 2.023438 7.53125 1.050781 9.59375-2.179688 2.0625-3.230468 1.140625-7.519531-2.0625-9.617187-4.453125-2.84375-5.265625-4.136719-5.265625-5.660156 0-2.03125 1.675781-3.417969 6.710937-6.566407zm0 0"/><path d="m129.75 90.445312c5.609375-3.5 13.289062-8.304687 13.289062-18.433593 0-10.132813-7.679687-14.933594-13.289062-18.4375-5.035156-3.148438-6.710938-4.539063-6.710938-6.5625 0-2.027344 1.675782-3.421875 6.714844-6.570313 4.359375-2.726562 9.300782-5.816406 11.8125-11.417968 1.074219-2.289063.832032-4.980469-.640625-7.042969-1.46875-2.058594-3.9375-3.164063-6.453125-2.890625-2.511718.273437-4.6875 1.882812-5.679687 4.210937-.769531 1.714844-3.664063 3.523438-6.460938 5.273438-5.609375 3.503906-13.292969 8.308593-13.292969 18.441406 0 10.128906 7.683594 14.929687 13.292969 18.433594 5.03125 3.148437 6.707031 4.535156 6.707031 6.566406 0 2.027344-1.675781 3.414063-6.707031 6.5625-5.609375 3.503906-13.292969 8.304687-13.292969 18.4375 0 9.96875 7.925782 15.027344 11.734376 17.460937 2.109374 1.378907 4.796874 1.523438 7.039062.371094 2.242188-1.15625 3.691406-3.425781 3.792969-5.945312.101562-2.515625-1.15625-4.898438-3.300781-6.226563-4.449219-2.839843-5.265626-4.136719-5.265626-5.660156 0-2.035156 1.675782-3.421875 6.710938-6.570313zm0 0"/><path d="m198.671875 90.445312c5.605469-3.5 13.289063-8.304687 13.289063-18.433593 0-10.132813-7.683594-14.933594-13.289063-18.4375-5.035156-3.148438-6.710937-4.539063-6.710937-6.5625 0-2.027344 1.675781-3.421875 6.710937-6.570313 4.359375-2.726562 9.300781-5.816406 11.816406-11.417968 1.074219-2.289063.828125-4.980469-.640625-7.042969-1.46875-2.058594-3.9375-3.164063-6.453125-2.890625-2.515625.273437-4.6875 1.882812-5.679687 4.210937-.773438 1.714844-3.664063 3.523438-6.460938 5.269531-5.609375 3.507813-13.292968 8.3125-13.292968 18.445313 0 10.128906 7.679687 14.929687 13.289062 18.433594 5.035156 3.148437 6.710938 4.535156 6.710938 6.566406 0 2.027344-1.675782 3.414063-6.710938 6.5625-5.609375 3.503906-13.289062 8.304687-13.289062 18.4375 0 9.96875 7.925781 15.027344 11.734374 17.460937 2.105469 1.378907 4.796876 1.523438 7.039063.371094 2.242187-1.15625 3.691406-3.425781 3.792969-5.945312.101562-2.515625-1.160156-4.898438-3.300782-6.226563-4.453124-2.839843-5.265624-4.136719-5.265624-5.660156 0-2.035156 1.675781-3.421875 6.710937-6.570313zm0 0"/><path d="m267.589844 90.445312c5.609375-3.5 13.289062-8.304687 13.289062-18.433593 0-10.132813-7.679687-14.933594-13.289062-18.4375-5.035156-3.148438-6.710938-4.539063-6.710938-6.5625 0-2.027344 1.675782-3.421875 6.714844-6.570313 4.359375-2.726562 9.300781-5.816406 11.8125-11.417968 1.074219-2.289063.832031-4.980469-.640625-7.042969-1.46875-2.058594-3.9375-3.164063-6.449219-2.890625-2.515625.273437-4.691406 1.882812-5.683594 4.210937-.769531 1.714844-3.664062 3.523438-6.460937 5.269531-5.609375 3.507813-13.292969 8.3125-13.292969 18.445313 0 10.128906 7.683594 14.929687 13.292969 18.433594 5.035156 3.148437 6.707031 4.535156 6.707031 6.566406 0 2.027344-1.671875 3.414063-6.707031 6.5625-5.609375 3.503906-13.292969 8.304687-13.292969 18.4375 0 9.988281 7.929688 15.039063 11.742188 17.464844 3.261718 2.074219 7.585937 1.113281 9.664062-2.144531 2.074219-3.261719 1.117188-7.589844-2.144531-9.664063-4.449219-2.832031-5.261719-4.128906-5.261719-5.65625 0-2.035156 1.675782-3.421875 6.710938-6.570313zm0 0"/><path d="m26.5 53h4c3.867188 0 7-3.132812 7-7s-3.132812-7-7-7h-4c-3.289062.050781-6.460938-1.21875-8.808594-3.519531-2.347656-2.304688-3.679687-5.453125-3.691406-8.742188-.011719-3.351562 1.304688-6.574219 3.660156-8.960937 2.328125-2.382813 5.507813-3.742188 8.839844-3.777344h268c6.945312.121094 12.511719 5.792969 12.5 12.738281.007812 3.285157-1.3125 6.429688-3.660156 8.722657-2.351563 2.316406-5.539063 3.59375-8.839844 3.539062h-15.019531c-3.867188 0-7 3.132812-7 7s3.132812 7 7 7h15.019531c7.003906.109375 13.753906-2.601562 18.738281-7.519531 7.578125-7.617188 9.84375-19.039063 5.75-28.972657-4.09375-9.929687-13.746093-16.4374995-24.488281-16.507812h-268c-7.0625.0703125-13.804688 2.949219-18.738281 8-4.984375 4.914062-7.7812502 11.621094-7.761719 18.621094.0273438 14.605468 11.894531 26.417968 26.5 26.378906zm0 0"/></g></svg>