<svg height="364pt" viewBox="0 -19 364.00117 364" width="364pt" xmlns="http://www.w3.org/2000/svg"><path d="m264.941406 235.371094v-177.699219h39.390625v183.742187h-39.390625zm0 0" fill="#00acea"/><path d="m304.332031 37.441406v20.230469h-39.390625v-50.980469h8.640625c16.980469.003906 30.746094 13.769532 30.75 30.75zm0 0" fill="#00acea"/><path d="m264.941406 271.242188v34.742187h-223.019531v-54.929687c22.757813 0 22.757813 20.5 45.507813 20.5s22.761718-20.5 45.519531-20.5c22.761719 0 22.75 20.5 45.511719 20.5 22.761718 0 22.761718-20.5 45.519531-20.5 21.128906 0 22.640625 17.660156 40.960937 20.1875zm0 0" fill="#00efd1"/><path d="m264.941406 241.414062v29.828126c-18.320312-2.527344-19.832031-20.1875-40.960937-20.1875-22.757813 0-22.757813 20.5-45.519531 20.5-22.761719 0-22.761719-20.5-45.511719-20.5s-22.757813 20.5-45.519531 20.5c-22.757813 0-22.75-20.5-45.507813-20.5v-35.871094c22.757813 0 22.757813 20.5 45.507813 20.5s22.761718-20.5 45.519531-20.5c22.761719 0 22.75 20.5 45.511719 20.5 22.761718 0 22.761718-20.5 45.519531-20.5 21.128906 0 22.640625 17.660156 40.960937 20.1875zm0 0" fill="#00acea"/><path d="m264.941406 57.671875v177.699219c-18.320312-2.527344-19.832031-20.1875-40.960937-20.1875-22.757813 0-22.757813 20.5-45.519531 20.5-22.761719 0-22.761719-20.5-45.511719-20.5s-22.757813 20.5-45.519531 20.5c-22.757813 0-22.75-20.5-45.507813-20.5v-187.992188c0-11.320312 9.175781-20.5 20.5-20.5h202.519531zm0 0" fill="#00efd1"/><path d="m41.839844 20.382812 1.109375.390626c-.683594 2.070312-1.03125 4.238281-1.027344 6.417968v30.480469h-16.269531c-10.296875 0-18.644532-8.347656-18.644532-18.644531s8.347657-18.644532 18.644532-18.644532zm0 0" fill="#f4b844"/><path d="m331.511719.00390625h-11.921875c-3.863282 0-7 3.13281275-7 6.99999975 0 3.863282 3.136718 7 7 7h11.921875c10.214843 0 18.5 8.28125 18.5 18.5 0 10.214844-8.285157 18.5-18.5 18.5h-20.511719v-13.5625c.050781-9.941406-3.871094-19.488281-10.902344-26.523437-7.027344-7.03125-16.574218-10.9609378-26.515625-10.91406275h-211.160156c-9.652344-.12500025-18.667969 4.80468775-23.769531 12.99999975h-13c-6.832032.050782-13.359375 2.820313-18.140625 7.699219-7.332031 7.417969-9.523438 18.496094-5.570313 28.144531 3.949219 9.652344 13.28125 16.007813 23.710938 16.15625h9.347656v254.308594c0 3.867188 3.136719 7 7 7 3.867188 0 7-3.132812 7-7v-6.308594h11v6.308594c0 3.867188 3.136719 7 7 7 3.867188 0 7-3.132812 7-7v-6.308594h11v6.308594c0 3.867188 3.136719 7 7 7 3.867188 0 7-3.132812 7-7v-6.308594h10v6.308594c0 3.867188 3.136719 7 7 7 3.867188 0 7-3.132812 7-7v-6.308594h11v6.308594c0 3.867188 3.136719 7 7 7 3.867188 0 7-3.132812 7-7v-6.308594h11v6.308594c0 3.867188 3.136719 7 7 7 3.867188 0 7-3.132812 7-7v-6.308594h11v6.308594c0 3.867188 3.136719 7 7 7 3.867188 0 7-3.132812 7-7v-6.308594h11v6.308594c0 3.867188 3.136719 7 7 7 3.867188 0 7-3.132812 7-7v-6.308594h11v6.308594c0 3.867188 3.136719 7 7 7 3.867188 0 7-3.132812 7-7v-6.308594h10v6.308594c0 3.867188 3.136719 7 7 7 3.867188 0 7-3.132812 7-7v-71.308594h32.332031c1.777344.078125 3.507813-.585937 4.773438-1.835937 1.269531-1.253907 1.953125-2.976563 1.894531-4.753907v-176.410156h20.511719c8.644531-.039062 16.914062-3.527344 22.980469-9.6875 6.109374-6.050781 9.535156-14.300781 9.507812-22.898437-.027344-17.921875-14.570312-32.4296878-32.488281-32.41406275zm-57.929688 13.99999975c6.230469-.050781 12.21875 2.402344 16.621094 6.808594 4.40625 4.410156 6.851563 10.402344 6.796875 16.628906v13.5625h-25v-37zm-224.582031 285v-39.960937c4 1.382812 7.308594 4.101562 11.035156 7.460937 5.957032 5.367188 13.355469 12.050782 27.414063 12.050782 14.0625 0 21.476562-6.683594 27.4375-12.050782 5.445312-4.90625 9.378906-8.449218 18.070312-8.449218 8.691407 0 12.617188 3.542968 18.0625 8.445312 5.957031 5.371094 13.375 12.054688 27.441407 12.054688 14.070312 0 21.484374-6.683594 27.445312-12.050782 5.449219-4.90625 9.382812-8.449218 18.074219-8.449218 8.691406 0 12.660156 3.542968 18.101562 8.445312 4.21875 3.792969 8.917969 7.980469 15.917969 10.285156v22.21875zm209-37.628906c-2.277344-1.636719-4.464844-3.398438-6.546875-5.277344-5.960937-5.367187-13.390625-12.042968-27.457031-12.042968s-21.496094 6.679687-27.453125 12.046874c-5.445313 4.90625-9.386719 8.453126-18.078125 8.453126s-12.628906-3.546876-18.078125-8.453126c-5.957031-5.367187-13.371094-12.046874-27.433594-12.046874s-21.488281 6.679687-27.445313 12.046874c-5.449218 4.90625-9.382812 8.453126-18.078124 8.453126-8.691407 0-12.578126-3.542969-18.023438-8.449219-4.882812-4.402344-10.40625-9.675781-20.40625-11.441407v-21.492187c4 1.382813 7.308594 4.101563 11.035156 7.464844 5.957032 5.367187 13.355469 12.046875 27.414063 12.046875 14.0625 0 21.476562-6.683594 27.4375-12.050782 5.445312-4.90625 9.378906-8.449218 18.070312-8.449218 8.691407 0 12.617188 3.542968 18.0625 8.449218 5.957031 5.367188 13.375 12.050782 27.441407 12.050782 14.070312 0 21.484374-6.679688 27.441406-12.050782 5.445312-4.90625 9.382812-8.449218 18.074218-8.449218 8.691407 0 12.65625 3.542968 18.097657 8.445312 4.226562 3.796875 8.925781 7.980469 15.925781 10.285156zm-208.359375-238.261719c1.816406-5.5 6.988281-9.1875 12.78125-9.109375h195.578125v211.5c-2.277344-1.636718-4.464844-3.402344-6.546875-5.28125-5.960937-5.363281-13.390625-12.042968-27.457031-12.042968s-21.492188 6.679687-27.453125 12.050781c-5.445313 4.90625-9.386719 8.449219-18.078125 8.449219s-12.628906-3.542969-18.078125-8.449219c-5.957031-5.371094-13.371094-12.050781-27.433594-12.050781s-21.488281 6.679687-27.445313 12.050781c-5.449218 4.90625-9.382812 8.449219-18.078124 8.449219-8.691407 0-12.578126-3.542969-18.023438-8.449219-4.882812-4.398438-10.40625-9.671875-20.40625-11.4375v-181.601563c-.015625-1.382812.203125-2.761718.640625-4.078125zm-23.988281 27.890625c-6.464844-.085937-11.65625-5.351562-11.652344-11.816406-.007812-3.167969 1.214844-6.214844 3.410156-8.5 2.152344-2.265625 5.117188-3.59375 8.242188-3.683594h9.347656v24zm271.347656 183h-25v-169h25zm0 0" fill="#083863"/></svg>