<svg height="444pt" viewBox="0 -24 444.00003 444" width="444pt" xmlns="http://www.w3.org/2000/svg"><path d="m437 215.898438v121.25c0 20.210937-16.386719 36.59375-36.601562 36.589843h-74.878907c-13.066406.003907-25.148437-6.960937-31.691406-18.269531v-.011719h8.582031c9.371094 0 16.96875-7.597656 16.96875-16.96875 0-.59375-.027344-1.183593-.089844-1.769531h43.671876v-120.820312l9.300781 2.660156c9.160156 2.609375 18.972656 1.644531 27.449219-2.703125 8.394531-4.300781 18.101562-5.285157 27.1875-2.757813zm0 0" fill="#00efd1"/><path d="m322.570312 121.65625c.96875-.078125 1.960938-.121094 2.949219-.121094h74.878907c.992187 0 1.980468.042969 2.953124.121094 19.003907 1.539062 33.648438 17.410156 33.648438 36.480469v57.761719l-10.101562-2.800782c-9.085938-2.527344-18.792969-1.542968-27.1875 2.757813-8.476563 4.347656-18.289063 5.3125-27.449219 2.703125l-9.300781-2.660156v-41.851563h-74.039063v-15.910156c0-19.070313 14.640625-34.941407 33.648437-36.480469zm0 0" fill="#fedb41"/><path d="m403.351562 95.285156v26.371094c-.972656-.078125-1.960937-.121094-2.953124-.121094h-74.878907c-.988281 0-1.980469.042969-2.949219.121094v-26.371094c.003907-7.433594 6.035157-13.460937 13.46875-13.457031h53.839844c7.4375-.003906 13.46875 6.023437 13.472656 13.457031zm0 0" fill="#00acea"/><path d="m393.25 6.597656v45.21875h-60.578125v-45.21875zm0 0" fill="#00acea"/><path d="m346.128906 51.816406h33.660156v30.011719h-33.660156zm0 0" fill="#00efd1"/><path d="m362.960938 215.898438v120.820312h-43.671876c-.902343-8.644531-8.1875-15.210938-16.878906-15.210938h16.96875c9.378906 0 16.980469-7.601562 16.980469-16.980468s-7.601563-16.980469-16.980469-16.980469h-25.457031c9.375 0 16.972656-7.601563 16.972656-16.976563s-7.597656-16.972656-16.972656-16.972656h-5v-79.550781h74.039063zm0 0" fill="#00acea"/><path d="m77.828125 240.867188c8.304687-18.105469 26.394531-29.710938 46.3125-29.710938h120.121094c1.910156 0 3.746093.757812 5.097656 2.109375 1.355469 1.351563 2.113281 3.1875 2.109375 5.101563 0 19.457031-15.773438 35.226562-35.230469 35.230468h77.683594c9.375 0 16.972656 7.597656 16.972656 16.972656s-7.597656 16.976563-16.972656 16.976563h25.457031c9.378906 0 16.980469 7.601563 16.980469 16.980469s-7.601563 16.980468-16.980469 16.980468h-16.96875c8.691406 0 15.976563 6.566407 16.878906 15.210938.0625.585938.089844 1.175781.089844 1.769531 0 9.371094-7.597656 16.96875-16.96875 16.96875h-28.910156v.761719c8.015625 2.492188 13.007812 10.46875 11.746094 18.769531-1.261719 8.300781-8.398438 14.433594-16.796875 14.429688h-137.6875c-16.542969.015625-32.285157-7.101563-43.203125-19.53125h-46.609375c-18.75 0-33.949219-15.199219-33.949219-33.949219v-61.121094c0-18.75 15.199219-33.949218 33.949219-33.949218zm0 0" fill="#fedb41"/><path d="m270.359375 110.347656c5.160156 10.628906 2.273437 23.410156-6.957031 30.789063-9.230469 7.375-22.335938 7.375-31.566406 0-9.226563-7.378907-12.117188-20.160157-6.957032-30.789063l22.742188-36.039062zm0 0" fill="#00acea"/><path d="m181.738281 147.496094c11.117188 0 20.128907 9.007812 20.132813 20.121094 0 11.113281-9.007813 20.128906-20.121094 20.128906-11.113281.003906-20.128906-9.003906-20.128906-20.117188-.003906-11.117187 9.003906-20.128906 20.117187-20.132812zm0 0" fill="#00acea"/><path d="m133.261719 70.648438c11.113281 0 20.121093 9.011718 20.117187 20.125 0 11.113281-9.007812 20.121093-20.121094 20.125-11.113281 0-20.125-9.007813-20.128906-20.121094 0-11.117188 9.011719-20.132813 20.132813-20.128906zm0 0" fill="#00acea"/><path d="m107.640625 174.027344c0 11.117187-9.011719 20.128906-20.128906 20.128906-11.121094 0-20.132813-9.011719-20.132813-20.128906 0-11.117188 9.011719-20.128906 20.132813-20.128906 11.117187 0 20.128906 9.011718 20.128906 20.128906zm0 0" fill="#00acea"/><g fill="#083863"><path d="m40.949219 377.007812h43.566406c12.324219 12.15625 28.933594 18.980469 46.246094 19h137.6875c6.335937.09375 12.445312-2.359374 16.953125-6.808593 4.511718-4.453125 7.042968-10.527344 7.027344-16.863281.003906-3.097657-.617188-6.164063-1.820313-9.015626 8.226563 11.035157 21.148437 17.582032 34.910156 17.6875h74.878907c24.042968 0 43.601562-19.824218 43.601562-43.859374v-179.011719c.023438-20.371094-14.113281-38.019531-34-42.445313v-20.398437c.066406-5.375-2.027344-10.546875-5.808594-14.359375-3.785156-3.8125-8.941406-5.949219-14.3125-5.925782h-2.878906v-16h6.25c1.851562-.054687 3.601562-.84375 4.867188-2.191406 1.269531-1.351562 1.945312-3.148437 1.882812-5v-45.21875c.039062-1.789062-.664062-3.511718-1.941406-4.761718-1.28125-1.25-3.023438-1.914063-4.808594-1.8281255h-60.578125c-1.78125-.0820313-3.511719.5859375-4.777344 1.8359375s-1.953125 2.972656-1.894531 4.753906v16.671875c-6-4.074219-12.433594-6.5625-19.789062-6.6875l-52.117188-.574219h-.074219c-3.847656.019532-6.960937 3.132813-6.980469 6.980469-.019531 3.847657 3.058594 6.996094 6.90625 7.054688l51.90625.558593c10.996094.195313 19.761719 9.253907 19.601563 20.25-.011719.800782.105469 1.601563.34375 2.367188.617187 3.320312 3.496094 5.746094 6.875 5.789062h6.328125v16h-2.960938c-5.363281-.019531-10.507812 2.117188-14.277343 5.933594-3.769531 3.8125-5.84375 8.984375-5.761719 14.34375v20.40625c-19.882812 4.429688-34.019531 22.074219-34 42.445313v88.871093h-34.382812c6.742187-8 10.851562-17.589843 10.851562-28.4375.015625-3.820312-1.480469-7.496093-4.160156-10.226562-2.640625-2.722656-6.257813-4.28125-10.046875-4.335938h-120.121094c-21.039063 0-40.425781 12-50.59375 30h-32.597656c-22.578125-.042968-40.9140628 18.230469-40.949219 40.808594v61.121094c.015625 22.628906 18.320312 40.988281 40.949219 41.070312zm359.449219-10h-74.878907c-5.949219-.007812-11.757812-1.804687-16.667969-5.15625 8.449219-2.359374 15.019532-9.84375 16.949219-17.84375h37.160157c3.929687-.132812 7.042968-3.359374 7.039062-7.289062v-111.539062l.347656.105468c10.867188 3.101563 22.503906 1.957032 32.558594-3.199218 6.828125-3.511719 14.730469-4.3125 22.125-2.246094l4.96875 1.378906v115.929688c0 16.386718-13.210938 29.714843-29.601562 29.859374zm-64.058594-79.210937c-4.511719-4.445313-10.625-6.894531-16.960938-6.789063h-3.660156c1.445312-3.207031 2.1875-6.683593 2.179688-10.199218.03125-6.394532-2.480469-12.539063-6.988282-17.078125-3.929687-4.109375-9.238281-6.621094-14.910156-7.046875v-65.675782h60v149h-31.292969c-.136719-.636718-.382812-1.242187-.71875-1.800781 11.238281-2.199219 19.351563-12.039062 19.371094-23.488281.019531-6.351562-2.507813-12.449219-7.019531-16.921875zm3.660156-273.789063h46v31h-46zm13 45h20v16h-20zm-16.960938 30h53.839844c1.660156-.027343 3.257813.632813 4.414063 1.820313 1.160156 1.1875 1.777343 2.800781 1.707031 4.457031v19.722656h-66v-19.722656c-.085938-1.648437.511719-3.257812 1.65625-4.449218 1.144531-1.191407 2.734375-1.851563 4.382812-1.828126zm-12.851562 39.859376c.773438-.0625 1.53125.140624 2.332031.140624h74.878907c.800781 0 1.601562-.199218 2.394531-.136718 15.300781 1.195312 27.128906 13.917968 27.207031 29.265625v48.554687l-1.222656-.335937c-10.785156-3.011719-22.308594-1.84375-32.265625 3.277343-6.898438 3.5-14.859375 4.28125-22.308594 2.195313l-4.199219-1.210937v-36.570313c-.015625-3.882813-3.15625-7.023437-7.039062-7.039063h-66.964844v-8.871093c.0625-15.34375 11.886719-28.078125 27.1875-29.269531zm-309.1875 145.949218c.015625-7.128906 2.863281-13.960937 7.917969-18.992187 5.054687-5.027344 11.902343-7.839844 19.03125-7.816407h27.035156c-1.21875 4.617188-1.8125 9.375-1.773437 14.148438.007812 18.6875 7.441406 36.605469 20.660156 49.816406l3.457031 3.453125c2.738281 2.734375 7.171875 2.730469 9.90625-.003906s2.730469-7.171875-.003906-9.902344l-3.460938-3.460937c-10.597656-10.601563-16.554687-24.980469-16.558593-39.972656-.046876-24.304688 19.625-44.042969 43.929687-44.078126h120.121094c.035156 0 .089843.074219.148437.132813s.058594.355469.058594.394531c.003906 15.628906-12.597656 28.339844-28.230469 28.472656h-48.796875c-1.835937-.046874-3.613281.648438-4.929687 1.925782-1.320313 1.28125-2.066407 3.039062-2.070313 4.875-.027344 13.449218-10.960937 24.332031-24.410156 24.296875-1.851562-.011719-3.632812.714843-4.945312 2.019531s-2.054688 3.078125-2.054688 4.929688c-.015625 3.902343 3.097656 7.09375 7 7.179687 18.789062.003906 34.46875-14.226563 37.769531-31.226563h120.121094c2.617187-.082031 5.160156.894532 7.046875 2.714844 1.886719 1.917969 2.9375 4.5 2.929688 7.1875 0 5.53125-4.449219 10.03125-9.976563 10.097656h-101.023437c-3.863282 0-7 3.136719-7 7 0 3.867188 3.136718 7 7 7h126.480468c2.621094-.09375 5.167969.878907 7.0625 2.691407 1.878906 1.921875 2.929688 4.507812 2.917969 7.199219 0 5.53125-4.445313 10.039062-9.980469 10.109374h-126.480468c-3.863282 0-7 3.132813-7 7 0 3.863282 3.136718 7 7 7h109.511718c5.046875-.222656 9.394532 3.527344 9.917969 8.554688.035156.253906.050781.507812.050781.761719-.011718 2.613281-1.078125 5.113281-2.953125 6.933593-1.875 1.820313-4.402343 2.8125-7.015625 2.75h-29.710937c-.511719 0-1.023438.058594-1.523438.171876-.90625-.109376-1.816406-.167969-2.726562-.171876h-58.570313c-3.863281 0-7 3.132813-7 7 0 3.863282 3.136719 7 7 7h58.570313c1.019531.074219 2.019531.300782 2.972656.667969 4.191406 1.339844 7.03125 5.246094 7.007813 9.648438.003906 2.601562-1.046876 5.089843-2.910157 6.902343-1.886719 1.835938-4.433593 2.839844-7.070312 2.78125h-137.6875c-23.425781.140626-43.84375-15.914062-49.226563-38.710937-.421875-1.804687-1.546875-3.367187-3.125-4.335937-1.578125-.972657-3.480468-1.273438-5.28125-.84375-3.773437.917968-6.105468 4.707031-5.230468 8.488281 1.3125 5.734375 3.421874 11.253906 6.261718 16.402343h-33.210937c-14.898438-.074218-26.941407-12.171874-26.949219-27.070312zm0 0"/><path d="m218.585938 107.285156c-6.007813 12.375-3.519532 27.195313 6.203124 36.921875v.003907c11.144532 11.140624 28.703126 12.605468 41.542969 3.46875 12.835938-9.140626 17.199219-26.210938 10.320313-40.386719-.113282-.234375-.238282-.460938-.378906-.683594l-22.738282-36.039063c-1.28125-2.03125-3.515625-3.265624-5.921875-3.265624-2.402343 0-4.636719 1.234374-5.917969 3.265624l-22.734374 36.035157c-.140626.222656-.265626.449219-.375.679687zm12.4375 6.445313 16.597656-26.304688 16.597656 26.296875c3.542969 7.675782 1.359375 16.777344-5.277344 22.011719-6.640625 5.234375-16 5.234375-22.636718 0-6.636719-5.234375-8.820313-14.335937-5.277344-22.011719zm0 0"/><path d="m87.511719 201.15625c14.980469 0 27.128906-12.144531 27.128906-27.128906s-12.148437-27.128906-27.128906-27.128906c-14.984375 0-27.132813 12.144531-27.132813 27.128906.019532 14.976562 12.15625 27.113281 27.132813 27.128906zm0-40.257812c7.25 0 13.128906 5.878906 13.128906 13.128906s-5.878906 13.128906-13.128906 13.128906c-7.253907 0-13.132813-5.878906-13.132813-13.128906.007813-7.25 5.882813-13.121094 13.132813-13.128906zm0 0"/><path d="m154.621094 167.628906c0 14.980469 12.148437 27.121094 27.128906 27.117188 14.980469 0 27.121094-12.148438 27.121094-27.128906-.003906-14.980469-12.148438-27.121094-27.132813-27.121094-14.972656.019531-27.105469 12.15625-27.117187 27.132812zm40.25 0c-.003906 7.246094-5.878906 13.117188-13.128906 13.117188-7.246094 0-13.121094-5.875-13.121094-13.121094-.003906-7.25 5.871094-13.125 13.117187-13.128906 7.25.007812 13.125 5.882812 13.132813 13.132812zm0 0"/><path d="m133.261719 117.898438c14.980469-.003907 27.121093-12.152344 27.117187-27.132813 0-14.980469-12.148437-27.121094-27.128906-27.117187-14.980469 0-27.121094 12.148437-27.121094 27.128906.019532 14.972656 12.15625 27.109375 27.132813 27.121094zm0-40.25c7.246093 0 13.121093 5.878906 13.117187 13.125 0 7.246093-5.875 13.121093-13.121094 13.125-7.25 0-13.125-5.875-13.128906-13.121094.007813-7.25 5.882813-13.125 13.132813-13.128906zm0 0"/></g></svg>