<svg height="468pt" viewBox="0 -12 468.34507 468" width="468pt" xmlns="http://www.w3.org/2000/svg"><path d="m440.910156 153.03125c5.476563 5.488281 12.707032 8.875 20.429688 9.570312-15.929688 1.449219-28.550782 14.070313-30 30-1.449219-15.929687-14.070313-28.550781-30-30 15.929687-1.449218 28.550781-14.070312 30-30 .691406 7.722657 4.078125 14.957032 9.570312 20.429688zm0 0" fill="#fedb41"/><path d="m416.011719 57.683594c4.082031 8.40625 1.796875 18.523437-5.503907 24.359375-7.300781 5.835937-17.671874 5.835937-24.976562 0-7.300781-5.835938-9.585938-15.953125-5.5-24.359375l17.988281-28.511719zm0 0" fill="#00acea"/><path d="m410.910156 351.03125c5.476563 5.488281 12.707032 8.875 20.429688 9.570312-15.929688 1.449219-28.550782 14.070313-30 30-1.449219-15.929687-14.070313-28.550781-30-30 15.929687-1.449218 28.550781-14.070312 30-30 .691406 7.722657 4.078125 14.957032 9.570312 20.429688zm0 0" fill="#fedb41"/><path d="m268.789062 227.792969 60.191407-49.082031c4.699219-3.851563 11.101562-4.898438 16.78125-2.742188 5.683593 2.152344 9.78125 7.179688 10.746093 13.175781.964844 6-1.347656 12.058594-6.066406 15.886719l19.738282-16.097656c7.273437-5.867188 17.917968-4.753906 23.820312 2.488281s4.84375 17.890625-2.371094 23.832031l-13.148437 10.726563c7.269531-5.882813 17.925781-4.78125 23.835937 2.464843 5.910156 7.25 4.84375 17.914063-2.386718 23.847657l-23.019532 18.777343.230469.472657c7.761719-3.636719 17.015625-.917969 21.578125 6.335937 4.558594 7.257813 2.996094 16.777344-3.648438 22.191406l-51.96875 42.371094-26.980468 22-27.761719 22.628906c-12.679687 10.367188-29.183594 14.820313-45.359375 12.242188l-.398438-.121094-36.179687 29.5c-14.535156 11.855469-35.925781 9.6875-47.78125-4.847656l-38.621094-47.371094c-11.847656-14.539062-9.671875-35.925781 4.859375-47.78125l6.839844-5.578125 15.132812-12.332031 6.457032-6c-4.71875-19.117188 2.007812-39.242188 17.273437-51.679688l81.796875-66.691406 11.300782-9.21875c3.085937-2.511718 7.621093-2.050781 10.140624 1.03125 12.296876 15.078125 10.046876 37.269532-5.03125 49.570313zm0 0" fill="#00efd1"/><path d="m342.511719 100.132812c6.117187 12.613282 2.6875 27.78125-8.261719 36.53125-10.953125 8.753907-26.507812 8.753907-37.457031 0-10.953125-8.75-14.382813-23.917968-8.261719-36.53125l26.988281-42.78125zm0 0" fill="#00acea"/><path d="m263.011719 35.683594c4.082031 8.40625 1.796875 18.523437-5.503907 24.359375-7.300781 5.835937-17.671874 5.835937-24.976562 0-7.300781-5.835938-9.585938-15.953125-5.5-24.359375l17.988281-28.511719zm0 0" fill="#00acea"/><path d="m77.5 173.183594c8.296875-18.105469 26.386719-29.714844 46.300781-29.710938h120.121094c1.910156-.003906 3.746094.753906 5.101563 2.109375 1.351562 1.351563 2.109374 3.1875 2.105468 5.101563.003906 19.457031-15.769531 35.234375-35.230468 35.238281h36.082031l.398437.488281-81.796875 66.691406c-15.265625 12.4375-21.992187 32.5625-17.273437 51.679688l-6.457032 6-15.132812 12.332031-.296875-.371093c-17.351563 0-33.3125-8.089844-44.152344-20.53125h-46.660156c-18.75 0-33.949219-15.199219-33.949219-33.949219v-61.121094c0-18.75 15.199219-33.953125 33.949219-33.957031zm0 0" fill="#00acea"/><path d="m171.910156 70.03125c5.476563 5.488281 12.707032 8.875 20.429688 9.570312-15.929688 1.449219-28.550782 14.070313-30 30-1.449219-15.929687-14.070313-28.550781-30-30 15.929687-1.449218 28.550781-14.070312 30-30 .691406 7.722657 4.078125 14.957032 9.570312 20.429688zm0 0" fill="#fedb41"/><g fill="#083863"><path d="m115.773438 327.519531c-13.367188 15.078125-13.863282 37.609375-1.179688 53.261719l38.621094 47.425781c6.84375 8.449219 16.78125 13.8125 27.601562 14.890625 1.398438.148438 2.808594.222656 4.21875.230469 9.410156.007813 18.535156-3.25 25.8125-9.21875l33.753906-27.519531c17.304688 1.988281 34.679688-3.09375 48.183594-14.09375l106.710938-87c6.324218-5.160156 9.589844-13.183594 8.667968-21.292969-.921874-8.109375-5.902343-15.195313-13.21875-18.808594l9.40625-7.671875c6.390626-5.21875 9.652344-13.351562 8.640626-21.535156-1.015626-8.1875-6.164063-15.277344-13.632813-18.777344 7.882813-9.496094 7.265625-23.425781-1.421875-32.191406s-22.613281-9.503906-32.179688-1.707031l-2.847656 2.320312c-2.054687-7.898437-7.988281-14.210937-15.75-16.75-7.757812-2.535156-16.273437-.949219-22.601562 4.210938l-35.863282 29.242187c.03125-.683594.058594-1.371094.058594-2.058594-.011718-9.71875-3.367187-19.136718-9.5-26.671874-4.945312-6.089844-13.882812-7.035157-19.992187-2.117188l-8.78125 7.066406h-3.207031c6.742187-7 10.855468-17.308594 10.855468-28.15625.003906-3.714844-1.496094-7.277344-4.160156-9.867187-2.679688-2.621094-6.300781-4.058594-10.046875-3.976563h-120.121094c-21.046875 0-40.429687 11-50.585937 29h-32.605469c-22.578125 0-40.609375 18.804688-40.609375 41.386719v61.121094c-.046875 10.773437 4.222656 21.117187 11.851562 28.726562 7.628907 7.605469 17.984376 11.84375 28.757813 11.765625h43.589844c8.765625 10 19.734375 15.75 31.574219 18.765625zm152.320312-144.898437c.089844-.074219.222656-.066406.300781.019531 9.855469 12.082031 8.050781 29.871094-4.03125 39.726563l-.09375.078124-31.191406 25.425782c-2.996094 2.445312-3.445313 6.851562-1.003906 9.851562 2.441406 2.996094 6.851562 3.445313 9.847656 1l31.28125-25.5.105469-.085937 60.101562-49c1.773438-1.460938 3.996094-2.253907 6.292969-2.246094 4.222656-.003906 7.992187 2.652344 9.410156 6.628906 1.421875 3.976563.179688 8.417969-3.09375 11.085938l-78.289062 63.832031c-2.976563 2.449219-3.414063 6.839844-.976563 9.828125 2.433594 2.988281 6.824219 3.445313 9.824219 1.023437l78.28125-63.828124h.007813l19.738281-16.097657c1.773437-1.457031 3.996093-2.25 6.289062-2.246093 4.222657-.003907 7.992188 2.648437 9.414063 6.628906 1.417968 3.980468.175781 8.421875-3.101563 11.089844l-13.148437 10.730468-19.742188 16.085938-65.128906 53.109375c-1.960938 1.574219-2.925781 4.078125-2.53125 6.558593.394531 2.484376 2.089844 4.5625 4.445312 5.449219 2.351563.886719 5 .445313 6.933594-1.160156l65.128906-53.109375 19.742188-16.089844c2.761719-2.273437 6.527344-2.890625 9.867188-1.628906 3.34375 1.265625 5.753906 4.226562 6.320312 7.753906.5625 3.53125-.804688 7.09375-3.585938 9.335938l-23.019531 18.78125c-.386719.316406-.738281.671875-1.046875 1.058594-.777344.496093-1.527344 1.035156-2.242187 1.621093l-45.398438 37.007813c-3 2.441406-3.445312 6.851562-1.003906 9.847656 2.441406 3 6.851563 3.449219 9.847656 1.003906l45.410157-37.019531c.632812-.515625 1.328124-.949219 2.070312-1.292969 4.5625-2.132812 9.996094-.527344 12.671875 3.738282 2.675781 4.265624 1.753906 9.855468-2.148437 13.035156l-106.710938 87c-11.027344 8.984375-25.328125 12.910156-39.398438 10.820312-2.207031-.640625-4.585937-.152344-6.363281 1.296875l-36.175781 29.5c-11.535156 9.410157-28.519531 7.6875-37.929688-3.851562l-38.625-47.367188c-9.386718-11.546875-7.660156-28.511719 3.859376-37.933593l21.96875-17.90625c.117187-.097657.230468-.195313.339843-.300782l6.460938-6c1.863281-1.730468 2.640625-4.332031 2.03125-6.800781-4.011719-16.488281 1.78125-33.816406 14.902343-44.578125zm-254.09375 85.640625v-61.121094c0-14.867187 11.75-27.386719 26.609375-27.386719h27.035156c-1.15625 4.726563-1.75 9.574219-1.773437 14.441406-.015625 18.757813 7.414062 36.753907 20.660156 50.035157l3.460938 3.484375c2.726562 2.734375 7.152343 2.738281 9.886718.011718 2.734375-2.726562 2.738282-7.15625.011719-9.886718l-3.460937-3.460938c-10.605469-10.597656-16.5625-24.972656-16.558594-39.96875-.019532-6.273437 1.34375-12.480468 3.992187-18.171875 7.195313-15.558593 22.792969-25.511719 39.9375-25.484375h120.121094c.035156 0 .089844-.140625.128906-.101562.078125.078125.078125-.015625.078125.011718-.011718 7.472657-2.992187 14.628907-8.289062 19.898438s-12.46875 8.214844-19.941406 8.191406h-48.796876c-3.882812.039063-7.007812 3.199219-7 7.082032-.015624 13.480468-10.929687 24.410156-24.410156 24.445312-3.871094.007812-7.003906 3.148438-7 7.019531 0 1.847657.742188 3.621094 2.058594 4.921875 1.3125 1.300782 3.089844 2.019532 4.941406 2.003906 18.539063.003907 34.429688-13.238281 37.769532-31.472656h59.851562l-24.523438 20.019532c-.261718-.023438-.519531-.027344-.777343-.019532h-15.453125c-3.710938.023438-6.769532 2.925782-6.984375 6.632813-.21875 3.707031 2.476562 6.945312 6.164062 7.402343l-25.582031 20.871094c-16.128906 13.238282-23.949219 34.089844-20.5 54.667969l-3.40625 3.167969-12.503906 10.199218c-14.371094-.613281-27.84375-7.160156-37.203125-18.082031-5.503907-6.265625-9.398438-13.78125-11.34375-21.890625-.878907-3.765625-4.640625-6.105468-8.40625-5.230468-1.789063.371093-3.355469 1.445312-4.339844 2.988281-.984375 1.539062-1.304687 3.410156-.886719 5.191406 1.3125 5.636719 3.4375 11.050781 6.300782 16.082031h-33.257813c-7.0625.082032-13.859375-2.679687-18.863281-7.660156-5.007813-4.984375-7.796875-11.769531-7.746094-18.832031zm0 0"/><path d="m348.429688 96.398438-26.988282-42.78125c-1.285156-2.035157-3.519531-3.265626-5.921875-3.265626-2.402343 0-4.636719 1.230469-5.917969 3.265626l-26.992187 42.78125c-.136719.21875-.265625.445312-.378906.675781-7.546875 15.558593-3.316407 34.265625 10.191406 45.058593 13.507813 10.792969 32.6875 10.792969 46.195313 0 13.507812-10.792968 17.738281-29.5 10.191406-45.058593-.113282-.230469-.238282-.457031-.378906-.675781zm-16.652344 33.097656c-8.976563 8.980468-23.535156 8.980468-32.511719 0-6.832031-6.835938-8.667969-17.210938-4.589844-25.976563l20.847657-33.042969 20.847656 33.042969c4.074218 8.765625 2.238281 19.140625-4.59375 25.976563zm0 0"/><path d="m398.019531 22.171875c-2.402343 0-4.636719 1.234375-5.917969 3.265625l-17.992187 28.507812c-.136719.21875-.265625.449219-.378906.683594-5.511719 11.347656-2.425781 25.003906 7.433593 32.882813 9.855469 7.878906 23.855469 7.878906 33.714844 0 9.855469-7.878907 12.941406-21.535157 7.429688-32.882813-.113282-.234375-.238282-.464844-.378906-.683594l-17.988282-28.507812c-1.28125-2.03125-3.519531-3.265625-5.921875-3.265625zm9.183594 53.445313c-5.070313 5.074218-13.292969 5.074218-18.367187 0l-.007813-.007813c-3.824219-3.828125-4.878906-9.625-2.648437-14.558594l11.839843-18.761719 11.839844 18.761719c2.230469 4.9375 1.171875 10.738281-2.660156 14.566407zm0 0"/><path d="m250.941406 3.4375c-1.285156-2.03125-3.519531-3.265625-5.921875-3.265625-2.402343 0-4.636719 1.234375-5.917969 3.265625l-17.992187 28.507812c-.136719.21875-.265625.449219-.378906.683594-5.511719 11.347656-2.425781 25.003906 7.433593 32.882813 9.855469 7.878906 23.855469 7.878906 33.714844 0 9.855469-7.878907 12.941406-21.535157 7.429688-32.882813-.113282-.234375-.238282-.464844-.378906-.683594zm3.257813 50.179688c-5.070313 5.074218-13.292969 5.074218-18.367188 0l-.007812-.007813c-3.820313-3.828125-4.875-9.625-2.644531-14.558594l11.839843-18.761719 11.839844 18.761719c2.230469 4.9375 1.171875 10.738281-2.660156 14.566407zm0 0"/><path d="m461.96875 155.628906c-12.558594-1.144531-22.511719-11.09375-23.65625-23.65625-.324219-3.609375-3.347656-6.375-6.972656-6.375s-6.648438 2.765625-6.972656 6.375c-1.144532 12.5625-11.09375 22.511719-23.65625 23.65625-3.605469.328125-6.367188 3.347656-6.367188 6.96875-.003906 3.617188 2.753906 6.644532 6.355469 6.972656 12.59375 1.144532 22.5625 11.140626 23.667969 23.738282.320312 3.621094 3.335937 6.40625 6.972656 6.445312 3.632812-.035156 6.648437-2.820312 6.96875-6.441406 1.140625-12.574219 11.09375-22.542969 23.664062-23.699219 3.609375-.335937 6.371094-3.367187 6.371094-6.992187s-2.761719-6.652344-6.371094-6.988282zm-30.632812 17.128906c-2.742188-3.972656-6.183594-7.410156-10.15625-10.152343 3.96875-2.746094 7.410156-6.1875 10.160156-10.152344 2.75 3.964844 6.191406 7.402344 10.160156 10.144531-3.96875 2.75-7.410156 6.191406-10.164062 10.160156zm0 0"/><path d="m431.96875 353.628906c-12.558594-1.144531-22.511719-11.09375-23.65625-23.65625-.324219-3.609375-3.347656-6.375-6.972656-6.375s-6.648438 2.765625-6.972656 6.375c-1.144532 12.5625-11.09375 22.511719-23.65625 23.65625-3.605469.328125-6.367188 3.347656-6.367188 6.96875-.003906 3.617188 2.753906 6.644532 6.355469 6.972656 12.59375 1.144532 22.5625 11.140626 23.667969 23.738282.320312 3.621094 3.335937 6.40625 6.972656 6.445312 3.632812-.035156 6.648437-2.820312 6.96875-6.441406 1.140625-12.574219 11.09375-22.542969 23.664062-23.699219 3.609375-.335937 6.371094-3.367187 6.371094-6.992187s-2.761719-6.652344-6.371094-6.988282zm-30.632812 17.128906c-2.742188-3.972656-6.183594-7.410156-10.15625-10.152343 3.96875-2.746094 7.410156-6.1875 10.160156-10.152344 2.75 3.964844 6.191406 7.402344 10.160156 10.144531-3.96875 2.75-7.410156 6.191406-10.164062 10.160156zm0 0"/><path d="m176.855469 65.078125c-4.320313-4.320313-6.992188-10.019531-7.542969-16.105469-.324219-3.609375-3.347656-6.375-6.972656-6.375s-6.648438 2.765625-6.972656 6.375c-1.144532 12.5625-11.09375 22.511719-23.65625 23.65625-3.605469.328125-6.367188 3.347656-6.367188 6.96875-.003906 3.617188 2.753906 6.644532 6.355469 6.972656 12.59375 1.144532 22.5625 11.140626 23.667969 23.738282.320312 3.621094 3.335937 6.40625 6.972656 6.445312 3.632812-.035156 6.648437-2.820312 6.96875-6.441406 1.140625-12.574219 11.09375-22.542969 23.664062-23.699219 3.609375-.332031 6.375-3.363281 6.375-6.988281s-2.765625-6.652344-6.375-6.984375c-6.089844-.558594-11.792968-3.234375-16.117187-7.5625zm-14.519531 24.679687c-2.742188-3.972656-6.183594-7.410156-10.15625-10.152343 3.96875-2.746094 7.410156-6.1875 10.160156-10.152344 2.75 3.964844 6.191406 7.402344 10.160156 10.144531-3.96875 2.75-7.410156 6.191406-10.164062 10.160156zm0 0"/></g></svg>