<svg height="482pt" viewBox="-94 0 482 482.00302" width="482pt" xmlns="http://www.w3.org/2000/svg"><path d="m182.152344 282.914062.371094-.089843v-21.511719c0-6.789062 5.5-12.289062 12.289062-12.289062s12.289062 5.5 12.289062 12.289062v-12.289062c.191407-6.65625 5.640626-11.949219 12.296876-11.949219s12.105468 5.292969 12.292968 11.949219v18.4375c0-6.785157 5.503906-12.289063 12.292969-12.289063 6.785156 0 12.289063 5.503906 12.289063 12.289063v56.230468c.003906-14.085937 11.421874-25.5 25.507812-25.5 2.882812.003906 5.21875 2.339844 5.222656 5.222656v86.957032c.003906 14.421875-8.402344 27.523437-21.511718 33.53125v26.699218c0 13.578126-11.003907 24.585938-24.578126 24.589844h-44.25c-13.582031 0-24.589843-11.007812-24.589843-24.589844v-33.75c-8.996094-7.902343-14.144531-19.296874-14.132813-31.269531v-99.6875c0-6.210937 4.628906-11.441406 10.789063-12.199219 6.160156-.761718 11.917969 3.195313 13.421875 9.21875zm0 0" fill="#00efd1"/><path d="m145.382812 103.183594h-44.679687c-.148437 0-.300781 0-.449219-.011719-13.878906-.246094-25-11.570313-25-25.449219v-70.910156h140v70.910156c-.003906 13.878906-11.121094 25.203125-25 25.449219-.152344.011719-.300781.011719-.449218.011719zm0 0" fill="#00acea"/><path d="m190.253906 103.171875v28.128906c-.003906 8.285157-6.71875 15-15 15h-4.75v-43.117187h19.300782c.148437 0 .296874 0 .449218-.011719zm0 0" fill="#fedb41"/><path d="m170.503906 146.203125v.097656h-25.121094v-43.117187h25.121094zm0 0" fill="#f4b844"/><path d="m164.003906 146.300781v27.5h-37.5v-27.5zm0 0" fill="#00acea"/><path d="m158.191406 218.582031c3.695313 6.300781 2.3125 14.347657-3.269531 19.054688-5.585937 4.710937-13.75 4.710937-19.335937 0-5.585938-4.707031-6.96875-12.753907-3.273438-19.054688l12.941406-22.097656zm0 0" fill="#00acea"/><path d="m145.382812 146.203125v.097656h-25.128906v-43.117187h25.128906zm0 0" fill="#fedb41"/><path d="m37.734375 323.691406v-56.230468c0-6.785157 5.5-12.289063 12.289063-12.289063 6.785156 0 12.289062 5.503906 12.289062 12.289063v-18.4375c.191406-6.65625 5.640625-11.949219 12.296875-11.949219s12.105469 5.292969 12.292969 11.949219v12.289062c0-6.789062 5.503906-12.289062 12.289062-12.289062 6.789063 0 12.292969 5.5 12.292969 12.289062v21.511719h.386719c1.546875-5.992188 7.308594-9.902344 13.449218-9.121094 6.140626.777344 10.742188 6 10.742188 12.191406v99.6875c.011719 11.972657-5.136719 23.367188-14.128906 31.269531v33.75c0 13.582032-11.011719 24.589844-24.589844 24.589844h-44.25c-13.578125-.003906-24.582031-11.011718-24.582031-24.589844v-26.699218c-13.109375-6.007813-21.511719-19.109375-21.507813-33.53125v-86.957032c0-2.882812 2.335938-5.21875 5.21875-5.222656 14.085938 0 25.507813 11.414063 25.511719 25.5zm0 0" fill="#00efd1"/><path d="m120.253906 146.203125v.097656h-5c-8.285156 0-15-6.714843-15-15v-28.128906c.148438.011719.300782.011719.449219.011719h19.550781zm0 0" fill="#f4b844"/><g fill="#083863"><path d="m123.53125 266.601562c-1.867188.027344-3.722656.277344-5.527344.75v-6.039062c.046875-5.089844-1.9375-9.988281-5.511718-13.609375-3.578126-3.621094-8.449219-5.664063-13.539063-5.679687-2.085937.003906-4.152344.359374-6.121094 1.046874-2.902343-8.996093-11.917969-14.550781-21.261719-13.09375-9.34375 1.453126-16.242187 9.488282-16.269531 18.941407-1.71875-.496094-3.496093-.75-5.285156-.753907-5.078125-.011718-9.945313 2.023438-13.5 5.648438-3.59375 3.628906-5.578125 8.546875-5.511719 13.648438v29.542968c-6-3.65625-11.773437-5.804687-18.648437-5.804687-6.769531-.011719-12.2851565 5.441406-12.35156275 12.214843v86.957032c-.12109425 15.660156 8.31640575 30.136718 21.99999975 37.75v22.480468c-.097656 8.304688 3.136719 16.300782 8.980469 22.199219 5.84375 5.902344 13.804687 9.214844 22.109375 9.203125h44.25c17.414062.074219 31.589844-13.984375 31.660156-31.402344v-30.75c9.003906-9.128906 14.035156-21.445312 14-34.269531v-99.6875c-.085937-10.691406-8.78125-19.304687-19.472656-19.292969zm5.472656 118.980469c.011719 16.089844-11.046875 30.074219-26.710937 33.765625-3.464844.804688-5.777344 4.085938-5.367188 7.621094.410157 3.539062 3.410157 6.203125 6.96875 6.195312.550781 0 1.097657-.0625 1.636719-.183593 3.261719-.765625 6.4375-1.867188 9.472656-3.289063v20.910156c-.027344 4.652344-1.90625 9.101563-5.21875 12.367188-3.316406 3.261719-7.792968 5.074219-12.441406 5.035156h-44.25c-4.59375.015625-8.996094-1.820312-12.214844-5.097656s-4.976562-7.710938-4.875-12.304688v-17.160156c2.667969.574219 5.394532.847656 8.125.8125 6.921875.003906 13.773438-1.367187 20.160156-4.035156 6.410157-2.664062 12.230469-6.566406 17.125-11.488281l2.480469-2.507813c2.734375-2.742187 2.726563-7.179687-.011719-9.914062-2.742187-2.734375-7.179687-2.726563-9.914062.011718l-2.503906 2.5c-7.316406 7.316407-17.234375 11.429688-27.582032 11.425782-4.296874.011718-8.546874-.914063-12.449218-2.710938-10.605469-4.886718-17.40625-15.484375-17.429688-27.164062v-85.097656c9.535156.898437 16.863282 8.835937 17 18.414062v35.339844c-.03125 1.84375.675782 3.621094 1.96875 4.9375 1.289063 1.3125 3.050782 2.058594 4.894532 2.0625 8.675781.015625 15.695312 7.066406 15.671874 15.742187-.007812 1.851563.722657 3.632813 2.03125 4.945313 1.304688 1.3125 3.082032 2.050781 4.933594 2.054687 3.890625.007813 7.066406-3.113281 7.121094-7 .019531-13.695312-9.324219-25.632812-22.621094-28.90625v-85.398437c-.054687-1.390625.453125-2.742188 1.414063-3.75.902343-.988282 2.179687-1.550782 3.515625-1.550782 1.382812.011719 2.699218.582032 3.652344 1.582032.957031.996094 1.464843 2.339844 1.417968 3.71875v73.128906c0 3.867188 3.132813 7 7 7 3.863282 0 7-3.132812 7-7v-91.570312c.054688-1.425782.667969-2.769532 1.707032-3.742188 1.039062-1 2.421874-1.554688 3.863281-1.546875 2.949219-.011719 5.363281 2.339844 5.429687 5.289063v91.570312c0 3.863281 3.132813 7 7 7 3.863282 0 7-3.136719 7-7v-79.28125c-.023437-1.398438.515625-2.746094 1.5-3.738281.882813-.988281 2.148438-1.550781 3.472656-1.550781 1.375.011718 2.6875.582031 3.636719 1.578124.945313 1 1.449219 2.335938 1.390625 3.710938v21.511719c0 .386719.035156.773437.097656 1.15625-.0625.632812-.097656 1.269531-.097656 1.914062v42.40625c0 3.867188 3.132813 7 7 7 3.863282 0 7-3.132812 7-7v-42.40625c.078125-.460937.21875-.90625.410156-1.332031.65625-2.347656 2.800782-3.96875 5.238282-3.960938 2.933594-.003906 5.320312 2.359376 5.351562 5.292969zm0 0"/><path d="m281.648438 291.191406c-6.875 0-12.644532 2.152344-18.644532 5.8125v-29.542968c.082032-6.03125-2.699218-11.75-7.5-15.40625-4.804687-3.65625-11.054687-4.820313-16.847656-3.136719-.042969-9.464844-6.957031-17.5-16.3125-18.957031-9.355469-1.453126-18.378906 4.101562-21.296875 13.109374-1.921875-.6875-3.953125-1.042968-6-1.046874-5.085937.015624-9.960937 2.058593-13.535156 5.679687s-5.558594 8.519531-5.507813 13.609375v6.039062c-1.808594-.472656-3.664062-.726562-5.53125-.75-10.6875-.011718-19.382812 8.601563-19.46875 19.292969v99.6875c-.039062 12.824219 4.992188 25.140625 14 34.269531v30.75c.066406 17.417969 14.242188 31.476563 31.660156 31.402344h44.25c8.300782.011719 16.265626-3.300781 22.105469-9.203125 5.84375-5.898437 9.078125-13.894531 8.984375-22.199219v-22.480468c13.683594-7.613282 22.121094-22.089844 22-37.75v-86.957032c-.011718-3.253906-1.324218-6.367187-3.648437-8.640624-2.3125-2.300782-5.445313-3.589844-8.707031-3.582032zm-1.644532 99.179688c-.023437 11.679687-6.824218 22.28125-17.433594 27.171875-3.902343 1.792969-8.148437 2.71875-12.449218 2.710937-10.339844 0-20.257813-4.109375-27.566406-11.421875l-2.511719-2.507812c-2.734375-2.734375-7.164063-2.734375-9.898438 0-2.734375 2.730469-2.734375 7.164062 0 9.898437l2.515625 2.515625c4.917969 4.921875 10.757813 8.824219 17.1875 11.484375 6.339844 2.667969 13.152344 4.039063 20.03125 4.03125 2.730469.035156 5.457032-.238281 8.125-.8125v17.160156c.101563 4.59375-1.660156 9.027344-4.875 12.304688-3.21875 3.277344-7.625 5.113281-12.214844 5.097656h-44.25c-4.652343.039063-9.128906-1.773437-12.441406-5.039062-3.3125-3.261719-5.191406-7.710938-5.21875-12.363282v-20.910156c3.035156 1.421875 6.207032 2.523438 9.46875 3.289063.53125.121093 1.074219.183593 1.617188.183593 3.5625.007813 6.558594-2.65625 6.96875-6.195312.410156-3.535156-1.902344-6.816406-5.367188-7.621094-15.652344-3.703125-26.703125-17.683594-26.6875-33.765625v-99.6875c-.015625-1.402343.53125-2.746093 1.519532-3.742187.984374-.992188 2.324218-1.550782 3.722656-1.550782 2.488281-.011718 4.679687 1.628907 5.367187 4.019532.179688.40625.308594.835937.390625 1.273437v42.40625c0 3.867188 3.132813 7 7 7 3.863282 0 7-3.132812 7-7v-42.40625c-.003906-.640625-.035156-1.277343-.101562-1.914062.066406-.382813.097656-.769531.101562-1.15625v-21.511719c-.050781-1.375.457032-2.714844 1.40625-3.710938.953125-.996093 2.265625-1.566406 3.644532-1.578124 1.351562-.003907 2.644531.558593 3.566406 1.550781.949218 1.007812 1.449218 2.355469 1.382812 3.738281v79.28125c0 3.863281 3.132813 7 7 7 3.863282 0 7-3.136719 7-7v-91.570312c.027344-2.933594 2.417969-5.292969 5.351563-5.289063 1.457031-.007813 2.859375.546875 3.917969 1.546875 1.042968.972656 1.664062 2.316406 1.730468 3.742188v91.570312c0 3.863281 3.132813 7 7 7 3.863282 0 7-3.136719 7-7v-73.132812c-.035156-1.386719.488282-2.730469 1.453125-3.726563.96875-.996094 2.292969-1.5625 3.679688-1.570313 1.34375-.003906 2.621093.558594 3.527343 1.546876.9375 1.019531 1.421876 2.371093 1.339844 3.75v85.402343c-13.296875 3.277344-22.628906 15.214844-22.601562 28.90625.066406 3.847657 3.203125 6.933594 7.050781 6.933594s6.984375-3.085937 7.050781-6.933594c-.023437-4.160156 1.613282-8.15625 4.542969-11.109375s6.917969-4.621094 11.078125-4.628906c1.84375-.003906 3.609375-.746094 4.902344-2.0625 1.292968-1.316406 2.003906-3.09375 1.976562-4.9375v-35.339844c.140625-9.574218 7.464844-17.511718 17-18.414062zm0 0"/><path d="m164.234375 215.046875-12.941406-22.101563c-1.253907-2.144531-3.554688-3.464843-6.039063-3.464843-2.488281 0-4.785156 1.320312-6.042968 3.464843l-12.9375 22.101563c-5.050782 8.632813-3.648438 19.585937 3.414062 26.667969v.007812c7.824219 7.832032 20.25 8.628906 29.011719 1.863282 8.761719-6.765626 11.128906-18.992188 5.53125-28.539063zm-13.320313 16.773437c-2.847656 2.84375-7.363281 3.132813-10.546874.671876-3.183594-2.457032-4.046876-6.898438-2.011719-10.371094l6.898437-11.78125 6.898438 11.78125c1.835937 3.140625 1.328125 7.125-1.238282 9.699218zm0 0"/><path d="m126.503906 181.003906h37.5c3.902344-.097656 7.015625-3.296875 7-7.203125v-20.796875h4.25c5.773438.050782 11.328125-2.21875 15.417969-6.296875s6.371094-9.628906 6.332031-15.40625v-22.003906c14.765625-3.265625 25.207032-16.453125 25-31.574219v-70.910156c.046875-1.808594-.644531-3.5625-1.917968-4.847656-1.277344-1.285156-3.023438-1.996094-4.832032-1.96093775h-140c-3.878906-.10937525-7.117187 2.93359375-7.25 6.80859375v70.910156c0 15.226563 11 28.171875 25 31.574219v22.003906c0 12.132813 10.117188 21.703125 22.25 21.703125h3.75v20.796875c0 3.867188 3.632813 7.203125 7.5 7.203125zm11.5-71v29h-11v-29zm25 29h-11v-29h11zm-6 28h-24v-14h24zm20-28.027344v-28.972656h6v21.296875c.15625 3.6875-2.386718 6.941407-6 7.675781zm-95-61.253906v-63.71875h126v63.71875c.007813 10.003906-8 18.171875-18 18.359375-.082031 0-.039062-.078125-.121094-.078125h-89.269531c-.082031 0-.285156.082032-.367187.078125-10.050782-.171875-18.132813-8.308593-18.242188-18.359375zm25 53.578125v-21.296875h6v29.035156c-3.425781-1.066406-5.820312-4.15625-6-7.738281zm0 0"/><path d="m122.882812 51.003906h15.121094v15.199219c0 3.867187 3.132813 7 7 7 3.863282 0 7-3.132813 7-7v-15.199219h15.878906c3.867188 0 7-3.136718 7-7 0-3.867187-3.132812-7-7-7h-15.878906v-15.800781c0-3.867187-3.136718-7-7-7-3.867187 0-7 3.132813-7 7v15.800781h-15.121094c-3.867187 0-7 3.132813-7 7 0 3.863282 3.132813 7 7 7zm0 0"/></g></svg>