<svg height="470pt" viewBox="0 -37 470.00382 470" width="470pt" xmlns="http://www.w3.org/2000/svg"><path d="m411.9375 145.808594 51.078125 77.882812h-102.160156zm0 0" fill="#00efd1"/><path d="m335.015625 198.941406h-29.289063v98.5h-141.421874v-98.5h-29.289063l100-100zm-60 41.25v-24h-28v-28h-24v28h-28v24h28v28h24v-28zm0 0" fill="#00acea"/><path d="m275.015625 216.191406v24h-28v28h-24v-28h-28v-24h28v-28h24v28zm0 0" fill="#00efd1"/><path d="m109.175781 172.691406-51.078125 77.878906-51.082031-77.878906zm0 0" fill="#00acea"/><g fill="#083863"><path d="m417.789062 141.972656c-1.292968-1.972656-3.492187-3.164062-5.851562-3.164062s-4.5625 1.191406-5.855469 3.164062l-51.078125 77.878906c-1.414062 2.242188-1.527344 5.0625-.304687 7.414063 1.191406 2.324219 3.546875 3.824219 6.15625 3.925781h42.0625c-6.398438 42.476563-27.847657 81.238282-60.4375 109.222656-31.289063 26.828126-70.582031 42.089844-107.800781 42.089844-24.265626 0-49.644532-6.605468-73.394532-18.988281-24.683594-12.898437-46.09375-31.269531-62.585937-53.710937-2.277344-3.121094-6.65625-3.804688-9.777344-1.527344-3.117187 2.28125-3.800781 6.65625-1.523437 9.777344 17.769531 24.160156 40.824218 43.933593 67.410156 57.816406 25.738281 13.417968 53.355468 20.511718 79.867187 20.511718 40.507813 0 83.121094-16.367187 116.910157-45.339843 35.675781-30.65625 58.957031-73.269531 65.484374-119.851563h45.945313c2.605469-.117187 4.953125-1.609375 6.160156-3.921875 1.203125-2.3125 1.089844-5.089843-.304687-7.292969zm-43.972656 75.21875 38.117188-58.117187 38.121094 58.117187zm0 0"/><path d="m115.335938 169.613281c-1.25-2.203125-3.628907-3.523437-6.160157-3.421875h-42.058593c6.152343-42.703125 27.636718-81.703125 60.433593-109.726562 31.292969-26.828125 70.582031-42.339844 107.800781-42.339844 24.265626 0 49.644532 6.480469 73.402344 18.863281 24.679688 12.875 46.085938 31.226563 62.585938 53.648438 2.292968 3.121093 6.679687 3.792969 9.800781 1.5 3.117187-2.289063 3.789063-6.679688 1.5-9.796875-17.773437-24.164063-40.835937-43.941406-67.425781-57.824219-25.738282-13.417969-53.355469-20.515625-79.867188-20.515625-40.507812 0-83.121094 16.867188-116.910156 45.839844-35.878906 30.699218-59.191406 73.546875-65.476562 120.351562h-45.945313c-2.535156-.121094-4.921875 1.203125-6.164063 3.417969-1.238281 2.21875-1.117187 4.945313.3125 7.042969l51.078126 77.820312c1.304687 1.960938 3.511718 3.136719 5.867187 3.128906 2.359375-.011718 4.550781-1.203124 5.839844-3.175781l51.082031-77.765625c1.410156-2.105468 1.527344-4.824218.304688-7.046875zm-57.238282 68.691407-38.117187-58.113282h76.234375zm0 0"/><path d="m164.304688 304.191406h141.421874c3.867188 0 7.289063-2.886718 7.289063-6.75v-91.25h22c2.847656-.058594 5.390625-1.804687 6.464844-4.441406 1.078125-2.640625.480469-5.664062-1.515625-7.699219l-100-100.03125c-2.726563-2.738281-7.160156-2.746093-9.898438-.015625l-100 99.992188c-2.003906 2.050781-2.601562 5.097656-1.515625 7.75 1.070313 2.644531 3.613281 4.394531 6.464844 4.445312h22v91.25c0 3.863282 3.425781 6.75 7.289063 6.75zm-12.386719-112 83.097656-83.101562 83.101563 83.101562h-12.390626c-1.800781-.046875-3.539062.652344-4.808593 1.929688s-1.957031 3.019531-1.902344 4.820312v91.25h-128v-91.25c.058594-1.800781-.628906-3.542968-1.898437-4.820312-1.269532-1.277344-3.011719-1.976563-4.8125-1.929688zm0 0"/><path d="m195.015625 247.191406h21v21c0 3.863282 3.132813 7 7 7h24c3.867187 0 7-3.136718 7-7v-21h21c3.867187 0 7-3.136718 7-7v-24c0-3.867187-3.132813-7-7-7h-21v-21c0-3.867187-3.132813-7-7-7h-24c-3.867187 0-7 3.132813-7 7v21h-21c-3.867187 0-7 3.132813-7 7v24c0 3.863282 3.132813 7 7 7zm7-24h21c3.867187 0 7-3.136718 7-7v-21h10v21c0 3.863282 3.132813 7 7 7h21v10h-21c-3.867187 0-7 3.132813-7 7v21h-10v-21c0-3.867187-3.132813-7-7-7h-21zm0 0"/></g></svg>