<svg height="447pt" viewBox="-9 0 447 447.73053" width="447pt" xmlns="http://www.w3.org/2000/svg"><path d="m392.523438 90.5 30.722656 46.851562h-61.449219zm0 0" fill="#00efd1"/><path d="m88.046875 420.929688h-46.613281c-18.75 0-33.949219-15.199219-33.949219-33.949219v-61.121094c0-18.75 15.199219-33.949219 33.949219-33.949219h36.882812c8.296875-18.109375 26.390625-29.714844 46.308594-29.710937h120.121094c1.914062 0 3.746094.757812 5.101562 2.109375 1.351563 1.351562 2.109375 3.1875 2.109375 5.101562 0 19.457032-15.773437 35.230469-35.230469 35.230469h77.679688c9.375 0 16.972656 7.597656 16.972656 16.972656s-7.597656 16.976563-16.972656 16.976563h25.460938c9.375 0 16.976562 7.601562 16.976562 16.980468 0 9.378907-7.601562 16.980469-16.976562 16.980469h-16.980469c9.375 0 16.972656 7.597657 16.972656 16.972657s-7.597656 16.976562-16.972656 16.976562h-29.710938l-.109375.511719c8.316406 2.082031 13.777344 10.039062 12.726563 18.550781s-8.28125 14.902344-16.859375 14.898438h-137.6875c-16.542969.015624-32.285156-7.101563-43.199219-19.53125zm0 0" fill="#00efd1"/><path d="m331.085938 121.738281c10.199218 21.023438 4.480468 46.304688-13.773438 60.886719-18.253906 14.585938-44.171875 14.585938-62.425781 0-18.25-14.582031-23.96875-39.863281-13.769531-60.886719l44.976562-71.289062zm0 0" fill="#00acea"/><path d="m210.40625 106.671875-30.730469 46.847656-30.71875-46.847656zm0 0" fill="#00efd1"/><g fill="#083863"><path d="m319.867188 331.730469h-3.671876c3.417969-7.425781 2.816407-16.078125-1.59375-22.960938-4.410156-6.882812-12.023437-11.042969-20.195312-11.039062h-46.300781c6.742187-8 10.855469-17.429688 10.855469-28.277344.011718-3.855469-1.492188-7.5625-4.183594-10.324219-2.632813-2.730468-6.234375-4.3125-10.027344-4.402344h-120.125c-21.046875 0-40.433594 12-50.59375 30h-32.597656c-22.664063.101563-41.003906 18.46875-41.066406 41.132813v61.121094c.097656 22.589843 18.476562 40.828125 41.066406 40.75h43.5625c11.957031 12.820312 28.71875 20.070312 46.25 20h137.6875c6.386718-.039063 12.492187-2.613281 16.96875-7.164063 7.074218-7.050781 9.003906-17.761718 4.835937-26.835937h12.148438c8.265625-.054688 15.929687-4.335938 20.308593-11.347657 4.378907-7.007812 4.867188-15.773437 1.289063-23.226562 11.242187-2.238281 19.34375-12.097656 19.355469-23.558594-.003906-6.347656-2.535156-12.429687-7.035156-16.90625-4.496094-4.480468-10.59375-6.984375-16.9375-6.960937zm0 34h-126.480469c-3.867188 0-7 3.132812-7 7 0 3.867187 3.132812 7 7 7h109.5c2.636719-.042969 5.179687.976562 7.058593 2.828125 2.851563 2.875 3.703126 7.179687 2.164063 10.925781s-5.175781 6.207031-9.222656 6.246094h-29.710938c-.503906 0-1.007812.054687-1.5.164062-.910156-.109375-1.824219-.164062-2.742187-.164062h-58.566406c-3.867188 0-7 3.132812-7 7 0 3.867187 3.132812 7 7 7h58.566406c2.660156-.140625 5.25.84375 7.148437 2.707031 1.898438 1.867188 2.925781 4.441406 2.832031 7.101562.007813 2.675782-1.039062 5.246094-2.910156 7.15625-1.859375 1.910157-4.402344 3-7.070312 3.035157h-137.6875c-23.503906-.113281-43.867188-16.328125-49.234375-39.214844-.871094-3.769531-4.632813-6.125-8.40625-5.257813-1.800781.394532-3.363281 1.492188-4.347657 3.050782-.980468 1.558594-1.300781 3.445312-.878906 5.238281 1.3125 5.660156 3.417969 11.109375 6.253906 16.183594h-33.199218c-14.859375.085937-26.976563-11.890625-27.066406-26.75v-61.121094c.058593-14.933594 12.132812-27.039063 27.066406-27.128906h27.03125c-1.15625 4.683593-1.75 9.488281-1.773438 14.308593-.015625 18.730469 7.417969 36.695313 20.660156 49.9375l3.460938 3.472657c1.746094 1.859375 4.367188 2.617187 6.839844 1.984375 2.46875-.632813 4.398437-2.5625 5.035156-5.035156.636719-2.46875-.121094-5.089844-1.976562-6.839844l-3.460938-3.460938c-10.609375-10.59375-16.5625-24.972656-16.554688-39.96875-.109374-24.382812 19.546876-44.25 43.929688-44.398437h120.121094c.027344 0 .089844.234375.148437.300781.0625.0625.0625.273438.0625.3125-.007812 15.613281-12.617187 28.292969-28.230469 28.386719h-48.8125c-1.851562-.011719-3.628906.71875-4.945312 2.023437-1.3125 1.304688-2.050781 3.078125-2.054688 4.929688-.011718 13.46875-10.929687 24.382812-24.398437 24.390625-3.875 0-7.015625 3.140625-7.015625 7.011719 0 3.875 3.140625 7.015624 7.015625 7.015624 18.515625.046876 34.414063-13.160156 37.761719-31.371093h120.128906c2.636719-.023438 5.171875 1.007812 7.039062 2.867187 2.855469 2.863282 3.714844 7.164063 2.175782 10.90625-1.539063 3.742188-5.171875 6.195313-9.214844 6.226563h-101.019531c-3.867188 0-7 3.132812-7 7 0 3.867187 3.132812 7 7 7h126.480469c2.640624-.035157 5.183593.996093 7.058593 2.859375 2.851563 2.871094 3.703125 7.171875 2.164063 10.914062-1.542969 3.742188-5.175782 6.195313-9.222656 6.226563zm0 0"/><path d="m292.015625 46.714844c-1.28125-2.03125-3.515625-3.265625-5.917969-3.265625-2.40625 0-4.640625 1.234375-5.921875 3.265625l-44.980469 71.289062c-.140624.21875-.480468.445313-.59375.679688-10.574218 21.820312-6.265624 47.933594 10.765626 65.195312 10.777343 10.691406 25.34375 16.6875 40.523437 16.6875 19.652344.03125 37.9375-10.054687 48.390625-26.699218 10.457031-16.640626 11.605469-37.492188 3.046875-55.183594-.101563-.234375-.21875-.460938-.351563-.679688zm24.492187 127.261718c-14.792968 14.808594-38.097656 16.8125-55.203124 4.75-17.105469-12.066406-23.035157-34.691406-14.054688-53.597656l38.847656-61.566406 38.851563 61.566406c7.785156 16.433594 4.40625 35.984375-8.441407 48.847656zm0 0"/><path d="m306.394531 131.730469h-13.027343v-13.78125c0-3.863281-3.136719-7-7-7-3.867188 0-7 3.136719-7 7v13.78125h-13.5625c-3.867188 0-7 3.132812-7 7 0 3.867187 3.132812 7 7 7h13.5625v12.808593c0 3.867188 3.132812 7 7 7 3.863281 0 7-3.132812 7-7v-12.808593h13.027343c3.867188 0 7-3.132813 7-7 0-3.867188-3.132812-7-7-7zm0 0"/><path d="m398.378906 86.660156c-1.292968-1.972656-3.492187-3.160156-5.851562-3.160156s-4.558594 1.1875-5.855469 3.160156l-30.730469 46.851563c-1.410156 2.21875-1.527344 5.023437-.304687 7.355469 1.203125 2.308593 3.558593 3.785156 6.160156 3.863281h22.019531c-9.460937 53-57.085937 85.46875-97.910156 85.46875-29.402344 0-60.621094-16.785157-79.542969-42.621094-2.265625-3.121094-6.628906-3.8125-9.75-1.550781-3.121093 2.265625-3.816406 6.632812-1.550781 9.75 21.800781 29.765625 56.609375 48.246094 90.835938 48.246094 25.023437 0 51.316406-10.054688 72.140624-27.910157 21.257813-18.390625 35.402344-43.648437 39.972657-71.382812h25.234375c2.597656-.089844 4.945312-1.5625 6.15625-3.863281 1.210937-2.296876 1.09375-5.070313-.304688-7.261719zm-23.621094 44.070313 17.765626-27.085938 17.761718 27.085938zm0 0"/><path d="m365.839844 56.535156c2.285156 3.121094 6.664062 3.796875 9.78125 1.511719 3.121094-2.285156 3.796875-6.664063 1.511718-9.785156-21.804687-29.769531-56.613281-48.261719-90.835937-48.261719-25.023437 0-51.316406 10.269531-72.136719 28.125-21.460937 18.320312-35.644531 43.722656-39.972656 71.605469h-25.230469c-2.570312-.015625-4.9375 1.386719-6.160156 3.644531-1.226563 2.257812-1.109375 5.003906.304687 7.148438l30.71875 46.839843c1.292969 1.972657 3.496094 3.164063 5.855469 3.160157 2.359375 0 4.558594-1.1875 5.851563-3.160157l30.730468-46.851562c1.410157-2.144531 1.527344-4.890625.304688-7.144531-1.226562-2.253907-3.589844-3.652344-6.15625-3.636719h-22.023438c9.457032-53 57.085938-85.699219 97.914063-85.699219 29.390625 0 60.617187 16.664062 79.542969 42.503906zm-186.164063 84.28125-17.757812-27.085937h35.523437zm0 0"/></g></svg>