<svg height="378pt" viewBox="-37 0 378 378.64039" width="378pt" xmlns="http://www.w3.org/2000/svg"><path d="m297.320312 85.351562v90.410157c-.058593 81.222656-48.183593 154.707031-122.609374 187.230469l-19.851563 8.648437-22.378906-9.671875c-75.8125-31.832031-125.140625-106.023438-125.160157-188.25v-88.367188l147.039063-78.351562zm-59 129.769532v-51.601563h-60.199218v-60.199219h-51.601563v60.199219h-60.199219v51.601563h60.199219v60.199218h51.601563v-60.199218zm0 0" fill="#00acea"/><path d="m238.320312 163.519531v51.601563h-60.199218v60.199218h-51.601563v-60.199218h-60.199219v-51.601563h60.199219v-60.199219h51.601563v60.199219zm0 0" fill="#00efd1"/><g fill="#083863"><path d="m300.683594 79.210938-142.964844-78.347657c-2.070312-1.136719-4.570312-1.152343-6.65625-.039062l-147.039062 78.347656c-2.28125 1.21875-3.703126 3.59375-3.703126 6.179687v88.367188c.019532 85.03125 51.019532 161.753906 129.410157 194.691406l22.355469 9.65625c1.777343.769532 3.792968.765625 5.570312-.007812l19.863281-8.65625c76.957031-33.65625 126.71875-109.648438 126.800781-193.640625v-90.410157c0-2.558593-1.394531-4.910156-3.636718-6.140624zm-10.363282 96.550781c-.082031 78.429687-46.546874 149.386719-118.40625 180.8125l-17.066406 7.433593-19.589844-8.460937-.050781-.023437c-73.222656-30.738282-120.867187-102.390626-120.886719-181.804688v-84.167969l139.992188-74.59375 136.007812 74.539063zm0 0"/><path d="m119.320312 103.320312v53h-53c-3.902343.09375-7.015624 3.292969-7 7.199219v51.601563c-.015624 3.90625 3.097657 7.105468 7 7.199218h53v53c.09375 3.902344 3.292969 7.015626 7.199219 7h51.601563c3.90625.015626 7.105468-3.097656 7.199218-7v-53h53c3.902344-.09375 7.015626-3.292968 7-7.199218v-51.601563c.015626-3.90625-3.097656-7.105469-7-7.199219h-53v-53c-.09375-3.902343-3.292968-7.015624-7.199218-7h-51.601563c-3.90625-.015624-7.105469 3.097657-7.199219 7zm14 60.199219v-53.199219h38v53.199219c-.039062 1.816407.667969 3.566407 1.949219 4.851563 1.285157 1.28125 3.035157 1.988281 4.851563 1.949218h53.199218v38h-53.199218c-1.816406-.039062-3.566406.667969-4.851563 1.949219-1.28125 1.285157-1.988281 3.035157-1.949219 4.851563v53.199218h-38v-53.199218c.039063-1.816406-.667968-3.566406-1.949218-4.851563-1.285156-1.28125-3.035156-1.988281-4.851563-1.949219h-53.199219v-38h53.199219c1.816407.039063 3.566407-.667968 4.851563-1.949218 1.28125-1.285156 1.988281-3.035156 1.949218-4.851563zm0 0"/></g></svg>