<svg height="424pt" viewBox="0 -45 424.00044 424" width="424pt" xmlns="http://www.w3.org/2000/svg"><g fill="#00acea"><path d="m406.960938 206.785156-26.171876 104.6875c-2.230468 8.90625-10.230468 15.148438-19.410156 15.152344h-289.679687c-8.746094-.007812-16.476563-5.691406-19.089844-14.042969l-33.046875-105.75c29.957031 1 30.816406 19.621094 62.4375 19.621094 4.863281.058594 9.71875-.480469 14.449219-1.597656l2.722656 2.71875 17.839844 17.828125 34.347656 34.363281c4.394531 4.390625 11.371094 4.820313 16.269531 1 4.898438-3.820313 6.183594-10.691406 2.992188-16.023437l.320312-.199219 15.21875 15.222656c4.804688 4.800781 12.59375 4.796875 17.394532-.007813 4.804687-4.804687 4.800781-12.59375-.003907-17.394531l8.699219 8.699219c4.804688 4.804688 12.597656 4.804688 17.402344 0 4.804687-4.804688 4.804687-12.59375 0-17.398438l-13.050782-13.039062c4.804688 4.804688 12.59375 4.804688 17.398438 0s4.804688-12.597656 0-17.402344l-.648438-.648437c13.777344-5.730469 20.398438-15.789063 43.640626-15.789063 32.5 0 32.5 19.667969 65 19.667969s32.507812-19.648437 64.96875-19.667969zm0 0"/><path d="m378.472656 40.253906c5.554688 9.480469 3.472656 21.582032-4.929687 28.664063-8.402344 7.078125-20.683594 7.078125-29.085938 0-8.398437-7.082031-10.480469-19.183594-4.925781-28.664063l19.46875-33.25zm0 0"/><path d="m324.972656 128.253906c5.554688 9.480469 3.472656 21.582032-4.929687 28.664063-8.402344 7.078125-20.683594 7.078125-29.085938 0-8.398437-7.082031-10.480469-19.183594-4.925781-28.664063l19.46875-33.25zm0 0"/><path d="m271.472656 40.253906c5.554688 9.480469 3.472656 21.582032-4.929687 28.664063-8.402344 7.078125-20.683594 7.078125-29.085938 0-8.398437-7.082031-10.480469-19.183594-4.925781-28.664063l19.46875-33.25zm0 0"/></g><path d="m233.351562 222.574219.648438.648437c4.804688 4.804688 4.804688 12.597656 0 17.402344s-12.59375 4.804688-17.398438 0l13.050782 13.039062c4.804687 4.804688 4.804687 12.59375 0 17.398438-4.804688 4.804688-12.597656 4.804688-17.402344 0l-8.699219-8.699219c4.804688 4.800781 4.808594 12.589844.003907 17.394531-4.800782 4.804688-12.589844 4.808594-17.394532.007813l-15.21875-15.222656-.320312.199219c3.1875 5.332031 1.902344 12.199218-2.996094 16.019531-4.894531 3.820312-11.871094 3.390625-16.265625-.996094l-34.347656-34.363281-17.839844-17.828125-2.722656-2.71875-15.628907-15.640625c-8.484374-8.464844-12.902343-20.171875-12.128906-32.132813l-23.878906-23.878906c-9.613281-9.609375-9.613281-25.191406 0-34.800781l31.308594-31.308594c9.609375-9.609375 25.191406-9.609375 34.800781 0l18.898437 18.898438c13.527344-5.023438 28.738282-1.703126 38.941407 8.5l61.550781 61.542968c2.039062 2.039063 2.039062 5.347656 0 7.386719-9.972656 9.972656-26.140625 9.972656-36.113281 0zm0 0" fill="#00efd1"/><path d="m418.699219 159.832031c-3.75-.9375-7.550781 1.34375-8.488281 5.09375l-8.765626 35.0625c-14.65625 1.039063-23.066406 6.105469-30.5625 10.640625-7.824218 4.734375-14.585937 8.824219-28.890624 8.824219-14.304688 0-21.050782-4.089844-28.875-8.824219-8.398438-5.082031-17.921876-10.84375-36.125-10.84375-18.203126 0-27.71875 5.757813-36.117188 10.839844-2.039062 1.234375-4.019531 2.414062-6.070312 3.5l-16.761719-16.761719c6.527343-1.160156 12.539062-4.300781 17.222656-8.992187 4.769531-4.773438 4.769531-12.511719 0-17.289063l-61.550781-61.539062c-10.984375-10.9375-26.902344-15.296875-41.925782-11.480469l-15.917968-15.917969c-12.34375-12.34375-32.355469-12.34375-44.699219 0l-31.3125 31.308594c-12.34375 12.34375-12.34375 32.359375 0 44.703125l21.761719 21.757812c.046875 12.847657 5.167968 25.160157 14.25 34.25l5.273437 5.273438c-13.699219-.164062-20.355469-4.167969-28.019531-8.804688-7.097656-4.292968-15.058594-9.089843-28.300781-10.449218l-11.140625-35.648438c-1.152344-3.6875-5.082032-5.746094-8.769532-4.59375-3.691406 1.15625-5.75 5.082032-4.59375 8.773438l45.609376 146.054687c3.480468 11.316407 13.933593 19.039063 25.769531 19.042969h289.679687c12.414063-.027344 23.214844-8.5 26.203125-20.546875l36.207031-144.898437c.941407-3.761719-1.332031-7.574219-5.089843-8.535157zm-343.023438 17.683594c.359375-5.703125 2.121094-11.226563 5.132813-16.082031 1.34375-2.125 1.441406-4.808594.261718-7.027344-1.179687-2.222656-3.460937-3.636719-5.972656-3.710938-2.511718-.074218-4.875 1.203126-6.183594 3.351563-1.757812 2.84375-3.214843 5.863281-4.351562 9.007813l-14.796875-14.800782c-6.878906-6.875-6.878906-18.023437 0-24.902344l31.308594-31.308593c6.875-6.878907 18.023437-6.878907 24.898437 0l12.152344 12.152343c-2.332031 1.574219-4.511719 3.363282-6.507812 5.351563-9.972657 9.933594-15.589844 23.421875-15.617188 37.496094v3.550781c0 3.867188 3.136719 7 7 7 3.867188 0 7-3.132812 7-7v-3.550781c.03125-10.355469 4.164062-20.277344 11.492188-27.59375 3.039062-3.050781 6.707031-5.402344 10.75-6.890625 10.964843-4.046875 23.28125-1.359375 31.5625 6.886718l60.238281 60.222657c-7.371094 6.066406-18.140625 5.550781-24.898438-1.195313l-3.253906-3.253906v-.007812l-21.738281-21.738282c-2.734375-2.734375-7.167969-2.734375-9.902344 0-6.164062 6.140625-16.132812 6.140625-22.300781 0-1.75-1.839844-4.363281-2.585937-6.824219-1.945312-2.460938.636718-4.382812 2.558594-5.019531 5.019531s.109375 5.074219 1.953125 6.828125c9.726562 9.6875 24.8125 11.488281 36.546875 4.355469l17.378906 17.382812 3.253906 3.253907.023438.019531 39.777343 39.78125c2.074219 2.070312 2.074219 5.429687 0 7.5-2.070312 2.070312-5.425781 2.070312-7.5 0l-51.738281-51.753907c-2.734375-2.734374-7.167969-2.734374-9.898437 0-2.734375 2.734376-2.734375 7.164063 0 9.898438l51.75 51.761719 13.035156 13.027343c2.074219 2.066407 2.078125 5.425782.011719 7.5-2.066407 2.074219-5.421875 2.078126-7.5.011719l-8.699219-8.699219-13.039062-13.050781c-.03125-.03125-.066407-.058593-.101563-.09375l-42.957031-42.957031c-2.734375-2.734375-7.167969-2.734375-9.902344 0s-2.734375 7.167969 0 9.902344l55.542969 55.539062.558593.558594c1.359376 1.335938 1.898438 3.296875 1.414063 5.140625-.484375 1.839844-1.925781 3.28125-3.765625 3.769531-1.839844.488282-3.804688-.050781-5.140625-1.410156l-15.21875-15.21875c-.277344-.273438-.574219-.523438-.894531-.746094-.402344-.5-.832032-.976562-1.285156-1.433594l-30.011719-30.011718c-2.730469-2.730469-7.164063-2.730469-9.898438 0-2.734375 2.734375-2.734375 7.167968 0 9.902344l30.011719 30.007812c.308594.3125.582031.65625.808594 1.035156 1.363281 2.296875.808594 5.253906-1.304688 6.894532-2.109375 1.644531-5.109375 1.460937-7.003906-.429688l-70.542969-70.546875c-7.046875-7.054687-10.726562-16.800781-10.09375-26.75zm298.324219 132.351563c-1.433594 5.8125-6.632812 9.910156-12.621094 9.945312h-289.679687c-5.707031-.023438-10.738281-3.761719-12.40625-9.222656l-29.800781-95.425782c6.605468 1.578126 11.257812 4.363282 16.390624 7.472657 8.398438 5.078125 17.921876 10.828125 36.121094 10.828125 4.078125.023437 8.15625-.304688 12.179688-.984375l52.226562 52.234375c4.28125 4.289062 10.328125 6.316406 16.328125 5.472656 6.003907-.839844 11.257813-4.457031 14.191407-9.757812l4.28125 4.28125c4.402343 4.414062 10.667968 6.425781 16.816406 5.398437 6.148437-1.027344 11.421875-4.960937 14.152344-10.566406 8.441406 4.3125 18.761718 1.855469 24.355468-5.796875 5.589844-7.652344 4.796875-18.230469-1.871094-24.964844 8.292969-4.578125 12.015626-14.511719 8.777344-23.414062 1.613282-.914063 3.160156-1.847657 4.679688-2.765626 7.820312-4.734374 14.578125-8.820312 28.871094-8.820312 14.289062 0 21.050781 4.089844 28.875 8.824219 8.398437 5.082031 17.921874 10.84375 36.125 10.84375 18.203124 0 27.734374-5.761719 36.136718-10.84375 5.925782-3.585938 11.242188-6.75 19.699219-8.101563zm0 0" fill="#083863"/><path d="m305.5 169.234375c10.597656-.003906 20.382812-5.675781 25.652344-14.871094 5.269531-9.195312 5.214844-20.503906-.140625-29.648437l-19.46875-33.25c-1.257813-2.144532-3.554688-3.464844-6.042969-3.464844-2.484375 0-4.785156 1.320312-6.039062 3.464844l-19.46875 33.25c-5.355469 9.144531-5.410157 20.453125-.140626 29.648437 5.265626 9.195313 15.050782 14.867188 25.648438 14.871094zm-13.429688-37.441406 13.429688-22.9375 13.429688 22.9375c3.832031 6.539062 2.394531 14.886719-3.398438 19.769531-5.796875 4.882812-14.265625 4.882812-20.0625 0-5.792969-4.882812-7.230469-13.230469-3.398438-19.769531zm0 0" fill="#083863"/><path d="m359 .00390625c-2.484375 0-4.785156 1.31640575-6.039062 3.46093775l-19.46875 33.25c-7.277344 12.417968-4.550782 28.277344 6.457031 37.554687 11.007812 9.273438 27.097656 9.273438 38.105469 0 11.007812-9.277343 13.734374-25.136719 6.457031-37.554687l-19.46875-33.25c-1.257813-2.144532-3.558594-3.46093775-6.042969-3.46093775zm11.011719 62.66015575c-5.539063 5.535157-14.324219 6.101563-20.523438 1.3125-6.195312-4.785156-7.875-13.429687-3.917969-20.183593l13.429688-22.9375 13.429688 22.9375c3.582031 6.109375 2.585937 13.863281-2.417969 18.871093zm0 0" fill="#083863"/><path d="m277.511719 36.714844-19.46875-33.25c-1.257813-2.144532-3.554688-3.464844-6.042969-3.464844-2.484375 0-4.785156 1.320312-6.039062 3.464844l-19.46875 33.25c-7.277344 12.417968-4.550782 28.277344 6.457031 37.554687 11.007812 9.273438 27.097656 9.273438 38.105469 0 11.007812-9.277343 13.734374-25.136719 6.457031-37.554687zm-14.5 25.945312c-5.535157 5.539063-14.324219 6.101563-20.519531 1.316406-6.199219-4.785156-7.878907-13.429687-3.921876-20.1875l13.429688-22.933593 13.429688 22.9375c3.582031 6.109375 2.585937 13.863281-2.417969 18.871093zm0 0" fill="#083863"/></svg>