<svg height="420pt" viewBox="-23 0 420 420.00062" width="420pt" xmlns="http://www.w3.org/2000/svg"><path d="m361.140625 148.609375c5.71875 5.71875 7.429687 14.320313 4.332031 21.792969-3.09375 7.472656-10.382812 12.347656-18.472656 12.347656h-320c-11.046875 0-20-8.953125-20-20s8.953125-20 20-20h320c5.304688-.003906 10.394531 2.101562 14.140625 5.859375zm0 0" fill="#00acea"/><path d="m337 182.75-16.820312 193.46875c-1.800782 20.667969-19.101563 36.53125-39.847657 36.53125h-186.660156c-20.75 0-38.050781-15.863281-39.851563-36.53125l-16.820312-193.46875zm-100 55c.003906-11.046875-8.953125-20.003906-20-20h-60c-11.046875 0-20 8.953125-20 20s8.953125 20 20 20h60c11.042969-.003906 19.996094-8.957031 20-20zm0 0" fill="#00efd1"/><path d="m172 72.25h-89.5c-17.949219 0-32.5-14.550781-32.5-32.5s14.550781-32.5 32.5-32.5h209c17.949219 0 32.5 14.550781 32.5 32.5s-14.550781 32.5-32.5 32.5zm0 0" fill="#f4b844"/><path d="m172 142.25h-89.5c-17.949219 0-32.5-14.550781-32.5-32.5s14.550781-32.5 32.5-32.5h209c17.949219 0 32.5 14.550781 32.5 32.5s-14.550781 32.5-32.5 32.5zm0 0" fill="#fedb41"/><path d="m217 217.75c11.046875 0 20 8.953125 20 20s-8.953125 20-20 20h-60c-11.046875 0-20-8.953125-20-20s8.953125-20 20-20zm0 0" fill="#00acea"/><g fill="#083863"><path d="m27 190h3.582031l16.265625 187.078125c1.992188 24.34375 22.398438 43.046875 46.824219 42.921875h186.660156c24.425781.125 44.828125-18.578125 46.824219-42.921875l16.261719-187.078125h3.582031c14.929688-.074219 26.992188-12.195312 27-27.125-.007812-7.148438-2.855469-14-7.921875-19.039062-5.066406-5.042969-11.929687-7.863282-19.078125-7.835938h-25.777344c6.359375-7.210938 9.839844-16.511719 9.777344-26.125-.011719-14.710938-8.171875-28.203125-21.191406-35.046875 16.121094-8.492187 24.394531-26.863281 20.0625-44.5625-4.328125-17.699219-20.152344-30.1796875-38.371094-30.265625h-209c-18.203125.0625-34.019531 12.515625-38.355469 30.195312-4.332031 17.675782 3.9375 36.035157 20.046875 44.503907-10.742187 5.671875-18.304687 15.949219-20.523437 27.894531-2.222657 11.945312 1.144531 24.25 9.132812 33.40625h-25.800781c-14.910156 0-27 12.089844-27 27s12.089844 27 27 27zm286.207031 185.863281c-1.402343 17.09375-15.726562 30.226563-32.875 30.136719h-186.660156c-17.152344.089844-31.476563-13.042969-32.878906-30.136719l-16.15625-185.863281h284.730469zm-248.738281-354.261719c4.757812-4.835937 11.25-7.570312 18.03125-7.601562h209c14.101562.074219 25.496094 11.523438 25.5 25.625-.007812 6.75-2.699219 13.21875-7.484375 17.980469s-11.265625 7.421875-18.015625 7.394531h-119.5c-4.28125.03125-8.253906-2.238281-10.402344-5.941406-2.144531-3.707032-2.136718-8.28125.019532-11.980469 2.160156-3.699219 6.136718-5.957031 10.421874-5.910156 23.71875.011719 63.296876.050781 80.960938.050781 1.105469.007812 2 .910156 2 2.015625.003906.503906-.21875.984375-.605469 1.308594-.390625.328125-.886719.488281-1.394531.457031h-22c-3.867188 0-7 3.132812-7 7s3.132812 7 7 7h22c4.226562.054688 8.300781-1.589844 11.304688-4.5625 3.007812-2.96875 4.699218-7.023438 4.695312-11.25-.011719-8.824219-7.171875-15.972656-16-15.96875-17.660156 0-57.238281.007812-80.980469 0-14.339843-.039062-25.992187 11.558594-26.019531 25.898438 0 4.328124 1.066406 8.882812 2.945312 11.882812h-66.445312c-14.0625.011719-25.480469-11.375-25.5-25.4375-.015625-6.746094 2.675781-13.21875 7.46875-17.960938zm0 70c4.757812-4.835937 11.25-7.570312 18.03125-7.601562h209c14.101562.074219 25.496094 11.523438 25.5 25.625-.007812 6.75-2.699219 13.21875-7.484375 17.980469s-11.265625 7.421875-18.015625 7.394531h-119.5c-4.28125.03125-8.253906-2.238281-10.402344-5.941406-2.144531-3.707032-2.136718-8.28125.019532-11.980469 2.160156-3.699219 6.136718-5.957031 10.421874-5.910156 23.71875.011719 63.296876.050781 80.960938.050781 1.105469.007812 2 .910156 2 2.015625.003906.503906-.21875.984375-.605469 1.308594-.390625.328125-.886719.488281-1.394531.457031h-22c-3.867188 0-7 3.132812-7 7s3.132812 7 7 7h22c4.226562.054688 8.300781-1.589844 11.304688-4.5625 3.007812-2.96875 4.699218-7.023438 4.695312-11.25-.011719-8.824219-7.171875-15.972656-16-15.96875-17.660156 0-57.238281.007812-80.980469 0-14.339843-.039062-25.992187 11.5625-26.019531 25.898438 0 4.328124 1.066406 8.886718 2.945312 11.886718h-66.445312c-14.066406.011719-25.480469-11.375-25.5-25.441406-.015625-6.746094 2.675781-13.21875 7.46875-17.960938zm-37.46875 58.398438h320c3.4375-.054688 6.753906 1.273438 9.199219 3.691406 3.714843 3.738282 4.824219 9.339844 2.816406 14.210938-2.011719 4.871094-6.746094 8.0625-12.015625 8.097656h-320c-3.46875-.039062-6.777344-1.457031-9.199219-3.941406-2.441406-2.40625-3.8125-5.691406-3.800781-9.121094.007812-3.441406 1.378906-6.734375 3.820312-9.164062 2.4375-2.425782 5.738282-3.785157 9.179688-3.773438zm0 0"/><path d="m157 265h60c7.175781-.027344 14.046875-2.917969 19.082031-8.027344 5.085938-5.027344 7.941407-11.886718 7.917969-19.035156-.019531-14.890625-12.105469-26.949219-27-26.9375h-60c-7.167969-.054688-14.054688 2.765625-19.128906 7.828125-5.074219 5.0625-7.90625 11.945313-7.871094 19.109375.011719 14.917969 12.082031 27.015625 27 27.0625zm-9.191406-36.316406c2.445312-2.410156 5.757812-3.738282 9.191406-3.683594h60c7.179688 0 13 5.820312 13 13s-5.820312 13-13 13h-60c-5.269531-.035156-10.007812-3.226562-12.011719-8.101562-2.007812-4.875-.898437-10.476563 2.820313-14.214844zm0 0"/></g></svg>