<svg height="471pt" viewBox="-98 0 471 471.02264" width="471pt" xmlns="http://www.w3.org/2000/svg"><path d="m258.671875 66.761719c5.542969 8.351562 4.054687 19.515625-3.488281 26.117187-7.539063 6.597656-18.804688 6.597656-26.34375 0-7.542969-6.601562-9.035156-17.765625-3.488282-26.117187l16.660157-25.070313zm0 0" fill="#00acea"/><path d="m97.292969 106.722656c26.304687-4.265625 53.128906-4.265625 79.4375 0 52.371093 8.660156 90.28125 34 90.28125 63.910156 0 17.488282-12.949219 33.410157-34.160157 45.339844 18.199219 30.679688 29.160157 70.210938 29.160157 113.371094 0 29.878906-5.261719 86.699219-14.53125 119.6875-2.457031 8.609375-10.34375 14.53125-19.300781 14.492188h-182.339844c-8.953125.039062-16.839844-5.882813-19.296875-14.492188-9.273438-32.988281-14.53125-89.808594-14.53125-119.6875 0-43.160156 10.960937-83.691406 29.160156-114.371094-21.210937-11.929687-34.160156-26.851562-34.160156-44.339844 0-29.910156 37.910156-55.25 90.28125-63.910156zm113.367187 312.558594c6.191406-22.417969 9.691406-61.046875 9.691406-81.359375 0-66.269531-37.308593-120-83.339843-120s-83.339844 53.730469-83.339844 120c0 20.3125 3.5 58.941406 9.6875 81.359375 1.589844 5.804688 6.855469 9.832031 12.871094 9.839844h121.5625c6.015625-.007813 11.28125-4.035156 12.867187-9.839844zm0 0" fill="#00efd1"/><path d="m220.351562 337.921875c0 20.3125-3.5 58.941406-9.691406 81.359375-1.585937 5.804688-6.851562 9.832031-12.867187 9.839844h-121.5625c-6.015625-.007813-11.28125-4.035156-12.871094-9.839844-6.1875-22.417969-9.6875-61.046875-9.6875-81.359375 0-66.269531 37.308594-120 83.339844-120s83.339843 53.730469 83.339843 120zm0 0" fill="#00acea"/><path d="m177.011719 44.523438v34h-80v-34zm0 0" fill="#00acea"/><path d="m167.011719 78.523438 9.71875 28.199218c-26.308594-4.265625-53.132813-4.265625-79.4375 0l9.71875-28.199218zm0 0" fill="#fedb41"/><g fill="#083863"><path d="m56.609375 421.09375c2.449219 8.816406 10.472656 14.921875 19.621094 14.929688h121.5625c9.148437-.007813 17.171875-6.113282 19.617187-14.929688 6.488282-23.5 9.941406-63.398438 9.941406-83.199219 0-33.464843-9.109374-65.003906-25.65625-88.832031-17.089843-24.605469-40.058593-38.148438-64.683593-38.148438-24.621094 0-47.589844 13.554688-64.679688 38.160157-16.546875 23.824219-25.660156 55.351562-25.660156 88.820312 0 19.792969 3.453125 59.703125 9.9375 83.199219zm80.402344-196.171875c42.09375 0 76.339843 50.691406 76.339843 113 0 19-3.28125 57.144531-9.4375 79.449219-.761718 2.75-3.269531 4.65625-6.121093 4.652344h-121.5625c-2.855469.003906-5.359375-1.902344-6.121094-4.652344-6.15625-22.300782-9.4375-60.476563-9.4375-79.472656 0-62.308594 34.246094-112.976563 76.339844-112.976563zm0 0"/><path d="m31.710938 217.464844c-17.253907 31.789062-26.699219 71.210937-26.699219 111.878906 0 28.902344 5.140625 87.488281 14.789062 121.828125 3.308594 11.667969 13.917969 19.75 26.039063 19.851563h182.339844c12.125-.101563 22.730468-8.183594 26.039062-19.847657 9.652344-34.34375 14.792969-92.804687 14.792969-121.707031 0-40.066406-9.445313-79.199219-26.699219-110.957031 20.5-13.207031 31.699219-30.03125 31.699219-47.847657 0-32.050781-36.800781-59.679687-92-69.847656l-5.183594-14.792968h.183594c3.867187 0 7-3.636719 7-7.5v-34c0-3.867188-3.132813-6.5-7-6.5h-33v-24h61.484375l31.613281 14.121093c.917969.375 1.90625.546875 2.894531.5 3.300782-.027343 6.140625-2.34375 6.835938-5.574219.695312-3.226562-.9375-6.503906-3.933594-7.890624l-33-14.765626c-.925781-.3398432-1.914062-.4726558-2.894531-.3906245h-126c-3.867188 0-7 3.1328125-7 7.0000005 0 3.863281 3.132812 7 7 7h49v24h-33c-3.867188 0-7 2.632812-7 6.5v34c0 3.863281 3.132812 7.5 7 7.5h.183593l-5.183593 14.777343c-55.207031 10.164063-92.0000002 37.898438-92.0000002 69.957031 0 17.492188 10.9257812 33.464844 31.6992192 46.707032zm72.300781-165.441406h66v20h-66zm58.007812 34 4.375 12.4375c-19.515625-2.4375-39.257812-2.417969-58.769531.0625l4.378906-12.5zm-63.582031 27.597656c12.757812-2.015625 25.660156-2.988282 38.574219-2.898438 12.925781.070313 25.824219 1.175782 38.574219 3.300782 49.710937 8 84.425781 31.460937 84.425781 56.804687 0 14.207031-10.863281 28.046875-30.59375 39.140625-1.640625.90625-2.84375 2.441406-3.332031 4.253906-.488282 1.808594-.21875 3.738282.746093 5.347656 18.171875 30.632813 28.179688 69.613282 28.179688 109.785157 0 28.097656-4.960938 84.90625-14.269531 118.042969-1.597657 5.632812-6.707032 9.546874-12.5625 9.625h-182.339844c-5.855469-.082032-10.960938-4-12.558594-9.636719-9.3125-33.132813-14.269531-89.824219-14.269531-117.917969 0-40.816406 10.007812-80.230469 28.179687-110.863281.960938-1.625 1.230469-3.574219.746094-5.402344-.488281-1.828125-1.6875-3.382813-3.335938-4.316406-25.285156-14.222657-30.589843-28.652344-30.589843-38.246094 0-25.34375 34.714843-48.792969 84.425781-57.019531zm0 0"/><path d="m91.011719 386.023438h92c3.867187 0 7-3.136719 7-7 0-3.867188-3.132813-7-7-7h-92c-3.867188 0-7 3.132812-7 7 0 3.863281 3.132812 7 7 7zm0 0"/><path d="m111.011719 346.023438h52c3.867187 0 7-3.136719 7-7 0-3.867188-3.132813-7-7-7h-52c-3.867188 0-7 3.132812-7 7 0 3.863281 3.132812 7 7 7zm0 0"/><path d="m242.011719 34.691406c-2.34375 0-4.53125 1.175782-5.832031 3.125l-16.660157 25.074219c-7.074219 10.714844-5.652343 24.921875 3.398438 34.027344 10.542969 10.550781 27.644531 10.554687 38.1875.003906 9.058593-9.105469 10.476562-23.316406 3.398437-34.035156l-16.664062-25.0625c-1.296875-1.957031-3.484375-3.128907-5.828125-3.132813zm10.828125 35.941406c3.40625 5.164063 2.722656 12.011719-1.644532 16.394532-5.070312 5.074218-13.296874 5.074218-18.367187 0l-.007813-.003906c-4.359374-4.382813-5.042968-11.226563-1.640624-16.386719l10.832031-16.296875zm0 0"/></g></svg>