<svg height="454pt" viewBox="-90 0 454 454.00339" width="454pt" xmlns="http://www.w3.org/2000/svg"><path d="m150.003906 25.332031h29.339844v35.453125h-29.339844zm0 0" fill="#fedb41"/><path d="m170.785156 366.503906v68.28125c0 6.746094-5.472656 12.21875-12.222656 12.21875h-106.699219v-138.601562c0-24.300782 19.699219-44 44-44h40.109375c22.519532 28.460937 34.8125 59.0625 34.8125 102.101562zm0 0" fill="#00acea"/><path d="m150.003906 25.332031v35.453125h-29.332031c-13.496094-.003906-24.441406 10.941406-24.4375 24.4375v64.78125h-52.5625v-63.558594l-27.5-27.5 33.613281-33.613281zm0 0" fill="#00acea"/><path d="m135.972656 264.402344h-40.109375c-24.300781 0-44 19.699218-44 44v138.601562h-20.410156c-13.5 0-24.445313-10.941406-24.449219-24.441406l.101563-153.140625c-.066407-23.398437 6.839843-46.289063 19.839843-65.75 7.308594-10.878906 16.066407-20.710937 26.027344-29.226563h43.261719v24.738282c.035156 15.039062 6.097656 29.4375 16.828125 39.96875 8.144531 7.945312 15.796875 16.375 22.910156 25.25zm0 0" fill="#00efd1"/><path d="m52.972656 174.445312h-9.300781v-24.441406h52.5625v24.441406zm0 0" fill="#fedb41"/><g fill="#083863"><path d="m103.5625 134.113281v-48.890625c-.058594-9.222656 7.121094-16.871094 16.332031-17.390625.261719 11.09375 2.246094 22.078125 5.875 32.566407 6.71875 18.933593 22.226563 43.242187 58.152344 51.535156.511719.121094 1.035156.179687 1.558594.179687 3.558593-.007812 6.542969-2.683593 6.941406-6.21875.398437-3.535156-1.921875-6.804687-5.386719-7.601562-23.722656-5.476563-39.875-19.546875-48-42.039063-3.195312-9.09375-4.976562-18.621094-5.292968-28.25h45.601562c3.949219-.085937 7.132812-3.269531 7.21875-7.21875v-35.453125c-.074219-3.972656-3.246094-7.191406-7.21875-7.328125h-129.558594c-1.878906.0625-3.65625.855469-4.949218 2.214844l-33.613282 33.691406c-1.3125 1.328125-2.050781 3.125-2.050781 4.992188-.019531 1.855468.699219 3.644531 1.996094 4.96875l25.402343 25.472656v85.097656c.015626 1.578125.566407 3.101563 1.554688 4.324219-6.285156 6.480469-11.976562 13.507813-17.011719 21-13.796875 20.601563-21.11718725 44.859375-21.019531 69.65625l-.09375 153.144531c.0273438 17.355469 14.097656 31.417969 31.453125 31.4375h127.109375c5.074219-.015625 9.933594-2.050781 13.5-5.660156 3.566406-3.605469 5.546875-8.488281 5.5-13.558594v-68.28125c0-41.871094-11.089844-74.699218-36.210938-106.445312-7.210937-9.101563-14.980468-17.746094-23.261718-25.886719-9.371094-9.222656-14.609375-21.84375-14.527344-34.988281zm69-80.109375h-16v-22h16zm-123.992188 27.488282-22.523437-22.714844 26.636719-26.773438h89.878906v22h-21.890625c-8.277344-.027344-16.222656 3.257813-22.066406 9.121094s-9.097657 13.820312-9.042969 22.097656v57.78125h-39v-56.558594c.023438-1.851562-.695312-3.632812-1.992188-4.953124zm114.992188 285.011718v68.28125c.050781 1.359375-.457031 2.679688-1.398438 3.664063-.941406.984375-2.238281 1.542969-3.601562 1.554687h-100v-131.601562c.132812-20.5625 16.738281-37.210938 37.300781-37.398438h36.683594c21.867187 29 31.015625 57.648438 31.015625 95.5zm-55.25-122.570312c4.628906 4.570312 8.675781 9.070312 12.550781 13.070312h-25c-28.121093 0-51.300781 23.277344-51.300781 51.398438v131.601562h-13.109375c-9.628906-.007812-17.433594-7.808594-17.449219-17.4375l.101563-153.140625c-.09375-22.082031 6.398437-43.695312 18.648437-62.070312 6.554688-9.65625 14.234375-18.503907 22.871094-26.351563h33.9375v18.179688c-.070312 16.839844 6.695312 32.992187 18.75 44.75zm-18.75-76.929688h-37.390625l-.757813-.644531c-.265624.21875-.851562.65625-.851562.875v-10.230469h39zm0 0"/><path d="m223.671875 44.003906c0 3.867188 3.136719 7 7 7h35.453125c3.863281 0 7-3.132812 7-7 0-3.867187-3.136719-7-7-7h-35.453125c-3.863281 0-7 3.132813-7 7zm0 0"/><path d="m251.613281.386719-35.441406 12.214843c-2.375.808594-4.140625 2.824219-4.621094 5.285157-.480469 2.464843.390625 4.996093 2.289063 6.636719 1.898437 1.644531 4.527344 2.144531 6.894531 1.316406l35.441406-12.222656c3.65625-1.257813 5.597657-5.242188 4.335938-8.898438s-5.246094-5.597656-8.898438-4.335938zm0 0"/><path d="m253.894531 87.335938c3.421875.003906 6.34375-2.46875 6.910157-5.84375.566406-3.375-1.394532-6.664063-4.628907-7.777344l-35.441406-12.21875c-3.652344-1.261719-7.636719.679687-8.898437 4.335937-1.261719 3.65625.679687 7.640625 4.335937 8.898438l35.441406 12.222656c.734375.25 1.503907.382813 2.28125.382813zm0 0"/><path d="m89.265625 342.003906c-3.867187 0-7 3.132813-7 7 0 3.867188 3.132813 7 7 7h47.296875c3.867188 0 7-3.132812 7-7 0-3.867187-3.132812-7-7-7zm0 0"/><path d="m126.664062 384.003906h-37.398437c-3.867187 0-7 3.132813-7 7 0 3.867188 3.132813 7 7 7h37.398437c3.867188 0 7-3.132812 7-7 0-3.867187-3.132812-7-7-7zm0 0"/></g></svg>