<svg height="437pt" viewBox="-106 0 437 437.48121" width="437pt" xmlns="http://www.w3.org/2000/svg"><path d="m218.742188 296.980469v113c0 11.046875-8.953126 20.003906-20 20h-120c-11.046876.003906-20.003907-8.953125-20-20v-113l18.757812-7.609375c19.039062-7.714844 40.703125-5.15625 57.421875 6.78125l3.390625 2.429687c16.117188 11.511719 36.882812 14.328125 55.488281 7.519531zm0 0" fill="#00acea"/><path d="m218.742188 219.980469v77l-24.941407 9.121093c-18.605469 6.808594-39.371093 3.992188-55.488281-7.519531l-3.390625-2.429687c-16.71875-11.9375-38.382813-14.496094-57.421875-6.78125l-18.757812 7.609375v-77c-.003907-32.601563 19.777343-61.945313 50-74.179688v-34.820312h60v34.820312c30.214843 12.242188 49.988281 41.578125 50 74.179688zm0 0" fill="#00efd1"/><path d="m152.242188 71.980469v39h-27v-39zm0 0" fill="#00acea"/><path d="m49.800781 96.742188c4.585938 6.199218 3.722657 14.863281-1.992187 20.039062-5.714844 5.171875-14.421875 5.171875-20.136719 0-5.714844-5.175781-6.574219-13.839844-1.992187-20.039062l12.0625-16.332032zm0 0" fill="#00acea"/><g fill="#083863"><path d="m78.742188 437.480469h120c14.886718 0 26.5-12.609375 26.5-27.5v-190c.058593-23.085938-9.117188-45.238281-25.484376-61.523438-7.191406-7.175781-14.515624-12.960937-24.515624-17.234375v-30.242187c.09375-1.75-.5625-3.457031-1.800782-4.699219-1.242187-1.238281-2.949218-1.894531-4.699218-1.800781h-9.5v-32.5c0-3.867188-3.136719-6.5-7-6.5h-7v-31.40625l40.578124 3.875c2.464844.234375 4.878907-.808594 6.394532-2.769531l18.0625-24c2.320312-3.078126 1.703125-7.457032-1.375-9.773438-3.082032-2.320312-7.457032-1.703125-9.777344 1.375l-15.632812 20.855469-54.25-5.214844c-31.242188-2.988281-62.542969 5.074219-88.453126 22.78125-3.191406 2.183594-4.007812 6.542969-1.824218 9.730469 2.183594 3.191406 6.542968 4.007812 9.730468 1.824218 23.109376-15.851562 51.058594-23.074218 78.957032-20.398437l3.589844.367187v32.753907h-6c-3.863282 0-7 2.632812-7 6.5v32.5h-9.5c-3.863282 0-7.5 2.632812-7.5 6.5v30.242187c-30.429688 14.445313-49.875 45.070313-50 78.757813v190c.210937 15.097656 12.398437 27.289062 27.5 27.5zm120-14h-120c-7.371094-.203125-13.300782-6.128907-13.5-13.5v-108.285157l14.636718-5.835937c16.847656-6.863281 36.039063-4.605469 50.839844 5.980469l3.460938 2.4375c11.371093 8.121094 24.996093 12.484375 38.96875 12.484375 7.78125 0 15.496093-1.386719 22.789062-4.085938l15.300781-5.679687v102.984375c.003907 7.167969-5.328125 13.5-12.496093 13.5zm-66.5-344h13v25h-13zm-21.375 72.808593c2.644531-1.070312 4.375-3.636718 4.375-6.488281v-27.320312h46v27.320312c.105468 2.894531 1.921874 5.445313 4.621093 6.488281 27.492188 11.230469 45.433594 37.996094 45.378907 67.691407v72.105469l-20.101563 7.441406c-16.386719 6.019531-34.691406 3.535156-48.878906-6.636719l-3.339844-2.4375c-18.726563-13.386719-43.011719-16.242187-64.335937-7.570313l-9.347657 3.703126v-66.605469c-.082031-29.777344 17.996094-56.597657 45.628907-67.691407zm0 0"/><path d="m55.429688 92.582031-12.058594-16.332031c-1.320313-1.785156-3.410156-2.839844-5.628906-2.839844-2.222657 0-4.3125 1.054688-5.632813 2.839844l-12.054687 16.332031c-6.421876 8.769531-5.519532 20.90625 2.125 28.632813l.007812.007812c8.597656 8.582032 22.519531 8.578125 31.113281-.007812 7.648438-7.722656 8.550781-19.863282 2.128907-28.632813zm-12.019532 18.71875c-2.960937 2.964844-7.703125 3.144531-10.875.414063-3.175781-2.726563-3.710937-7.441406-1.226562-10.8125l6.429687-8.707032 6.433594 8.714844c2.375 3.167969 2.046875 7.605469-.761719 10.394532zm0 0"/><path d="m.242188 135.980469v18c0 3.867187 3.132812 7 7 7 3.863281 0 7-3.132813 7-7v-18c0-3.867188-3.136719-7-7-7-3.867188 0-7 3.132812-7 7zm0 0"/><path d="m29.242188 163.980469v16c0 3.867187 3.132812 7 7 7 3.863281 0 7-3.132813 7-7v-16c0-3.867188-3.136719-7-7-7-3.867188 0-7 3.132812-7 7zm0 0"/></g></svg>