<svg height="426pt" viewBox="-42 0 425 426" width="426pt" xmlns="http://www.w3.org/2000/svg"><path d="m327.722656 109.921875c11.105469 18.960937 6.941406 43.167969-9.863281 57.328125-16.808594 14.164062-41.371094 14.164062-58.175781 0-16.804688-14.160156-20.96875-38.367188-9.863282-57.328125l38.949219-66.492187zm0 0" fill="#00acea"/><path d="m116.921875 148.871094h70.167969c22.09375 0 40 17.90625 40 40v190c0 22.089844-17.90625 40-40 40h-140c-22.089844 0-40-17.910156-40-40v-190c0-22.09375 17.910156-40 40-40zm60.167969 153v-36h-42v-42h-36v42h-42v36h42v42h36v-42zm0 0" fill="#00acea"/><path d="m177.089844 265.871094v36h-42v42h-36v-42h-42v-36h42v-42h36v42zm0 0" fill="#00efd1"/><path d="m177.089844 109.871094v39h-26.667969v-59h6.667969c11.046875-.003906 20.003906 8.953125 20 20zm0 0" fill="#fedb41"/><path d="m152.089844 44.871094v15h-70v-15c0-19.332032 15.671875-35 35-35 19.332031 0 35 15.667968 35 35zm0 0" fill="#00acea"/><path d="m150.421875 90v58.871094h-33.5v-59h33.5zm0 0" fill="#f4b844"/><path d="m142.089844 59.871094v30h-50v-30zm0 0" fill="#00efd1"/><path d="m116.921875 90v58.871094h-33.5v-59h33.5zm0 0" fill="#fedb41"/><path d="m83.421875 90v58.871094h-26.332031v-39c0-11.046875 8.957031-20 20-20h6.332031zm0 0" fill="#f4b844"/><g fill="#083863"><path d="m152.089844 67c3.972656-.03125 7.230468-3.160156 7.410156-7.128906v-9.121094c0-.710938.148438-1.46875.136719-2.257812-.335938-18.175782 14.113281-33.1875 32.289062-33.542969l89.949219-.820313c3.863281-.085937 6.9375-3.257812 6.90625-7.121094-.03125-3.859374-3.15625-6.9804682-7.019531-7.007812h-.0625l-90.050781.886719c-15.796876.28125-30.394532 8.476562-38.863282 21.8125-1.707031-2.738281-3.71875-5.269531-6-7.550781-7.78125-7.886719-18.40625-12.3125-29.484375-12.285157-11.117187.019531-21.765625 4.457031-29.609375 12.339844-7.839844 7.878906-12.226562 18.550781-12.191406 29.667969v15c0 3.863281 2.726562 7.128906 6.589844 7.128906h3.410156v16h-8.410156c-7.101563-.003906-13.910156 2.832031-18.90625 7.882812-4.996094 5.046876-7.761719 11.886719-7.683594 18.988282v32.128906h-3.410156c-12.402344 0-24.296875 4.949219-33.042969 13.746094-8.742187 8.796875-13.621094 20.71875-13.546875 33.125v190c0 25.914062 20.675781 47.128906 46.589844 47.128906h140c25.917968 0 47.410156-21.214844 47.410156-47.128906v-190c0-25.917969-21.492188-46.871094-47.410156-46.871094h-2.589844v-32.128906c0-14.890625-12.519531-26.871094-27.410156-26.871094h-7.589844v-16zm-62.589844-22.128906c0-15.464844 12.535156-28 28-28s28 12.535156 28 28v8.128906h-56zm54 52.128906v45h-20v-45zm-34 45h-19v-45h19zm-45-32.128906c-.195312-6.871094 5.136719-12.632813 12-12.972656v45.101562h-12zm156 269.128906c0 18.226562-14.773438 33-33 33h-140c-18.222656 0-33-14.773438-33-33v-190c0-18.226562 14.777344-33 33-33h140c18.226562 0 33 14.773438 33 33zm-50-269.128906v32.128906h-13v-45.113281c7.105469.160156 12.832031 5.878906 13 12.984375zm-35-26.871094h-36v-16h36zm0 0"/><path d="m251.902344 169.601562c18.542968 18.542969 47.980468 20.425782 68.734375 4.394532 20.757812-16.027344 26.378906-44.984375 13.125-67.613282l-38.949219-66.492187c-1.257812-2.144531-3.558594-3.460937-6.042969-3.460937s-4.785156 1.316406-6.039062 3.460937l-38.949219 66.492187c-11.980469 20.464844-8.644531 46.441407 8.121094 63.21875zm3.957031-56.144531 32.910156-56.179687 32.910157 56.179687c9.386718 16.023438 5.867187 36.476563-8.332032 48.441407-14.199218 11.964843-34.953125 11.964843-49.152344 0-14.203124-11.964844-17.71875-32.417969-8.335937-48.441407zm0 0"/><path d="m57.089844 309h35.410156v34.871094c0 3.863281 2.726562 7.128906 6.589844 7.128906h36c3.972656-.03125 7.230468-3.160156 7.410156-7.128906v-34.871094h34.589844c3.972656-.03125 7.230468-3.160156 7.410156-7.128906v-36c0-3.867188-3.542969-6.871094-7.410156-6.871094h-34.589844v-35.128906c0-3.867188-3.542969-6.871094-7.410156-6.871094h-36c-1.800782-.011719-3.527344.714844-4.773438 2.015625s-1.902344 3.054687-1.816406 4.855469v35.128906h-35.410156c-1.800782-.011719-3.527344.714844-4.773438 2.015625s-1.902344 3.054687-1.816406 4.855469v36c0 3.863281 2.726562 7.128906 6.589844 7.128906zm7.410156-36h34.589844c3.972656-.03125 7.230468-3.160156 7.410156-7.128906v-34.871094h22v34.871094c0 3.863281 2.726562 7.128906 6.589844 7.128906h35.410156v22h-35.410156c-1.800782-.011719-3.527344.714844-4.773438 2.015625s-1.902344 3.054687-1.816406 4.855469v35.128906h-22v-35.128906c0-3.867188-3.542969-6.871094-7.410156-6.871094h-34.589844zm0 0"/></g></svg>