<svg height="466pt" viewBox="-13 0 466 466.46735" width="466pt" xmlns="http://www.w3.org/2000/svg"><path d="m408.234375 318.066406h25v48h-25zm0 0" fill="#fedb41"/><path d="m408.234375 318.066406v48h-31.671875v-48zm0 0" fill="#00acea"/><path d="m386.304688 432.949219 1.429687 27h-150l1.371094-27zm0 0" fill="#fedb41"/><path d="m385.042969 408.949219 1.261719 24h-147.199219l1.207031-24zm0 0" fill="#00acea"/><path d="m383.132812 372.816406 1.910157 36.132813h-144.730469l3.371094-66.632813h45.558594c.132812 13.15625 10.835937 23.75 23.992187 23.75h69.539063zm0 0" fill="#00efd1"/><path d="m379.972656 313.007812.269532 5.058594h-67.007813c-13.253906 0-24 10.746094-24 24-.003906.085938 0 .167969.007813.25h-45.558594l.011718-.25.507813-.648437 12.589844-242.519531c.535156-5.089844 4.824219-8.953126 9.941406-8.949219h26v-19h40v19h26c5.113281-.003907 9.40625 3.859375 9.9375 8.949219l10.09375 191.167968zm0 0" fill="#00efd1"/><path d="m344.902344 318.066406h31.660156v48h-31.660156zm0 0" fill="#fedb41"/><path d="m313.234375 318.066406h31.667969v48h-31.667969zm0 0" fill="#00acea"/><path d="m332.734375 51.949219h-50v-40l.628906-.210938c19.0625-6.359375 39.675781-6.359375 58.742188 0l.628906.210938v40zm0 0" fill="#00acea"/><path d="m292.734375 51.949219h40v19h-40zm0 0" fill="#fedb41"/><path d="m289.242188 342.316406c-.007813-.082031-.011719-.164062-.007813-.25 0-13.253906 10.746094-24 24-24v48c-13.15625 0-23.859375-10.59375-23.992187-23.75zm0 0" fill="#fedb41"/><path d="m146.964844 363.816406c-1.179688 5.257813-5.84375 8.996094-11.230469 9h-128.5c.007813-12.699218 10.300781-22.992187 23-23h105.5c3.488281.007813 6.785156 1.59375 8.964844 4.3125 2.183593 2.71875 3.015625 6.28125 2.265625 9.6875zm0 0" fill="#00efd1"/><path d="m127.234375 246.066406v20c0 13.253906-10.746094 24-24 24h-77c-2.210937 0-4-1.789062-4-4 .003906-11.042968 8.957031-19.996094 20-20h33.597656c16.78125 0 33.078125-5.625 46.28125-15.980468zm0 0" fill="#00acea"/><g fill="#083863"><path d="m433.234375 311.457031h-46.351563l-11.21875-212.734375c-.003906-.117187-.015624-.582031-.027343-.699218-.855469-8.730469-8.128907-15.429688-16.902344-15.566407h-19.5v-24h3.5c1.75.09375 3.460937-.5625 4.699219-1.804687 1.242187-1.242188 1.894531-2.953125 1.800781-4.703125v-40c.105469-2.96875-1.730469-5.660157-4.53125-6.640625l-.507813-.210938c-20.488281-6.796875-42.625-6.796875-63.113281 0l-.847656.210938c-2.902344.929687-4.90625 3.589844-5 6.636718v40c0 3.867188 3.632813 6.511719 7.5 6.511719h2.5v24h-18.5c-8.753906.089844-16.035156 6.757813-16.902344 15.46875-.011719.121094-.019531.433594-.027343.554688l-12.292969 236.976562h-22.277344c-2.097656-.027343-4.089844.894531-5.425781 2.507813-9.792969 11.859375-24.417969 18.65625-39.792969 18.492187h-16.359375c-2.078125-8.210937-9.453125-13.972656-17.921875-14h-1.5v-31.390625c0-3.863281-3.132813-7-7-7s-7 3.136719-7 7v31.390625h-7v-31.390625c0-3.863281-3.132813-7-7-7s-7 3.136719-7 7v31.390625h-7v-31.390625c0-3.863281-3.132813-7-7-7s-7 3.136719-7 7v31.390625h-7v-31.390625c0-3.863281-3.132813-7-7-7s-7 3.136719-7 7v31.390625h-7v-31.390625c0-3.863281-3.132813-7-7-7s-7 3.136719-7 7v31.390625h-6c-.335937 0-.667969.375-1 .382813v-31.773438c0-3.863281-3.132813-7-7-7s-7 3.136719-7 7v35.769532c-2.269531 1.3125-4.355469 2.917968-6.210937 4.769531-5.640626 5.542969-8.808594 13.125-8.789063 21.03125.007813 1.839843.753906 3.597656 2.070313 4.878906 1.316406 1.28125 3.089843 1.980469 4.929687 1.941406h128.5c4.90625.011719 9.617187-1.9375 13.078125-5.417969 1.082031-1.082031 2.011719-1.582031 2.785156-3.582031h18.417969c9.679687.074219 19.261719-2 28.042969-6.078125 7.640625-3.703125 14.546875-8.757812 20.386718-14.921875h17.871094l-5.574218 110.199219c-.09375 1.835938.605468 3.621094 1.917968 4.902344 1.351563 1.3125 3.191406 2 5.074219 1.898437h150c1.886719.089844 3.730469-.613281 5.078125-1.9375 1.3125-1.269531 2.011719-3.046875 1.910156-4.867187l-4.570312-86.195313h43.082031c3.867187 0 7-3.523437 7-7.390625v-48c-.015625-1.816406-.773437-3.546875-2.09375-4.792968-1.320313-1.25-3.09375-1.902344-4.90625-1.816407zm-293.101563 50.847657c-.191406.777343-.613281 1.480468-1.214843 2.011718-.863281.796875-2.011719 1.210938-3.183594 1.140625h-119.894531c.925781-1.507812 1.953125-2.949219 3.082031-4.308593 2.996094-3.011719 7.066406-4.699219 11.3125-4.691407h105.5c2.519531.089844 4.511719 2.160157 4.5 4.679688.003906.390625-.03125.78125-.101563 1.167969zm166.101563-4.773438c-6.007813-2.730469-9.902344-8.683594-9.992187-15.28125 0-.101562 0-.203125-.007813-.296875.015625-4.46875 1.804687-8.746094 4.972656-11.898437 1.453125-1.449219 3.15625-2.621094 5.027344-3.464844zm14-32.074219h18v34h-18zm32 0h17v34h-17zm31 0h18v34h-18zm-94-308.347656c15-4.152344 32-4.152344 46 0v27.347656h-46zm36 41.347656v5h-26v-5zm-61.460937 40.863281c.1875-1.535156 1.421874-2.726562 2.960937-2.863281h26c1.75.09375 3.460937-.5625 4.699219-1.804687 1.242187-1.242188 1.894531-2.953125 1.800781-4.703125v-12.492188h26v12.492188c0 3.863281 3.632813 6.507812 7.5 6.507812h26c1.527344.105469 2.765625 1.277344 2.960937 2.792969l10.078126 191.257812 1.089843 20.949219h-59.628906c-8.210937-.0625-16.105469 3.160157-21.921875 8.957031-4.226562 4.0625-7.132812 9.304688-8.335938 15.042969h-31.441406zm115.152343 326.136719h-132.464843l.507812-10h131.429688zm-133.828125 27 .65625-13h133.914063l.683593 13zm132.5625-51h-129.984375l2.664063-52h32.769531c3.289063 13 15.589844 24 30.125 24h62.898437zm48.574219-42h-11v-34h11zm0 0"/><path d="m26.234375 297.457031h77c17.09375 0 31-14.300781 31-31.390625v-20c0-2.679687-1.53125-5.121094-3.941406-6.292968-2.40625-1.171876-5.273438-.867188-7.382813.789062l-5.117187 4.210938c-11.964844 9.421874-26.730469 14.589843-41.960938 14.683593h-33.597656c-7.140625-.089843-14.019531 2.691407-19.089844 7.714844-5.082031 5.089844-7.929687 11.992187-7.910156 19.183594 0 6.09375 4.90625 11.046875 11 11.101562zm6.808594-20.191406c2.433593-2.445313 5.742187-3.816406 9.191406-3.808594h33.597656c15.78125-.164062 31.1875-4.832031 44.402344-13.457031v6.066406c0 9.375-7.625 17.390625-17 17.390625h-73.652344c.394531-2.40625 1.621094-4.59375 3.460938-6.191406zm0 0"/><path d="m327.234375 281.949219c3.867187 0 7-3.136719 7-7v-140c0-3.867188-3.132813-7-7-7s-7 3.132812-7 7v140c0 3.863281 3.132813 7 7 7zm0 0"/><path d="m297.234375 241.949219c3.867187 0 7-3.136719 7-7v-100c0-3.867188-3.132813-7-7-7s-7 3.132812-7 7v100c0 3.863281 3.132813 7 7 7zm0 0"/></g></svg>