<svg height="426pt" viewBox="-96 0 426 426" width="426pt" xmlns="http://www.w3.org/2000/svg"><path d="m212 389c8.285156 0 15 6.714844 15 15s-6.714844 15-15 15h-190c-8.285156 0-15-6.714844-15-15s6.714844-15 15-15zm0 0" fill="#00efd1"/><path d="m202 373v15h-170v-15c.003906-37.316406 24.335938-70.273438 60-81.261719v-23.738281h50v23.738281c35.652344 11.003907 59.980469 43.949219 60 81.261719zm0 0" fill="#00acea"/><path d="m102 224h30v44h-30zm0 0" fill="#fedb41"/><path d="m102 180h30v44h-30zm0 0" fill="#00acea"/><path d="m132 22v158h-30v-158c0-8.285156 6.714844-15 15-15s15 6.714844 15 15zm0 0" fill="#00efd1"/><g fill="#083863"><path d="m22 426h190c12.144531-.011719 21.988281-9.855469 22-22-.015625-12.144531-9.855469-21.984375-22-22h-3v-9c.066406-24.414062-9.640625-47.835938-26.949219-65.050781-9.367187-9.359375-20.640625-16.597657-33.050781-21.222657v-18.726562c0-3.867188-3.132812-7-7-7h-3v-239c-.011719-12.144531-9.855469-21.9882812-22-22-12.144531.015625-21.984375 9.855469-22 22v239h-3c-3.867188 0-7 3.132812-7 7v18.726562c-16.550781 6.195313-30.992188 16.984376-41.625 31.101563-11.980469 15.894531-18.433594 35.269531-18.375 55.171875v9h-3c-12.144531.011719-21.9882812 9.855469-22 22 .015625 12.144531 9.855469 21.984375 22 22zm103-209h-16v-30h16zm-8-203c4.414062.011719 7.988281 3.585938 8 8v151h-16v-151c.003906-4.417969 3.582031-7.996094 8-8zm-8 217h16v30h-16zm-70 142c-.050781-16.871094 5.417969-33.292969 15.570312-46.765625 9.921876-13.179687 23.734376-22.90625 39.484376-27.800781 2.941406-.902344 4.945312-3.617188 4.945312-6.695313v-16.738281h36v16.738281c0 3.078125 2.007812 5.792969 4.945312 6.695313 32.714844 10.097656 55.035157 40.328125 55.054688 74.566406v8h-156zm-22.640625 25.339844c1.492187-1.503906 3.523437-2.347656 5.640625-2.339844h190c4.417969.003906 7.996094 3.582031 8 8-.011719 4.414062-3.585938 7.988281-8 8h-190c-4.417969-.003906-7.996094-3.582031-8-8-.003906-2.125.84375-4.164062 2.359375-5.660156zm0 0"/><path d="m141.921875 318.269531c-3.691406-1.015625-7.519531 1.125-8.582031 4.808594-1.0625 3.679687 1.03125 7.53125 4.699218 8.640625 4.179688 1.453125 8.023438 3.738281 11.300782 6.71875 6.761718 6.199219 9.6875 14.570312 8.6875 24.886719-.371094 3.851562 2.445312 7.269531 6.292968 7.644531.230469.019531.457032.03125.683594.03125 3.601563-.003906 6.613282-2.742188 6.960938-6.324219 2.820312-29.113281-18.417969-43.085937-30.042969-46.40625zm0 0"/></g></svg>