<svg height="403pt" viewBox="-20 0 403 403.00194" width="403pt" xmlns="http://www.w3.org/2000/svg"><path d="m356 395.5h-325c.007812-20.429688 16.570312-36.992188 37-37 16.015625 0 29-12.980469 29-29v-18l.0625-.109375c37.101562 21.863281 83.074219 22.167969 120.464844.804687 37.390625-21.367187 60.46875-61.128906 60.472656-104.195312v-20h16c8.285156 0 15-6.714844 15-15 0-8.28125-6.714844-15-15-15h-16v-101.5h61v162c.007812 19.886719-16.113281 36.007812-36 36v104h16c20.433594.007812 36.996094 16.570312 37 37zm0 0" fill="#00efd1"/><path d="m339 26.5v30h-61v-30c-.003906-11.046875 8.953125-20 20-20h21c11.046875 0 20.003906 8.953125 20 20zm0 0" fill="#00acea"/><path d="m38 188h-16c-8.285156 0-15-6.714844-15-15 0-8.28125 6.714844-15 15-15h272c8.285156 0 15 6.71875 15 15 0 8.285156-6.714844 15-15 15zm0 0" fill="#00acea"/><path d="m278 188v20c0 66.277344-53.726562 120-120 120s-120-53.722656-120-120v-20zm0 0" fill="#fedb41"/><g fill="#083863"><path d="m319 352h-9.5v-91.0625c8.890625-1.40625 17.09375-5.625 23.414062-12.03125 8.085938-8.046875 12.617188-18.996094 12.585938-30.40625v-192c.085938-7.050781-2.675781-13.84375-7.664062-18.832031-4.992188-4.988281-11.78125-7.7539065-18.835938-7.667969h-21c-14.886719 0-27.5 11.613281-27.5 26.5v54.5h-5.5c-3.863281 0-7 3.136719-7 7 0 3.867188 3.136719 7 7 7h5.5v56h-248.5c-12.144531.015625-21.9882812 9.855469-22 22 .015625 12.148438 9.855469 21.988281 22 22h8.5v13c-.007812 22.449219 5.9375 44.5 17.230469 63.902344 10.308593 17.546875 24.621093 32.410156 41.769531 43.371094v14.226562c.050781 5.808594-2.214844 11.394531-6.300781 15.523438-4.082031 4.132812-9.640625 6.460937-15.449219 6.476562-11.636719-.027344-22.800781 4.617188-30.984375 12.894531-8.269531 8.335938-12.882813 19.617188-12.828125 31.355469.011719 3.929688 3.136719 7.140625 7.0625 7.25h325c3.914062-.117188 7.019531-3.332031 7-7.25-.011719-11.640625-4.660156-22.800781-12.917969-31.007812-8.253906-8.210938-19.4375-12.792969-31.082031-12.742188zm-21-338h21c3.34375-.089844 6.574219 1.199219 8.9375 3.5625 2.367188 2.367188 3.652344 5.597656 3.5625 8.9375v23.5h-47v-23.5c0-7.167969 6.332031-12.5 13.5-12.5zm-284 159c.011719-4.410156 3.589844-7.984375 8-8h272c4.417969.007812 7.996094 3.585938 8 8-.011719 4.414062-3.585938 7.988281-8 8h-272c-4.414062-.003906-7.992188-3.582031-8-8zm30.5 35v-13h226v13c.109375 29.941406-11.707031 58.6875-32.839844 79.894531-21.136718 21.203125-49.847656 33.117188-79.785156 33.105469-62.503906.085938-113.25-50.496094-113.375-113zm-5.683594 181c1.132813-5.515625 3.914063-10.558594 7.972656-14.457031 5.503907-5.671875 13.058594-8.886719 20.960938-8.917969 19.851562-.097656 35.855469-16.273438 35.75-36.125v-6.539062c16.992188 7.914062 35.507812 12.023437 54.25 12.039062 33.65625-.011719 65.925781-13.402344 89.699219-37.226562 23.777343-23.820313 37.105469-56.117188 37.050781-89.773438v-13h9.5c12.144531-.011719 21.988281-9.851562 22-22-.011719-12.144531-9.855469-21.984375-22-22h-9.5v-87h47v154.5c.113281 7.664062-2.851562 15.050781-8.234375 20.507812-5.480469 5.457032-12.90625 8.515626-20.640625 8.492188-3.890625-.007812-7.066406 3.113281-7.125 7v104c.195312 4.0625 3.441406 7.308594 7.5 7.5h16c7.960938-.019531 15.597656 3.144531 21.210938 8.789062 4.054687 3.804688 6.839843 8.769532 7.972656 14.210938zm0 0"/><path d="m129 276.5c0-3.863281-3.132812-7-7-7-16.964844 0-38.558594-9.027344-45.078125-52.046875-.578125-3.824219-4.148437-6.449219-7.972656-5.871094-3.820313.578125-6.449219 4.148438-5.871094 7.972657 2.851563 18.796874 8.824219 33.855468 17.757813 44.761718 10.285156 12.550782 24.519531 19.183594 41.164062 19.183594 3.867188 0 7-3.132812 7-7zm0 0"/></g></svg>