<svg height="448pt" viewBox="-53 0 448 448" width="448pt" xmlns="http://www.w3.org/2000/svg"><path d="m331.21875 103.230469c7.386719 12.601562 4.617188 28.691406-6.550781 38.105469-11.167969 9.410156-27.496094 9.410156-38.664063 0-11.171875-9.414063-13.9375-25.503907-6.554687-38.105469l25.890625-44.191407zm0 0" fill="#00acea"/><path d="m141.660156 62.71875h-67v-16.390625c.007813-21.683594 17.585938-39.257813 39.269532-39.257813h174.730468v14.167969l-89.988281.832031c-22.089844.359376-39.703125 18.5625-39.339844 40.648438zm0 0" fill="#00acea"/><path d="m181.660156 148.570312h1.730469c27.109375 18.652344 43.292969 49.457032 43.269531 82.359376v170c0 22.089843-17.90625 40-40 40h-140c-22.089844 0-40-17.910157-40-40v-170c-.015625-32.90625 16.171875-63.710938 43.28125-82.359376zm-20.808594 148.71875v-26.488281h-30.890624v-30.890625h-26.492188v30.890625h-30.886719v26.488281h30.886719v30.890626h26.492188v-30.890626zm0 0" fill="#00acea"/><path d="m181.660156 122.070312v26.5h-130v-26.5zm0 0" fill="#fedb41"/><path d="m166.660156 121.929688v.140624h-100v-30.140624h100zm0 0" fill="#00acea"/><path d="m160.851562 270.800781v26.488281h-30.890624v30.890626h-26.492188v-30.890626h-30.886719v-26.488281h30.886719v-30.890625h26.492188v30.890625zm0 0" fill="#00efd1"/><path d="m91.660156 62.71875h50v29.210938h-50zm0 0" fill="#00efd1"/><g fill="#083863"><path d="m288.660156 0h-174.730468c-6.074219.00390625-12.09375 1.210938-17.699219 3.554688-5.570313 2.320312-10.621094 5.738281-14.847657 10.046874-8.601562 8.71875-13.410156 20.480469-13.382812 32.726563v16.390625c0 3.867188 2.792969 7.28125 6.660156 7.28125h10.339844v15h-18.339844c-1.8125-.003906-3.550781.734375-4.808594 2.042969-1.257812 1.308593-1.925781 3.074219-1.851562 4.886719v23.070312h-8.339844c-1.828125.03125-3.566406.796875-4.820312 2.128906-1.253906 1.332032-1.917969 3.113282-1.839844 4.941406v21.667969c-29 20.089844-45 52.558594-45 87.191407v170c-.0664062 12.433593 4.816406 24.382812 13.570312 33.210937 8.753907 8.828125 20.65625 13.816406 33.089844 13.859375h140c25.917969 0 47.339844-21.152344 47.339844-47.070312v-170c-.105469-34.613282-16.851562-67.0625-45-87.199219v-21.660157c-.152344-3.945312-3.390625-7.0625-7.339844-7.070312h-7.660156v-23.070312c-.167969-3.914063-3.421875-6.988282-7.339844-6.929688h-17.660156v-15h10.332031c3.933594-.132812 7.046875-3.386719 7-7.324219-.3125-18.214843 14.183594-33.242187 32.398438-33.585937l90.160156-.839844c3.878906-.027344 7.03125-3.132812 7.109375-7.011719v-14.167969c-.152344-3.945312-3.390625-7.0624995-7.339844-7.070312zm-68.660156 230.929688v170c0 18.199218-15.144531 33.070312-33.339844 33.070312h-140c-8.71875-.039062-17.066406-3.550781-23.195312-9.753906-6.128906-6.207032-9.535156-14.59375-9.464844-23.316406v-170c0-29.851563 14.015625-57.929688 38.164062-74.929688h129c24.324219 17.207031 38.800782 45.136719 38.835938 74.929688zm-45-88.929688h-116v-13h116zm-15-27h-86v-16h86zm-25-30h-36v-15h36zm147-70.695312-83.273438.765624c-23.300781.496094-42.789062 17.84375-45.980468 40.929688h-70.746094v-9.671875c-.039062-8.53125 3.300781-16.734375 9.289062-22.816406 5.976563-6.058594 14.128907-9.484375 22.640626-9.511719h168.070312zm0 0"/><path d="m279.183594 144.5625c13.164062 13.140625 34.042968 14.46875 48.761718 3.09375 14.722657-11.371094 18.710938-31.90625 9.316407-47.964844l-25.882813-44.191406c-1.253906-2.144531-3.550781-3.460938-6.039062-3.464844-2.484375 0-4.785156 1.320313-6.039063 3.464844l-25.890625 44.191406c-8.507812 14.527344-6.136718 32.96875 5.773438 44.871094zm6.308594-37.792969 19.847656-33.878906 19.839844 33.878906c5.835937 9.980469 3.355468 22.742188-5.792969 29.808594-9.148438 7.070313-22.121094 6.246094-30.304688-1.917969-7.402343-7.398437-8.878906-18.859375-3.589843-27.890625zm0 0"/><path d="m72.582031 304h23.417969v24.179688c0 3.867187 3.601562 6.820312 7.46875 6.820312h26.492188c1.839843.042969 3.621093-.65625 4.945312-1.9375s2.078125-3.039062 2.09375-4.882812v-24.179688h23.851562c1.839844.070312 3.632813-.601562 4.976563-1.859375 1.34375-1.261719 2.125-3.007813 2.171875-4.851563v-26.488281c-.042969-1.851562-.820312-3.609375-2.160156-4.886719-1.34375-1.277343-3.136719-1.964843-4.988282-1.914062h-23.851562v-24.089844c-.011719-1.851562-.761719-3.621094-2.082031-4.917968-1.324219-1.296876-3.105469-2.015626-4.957031-1.992188h-26.492188c-3.863281 0-7.46875 3.042969-7.46875 6.910156v24.089844h-23.417969c-1.792969-.027344-3.519531.6875-4.765625 1.972656-1.246094 1.289063-1.902344 3.035156-1.816406 4.828125v26.488281c-.082031 1.78125.578125 3.519532 1.828125 4.792969 1.246094 1.273438 2.96875 1.96875 4.753906 1.917969zm7.417969-26h23.46875c3.867188 0 6.53125-3.335938 6.53125-7.199219v-23.800781h13v23.800781c-.035156 3.898438 3.0625 7.101563 6.960938 7.199219h24.039062v12h-24.039062c-3.914063.140625-7 3.375-6.960938 7.289062v23.710938h-13v-23.710938c0-3.863281-2.664062-7.289062-6.53125-7.289062h-23.46875zm0 0"/><path d="m161.152344 351h-88.273438c-3.863281 0-7 3.132812-7 7s3.136719 7 7 7h88.273438c3.863281 0 7-3.132812 7-7s-3.136719-7-7-7zm0 0"/><path d="m161.152344 373h-88.273438c-3.863281 0-7 3.132812-7 7s3.136719 7 7 7h88.273438c3.863281 0 7-3.132812 7-7s-3.136719-7-7-7zm0 0"/></g></svg>