<svg height="415pt" viewBox="-78 0 415 415.86394" width="415pt" xmlns="http://www.w3.org/2000/svg"><path d="m57.101562 138.734375h130c22.09375 0 40 17.90625 40 40v190c0 22.089844-17.90625 40-40 40h-140c-22.089843 0-40-17.910156-40-40v-190c0-22.09375 17.910157-40 40-40zm130 135c0-38.660156-31.339843-70-70-70-38.660156 0-70 31.339844-70 70s31.339844 70 70 70c38.660157 0 70-31.339844 70-70zm0 0" fill="#00acea"/><path d="m177.101562 99.734375v39h-120v-39c-.003906-11.046875 8.953126-20.003906 20-20h80c11.046876 0 20 8.953125 20 20zm0 0" fill="#00efd1"/><path d="m187.101562 273.734375c0 38.660156-31.339843 70-70 70-38.660156 0-70-31.339844-70-70s31.339844-70 70-70c38.660157 0 70 31.339844 70 70zm0 0" fill="#00efd1"/><path d="m162.101562 9.734375v40h-90v-40zm0 0" fill="#fedb41"/><path d="m92.101562 49.734375h50v30h-50zm0 0" fill="#00acea"/><g fill="#083863"><path d="m162.101562 56.863281c3.4375-.03125 6.351563-2.53125 6.902344-5.921875.296875-.816406.441406-1.679687.429688-2.550781-.277344-18.21875 14.238281-33.226563 32.453125-33.5625l49.992187-.828125c3.867188-.0625 6.949219-3.25 6.882813-7.113281-.0625-3.867188-3.246094-6.949219-7.113281-6.886719l-49.828126.820312c-12.214843.132813-23.875 5.136719-32.386718 13.902344v-4.988281c0-3.871094-3.464844-6.871094-7.332032-6.871094h-90c-1.808593-.015625-3.546874.710938-4.804687 2.007813-1.261719 1.296875-1.933594 3.054687-1.863281 4.863281v40c-.078125 1.835937.582031 3.625 1.835937 4.964844 1.253907 1.339843 2.996094 2.121093 4.832031 2.164062h13.332032v16h-8.332032c-7.109374-.007812-13.929687 2.828125-18.9375 7.875-5.007812 5.046875-7.792968 11.886719-7.730468 18.996094v32.128906h-3.332032c-12.414062 0-24.316406 4.941407-33.074218 13.738281-8.757813 8.796876-13.652344 20.71875-13.59375 33.132813v190c0 25.914063 20.753906 47.128906 46.667968 47.128906h140c25.917969 0 47.332032-21.214843 47.332032-47.128906v-190c0-25.917969-21.414063-46.871094-47.332032-46.871094h-2.667968v-32.128906c0-14.886719-12.441406-26.871094-27.332032-26.871094h-7.667968v-16zm-82.667968-40h76v26h-76zm141 352c0 18.226563-14.777344 33-33 33h-140c-18.226563 0-33-14.773437-33-33v-190c0-18.226562 14.773437-33 33-33h140c18.222656 0 33 14.773438 33 33zm-50-269.128906v32.128906h-106v-32.128906c-.066406-3.398437 1.238281-6.679687 3.625-9.101563 2.382812-2.421874 5.644531-3.78125 9.042968-3.769531h80c7.167969 0 13.332032 5.699219 13.332032 12.871094zm-35-26.871094h-36v-16h36zm0 0"/><path d="m70.101562 280.863281h40.332032v39.871094c0 3.867187 3.132812 7 7 7 3.863281 0 7-3.132813 7-7v-39.871094h39.667968c3.867188 0 7-3.132812 7-7 0-3.867187-3.132812-7-7-7h-39.667968v-40.128906c0-3.867187-3.136719-7-7-7-3.867188 0-7 3.132813-7 7v40.128906h-40.332032c-3.863281 0-7 3.132813-7 7 0 3.867188 3.136719 7 7 7zm0 0"/><path d="m117.101562 350.734375c42.527344 0 77-34.472656 77-77s-34.472656-77-77-77c-42.523437 0-77 34.472656-77 77 .046876 42.503906 34.496094 76.953125 77 77zm0-140c34.792969 0 63 28.207031 63 63s-28.207031 63-63 63c-34.792968 0-63-28.207031-63-63 .039063-34.777344 28.222657-62.960937 63-63zm0 0"/></g></svg>