<svg height="473pt" viewBox="-134 0 473 473.99821" width="473pt" xmlns="http://www.w3.org/2000/svg"><path d="m197.5625 332v110c0 13.808594-42.527344 25-95 25-52.46875 0-95-11.191406-95-25v-110c0 13.808594 42.53125 25 95 25 52.472656 0 95-11.191406 95-25zm0 0" fill="#00acea"/><path d="m177.632812 149.109375c6.066407-.003906 11.804688 2.75 15.597657 7.480469 3.796875 4.730468 5.238281 10.929687 3.921875 16.847656l-31.097656 139.960938-3.492188 15.710937-9.796875 1.628906c-33.238281 5.539063-67.164063 5.539063-100.402344 0l-9.800781-1.628906-3.488281-15.710937-31.101563-139.960938c-1.316406-5.917969.128906-12.117188 3.921875-16.847656 3.796875-4.730469 9.535157-7.484375 15.597657-7.480469zm0 0" fill="#00efd1"/><path d="m166.054688 313.398438c19.339843 4.578124 31.507812 11.21875 31.507812 18.601562 0 13.808594-42.527344 25-95 25-52.46875 0-95-11.191406-95-25 0-7.382812 12.171875-14.023438 31.511719-18.601562l3.488281 15.710937 9.800781 1.628906c33.238281 5.539063 67.164063 5.539063 100.402344 0l9.796875-1.628906zm0 0" fill="#fedb41"/><path d="m139.605469 82h22.957031c11.046875 0 20 8.953125 20 20 0 11.042969-8.953125 20-20 20h-120c-11.042969 0-20-8.957031-20-20 0-11.046875 8.957031-20 20-20h25c-11.042969 0-20-8.957031-20-20 0-11.046875 8.957031-20 20-20h15.472656c9.941406-.003906 19.476563-3.953125 26.507813-10.980469l24.019531-24.019531.171875 1.449219c1.71875 15.078125 8.601563 28.898437 18.730469 40.199219 5.011718 5.605468 6.460937 13.546874 3.75 20.5625-2.714844 7.011718-9.128906 11.914062-16.609375 12.6875zm0 0" fill="#00acea"/><g fill="#083863"><path d="m30.777344 308.324219c-18.933594 5.398437-29.035156 12.785156-30.109375 22.011719-.066407.382812-.097657.773437-.101563 1.164062v111c.003906.375.039063.753906.101563 1.128906 1.105469 9.679688 12.171875 17.351563 32.941406 22.816406 18.507813 4.871094 43 7.554688 68.957031 7.554688 25.957032 0 50.453125-2.683594 68.957032-7.554688 20.753906-5.460937 31.824218-13.121093 32.949218-22.789062.066406-.382812.097656-.769531.097656-1.15625v-111c0-.390625-.03125-.78125-.097656-1.164062-1.074218-9.226563-11.175781-16.613282-30.109375-22.011719l29.636719-133.363281c1.78125-8.007813-.164062-16.390626-5.289062-22.796876-5.121094-6.40625-12.875-10.144531-21.078126-10.164062h-150.140624c-8.195313.019531-15.9375 3.753906-21.058594 10.15625-5.121094 6.398438-7.066406 14.773438-5.292969 22.773438zm135.640625 144.980469c-17.203125 4.316406-39.878907 6.695312-63.855469 6.695312-23.972656 0-46.648438-2.378906-63.851562-6.695312-19.167969-4.804688-23.925782-10.171876-24.148438-11.304688v-92.511719c6.074219 3.007813 12.460938 5.339844 19.042969 6.957031 18.507812 4.871094 43 7.554688 68.957031 7.554688s50.453125-2.683594 68.957031-7.554688c6.585938-1.617187 12.96875-3.949218 19.042969-6.957031v92.484375c-.253906 1.199219-5.046875 6.539063-24.144531 11.332032zm24.144531-121.351563v.019531c-.246094 1.191406-5.027344 6.53125-24.144531 11.332032-17.203125 4.316406-39.878907 6.695312-63.855469 6.695312-23.972656 0-46.648438-2.378906-63.851562-6.695312-19.117188-4.800782-23.898438-10.140626-24.148438-11.257813v-.019531c.234375-1.113282 4.257812-5.609375 19.257812-10.007813l1.910157 8.605469c.621093 2.789062 2.871093 4.917969 5.683593 5.386719l9.800782 1.632812c34 5.675781 68.703125 5.675781 102.699218 0l9.800782-1.632812c2.816406-.46875 5.066406-2.597657 5.6875-5.386719l1.910156-8.605469c14.996094 4.398438 19.015625 8.882813 19.25 9.933594zm-173.210938-171.03125c2.457032-3.101563 6.1875-4.910156 10.140626-4.921875h18.070312v60.609375c0 3.863281 3.136719 7 7 7 3.867188 0 7-3.136719 7-7v-60.609375h11v83.609375c0 3.863281 3.136719 7 7 7 3.867188 0 7-3.136719 7-7v-83.609375h70v30.609375c0 3.863281 3.136719 7 7 7 3.867188 0 7-3.136719 7-7v-30.609375h9.070312c3.949219.023438 7.675782 1.828125 10.140626 4.914062 2.464843 3.085938 3.398437 7.121094 2.546874 10.976563l-31.097656 139.976563v.007812l-2.46875 11.097656-5.140625.859375c-32.472656 5.421875-65.625 5.421875-98.097656 0l-5.140625-.855469-33.566406-151.085937c-.867188-3.855469.070312-7.890625 2.542968-10.96875zm0 0"/><path d="m42.5625 129h120c14.914062 0 27-12.089844 27-27 0-14.914062-12.085938-27-27-27h-1.328125c5.511719-10.050781 4.085937-22.484375-3.558594-31.023438-9.628906-10.742187-15.5-23.300781-16.988281-36.34375l-.171875-1.449218c-.3125-2.664063-2.121094-4.914063-4.652344-5.796875-2.535156-.878907-5.351562-.234375-7.246093 1.660156l-24.023438 24.019531c-5.730469 5.699219-13.476562 8.910156-21.558594 8.933594h-15.472656c-9.546875-.007812-18.382812 5.027344-23.242188 13.246094-4.859374 8.21875-5.015624 18.390625-.40625 26.753906h-1.351562c-14.910156 0-27 12.085938-27 27 0 14.910156 12.089844 27 27 27zm-9.1875-36.191406c2.429688-2.445313 5.738281-3.820313 9.1875-3.808594h25.5c3.867188 0 7-3.136719 7-7 0-3.867188-3.132812-7-7-7h-.5c-7.179688 0-13-5.820312-13-13s5.820312-13 13-13h15.472656c11.792969-.035156 23.097656-4.71875 31.460938-13.03125l14.691406-14.691406c3.523438 11.90625 9.699219 22.863281 18.0625 32.039062 3.246094 3.632813 4.191406 8.777344 2.449219 13.324219-1.742188 4.550781-5.878907 7.75-10.71875 8.285156-.542969.050781-1 .074219-1.417969.074219h-4.328125c-3.867187 0-7 3.132812-7 7 0 3.863281 3.132813 7 7 7h4.328125c.429688 0 .871094-.015625 1.339844-.035156.230468.019531.464844.03125.699218.035156h22.960938c7.179688 0 13 5.820312 13 13s-5.820312 13-13 13h-120c-5.253906-.003906-9.992188-3.171875-12.003906-8.027344-2.011719-4.855468-.902344-10.445312 2.816406-14.164062zm0 0"/></g></svg>