<svg height="385pt" viewBox="-63 0 385 385.86394" width="385pt" xmlns="http://www.w3.org/2000/svg"><path d="m227.101562 323.734375v15c0 22.089844-17.90625 40-40 40h-140c-22.089843 0-40-17.910156-40-40v-87l15-4.171875c13.503907-3.75 27.921876-2.277344 40.390626 4.121094 12.597656 6.464844 27.179687 7.894531 40.789062 4l13.820312-3.949219v72zm0 0" fill="#00efd1"/><path d="m227.101562 216.734375v107h-110v-107zm0 0" fill="#fedb41"/><path d="m57.101562 138.734375h130c22.09375 0 40 17.90625 40 40v38h-110v35l-13.820312 3.949219c-13.609375 3.894531-28.191406 2.464844-40.789062-4-12.46875-6.398438-26.886719-7.871094-40.390626-4.121094l-15 4.171875v-73c0-22.09375 17.910157-40 40-40zm0 0" fill="#00acea"/><path d="m177.101562 99.734375v39h-120v-39c-.003906-11.046875 8.953126-20.003906 20-20h80c11.046876 0 20 8.953125 20 20zm0 0" fill="#00efd1"/><path d="m162.101562 9.734375v40h-90v-40zm0 0" fill="#00efd1"/><path d="m92.101562 49.734375h50v30h-50zm0 0" fill="#00acea"/><path d="m162.101562 56.863281c3.4375-.03125 6.351563-2.53125 6.902344-5.921875.296875-.816406.441406-1.679687.429688-2.550781-.277344-18.21875 14.238281-33.226563 32.453125-33.5625l49.992187-.828125c3.867188-.0625 6.949219-3.25 6.882813-7.113281-.0625-3.867188-3.246094-6.949219-7.113281-6.886719l-49.828126.820312c-12.214843.132813-23.875 5.136719-32.386718 13.902344v-4.988281c0-3.871094-3.464844-6.871094-7.332032-6.871094h-90c-1.808593-.015625-3.546874.710938-4.804687 2.007813-1.261719 1.296875-1.933594 3.054687-1.863281 4.863281v40c-.078125 1.835937.582031 3.625 1.835937 4.964844 1.253907 1.339843 2.996094 2.121093 4.832031 2.164062h13.332032v16h-8.332032c-7.109374-.007812-13.929687 2.828125-18.9375 7.875-5.007812 5.046875-7.792968 11.886719-7.730468 18.996094v32.128906h-3.332032c-12.414062 0-24.316406 4.941407-33.074218 13.738281-8.757813 8.796876-13.652344 20.71875-13.59375 33.132813v160c0 25.914063 20.753906 47.128906 46.667968 47.128906h140c25.917969 0 47.332032-21.214843 47.332032-47.128906v-160c0-25.917969-21.414063-46.871094-47.332032-46.871094h-2.667968v-32.128906c0-14.886719-12.441406-26.871094-27.332032-26.871094h-7.667968v-16zm-82.667968-40h76v26h-76zm107.667968 355h-140c-8.726562-.050781-17.078124-3.574219-23.203124-9.789062-6.128907-6.214844-9.535157-14.613281-9.464844-23.339844v-81.679687l9.707031-2.746094c11.78125-3.292969 24.375-2.003906 35.242187 3.605468 8.859376 4.535157 18.660157 6.90625 28.609376 6.917969 5.886718.003907 11.742187-.8125 17.402343-2.417969l5.039063-1.398437v62.71875c-.078125 1.835937.585937 3.625 1.839844 4.964844 1.253906 1.339843 2.996093 2.121093 4.832031 2.164062h103.328125v7.871094c-.167969 18.304687-15.023438 33.074219-33.332032 33.128906zm33.332032-55h-96v-93h96zm0-138.128906v31.128906h-103.332032c-1.808593-.015625-3.546874.710938-4.804687 2.007813-1.261719 1.296875-1.933594 3.054687-1.863281 4.863281v29.71875l-8.914063 2.5c-11.941406 3.40625-24.730469 2.15625-35.789062-3.5-13.976563-7.21875-30.167969-8.875-45.316407-4.632813l-5.980468 1.699219v-63.785156c-.0625-8.703125 3.355468-17.066406 9.488281-23.238281 6.136719-6.171875 14.480469-9.640625 23.179687-9.632813h140c18.195313 0 33.332032 14.675781 33.332032 32.871094zm-50-79v32.128906h-106v-32.128906c-.066406-3.398437 1.242187-6.679687 3.625-9.101563 2.382812-2.421874 5.644531-3.78125 9.042968-3.769531h80c7.167969 0 13.332032 5.699219 13.332032 12.871094zm-35-26.871094h-36v-16h36zm0 0" fill="#083863"/></svg>