<svg height="447pt" viewBox="-96 0 447 447" width="447pt" xmlns="http://www.w3.org/2000/svg"><path d="m8.011719 256.898438c-.675781-1.71875-1.015625-3.550782-1.011719-5.398438.011719-8.277344 6.722656-14.988281 15-15h212c8.285156.003906 14.996094 6.71875 15 15-.003906 3.976562-1.585938 7.789062-4.398438 10.601562-2.804687 2.820313-6.621093 4.402344-10.601562 4.398438h-212c-6.199219 0-11.757812-3.816406-13.988281-9.601562zm0 0" fill="#fedb41"/><path d="m88.039062 369.679688c-47.8125-16.921876-79.84375-62.058594-80.027343-112.78125 2.230469 5.785156 7.789062 9.601562 13.988281 9.601562h212c3.980469.003906 7.796875-1.578125 10.601562-4.398438 1.484376-1.472656 2.640626-3.246093 3.386719-5.203124-.148437 38.871093-19.105469 75.261718-50.871093 97.664062-31.769532 22.398438-72.414063 28.03125-109.078126 15.117188zm0 0" fill="#00acea"/><path d="m219 86.5v150h-190v-150c0-44.183594 35.816406-80 80-80h30c44.183594 0 80 35.816406 80 80zm-30 123.679688v-127.359376c0-22.089843-17.910156-40-40-40h-50c-22.089844 0-40 17.910157-40 40v127.359376zm0 0" fill="#00acea"/><path d="m189 82.820312v127.359376h-130v-127.359376c0-22.089843 17.910156-40 40-40h50c22.089844 0 40 17.910157 40 40zm0 0" fill="#00efd1"/><path d="m168 439.5h-80c4.058594-12.191406 6.109375-21.070312 6.109375-30.898438-.101563-6.765624-.875-13.5-2.308594-20.113281l-3.761719-18.808593c25.863282 9.09375 54.058594 9.09375 79.921876 0l-3.761719 18.808593c-4.058594 20.320313-2.75 31.351563 3.800781 51.011719zm0 0" fill="#00efd1"/><g fill="#083863"><path d="m149 36h-50c-25.910156-.054688-46.957031 20.910156-47 46.820312v127.359376c.007812 1.839843.753906 3.597656 2.070312 4.878906 1.316407 1.28125 3.09375 1.980468 4.929688 1.941406h130c1.835938.039062 3.613281-.660156 4.929688-1.941406 1.316406-1.28125 2.0625-3.039063 2.070312-4.878906v-127.359376c-.042969-25.910156-21.089844-46.875-47-46.820312zm33 167h-116v-120.179688c.015625-8.730468 3.503906-17.097656 9.695312-23.253906 6.191407-6.15625 14.574219-9.597656 23.304688-9.566406h50c8.730469-.03125 17.113281 3.410156 23.304688 9.566406 6.191406 6.15625 9.679687 14.523438 9.695312 23.253906zm0 0"/><path d="m234 230h-8v-143.5c0-47.972656-39.027344-86.5-87-86.5h-30c-47.972656 0-87 38.527344-87 86.5v143c-7.007812-.015625-13.601562 3.316406-17.746094 8.964844-4.148437 5.652344-5.34375 12.941406-3.226562 19.621094.3125 33.148437 13.667968 64.839843 37.171875 88.214843 12.457031 12.4375 27.347656 22.167969 43.742187 28.578125l3 14.984375c1.339844 6.160157 2.066406 12.4375 2.171875 18.738281 0 8.324219-1.558593 16.101563-5.75 28.6875-.710937 2.21875-.355469 4.636719.960938 6.558594 1.289062 1.882813 3.394531 3.054688 5.675781 3.152344h80c2.28125-.113281 4.378906-1.28125 5.679688-3.160156 1.300781-1.875 1.65625-4.25.960937-6.425782-6.019531-18.074218-7.464844-28.019531-3.578125-47.488281l3-15.03125c48.203125-18.851562 80.1875-65.019531 80.902344-116.773437.683594-2.050782 1.03125-4.199219 1.035156-6.363282-.015625-5.808593-2.347656-11.367187-6.476562-15.453124-4.128907-4.082032-9.714844-6.351563-15.523438-6.304688zm-198-143.5c0-40.253906 32.75-72.5 73-72.5h30c40.253906 0 73 32.246094 73 72.5v143.5h-176zm-19.640625 159.589844c1.519531-1.433594 3.554687-2.1875 5.640625-2.089844h212c2.09375-.054688 4.121094.738281 5.628906 2.195312 1.503906 1.457032 2.359375 3.460938 2.371094 5.554688.003906.929688-.171875 1.851562-.523438 2.714844-.011718.023437-.019531-.015625-.027343.007812-.398438 1.101563-1.011719 2.109375-1.808594 2.96875-1.46875 1.5625-3.496094 2.484375-5.640625 2.558594h-212c-3.355469-.125-6.308594-2.261719-7.476562-5.410156-.351563-.90625-.527344-1.867188-.523438-2.839844-.003906-2.125.84375-4.164062 2.359375-5.660156zm81.132813 186.910156c2.246093-9 3.617187-15.875 3.617187-24.148438-.101563-7.265624-.917969-14.503906-2.445313-21.609374l-1.476562-7.453126c20.238281 5.003907 41.394531 4.988282 61.625-.046874l-1.476562 7.632812c-3.5 17.519531-3.375 28.625 1.183593 45.625zm68.132812-69.917969c-41.042969 14.507813-86.769531 4.125-117.523438-26.683593-17.289062-17.101563-28.507812-39.390626-31.945312-63.464844 1.890625.617187 3.855469.976562 5.84375 1.066406h212c1.972656-.089844 3.921875-.441406 5.800781-1.042969-6.074219 41.484375-34.632812 76.183594-74.175781 90.125zm0 0"/><path d="m92.253906 319.613281c-26.953125-4.898437-29.1875-27.582031-29.273437-28.636719-.324219-3.816406-3.65625-6.660156-7.476563-6.386718-3.820312.273437-6.710937 3.566406-6.488281 7.386718.824219 11.910157 10.390625 35.890626 40.734375 41.40625 2.472656.480469 5.011719-.40625 6.652344-2.324218 1.636718-1.914063 2.117187-4.5625 1.257812-6.933594s-2.925781-4.09375-5.410156-4.515625zm0 0"/></g></svg>