<svg height="452pt" viewBox="-33 0 452 452" width="452pt" xmlns="http://www.w3.org/2000/svg"><path d="m254 413.621094h125v31h-125zm0 0" fill="#00efd1"/><path d="m281.5 7.378906v69l-7.21875 21h-129.5625l-7.21875-21v-69zm0 0" fill="#00acea"/><path d="m274.28125 97.378906-8.953125 26.0625c-1.378906 4.039063-5.175781 6.757813-9.449219 6.757813h-92.757812c-4.273438 0-8.070313-2.71875-9.449219-6.757813l-8.953125-26.0625zm0 0" fill="#00efd1"/><path d="m229 413.621094h25v31h-25zm0 0" fill="#00acea"/><path d="m241.5 166.378906v14c0 11.046875-8.953125 20-20 20h-24c-5.304688.003906-10.394531-2.101562-14.148438-5.851562-3.75-3.753906-5.855468-8.839844-5.851562-14.148438v-14zm0 0" fill="#00efd1"/><path d="m204 413.621094h25v31h-25zm0 0" fill="#fedb41"/><path d="m228.5 200.378906v22.5c-.003906 15.738282-12.761719 28.496094-28.5 28.5-5.519531 0-9.996094 4.472656-10 9.992188v.007812c-.007812 18.773438-15.226562 33.988282-34 33.992188-10.492188 0-19 8.503906-19 19v.007812c0 11.597656-9.402344 21-21 21h-4c-16.570312 0-30-13.429687-30-30v-1c0-16.566406 13.429688-30 30-30h4c11.597656 0 21-9.402344 21-21v-.007812c.003906-10.492188 8.511719-18.992188 19-18.992188 18.777344 0 34-15.222656 34-34l.5-1.257812c2.238281.832031 4.609375 1.257812 7 1.257812h24c1.355469.003906 2.703125-.136718 4.03125-.410156zm0 0" fill="#fedb41"/><path d="m210.5 353.550781-8.570312 59.570313v.5h-162.859376v-.5l-8.570312-60 22.039062 8.148437 22.039063-12.148437 22.042969 12.148437 22.039062-12.148437 22.039063 12.148437 22.039062-12.148437 22.050781 12.148437zm0 0" fill="#00efd1"/><path d="m204 413.621094v31h-181.5c-8.558594.003906-15.5-6.933594-15.5-15.492188v-.007812c0-8.5625 6.941406-15.5 15.5-15.5zm0 0" fill="#00acea"/><g fill="#083863"><path d="m22.5 452h356.5c3.9375-.179688 7.027344-3.4375 7-7.378906v-31c-.015625-1.820313-.769531-3.550782-2.089844-4.800782-1.324218-1.25-3.09375-1.90625-4.910156-1.820312h-169.0625l7.492188-52.265625c.339843-2.390625-.546876-4.796875-2.363282-6.394531-1.800781-1.574219-4.28125-2.117188-6.578125-1.445313l-22.894531 6.847657-19.476562-10.742188c-2.101563-1.160156-4.652344-1.160156-6.757813 0l-18.660156 10.28125-18.660157-10.289062c-.816406-.449219-1.714843-.730469-2.640624-.824219 14.035156-1.734375 24.585937-13.65625 24.597656-27.800781.007812-6.625 5.375-11.992188 12-12 22.644531 0 41-18.355469 41-41 .007812-1.652344 1.347656-2.988282 3-2.988282 9.363281-.023437 18.328125-3.785156 24.902344-10.453125 6.574218-6.667969 10.210937-15.6875 10.097656-25.046875v-19.421875c8.097656-4.863281 13.039062-13.632812 13-23.078125v-14c0-3.863281-2.632813-7.378906-6.5-7.378906h-64c-4.035156.136719-7.296875 3.34375-7.5 7.378906v14c.132812 9.199219 4.871094 17.714844 12.617187 22.671875-1.332031 13.78125-12.898437 24.304688-26.742187 24.328125-6.878906-.023437-13.480469 2.71875-18.316406 7.609375-4.878907 4.796875-7.617188 11.359375-7.589844 18.203125-.003906 3.6875-1.480469 7.21875-4.105469 9.8125-2.621094 2.59375-6.171875 4.03125-9.859375 3.996094h-4c-20.398438 0-37 16.976562-37 37.378906v1c.027344 9.769532 3.945312 19.128906 10.890625 26 6.941406 6.875 16.339844 10.695313 26.109375 10.621094h4c.289062 0 .578125.175781.867188.167969-.554688.179687-1.089844.421875-1.585938.726562l-18.660156 10.335938-18.660156-10.265625c-2.109376-1.15625-4.660157-1.148438-6.761719.011718l-19.234375 10.613282-19.035156-7.039063c-2.316407-.855469-4.90625-.429687-6.828126 1.121094-1.925781 1.628906-2.882812 4.128906-2.53125 6.628906l7.5 52.699219h-8.570312c-12.425781 0-22.5 10.074219-22.5 22.5s10.074219 22.5 22.5 22.5zm161.5-279h50v7.378906c.101562 6.117188-4.136719 11.453125-10.117188 12.730469-.011718 0 .105469-.183594.097657-.183594-.820313.113281-1.652344.136719-2.480469.074219h-24c-1.625.066406-3.246094-.148438-4.800781-.628906-5.109375-1.800782-8.570313-6.574219-8.699219-11.992188zm-72 155c-6.058594.082031-11.898438-2.265625-16.21875-6.511719-4.316406-4.25-6.761719-10.050781-6.78125-16.109375v-1c0-12.679687 10.316406-23.378906 23-23.378906h4c7.40625.035156 14.519531-2.878906 19.773438-8.101562 5.253906-5.21875 8.210937-12.3125 8.226562-19.71875-.003906-3.15625 1.265625-6.183594 3.527344-8.390626 2.246094-2.242187 5.300781-3.488281 8.472656-3.457031 19.980469-.097656 37.011719-14.523437 40.398438-34.214843.371093.015624.734374-.117188 1.101562-.117188h23.5v15.878906c.113281 5.671875-2.066406 11.148438-6.042969 15.195313-3.972656 4.042969-9.410156 6.316406-15.082031 6.304687-9.371094.015625-16.957031 7.628906-16.9375 17 .011719 7.15625-2.824219 14.019532-7.882812 19.082032-5.054688 5.0625-11.914063 7.910156-19.070313 7.910156-6.875-.035156-13.480469 2.667968-18.355469 7.511718-4.878906 4.847657-7.625 11.433594-7.636718 18.308594-.011719 3.691406-1.492188 7.222656-4.121094 9.816406-2.625 2.59375-6.179688 4.03125-9.871094 3.992188zm110 110h-11v-17h11zm14-17h11v17h-11zm136 17h-111v-17h111zm-332.910156-74.050781 11.023437 3.980469c1.914063.6875 4.03125.511718 5.804688-.480469l18.660156-10.3125 18.664063 10.273437c2.105468 1.160156 4.65625 1.15625 6.757812-.003906l18.660156-10.289062 18.660156 10.28125c2.105469 1.160156 4.65625 1.160156 6.757813 0l18.664063-10.285157 18.667968 10.285157c1.648438.910156 3.59375 1.117187 5.394532.574218l15.207031-4.371094-6.21875 43.398438h-10.792969v-10.378906c0-3.867188-3.132812-7-7-7s-7 3.132812-7 7v10.378906h-24v-10.378906c0-3.867188-3.132812-7-7-7s-7 3.132812-7 7v10.378906h-25v-10.378906c0-3.867188-3.132812-7-7-7s-7 3.132812-7 7v10.378906h-24v-10.378906c0-3.867188-3.132812-7-7-7s-7 3.132812-7 7v10.378906h-10.789062zm-16.589844 57.050781h174.5v17h-174.5c-4.695312 0-8.5-3.804688-8.5-8.5s3.804688-8.5 8.5-8.5zm0 0"/><path d="m177.5 141c-3.867188 0-7 3.132812-7 7s3.132812 7 7 7h64c3.867188 0 7-3.132812 7-7s-3.132812-7-7-7zm0 0"/><path d="m147.046875 125.601562c2.355469 6.851563 8.824219 11.4375 16.074219 11.398438h92.757812c7.246094.042969 13.710938-4.539062 16.070313-11.386719l15.921875-47.007812c.167968-.730469.210937-1.480469.128906-2.226563v-69c0-3.863281-2.632812-7.378906-6.5-7.378906h-144c-4.039062.136719-7.296875 3.34375-7.5 7.378906v69c.085938.773438.300781 1.523438.628906 2.226563zm108.832031-2.601562h-92.757812c-1.296875-.039062-2.429688-.890625-2.832032-2.125l-5.765624-16.875h109.953124l-5.769531 16.886719c-.402343 1.230469-1.535156 2.074219-2.828125 2.113281zm-111.878906-109h130v61.210938l-4.710938 14.789062h-119.574218l-5.714844-14.789062zm0 0"/></g></svg>