<svg height="432pt" viewBox="0 -44 432 432" width="432pt" xmlns="http://www.w3.org/2000/svg"><path d="m424.738281 200v91.582031c.007813 22.09375-17.90625 40.003907-40 40h-145l-2.429687-1.160156c11.503906-7.347656 18.460937-20.054687 18.453125-33.699219v-118.992187c.023437-15.390625-4.414063-30.460938-12.78125-43.378907l1.039062-.679687c12.761719-8.628906 24.160157-13.671875 40.71875-13.671875h60c44.183594 0 80 35.820312 80 80zm0 0" fill="#00efd1"/><path d="m383.488281 51.171875-21.679687 32.351563c-.449219-.050782-.90625-.074219-1.359375-.070313h-91.417969c-.453125-.003906-.902344.019531-1.351562.070313l-21.691407-32.351563s17.691407-25.851563 43.550781 0c25.859376 25.851563 46.972657 0 46.972657 0s22.847656-24.128906 46.976562 0zm0 0" fill="#00efd1"/><path d="m267.679688 83.523438c.449218-.050782.898437-.074219 1.351562-.070313h91.417969c.453125-.003906.910156.019531 1.359375.070313 8.0625.71875 14.125 7.65625 13.761718 15.738281-.367187 8.082031-7.027343 14.449219-15.121093 14.441406h-91.417969c-8.089844 0-14.75-6.363281-15.109375-14.445313-.363281-8.082031 5.699219-15.015624 13.757813-15.734374zm0 0" fill="#f4b844"/><path d="m255.761719 177.730469v118.992187c0 22.089844-17.910157 40-40 40h-168.5c-22.09375 0-40-17.910156-40-40v-118.992187c0-44.183594 35.816406-80 80-80h88.5c44.183593-.003907 80 35.816406 80 80zm0 0" fill="#00acea"/><path d="m209.160156 19.980469-24.488281 36.53125c-.5-.050781-1.011719-.070313-1.53125-.070313h-103.269531c-.519532 0-1.03125.019532-1.53125.070313l-24.488282-36.53125s19.976563-29.199219 49.179688 0c29.199219 29.199219 53.070312 0 53.070312 0s25.796876-27.257813 53.058594 0zm0 0" fill="#00acea"/><path d="m78.339844 56.511719c.5-.050781 1.011718-.070313 1.53125-.070313h103.269531c.519531 0 1.03125.019532 1.53125.070313 9.09375.824219 15.929687 8.65625 15.519531 17.78125-.40625 9.121093-7.917968 16.3125-17.050781 16.320312h-103.269531c-9.132813-.007812-16.644532-7.199219-17.054688-16.320312-.410156-9.125 6.429688-16.957031 15.523438-17.78125zm0 0" fill="#f4b844"/><path d="m372.191406 117.402344c5.746094-3.570313 9.542969-9.566406 10.3125-16.285156.765625-6.714844-1.582031-13.414063-6.371094-18.1875-1.089843-1.070313-2.285156-2.03125-3.570312-2.859376l16.75-25c1.859375-2.777343 1.496094-6.484374-.867188-8.847656-8.613281-8.613281-18.140624-12.886718-28.324218-12.769531-16.5.222656-28.199219 12.390625-28.691406 12.90625-.117188.125-.234376.253906-.339844.386719-.070313.085937-7.128906 8.402344-16.964844 8.902344-6.453125.320312-13.0625-2.847657-19.636719-9.425782-9.863281-9.855468-20.089843-14.371094-30.382812-13.414062-14.8125 1.378906-23.527344 13.882812-23.890625 14.414062-1.621094 2.363282-1.632813 5.472656-.039063 7.851563l16.746094 24.96875c-6.480469 4.242187-10.269531 11.5625-10 19.300781.273437 7.738281 4.570313 14.773438 11.332031 18.550781-4.675781 1.910157-9.175781 4.226563-13.445312 6.925781-11.941406-15.648437-28.855469-26.757812-47.957032-31.503906 6.742188-4.644531 10.65625-12.398437 10.386719-20.578125-.269531-8.179687-4.683593-15.65625-11.714843-19.847656l19.453124-29.007813c1.859376-2.777343 1.496094-6.480468-.867187-8.847656-9.550781-9.550781-20.121094-14.292968-31.339844-14.160156-18.25.25-31.210937 13.726562-31.753906 14.300781-.117187.121094-.226563.25-.335937.378907-.078126.101562-8.324219 9.804687-19.832032 10.382812-7.5625.382812-15.257812-3.289062-22.867187-10.902344-10.9375-10.941406-22.246094-15.957031-33.582031-14.898437-16.308594 1.519531-25.921876 15.300781-26.320313 15.890625-1.617187 2.363281-1.632813 5.472656-.039063 7.851562l19.429688 28.976563c-6.988281 4.222656-11.375 11.6875-11.660156 19.847656s3.566406 15.914063 10.238281 20.617187c-38.734375 9.710938-65.9375 44.476563-66.046875 84.410157v118.992187c.144531 26.019532 21.238281 47.0625 47.261719 47.140625h168.5c7.644531.027344 15.179687-1.816406 21.949219-5.375.652343.222657 1.335937.351563 2.027343.375h145c26.050781-.140625 47.132813-21.230469 47.261719-47.28125v-91.582031c-.101562-37.527344-24.183594-70.789062-59.808594-82.597656zm-103.898437-26.90625c.058593-.007813.117187.191406.175781.183594.148438-.015626.339844.183593.558594.183593h91.421875c.226562 0 .421875-.203125.589843-.179687.058594.007812.117188-.089844.175782-.085938 1.878906.148438 3.644531.957032 4.984375 2.285156 2.324219 2.339844 3.019531 5.847657 1.765625 8.898438s-4.214844 5.054688-7.515625 5.082031h-91.417969c-4.386719 0-7.996094-3.453125-8.195312-7.832031-.195313-4.382812 3.089843-8.144531 7.457031-8.535156zm-2.894531-43.75c5.960937-.570313 12.414062 2.597656 19.1875 9.375 9.488281 9.492187 19.664062 14.03125 30.238281 13.5 14.96875-.753906 25.113281-11.71875 26.855469-13.726563.90625-.902343 8.730468-8.316406 18.628906-8.449219 4.734375-.042968 9.410156 1.800782 13.933594 5.148438l-16.125 24.269531h-86.746094l-16.535156-24.863281c2.386718-2.15625 6.046874-4.839844 10.5625-5.253906zm-186.351563 16.941406c.226563-.023438.5.175781.820313.175781h103.273437c.324219 0 .59375-.203125.917969-.167969 2.332031.171876 4.527344 1.164063 6.203125 2.792969 2.882812 2.90625 3.746093 7.257813 2.195312 11.046875-1.554687 3.789063-5.222656 6.28125-9.316406 6.328125h-103.269531c-5.402344-.023437-9.835938-4.277343-10.078125-9.671875-.246094-5.394531 3.785156-10.03125 9.160156-10.539062.03125-.003906.0625.039062.09375.035156zm-3.257813-49.617188c6.96875-.617187 14.476563 3.046876 22.289063 10.859376 10.527344 10.527343 21.800781 15.566406 33.46875 14.984374 16.644531-.832031 27.898437-13.097656 29.726563-15.210937 1-.996094 10.121093-9.675781 21.6875-9.835937 5.800781-.074219 11.5 2.242187 16.984374 6.496093l-18.964843 28.5h-98.949219l-19.367188-29.09375c2.804688-2.664062 7.386719-6.199219 13.128907-6.699219zm105.210938 315.792969v-45.300781c0-3.867188-3.132812-7-7-7s-7 3.132812-7 7v45.300781h-37v-45.300781c0-3.867188-3.132812-7-7-7s-7 3.132812-7 7v45.300781h-39v-45.300781c0-3.867188-3.132812-7-7-7s-7 3.132812-7 7v45.300781h-15.738281c-18.296875-.066406-33.128907-14.847656-33.261719-33.140625v-118.992187c0-40.25 33.007812-72.867188 73.261719-72.867188h88.5c40.320312-.042969 73.074219 32.546875 73.238281 72.867188v118.992187c-.027344 11.28125-5.8125 21.769532-15.34375 27.804688l-.066406.070312c-5.320313 3.421875-11.507813 5.25-17.828125 5.265625zm237-38.28125c-.121094 18.320313-14.9375 33.148438-33.261719 33.28125h-34.738281v-39.453125c0-3.863281-3.132812-7-7-7s-7 3.136719-7 7v39.453125h-32v-39.453125c0-3.863281-3.132812-7-7-7s-7 3.136719-7 7v39.453125h-36.375c6.015625-8.15625 9.296875-18.007812 9.375-28.140625v-118.992187c-.027344-14.394531-3.625-28.558594-10.46875-41.226563 9.683594-5.976562 18.941406-9.640625 32.207031-9.640625h60c40.253907 0 73.261719 32.886719 73.261719 73.136719zm0 0" fill="#083863"/></svg>