<svg height="398pt" viewBox="-7 0 397 398" width="398pt" xmlns="http://www.w3.org/2000/svg"><path d="m137.980469 99.289062h177.199219l-34.050782 257.742188c-2.746094 19.265625-19.246094 33.578125-38.707031 33.578125h-127.691406c-19.460938 0-35.960938-14.3125-38.710938-33.578125l-34.039062-257.742188zm0 0" fill="#00efd1"/><g fill="#00acea"><path d="m262.941406 79.410156-4.613281 18.859375v1.019531h-42.636719l2.589844-12.558593 4.207031-17.210938zm0 0"/><path d="m218.28125 86.730469-2.589844 12.558593h-53.429687l18.46875-7.757812-10.210938-24.320312zm0 0"/><path d="m131.050781 81.609375-4.839843-12.359375 38.398437-16.121094 5.910156 14.082032 10.210938 24.320312-18.46875 7.757812h-24.28125zm0 0"/><path d="m131.050781 81.609375 6.929688 17.679687h-37l9.75-23.859374.75-1.820313zm0 0"/><path d="m110.730469 75.429688-9.75 23.859374h-25.402344l-9.046875-21.550781 38.410156-16.117187zm0 0"/></g><path d="m178.5 324.289062c3.867188 0 7-3.132812 7-7v-156.417968c0-3.867188-3.132812-7-7-7s-7 3.132812-7 7v156.417968c0 3.867188 3.132812 7 7 7zm0 0" fill="#083863"/><path d="m221.152344 324.277344c.148437.007812.300781.011718.445312.011718 3.691406-.003906 6.746094-2.875 6.976563-6.5625l9.78125-156.417968c.183593-2.511719-.996094-4.929688-3.089844-6.328125-2.09375-1.402344-4.777344-1.570313-7.027344-.441407-2.25 1.128907-3.722656 3.378907-3.855469 5.894532l-9.777343 156.421875c-.242188 3.855469 2.691406 7.179687 6.546875 7.421875zm0 0" fill="#083863"/><path d="m128.574219 317.726562c.230469 3.6875 3.285156 6.558594 6.980469 6.5625.144531 0 .296874 0 .441406-.011718 3.859375-.242188 6.789062-3.566406 6.550781-7.421875l-9.769531-156.421875c-.132813-2.515625-1.605469-4.765625-3.855469-5.894532-2.25-1.128906-4.933594-.960937-7.027344.441407-2.09375 1.398437-3.273437 3.816406-3.089843 6.328125zm0 0" fill="#083863"/><path d="m378.210938 63.980469-119.710938-15.589844v-21.441406c0-14.644531-11.519531-26.949219-26.160156-26.949219h-39.101563c-14.769531.1875-26.664062 12.175781-26.738281 26.949219v9.402343l-117.609375-15.351562c-3.757813-.339844-7.105469 2.359375-7.574219 6.101562-.46875 3.742188 2.109375 7.183594 5.835938 7.78125l108.972656 14.21875-32.625 13.699219c-2.582031 1.085938-4.269531 3.609375-4.285156 6.410157l-4.222656-1.726563-3.59375-8.566406c-1.492188-3.566407-5.597657-5.246094-9.164063-3.75l-38.410156 16.121093c-1.710938.71875-3.066407 2.089844-3.769531 3.808594-.703126 1.667969-.691407 3.550782.027343 5.210938l4.96875 11.691406h-57.550781c-3.867188 0-7 3.132812-7 7s3.132812 7 7 7h28.34375l33.246094 252.070312c3.222656 22.570313 22.84375 39.929688 45.640625 39.929688h127.691406c22.796875 0 42.417969-17.359375 45.648437-40l33.246094-252h28.332032c3.867187 0 7-3.132812 7-7s-3.132813-7-7-7h-82.648438l2.742188-11.074219c.441406-1.792969.144531-3.6875-.820313-5.261719-.964844-1.578124-2.519531-2.703124-4.316406-3.125l-40.449219-9.855468c-3.761719-.910156-7.546875 1.394531-8.464844 5.15625l-2.28125 9.328125-37.554687-15.34375-4.511719-10.746094 79 10.304687c.121094.023438.242188.042969.367188.058594l125.886718 16.417969c.304688.042969.609375.0625.914063.0625 3.496093-.011719 6.429687-2.632813 6.835937-6.101563.453125-3.855468-2.285156-7.355468-6.136718-7.839843zm-217.347657-1.6875 10.703125 25.347656-10.714844 4.359375h-18.097656l-7.535156-19.085938zm-45.558593 20.300781 10.324218 4.148438 2.089844 5.261718h-16.320312zm-39.605469-1.253906 25.5-10.628906 1.964843 4.578124-6.882812 16.710938h-16.046875zm198.5 274.75c-2.242188 15.71875-15.898438 27.910156-31.777344 27.910156h-127.691406c-15.875 0-29.539063-12.191406-31.769531-27.835938l-32.996094-250.164062h257.234375zm-46.570313-278.109375 26.851563 6.421875-1.894531 7.601562h-28.304688l.828125-3.878906zm-17.378906 12.882812-.261719 1.136719h-22.300781c.121094-1.132812-.050781-2.277344-.5-3.324219l-3.667969-8.738281zm-29.75-63.914062c.0625-7.042969 5.699219-12.769531 12.738281-12.949219h39.101563c6.921875 0 12.160156 6.023438 12.160156 12.949219v19.601562l-64-8.375zm0 0" fill="#083863"/></svg>