<svg height="408pt" viewBox="0 -11 408.75087 408" width="408pt" xmlns="http://www.w3.org/2000/svg"><path d="m366.25 351.519531 27.191406 4.992188c5.125 1.046875 8.808594 5.554687 8.808594 10.789062v11.007813h-128l20-40 28.839844 5.292968zm0 0" fill="#00acea"/><path d="m366.25 324.308594v27.210937l-43.160156-7.917969.160156-.851562v-18.441406zm0 0" fill="#fedb41"/><path d="m246.25 283.308594h-166.28125c4.75-6.726563 7.292969-14.761719 7.28125-23h157l.390625-.058594c1.074219 7.640625 1.609375 15.34375 1.609375 23.058594zm0 0" fill="#fedb41"/><path d="m244.640625 260.25-.390625.058594h-157c-.003906-14.496094-7.847656-27.859375-20.507812-34.925782-12.660157-7.066406-28.152344-6.730468-40.492188.878907v-82.953125h107.480469c32.832031 0 63.511719 16.332031 81.839843 43.570312l2.300782 3.421875c1.769531 2.628907 3.457031 5.300781 5.070312 8.019531l-1.691406.988282h-42.5c-9.113281 0-16.5 7.386718-16.5 16.5 0 9.113281 7.386719 16.5 16.5 16.5h57.5l1.820312-.546875c3.023438 9.28125 5.222657 18.816406 6.570313 28.488281zm0 0" fill="#00efd1"/><path d="m238.070312 231.761719-1.820312.546875h-57.5c-9.113281 0-16.5-7.386719-16.5-16.5 0-9.113282 7.386719-16.5 16.5-16.5h42.5l1.691406-.988282c6.257813 10.554688 11.332032 21.769532 15.128906 33.441407zm0 0" fill="#00acea"/><path d="m87.25 260.308594c.003906 22.097656-17.90625 40.015625-40.003906 40.015625s-40.011719-17.914063-40.011719-40.007813c.003906-22.097656 17.917969-40.011718 40.015625-40.007812 10.628906-.0625 20.839844 4.132812 28.351562 11.648437 7.515626 7.515625 11.710938 17.726563 11.648438 28.351563zm0 0" fill="#00acea"/><g fill="#083863"><path d="m26.25 127.808594h38c3.867188 0 7-3.132813 7-7 0-3.863282-3.132812-7-7-7h-38c-3.867188 0-7 3.136718-7 7 0 3.867187 3.132812 7 7 7zm0 0"/><path d="m315.75 324.308594v10.921875l-20.488281-3.804688c-3.03125-.5625-6.0625.972657-7.398438 3.753907l-19.9375 40c-1.074219 2.261718-.949219 4.910156.339844 7.058593 1.261719 2.128907 3.511719 3.472657 5.984375 3.570313h128c3.867188 0 6.5-3.632813 6.5-7.5v-11.007813c.085938-8.503906-5.839844-15.886719-14.15625-17.648437-.046875-.007813-.21875-.019532-.265625-.027344l-21.578125-3.9375v-21.378906c.09375-1.75-.558594-3.457032-1.800781-4.699219-1.238281-1.238281-2.949219-1.894531-4.699219-1.800781h-18.511719l-185.769531-294.476563c-.035156-.054687-.074219-.238281-.109375-.292969-9.824219-14.601562-25.882813-23.101562-42.980469-22.644531-.660156.011719-1.332031.007813-1.933594.050781-26.261718 1.628907-47.636718 23.507813-48.660156 49.832032-.507812 17.320312 7.625 33.761718 21.699219 43.867187 13.96875 9.996094 22.90625 25.5625 24.496094 42.664063h-88.230469c-3.867188 0-7.5 2.636718-7.5 6.5v79.269531c-11 8.855469-18.75 22.675781-18.75 37.730469.0664062 26.019531 21.105469 47.113281 47.125 47.25 14.023438 0 27.394531-6.75 36.273438-16.75h162.851562c3.914062-.117188 7.019531-3.332032 7-7.25.023438-31.234375-8.367188-61.898438-24.285156-88.773438-1.652344-2.792968-3.433594-5.621094-5.285156-8.375l-2.300782-3.429687c-19.683594-29.046875-52.558594-46.363281-87.648437-46.171875h-5.1875c-1.515625-22-12.597657-41.078125-30.3125-53.988282-10.296875-7.316406-16.277344-19.269531-15.957031-31.894531.914062-19.429687 16.214843-35.105469 35.617187-36.480469.421875-.03125.851563-.078124 1.316406-.085937 12.078125-.304687 23.949219 6.160156 30.980469 16.554687l181 286.898438h-7.9375c-3.867188-.003906-7.5 2.632812-7.5 6.496094zm-268.5-31c-15.214844.007812-28.464844-10.390625-32.078125-25.171875s3.34375-30.117188 16.84375-37.132813c13.503906-7.015625 30.054687-3.894531 40.070313 7.5625 10.019531 11.453125 10.910156 28.269532 2.15625 40.71875-6.179688 8.785156-16.25 14.015625-26.992188 14.023438zm44.199219-16.5c1.039062-2.921875 1.800781-5.933594 2.277343-9h144.699219c.382813 2.988281.601563 5.992187.664063 9zm127.984375-70c3.492187 6.074218 6.46875 12.429687 8.890625 19h-49.574219c-2.546875-.085938-4.957031-1.171875-6.710938-3.019532-1.785156-1.734374-2.789062-4.113281-2.789062-6.601562.003906-2.503906 1.011719-4.90625 2.796875-6.667969 1.78125-1.761719 4.195313-2.738281 6.703125-2.710937zm-42.636719-45.5c13.253906 7.117187 24.570313 17.363281 32.960937 29.855468l1.027344 1.644532h-32.035156c-6.203125-.046875-12.171875 2.378906-16.582031 6.742187-4.410157 4.363281-6.902344 10.304688-6.917969 16.507813-.023438 13.03125 10.472656 23.636718 23.5 23.75h54.300781c1.421875 4.589844 2.539063 9.265625 3.339844 14h-142.664063c-3.445312-23.144532-23.328124-40.269532-46.726562-40.25-4.816406-.042969-9.613281.59375-14.25 1.902344v-64.652344h100.980469c15-.074219 29.785156 3.53125 43.070312 10.5zm217.953125 205.992187v4.507813h-109.175781l12.585937-25.414063 93.679688 17.109375c1.773437.375 3.007812 1.988282 2.910156 3.796875zm-36-35.492187v11.308594l-29-5.320313v-5.988281zm0 0"/></g></svg>