<svg height="454pt" viewBox="-7 0 454 454.39112" width="454pt" xmlns="http://www.w3.org/2000/svg"><path d="m182.914062 411.179688v-.589844h-32.539062c-10.265625 0-18.589844-8.324219-18.589844-18.589844s8.324219-18.589844 18.589844-18.589844h-18.589844c-10.265625 0-18.589844-8.324218-18.589844-18.589844 0-10.265624 8.324219-18.589843 18.589844-18.589843h27.890625c-10.101562-.234375-18.167969-8.492188-18.167969-18.59375 0-10.105469 8.066407-18.363281 18.167969-18.597657h85.058594c-21.304687 0-38.578125-17.273437-38.578125-38.578124-.003906-4.359376 3.53125-7.894532 7.890625-7.890626h121.539063c53.90625 0 97.605468 43.699219 97.605468 97.605469s-43.699218 97.605469-97.605468 97.605469h-148.019532c-9.367187 0-17.269531-6.960938-18.449218-16.253906-1.183594-9.289063 4.730468-18.007813 13.796874-20.347656zm0 0" fill="#00acea"/><path d="m210.6875 93v57h-25.492188v-52.5c0-33.414062-27.085937-60.5-60.5-60.5-33.414062 0-60.5 27.085938-60.5 60.5v222.5h-25.488281v-227c0-47.492188 38.496094-85.988281 85.988281-85.988281 47.492188 0 85.992188 38.496093 85.992188 85.988281zm0 0" fill="#00efd1"/><g fill="#083863"><path d="m335.585938 245.390625h-121.539063c-8.273437.132813-14.902344 6.882813-14.890625 15.15625 0 11.871094 4.519531 22.84375 12.730469 31.84375h-52.210938c-6.78125-.078125-13.308593 2.566406-18.121093 7.347656-4.8125 4.777344-7.503907 11.289063-7.46875 18.070313.058593 4.019531 1.007812 7.976562 2.785156 11.582031h-5.085938c-13.328125-.039063-24.441406 10.1875-25.507812 23.472656-1.066406 13.289063 8.277344 25.15625 21.441406 27.242188-1.933594 3.632812-2.941406 7.6875-2.933594 11.804687.027344 14.105469 11.484375 25.515625 25.589844 25.480469h14.382812c-1.78125 3.648437-2.734374 7.640625-2.792968 11.699219.015625 6.757812 2.730468 13.230468 7.535156 17.976562 4.804688 4.75 11.308594 7.386719 18.066406 7.324219h148.019532c57.679687 0 104.609374-46.734375 104.609374-104.414063-.007812-57.769531-46.84375-104.59375-104.609374-104.585937zm0 195h-148.019532c-3.050781.085937-6.003906-1.066406-8.191406-3.195313-2.183594-2.128906-3.414062-5.054687-3.410156-8.105468-.003906-5.3125 3.582031-9.953125 8.726562-11.289063.933594-.257812 1.902344-.398437 2.875-.410156h64.140625c3.863281 0 7-3.132813 7-7s-3.136719-7-7-7h-64.140625c-1.023437 0-2.046875.0625-3.066406.1875-.519531-.125-1.050781-.1875-1.585938-.1875h-32.539062c-6.351562 0-11.5-5.148437-11.5-11.5s5.148438-11.5 11.5-11.5h130.871094c3.867187 0 7-3.132813 7-7s-3.132813-7-7-7h-149.460938c-6.394531-.003906-11.582031-5.183594-11.589844-11.582031-.007812-3.046875 1.210938-5.96875 3.382813-8.105469 2.183594-2.160156 5.136719-3.351563 8.207031-3.3125h149.460938c3.867187 0 7-3.132813 7-7s-3.132813-7-7-7h-121.570313c-6.414062-.046875-11.589843-5.257813-11.589843-11.671875-.007813-3.035156 1.214843-5.945312 3.390624-8.0625 2.183594-2.144531 5.136719-3.324219 8.199219-3.265625h160.410157c3.867187 0 7-3.132813 7-7s-3.132813-7-7-7h-75.351563c-17.507813-.164063-31.609375-14.421875-31.578125-31.933594-.011719-.527343.367188-.984375.890625-1.066406h121.539063c49.980468 0 90.5 40.519531 90.5 90.5s-40.519532 90.5-90.5 90.5zm0 0"/><path d="m190.195312 193v25c0 3.867188 3.132813 7 7 7 3.867188 0 7-3.132812 7-7v-25c0-3.867188-3.132812-7-7-7-3.867187 0-7 3.132812-7 7zm0 0"/><path d="m212.59375 176.5c-3.589844 1.4375-5.335938 5.511719-3.898438 9.101562l10 25c1.4375 3.589844 5.511719 5.335938 9.101563 3.898438s5.335937-5.511719 3.898437-9.101562l-10-25c-1.433593-3.589844-5.511718-5.335938-9.101562-3.898438zm0 0"/><path d="m180.796875 176.5c-3.589844-1.4375-7.664063.308594-9.101563 3.898438l-10 25c-1.4375 3.589843.308594 7.664062 3.898438 9.101562s7.664062-.308594 9.101562-3.898438l10-25c1.4375-3.589843-.308593-7.664062-3.898437-9.101562zm0 0"/><path d="m96.195312 327.390625c3.867188 0 7-3.132813 7-7s-3.132812-7-7-7h-25v-215.890625c0-29.546875 23.953126-53.5 53.5-53.5 29.546876 0 53.5 23.953125 53.5 53.5v52.5c0 3.867188 3.132813 7.390625 7 7.390625h25.492188c3.863281 0 6.507812-3.523437 6.507812-7.390625v-57c0-51.28125-41.226562-93-92.5-93-51.273437 0-92.5 41.71875-92.5 93v220.390625h-25c-3.867187 0-7 3.132813-7 7s3.132813 7 7 7zm-50-234.390625c0-43.5625 34.945313-79 78.5-79 43.554688 0 78.5 35.4375 78.5 79v50.390625h-11v-45.890625c0-37.277344-30.21875-67.5-67.5-67.5-37.277343 0-67.5 30.222656-67.5 67.5v215.890625h-11zm0 0"/></g></svg>