<svg height="424pt" viewBox="0 -63 424.02048 424" width="424pt" xmlns="http://www.w3.org/2000/svg"><path d="m406.980469 170.859375-26.171875 104.679687c-2.226563 8.90625-10.226563 15.15625-19.410156 15.152344h-289.679688c-8.746094 0-16.476562-5.683594-19.089844-14.03125l-33.039062-105.75c29.949218 1 30.808594 19.621094 62.429687 19.621094 24.371094 0 36.46875-11.070312 51.699219-16.601562h.292969v45.589843c50.984375 14.574219 105.03125 14.574219 156.019531 0v-45.828125h.609375c15.730469 5.449219 26.640625 16.839844 51.371094 16.839844 32.5 0 32.507812-19.652344 64.96875-19.671875zm0 0" fill="#00acea"/><path d="m404.960938 37.449219c3.695312 6.300781 2.3125 14.347656-3.273438 19.058593-5.585938 4.707032-13.75 4.707032-19.335938 0-5.585937-4.710937-6.964843-12.757812-3.273437-19.058593l12.941406-22.089844zm0 0" fill="#00acea"/><path d="m352.019531 57.832031-33.429687 37.898438-28.558594-21.191407v144.980469c-50.988281 14.574219-105.035156 14.574219-156.019531 0v-144.980469l-28.5625 21.191407-33.429688-37.898438 61.992188-50.5h33.429687c0 24.617188 19.957032 44.578125 44.578125 44.578125 24.621094 0 44.582031-19.960937 44.582031-44.578125h28.429688zm0 0" fill="#00efd1"/><path d="m167.441406 7.332031h89.160156c0 24.617188-19.960937 44.578125-44.582031 44.578125-24.621093 0-44.578125-19.960937-44.578125-44.578125zm0 0" fill="#fedb41"/><path d="m84.960938 130.449219c3.695312 6.300781 2.3125 14.347656-3.273438 19.058593-5.585938 4.707032-13.75 4.707032-19.335938 0-5.585937-4.710937-6.964843-12.757812-3.273437-19.058593l12.941406-22.089844zm0 0" fill="#00acea"/><g fill="#083863"><path d="m418.71875 123.898438c-3.75-.9375-7.550781 1.34375-8.488281 5.09375l-8.765625 35.070312c-14.65625 1.042969-23.066406 6.105469-30.5625 10.644531-7.824219 4.734375-14.582032 8.824219-28.890625 8.824219-15.296875 0-24.511719-4.730469-34.257813-9.742188-3.488281-1.898437-7.070312-3.613281-10.734375-5.140624v-80.199219l17.394531 12.898437c2.921876 2.171875 7.015626 1.738282 9.421876-.988281l33.433593-37.902344c1.289063-1.460937 1.910157-3.394531 1.714844-5.335937-.195313-1.9375-1.191406-3.710938-2.75-4.882813l-66.992187-50.660156c-1.199219-.960937-2.675782-1.5117188-4.210938-1.5664062h-151.019531c-1.628907.0585937-3.1875.6679692-4.421875 1.7304692l-61.992188 50.582031c-1.476562 1.214843-2.398437 2.976562-2.554687 4.882812s.46875 3.792969 1.726562 5.234375l33.429688 37.910156c2.40625 2.730469 6.503906 3.164063 9.425781 1l17.394531-12.902343v80.636719c-3 1.390624-6.335937 2.925781-9.359375 4.4375-10.304687 5.144531-20.039062 10.007812-35.640625 10.007812-14.300781 0-21.050781-4.089844-28.875-8.824219-7.085937-4.285156-15.03125-9.070312-28.300781-10.441406l-11.144531-35.664063c-.726563-2.410156-2.691407-4.242187-5.144531-4.800781-2.453126-.558593-5.019532.242188-6.71875 2.101563-1.699219 1.855468-2.269532 4.480468-1.496094 6.875l45.609375 146.132812c3.476562 11.328125 13.921875 19.070313 25.769531 19.101563h289.679688c12.425781-.058594 23.222656-8.550781 26.203124-20.613281l36.207032-144.929688c.941406-3.769531-1.328125-7.59375-5.089844-8.570312zm-169.78125-109.886719c-2.511719 13.734375-12.453125 24.9375-25.792969 29.0625-13.339843 4.128906-27.867187.5-37.699219-9.417969-5.472656-5.265625-9.105468-12.152344-10.351562-19.644531zm-142.492188 72.265625-24.359374-27.777344 54.414062-44.488281h24.421875c1.519531 11.203125 6.65625 21.605469 14.625 29.625 9.65625 9.6875 22.792969 15.101562 36.472656 15.035156 25.761719-.125 47.523438-19.148437 51.09375-44.660156h19.574219l59.082031 44.699219-24.175781 27.484374-23.394531-17.316406c-2.132813-1.566406-4.964844-1.804687-7.328125-.605468-2.363282 1.195312-3.851563 3.617187-3.851563 6.265624v139.648438c-46.527343 12.351562-95.472656 12.351562-142 0v-139.648438c0-2.644531-1.496093-5.0625-3.859375-6.25-2.363281-1.191406-5.191406-.945312-7.316406.628907zm267.574219 187.722656c-1.425781 5.828125-6.621093 9.949219-12.621093 10.011719h-289.679688c-5.71875-.050781-10.742188-3.808594-12.40625-9.277344l-29.800781-95.460937c6.601562 1.578124 11.253906 4.347656 16.386719 7.453124 8.398437 5.082032 17.921874 10.824219 36.121093 10.824219 18.902344 0 31.121094-6.113281 41.902344-11.496093 1.042969-.519532 2.097656-1.046876 3.097656-1.546876v35.011719c0 3.125 2.066407 5.871094 5.070313 6.730469 52.242187 14.933594 107.621094 14.933594 159.859375 0 3.003906-.859375 5.074219-3.605469 5.070312-6.730469v-35.460937c1.40625.804687 2.851563 1.53125 4.332031 2.183594 10.300782 5.292968 21.96875 11.289062 40.65625 11.289062 18.210938 0 27.734376-5.765625 36.140626-10.847656 5.921874-3.585938 11.242187-6.714844 19.699218-8.066406zm0 0"/><path d="m56.457031 153.585938v.003906c7.820313 7.839844 20.253907 8.644531 29.019531 1.871094 8.765626-6.769532 11.132813-19 5.523438-28.550782l-12.941406-22.089844c-1.253906-2.144531-3.554688-3.460937-6.039063-3.460937s-4.785156 1.316406-6.039062 3.460937l-12.941407 22.089844c-5.050781 8.636719-3.648437 19.589844 3.417969 26.675782zm8.664063-19.597657 6.898437-11.777343 6.902344 11.78125c1.96875 3.359374 1.234375 7.652343-1.746094 10.164062-2.976562 2.511719-7.332031 2.511719-10.3125 0s-3.714843-6.804688-1.742187-10.164062zm0 0"/><path d="m376.460938 60.589844c7.824218 7.832031 20.25 8.628906 29.011718 1.863281 8.761719-6.769531 11.128906-18.992187 5.527344-28.542969l-12.941406-22.089844c-1.253906-2.144531-3.554688-3.460937-6.039063-3.460937s-4.785156 1.316406-6.039062 3.460937l-12.941407 22.089844c-5.050781 8.632813-3.648437 19.589844 3.417969 26.671875zm8.660156-19.597656 6.898437-11.78125 6.902344 11.78125c1.96875 3.359374 1.234375 7.652343-1.746094 10.164062-2.976562 2.511719-7.332031 2.511719-10.3125 0s-3.714843-6.804688-1.742187-10.164062zm0 0"/></g></svg>