<svg height="413pt" viewBox="-41 1 413 413.99859" width="413pt" xmlns="http://www.w3.org/2000/svg"><path d="m290.964844 130.160156h10.171875c12.480469 0 22.597656 10.117188 22.597656 22.597656v14.320313c0 .878906-.007813 1.75-.027344 2.628906h-178.5v-16.949219c0-12.480468 10.117188-22.597656 22.597657-22.597656zm0 0" fill="#00acea"/><path d="m297.375 169.707031-11.210938 99.703125v.027344c-22.621093 26.679688-53.449218 45.101562-87.660156 52.390625-.136718-5.421875-4.574218-9.75-10-9.75h-45.917968c-5.421876 0-9.851563 4.320313-9.992188 9.738281-34.21875-7.277344-65.054688-25.707031-87.667969-52.398437v-.007813l-11.210937-99.703125h87.761718v94.519531c-.082031 6.570313 5.085938 12.007813 11.648438 12.261719 3.183594.058594 6.257812-1.167969 8.527344-3.394531 2.273437-2.230469 3.550781-5.28125 3.554687-8.464844v-94.921875zm0 0" fill="#00efd1"/><path d="m243.515625 127.269531c.019531-13.105469 10.65625-23.710937 23.757813-23.691406 13.105468.019531 23.710937 10.65625 23.691406 23.761719v2.820312h-47.449219v-.5625c0-.78125-.019531-1.558594-.058594-2.328125zm0 0" fill="#00acea"/><path d="m286.164062 269.4375-12.789062 113.820312c-1.34375 13.476563-12.683594 23.742188-26.230469 23.742188h-163.199219c-13.542968 0-24.886718-10.265625-26.230468-23.742188l-12.789063-113.839843c22.613281 26.691406 53.449219 45.121093 87.667969 52.398437-.007812.089844-.011719.175782-.007812.261719v6.371094c0 5.523437 4.476562 10 10 10h45.917968c5.523438 0 10-4.476563 10-10v-6.621094c34.210938-7.289063 65.039063-25.710937 87.660156-52.390625zm0 0" fill="#00efd1"/><path d="m270.066406 45.976562c10.921875 0 19.777344 8.851563 19.777344 19.773438.003906 10.917969-8.847656 19.777344-19.769531 19.777344-10.921875.003906-19.777344-8.847656-19.777344-19.769532-.003906-10.921874 8.847656-19.777343 19.769531-19.78125zm0 0" fill="#00acea"/><path d="m243.515625 129.597656v.5625h-75.710937c-4.875-.007812-9.617188 1.566406-13.519532 4.488282l-.199218-1.101563c0-2.097656-.304688-4.1875-.910157-6.199219 1.21875-24.027344 21.042969-42.890625 45.101563-42.910156 24.058594-.023438 43.917968 18.804688 45.179687 42.832031.039063.769531.058594 1.546875.058594 2.328125zm0 0" fill="#00acea"/><path d="m132.59375 321.816406c.140625-5.417968 4.570312-9.738281 9.992188-9.738281h45.917968c5.425782 0 9.863282 4.328125 10 9.75v6.621094c0 5.523437-4.476562 10-10 10h-45.917968c-5.523438 0-10-4.476563-10-10v-6.371094c-.003907-.085937 0-.171875.007812-.261719zm0 0" fill="#fedb41"/><path d="m153.175781 127.347656c.605469 2.011719.910157 4.101563.910157 6.199219l.199218 1.101563c-5.71875 4.261718-9.085937 10.976562-9.078125 18.109374v111.871094c-.003906 3.183594-1.28125 6.234375-3.554687 8.464844-2.269532 2.226562-5.34375 3.453125-8.527344 3.394531-6.5625-.253906-11.730469-5.691406-11.648438-12.261719v-111.46875c0-7.605468-3.824218-14.703124-10.179687-18.878906v-.332031h.027344c.003906-10.597656 7.769531-19.59375 18.253906-21.148437 10.480469-1.550782 20.523437 4.808593 23.597656 14.949218zm0 0" fill="#00acea"/><path d="m130.515625 50.5c0 8.734375-7.082031 15.816406-15.820313 15.816406-8.738281 0-15.820312-7.082031-15.820312-15.816406 0-8.738281 7.082031-15.820312 15.820312-15.820312 8.738282 0 15.820313 7.082031 15.820313 15.820312zm0 0" fill="#00acea"/><path d="m43.773438 130.160156h55.101562c12.480469 0 22.601562 10.117188 22.601562 22.597656v16.949219h-114.089843c-.019531-.867187-.03125-1.75-.03125-2.628906v-14.320313c0-12.480468 10.117187-22.597656 22.601562-22.597656zm0 0" fill="#00acea"/><path d="m111.296875 133.546875v.332031c-3.6875-2.433594-8.007813-3.726562-12.421875-3.71875h-55.101562c2.230468-17.585937 17.628906-30.488281 35.332031-29.597656 17.703125.886719 31.734375 15.265625 32.191406 32.984375zm0 0" fill="#00acea"/><g fill="#083863"><path d="m38.203125 272.28125 12.542969 111.667969c1.648437 17.085937 16.035156 30.105469 33.199218 30.050781h163.199219c17.132813.0625 31.503907-12.910156 33.1875-29.960938l12.554688-111.742187c23.667969-28.71875 36.953125-64.582031 37.699219-101.789063 0-.269531-.015626-.535156-.042969-.800781v-16.949219c.082031-16.332031-13.074219-29.648437-29.40625-29.757812h-3.464844c-1.613281-11.691406-9.792969-21.421875-21.035156-25.015625-11.242188-3.59375-23.550781-.417969-31.648438 8.167969-9.269531-18.445313-28.535156-29.699219-49.15625-28.714844-20.621093.984375-38.726562 14.023438-46.199219 33.265625-11.328124-8.339844-27.050781-7.148437-37 2.800781-7.347656-12.464844-20.757812-20.101562-35.226562-20.054687-18.1875.097656-34.160156 12.105469-39.3125 29.550781h-8.136719c-16.335937.105469-29.496093 13.425781-29.410156 29.757812v16.949219c-.03125.265625-.046875.535157-.046875.800781.75 37.203126 14.035156 73.0625 37.703125 101.773438zm94.832031 11.207031h.332032c4.992187.015625 9.789062-1.925781 13.371093-5.40625 3.667969-3.519531 5.761719-8.371093 5.808594-13.453125v-87.628906h137l-10.101563 89.644531c-20.117187 22.941407-46.679687 39.289063-76.222656 46.917969-3.019531-5.28125-8.632812-8.550781-14.71875-8.5625h-45.917968c-6.046876.046875-11.617188 3.277344-14.660157 8.5-29.570312-7.597656-56.160156-23.945312-76.285156-46.902344l-10.09375-89.597656h73v87.226562c-.074219 10.371094 8.125 18.910157 18.488281 19.261719zm183.382813-106.488281c-1.574219 23.429688-8.507813 46.1875-20.265625 66.515625l7.480468-66.515625zm-124.871094 144.945312v6.5c0 1.652344-1.386719 2.550782-3.042969 2.550782h-45.917968c-1.65625 0-3.039063-.902344-3.039063-2.550782v-6.261718c0-.066406.023437-.171875.027344-.242188.058593-1.625 1.382812-2.917968 3.011719-2.941406h45.917968c1.644532 0 2.988282 1.304688 3.042969 2.945312zm-164.089844-144.945312 7.476563 66.5c-11.75-20.328125-18.679688-43.078125-20.257813-66.5zm238.953125 205.566406c-.960937 9.910156-9.304687 17.464844-19.265625 17.433594h-163.199219c-9.988281.019531-18.347656-7.578125-19.273437-17.523438l-10.519531-93.429687c20.328125 18.394531 44.832031 31.550781 71.394531 38.332031v1.070313c0 9.375 7.664063 16.550781 17.039063 16.550781h45.917968c9.375 0 17.042969-7.175781 17.042969-16.550781v-1.058594c26.554687-6.796875 51.058594-19.953125 71.390625-38.335937zm50.136719-229.808594v10.242188h-164v-10.242188c-.085937-4.925781 2.175781-9.601562 6.097656-12.585937 2.621094-2.039063 5.839844-3.15625 9.160157-3.171875h133.332031c8.605469.097656 15.5 7.152344 15.410156 15.757812zm-49.3125-42.308593c7.59375.09375 14.199219 5.21875 16.179687 12.550781h-32.347656c1.980469-7.328125 8.582032-12.453125 16.167969-12.550781zm-68.917969-19.132813c18.582032 0 34.472656 13.371094 37.648438 31.683594h-68.160156c-2.457032.011719-4.90625.328125-7.285157.945312 2.726563-18.765624 18.835938-32.667968 37.796875-32.628906zm-65.609375 27.851563c5.992188.113281 11.3125 3.859375 13.4375 9.464843-.007812.386719-.027343.367188-.027343 1.367188h.417968c.199219 0 .511719 1.226562.597656 1.960938-5.53125 5.503906-8.625 12.996093-8.585937 20.796874v111.871094c-.0625 1.324219-.648437 2.574219-1.628906 3.46875-.941407.925782-2.222657 1.429688-3.542969 1.390625-2.765625-.167969-4.898438-2.492187-4.828125-5.261719v-111.46875c-.007813-8.421874-3.609375-16.445312-9.902344-22.042968 1.34375-6.707032 7.222657-11.535156 14.0625-11.546875zm-55.300781-11.71875c10.589844-.078125 20.222656 6.105469 24.558594 15.769531-1.023438-.128906-2.054688-.199219-3.089844-.21875h-45.898438c4.511719-9.417969 13.988282-15.449219 24.429688-15.550781zm-62.859375 45.308593c-.09375-8.605468 6.804687-15.660156 15.410156-15.757812h68.917969c8.652344.085938 15.632812 7.105469 15.671875 15.757812v10.242188h-100zm0 0"/><path d="m114.695312 73.316406c12.601563 0 22.820313-10.214844 22.820313-22.816406 0-12.605469-10.21875-22.820312-22.820313-22.820312-12.601562 0-22.820312 10.214843-22.820312 22.820312.015625 12.59375 10.222656 22.804688 22.820312 22.816406zm0-31.636718c4.871094 0 8.820313 3.949218 8.820313 8.820312s-3.949219 8.816406-8.820313 8.816406c-4.871093 0-8.820312-3.945312-8.820312-8.816406.003906-4.871094 3.953125-8.816406 8.820312-8.820312zm0 0"/><path d="m270.066406 92.527344c14.789063.003906 26.777344-11.984375 26.777344-26.773438.003906-14.789062-11.988281-26.777344-26.773438-26.777344-14.789062.003907-26.777343 11.992188-26.773437 26.78125.015625 14.777344 11.992187 26.753907 26.769531 26.769532zm0-39.550782c7.054688 0 12.777344 5.714844 12.777344 12.773438.003906 7.054688-5.714844 12.777344-12.769531 12.777344-7.054688.003906-12.777344-5.714844-12.777344-12.769532.003906-7.050781 5.714844-12.769531 12.769531-12.78125zm0 0"/><path d="m139.554688 28.117188c1.855468.003906 3.636718-.734376 4.949218-2.046876l14.128906-14.121093c2.734376-2.734375 2.734376-7.164063 0-9.898438-2.734374-2.734375-7.164062-2.734375-9.898437 0l-14.132813 14.121094c-2 2-2.597656 5.011719-1.511718 7.625 1.082031 2.617187 3.632812 4.320313 6.464844 4.320313zm0 0"/><path d="m65.675781 70.136719c2.734375 2.734375 7.164063 2.734375 9.898438 0 2.734375-2.730469 2.734375-7.164063 0-9.898438l-12.988281-12.988281c-2.734376-2.734375-7.167969-2.734375-9.902344 0-2.730469 2.730469-2.730469 7.164062 0 9.898438zm0 0"/><path d="m287.605469 31.117188c2.921875 2.53125 7.34375 2.21875 9.875-.703126l11.109375-12.796874c2.535156-2.921876 2.222656-7.34375-.695313-9.875-2.921875-2.535157-7.34375-2.222657-9.875.695312l-11.109375 12.800781c-2.539062 2.921875-2.222656 7.34375.695313 9.878907zm0 0"/><path d="m209.183594 57.707031c2.734375 2.734375 7.167968 2.734375 9.902344 0 2.734374-2.734375 2.734374-7.164062 0-9.898437l-11.300782-11.300782c-2.734375-2.734374-7.167968-2.734374-9.898437 0-2.734375 2.734376-2.734375 7.164063 0 9.898438zm0 0"/></g></svg>