<svg height="490pt" viewBox="0 0 490 490.79001" width="490pt" xmlns="http://www.w3.org/2000/svg"><path d="m303.390625 7c67.390625.054688 129.15625 37.585938 160.246094 97.375 31.089843 59.789062 26.347656 131.910156-12.3125 187.109375-38.65625 55.199219-104.808594 84.3125-171.625 75.535156l16.660156-58.628906c2.335937.128906 4.679687.195313 7.03125.199219 66.722656 0 120.808594-54.089844 120.808594-120.808594 0-66.722656-54.085938-120.8125-120.808594-120.8125s-120.808594 54.089844-120.808594 120.8125c-.003906 5.945312.429688 11.882812 1.289063 17.769531l-39.328125-11.171875-18.78125-5.328125c-1.03125-.296875-2.085938-.507812-3.152344-.628906v-.640625c.003906-99.84375 80.941406-180.78125 180.78125-180.78125zm0 0" fill="#fedb41"/><path d="m303.390625 66.96875c66.722656 0 120.808594 54.089844 120.808594 120.8125 0 66.71875-54.085938 120.808594-120.808594 120.808594-2.359375 0-4.703125-.066406-7.03125-.199219l12.890625-45.390625c3.171875-11.160156-3.308594-22.777344-14.46875-25.949219l-110.910156-31.5c-.859375-5.886719-1.292969-11.824219-1.289063-17.769531 0-66.722656 54.089844-120.808594 120.808594-120.8125zm0 0" fill="#00acea"/><path d="m183.871094 205.550781 110.910156 31.5c11.160156 3.171875 17.640625 14.789063 14.46875 25.949219l-12.890625 45.390625-16.660156 58.628906-12.699219 44.730469c-3.167969 11.160156-14.789062 17.640625-25.949219 14.46875l-44.328125-12.589844-.011718-.007812 16.878906-13.75 46.453125-37.882813c5.941406-4.835937 7.34375-13.351562 3.265625-19.839843-4.082032-6.488282-12.359375-8.917969-19.296875-5.660157l-.199219-.417969 20.578125-16.769531c6.378906-5.222656 7.425781-14.574219 2.363281-21.078125-5.0625-6.5-14.390625-7.777344-21.011718-2.871094l11.230468-9.160156c4.25-3.410156 6.347656-8.839844 5.488282-14.222656-.855469-5.382812-4.53125-9.894531-9.632813-11.816406s-10.839844-.960938-15.035156 2.519531l-17.640625 14.378906c6.492187-5.292969 7.46875-14.851562 2.171875-21.347656-5.292969-6.492187-14.847657-7.464844-21.34375-2.171875l-53.097657 43.277344c12.871094-11.148438 14.554688-30.511719 3.796876-43.71875-2.25-2.753906-6.308594-3.164063-9.070313-.917969l-20.566406 16.769531 22.476562-74.492187.023438-.070313zm0 0" fill="#00efd1"/><path d="m220.152344 277.050781 17.640625-14.378906c6.5-5.214844 15.988281-4.214844 21.253906 2.246094 5.265625 6.457031 4.339844 15.953125-2.074219 21.273437l-11.230468 9.160156c6.621093-4.933593 15.972656-3.667968 21.042968 2.847657 5.074219 6.515625 4.011719 15.890625-2.394531 21.101562l-20.578125 16.769531.199219.417969c6.9375-3.25 15.210937-.824219 19.289062 5.664063 4.078125 6.488281 2.679688 14.996094-3.257812 19.835937l-46.453125 37.882813-16.878906 13.75-7.230469 5.898437-24.808594 20.242188c-11.339844 9.261719-26.09375 13.238281-40.550781 10.929687l-.351563-.101562-32.339843 26.359375c-12.984376 10.59375-32.097657 8.648437-42.6875-4.339844l-34.519532-42.339844c-10.59375-12.984375-8.648437-32.101562 4.339844-42.691406l19.636719-16.007813 5.761719-5.371093c-4.210938-17.085938 1.800781-35.070313 15.441406-46.1875l8.417968-6.871094 54.222657-44.199219 20.566406-16.769531c2.761719-2.246094 6.820313-1.835937 9.070313.917969 10.757812 13.207031 9.074218 32.570312-3.796876 43.71875l53.097657-43.277344c6.496093-5.292969 16.050781-4.320312 21.34375 2.171875 5.296875 6.496094 4.320312 16.054687-2.171875 21.347656zm0 0" fill="#00acea"/><path d="m144.542969 194.378906-.023438.070313-22.476562 74.492187-54.222657 44.199219-.210937-.261719 32.203125-109.367187c2.835938-9.96875 12.515625-16.375 22.796875-15.089844 1.066406.121094 2.121094.332031 3.152344.628906zm0 0" fill="#f4b844"/><path d="m303.390625 0c-101.472656 0-184.394531 80.910156-187.667969 181.601562-10.761718 1.703126-19.574218 9.46875-22.625 19.929688l-31.757812 107.867188-6.363282 5.191406c-14.507812 11.910156-21.609374 30.625-18.652343 49.160156l-2.726563 2.539062-19.460937 15.867188c-15.980469 13.03125-18.371094 36.550781-5.339844 52.535156l34.519531 42.339844c6.238282 7.699219 15.300782 12.582031 25.164063 13.558594 1.277343.132812 2.5625.199218 3.84375.199218 8.582031.007813 16.898437-2.964843 23.53125-8.40625l29.941406-24.402343c15.5625 1.699219 31.15625-2.90625 43.296875-12.789063l29.21875-23.824218 40.824219 11.59375c7.148437 2.035156 14.808593 1.144531 21.300781-2.472657 6.488281-3.617187 11.273438-9.667969 13.300781-16.816406l11.078125-39.015625c6.136719.601562 12.363282.910156 18.578125.910156 103.542969 0 187.78125-84.238281 187.78125-187.777344 0-103.542968-84.242187-187.789062-187.785156-187.789062zm-196.84375 205.421875c1.925781-6.648437 8.398437-10.90625 15.269531-10.046875.6875.082031 1.367188.21875 2.035156.410156l11.929688 3.390625-19.824219 65.691407-35.414062 28.875zm53.703125 228.910156c-9.699219 7.890625-22.269531 11.335938-34.636719 9.5-2.179687-.59375-4.511719-.101562-6.265625 1.328125l-32.339844 26.359375c-9.988281 8.152344-24.691406 6.660157-32.839843-3.328125l-34.519531-42.339844c-8.152344-9.992187-6.660157-24.699218 3.332031-32.84375l19.640625-16.011718c.121094-.097656.238281-.199219.351562-.304688l5.757813-5.371094c1.855469-1.730468 2.628906-4.328124 2.023437-6.792968-3.511718-14.460938 1.566406-29.652344 13.070313-39.09375l82.773437-67.484375c3.363282 4.28125 5.179688 9.574219 5.160156 15.019531.003907 7.105469-3.070312 13.859375-8.429687 18.523438l-.171875.140624c-.105469.09375-.214844.183594-.324219.269532l-.082031.070312-27.964844 22.792969c-2.996094 2.441406-3.445312 6.851563-1.003906 9.847656 2.445312 2.996094 6.851562 3.445313 9.851562 1.003907l27.917969-22.757813c.21875-.175781.429688-.351563.644531-.535156l.132813-.109375 53.082031-43.269532c1.449219-1.1875 3.265625-1.835937 5.136719-1.824218 3.460937-.007813 6.546875 2.164062 7.710937 5.421875 1.160157 3.253906.148438 6.890625-2.53125 9.078125l-69.96875 57.046875c-1.957031 1.574219-2.921874 4.078125-2.523437 6.558593.394531 2.480469 2.089844 4.558594 4.4375 5.445313 2.351563.886719 4.996094.445313 6.933594-1.152344l69.964843-57.046875 17.640626-14.382812c1.679687-1.371094 3.835937-2.019532 5.996093-1.800782 2.15625.222657 4.136719 1.292969 5.503907 2.976563 2.847656 3.5 2.324218 8.644531-1.171876 11.5l-11.21875 9.148437-.398437.316407-.144531.113281-17.636719 14.386719-58.210937 47.460937c-2.996094 2.445313-3.445313 6.855469-1 9.851563 2.445312 3 6.855468 3.445312 9.851562 1.003906l58.210938-47.460937 17.613281-14.371094.375-.300782c3.515625-2.542968 8.40625-1.90625 11.148437 1.457032 2.84375 3.5 2.324219 8.640625-1.164062 11.5l-20.582032 16.769531c-.363281.296875-.695312.628906-.992187.992187-.675781.433594-1.324219.90625-1.949219 1.410157l-40.578125 33.078125c-2.996093 2.445312-3.445312 6.851562-1.003906 9.851562 2.441406 2.996094 6.851563 3.445313 9.847656 1l40.589844-33.082031c.519531-.425781 1.085937-.78125 1.691406-1.070313 3.738281-1.75 8.195313-.4375 10.386719 3.054688 2.195312 3.496094 1.441406 8.078125-1.757812 10.6875zm100.015625-24.5c-2.121094 7.433594-9.859375 11.75-17.296875 9.652344l-31.414062-8.921875 52.914062-43.152344c5.703125-4.632812 8.738281-11.796875 8.097656-19.117187-.640625-7.320313-4.875-13.847657-11.296875-17.417969l7.554688-6.15625c5.785156-4.722656 8.804687-12.039062 8.039062-19.464844-.769531-7.429687-5.222656-13.96875-11.851562-17.40625 6.808593-8.9375 5.859375-21.554687-2.21875-29.367187-8.074219-7.808594-20.714844-8.34375-29.417969-1.242188l-1.667969 1.359375c-2.214843-7.003906-7.753906-12.453125-14.792969-14.554687-7.035156-2.101563-14.65625-.585938-20.351562 4.054687l-30.800781 25.105469c0-.078125.007812-.15625.007812-.238281-.011719-8.859375-3.070312-17.445313-8.664062-24.3125-4.703125-5.734375-13.152344-6.589844-18.910157-1.914063l-2.835937 2.3125 13.902344-46.058593 143.613281 40.785156c7.441406 2.117187 11.761719 9.859375 9.648438 17.300781l-29.429688 103.601563c-.113281.308593-.199219.625-.269531.941406zm-70.683594-222.050781c-.003906-62.574219 50.503907-113.414062 113.078125-113.816406 62.570313-.402344 113.730469 49.78125 114.53125 112.351562.800782 62.566406-49.054687 114.042969-111.617187 115.246094l10.40625-36.648438c4.230469-14.882812-4.40625-30.375-19.289063-34.601562l-106.453125-30.226562c-.4375-4.089844-.65625-8.195313-.65625-12.304688zm113.808594 173.777344c-4.910156 0-9.816406-.226563-14.675781-.632813l12.882812-45.363281c.597656.011719 1.203125.027344 1.792969.027344 70.589844 0 127.808594-57.222656 127.808594-127.808594 0-70.589844-57.21875-127.8125-127.808594-127.8125-70.585937 0-127.808594 57.222656-127.808594 127.8125 0 2.738281.097657 5.484375.273438 8.21875l-46.175781-13.109375c2.601562-93.574219 79.527343-168.890625 173.710937-168.890625 95.824219 0 173.78125 77.957031 173.78125 173.78125 0 95.820312-77.957031 173.777344-173.78125 173.777344zm0 0" fill="#083863"/></svg>