<svg id="Layer_1" height="512" viewBox="0 0 512 512" width="512" xmlns="http://www.w3.org/2000/svg" data-name="Layer 1"><g id="_Group_3" data-name=" Group 3"><path d="m109.35 267.41h364.72a25.435 25.435 0 1 1 0 50.87h-436.14a25.435 25.435 0 1 1 0-50.87z" fill="#fedb41"/><path d="m408.39 439.01a86.16 86.16 0 0 1 -38.75 9.14h-227.28a86.582 86.582 0 0 1 -86.58-86.58v-43.29h400.44v43.29a86.573 86.573 0 0 1 -47.83 77.44z" fill="#00acea"/><path d="m226.78 127.8v25.98h-80.09v-25.98h40.05z" fill="#fedb41"/><path d="m186.19 104.05h.55 21.91v23.69h-43.83v-23.69z" fill="#00efd1"/><g fill="#083863"><path d="m496.3 270.413a31.434 31.434 0 0 0 -22.23-9.413h-359.07v-169.7a32.607 32.607 0 0 1 32.6-32.42 32.4 32.4 0 0 1 32.4 32.42v6.7h-15.18a5.892 5.892 0 0 0 -5.82 6.05v17.95h-12.31a5.575 5.575 0 0 0 -5.69 5.8v25.98c0 3.314 2.377 6.22 5.69 6.22h80.09a6.382 6.382 0 0 0 6.22-6.22v-25.98a6.025 6.025 0 0 0 -6.22-5.8h-11.78v-17.95a6.351 6.351 0 0 0 -6.35-6.05h-16.65v-6.7a44.249 44.249 0 0 0 -44.453-44.42 44.579 44.579 0 0 0 -44.547 44.42v169.7h-65.07a31.652 31.652 0 0 0 -31.44 31.645 31.373 31.373 0 0 0 31.44 31.355h12.07v37.57a92.516 92.516 0 0 0 44.561 79.194l-14.168 14.114a5.982 5.982 0 1 0 8.436 8.484l16.811-16.89a91.992 91.992 0 0 0 36.72 7.528h227.28a91.5 91.5 0 0 0 37.488-7.843l16.05 16.088a5.988 5.988 0 1 0 8.484-8.452l-13.536-13.423a91.962 91.962 0 0 0 43.874-78.8v-37.57h12.07a31.381 31.381 0 0 0 22.23-53.587zm-275.3-122.413h-68v-14h68zm-18-26h-32v-12h32zm247 239.57a80.1 80.1 0 0 1 -43.535 71.619 5.434 5.434 0 0 0 -1.807.86 79.361 79.361 0 0 1 -35.018 7.951h-227.28a80.356 80.356 0 0 1 -80.36-80.43v-37.57h388zm24.07-49.57h-436.14a19.178 19.178 0 0 1 -13.747-5.553 19.626 19.626 0 0 1 13.747-33.447h436.14a19.512 19.512 0 0 1 13.747 5.9 19.224 19.224 0 0 1 5.693 13.709 19.425 19.425 0 0 1 -19.44 19.391z"/><path d="m193 174.34a6 6 0 0 0 -12 0v6.49a6 6 0 1 0 12 0z"/><path d="m171 174.34a6 6 0 0 0 -12 0v6.49a6 6 0 1 0 12 0z"/><path d="m214 174.34a6 6 0 0 0 -12 0v6.49a6 6 0 1 0 12 0z"/><path d="m187 196.48a6 6 0 0 0 -6 6v6.49a6 6 0 1 0 12 0v-6.49a6 6 0 0 0 -6-6z"/><path d="m165 196.48a6 6 0 0 0 -6 6v6.49a6 6 0 1 0 12 0v-6.49a6 6 0 0 0 -6-6z"/><path d="m208 196.48a6 6 0 0 0 -6 6v6.49a6 6 0 1 0 12 0v-6.49a6 6 0 0 0 -6-6z"/></g></g></svg>