<svg id="Layer_1" height="512" viewBox="0 0 512 512" width="512" xmlns="http://www.w3.org/2000/svg" data-name="Layer 1"><g id="_Group_3" data-name=" Group 3"><path d="m371.19 26.92v74.11h-42.6-145.18-42.6v-74.11z" fill="#00acea"/><path d="m282.39 134.03h-65.98a33.007 33.007 0 0 1 -33-33h145.18a33.007 33.007 0 0 1 -33 33z" fill="#00efd1"/><path d="m282.39 238.28v220.4a26.39 26.39 0 1 1 -52.78 0v-220.4z" fill="#00acea"/><path d="m229.61 180.22h52.78v58.06h-52.78z" fill="#00efd1"/><path d="m229.61 134.03h52.78v46.19h-52.78z" fill="#fedb41"/><g fill="#083863"><path d="m371.19 21h-230.38a5.772 5.772 0 0 0 -5.81 5.92v74.11a5.815 5.815 0 0 0 5.81 5.97h37.063a38.763 38.763 0 0 0 38.537 33h7.59v318.68a32.006 32.006 0 0 0 9.292 22.913 31.511 31.511 0 0 0 22.608 9.487 32.183 32.183 0 0 0 32.1-32.4v-318.68h7.59a38.763 38.763 0 0 0 38.537-33h37.063a5.815 5.815 0 0 0 5.81-5.97v-74.11a5.772 5.772 0 0 0 -5.81-5.92zm-135.19 165h40v46h-40zm19.805 293.08a19.594 19.594 0 0 1 -14.126-5.973 20 20 0 0 1 -5.679-14.427v-214.68h40v214.68a20.252 20.252 0 0 1 -20.195 20.4zm20.195-305.08h-40v-34h40zm19.59-46h-79.18a27.049 27.049 0 0 1 -26.319-21h131.818a27.049 27.049 0 0 1 -26.319 21zm69.41-33h-218v-62h218z"/><path d="m167.54 60h177.97a6 6 0 0 0 0-12h-177.97a6 6 0 0 0 0 12z"/><path d="m167.54 80h177.97a6 6 0 0 0 0-12h-177.97a6 6 0 0 0 0 12z"/></g></g></svg>