<svg id="Layer_1" height="512" viewBox="0 0 512 512" width="512" xmlns="http://www.w3.org/2000/svg" data-name="Layer 1"><g id="_Group_3" data-name=" Group 3"><path d="m478.97 323.06v56.32a127.373 127.373 0 0 1 -76.38 116.63l-12.36 5.39-13.95-6.02a127.733 127.733 0 0 1 -56.69-46.87 125.505 125.505 0 0 1 -9.2-16.31 126.826 126.826 0 0 1 -12.07-54.09v-55.05l84.92-45.25 6.67-3.55zm-42.04 79.25v-28.97h-33.8v-33.8h-28.97v33.8h-33.81v28.97h33.81v33.81h28.97v-33.81z" fill="#fedb41"/><path d="m436.93 373.34v28.97h-33.8v33.81h-28.97v-33.81h-33.81v-28.97h33.81v-33.8h28.97v33.8z" fill="#00efd1"/><path d="m383.24 136.67v141.14l-84.92 45.25v55.05a126.826 126.826 0 0 0 12.07 54.09h-45.03v-100.56h-119.6v100.56h-112.73v-295.53l175.11-126.07zm-70.09 106.7v-72.78h-80.38v72.78zm-129.64 0v-72.78h-80.39v72.78z" fill="#00acea"/><path d="m232.77 170.59h80.38v72.78h-80.38z" fill="#00efd1"/><path d="m145.76 331.64h119.6v100.56h-119.6z" fill="#00efd1"/><path d="m103.12 170.59h80.39v72.78h-80.39z" fill="#00efd1"/><g fill="#083863"><path d="m481.868 317.8-89.188-48.8a6.73 6.73 0 0 0 -3.68-.7v-131.63a5.889 5.889 0 0 0 -2.374-4.869l-175.041-126.071a5.955 5.955 0 0 0 -6.981 0l-175.11 126.07a6 6 0 0 0 -2.494 4.87v295.53a5.859 5.859 0 0 0 6.03 5.8h273.627a106.7 106.7 0 0 0 7.939 13.735 133.56 133.56 0 0 0 59.306 49.1l13.951 6.045a5.963 5.963 0 0 0 4.776.01l12.384-5.392a133.441 133.441 0 0 0 79.987-122.118v-56.32a6.014 6.014 0 0 0 -3.132-5.26zm-442.868-178.057 169-121.75 169 121.75v134.468l-81.781 43.554a6.037 6.037 0 0 0 -3.219 5.3v55.05a129.951 129.951 0 0 0 9.3 47.885h-30.3v-94.36a5.4 5.4 0 0 0 -5.64-5.64h-119.6a5.5 5.5 0 0 0 -5.76 5.64v94.36h-101zm220 286.257h-107v-88h107zm214-46.62a121.44 121.44 0 0 1 -72.793 111.13l-9.982 4.35-11.605-5.006a121.545 121.545 0 0 1 -54.036-44.672 119.988 119.988 0 0 1 -8.762-15.531l-.163-.006a120.248 120.248 0 0 1 -11.659-51.535v-51.449l85.723-45.582 83.277 45.534z"/><path d="m368 339.54v27.46h-27.65a6.605 6.605 0 0 0 -6.35 6.34v28.97c0 3.313 3.036 5.69 6.35 5.69h27.65v28.12a6.038 6.038 0 0 0 6.16 5.88h28.97a5.789 5.789 0 0 0 5.87-5.88v-28.12h27.93a5.8 5.8 0 0 0 6.07-5.69v-28.97a6.36 6.36 0 0 0 -6.07-6.34h-27.93v-27.46c0-3.313-2.557-5.54-5.87-5.54h-28.97c-3.313 0-6.16 2.227-6.16 5.54zm12 33.8v-27.34h17v27.34a5.833 5.833 0 0 0 6.13 5.66h27.87v17h-27.87a6.384 6.384 0 0 0 -6.13 6.31v27.69h-17v-27.69a6.139 6.139 0 0 0 -5.84-6.31h-28.16v-17h28.16a5.584 5.584 0 0 0 5.84-5.66z"/><path d="m189 171a6 6 0 0 0 -6-6h-80a6 6 0 0 0 -6 6v73a6 6 0 0 0 6 6h80a6 6 0 0 0 6-6zm-80 6h69v60h-69z"/><path d="m319 171a6 6 0 0 0 -6-6h-80a6 6 0 0 0 -6 6v73a6 6 0 0 0 6 6h80a6 6 0 0 0 6-6zm-80 6h68v60h-68z"/></g></g></svg>