<svg id="Layer_1" height="512" viewBox="0 0 512 512" width="512" xmlns="http://www.w3.org/2000/svg" data-name="Layer 1"><g id="_Group_3" data-name=" Group 3"><path d="m470.31 453.88v13.56h-50.37v-38.75h25.18a25.186 25.186 0 0 1 25.19 25.19z" fill="#00efd1"/><path d="m419.94 467.44h50.37a25.185 25.185 0 1 1 -50.37 0z" fill="#fedb41"/><path d="m356.96 224.01a96.919 96.919 0 0 1 62.98 90.78v146.15a21.038 21.038 0 0 1 -21.04 21.03h-121.42a21.037 21.037 0 0 1 -21.04-21.4l3.14-222a21.033 21.033 0 0 1 21.04-20.66h42.44a96.466 96.466 0 0 1 33.9 6.1zm27.32 218.24v-54.8a31.552 31.552 0 0 0 -31.55-31.56h-61.45v86.36z" fill="#00acea"/><path d="m384.28 387.45v54.8h-93v-86.36h61.45a31.552 31.552 0 0 1 31.55 31.56z" fill="#fedb41"/><path d="m356.96 209.19v14.82a96.466 96.466 0 0 0 -33.9-6.1h-33.91v-8.72a19.369 19.369 0 0 1 19.37-19.38h29.07a19.359 19.359 0 0 1 19.37 19.38z" fill="#00efd1"/><path d="m192.1 438h-150.41a112.953 112.953 0 0 1 7.81-21.32l.6.29h134.33a111.444 111.444 0 0 1 7.67 21.03z" fill="#00efd1"/><path d="m184.43 416.97h-134.33l-.6-.29c10.24-21.4 27.74-42.84 47.1-42.84h40.59c19.45 0 37.01 21.64 47.24 43.13z" fill="#fedb41"/><g fill="#083863"><path d="m352.73 350h-61.45a6.153 6.153 0 0 0 -6.28 5.89v86.36c0 3.313 2.966 5.75 6.28 5.75h93a5.558 5.558 0 0 0 5.72-5.75v-54.8a37.265 37.265 0 0 0 -37.27-37.45zm25.27 86h-81v-74h55.73a25.252 25.252 0 0 1 25.27 25.45z"/><path d="m445.12 423h-19.12v-108.21a103.152 103.152 0 0 0 -63-94.847v-10.753a25.232 25.232 0 0 0 -25.41-25.19h-10.59v-3.15a28.9 28.9 0 0 0 -28.69-28.85h-88.85a26.329 26.329 0 0 1 -26.46-26.39v-75.74a36.5 36.5 0 1 0 -73 0v318.13h-13.4c-10.607 0-21.1 5.014-31.2 15.062-10.136 10.086-17.183 22.444-21.31 31.068v-.016a118.691 118.691 0 0 0 -8.225 22.473 5.993 5.993 0 0 0 5.825 7.413h150.41a6 6 0 0 0 5.83-7.417 117.31 117.31 0 0 0 -8.082-22.192c-4.127-8.668-11.178-21.053-21.339-31.208-10.132-10.128-20.669-15.183-31.319-15.183h-15.19v-318.13a24.5 24.5 0 0 1 49 0v75.74a38.342 38.342 0 0 0 38.46 38.39h88.85a16.883 16.883 0 0 1 16.69 16.85v3.15h-6.48a25.37 25.37 0 0 0 -25.52 25.19v2.81h-2.38a27.129 27.129 0 0 0 -27.039 26.53l-3.14 221.96a27.043 27.043 0 0 0 27.039 27.51h121.42a26.953 26.953 0 0 0 18.132-7.011 30.995 30.995 0 0 0 58.968-13.549v-13.56a30.7 30.7 0 0 0 -30.88-30.88zm-395.42 9c1-2.949 2.189-6 3.526-9h127.348c1.337 3 2.523 6.049 3.524 9zm110.327-40.315a83.58 83.58 0 0 1 14.473 19.315h-115.194c9.166-16 22.974-31 37.294-31h40.59c9.158 0 17.473 6.324 22.836 11.685zm303.973 62.195v7.12h-38v-26h19.12a18.685 18.685 0 0 1 18.88 18.88zm-169-244.69a13.358 13.358 0 0 1 13.52-13.19h29.07a13.27 13.27 0 0 1 9.471 3.811 13.136 13.136 0 0 1 3.939 9.379v6.56a102.763 102.763 0 0 0 -27.94-3.75h-28.06zm103.9 266.81h-121.42a15.065 15.065 0 0 1 -15.041-15.338l3.14-221.939a15.071 15.071 0 0 1 15.041-14.723h42.44a90.688 90.688 0 0 1 90.94 90.79v146.15a15.129 15.129 0 0 1 -15.1 15.06zm46.22 10.19a18.763 18.763 0 0 1 -18.206-13.19h36.422a18.773 18.773 0 0 1 -18.216 13.19z"/></g></g></svg>