<svg id="Layer_1" height="512" viewBox="0 0 512 512" width="512" xmlns="http://www.w3.org/2000/svg" data-name="Layer 1"><g id="_Group_3" data-name=" Group 3"><path d="m194.79 61.05v-29.2-9.73h169.89v48.66h-45.88-29.73-94.28z" fill="#fedb41"/><path d="m353.48 272.27v217.61h-206.16v-152.5a130.588 130.588 0 0 1 93.8-125.29 50.871 50.871 0 0 0 36.74-48.76v-30.26h51.74c15.79 40.96 23.88 95.32 23.88 139.2zm-39.65 175.11v-140.87h-83.8a31.861 31.861 0 0 0 -31.86 31.86v109.01z" fill="#00acea"/><path d="m318.8 103.87h21.67v29.2h-10.87-51.74-10.46v-29.2h21.67z" fill="#00efd1"/><path d="m289.07 70.78h29.73v33.09h-29.73z" fill="#00acea"/><path d="m313.83 306.51v140.87h-115.66v-109.01a31.861 31.861 0 0 1 31.86-31.86z" fill="#00efd1"/><path d="m194.79 31.85v29.2h-15.93c-10.18 0-16.72-6.54-16.72-14.6s6.54-14.6 16.72-14.6z" fill="#00efd1"/><g fill="#083863"><path d="m147.32 496h206.16c3.313 0 5.52-2.807 5.52-6.12v-217.61c0-45.045-7.6-95.27-20.82-133.27h2.29c3.314 0 5.53-2.617 5.53-5.93v-29.2c0-3.313-2.216-5.87-5.53-5.87h-15.47v-21h39.68a6.472 6.472 0 0 0 6.32-6.22v-48.66a6.385 6.385 0 0 0 -6.32-6.12h-169.89a5.929 5.929 0 0 0 -5.79 6.12v3.88h-10.14c-12.952 0-22.72 8.756-22.72 20.5s9.768 20.5 22.72 20.5h10.14v3.78a6.017 6.017 0 0 0 5.79 6.22h34.13c-.809 11-5.463 38.433-30.917 50.825a5.952 5.952 0 0 0 2.631 11.314 5.857 5.857 0 0 0 2.622-.511c31.526-15.348 36.844-48.628 37.682-61.628h42.062v21h-15.6c-3.314 0-6.4 2.557-6.4 5.87v29.2c0 3.313 3.086 5.93 6.4 5.93h4.6v24.33a45.219 45.219 0 0 1 -32.5 43 138.043 138.043 0 0 0 -70.506 48.47 135.5 135.5 0 0 0 -27.994 82.58v152.5a6.385 6.385 0 0 0 6.32 6.12zm31.54-441c-6.412 0-10.72-3.356-10.72-8.5s4.308-8.5 10.72-8.5h10.14v17zm22.14-27h158v37h-158zm94 49h18v21h-18zm-22 33h61v17h-61zm-120 227.38a123.562 123.562 0 0 1 25.51-75.318 125.853 125.853 0 0 1 64.29-44.214c24.172-7.078 41.2-29.5 41.2-54.518v-24.33h41.442c13.635 37 21.558 87.885 21.558 133.27v211.73h-194z"/><path d="m313.83 301h-83.8c-20.876 0-38.03 16.494-38.03 37.37v109.01c0 3.313 2.856 5.62 6.17 5.62h115.66c3.314 0 6.17-2.307 6.17-5.62v-140.87c0-3.31-2.856-5.51-6.17-5.51zm-5.83 140h-104v-102.63c0-14.259 11.771-25.37 26.03-25.37h77.97z"/><path d="m220.32 380a6 6 0 0 0 6 6h59.36a6 6 0 1 0 0-12h-59.36a6 6 0 0 0 -6 6z"/><path d="m285.68 400h-47.69a6 6 0 0 0 0 12h47.69a6 6 0 1 0 0-12z"/></g></g></svg>