<svg id="Layer_1" height="512" viewBox="0 0 512 512" width="512" xmlns="http://www.w3.org/2000/svg" data-name="Layer 1"><g id="_Group_3" data-name=" Group 3"><path d="m498.78 171.22-58.42 79.98-21.84-17.43.18-.22 58.43-79.98.64-.73z" fill="#00efd1"/><path d="m373.3 61.43 104.47 91.41-.64.73-58.43 79.98-.18.22-38.29-30.57.58 79.46.16.1a49.767 49.767 0 0 1 -37.48 22.88 49.712 49.712 0 0 1 37.66 23.16h-.01l.79 107.33h-251.86l1.7-232.93-38.29 30.57-.18-.22-58.43-79.98-.64-.73 61.24-53.59a40.862 40.862 0 0 1 16.99 29.57 40.827 40.827 0 0 1 36.96-36.96 40.722 40.722 0 0 1 -25.17-11.79 41.964 41.964 0 0 1 -3.02-3.37h.01l17.46-15.27a21.6 21.6 0 0 1 14.25-5.36h31.67c0 39.17 32.21 71.38 71.38 71.38s71.38-32.21 71.38-71.38h31.67a21.6 21.6 0 0 1 14.25 5.36z" fill="#00acea"/><path d="m445.19 422.36a29.064 29.064 0 0 0 17.94 8.4 29.085 29.085 0 0 0 -26.34 26.34 29.107 29.107 0 0 0 -26.35-26.34 29.1 29.1 0 0 0 26.35-26.35 29.037 29.037 0 0 0 8.4 17.95z" fill="#fedb41"/><path d="m402.84 291.28a49.562 49.562 0 0 0 30.65 14.36 49.7 49.7 0 0 0 -45 45 49.686 49.686 0 0 0 -45-45 49.688 49.688 0 0 0 45-45 49.631 49.631 0 0 0 14.35 30.64z" fill="#fedb41"/><path d="m307.02 56.07h20.36c0 39.17-32.21 71.38-71.38 71.38s-71.38-32.21-71.38-71.38h20.36a51.02 51.02 0 1 0 102.04 0z" fill="#00efd1"/><g fill="#fedb41"><path d="m204.98 56.07h102.04a51.02 51.02 0 1 1 -102.04 0z"/><path d="m124.25 80.07a40.722 40.722 0 0 0 25.17 11.79 40.827 40.827 0 0 0 -36.96 36.96 40.818 40.818 0 0 0 -36.96-36.96 40.827 40.827 0 0 0 36.96-36.96 40.766 40.766 0 0 0 8.77 21.8 41.964 41.964 0 0 0 3.02 3.37z"/><path d="m99.66 386.05a38.545 38.545 0 0 0 23.84 11.17 38.651 38.651 0 0 0 -35 35 38.639 38.639 0 0 0 -35-35 38.663 38.663 0 0 0 35-35 38.561 38.561 0 0 0 11.16 23.83z"/></g><path d="m93.3 233.55.18.22-21.84 17.44-58.42-79.98 21.01-18.39.64.73z" fill="#00efd1"/><path d="m66.8 254.749a6 6 0 0 0 8.589 1.149l50.294-40.157-1.283 175.57c-.121-.018-.234-.055-.357-.066a32.665 32.665 0 0 1 -29.567-29.565 6 6 0 0 0 -11.952 0 32.665 32.665 0 0 1 -29.564 29.565 6 6 0 0 0 0 11.951 32.659 32.659 0 0 1 29.564 29.454 5.905 5.905 0 0 0 5.976 5.35 5.907 5.907 0 0 0 5.976-5.347 32.6 32.6 0 0 1 29.567-29.512c.092-.009.176-.01.267-.023l-.24 32.954a5.864 5.864 0 0 0 1.742 4.213 5.943 5.943 0 0 0 4.258 1.715h251.86a5.892 5.892 0 0 0 6-5.947l-.585-79.36a6.283 6.283 0 0 0 1.145.307 6.16 6.16 0 0 0 5.973-5.637 43.773 43.773 0 0 1 39.567-39.657 6.037 6.037 0 0 0 0-12.019 43.735 43.735 0 0 1 -39.565-39.587 6 6 0 0 0 -5.974-5.457 5.972 5.972 0 0 0 -1.882.323l-.286-39.223 50.3 40.148a6 6 0 0 0 8.588-1.151l58.42-79.98a6 6 0 0 0 -.895-8.054l-125.477-109.819a27.614 27.614 0 0 0 -18.209-6.887h-206.1a27.607 27.607 0 0 0 -18.2 6.879l-12.3 10.773a34.5 34.5 0 0 1 -4.015-13.252 5.949 5.949 0 0 0 -5.975-5.4 5.957 5.957 0 0 0 -5.974 5.408 34.8 34.8 0 0 1 -31.528 31.492 6 6 0 0 0 0 11.942 34.724 34.724 0 0 1 10.145 2.51l-75.834 66.364a6 6 0 0 0 -.894 8.053zm21.7 158.337a44.407 44.407 0 0 0 -15.871-15.867 44.581 44.581 0 0 0 15.871-15.875 44.577 44.577 0 0 0 15.868 15.87 44.759 44.759 0 0 0 -15.868 15.872zm300-131.406a55.59 55.59 0 0 0 23.943 23.951 55.8 55.8 0 0 0 -23.951 23.944q-1.043-2.023-2.249-3.955a55.673 55.673 0 0 0 -21.7-19.981 55.8 55.8 0 0 0 21.5-19.665q1.319-2.091 2.457-4.294zm50.708-39.08-12.438-9.929 51.916-71.064 12.008 10.507zm-183.218-129.58a56.808 56.808 0 0 0 56.71-51.02h8.4a65.287 65.287 0 0 1 -18.96 40.171 64.872 64.872 0 0 1 -92.272-.009 65.261 65.261 0 0 1 -18.968-40.162h8.4a56.8 56.8 0 0 0 56.69 51.02zm-44.598-51.02h89.216a45.008 45.008 0 0 1 -89.216 0zm-68.733 3.9a15.619 15.619 0 0 1 10.291-3.9h25.925a77.356 77.356 0 0 0 154.25 0h25.925a15.626 15.626 0 0 1 10.3 3.911l100.27 87.751-52.237 71.511-33.409-26.666a6 6 0 0 0 -9.744 4.736l.569 77.941a43.653 43.653 0 0 1 -31.849 18.48 6 6 0 0 0 0 11.952 43.747 43.747 0 0 1 26.95 12.617 43.243 43.243 0 0 1 5.256 6.316l.73 99.451h-239.772l1.656-226.821a5.989 5.989 0 0 0 -9.744-4.684l-33.407 26.681-52.237-71.5 53.224-46.576c.277.261.554.523.825.793a35.057 35.057 0 0 1 10.053 21.556 6.079 6.079 0 0 0 5.974 5.551 6.079 6.079 0 0 0 5.975-5.545 34.865 34.865 0 0 1 31.529-31.575 6.018 6.018 0 0 0 0-11.984 34.9 34.9 0 0 1 -20.091-8.784zm-37.75 18.412a46.643 46.643 0 0 0 7.548-9.881 46.921 46.921 0 0 0 4.086 6.011l.014.018a48.26 48.26 0 0 0 3.45 3.848 46.733 46.733 0 0 0 9.879 7.541 46.933 46.933 0 0 0 -17.429 17.431 46.881 46.881 0 0 0 -17.421-17.423 46.638 46.638 0 0 0 9.873-7.541zm-71.592 77.3 51.916 71.064-12.442 9.934-51.486-70.483z" fill="#083863"/><path d="m449.432 418.117a23.119 23.119 0 0 1 -6.666-14.245 6 6 0 0 0 -11.952 0 23.1 23.1 0 0 1 -20.92 20.913 6 6 0 0 0 0 11.95 23.116 23.116 0 0 1 20.92 20.853 5.955 5.955 0 0 0 5.974 5.412 5.958 5.958 0 0 0 5.976-5.407 23.058 23.058 0 0 1 20.906-20.883 5.99 5.99 0 0 0 0-11.932 23.155 23.155 0 0 1 -14.238-6.661zm-12.649 21.817a35 35 0 0 0 -9.178-9.174 34.989 34.989 0 0 0 9.181-9.179 34.9 34.9 0 0 0 9.173 9.175 35.173 35.173 0 0 0 -9.176 9.178z" fill="#083863"/></g></svg>