<svg id="Layer_1" height="512" viewBox="0 0 512 512" width="512" xmlns="http://www.w3.org/2000/svg" data-name="Layer 1"><g id="_Group_3" data-name=" Group 3"><path d="m484.62 392.83a22.931 22.931 0 0 1 -32.43 32.43l-156.46-156.46-25.94-25.94-25.95-25.95-25.94-25.94-25.94-25.94-25.94-25.94-6.49-6.49a22.941 22.941 0 0 0 -32.43 0l-67.42 67.43c-.2.19-.4.39-.6.58a22.932 22.932 0 0 1 -32.41-1.19c-8.47-9.09-7.82-23.42.97-32.21l67.04-67.04a68.793 68.793 0 0 1 97.28 0z" fill="#00efd1"/><path d="m196.2 95.928a74.789 74.789 0 0 0 -105.765 0l-67.035 67.04c-11.1 11.1-11.6 29.289-1.123 40.535a28.982 28.982 0 0 0 40.947 1.45l.583-.564c.04-.038.08-.077.119-.117l67.417-67.427a16.96 16.96 0 0 1 23.947 0l2.248 2.248-90.751 90.745a6 6 0 1 0 8.485 8.484l90.748-90.747 17.456 17.455-90.748 90.747a6 6 0 1 0 8.485 8.485l90.747-90.747 17.455 17.454-90.748 90.749a6 6 0 1 0 8.486 8.484l90.747-90.748 17.455 17.456-90.738 90.748a6 6 0 0 0 8.486 8.485l90.738-90.743 17.464 17.464-90.747 90.736a6 6 0 1 0 8.484 8.486l90.749-90.739 17.455 17.453-90.746 90.748a6 6 0 1 0 8.485 8.484l90.747-90.748 152.215 152.216a28.931 28.931 0 0 0 40.915-40.914zm284.18 325.087a16.959 16.959 0 0 1 -23.947 0l-156.46-156.46-136.2-136.2a28.976 28.976 0 0 0 -40.915 0l-67.39 67.4-.47.455a16.956 16.956 0 0 1 -23.937-.884c-6.132-6.581-5.763-17.292.823-23.878l67.04-67.04a62.791 62.791 0 0 1 88.794 0l292.661 292.66a16.949 16.949 0 0 1 0 23.943z" fill="#083863"/></g></svg>