<svg id="Layer_1" height="512" viewBox="0 0 512 512" width="512" xmlns="http://www.w3.org/2000/svg" data-name="Layer 1"><g id="_Group_3" data-name=" Group 3"><path d="m346.38 400.69v18.95h-25.82-25.83-25.82-25.82-25.82-25.83-25.82v-18.95z" fill="#00efd1"/><path d="m346.38 393.81v6.88h-180.76v-6.88a12.91 12.91 0 0 1 12.91-12.91h154.94a12.91 12.91 0 0 1 12.91 12.91z" fill="#00acea"/><path d="m275.82 70.68v77.82h-8.91-21.82-8.91v-77.82z" fill="#00acea"/><path d="m275.82 40.5v30.18h-39.64v-30.18a19.82 19.82 0 1 1 39.64 0z" fill="#00efd1"/><path d="m245.09 148.5h21.82v232.4h-21.82z" fill="#fedb41"/><g fill="#083863"><path d="m166 465.66a6 6 0 0 0 6-6v-33.66h13v33.66a6 6 0 1 0 12 0v-33.66h14v33.66a6 6 0 1 0 12 0v-33.66h14v33.66a6 6 0 1 0 12 0v-33.66h14v33.66a6 6 0 1 0 12 0v-33.66h14v33.66a6 6 0 1 0 12 0v-33.66h14v33.66a6 6 0 1 0 12 0v-33.66h13v33.66a6 6 0 1 0 12 0v-65.85a18.525 18.525 0 0 0 -18.53-18.81h-60.47v-220h2.82c3.313 0 6.18-3.187 6.18-6.5v-108a26 26 0 0 0 -52 0v108c0 3.313 2.867 6.5 6.18 6.5h2.82v220h-60.47a18.525 18.525 0 0 0 -18.53 18.81v65.85a6 6 0 0 0 6 6zm6-58.66h168v7h-168zm70-264v-66h28v66zm13.91-116.32a14.047 14.047 0 0 1 9.907 4.047 13.89 13.89 0 0 1 4.183 9.773v24.5h-28v-24.5a13.913 13.913 0 0 1 13.91-13.82zm-4.91 128.32h10v220h-10zm-72.47 232h154.94a6.518 6.518 0 0 1 6.53 6.81v1.19h-168v-1.19a6.518 6.518 0 0 1 6.53-6.81z"/><path d="m420.53 468h5.78a6 6 0 0 0 0-12h-5.78a8.213 8.213 0 0 1 -5.959-2.249 7.675 7.675 0 0 1 -2.481-5.643 8.171 8.171 0 0 1 8.44-8.108h8.78a22.515 22.515 0 0 1 16.177 6.478 22.1 22.1 0 0 1 6.7 15.9 22.679 22.679 0 0 1 -22.877 22.622h-90.66a6 6 0 0 0 0 12h90.66a34.788 34.788 0 0 0 34.88-34.73 33.954 33.954 0 0 0 -10.217-24.358 34.366 34.366 0 0 0 -24.663-9.912h-8.78a20.272 20.272 0 0 0 -20.44 20.215 19.614 19.614 0 0 0 6 14.134 20.046 20.046 0 0 0 14.44 5.651z"/><path d="m311.32 491a6 6 0 0 0 -6-6h-25.99a6 6 0 1 0 0 12h25.99a6 6 0 0 0 6-6z"/><path d="m82.69 497h90.66a6 6 0 1 0 0-12h-90.66a22.774 22.774 0 0 1 -22.88-22.73 22.029 22.029 0 0 1 6.7-15.872 22.443 22.443 0 0 1 16.18-6.398h8.78a8.26 8.26 0 0 1 8.44 8.215 7.672 7.672 0 0 1 -2.464 5.632 8.13 8.13 0 0 1 -5.976 2.153h-5.78a6 6 0 0 0 0 12h5.78a20.152 20.152 0 0 0 14.461-5.781 19.582 19.582 0 0 0 5.979-14.111 20.182 20.182 0 0 0 -20.44-20.108h-8.78a34.436 34.436 0 0 0 -24.663 9.993 34.025 34.025 0 0 0 -10.217 24.39 34.692 34.692 0 0 0 34.88 34.617z"/><path d="m232.67 485h-25.99a6 6 0 0 0 0 12h25.99a6 6 0 0 0 0-12z"/></g></g></svg>