<svg id="Layer_1" height="512" viewBox="0 0 512 512" width="512" xmlns="http://www.w3.org/2000/svg" data-name="Layer 1"><g id="_Group_3" data-name=" Group 3"><path d="m298.23 154.07 57.6-98.33 64.26 109.7a74.475 74.475 0 1 1 -128.52 0z" fill="#00efd1"/><path d="m170.19 138.5a243.83 243.83 0 0 1 78.01 0c19.01 3.15 36.08 8.54 50.03 15.57l-6.66 11.37a74.521 74.521 0 0 0 41.78 108.67l-.07.22c-3.73 73.64-9.93 179.25-15.74 199.91a19.591 19.591 0 0 1 -18.93 14.21h-178.83a19.591 19.591 0 0 1 -18.93-14.21c-9.1-32.36-19.16-273.05-19.16-273.05 0-29.34 37.16-54.19 88.5-62.69zm113.33 309.35v-203.03h-148.65v203.03z" fill="#00acea"/><path d="m134.87 244.82h148.65v203.03h-148.65z" fill="#fedb41"/><path d="m248.43 72.59v33.35h-9.81-58.85-9.81v-33.35h39.24z" fill="#fedb41"/><path d="m238.62 105.94 9.58 32.56a243.83 243.83 0 0 0 -78.01 0l9.58-32.56z" fill="#00efd1"/><g fill="#083863"><path d="m361.007 52.708a6 6 0 0 0 -10.354 0l-54.815 93.576a186.408 186.408 0 0 0 -42.938-13.023l-6.261-21.261h1.791c3.314 0 5.57-2.747 5.57-6.06v-33.35a5.308 5.308 0 0 0 -5.57-5.59h-33.43v-37h101.761l31.187 13.947a5.845 5.845 0 0 0 2.479.427 6.054 6.054 0 0 0 2.486-11.548l-32.371-14.5a5.836 5.836 0 0 0 -2.482-.326h-163.79a6 6 0 0 0 0 12h48.73v37h-33.04c-3.314 0-5.96 2.276-5.96 5.59v33.35a6.018 6.018 0 0 0 5.96 6.06h1.79l-6.267 21.272c-53.867 9.85-89.793 36.87-89.793 67.933v.243c.412 9.856 10.2 241.536 19.378 274.191a25.475 25.475 0 0 0 24.712 18.361h178.83a25.477 25.477 0 0 0 24.706-18.36c5.639-20.054 11.527-114.906 15.592-193.986a80.4 80.4 0 0 0 86.359-119.261zm-185.007 26.292h66v21h-66zm58.131 33 5.675 19.258a249.345 249.345 0 0 0 -61.22.006l5.673-19.264zm77.632 360.4a13.44 13.44 0 0 1 -13.153 9.6h-178.83a13.441 13.441 0 0 1 -13.154-9.609c-7.044-25.049-15.463-188.382-18.936-271.433.109-25.241 34.406-48.47 83.482-56.595a238.385 238.385 0 0 1 76.047.042 178.32 178.32 0 0 1 42.518 12.286l-3.344 5.713a80.687 80.687 0 0 0 -2.656 76.515c-.073 0-.144.081-.217.081h-148.65a5.739 5.739 0 0 0 -5.87 5.82v203.03a6.02 6.02 0 0 0 5.87 6.15h148.65c3.313 0 6.48-2.836 6.48-6.15v-199.185c2 4 5.638 7.8 9.165 11.325a79.9 79.9 0 0 0 28.027 18.168c-5.636 110.302-11.184 179.142-15.429 194.242zm-33.763-221.4v191h-137v-191zm126.246.509a68.54 68.54 0 0 1 -69.086 16.881h-.006a67.556 67.556 0 0 1 -27.741-16.88 68.5 68.5 0 0 1 -10.666-83.034l59.083-100.865 59.083 100.862a68.5 68.5 0 0 1 -10.667 83.036z"/><path d="m385.53 178h-23.53v-23.81a6 6 0 0 0 -12 0v23.81h-23.87a6 6 0 0 0 0 12h23.87v23.59a6 6 0 1 0 12 0v-23.59h23.53a6 6 0 0 0 0-12z"/><path d="m164.08 333h90.23a6 6 0 0 0 0-12h-90.23a6 6 0 0 0 0 12z"/><path d="m183.69 293h51.01a6 6 0 1 0 0-12h-51.01a6 6 0 0 0 0 12z"/><path d="m164.08 371h90.23a6 6 0 0 0 0-12h-90.23a6 6 0 0 0 0 12z"/><path d="m164.08 408h90.23a6 6 0 0 0 0-12h-90.23a6 6 0 0 0 0 12z"/></g></g></svg>