<svg id="Layer_1" height="512" viewBox="0 0 512 512" width="512" xmlns="http://www.w3.org/2000/svg" data-name="Layer 1"><g id="_Group_3" data-name=" Group 3"><path d="m395.83 306.47a31.374 31.374 0 0 1 .18-44.19 6.434 6.434 0 0 1 9.08 0l69.89 69.89a79.376 79.376 0 1 1 -112.25 112.26l-20.98-20.98-21.91-21.92-42.23-42.23a15.117 15.117 0 0 1 18.47-23.65l.24-.4-18.71-18.71a15.118 15.118 0 0 1 21.38-21.38l-10.69-10.69a15.118 15.118 0 1 1 21.38-21.38l16.04 16.03a15.118 15.118 0 0 1 21.38-21.38z" fill="#00acea"/><path d="m407.2 154.2a28.915 28.915 0 1 1 -52.03 0l26.02-41.24z" fill="#fedb41"/><path d="m309.06 134.09a62.95 62.95 0 1 1 -113.27 0l56.63-89.76z" fill="#00efd1"/><path d="m215.92 335.65a15.116 15.116 0 0 1 18.47 23.65l-42.23 42.23-21.91 21.92-20.98 20.98a79.376 79.376 0 0 1 -112.25-112.26l69.89-69.89a6.434 6.434 0 0 1 9.08 0 31.387 31.387 0 0 1 .19 44.19l48.72-48.73a15.118 15.118 0 0 1 21.38 21.38l16.04-16.03a15.118 15.118 0 1 1 21.38 21.38l-10.69 10.69a15.118 15.118 0 0 1 21.38 21.38l-18.71 18.71z" fill="#00acea"/><path d="m156.83 91.24a28.915 28.915 0 1 1 -52.03 0l26.01-41.23z" fill="#fedb41"/><g fill="#083863"><path d="m252.42 230.52a68.95 68.95 0 0 0 62.038-99.049 5.922 5.922 0 0 0 -.324-.583l-56.64-89.76a6 6 0 0 0 -10.149 0l-56.629 89.76a5.794 5.794 0 0 0 -.324.582 68.95 68.95 0 0 0 62.028 99.05zm-51.373-93.437 51.373-81.468 51.38 81.408a57.04 57.04 0 0 1 -51.383 81.582 55.485 55.485 0 0 1 -40.263-16.605 57.087 57.087 0 0 1 -11.107-64.917z"/><path d="m226.87 161h19.13v19.42a6 6 0 0 0 12 0v-19.42h19.98a6 6 0 0 0 0-12h-19.98v-19.69a6 6 0 0 0 -12 0v19.69h-19.13a6 6 0 0 0 0 12z"/><path d="m386.265 109.759a6 6 0 0 0 -5.075-2.8 6 6 0 0 0 -5.075 2.8l-26.015 41.241a6.2 6.2 0 0 0 -.323.58 34.916 34.916 0 1 0 62.825 0 5.974 5.974 0 0 0 -.322-.58zm11.122 73.268a22.908 22.908 0 0 1 -32.4 0 22.939 22.939 0 0 1 -4.553-25.925l20.757-32.9 20.749 32.9a22.922 22.922 0 0 1 -4.553 25.925z"/><path d="m130.81 44.01a6 6 0 0 0 -5.075 2.8l-26.01 41.23a6.111 6.111 0 0 0 -.323.582 34.915 34.915 0 1 0 62.826 0 6.039 6.039 0 0 0 -.324-.583l-26.02-41.23a6 6 0 0 0 -5.074-2.799zm16.2 76.061a22.908 22.908 0 0 1 -32.4 0 22.917 22.917 0 0 1 -4.547-25.921l20.748-32.889 20.756 32.89a22.935 22.935 0 0 1 -4.554 25.92z"/><path d="m409.324 258.029a12.463 12.463 0 0 0 -17.557.008 37.115 37.115 0 0 0 -10.912 24.973l-29.52-29.52a21.1 21.1 0 0 0 -34.835 7.934l-2.577-2.576a21.106 21.106 0 0 0 -32.26 26.968 21.1 21.1 0 0 0 -8.3 34.966l7.919 7.919a21.106 21.106 0 0 0 -7.919 34.841l85.121 85.131a85.376 85.376 0 0 0 120.739-120.745zm61.414 182.158a73.474 73.474 0 0 1 -103.765 0l-85.12-85.129a9.117 9.117 0 0 1 11.158-14.252 8.932 8.932 0 0 1 1.736 1.356l36.88 36.89a6 6 0 1 0 8.486-8.485l-36.881-36.89a21.087 21.087 0 0 0 -1.858-1.648 6.021 6.021 0 0 0 -.811-1.021l-18.714-18.714a9.118 9.118 0 0 1 12.9-12.892l16.04 16.04 59.211 59.21a6 6 0 0 0 8.486-8.484l-59.21-59.21-16.04-16.04-10.69-10.688a9.117 9.117 0 1 1 12.892-12.9l16.041 16.03 69.9 69.906a6.007 6.007 0 0 0 8.5-8.484l-69.879-69.905h-.024a9.112 9.112 0 0 1 12.883-12.889l48.641 48.636c.085.091.17.181.268.278l.214.214 43.112 43.1a6 6 0 0 0 8.482-8.489l-39.276-39.267c-.015-.015-.025-.033-.04-.048l-3.8-3.79-.182-.182c-.056-.061-.113-.122-.172-.181a25.375 25.375 0 0 1 .14-35.728.435.435 0 0 1 .6-.009l69.89 69.89a73.38 73.38 0 0 1 0 103.775z"/><path d="m153.513 448.672 85.12-85.13a21.1 21.1 0 0 0 -7.917-34.843l7.913-7.913a21.093 21.093 0 0 0 -8.291-34.969 21.107 21.107 0 0 0 -32.259-26.971l-2.58 2.577a21.116 21.116 0 0 0 -34.842-7.925l-29.512 29.518a37.115 37.115 0 0 0 -10.921-24.987 12.462 12.462 0 0 0 -17.557.009l-69.89 69.89a85.376 85.376 0 0 0 120.736 120.744zm-133.743-60.372a72.9 72.9 0 0 1 21.493-51.888l69.881-69.881a.432.432 0 0 1 .6-.008 25.386 25.386 0 0 1 .176 35.719l-.187.186-3.993 3.984c-.016.016-.026.035-.041.05l-39.28 39.274a6 6 0 0 0 8.482 8.489l43.324-43.315.023-.022.207-.208 48.677-48.688a9.118 9.118 0 1 1 12.907 12.883l-69.9 69.909a6 6 0 1 0 8.486 8.484l69.9-69.906 16.042-16.032a9.118 9.118 0 1 1 12.894 12.9l-10.69 10.69-16.04 16.04-59.21 59.21a6 6 0 1 0 8.479 8.482l59.21-59.21 16.04-16.04a9.118 9.118 0 1 1 12.894 12.9l-18.71 18.71a5.979 5.979 0 0 0 -.811 1.022 20.975 20.975 0 0 0 -1.859 1.648l-36.88 36.889a6 6 0 1 0 8.486 8.485l36.879-36.889a8.96 8.96 0 0 1 1.758-1.369 9.116 9.116 0 0 1 11.137 14.264l-85.119 85.129a73.375 73.375 0 0 1 -125.255-51.891z"/></g></g></svg>