<svg id="Layer_1" height="512" viewBox="0 0 512 512" width="512" xmlns="http://www.w3.org/2000/svg" data-name="Layer 1"><g id="_Group_3" data-name=" Group 3"><path d="m359.85 68.36a12.122 12.122 0 1 1 -13.69 20.01 142.126 142.126 0 0 0 -82.88-24.74q-5.385.1-10.77.62l-20.76 1.99v.01l-56.54 5.43-25.91-34.54a12.125 12.125 0 1 1 19.4-14.55l17.74 23.65 63.75-6.13a166.283 166.283 0 0 1 109.66 28.25z" fill="#00efd1"/><path d="m344.51 288.13v181.88a24.241 24.241 0 0 1 -24.25 24.25h-145.5a24.247 24.247 0 0 1 -24.25-24.25v-181.88a97.059 97.059 0 0 1 60.63-89.94v-42.22h72.75v42.22a97.021 97.021 0 0 1 60.62 89.94zm-47.28 168.75v-151.17h-99.43v151.17z" fill="#00acea"/><path d="m197.8 305.71h99.43v151.17h-99.43z" fill="#fedb41"/><path d="m274.79 108.68v47.29h-54.56v-47.29h11.52 31.53z" fill="#00efd1"/><path d="m263.28 63.81v44.87h-31.53v-42.44l20.76-1.99q5.385-.51 10.77-.62z" fill="#fedb41"/><g fill="#083863"><path d="m303 306a6 6 0 0 0 -6-6h-99a6 6 0 0 0 -6 6v151a6 6 0 0 0 6 6h99a6 6 0 0 0 6-6zm-99 6h87v139h-87z"/><path d="m363.239 63.409a172.305 172.305 0 0 0 -113.623-29.272l-60.4 5.808-15.716-20.955a18.125 18.125 0 1 0 -29 21.751l25.91 34.54a6.235 6.235 0 0 0 5.5 2.372l50.09-4.799v30.146h-5.77c-3.314 0-6.23 2.367-6.23 5.68v41.32h-2.86a6.1 6.1 0 0 0 -6.14 5.97v38.26a105.655 105.655 0 0 0 -30.149 21.07 102.062 102.062 0 0 0 -29.851 72.83v181.88a29.648 29.648 0 0 0 29.76 29.99h145.5c16.68 0 30.74-13.311 30.74-29.99v-181.88a102.856 102.856 0 0 0 -61-93.9v-38.26a6.07 6.07 0 0 0 -6.11-5.97h-2.89v-41.32c0-3.313-2.9-5.68-6.21-5.68h-5.79v-33.345a137.762 137.762 0 0 1 73.632 23.667 18.162 18.162 0 0 0 20.607-29.913zm-24.239 224.721v181.88c0 10.063-8.677 17.99-18.74 17.99h-145.5a17.637 17.637 0 0 1 -17.76-17.99v-181.88a90.8 90.8 0 0 1 56.441-84.378 5.829 5.829 0 0 0 3.559-5.562v-36.19h61v36.19a6.179 6.179 0 0 0 3.939 5.561 90.822 90.822 0 0 1 57.061 84.379zm-113-138.13v-35h43v35zm12-47v-31.307l15.06-1.47c1.4-.133 2.94-.23 3.94-.32v33.097zm120.06-21.181a6.141 6.141 0 0 1 -5.07 2.671 6.074 6.074 0 0 1 -3.443-1.072 149.017 149.017 0 0 0 -83.6-25.629c-.928 0-1.858.211-2.786.211-3.678 0-7.453.1-11.225.462l-20.76 1.9c-.114.011-.228-.021-.341 0l-52.847 5.053-23.888-31.863a6.128 6.128 0 1 1 9.8-7.361l17.74 23.65a6.005 6.005 0 0 0 5.374 2.372l63.751-6.131a160.29 160.29 0 0 1 105.7 27.231 6.129 6.129 0 0 1 1.595 8.506z"/></g></g></svg>