<svg id="Layer_1" height="512" viewBox="0 0 512 512" width="512" xmlns="http://www.w3.org/2000/svg" data-name="Layer 1"><g id="_Group_3" data-name=" Group 3"><path d="m486 30.09-11.49 44.03h-210.99l-11.49-44.03z" fill="#00acea"/><path d="m263.52 74.12h222.44v22.11a10.351 10.351 0 0 1 -10.35 10.35h-213.19a10.351 10.351 0 0 1 -10.35-10.35v-22.11z" fill="#fedb41"/><path d="m390.96 106.58v27.19h-12.28-19.33-12.28v-27.19z" fill="#00efd1"/><path d="m385.16 452.4v13.36a16.145 16.145 0 1 1 -32.29 0v-13.36z" fill="#00acea"/><path d="m378.68 369.72h6.48v82.68h-32.29v-82.68h6.48z" fill="#00efd1"/><path d="m359.35 133.77h19.33v235.95h-19.33z" fill="#00acea"/><path d="m38.52 261.65a21.568 21.568 0 0 1 -12.52-19.58v-.01a21.574 21.574 0 0 1 21.57-21.57h247.89a21.574 21.574 0 0 1 21.57 21.57v.01a21.569 21.569 0 0 1 -21.57 21.57h-247.89a21.4 21.4 0 0 1 -9.05-1.99z" fill="#fedb41"/><path d="m292.78 263.64-7.95 70.67a145.873 145.873 0 0 1 -80.5 65.22v-11.81h-65.63v11.8a145.873 145.873 0 0 1 -80.5-65.2l-7.95-70.68z" fill="#00acea"/><path d="m284.83 334.31-2.36 21.03-11.77 104.73a24.24 24.24 0 0 1 -24.12 21.84h-150.13a24.24 24.24 0 0 1 -24.12-21.84l-11.77-104.73-2.36-21.02a145.873 145.873 0 0 0 80.5 65.2v12.45h65.63v-12.44a145.873 145.873 0 0 0 80.5-65.22z" fill="#00acea"/><path d="m138.7 399.52v-11.8h65.63v11.81 12.44h-65.63z" fill="#00efd1"/><g fill="#083863"><path d="m490.748 26.377a6.043 6.043 0 0 0 -4.748-2.377h-233.97a6.043 6.043 0 0 0 -4.748 2.377 5.921 5.921 0 0 0 -1.057 5.145l9.528 36.478h-3.683a6.165 6.165 0 0 0 -6.07 6.12v22.11c0 9.016 7.4 16.77 16.42 16.77h78.58v20.77a6.261 6.261 0 0 0 6.07 6.23h5.93v224h-.13a5.658 5.658 0 0 0 -5.87 5.72v96.04a22 22 0 1 0 44 0v-96.04a5.632 5.632 0 0 0 -5.84-5.72h-.16v-224h5.96a6.236 6.236 0 0 0 6.04-6.23v-20.77h78.61c9.016 0 16.39-7.754 16.39-16.77v-22.11a6.139 6.139 0 0 0 -6.04-6.12h-3.683l9.529-36.478a5.922 5.922 0 0 0 -1.058-5.145zm-111.748 349.623v70h-20v-70zm-10.07 99.91a9.832 9.832 0 0 1 -7.062-2.972 9.987 9.987 0 0 1 -2.868-7.178v-7.76h20v7.76a10.094 10.094 0 0 1 -10.07 10.15zm4.07-111.91h-8v-224h8zm12-236h-32v-15h32zm95-31.77c0 2.4-1.991 4.77-4.39 4.77h-213.19a4.794 4.794 0 0 1 -4.42-4.77v-16.23h222zm-211.845-28.23-8.355-32h218.433l-8.358 32z"/><path d="m310.44 265.208a28.11 28.11 0 0 0 12.59-23.393 27.812 27.812 0 0 0 -27.57-27.815h-247.89a27.811 27.811 0 0 0 -14.982 51.084 151.53 151.53 0 0 0 19.778 71.038l13.993 124.554a30.2 30.2 0 0 0 30.091 27.324h150.13a30.157 30.157 0 0 0 30.083-27.215l14-124.593a151.3 151.3 0 0 0 19.777-70.984zm-106.11 116.792h-65.63a5.518 5.518 0 0 0 -5.7 5.72v3.249a138.106 138.106 0 0 1 -68.839-58.441l-7.199-62.528h229.105l-7.219 62.53a138.169 138.169 0 0 1 -68.848 58.447v-3.257a5.493 5.493 0 0 0 -5.67-5.72zm-6.33 12v12h-53v-12zm100.158-124.5.091-.007a139.964 139.964 0 0 1 -1.908 16.178zm-250.588-43.5h247.89a15.8 15.8 0 0 1 15.57 15.825 16.075 16.075 0 0 1 -9.052 14.443 15.641 15.641 0 0 1 -6.518 1.732h-247.89a15.5 15.5 0 0 1 -6.518-1.61s-.008-.093-.013-.095a16.055 16.055 0 0 1 -9.039-14.435 15.837 15.837 0 0 1 15.57-15.86zm-2.791 43.5.092.007 1.818 16.181a140.19 140.19 0 0 1 -1.91-16.188zm219.95 190.025a18.214 18.214 0 0 1 -18.149 16.475h-150.13a18.233 18.233 0 0 1 -18.157-16.555l-11.336-102.2a150.96 150.96 0 0 0 66.043 46.555v8.175a5.777 5.777 0 0 0 5.7 6.03h65.63a5.753 5.753 0 0 0 5.67-6.03v-8.175a151.066 151.066 0 0 0 66.052-46.551z"/></g></g></svg>