<svg id="Layer_1" height="512" viewBox="0 0 512 512" width="512" xmlns="http://www.w3.org/2000/svg" data-name="Layer 1"><g id="_Group_3" data-name=" Group 3"><path d="m314.58 431.61 11.89 45.56h-242.09l11.89-45.56z" fill="#00acea"/><path d="m314.58 431.61h-230.15v-22.88a10.7 10.7 0 0 1 10.71-10.7h220.57a10.7 10.7 0 0 1 10.71 10.7v22.88z" fill="#fedb41"/><path d="m228.13 369.89v28.14h-45.41v-28.14h12.7 20z" fill="#00efd1"/><path d="m215.42 125.76h-20-6.7v-85.55h33.41v85.55z" fill="#00efd1"/><path d="m222.13 26.39v13.82h-33.41v-13.82a16.705 16.705 0 1 1 33.41 0z" fill="#00acea"/><path d="m195.42 125.76h20v244.13h-20z" fill="#fedb41"/><g fill="#083863"><path d="m79.632 480.753a5.919 5.919 0 0 0 4.748 2.247h242.09a5.919 5.919 0 0 0 4.748-2.247 5.513 5.513 0 0 0 1.058-4.946l-9.929-37.807h4.073c3.313 0 5.58-3.077 5.58-6.39v-22.88a16.4 16.4 0 0 0 -16.29-16.73h-81.71v-22.11a5.8 5.8 0 0 0 -5.87-5.89h-7.13v-232h1.13a6.1 6.1 0 0 0 5.87-6.24v-99.37a22.553 22.553 0 0 0 -6.589-16.07 22.207 22.207 0 0 0 -15.884-6.64 22.584 22.584 0 0 0 -22.527 22.71v99.37a5.979 5.979 0 0 0 5.72 6.24h.28v232h-6.28a5.675 5.675 0 0 0 -5.72 5.89v22.11h-81.86c-9.214 0-17.14 7.521-17.14 16.73v22.88a6.725 6.725 0 0 0 6.43 6.39h4.07l-9.927 37.807a5.513 5.513 0 0 0 1.059 4.946zm115.368-360.753v-74h21v74zm10.56-104.32a10.354 10.354 0 0 1 7.44 3.125 10.554 10.554 0 0 1 3 7.585v7.61h-21v-7.61a10.6 10.6 0 0 1 10.56-10.71zm-4.56 116.32h8v232h-8zm-12 244h33v16h-33zm-99 32.73c0-2.592 2.543-4.73 5.14-4.73h220.57c2.6 0 4.29 2.138 4.29 4.73v17.27h-230zm219.947 29.27 8.757 33h-226.558l8.759-33z"/><path d="m389.96 479h5.77a6 6 0 0 0 0-12h-5.77a8.164 8.164 0 0 1 -5.967-2.257 7.641 7.641 0 0 1 -2.473-5.635 8.171 8.171 0 0 1 8.44-8.108h8.77a22.528 22.528 0 0 1 16.187 6.478 22.1 22.1 0 0 1 6.7 15.9 22.684 22.684 0 0 1 -22.887 22.622h-90.66a6 6 0 1 0 0 12h90.66a34.793 34.793 0 0 0 34.89-34.73 33.954 33.954 0 0 0 -10.22-24.358 34.377 34.377 0 0 0 -24.67-9.912h-8.77a20.272 20.272 0 0 0 -20.44 20.215 19.554 19.554 0 0 0 5.98 14.118 19.973 19.973 0 0 0 14.46 5.667z"/><path d="m274.75 508a6 6 0 0 0 0-12h-26a6 6 0 0 0 0 12z"/><path d="m202.1 508a6 6 0 1 0 0-12h-26a6 6 0 0 0 0 12z"/></g></g></svg>