<svg id="Layer_1" height="512" viewBox="0 0 512 512" width="512" xmlns="http://www.w3.org/2000/svg" data-name="Layer 1"><g id="_Group_3" data-name=" Group 3"><path d="m449.32 121.68v119.63a260.823 260.823 0 0 1 -156.31 238.73l-34.07 14.86-36.81-15.9a260.331 260.331 0 0 1 -159.45-240v-117.55l195.82-104.35zm-40.32 120.64v-95.39l-150.85-82.68-155.15 82.68v93.24a215.45 215.45 0 0 0 132.06 198.63l23.62 10.2 20.94-9.12a215.769 215.769 0 0 0 129.38-197.56z" fill="#fedb41"/><path d="m409 146.93v95.39a215.769 215.769 0 0 1 -129.38 197.56l-20.94 9.12-23.62-10.2a215.45 215.45 0 0 1 -132.06-198.63v-93.24l155.15-82.68zm-108.49 180.73a62.935 62.935 0 0 0 12.12-71.99l-56.63-89.77-56.63 89.77a62.945 62.945 0 0 0 101.14 71.99z" fill="#00acea"/><path d="m312.63 255.67a62.946 62.946 0 1 1 -113.26 0l56.63-89.77z" fill="#00efd1"/><g fill="#083863"><path d="m452.044 116.418-190.744-104.58a5.92 5.92 0 0 0 -5.666-.033l-195.634 104.35a5.838 5.838 0 0 0 -3 5.3v117.545a266.2 266.2 0 0 0 162.932 245.518l36.709 15.89a5.807 5.807 0 0 0 2.339.492 5.916 5.916 0 0 0 2.379-.5l33.91-14.865a266.666 266.666 0 0 0 159.731-244.225v-119.63a5.858 5.858 0 0 0 -2.956-5.262zm-9.044 124.892a254.671 254.671 0 0 1 -152.549 233.23l-31.6 13.819-34.379-14.867c-.013-.006.153-.012.14-.017a254.2 254.2 0 0 1 -155.612-234.475v-113.948l189.46-101.132 184.54 101.313z"/><path d="m255.328 58.955-155.15 82.68a6 6 0 0 0 -3.178 5.295v93.24a221.447 221.447 0 0 0 135.7 204.146l23.6 10.193a6.005 6.005 0 0 0 4.775-.008l20.953-9.126a221.872 221.872 0 0 0 132.972-203.055v-95.39a6 6 0 0 0 -3.116-5.262l-150.85-82.68a6 6 0 0 0 -5.706-.033zm147.672 91.528v91.837a209.866 209.866 0 0 1 -125.776 192.059l-18.554 8.081-21.231-9.169-.043-.018a209.448 209.448 0 0 1 -128.396-193.103v-89.639l149.11-79.461z"/><path d="m250.925 162.7-56.63 89.77a5.991 5.991 0 0 0 -.323.582 68.946 68.946 0 1 0 124.056 0 5.991 5.991 0 0 0 -.323-.582l-56.63-89.77a6 6 0 0 0 -10.15 0zm56.448 95.883a56.945 56.945 0 0 1 -91.64 64.836 56.978 56.978 0 0 1 -11.106-64.835l51.373-81.438z"/><path d="m250 250.89v19.11h-19.55a6 6 0 0 0 0 12h19.55v20a6 6 0 0 0 12 0v-20h19.55a6 6 0 0 0 0-12h-19.55v-19.11a6 6 0 0 0 -12 0z"/></g></g></svg>