<svg id="Layer_1" height="512" viewBox="0 0 512 512" width="512" xmlns="http://www.w3.org/2000/svg" data-name="Layer 1"><g id="_Group_3" data-name=" Group 3"><path d="m446.87 258.17h-260.28-17.35v-42.3h17.35 277.64v42.3z" fill="#fedb41"/><path d="m454.47 483.21h-406.7a40.117 40.117 0 0 1 40.13-40.13h17.35v-15.18a39.042 39.042 0 0 1 -39.04-39.05v-326.44h120.38v153.46h-17.35v42.3h17.35v21.69a130.167 130.167 0 0 0 196.23 112.13l.07.12v19.52a31.449 31.449 0 0 0 31.45 31.45 40.117 40.117 0 0 1 40.13 40.13z" fill="#00acea"/><path d="m446.87 258.17v21.69a130.14 130.14 0 0 1 -260.28 0v-21.69z" fill="#00efd1"/><path d="m186.59 62.41h44.47v95.98h-44.47z" fill="#fedb41"/><path d="m186.59 58.08v4.33h-120.38v-33.62h120.38z" fill="#00efd1"/><path d="m47.77 489h406.7a5.912 5.912 0 0 0 6-5.895 46.07 46.07 0 0 0 -46.07-46.051 25.41 25.41 0 0 1 -25.4-25.424v-16.323a134.256 134.256 0 0 0 45.525-46.943 136.07 136.07 0 0 0 18.475-68.504v-15.86h11.23a5.665 5.665 0 0 0 5.77-5.83v-42.3a5.7 5.7 0 0 0 -5.77-5.87h-271.23v-46h38.06a5.628 5.628 0 0 0 5.94-5.61v-95.98c0-3.313-2.626-6.41-5.94-6.41h-38.06v-27.21c0-3.313-3.1-5.79-6.41-5.79h-120.38a6.008 6.008 0 0 0 -6.21 5.79v360.06a44.725 44.725 0 0 0 13.167 31.85 43.964 43.964 0 0 0 25.833 12.807v3.493h-11.1a46.186 46.186 0 0 0 -46.13 46.085 5.928 5.928 0 0 0 6 5.915zm393.23-209.14a124.226 124.226 0 0 1 -124.254 124.14 123.814 123.814 0 0 1 -123.746-124.14v-15.86h248zm17-27.86h-283v-30h283zm-233-184v84h-32v-84zm-44-33v21h-109v-21zm-117.24 423.931a33.883 33.883 0 0 1 24.14-9.931h17.35a5.724 5.724 0 0 0 5.75-5.92v-15.18a5.9 5.9 0 0 0 -5.875-6 33.115 33.115 0 0 1 -33.125-33.05v-320.85h109v142h-11.76a6.1 6.1 0 0 0 -6.24 5.87v42.3a6.068 6.068 0 0 0 6.24 5.83h11.76v15.86a135.8 135.8 0 0 0 135.887 136.14 137.158 137.158 0 0 0 60.113-14v9.635a37.445 37.445 0 0 0 37.4 37.445 33.784 33.784 0 0 1 24.11 9.887 32.977 32.977 0 0 1 9.438 18.033h-393.656a33.111 33.111 0 0 1 9.468-18.069z" fill="#083863"/></g></svg>