<svg id="Layer_1" height="512" viewBox="0 0 512 512" width="512" xmlns="http://www.w3.org/2000/svg" data-name="Layer 1"><g id="_Group_3" data-name=" Group 3"><path d="m480.73 33.26a26.134 26.134 0 0 1 0 36.95l-161.35 161.35-36.96-36.96 161.35-161.35a26.134 26.134 0 0 1 36.95 0z" fill="#fedb41"/><path d="m319.38 231.56 27.87 27.87a25.251 25.251 0 1 1 -35.71 35.71l-3.52-3.52-88.85-88.84-3.51-3.52a25.251 25.251 0 1 1 35.71-35.71l31.05 31.05z" fill="#00efd1"/><path d="m271.49 328.15-41.92 41.92-34.43 34.44-23.59 23.59a62.846 62.846 0 0 1 -88.85 0v-.01a62.829 62.829 0 0 1 0-88.84l23.59-23.59 34.43-34.43 41.93-41.93 36.52-36.52 88.85 88.84z" fill="#00acea"/><g fill="#083863"><path d="m462.245 19.6a31.92 31.92 0 0 0 -22.718 9.407l-157.107 157.108-26.808-26.808a31.247 31.247 0 0 0 -44.9 43.451l-24.956 24.955-8.416-31.4a6 6 0 1 0 -11.59 3.108l10.209 38.087-32.129 32.128-8.409-31.392a6 6 0 1 0 -11.592 3.106l10.2 38.085-27.739 27.74-28.147-28.148a6 6 0 0 0 -8.486 8.486l28.148 28.147-19.348 19.347a68.957 68.957 0 0 0 -4.687 5.213l-43.291-12.533a6 6 0 1 0 -3.337 11.526l39.589 11.461a68.981 68.981 0 0 0 -8.416 32.554l-36.129 8.9a6 6 0 1 0 2.868 11.652l34.253-8.434a68.782 68.782 0 0 0 15.105 32.554l-28.945 28.947a6 6 0 0 0 8.486 8.486l28.935-28.933a68.909 68.909 0 0 0 31.641 14.923l-8.285 33.645a6 6 0 1 0 11.652 2.869l8.7-35.351c.181 0 .362.011.543.011a68.784 68.784 0 0 0 32.976-8.41l11.457 39.575a6 6 0 1 0 11.526-3.338l-12.53-43.284a69.368 69.368 0 0 0 5.22-4.694l19.351-19.346 28.138 28.138a6 6 0 0 0 8.486-8.486l-28.139-28.138 27.74-27.741 38.082 10.208a6 6 0 0 0 3.108-11.591l-31.393-8.415 32.124-32.126 38.082 10.2a6 6 0 1 0 3.106-11.59l-31.39-8.41 24.955-24.957a31.247 31.247 0 0 0 43.455-44.9l-23.628-23.632 157.108-157.107a32.135 32.135 0 0 0 -22.728-54.853zm-212.357 308.976 10.012 2.682-32.122 32.124-16.706-4.482a6 6 0 0 0 -3.1 11.592l10.013 2.684-22.842 22.844-8.376-8.377a6 6 0 1 0 -8.486 8.486l8.377 8.376-19.347 19.348c-.14.141-.288.274-.43.414l-1.273-4.4a6 6 0 1 0 -11.528 3.335l2.605 9a56.664 56.664 0 0 1 -27.114 8.23l3.029-12.3a6 6 0 0 0 -11.652-2.868l-3.543 14.39a56.867 56.867 0 0 1 -25.985-11.789l5.483-5.482a6 6 0 0 0 -8.486-8.486l-5.478 5.479a56.775 56.775 0 0 1 -11.956-26.909l13.772-3.391a6 6 0 0 0 -2.87-11.652l-11.477 2.826a56.837 56.837 0 0 1 8.192-26.139l8.989 2.6a6 6 0 1 0 3.336-11.526l-4.391-1.271c.136-.14.267-.285.406-.423l19.347-19.348 8.377 8.377a6 6 0 0 0 8.486-8.485l-8.378-8.377 22.838-22.838 2.681 10.01a6 6 0 1 0 11.592-3.1l-4.475-16.7 32.13-32.13 2.683 10.008a6 6 0 1 0 11.592-3.1l-4.477-16.7 29.836-29.836 80.36 80.36-29.832 29.827-16.706-4.475a6 6 0 0 0 -3.1 11.592zm98.757-51.291a19.247 19.247 0 0 1 -32.862 13.615l-92.364-92.354-3.518-3.528a19.251 19.251 0 1 1 27.226-27.223l95.88 95.881a19.122 19.122 0 0 1 5.638 13.609zm127.842-211.318-157.107 157.108-28.48-28.475 157.113-157.107a20.134 20.134 0 0 1 28.474 28.474z"/><path d="m223.973 275.958a6 6 0 0 0 -8.486 8.485l10.09 10.09a6 6 0 0 0 8.486-8.486z"/><path d="m185.153 314.767a6 6 0 0 0 -8.486 8.485l10.1 10.1a6 6 0 0 0 8.486-8.486z"/><path d="m154.1 345.827a6 6 0 0 0 -8.486 8.485l10.09 10.091a6 6 0 0 0 8.486-8.486z"/><path d="m123.043 376.877a6 6 0 0 0 -8.486 8.486l10.1 10.1a6 6 0 1 0 8.486-8.485z"/></g></g></svg>