<svg id="Layer_1" height="512" viewBox="0 0 512 512" width="512" xmlns="http://www.w3.org/2000/svg" data-name="Layer 1"><g id="_Group_3" data-name=" Group 3"><path d="m476.6 257.08a25.45 25.45 0 1 1 0 50.9h-5.3v-50.9z" fill="#fedb41"/><path d="m436.65 257.08h34.65v50.9h-34.65z" fill="#00acea"/><path d="m402.01 257.08h34.64v50.9h-34.64z" fill="#fedb41"/><path d="m367.36 257.08h34.65v50.9h-34.65z" fill="#00acea"/><path d="m367.36 257.08v50.9h-1.06a25.45 25.45 0 1 1 0-50.9z" fill="#fedb41"/><path d="m342.34 291.13-.43.15h-107.48a70.036 70.036 0 0 1 -51.85 22.8h-27.34l-.39-.39a12.175 12.175 0 0 0 .62-16.58h27.11a53.161 53.161 0 0 0 41.39-19.67l2.54-3.13h115.4l.27.09a25.539 25.539 0 0 0 .16 16.73z" fill="#00efd1"/><path d="m155.47 297.11a12.194 12.194 0 0 1 -9.24 20.15h-124.09a12.2 12.2 0 1 1 0-24.39h124.09a12.146 12.146 0 0 1 9.24 4.24z" fill="#fedb41"/><path d="m148.83 194.74v23.01a27.608 27.608 0 0 1 -27.61 27.61h-88.6a4.6 4.6 0 0 1 -4.6-4.6 23.012 23.012 0 0 1 23.01-23.01h38.66a86.308 86.308 0 0 0 53.25-18.39z" fill="#00acea"/><g fill="#083863"><path d="m476.6 251h-110.3a31.177 31.177 0 0 0 -22.242 9.092 30.1 30.1 0 0 0 -5.8 7.908h-111.748a6.151 6.151 0 0 0 -4.659 2.375l-2.533 3.143a47.214 47.214 0 0 1 -36.738 17.482h-24.714c-3.241-3-7.337-4-11.636-4h-3.23v-27.8a6 6 0 0 0 -12 0v27.8h-10v-27.8a6 6 0 0 0 -12 0v27.8h-10v-27.8a6 6 0 0 0 -12 0v27.8h-11v-27.8a6 6 0 0 0 -12 0v27.8h-10v-27.8a6 6 0 0 0 -12 0v27.8h-10v-27.8a6 6 0 0 0 -12 0v27.83a18.273 18.273 0 0 0 -10.658 5.17 17.824 17.824 0 0 0 -5.365 12.74 18.073 18.073 0 0 0 18.163 18.06h124.09a18.377 18.377 0 0 0 10.268-3h26.082a74.759 74.759 0 0 0 54.427-23h101.526c5.4 10 16.053 17 27.767 17h110.3a31.5 31.5 0 0 0 0-63zm-325.993 58.317a6.031 6.031 0 0 1 -4.377 1.683h-124.09a6.092 6.092 0 0 1 -6.2-6.06 5.856 5.856 0 0 1 1.8-4.247 6.081 6.081 0 0 1 4.4-1.693h124.09a6.1 6.1 0 0 1 4.69 2.086 5.861 5.861 0 0 1 1.51 3.951 5.93 5.93 0 0 1 -1.823 4.28zm83.823-24.317a6.1 6.1 0 0 0 -4.43 2.049 64.527 64.527 0 0 1 -47.42 20.951h-18.416a18.646 18.646 0 0 0 .266-3.025c0-.658-.048-.975-.118-1.975h18.268a59.244 59.244 0 0 0 46.049-21.99l.739-1.01h105.571c-.051 1-.089 1.492-.089 2.235 0 .921.04 1.765.119 2.765zm138.57-22h23v39h-23zm35 0h23v39h-23zm35 0h22v39h-22zm-95.192 26.106a19.907 19.907 0 0 1 .015-12.8 19.118 19.118 0 0 1 4.511-7.531 20.535 20.535 0 0 1 8.666-5.042v37.594a19.415 19.415 0 0 1 -13.192-12.221zm142.4 7.182a19.537 19.537 0 0 1 -13.208 5.658v-38.83a19.484 19.484 0 0 1 13.207 33.172z"/><path d="m32.62 251h88.6c18.533 0 33.78-14.717 33.78-33.25v-23.01a6.1 6.1 0 0 0 -9.83-4.721l-5.911 4.744a80.84 80.84 0 0 1 -49.569 17.237h-38.66a28.66 28.66 0 0 0 -20.513 8.373 28.263 28.263 0 0 0 -8.5 20.269 10.408 10.408 0 0 0 10.603 10.358zm6.388-22.327a16.583 16.583 0 0 1 12.022-4.673h38.66c18.966 0 37.31-6.2 53.31-17.087v10.837c0 11.916-9.864 21.25-21.78 21.25h-87.143a16.161 16.161 0 0 1 4.931-10.327z"/></g></g></svg>