<svg id="Layer_1" height="512" viewBox="0 0 512 512" width="512" xmlns="http://www.w3.org/2000/svg" data-name="Layer 1"><g id="_Group_3" data-name=" Group 3"><path d="m141.55 440.85h228.9v47.18h-228.9z" fill="#00efd1"/><path d="m141.55 270.88v-2.73a21.855 21.855 0 0 1 21.86-21.85h185.18a21.855 21.855 0 0 1 21.86 21.85v172.7h-228.9z" fill="#00acea"/><path d="m422.352 231.775-150.459-121.075a25.093 25.093 0 0 0 -9.893-4.84v-23.983a32.41 32.41 0 0 0 26.71-31.677c0-18.073-14.012-32.23-31.9-32.23a32.986 32.986 0 0 0 -30.035 19.889 6 6 0 1 0 11.05 4.682 20.847 20.847 0 0 1 18.985-12.571 19.853 19.853 0 0 1 19.9 20.23 20.493 20.493 0 0 1 -20.71 20.22 6 6 0 0 0 -6 6v29.435a25.1 25.1 0 0 0 -9.892 4.84l-150.46 121.08a25.434 25.434 0 0 0 15.892 45.225h30.46v211.03c0 3.314 2.236 5.97 5.55 5.97h228.9c3.314 0 5.55-2.656 5.55-5.97v-211.03h30.46a25.434 25.434 0 0 0 15.892-45.225zm-58.352 203.225h-216v-166.85c0-8.74 6.665-16.15 15.41-16.15h185.18c8.745 0 15.41 7.41 15.41 16.15zm-216 47v-35h216v35zm271.05-225.975a13.112 13.112 0 0 1 -12.59 8.975h-30.209a28.111 28.111 0 0 0 -27.661-25h-185.18a28.111 28.111 0 0 0 -27.661 25h-30.209a13.415 13.415 0 0 1 -8.368-23.845l150.461-121.1a13.421 13.421 0 0 1 16.735-.007l150.461 121.111a13.1 13.1 0 0 1 4.221 14.866z" fill="#083863"/></g></svg>