<svg id="Layer_1" height="512" viewBox="0 0 512 512" width="512" xmlns="http://www.w3.org/2000/svg" data-name="Layer 1"><g id="_Group_3" data-name=" Group 3"><path d="m192.47 280.25v.02l15.93 101.98a18.14 18.14 0 0 0 17.97 15.58h59.26a18.14 18.14 0 0 0 17.97-15.58l15.93-101.98v-.02zm89.06-21.69v-13.82a5.565 5.565 0 0 0 -5.57-5.57h-39.92a5.565 5.565 0 0 0 -5.57 5.57v13.82zm104.13-31.29v207.66a41.743 41.743 0 0 1 -41.74 41.74h-175.84a41.743 41.743 0 0 1 -41.74-41.74v-207.66a83.486 83.486 0 0 1 83.48-83.48h92.36a83.486 83.486 0 0 1 83.48 83.48z" fill="#00acea"/><path d="m337.04 48.87-26.49 55.85c-.22-.01-.45-.01-.67-.01h-107.95l-26.97-55.84s20.85-30.47 51.33 0 55.37 0 55.37 0 26.93-28.44 55.38 0z" fill="#00acea"/><path d="m310.55 104.72a17.826 17.826 0 0 1 -.67 35.64h-107.76a17.825 17.825 0 0 1 -.19-35.65h107.95c.22 0 .45 0 .67.01z" fill="#fedb41"/><path d="m319.53 280.25v.02l-15.93 101.98a18.14 18.14 0 0 1 -17.97 15.58h-59.26a18.14 18.14 0 0 1 -17.97-15.58l-15.93-101.98v-.02z" fill="#00efd1"/><path d="m281.53 258.36v.2h-51.06v-13.82a5.565 5.565 0 0 1 5.57-5.57h39.92a5.565 5.565 0 0 1 5.57 5.57z" fill="#00acea"/><g fill="#083863"><path d="m325.34 140.79a23.858 23.858 0 0 0 -6.163-40.2l23.295-49.147a6 6 0 0 0 -1.185-6.814c-9.709-9.707-20.4-14.523-31.768-14.394-18.5.254-31.663 13.93-32.214 14.512q-.151.159-.291.329c-.087.107-9.064 10.682-21.631 11.313-8.283.4-16.635-3.541-24.851-11.76-11.132-11.129-22.568-16.229-34.012-15.166-16.42 1.527-26.107 15.428-26.512 16.018a6 6 0 0 0 -.451 6l23.654 48.973a23.913 23.913 0 0 0 -14.921 22.076 23.639 23.639 0 0 0 8.37 18.26c-38.235 10.173-66.66 45.086-66.66 86.48v207.66a48.369 48.369 0 0 0 48.08 48.07h175.84a48.369 48.369 0 0 0 48.08-48.07v-207.66c0-41.394-28.425-76.307-66.66-86.48zm-127.616-99.39c7.689-.674 15.873 3.262 24.323 11.709 10.714 10.717 22.127 15.876 33.937 15.259 16.958-.85 28.4-13.457 30.115-15.458 1.079-1.073 10.973-10.553 23.674-10.682 6.852-.056 13.564 2.78 19.956 8.2l-22.969 48.572h-101.06l-23.656-49.112c2.856-3.01 8.404-7.843 15.68-8.488zm4.241 69.6h107.915c.134 0 .271-.146.451-.139a11.7 11.7 0 0 1 7.916 3.383 11.255 11.255 0 0 1 3.463 8.142 11.66 11.66 0 0 1 -11.83 11.614h-107.76a11.5 11.5 0 1 1 -.155-23zm178.035 323.93a36.356 36.356 0 0 1 -36.08 36.07h-175.84a36.356 36.356 0 0 1 -36.08-36.07v-207.66c0-42.723 35.1-77.27 77.82-77.27h92.36c42.72 0 77.82 34.547 77.82 77.27z"/><path d="m324.27 274h-136.54a6.094 6.094 0 0 0 -.4 12.167l15.13 96.98a24.361 24.361 0 0 0 23.91 20.853h59.26a24.31 24.31 0 0 0 23.9-20.739l15.144-96.989a6.149 6.149 0 0 0 -.4-12.272zm-26.61 107.366a12.387 12.387 0 0 1 -12.03 10.634h-59.26a12.41 12.41 0 0 1 -12.042-10.716l-14.851-95.284h113.046z"/><path d="m324.27 253h-36.27v-8.26c0-6.38-5.661-11.74-12.04-11.74h-39.92c-6.379 0-12.04 5.36-12.04 11.74v8.26h-36.27a6 6 0 0 0 0 12h136.54a6 6 0 0 0 0-12zm-88.27-8h40v8h-40z"/></g></g></svg>