<svg id="Layer_1" height="512" viewBox="0 0 512 512" width="512" xmlns="http://www.w3.org/2000/svg" data-name="Layer 1"><g id="_Group_3" data-name=" Group 3"><path d="m451.69 98.81v.01a14.762 14.762 0 0 1 -14.76 14.76h-361.86a14.762 14.762 0 0 1 -14.76-14.76v-.01a14.762 14.762 0 0 1 14.76-14.76h361.86a14.762 14.762 0 0 1 14.76 14.76z" fill="#00efd1"/><path d="m447.37 142.5a14.764 14.764 0 0 1 -10.44 25.2h-361.86a14.76 14.76 0 0 1 0-29.52h361.86a14.731 14.731 0 0 1 10.44 4.32z" fill="#00efd1"/><path d="m424.36 167.7v.06l-42.2 270.27a48.1 48.1 0 0 1 -47.62 41.3h-157.08a48.1 48.1 0 0 1 -47.62-41.3l-42.2-270.27v-.06z" fill="#00acea"/><g fill="#083863"><path d="m256 444.34a6 6 0 0 0 6-6v-192.41a6 6 0 0 0 -12 0v192.41a6 6 0 0 0 6 6z"/><path d="m308.536 444.328c.127.008.254.012.38.012a6 6 0 0 0 5.982-5.626l12.031-192.414a6 6 0 1 0 -11.977-.748l-12.03 192.41a6 6 0 0 0 5.614 6.366z"/><path d="m197.1 438.714a6 6 0 0 0 5.982 5.626c.126 0 .253 0 .38-.012a6 6 0 0 0 5.614-6.362l-12.03-192.41a6 6 0 1 0 -11.976.748z"/><path d="m60.387 167.772a20.771 20.771 0 0 0 14.683 6.228h7.43l41.4 264.865a54.1 54.1 0 0 0 53.56 46.135h157.08c26.745 0 49.772-19.654 53.548-46.059l41.417-264.941h7.425a21 21 0 0 0 0-42h-361.86a21 21 0 0 0 -14.683 35.772zm315.834 269.394a42.041 42.041 0 0 1 -41.681 35.834h-157.08a42.059 42.059 0 0 1 -41.692-35.911l-41.127-263.089h322.719zm-301.151-293.166h361.86a8.784 8.784 0 0 1 6.19 2.646 9.2 9.2 0 0 1 2.57 6.4 8.938 8.938 0 0 1 -8.76 8.954h-361.86a8.853 8.853 0 0 1 -6.2-2.712 9.093 9.093 0 0 1 -2.563-6.362 8.912 8.912 0 0 1 8.763-8.926z"/><path d="m54.31 99.005a20.985 20.985 0 0 0 20.76 21h361.86a21 21 0 0 0 0-42h-106.93v-30.575c0-11.448-9.652-20.43-21.1-20.43h-105.8c-11.447 0-21.1 8.982-21.1 20.43v30.57h-106.93a20.987 20.987 0 0 0 -20.76 21.005zm391.38 0a8.974 8.974 0 0 1 -8.76 9h-361.86a9 9 0 0 1 0-18h361.86a8.976 8.976 0 0 1 8.76 9zm-251.69-51.575c0-4.83 4.27-8.43 9.1-8.43h105.8c4.83 0 9.1 3.6 9.1 8.43v30.57h-124z"/></g></g></svg>