<svg id="Layer_1" height="512" viewBox="0 0 512 512" width="512" xmlns="http://www.w3.org/2000/svg" data-name="Layer 1"><g id="_Group_3" data-name=" Group 3"><path d="m256 427.87a168.555 168.555 0 1 1 168.55-168.56 168.555 168.555 0 0 1 -168.55 168.56zm112.82-216.75c19.85 0 19.81-30.78 0-30.78-19.84 0-19.8 30.78 0 30.78zm-20.6 118.67c18.31 0 18.28-28.41 0-28.41-18.32 0-18.29 28.41 0 28.41zm-15.76-97.49a56.185 56.185 0 1 0 -56.18 56.19 56.177 56.177 0 0 0 56.18-56.19zm-47.92 108.04c19.84 0 19.81-30.78 0-30.78-19.84 0-19.81 30.78 0 30.78zm-10.3 55.7c24.04 0 24-37.3 0-37.3-24.04 0-24 37.3 0 37.3zm-32.77-235.67c24.42 0 24.38-37.89 0-37.89-24.42 0-24.38 37.89 0 37.89zm-27.73 158.87a28.09 28.09 0 1 0 -28.09 28.1 28.088 28.088 0 0 0 28.09-28.1zm-34.07-74.51c14.88 0 14.86-23.09 0-23.09-14.88 0-14.86 23.09 0 23.09zm-2.81-65c24.04 0 24-37.29 0-37.29-24.04 0-24 37.29 0 37.29zm-36.52 90.04c20.61 0 20.57-31.97 0-31.97-20.6 0-20.57 31.97 0 31.97z" fill="#00acea"/><path d="m368.82 180.34c19.81 0 19.85 30.78 0 30.78-19.8 0-19.84-30.78 0-30.78z" fill="#fedb41"/><path d="m348.22 301.38c18.28 0 18.31 28.41 0 28.41-18.29 0-18.32-28.41 0-28.41z" fill="#00efd1"/><path d="m276.28 176.12a56.185 56.185 0 1 1 -56.19 56.18 56.177 56.177 0 0 1 56.19-56.18z" fill="#00efd1"/><path d="m284.54 309.56c19.81 0 19.84 30.78 0 30.78-19.81 0-19.84-30.78 0-30.78z" fill="#fedb41"/><path d="m274.24 358.74c24 0 24.04 37.3 0 37.3-24 0-24.04-37.3 0-37.3z" fill="#fedb41"/><path d="m241.47 122.48c24.38 0 24.42 37.89 0 37.89-24.38 0-24.42-37.89 0-37.89z" fill="#00efd1"/><path d="m185.65 291.15a28.1 28.1 0 1 1 -28.09 28.09 28.088 28.088 0 0 1 28.09-28.09z" fill="#fedb41"/><path d="m179.67 221.64c14.86 0 14.88 23.09 0 23.09-14.86 0-14.88-23.09 0-23.09z" fill="#fedb41"/><path d="m176.86 142.44c24 0 24.04 37.29 0 37.29-24 0-24.04-37.29 0-37.29z" fill="#fedb41"/><path d="m140.34 237.8c20.57 0 20.61 31.97 0 31.97-20.57 0-20.6-31.97 0-31.97z" fill="#00efd1"/><g fill="#083863"><path d="m492.8 250h-62.5a173.965 173.965 0 0 0 -48.377-111.44l45.76-45.76a6 6 0 0 0 -8.486-8.485l-45.867 45.87a173.864 173.864 0 0 0 -111.347-45.311c.006-.115.017-.228.017-.344v-65.33a6 6 0 1 0 -12 0v65.33c0 .116.011.229.017.344a173.864 173.864 0 0 0 -111.347 45.311l-45.87-45.868a6 6 0 0 0 -8.483 8.483l45.758 45.758a173.969 173.969 0 0 0 -48.375 111.442h-62.5a6 6 0 1 0 0 12h62.284a173.887 173.887 0 0 0 45.388 114.644l-42.555 42.556a6 6 0 0 0 8.486 8.485l42.444-42.445a173.943 173.943 0 0 0 114.753 48.516v59.044a6 6 0 0 0 12 0v-59.044a173.943 173.943 0 0 0 114.753-48.518l42.447 42.445a6 6 0 0 0 8.486-8.485l-42.555-42.555a173.888 173.888 0 0 0 45.385-114.643h62.284a6 6 0 0 0 0-12zm-234.731 171.844a5.91 5.91 0 0 0 -4.138 0c-88.68-1.114-160.481-73.591-160.481-162.534 0-89.63 72.92-162.55 162.55-162.55s162.55 72.92 162.55 162.55c0 88.943-71.801 161.42-160.481 162.534z"/><path d="m276.28 170.12a62.185 62.185 0 1 0 62.18 62.18 62.255 62.255 0 0 0 -62.18-62.18zm0 112.37a50.185 50.185 0 1 1 50.18-50.19 50.247 50.247 0 0 1 -50.18 50.19z"/><path d="m185.65 285.15a34.1 34.1 0 1 0 34.09 34.09 34.129 34.129 0 0 0 -34.09-34.09zm0 56.19a22.1 22.1 0 1 1 22.09-22.1 22.12 22.12 0 0 1 -22.09 22.1z"/><path d="m179.67 215.64a16.689 16.689 0 0 0 -12.917 5.7 18.127 18.127 0 0 0 -4.235 11.844c0 8.508 6.011 17.55 17.152 17.55a16.686 16.686 0 0 0 12.916-5.7 18.122 18.122 0 0 0 4.236-11.844c0-8.507-6.011-17.55-17.152-17.55zm3.814 21.575a4.714 4.714 0 0 1 -3.814 1.515c-4.781 0-5.152-4.249-5.152-5.55a6.232 6.232 0 0 1 1.338-4.025 4.713 4.713 0 0 1 3.814-1.515c4.781 0 5.152 4.249 5.152 5.55a6.235 6.235 0 0 1 -1.338 4.025z"/><path d="m284.54 303.56a20.28 20.28 0 0 0 -15.7 6.9 22.156 22.156 0 0 0 -5.165 14.485c0 14.048 10.5 21.4 20.869 21.4s20.869-7.345 20.869-21.382-10.502-21.403-20.873-21.403zm6.6 28.064a8.269 8.269 0 0 1 -6.6 2.716c-8.62 0-8.869-8.437-8.869-9.4a10.326 10.326 0 0 1 2.267-6.666 8.271 8.271 0 0 1 6.6-2.715c8.62 0 8.869 8.436 8.869 9.4a10.318 10.318 0 0 1 -2.265 6.665z"/><path d="m348.22 295.38a19.181 19.181 0 0 0 -14.848 6.524 20.915 20.915 0 0 0 -4.881 13.672c0 13.271 9.925 20.214 19.729 20.214a19.164 19.164 0 0 0 14.843-6.526 20.913 20.913 0 0 0 4.878-13.67c0-13.271-9.92-20.214-19.721-20.214zm5.741 26.064a7.185 7.185 0 0 1 -5.741 2.346c-7.512 0-7.729-7.373-7.729-8.214a9.05 9.05 0 0 1 1.981-5.849 7.2 7.2 0 0 1 5.748-2.347c7.5 0 7.721 7.373 7.721 8.214a9.06 9.06 0 0 1 -1.98 5.85z"/><path d="m241.47 166.37c7.458 0 13.779-2.768 18.279-8.006a25.9 25.9 0 0 0 6.021-16.927c0-16.384-12.224-24.957-24.3-24.957-7.458 0-13.779 2.769-18.278 8.006a25.9 25.9 0 0 0 -6.022 16.928c0 16.386 12.23 24.956 24.3 24.956zm-9.176-34.064c2.181-2.538 5.268-3.826 9.176-3.826 4.569 0 12.3 2.729 12.3 12.957a14.11 14.11 0 0 1 -3.124 9.108c-2.181 2.538-5.268 3.825-9.176 3.825-4.568 0-12.3-2.728-12.3-12.956a14.108 14.108 0 0 1 3.124-9.108z"/><path d="m156.475 268.688a22.782 22.782 0 0 0 5.308-14.892c0-14.441-10.787-22-21.443-22a20.826 20.826 0 0 0 -16.132 7.083 22.786 22.786 0 0 0 -5.307 14.893c0 14.439 10.785 21.994 21.439 21.994a20.835 20.835 0 0 0 16.135-7.078zm-9.1-7.82a8.808 8.808 0 0 1 -7.033 2.9c-9.174 0-9.439-8.971-9.439-9.994a10.957 10.957 0 0 1 2.41-7.075 8.8 8.8 0 0 1 7.029-2.9c9.178 0 9.443 8.973 9.443 10a10.949 10.949 0 0 1 -2.412 7.069z"/><path d="m176.86 185.73a23.318 23.318 0 0 0 18.064-7.912 25.574 25.574 0 0 0 5.951-16.721c0-16.187-12.081-24.657-24.015-24.657a23.319 23.319 0 0 0 -18.064 7.913 25.569 25.569 0 0 0 -5.951 16.721c0 16.187 12.081 24.656 24.015 24.656zm-8.96-33.557a11.231 11.231 0 0 1 8.963-3.733c9.484 0 12.015 7.956 12.015 12.657a13.782 13.782 0 0 1 -3.053 8.9c-2.128 2.477-5.143 3.732-8.962 3.732-9.485 0-12.015-7.956-12.015-12.656a13.787 13.787 0 0 1 3.052-8.9z"/><path d="m274.24 352.74a23.32 23.32 0 0 0 -18.064 7.914 25.582 25.582 0 0 0 -5.951 16.725c0 16.19 12.081 24.661 24.015 24.661a23.324 23.324 0 0 0 18.065-7.914 25.584 25.584 0 0 0 5.95-16.725c0-16.19-12.081-24.661-24.015-24.661zm8.962 33.567a11.227 11.227 0 0 1 -8.962 3.733c-9.484 0-12.015-7.959-12.015-12.661a13.791 13.791 0 0 1 3.053-8.905 11.228 11.228 0 0 1 8.962-3.734c9.485 0 12.015 7.959 12.015 12.661a13.794 13.794 0 0 1 -3.055 8.906z"/><path d="m353.118 181.235a22.163 22.163 0 0 0 -5.163 14.484c0 14.05 10.5 21.4 20.865 21.4a20.285 20.285 0 0 0 15.706-6.894 22.15 22.15 0 0 0 5.166-14.485c0-14.05-10.5-21.4-20.872-21.4a20.277 20.277 0 0 0 -15.702 6.895zm24.574 14.506a10.313 10.313 0 0 1 -2.266 6.663 8.274 8.274 0 0 1 -6.606 2.716c-8.616 0-8.865-8.439-8.865-9.4a10.314 10.314 0 0 1 2.266-6.664 8.259 8.259 0 0 1 6.6-2.715c8.622-.001 8.871 8.438 8.871 9.4z"/></g></g></svg>