<svg id="Layer_1" height="512" viewBox="0 0 512 512" width="512" xmlns="http://www.w3.org/2000/svg" data-name="Layer 1"><g id="_Group_3" data-name=" Group 3"><path d="m468.52 112.9a34.3 34.3 0 0 1 -14.47 3.18h-396.1a34.47 34.47 0 0 1 0-68.94h396.1a34.473 34.473 0 0 1 14.47 65.76z" fill="#fedb41"/><path d="m449.77 116.08-12.7 112.99a233.231 233.231 0 0 1 -128.63 104.15v-18.87h-104.88v18.87a233.139 233.139 0 0 1 -128.63-104.18l-12.7-112.96z" fill="#00acea"/><path d="m437.07 229.07-3.77 33.55-18.8 167.35a38.75 38.75 0 0 1 -38.55 34.89h-239.9a38.75 38.75 0 0 1 -38.55-34.89l-18.8-167.35-3.77-33.58a233.139 233.139 0 0 0 128.63 104.18v19.88h104.88v-19.88a233.231 233.231 0 0 0 128.63-104.15z" fill="#00acea"/><path d="m203.56 333.22v-18.87h104.88v18.87 19.88h-104.88z" fill="#00efd1"/><path d="m454.05 41h-396.1a40.532 40.532 0 0 0 -20.43 75.5 238.293 238.293 0 0 0 31.586 114.43l22.424 199.7a44.667 44.667 0 0 0 44.52 40.37h239.9a44.643 44.643 0 0 0 44.512-40.29l18.8-167.385 3.633-32.339a238.413 238.413 0 0 0 31.585-114.456 40.55 40.55 0 0 0 -20.43-75.53zm-23.018 186.068a226.89 226.89 0 0 1 -117.032 97.697v-10.415c0-3.314-2.247-6.35-5.56-6.35h-104.88c-3.313 0-5.56 3.036-5.56 6.35v10.415a226.833 226.833 0 0 1 -117.038-97.734l-12.02-105.031h374.116zm-129.032 92.932v27h-92v-27zm-245.137-197.949 8.181 72.757a226.734 226.734 0 0 1 -15.382-73.585 40.431 40.431 0 0 0 7.201.828zm351.667 307.393a32.7 32.7 0 0 1 -32.58 29.556h-239.9a32.72 32.72 0 0 1 -32.588-29.63l-18.8-167.384-.75-8.646a237.619 237.619 0 0 0 114.088 84.176v15.584c0 3.314 2.247 5.9 5.56 5.9h104.88c3.313 0 5.56-2.586 5.56-5.9v-15.584a237.649 237.649 0 0 0 114.086-84.142zm46.607-307.393a40.4 40.4 0 0 0 7.2-.828 226.872 226.872 0 0 1 -15.38 73.6zm10.863-14.634a28.168 28.168 0 0 1 -11.95 2.583h-396.1a28.168 28.168 0 0 1 -11.95-2.583l-.006.017a28.553 28.553 0 0 1 11.956-54.434h396.1a28.534 28.534 0 0 1 11.95 54.417z" fill="#083863"/></g></svg>