<svg height="478pt" viewBox="-50 0 478 478.01341" width="478pt" xmlns="http://www.w3.org/2000/svg"><path d="m217.277344 392.921875v38c0 22.09375-17.910156 40-40 40h-130c-22.09375 0-40-17.90625-40-40v-61s39.988281-58.976563 114-10c68 45 96 33 96 33zm0 0" fill="#00acea"/><path d="m217.277344 292.574219v100.347656s-28 12-96-33c-74.011719-48.976563-114 10-114 10v-78.796875c0-6.691406 1.679687-13.277344 4.878906-19.152344l55.121094-101.050781h80l63.75 100.179687c4.082031 6.417969 6.25 13.867188 6.25 21.472657zm0 0" fill="#00efd1"/><path d="m200.277344 51.921875v3.730469c0 6.242187-3.695313 11.894531-9.410156 14.402344l-63.589844 27.867187v23h-40v-23l-41-12 10-46h144zm0 0" fill="#fedb41"/><path d="m152.277344 120.921875v50h-90v-50zm0 0" fill="#00acea"/><g fill="#083863"><path d="m47.277344 478.011719h130c25.910156-.09375 46.835937-21.179688 46.730468-47.089844v-138.347656c.050782-8.925781-2.453124-17.679688-7.210937-25.230469l-58.929687-92.492188c.769531-1.164062 1.164062-2.535156 1.140624-3.929687v-50c.054688-1.816406-.628906-3.578125-1.898437-4.882813-1.269531-1.304687-3.011719-2.035156-4.832031-2.027343h-18.269532v-11.511719l59.535157-25.988281c7.273437-3.039063 12.402343-9.691407 13.496093-17.5h7.238282c3.867187 0 7-3.132813 7-7 0-3.863281-3.132813-7-7-7h-7.269532v-5.089844c.054688-1.816406-.628906-3.578125-1.898437-4.882813-1.269531-1.304687-3.011719-2.035156-4.832031-2.027343h-144c-3.285156-.019531-6.136719 2.261719-6.839844 5.46875l-10 45.976562c-.839844 3.554688 1.238281 7.148438 4.738281 8.195313l35.832031 10.515625v10.84375h-17.730468c-3.902344-.0625-7.136719 3.011719-7.269532 6.910156v50c.042969 1.640625.65625 3.214844 1.730469 4.453125l-50.929687 93.25c-3.777344 6.902344-5.7695315 14.636719-5.8007815 22.5v139.800781c.1484375 26.015625 21.2539065 47.039063 47.2695315 47.085938zm130-14h-130c-18.289063-.039063-33.128906-14.800781-33.269532-33.089844v-58.664063c6.832032-8.277343 15.464844-14.882812 25.242188-19.3125 23.214844-10.402343 49.535156-6.085937 78.101562 12.816407 45.246094 29.941406 73.730469 35.675781 89 35.675781 1.363282 0 2.664063-.050781 3.664063-.128906v29.613281c.054687 8.734375-3.367187 17.128906-9.507813 23.335937-6.140624 6.207032-14.5 9.71875-23.230468 9.753907zm-88.171875-372.804688-34.671875-10.125 7.484375-34.070312h131.089843v8.640625c.054688 3.441406-1.945312 6.582031-5.085937 7.988281l-63.65625 27.871094c-2.5625 1.109375-4.230469 3.621093-4.257813 6.410156v16.089844h-26v-16.089844c.054688-3.082031-1.945312-5.828125-4.902343-6.714844zm-20.097657 36.804688h76v36h-76zm-50.839843 147.359375 53.265625-97.359375h72l61.546875 96.890625c3.332031 5.289062 5.074219 11.421875 5.027343 17.671875v94.609375c-10 .847656-36.574218-1.046875-85-33.097656-22.566406-14.933594-56.824218-29.472657-91.546874-13.917969-7.023438 3.15625-13.570313 7.277343-19.453126 12.246093v-61.289062c.050782-5.515625 1.484376-10.933594 4.160157-15.753906zm0 0"/><path d="m230.207031 37.011719h40.070313c5.269531.042969 10.339844-2.019531 14.085937-5.726563 3.746094-3.707031 5.859375-8.757812 5.875-14.027344-.011719-4.59375-1.851562-8.992187-5.109375-12.230468-3.257812-3.238282-7.667968-5.0468752-12.261718-5.027344-4.039063-.03125-7.921876 1.550781-10.789063 4.390625-2.871094 2.84375-4.492187 6.707031-4.5 10.746094-.046875 2.847656.878906 5.625 2.617187 7.875h-29.988281c-3.867187 0-7 3.136719-7 7 0 3.867187 3.132813 7 7 7zm42.660157-22.910157c1.730468.003907 3.183593 1.3125 3.355468 3.039063-1.21875-1.25-2.859375-1.996094-4.601562-2.097656.15625-.554688.667968-.941407 1.246094-.941407zm0 0"/><path d="m348.875 38.207031c-.003906-9.910156-8.015625-17.957031-17.929688-18-8.710937.0625-15.742187 7.140625-15.738281 15.855469 0 3.355469 1.1875 5.949219 3.164063 8.949219h-44.464844c-3.867188 0-7 3.136719-7 7 0 3.867187 3.132812 7 7 7h54.308594c11.4375-.074219 20.664062-9.367188 20.660156-20.804688zm-14.03125.535157c-1.316406-1.792969-3.410156-2.851563-5.636719-2.847657-.003906-.964843.777344-1.746093 1.738281-1.75 2.171876 0 3.929688 1.757813 3.929688 3.929688 0 .226562-.011719.449219-.03125.667969zm0 0"/><path d="m284.40625 104.101562c9.972656-.085937 18.011719-8.195312 18.011719-18.167968 0-11.492188-9.269531-20.832032-20.761719-20.921875h-49.96875c-3.867188 0-7 3.136719-7 7 0 3.867187 3.132812 7 7 7h40.15625c-2.019531 3-3.238281 5.71875-3.238281 9.121093-.003907 8.757813 7.046875 15.882813 15.800781 15.96875zm-1.757812-16.089843c2.257812.050781 4.394531-1.015625 5.71875-2.847657.035156.289063.050781.578126.050781.871094-.007813 1.050782-.433594 2.058594-1.1875 2.796875-.753907.734375-1.769531 1.140625-2.824219 1.121094-1.019531-.058594-1.808594-.917969-1.777344-1.941406zm0 0"/><path d="m317.496094 65.011719c-3.867188 0-7 3.136719-7 7 0 3.867187 3.132812 7 7 7h8.378906c3.867188 0 7-3.132813 7-7 0-3.863281-3.132812-7-7-7zm0 0"/><path d="m243.296875 45.011719c-3.867187 0-7 3.136719-7 7 0 3.867187 3.132813 7 7 7h8.378906c3.867188 0 7-3.132813 7-7 0-3.863281-3.132812-7-7-7zm0 0"/><path d="m362.355469 33.011719c-3.863281 0-7 3.136719-7 7 0 3.867187 3.136719 7 7 7h8.382812c3.863281 0 7-3.132813 7-7 0-3.863281-3.136719-7-7-7zm0 0"/><path d="m307.015625 3.011719c-3.863281 0-7 3.136719-7 7 0 3.867187 3.136719 7 7 7h8.382813c3.863281 0 7-3.132813 7-7 0-3.863281-3.136719-7-7-7zm0 0"/></g></svg>