<svg height="488pt" viewBox="-66 0 488 488.25465" width="488pt" xmlns="http://www.w3.org/2000/svg"><path d="m240.644531 16.523438c-.003906 1.242187-.242187 2.472656-.710937 3.621093l-92.640625 226.839844-17.730469-7.230469v-.007812l92.652344-226.839844c1.726562-4.238281 6.214844-6.65625 10.703125-5.773438 4.488281.878907 7.726562 4.816407 7.726562 9.390626zm0 0" fill="#00efd1"/><path d="m172.105469 257.125c3.824219 1.53125 6.535156 5 7.101562 9.082031.566407 4.082031-1.097656 8.15625-4.363281 10.671875-3.261719 2.515625-7.625 3.089844-11.429688 1.503906l-67.339843-27.5c-5.875-2.394531-8.691407-9.101562-6.296875-14.972656 2.398437-5.875 9.101562-8.691406 14.976562-6.296875l24.808594 10.132813v.007812l17.730469 7.230469zm0 0" fill="#fedb41"/><path d="m107.714844 451.945312-.089844.210938c-42.882812-13.773438-66.851562-34.179688-74.980469-62.011719h-.011719l-1.707031-1.910156c-25.914062-24.648437-31.320312-63.949219-13.023437-94.675781 18.296875-30.726563 55.425781-44.703125 89.441406-33.664063 1.960938.644531 3.871094 1.425781 5.71875 2.339844l32.5 15.980469c9.105469 4.382812 16.386719 11.824218 20.570312 21.019531 5.542969 12.441406 6.851563 31.351563-10.050781 57.199219 0 0-55.546875 57.820312 15.773438 77.550781 0 0 4.988281 1.5 4.136719 2.582031-15.347657 19.828125-44.808594 25.6875-68.277344 15.378906zm0 0" fill="#00acea"/><g fill="#083863"><path d="m25.890625 393.109375.535156.597656c9.359375 29.730469 35.234375 51.042969 79.058594 65.117188.394531.125.796875.210937 1.207031.265625 7.949219 3.191406 16.4375 4.828125 25 4.820312 19.402344 0 38.347656-8.210937 49.800782-23.007812 1.523437-1.929688 1.992187-4.488282 1.253906-6.832032-.992188-3.144531-3.730469-5.238281-8.878906-6.785156l-.148438-.042968c-17.5-4.839844-27.746094-12.289063-30.460938-22.140626-4.410156-15.992187 11.414063-37.050781 17.875-43.8125.300782-.3125.570313-.65625.808594-1.019531 10.59375-16.199219 21.027344-40.433593 10.589844-63.875-1.632812-3.648437-3.710938-7.078125-6.191406-10.214843.46875.039062.941406.070312 1.414062.070312 8.835938.003906 16.441406-6.25 18.144532-14.921875 1.707031-8.667969-2.964844-17.335937-11.144532-20.679687l-18.335937-7.492188 90.007812-220.402344c3.40625-8.464844-.671875-18.089844-9.121093-21.53125-8.453126-3.441406-18.09375.597656-21.570313 9.03125l-90 220.363282-18.332031-7.484376c-6.921875-2.824218-14.863282-1.203124-20.121094 4.109376s-6.800781 13.269531-3.910156 20.164062c.25.585938.523437 1.15625.828125 1.714844-34.226563-.1875-65.113281 20.503906-77.957031 52.226562-12.847657 31.726563-5.0625 68.078125 19.652343 91.757813zm202.800781-377.554687c.464844-1.140626 1.667969-1.792969 2.875-1.554688 1.207032.238281 2.078125 1.292969 2.078125 2.523438 0 .335937-.066406.664062-.191406.976562l-90 220.367188-4.769531-1.949219zm-132.425781 222.988281c.445313-1.101563 1.3125-1.980469 2.40625-2.441407 1.097656-.460937 2.332031-.460937 3.433594-.007812l24.480469 10c.109374.050781.21875.101562.332031.148438l42.535156 17.367187c2.289063.9375 3.386719 3.558594 2.449219 5.847656-.9375 2.292969-3.558594 3.390625-5.851563 2.453125l-67.339843-27.5c-1.105469-.453125-1.984376-1.324218-2.445313-2.421875-.457031-1.101562-.460937-2.339843-.007813-3.441406zm-77.671875 69.652343c13.050781-34.828124 51.222656-53.1875 86.578125-41.644531 1.644531.539063 3.25 1.199219 4.800781 1.964844l32.5 15.980469c7.632813 3.664062 13.738282 9.886718 17.261719 17.585937 6.265625 14.074219 3.175781 30.902344-9.1875 50.019531-3.867187 4.183594-27.75 31.347657-20.800781 56.671876 3.730468 13.589843 15.246094 23.707031 34.273437 30.132812-13.992187 11.550781-35.445312 14.554688-53.582031 6.589844-.6875-.289063-1.429688-.632813-2.253906-1.046875-12.03125-6.003907-21.160156-16.570313-25.355469-29.34375-1.214844-3.671875-5.175781-5.664063-8.84375-4.449219-3.671875 1.21875-5.660156 5.175781-4.445313 8.847656 1.175782 3.535156 2.648438 6.964844 4.410157 10.246094-18.289063-11.097656-29.699219-24.855469-34.589844-41.574219-3.933594-13.429687-3.898437-28.890625.101563-47.261719.78125-3.757812-1.613282-7.441406-5.363282-8.261718-3.75-.816406-7.460937 1.539062-8.316406 5.28125-2.070312 9.132812-3.1875 18.460937-3.335938 27.824218-9.574218-17.71875-10.980468-38.726562-3.851562-57.5625zm0 0"/><path d="m64.625 332.628906h.234375c3.773437 0 6.867187-2.996094 6.992187-6.769531.464844-14.273437 6.15625-24.714844 16.917969-31.039063 5.289063-3.050781 11.152344-4.964843 17.21875-5.625 3.835938-.261718 6.746094-3.566406 6.511719-7.40625-.230469-3.835937-3.515625-6.769531-7.355469-6.566406-8.058593.765625-15.863281 3.21875-22.910156 7.199219-10.679687 6.101563-23.578125 18.511719-24.375 42.976563-.0625 1.859374.613281 3.664062 1.882813 5.019531 1.269531 1.355469 3.027343 2.152343 4.882812 2.210937zm0 0"/><path d="m292.625 483.253906c3.863281 0 7-3.132812 7-7 0-3.867187-3.136719-7-7-7h-37c-3.867188 0-7 3.132813-7 7 0 3.867188 3.132812 7 7 7zm0 0"/><path d="m219.625 488.253906c3.863281 0 7-3.132812 7-7 0-3.867187-3.136719-7-7-7h-60.550781c-3.867188 0-7 3.132813-7 7 0 3.867188 3.132812 7 7 7zm0 0"/><path d="m286.625 447.253906h42c14.910156 0 27-12.085937 27-27 0-14.910156-12.089844-27-27-27h-13c-9.414062.082032-17.003906 7.738282-17 17.152344.007812 4.492188 1.804688 8.796875 4.996094 11.957031 3.191406 3.164063 7.511718 4.925781 12.003906 4.890625h4c3.863281 0 7-3.132812 7-7 0-3.867187-3.136719-7-7-7h-4c-.773438.039063-1.535156-.222656-2.121094-.730468-.5625-.589844-.878906-1.375-.878906-2.195313-.003906-1.667969 1.328125-3.035156 3-3.074219h13c3.464844.046875 6.773438 1.472656 9.1875 3.960938 2.445312 2.402344 3.820312 5.6875 3.8125 9.113281-.007812 3.441406-1.382812 6.734375-3.820312 9.160156s-5.742188 3.78125-9.179688 3.765625h-42c-3.867188 0-7 3.132813-7 7 0 3.867188 3.132812 7 7 7zm0 0"/><path d="m201.625 440.253906c0 3.867188 3.132812 7 7 7h48c3.863281 0 7-3.132812 7-7 0-3.867187-3.136719-7-7-7h-48c-3.867188 0-7 3.132813-7 7zm0 0"/></g></svg>