<svg height="389pt" viewBox="-12 0 389 389.65" width="389pt" xmlns="http://www.w3.org/2000/svg"><path d="m357.265625 335.609375v26c0 11.621094-35.789063 21.039063-79.941406 21.039063-44.148438 0-79.9375-9.417969-79.9375-21.039063v-26c0 11.621094 35.789062 21.039063 79.9375 21.039063 44.152343 0 79.941406-9.417969 79.941406-21.039063zm0 0" fill="#00efd1"/><path d="m357.265625 269.050781v66.558594c0 11.621094-35.789063 21.039063-79.941406 21.039063-44.148438 0-79.9375-9.417969-79.9375-21.039063v-66.558594c0 11.621094 35.789062 21.039063 79.9375 21.039063 44.152343 0 79.941406-9.417969 79.941406-21.039063zm0 0" fill="#00acea"/><path d="m340.484375 115.160156c5.105469 0 9.9375 2.316406 13.128906 6.296875 3.195313 3.980469 4.410157 9.199219 3.300781 14.183594l-28.210937 117.28125-.886719 3.699219c-32.433594 12.851562-68.546875 12.851562-100.980468 0l-.890626-3.699219-28.210937-117.28125c-1.109375-4.984375.105469-10.203125 3.300781-14.183594 3.195313-3.980469 8.023438-6.296875 13.128906-6.296875zm0 0" fill="#00efd1"/><path d="m330.746094 253.410156c16.277344 3.851563 26.519531 9.429688 26.519531 15.640625 0 11.621094-35.789063 21.039063-79.941406 21.039063-44.148438 0-79.9375-9.417969-79.9375-21.039063 0-6.210937 10.238281-11.789062 26.519531-15.640625l2.039062-.488281.890626 3.699219c32.433593 12.851562 68.546874 12.851562 100.980468 0l.886719-3.699219zm0 0" fill="#fedb41"/><path d="m207.324219 27.351562v40c.003906 11.046876-8.953125 20-20 20h-160c-11.046875 0-20.003907-8.953124-20-20v-40c0-11.046874 8.957031-20 20-20h160c11.046875 0 20 8.953126 20 20zm0 0" fill="#00efd1"/><path d="m127.324219 112.351562h-50c-13.804688 0-25-11.195312-25-25h110c0 13.804688-11.191407 25-25 25zm0 0" fill="#00acea"/><path d="m127.324219 235.351562v123c0 11.042969-8.953125 20-20 20-11.042969 0-20-8.957031-20-20v-123zm0 0" fill="#00acea"/><path d="m87.324219 191.351562h40v44h-40zm0 0" fill="#00efd1"/><path d="m87.324219 147.351562h40v44h-40zm0 0" fill="#00acea"/><path d="m87.324219 112.351562h40v35h-40zm0 0" fill="#fedb41"/><g fill="#083863"><path d="m27.324219 94h18.78125c3.199219 15 15.980469 25 31.21875 25h3v239.351562c0 14.910157 12.089843 27 27 27 14.914062 0 27-12.089843 27-27v-239.351562h3c15.242187 0 28.019531-10 31.222656-25h18.777344c7.121093.070312 13.976562-2.703125 19.046875-7.707031 5.070312-5 7.933594-11.820313 7.953125-18.941407v-40c0-14.890624-12.109375-27.351562-27-27.351562h-160c-14.886719 0-27 12.460938-27 27.351562v40c.023437 7.121094 2.886719 13.941407 7.953125 18.941407 5.070312 5.003906 11.925781 7.777343 19.046875 7.707031zm67 104h26v30h-26zm0-14v-30h26v30zm13 187.351562c-7.175781-.007812-12.996094-5.824218-13-13v-116.351562h26v116.351562c-.007813 7.175782-5.824219 12.988282-13 13zm13-231.351562h-26v-21h26zm17-35h-60c-7.441407 0-13.847657-4-16.582031-11h93.164062c-2.734375 7-9.136719 11-16.582031 11zm63-38c0 7.179688-5.820313 13-13 13h-160c-7.179688 0-13-5.820312-13-13v-40c0-7.179688 5.820312-13 13-13h160c7.179687 0 13 5.820312 13 13zm0 0"/><path d="m36.324219 43h142c3.867187 0 7-3.132812 7-7s-3.132813-7-7-7h-142c-3.863281 0-7 3.132812-7 7s3.136719 7 7 7zm0 0"/><path d="m36.324219 65h142c3.867187 0 7-3.132812 7-7s-3.132813-7-7-7h-142c-3.863281 0-7 3.132812-7 7s3.136719 7 7 7zm0 0"/><path d="m107.324219 331.351562c-3.863281 0-7 3.132813-7 7v6c0 3.863282 3.136719 7 7 7 3.867187 0 7-3.136718 7-7v-6c0-3.867187-3.132813-7-7-7zm0 0"/><path d="m195.570312 117c-4.535156 5.644531-6.253906 13.050781-4.667968 20.117188.007812.039062.019531.101562.027344.136718l26.589843 110.554688c-17.007812 4.703125-26.117187 11.332031-27.074219 19.734375-.066406.359375-.109374.722656-.121093 1.085937v93.402344c.011719.398438.058593.796875.140625 1.191406 2.589844 20.808594 55.351562 26.425782 86.84375 26.425782 31.519531 0 84.371094-5.621094 86.886718-26.472657.074219-.375.117188-.761719.128907-1.144531v-93.402344c-.011719-.363281-.050781-.722656-.121094-1.078125-.957031-8.402343-10.050781-15.023437-27.058594-19.726562l26.582031-110.546875c.007813-.039063.011719-.078125.023438-.117188 1.570312-7.074218-.140625-14.476562-4.660156-20.144531-4.519532-5.664063-11.359375-8.976563-18.605469-9.015625h-126.320313c-7.246093.011719-14.089843 3.324219-18.59375 9zm154.753907 218.351562c-1 1.347657-5.945313 5.496094-21.128907 9.089844-14.179687 3.359375-32.601562 5.207032-51.855468 5.207032s-37.699219-1.847657-51.875-5.207032c-15.1875-3.597656-20.140625-7.742187-21.140625-9.089844v-49.828124c18 8.804687 50.9375 11.566406 73 11.566406 22.066406 0 55-2.761719 73-11.566406zm-21.128907 35.089844c-14.179687 3.359375-32.601562 5.207032-51.855468 5.207032s-37.699219-1.847657-51.875-5.207032c-15.1875-3.597656-20.140625-7.742187-21.140625-9.089844v-9.269531c18 8.808594 50.9375 11.566407 73 11.566407 22.066406 0 55-2.757813 73-11.566407v9.269531c-1 1.347657-5.945313 5.496094-21.128907 9.089844zm20.898438-101.390625c-1.210938 1.566407-6.613281 5.441407-20.925781 8.832031-14.175781 3.359376-32.585938 5.207032-51.839844 5.207032-19.25 0-37.660156-1.847656-51.839844-5.207032-14.308593-3.390624-19.710937-7.265624-20.925781-8.832031 1.101562-1.410156 5.632812-4.699219 17.011719-7.816406.734375.835937 1.65625 1.488281 2.6875 1.898437 34.089843 13.507813 72.046875 13.507813 106.132812 0 1.035157-.410156 1.957031-1.0625 2.6875-1.898437 11.378907 3.117187 15.910157 6.40625 17.007813 7.816406zm-1.933594-143.289062c1.859375 2.320312 2.574219 5.359375 1.9375 8.265625l-28.199218 117.234375v.011719l-.027344.113281c-28.769532 10.492187-60.324219 10.492187-89.097656 0l-28.21875-117.320313c-.632813-2.921875.082031-5.972656 1.941406-8.3125 1.863281-2.339844 4.679687-3.71875 7.667968-3.753906h14.160157v29.960938c0 3.863281 3.136719 7 7 7 3.867187 0 7-3.136719 7-7v-29.960938h17v49.308594c0 3.867187 3.136719 7 7 7 3.867187 0 7-3.132813 7-7v-49.308594h47v24.71875c0 3.867188 3.136719 7 7 7 3.867187 0 7-3.132812 7-7v-24.71875h6.160156c2.996094.023438 5.820313 1.40625 7.671875 3.761719zm0 0"/></g></svg>