<svg height="440pt" viewBox="-50 0 440 440.02" width="440pt" xmlns="http://www.w3.org/2000/svg"><path d="m308.402344 133.339844h-.019532l-.21875 1.949218h-40.75c-.1875-4.066406-1.070312-8.070312-2.601562-11.839843l.0625-.019531c10.378906-2.210938 19.070312-10.328126 21.679688-20.089844l.898437.238281c12.152344 5.035156 20.308594 16.625 20.949219 29.761719zm0 0" fill="#00acea"/><path d="m161.582031 226.539062c7.851563 4.496094 17.742188 3.164063 24.121094-3.25 6.378906-6.414062 7.660156-16.308593 3.121094-24.136718-4.535157-7.824219-13.761719-11.632813-22.496094-9.28125-8.738281 2.351562-14.808594 10.273437-14.804687 19.320312-.035157 7.175782 3.8125 13.8125 10.058593 17.347656zm-112.089843-91.25h258.671874l-25.648437 228.75-.550781-.058593h-221.3125l-.117188.007812-3.230468-28.808593-13.609376-121.351563-8.8125-78.539063zm0 0" fill="#00efd1"/><path d="m286.875 92.578125c.757812 3.5625.648438 7.253906-.320312 10.761719-2.609376 9.761718-11.300782 17.878906-21.679688 20.089844l-.0625.019531c-4.910156-12.109375-16.148438-21.167969-29.328125-24.277344-.609375-13.511719 9.246094-25.234375 22.660156-26.953125 13.414063-1.71875 25.90625 7.132812 28.730469 20.359375zm0 0" fill="#00acea"/><path d="m282.515625 364.039062-3.363281 29.941407h-215.25l-3.367188-29.992188.117188-.007812h221.3125zm0 0" fill="#00acea"/><path d="m279.152344 393.980469-.480469 4.289062c-2.625 19.898438-19.589844 34.769531-39.65625 34.769531h-134.980469c-20.070312.003907-37.03125-14.871093-39.652344-34.769531l-.480468-4.289062zm0 0" fill="#00efd1"/><path d="m280.453125 22c0 8.285156-6.714844 15-15 15s-15-6.714844-15-15 6.714844-15 15-15 15 6.714844 15 15zm0 0" fill="#00acea"/><path d="m235.484375 99.171875c13.179687 3.109375 24.417969 12.167969 29.328125 24.277344 1.53125 3.769531 2.414062 7.773437 2.601562 11.839843h-81.871093c1.425781-20.992187 18.871093-37.289062 39.910156-37.289062 3.378906 0 6.742187.390625 10.03125 1.171875zm0 0" fill="#00acea"/><path d="m206.453125 49c0 8.285156-6.714844 15-15 15s-15-6.714844-15-15 6.714844-15 15-15 15 6.714844 15 15zm0 0" fill="#00acea"/><path d="m161.582031 226.539062c-8.707031-4.992187-12.359375-15.671874-8.539062-24.953124 3.824219-9.285157 13.9375-14.292969 23.636719-11.707032 9.703124 2.585938 15.980468 11.964844 14.675781 21.917969-1.308594 9.953125-9.792969 17.398437-19.832031 17.394531-3.488282-.003906-6.914063-.917968-9.941407-2.652344zm0 0" fill="#fedb41"/><g fill="#00acea"><path d="m196.023438 110.910156c-6.175782 6.691406-9.875 15.292969-10.480469 24.378906h-68.128907c-.210937-4.328124-1.257812-8.578124-3.082031-12.507812 11.261719-3.585938 18.6875-14.3125 18.082031-26.109375l.300782-.023437c7.1875-3.074219 14.921875-4.65625 22.738281-4.648438 15.65625-.019531 30.515625 6.90625 40.570313 18.910156zm0 0"/><path d="m132.414062 96.671875c.605469 11.796875-6.820312 22.523437-18.082031 26.109375-5.550781-12.054688-17.605469-19.777344-30.878906-19.78125-.839844 0-1.667969.03125-2.488281.089844-2.835938-14.027344 6.203125-27.710938 20.222656-30.601563 14.015625-2.894531 27.734375 6.085938 30.6875 20.089844.285156 1.347656.464844 2.714844.539062 4.09375zm0 0"/><path d="m114.332031 122.78125c1.824219 3.929688 2.871094 8.179688 3.082031 12.507812h-67.921874c.867187-17.132812 14.363281-30.941406 31.472656-32.199218.820312-.058594 1.648437-.089844 2.488281-.089844 13.273437.003906 25.328125 7.726562 30.878906 19.78125zm0 0"/><path d="m53.453125 40c0 8.285156-6.714844 15-15 15s-15-6.714844-15-15 6.714844-15 15-15 15 6.714844 15 15zm0 0"/><path d="m42.285156 316.21875c5.691406 3.949219 7.949219 11.277344 5.457032 17.742188-.421876 1.101562-.980469 2.148437-1.660157 3.117187-4.714843 6.808594-14.050781 8.511719-20.867187 3.8125l-8.222656-5.691406c-4.523438-3-7.074219-8.210938-6.667969-13.625.40625-5.414063 3.707031-10.183594 8.628906-12.476563 4.921875-2.289062 10.695313-1.742187 15.101563 1.433594zm0 0"/></g><path d="m332.605469 128.019531h-17.738281c-2.160157-12.261719-9.707032-22.90625-20.5625-29 .171874-2.667969-.023438-5.351562-.582032-7.96875-3.28125-15.222656-16.753906-26.082031-32.324218-26.058593-15.574219.019531-29.011719 10.917968-32.253907 26.148437-1.226562-.089844-2.457031-.148437-3.691406-.148437-10.5625.015624-20.816406 3.578124-29.113281 10.117187-11.089844-10.363281-25.707032-16.125-40.886719-16.113281-5.996094.023437-11.960937.855468-17.738281 2.46875-5.101563-15.15625-20.339844-24.464844-36.152344-22.09375s-27.648438 15.738281-28.085938 31.722656c-15.0625 3.804688-26.699218 15.765625-30.085937 30.925781h-32.9375c-3.867187 0-7 3.132813-7 7 0 3.867188 3.132813 7 7 7h18.171875l7.820312 69.847657-25.9375 37.5625c-12.613281 18.246093-13.960937 42.011718-3.5 61.570312-6.371093 9.972656-3.722656 23.199219 6 29.945312l8.226563 5.703126c3.65625 2.539062 8 3.898437 12.453125 3.898437 1.335938 0 2.667969-.121094 3.984375-.359375 5.300781-.949219 10.0625-3.828125 13.367187-8.082031l6.386719 56.941406c0 .042969.011719.078125.015625.125 3.136719 23.347656 23.035156 40.796875 46.59375 40.847656h134.980469c23.554687-.058593 43.453125-17.496093 46.597656-40.84375.007813-.042969.011719-.222656.015625-.269531l28.792969-256.886719h18.183594c3.863281 0 7-3.132812 7-7 0-3.867187-3.136719-7-7-7zm-42.566407-15.183593c5.167969 3.691406 8.894532 9.054687 10.546876 15.183593h-27.027344c-.027344 0-.046875-.183593-.074219-.308593 6.929687-3.121094 12.714844-8.316407 16.554687-14.875zm-32.554687-33.410157c10.261719-2.191406 20.355469 4.347657 22.542969 14.609375.527344 2.480469.445312 5.054688-.238282 7.5-1.769531 5.859375-5.933593 10.699219-11.460937 13.328125-5.824219-9.671875-14.828125-17.019531-25.46875-20.789062 1.527344-7.355469 7.269531-13.109375 14.625-14.648438zm-32.03125 25.574219c2.835937 0 5.664063.332031 8.421875.984375 11.121094 2.621094 20.488281 10.1875 24.453125 19.964844.292969.726562.554687 2.070312.789063 2.070312h-65.195313c1.601563-4.589843 4.0625-8.832031 7.25-12.5 6.269531-6.742187 15.074219-10.558593 24.28125-10.519531zm-86.199219-3.371094c5.230469-1.714844 10.695313-2.601562 16.199219-2.628906 11.609375-.058594 22.800781 4.300781 31.316406 12.191406-3.511719 5.078125-5.988281 10.796875-7.292969 16.828125h-55.960937c-.128906 0-.273437-1.054687-.429687-1.648437 9.019531-5.203125 15.019531-14.390625 16.167968-24.742188zm-36.765625-22.199218c10.253907-2.191407 20.34375 4.34375 22.539063 14.597656.210937.992187.34375 2 .398437 3.011718.347657 6.621094-2.792969 12.9375-8.273437 16.660157-6.847656-9.859375-17.65625-16.242188-29.601563-17.46875.796875-8.253907 6.832031-15.046875 14.933594-16.804688zm-21.007812 30.511718c.636719-.046875 1.300781 0 1.972656 0 10.523437-.015625 20.097656 6.078125 24.53125 15.621094.40625.789062.75 1.613281 1.027344 2.457031h-51.125c3.519531-10.21875 12.8125-17.339843 23.59375-18.082031zm-11.320313 277.078125-1.792968-16h206.324218l-1.792968 16zm-48.140625-129.558593 16.800781-24.285157 8.785157 78.300781c-.433594-.347656-.875-.691406-1.339844-1.011718l-8.222656-5.683594c-5.796875-4.035156-13.183594-5.027344-19.839844-2.660156-6.722656-14.511719-5.269531-31.496094 3.820313-44.652344zm19.195313 73.976562c-.226563.589844-.523438 1.144531-.886719 1.660156-2.515625 3.625-7.492187 4.535156-11.128906 2.035156l-8.222657-5.691406c-2.433593-1.59375-3.808593-4.378906-3.59375-7.277344.210938-2.898437 1.980469-5.453124 4.617188-6.671874 2.636719-1.222657 5.726562-.917969 8.074219.796874l8.230469 5.6875c3.042968 2.097657 4.25 6.015626 2.910156 9.460938zm197.800781 94.582031h-134.980469c-15.253906 0-28.417968-11-32.015625-25h199.019531c-3.609374 14-16.777343 25-32.023437 25zm37.246094-69h-209.464844l-1.691406-15.117187c17.203125-1.71875 32.777343-10.921875 42.585937-25.160156l56.445313-81.589844c13.058593 3.746094 26.871093-2.765625 32.289062-15.226563 5.417969-12.457031.765625-27-10.875-34-11.644531-7-26.671875-4.289062-35.132812 6.339844-8.460938 10.628906-7.734375 25.878906 1.695312 35.660156l-55.9375 80.84375c-7.503906 10.910157-19.449219 17.945313-32.632812 19.21875l-12.894531-115.066406-7.9375-70.902344h257.625zm-104.738281-134.828125c-1.097657 0-2.191407-.140625-3.253907-.414062l-7.332031-5.066406c-3.460938-4.890626-3.128906-11.515626.804688-16.035157 3.933593-4.519531 10.445312-5.761719 15.765624-3.003906 5.320313 2.753906 8.066407 8.789063 6.644532 14.609375-1.417969 5.820312-6.636719 9.914062-12.628906 9.910156zm0 0" fill="#083863"/><path d="m16.453125 40c0 12.148438 9.851563 22 22 22 12.152344 0 22-9.851562 22-22s-9.847656-22-22-22c-12.144531.015625-21.984375 9.855469-22 22zm30 0c0 4.417969-3.582031 8-8 8s-8-3.582031-8-8 3.582031-8 8-8c4.417969.003906 7.996094 3.582031 8 8zm0 0" fill="#083863"/><path d="m287.453125 22c0-12.148438-9.847656-22-22-22-12.148437 0-22 9.851562-22 22s9.851563 22 22 22c12.144531-.015625 21.988281-9.855469 22-22zm-30 0c0-4.417969 3.582031-8 8-8s8 3.582031 8 8-3.582031 8-8 8c-4.414063-.003906-7.996094-3.582031-8-8zm0 0" fill="#083863"/><path d="m191.453125 71c12.152344 0 22-9.851562 22-22s-9.847656-22-22-22c-12.148437 0-22 9.851562-22 22 .015625 12.144531 9.855469 21.984375 22 22zm0-30c4.417969 0 8 3.582031 8 8s-3.582031 8-8 8-8-3.582031-8-8c.003906-4.417969 3.585937-7.996094 8-8zm0 0" fill="#083863"/></svg>