<svg height="433pt" viewBox="0 -38 433.99687 433" width="433pt" xmlns="http://www.w3.org/2000/svg"><path d="m411.550781 196.949219c4.339844 4.335937 9.628907 7.605469 15.449219 9.550781-11.800781 3.933594-21.0625 13.195312-25 25-3.9375-11.804688-13.199219-21.066406-25-25 11.800781-3.9375 21.0625-13.199219 25-25 1.933594 5.824219 5.203125 11.113281 9.550781 15.449219zm0 0" fill="#fedb41"/><path d="m360.050781 247.867188c-.003906 42.53125-29.765625 79.257812-71.371093 88.070312l-4.621094.730469c2.878906-4.613281 4.402344-9.941407 4.390625-15.378907h-29.179688c12.082031 0 22.914063-7.441406 27.242188-18.71875 22.804687-8.550781 37.914062-30.347656 37.917969-54.703124 0-32.238282-22.140626-58.367188-54.378907-58.367188-10.644531-.15625-21.039062 3.214844-29.570312 9.578125 9.117187-11.878906 15.296875-25.746094 18.03125-40.46875 25.664062-3.3125 51.515625 4.582031 70.953125 21.667969 19.4375 17.085937 30.578125 41.710937 30.585937 67.589844zm0 0" fill="#00acea"/><path d="m324.429688 247.867188c-.003907 24.355468-15.113282 46.152343-37.917969 54.703124 1.285156-3.34375 1.941406-6.890624 1.9375-10.472656h-29.179688c16.117188.003906 29.183594-13.0625 29.179688-29.179687h-29.179688c16.121094 0 29.183594-13.070313 29.179688-29.191407h-104.527344c22.816406-3.769531 42.796875-16.667968 56.558594-34.648437 8.53125-6.363281 18.925781-9.734375 29.570312-9.578125 32.238281 0 54.378907 26.128906 54.378907 58.367188zm0 0" fill="#fedb41"/><path d="m183.921875 233.726562h104.527344c.003906 16.121094-13.058594 29.191407-29.179688 29.191407h-178.429687c-16.121094 0-29.1875-13.070313-29.191406-29.191407h104.53125c9.183593 1.523438 18.554687 1.523438 27.742187 0zm0 0" fill="#00ceb4"/><path d="m259.269531 262.917969h29.179688c.003906 16.117187-13.0625 29.183593-29.179688 29.179687h-178.429687c-16.117188 0-29.183594-13.0625-29.191406-29.179687zm0 0" fill="#00efd1"/><path d="m286.511719 302.570312c-4.328125 11.277344-15.160157 18.71875-27.242188 18.71875h-178.429687c-16.121094 0-29.1875-13.070312-29.191406-29.191406h236.800781c.003906 3.582032-.652344 7.128906-1.9375 10.472656zm0 0" fill="#00ceb4"/><path d="m284.058594 336.667969c-5.304688 8.59375-14.6875 13.820312-24.789063 13.808593h-178.429687c-16.121094 0-29.1875-13.066406-29.191406-29.1875h236.800781c.011719 5.4375-1.511719 10.765626-4.390625 15.378907zm0 0" fill="#00efd1"/><path d="m258.511719 158.609375c-2.734375 14.722656-8.914063 28.589844-18.03125 40.46875-13.761719 17.980469-33.742188 30.878906-56.558594 34.648437h-27.742187c-43.121094-7.128906-76.128907-46.867187-76.128907-91.859374 0-49.703126 40.292969-90 90-90 49.703125 0 90 40.296874 90 90-.003906 5.617187-.519531 11.21875-1.539062 16.742187zm-30.082031-16.742187c0-32.238282-26.136719-58.375-58.375-58.375-32.238282 0-58.375 26.136718-58.375 58.375 0 32.242187 26.128906 55.382812 58.371093 55.382812 32.238281 0 58.378907-23.140625 58.378907-55.382812zm0 0" fill="#00acea"/><path d="m170.050781 83.5c32.238281-.003906 58.375 26.128906 58.378907 58.367188 0 32.242187-26.140626 55.382812-58.378907 55.382812-32.242187 0-58.371093-23.140625-58.371093-55.382812 0-32.238282 26.132812-58.371094 58.371093-58.367188zm0 0" fill="#fedb41"/><path d="m156.179688 233.726562h27.742187c-9.1875 1.523438-18.558594 1.523438-27.742187 0zm0 0" fill="#00acea"/><path d="m87.078125 25.417969c5.03125 5.039062 11.167969 8.832031 17.921875 11.082031-13.6875 4.566406-24.429688 15.308594-29 29-4.5625-13.695312-15.308594-24.4375-29-29 13.6875-4.570312 24.429688-15.3125 29-29 2.25 6.753906 6.042969 12.886719 11.078125 17.917969zm0 0" fill="#fedb41"/><path d="m34.640625 189.859375c3.46875 3.472656 7.703125 6.089844 12.359375 7.640625-9.441406 3.148438-16.851562 10.554688-20 20-3.152344-9.441406-10.558594-16.851562-20-20 9.441406-3.148438 16.851562-10.558594 20-20 1.558594 4.652344 4.171875 8.882812 7.640625 12.359375zm0 0" fill="#fedb41"/><g fill="#083863"><path d="m107.214844 29.859375c-11.597656-3.875-20.699219-12.972656-24.574219-24.570313-.949219-2.859374-3.625-4.789062-6.640625-4.789062s-5.691406 1.929688-6.640625 4.789062c-3.875 11.597657-12.976563 20.699219-24.574219 24.570313-2.859375.953125-4.785156 3.625-4.785156 6.640625 0 3.011719 1.925781 5.6875 4.785156 6.640625 11.585938 3.890625 20.679688 12.984375 24.570313 24.570313.953125 2.859374 3.628906 4.789062 6.640625 4.789062 3.015625 0 5.691406-1.929688 6.644531-4.789062 3.871094-11.597657 12.972656-20.699219 24.570313-24.570313 2.859374-.953125 4.785156-3.628906 4.785156-6.640625s-1.925782-5.6875-4.785156-6.640625zm-25.085938 12.769531c-2.261718 2.265625-4.316406 4.734375-6.136718 7.375-3.648438-5.277344-8.222657-9.851562-13.5-13.5 5.285156-3.640625 9.863281-8.214844 13.5-13.5 3.636718 5.28125 8.210937 9.859375 13.492187 13.5-2.632813 1.8125-5.09375 3.863282-7.355469 6.125zm0 0"/><path d="m429.21875 199.859375c-9.714844-3.238281-17.335938-10.859375-20.574219-20.570313-.949219-2.863281-3.628906-4.796874-6.644531-4.796874s-5.695312 1.933593-6.644531 4.796874c-3.238281 9.710938-10.859375 17.328126-20.574219 20.566407-2.855469.953125-4.78125 3.628906-4.78125 6.640625 0 3.011718 1.925781 5.683594 4.78125 6.636718 9.726562 3.363282 17.332031 11.058594 20.578125 20.820313.925781 2.914063 3.585937 4.929687 6.640625 5.035156 3.054688-.105469 5.714844-2.121093 6.640625-5.039062 3.203125-9.773438 10.828125-17.460938 20.574219-20.75 2.859375-.96875 4.78125-3.652344 4.78125-6.671875 0-3.015625-1.921875-5.699219-4.78125-6.667969zm-22.613281 11.230469c-1.675781 1.671875-3.21875 3.46875-4.617188 5.378906-2.804687-3.804688-6.164062-7.160156-9.96875-9.964844 3.816407-2.792968 7.183594-6.15625 9.980469-9.96875 2.792969 3.808594 6.15625 7.167969 9.96875 9.960938-1.902344 1.390625-3.695312 2.925781-5.363281 4.59375zm0 0"/><path d="m20.359375 219.960938c.929687 2.910156 3.585937 4.925781 6.640625 5.027343 3.050781-.105469 5.707031-2.113281 6.636719-5.023437 1.21875-3.660156 3.253906-6.996094 5.953125-9.753906 2.699218-2.71875 5.992187-4.773438 9.621094-6.007813 2.859374-.964844 4.789062-3.648437 4.789062-6.667969 0-3.019531-1.929688-5.699218-4.789062-6.664062-7.355469-2.460938-13.121094-8.234375-15.570313-15.589844-.957031-2.855469-3.628906-4.78125-6.640625-4.78125-3.007812 0-5.679688 1.925781-6.636719 4.78125-2.449219 7.351562-8.21875 13.125-15.570312 15.578125-2.859375.949219-4.78906275 3.621094-4.792969 6.636719-.0078125 3.042968 1.914062 5.757812 4.785156 6.765625 7.351563 2.519531 13.113282 8.324219 15.574219 15.699219zm3.957031-25.160157c.945313-.949219 1.84375-1.945312 2.683594-2.988281 1.683594 2.09375 3.589844 4 5.679688 5.6875-2.09375 1.691406-4 3.601562-5.691407 5.699219-1.691406-2.085938-3.597656-3.992188-5.683593-5.6875 1.050781-.851563 2.058593-1.753907 3.011718-2.710938zm0 0"/><path d="m216.09375 186.777344c12.46875-11.585938 19.488281-27.886719 19.335938-44.910156 0-36.105469-29.269532-65.375-65.375-65.375-36.105469 0-65.375 29.269531-65.375 65.375-.152344 17.023437 6.863281 33.320312 19.332031 44.910156 12.125 11.265625 28.472656 17.472656 46.039062 17.472656 17.5625 0 33.917969-6.207031 46.042969-17.472656zm-97.414062-44.910156c0-28.371094 23-51.375 51.375-51.375s51.375 23.003906 51.375 51.375c0 27.582031-22.089844 48.382812-51.378907 48.382812-29.292969 0-51.371093-20.800781-51.371093-48.382812zm0 0"/><path d="m170.050781 44.867188c-53.488281 0-97 43.644531-97 97.132812.09375 34.292969 17.445313 66.238281 46.160157 84.988281h-67.5625c-1.84375-.019531-3.621094.695313-4.9375 1.992188-1.3125 1.296875-2.054688 3.0625-2.0625 4.90625-.070313 8.023437 2.613281 15.824219 7.609374 22.101562h-.609374c-1.84375-.019531-3.625.699219-4.9375 1.996094-1.316407 1.296875-2.058594 3.066406-2.0625 4.914063-.070313 8.019531 2.617187 15.816406 7.609374 22.089843h-.609374c-1.84375-.019531-3.621094.695313-4.9375 1.992188-1.3125 1.296875-2.054688 3.0625-2.0625 4.90625-.070313 8.023437 2.613281 15.824219 7.609374 22.101562h-.609374c-3.894532.070313-7.011719 3.253907-7 7.148438.015624 9.566406 3.84375 18.726562 10.636718 25.457031 6.792969 6.730469 15.992188 10.472656 25.554688 10.394531h178.429687c11.304688.132813 22-5.105469 28.832031-14.117187l1.667969-.140625c.117188-.019531.234375.019531.347657 0 48.597656-10.261719 81.585937-55.578125 76.421874-104.976563-5.167968-49.398437-46.820312-86.910156-96.488281-86.894531-1.140625 0-2.28125.027344-3.421875.070313.277344-3.019532.421875-6.046876.421875-9.0625-.0625-53.546876-43.453125-96.9375-97-97zm125.128907 245.261718c-.847657-3.019531-3.59375-5.117187-6.730469-5.140625h-.625c4.964843-6.289062 7.652343-14.074219 7.625-22.089843-.003907-1.847657-.746094-3.617188-2.058594-4.914063-1.316406-1.296875-3.09375-2.015625-4.941406-1.996094h-.628907c4.96875-6.292969 7.660157-14.082031 7.628907-22.101562-.003907-1.84375-.746094-3.609375-2.0625-4.90625-1.3125-1.296875-3.089844-2.011719-4.9375-1.992188h-67.660157c9.359376-6.144531 17.644532-13.785156 24.523438-22.617187 7.191406-5.191406 15.867188-7.929688 24.738281-7.808594 13.539063 0 25.328125 5.085938 34.089844 14.761719 8.570313 9.464843 13.289063 22.410156 13.289063 36.535156-.058594 16.878906-8.367188 32.664063-22.25 42.269531zm-187.847657-92.472656c-13.027343-15.652344-20.199219-35.355469-20.28125-55.722656-.015625-45.839844 37.136719-83.011719 82.976563-83.023438 45.835937-.015625 83.007812 37.132813 83.023437 82.972656-.003906 5.191407-.480469 10.367188-1.425781 15.46875-2.492188 13.332032-8.023438 25.914063-16.171875 36.761719-3.050781 2.300781-5.929687 4.816407-8.625 7.527344-1.15625 1.199219-1.867187 2.757813-2.015625 4.417969-11.613281 10.734375-26.007812 17.988281-41.542969 20.929687h-26.441406c-19.011719-4-36.574219-13.75-49.496094-29.332031zm-42.183593 51.925781c-2.394532-2.441406-4.226563-5.375-5.378907-8.59375h95.917969c4.726562 0 9.554688 1.140625 14.363281 1.140625 4.808594 0 9.636719-1.140625 14.363281-1.140625h95.90625c-2.980468 9.066407-11.507812 15.140625-21.050781 15h-178.429687c-5.875.050781-11.527344-2.257812-15.691406-6.40625zm0 29c-2.394532-2.441406-4.226563-5.371093-5.375-8.59375h220.542968c-2.980468 9.066407-11.503906 15.140625-21.046875 15h-178.429687c-5.875.050781-11.527344-2.257812-15.691406-6.410156zm0 29.003907c-2.394532-2.441407-4.230469-5.375-5.378907-8.597657h219.078125c-1.152344 2-1.648437 3.433594-1.265625 5.410157-4.15625 6.011718-11.003906 9.597656-18.3125 9.589843h-178.429687c-5.875.050781-11.527344-2.253906-15.691406-6.398437zm194.121093 35.402343h-178.429687c-5.875.050781-11.527344-2.253906-15.691406-6.398437-2.480469-2.484375-4.300782-4.601563-5.378907-8.601563h220.546875c-.175781.75-.441406 1.476563-.789062 2.164063l-.027344.078125.007812.078125c-.410156.835937-.875 1.644531-1.402343 2.414062-4.042969 6.488282-11.191407 10.382813-18.835938 10.265625zm93.78125-95.121093c-.121093 36.203124-23.582031 68.195312-58.078125 79.183593.3125-1.953125.472656-3.933593.476563-5.914062.011719-3.894531-3.105469-7.078125-7-7.148438h-.636719c1.515625-1.914062 2.839844-3.972656 3.945312-6.144531 24-10.335938 39.582032-33.921875 39.671876-60.050781 0-37.265625-26.386719-65.332031-61.378907-65.332031-4.109375-.003907-8.210937.417968-12.234375 1.261718 2.757813-5.996094 4.925782-12.242187 6.46875-18.660156 1.914063-.132812 3.839844-.199219 5.765625-.199219 45.816407.054688 82.945313 37.1875 83 83.003907zm0 0"/></g></svg>