<svg height="443pt" viewBox="0 -58 443.9114 443" width="443pt" xmlns="http://www.w3.org/2000/svg"><path d="m421.648438 74.570312c11.160156 3.171876 17.636718 14.789063 14.472656 25.949219l-42.25 148.75c-3.171875 11.160157-14.789063 17.640625-25.953125 14.46875l-44.339844-12.589843 16.882813-13.757813 46.449218-37.882813c5.933594-4.839843 7.328125-13.347656 3.253906-19.832031-4.078124-6.484375-12.347656-8.914062-19.285156-5.667969l-.199218-.410156 20.578124-16.777344c4.253907-3.410156 6.347657-8.839843 5.492188-14.222656-.855469-5.382812-4.535156-9.894531-9.632812-11.816406-5.101563-1.921875-10.839844-.960938-15.039063 2.519531l11.761719-9.589843c4.25-3.414063 6.347656-8.839844 5.492187-14.222657-.859375-5.382812-4.535156-9.894531-9.636719-11.816406-5.101562-1.921875-10.839843-.960937-15.035156 2.515625l-17.640625 14.382812c6.496094-5.292968 7.46875-14.851562 2.175781-21.347656-5.292968-6.492187-14.851562-7.46875-21.347656-2.171875l-53.097656 43.277344c12.871094-11.144531 14.554688-30.507813 3.800781-43.707031-2.25-2.761719-6.308593-3.179688-9.070312-.933594l-19.320313 15.75-.410156-.507812 21.640625-71.839844.308594-1.101563zm0 0" fill="#00acea"/><path d="m274.75 134.328125 53.097656-43.277344c6.496094-5.296875 16.054688-4.320312 21.347656 2.171875 5.292969 6.496094 4.320313 16.054688-2.175781 21.347656l17.640625-14.382812c4.195313-3.476562 9.933594-4.4375 15.035156-2.515625 5.101563 1.921875 8.777344 6.433594 9.636719 11.816406.855469 5.382813-1.242187 10.808594-5.492187 14.222657l-11.761719 9.589843c6.5-5.214843 15.992187-4.210937 21.257813 2.246094 5.265624 6.457031 4.339843 15.953125-2.078126 21.273437l-20.578124 16.777344.199218.410156c6.9375-3.253906 15.210938-.824218 19.289063 5.664063s2.679687 14.996094-3.257813 19.835937l-46.449218 37.882813-16.882813 13.757813-7.230469 5.890624-24.808594 20.238282c-11.339843 9.261718-26.089843 13.242187-40.550781 10.941406l-.347656-.109375-32.339844 26.359375c-12.992187 10.597656-32.109375 8.652344-42.703125-4.339844l-34.507812-42.328125c-10.597656-12.988281-8.652344-32.109375 4.339844-42.703125l19.640624-16.007812 5.757813-5.371094c-4.207031-17.085938 1.800781-35.070312 15.441406-46.191406l8.417969-6.859375 55.472656-45.230469 19.320313-15.75c2.761719-2.246094 6.820312-1.828125 9.070312.933594 10.753907 13.199218 9.070313 32.5625-3.800781 43.707031zm0 0" fill="#00efd1"/><path d="m252.628906 26.570312 19.070313 5.417969-.308594 1.101563-21.640625 71.839844.410156.507812-55.472656 45.230469-.207031-.257813 32.199219-109.371094c3.171874-11.160156 14.789062-17.640624 25.949218-14.46875zm0 0" fill="#f4b844"/><g fill="#083863"><path d="m423.5625 67.835938-169.019531-48c-14.855469-4.21875-30.324219 4.382812-34.578125 19.226562l-31.753906 107.851562-6.367188 5.191407c-14.507812 11.910156-21.609375 30.625-18.652344 49.164062l-2.726562 2.542969-19.457032 15.859375c-15.992187 13.035156-18.386718 36.566406-5.34375 52.550781l34.511719 42.332032c13.046875 15.964843 36.554688 18.351562 52.546875 5.339843l29.925782-24.398437c15.570312 1.699218 31.171874-2.914063 43.316406-12.800782l29.214844-23.816406 40.828124 11.59375c14.882813 4.234375 30.375-4.40625 34.597657-19.292968l42.253906-148.753907c4.195313-14.875-4.433594-30.34375-19.296875-34.589843zm-190.148438-24.882813c2.113282-7.441406 9.855469-11.761719 17.296876-9.648437l12.253906 3.476562-19.640625 65.199219-35.90625 29.277343zm53.703126 228.898437c-9.675782 7.878907-22.214844 11.335938-34.5625 9.527344-2.199219-.625-4.566407-.136718-6.339844 1.308594l-32.339844 26.359375c-9.992188 8.152344-24.703125 6.660156-32.851562-3.335937l-34.511719-42.335938c-8.152344-9.992188-6.65625-24.699219 3.339843-32.847656l19.640626-16.007813c.121093-.101562.238281-.203125.351562-.308593l5.757812-5.367188c1.855469-1.730469 2.632813-4.332031 2.023438-6.792969-3.511719-14.460937 1.566406-29.652343 13.066406-39.089843l82.773438-67.488282c7.992187 10.273438 6.558594 25-3.265625 33.539063l-.1875.15625c-.105469.09375-.210938.183593-.390625.324219l-27.964844 22.785156c-2.996094 2.445312-3.445312 6.855468-1.003906 9.851562 2.445312 2.996094 6.851562 3.445313 9.851562 1.003906l27.882813-22.734374c.222656-.171876.4375-.351563.65625-.539063l.183593-.152344 53.054688-43.246093c1.449219-1.1875 3.265625-1.835938 5.136719-1.824219 3.457031-.007813 6.546875 2.164062 7.707031 5.421875 1.164062 3.253906.152344 6.890625-2.527344 9.078125l-69.96875 57.046875c-2.996094 2.445312-3.445312 6.855468-1 9.851562 2.441406 2.996094 6.851563 3.441406 9.847656 1l69.964844-57.046875.007813-.007812 17.636719-14.378907c3.503906-2.851562 8.65625-2.328124 11.507812 1.175782 2.855469 3.503906 2.328125 8.652344-1.175781 11.507812l-11.753907 9.585938-17.640624 14.378906-58.210938 47.460938c-2.996094 2.441406-3.441406 6.851562-1 9.847656s6.851562 3.445312 9.847656 1l58.207032-47.457032 17.644531-14.378906c1.675781-1.375 3.832031-2.023437 5.992187-1.804687 2.15625.21875 4.136719 1.289062 5.507813 2.972656 2.839843 3.5 2.320312 8.640625-1.167969 11.5l-20.582031 16.777344c-.351563.289062-.675781.613281-.96875.964843-.683594.4375-1.339844.914063-1.96875 1.425782l-40.582031 33.082031c-1.949219 1.574219-2.910157 4.074219-2.511719 6.550781.394531 2.476563 2.085937 4.554688 4.433593 5.441406 2.347657.886719 4.988282.453126 6.925782-1.140624l40.585937-33.089844c.519531-.421875 1.085938-.777344 1.6875-1.0625 3.738281-1.753906 8.195313-.441406 10.390625 3.054687 2.195313 3.496094 1.441406 8.078125-1.761718 10.683594zm142.269531-173.246093-42.25 148.75c-2.117188 7.441406-9.863281 11.761719-17.304688 9.652343l-31.414062-8.921874 52.917969-43.152344c5.695312-4.636719 8.722656-11.792969 8.082031-19.113282-.640625-7.316406-4.867188-13.839843-11.28125-17.414062l7.558593-6.164062c5.785157-4.722657 8.804688-12.035157 8.035157-19.464844-.765625-7.425782-5.21875-13.96875-11.84375-17.40625 6.808593-8.9375 5.855469-21.554688-2.21875-29.367188-8.078125-7.8125-20.71875-8.34375-29.421875-1.242187l-1.667969 1.359375c-2.214844-7.003906-7.753906-12.453125-14.792969-14.554688-7.035156-2.105468-14.65625-.585937-20.351562 4.054688l-30.800782 25.105468c0-.078124.007813-.160156.007813-.238281-.011719-8.851562-3.066406-17.429687-8.652344-24.292969-4.695312-5.75-13.160156-6.613281-18.921875-1.933593l-2.347656 1.914062 13.726562-45.570312 143.300782 40.699219c7.429687 2.132812 11.738281 9.863281 9.640625 17.300781zm0 0"/><path d="m201.285156 20.332031c3.554688 0 6.546875-2.667969 6.953125-6.199219.40625-3.535156-1.898437-6.8125-5.363281-7.617187-4.4375-1.039063-9.011719-1.960937-13.601562-2.738281-.097657-.015625-.207032-.03125-.3125-.046875l-19.941407-2.453125c-.101562-.007813-.199219-.019532-.300781-.027344-9.34375-.730469-18.722656-.957031-28.089844-.679688-3.867187.113282-6.90625 3.339844-6.792968 7.207032.113281 3.867187 3.339843 6.90625 7.207031 6.792968 8.808593-.261718 17.628906-.054687 26.417969.628907l19.632812 2.410156c4.246094.726563 8.480469 1.578125 12.585938 2.539063.527343.125 1.066406.183593 1.605468.183593zm0 0"/><path d="m101.359375 18.539062c6.121094-1.039062 12.378906-1.898437 18.605469-2.558593 2.496094-.253907 4.660156-1.824219 5.679687-4.113281 1.023438-2.289063.742188-4.949219-.738281-6.976563-1.476562-2.023437-3.921875-3.105469-6.414062-2.832031-6.515626.691406-13.070313 1.589844-19.476563 2.679687-2.503906.375-4.609375 2.074219-5.503906 4.445313-.898438 2.367187-.445313 5.035156 1.183593 6.976562 1.628907 1.9375 4.175782 2.847656 6.664063 2.378906zm0 0"/><path d="m65.394531 12.246094c-10.550781 2.832031-20.910156 6.339844-31.011719 10.5-3.546874 1.546875-5.164062 5.671875-3.617187 9.214844 1.546875 3.542968 5.671875 5.164062 9.214844 3.617187 9.507812-3.886719 19.25-7.175781 29.167969-9.84375 2.425781-.652344 4.316406-2.558594 4.949218-4.992187.632813-2.433594-.085937-5.015626-1.882812-6.773438s-4.398438-2.414062-6.816406-1.722656zm0 0"/><path d="m187.195312 85.179688c2.46875.566406 5.050782-.242188 6.75-2.121094 1.703126-1.875 2.257813-4.523438 1.453126-6.925782-.804688-2.402343-2.84375-4.183593-5.335938-4.652343-3.820312-.800781-7.671875-1.5-11.789062-2.140625-4.347657-.667969-8.863282-1.226563-13.421876-1.660156-3.847656-.363282-7.265624 2.457031-7.632812 6.304687-.363281 3.851563 2.457031 7.265625 6.304688 7.632813 4.292968.410156 8.542968.933593 12.613281 1.558593 3.863281.601563 7.484375 1.257813 11.058593 2.003907zm0 0"/><path d="m100.550781 83.46875c.332031 0 .660157-.023438.992188-.070312 9.871093-1.410157 19.808593-2.304688 29.773437-2.675782 3.867188-.066406 6.945313-3.253906 6.878906-7.121094-.066406-3.867187-3.253906-6.945312-7.121093-6.878906-.085938 0-.171875 0-.253907 0-10.457031.390625-20.886718 1.324219-31.242187 2.800782-3.644531.511718-6.269531 3.753906-6.011719 7.421874.257813 3.667969 3.308594 6.511719 6.984375 6.511719zm0 0"/><path d="m29.453125 102.261719c.964844 0 1.917969-.199219 2.800781-.585938.144532-.066406 14.921875-6.46875 38.078125-12.191406 3.742188-.9375 6.019531-4.726563 5.09375-8.46875-.925781-3.746094-4.707031-6.035156-8.453125-5.121094-24.300781 6-39.679687 12.667969-40.324218 12.949219-3.039063 1.324219-4.730469 4.601562-4.054688 7.851562.679688 3.246094 3.542969 5.570313 6.863281 5.566407zm0 0"/><path d="m139.390625 154.414062c9.191406.792969 18.320313 2.179688 27.332031 4.152344 2.449219.558594 5.011719-.242187 6.710938-2.09375 1.699218-1.847656 2.277344-4.46875 1.511718-6.863281-.765624-2.394531-2.753906-4.195313-5.210937-4.714844-9.601563-2.105469-19.332031-3.582031-29.128906-4.429687-2.496094-.226563-4.921875.898437-6.363281 2.953125-1.4375 2.050781-1.671876 4.714843-.609376 6.988281 1.0625 2.269531 3.261719 3.796875 5.757813 4.007812zm0 0"/><path d="m100.105469 140.085938c-7.824219.507812-15.90625 1.359374-24.027344 2.535156-3.636719.523437-6.25 3.765625-5.988281 7.425781.261718 3.664063 3.308594 6.503906 6.980468 6.503906.339844 0 .675782-.027343 1.011719-.074219 7.761719-1.121093 15.472657-1.9375 22.929688-2.421874 3.859375-.25 6.78125-3.578126 6.53125-7.4375-.25-3.859376-3.578125-6.78125-7.4375-6.53125zm0 0"/><path d="m30.496094 152.605469c-8.960938 2.550781-17.769532 5.617187-26.375 9.179687-3.492188 1.578125-5.070313 5.667969-3.535156 9.179688 1.53125 3.511718 5.601562 5.140625 9.132812 3.652344 8.074219-3.320313 16.328125-6.183594 24.722656-8.582032 2.429688-.679687 4.304688-2.613281 4.90625-5.0625.605469-2.449218-.15625-5.03125-1.988281-6.765625-1.832031-1.730469-4.453125-2.34375-6.863281-1.601562zm0 0"/></g></svg>