<svg height="458pt" viewBox="0 -12 458.01913 458" width="458pt" xmlns="http://www.w3.org/2000/svg"><path d="m367.328125 409.839844c4.742187 0 8.585937 3.84375 8.585937 8.585937 0 4.738281-3.84375 8.582031-8.585937 8.582031h-108.71875c-4.742187 0-8.585937-3.84375-8.585937-8.582031 0-4.742187 3.84375-8.585937 8.585937-8.585937zm0 0" fill="#00efd1"/><path d="m361.597656 400.691406v8.578125h-97.257812v-8.578125c0-21.355468 13.921875-40.210937 34.328125-46.492187v-13.589844h28.601562v13.589844c20.40625 6.28125 34.332031 25.136719 34.328125 46.492187zm0 0" fill="#00acea"/><path d="m346.269531 131.988281c-12.550781-4.488281-26.519531.621094-33.210937 12.152344 4.5-12.546875-.609375-26.515625-12.140625-33.199219 12.550781 4.496094 26.519531-.617187 33.199219-12.152344-4.496094 12.550782.617187 26.519532 12.152343 33.199219zm0 0" fill="#f4b844"/><path d="m311.070312 87.96875c-12.546874-4.496094-26.515624.613281-33.203124 12.140625 4.5-12.546875-.605469-26.515625-12.136719-33.199219 12.542969 4.496094 26.515625-.609375 33.199219-12.140625-4.5 12.546875.609374 26.515625 12.140624 33.199219zm0 0" fill="#f4b844"/><path d="m246.117188 263.460938h-211.789063c-6.507813 0-11.785156-5.273438-11.789063-11.78125v-2.238282c0-6.511718 5.28125-11.785156 11.789063-11.78125h217.28125c6.507813-.003906 11.789063 5.269532 11.789063 11.78125v2.238282c-.003907 6.507812-5.28125 11.78125-11.789063 11.78125zm0 0" fill="#00acea"/><path d="m263.398438 18.800781v2.230469c0 6.507812-5.277344 11.789062-11.789063 11.789062h-217.28125c-6.511719 0-11.789063-5.28125-11.789063-11.789062v-2.230469c0-6.511719 5.277344-11.789062 11.789063-11.792969h217.28125c6.511719.003907 11.789063 5.28125 11.789063 11.792969zm0 0" fill="#00efd1"/><path d="m108.589844 356.949219c-39.914063-14.128907-67.167969-51.179688-68.769532-93.488281h206.296876c-1.242188 32.792968-18 63.042968-45.140626 81.492187-27.140624 18.449219-61.433593 22.902344-92.386718 11.996094zm0 0" fill="#00efd1"/><path d="m105.117188 71.53125c.003906-8.792969-7.121094-15.921875-15.910157-15.921875-8.792969 0-15.917969 7.125-15.917969 15.917969 0 8.789062 7.128907 15.914062 15.921876 15.914062 8.785156-.003906 15.90625-7.125 15.90625-15.910156zm136.773437-38.710938v108.808594c.003906 19.003906-15.398437 34.410156-34.402344 34.410156h-129.039062c-19.003907 0-34.40625-15.40625-34.398438-34.410156v-108.808594zm0 0" fill="#00acea"/><path d="m177.378906 236.789062v.871094h-68.820312v-61.621094h68.820312zm0 0" fill="#00efd1"/><path d="m177.347656 356.949219-3.238281 16.179687c-3.476563 17.871094-2.375 36.328125 3.199219 53.660156h-68.679688c5.574219-17.332031 6.675782-35.789062 3.199219-53.660156l-3.238281-16.179687c22.25 7.828125 46.507812 7.828125 68.757812 0zm0 0" fill="#00acea"/><path d="m89.210938 55.609375c8.785156.003906 15.910156 7.128906 15.90625 15.917969 0 8.789062-7.125 15.910156-15.910157 15.914062-8.789062 0-15.914062-7.125-15.917969-15.910156-.003906-8.796875 7.125-15.925781 15.921876-15.921875zm0 0" fill="#00efd1"/><path d="m62.078125 371.371094c-15.199219-4.996094-31.792969 1.582031-39.449219 15.628906 5.003906-15.195312-1.574218-31.796875-15.628906-39.441406 15.199219 5.003906 31.800781-1.574219 39.449219-15.628906-5.003907 15.195312 1.578125 31.796874 15.628906 39.441406zm0 0" fill="#f4b844"/><g fill="#083863"><path d="m183.445312 362.140625c38.460938-15.117187 65.148438-50.585937 69.011719-91.730469 9.90625-.570312 17.625-8.808594 17.550781-18.730468v-2.238282c.070313-4.90625-1.847656-9.628906-5.3125-13.097656-3.464843-3.46875-8.183593-5.394531-13.085937-5.335938h-67.601563v-48h23.480469c22.875-.003906 41.4375-18.503906 41.519531-41.378906v-101.621094h2.601563c10.359375 0 18.398437-8.617187 18.398437-18.976562v-2.230469c.082032-4.941406-1.816406-9.710937-5.273437-13.242187-3.457031-3.527344-8.183594-5.527344-13.125-5.5507815h-217.28125c-10.359375 0-18.320313 8.4296875-18.320313 18.7929685v2.230469c0 10.359375 7.960938 18.976562 18.320313 18.976562h2.679687v101.621094c.046876 22.859375 18.582032 41.371094 41.441407 41.378906h23.558593v48h-67.679687c-4.894531-.054687-9.605469 1.871094-13.054687 5.34375-3.453126 3.472657-5.351563 8.191407-5.265626 13.089844v2.238282c-.089843 9.910156 7.609376 18.148437 17.5 18.730468 3.984376 41.105469 30.640626 76.519532 69.035157 91.722656l2.445312 12.480469c2.871094 15.058594 2.332031 30.570313-1.578125 45.394531h-34.421875c-3.863281 0-7 3.136719-7 7 0 3.867188 3.136719 7 7 7h147.960938c3.867187 0 7-3.132812 7-7 0-3.863281-3.132813-7-7-7h-34.417969c-3.90625-14.824218-4.4375-30.335937-1.558594-45.394531zm73.5625-340.921875c0 2.644531-2.144531 4.789062-4.789062 4.789062h-217.417969c-2.648437 0-4.792969-2.144531-4.792969-4.789062v-2.417969c0-2.644531 2.144532-4.789062 4.792969-4.792969h217.417969c2.644531.003907 4.789062 2.148438 4.789062 4.792969zm-206 120.410156v-101.621094h184v101.621094c-.070312 15.144532-12.371093 27.382813-27.519531 27.378906h-129.039062c-15.128907 0-27.402344-12.25-27.441407-27.378906zm65 41.378906h54v48h-54zm-86 68.671876v-2.238282c-.089843-1.183594.332032-2.347656 1.160157-3.195312s1.976562-1.296875 3.160156-1.238282h217.28125c1.191406-.0625 2.351563.382813 3.191406 1.230469.839844.847657 1.28125 2.011719 1.207031 3.203125v2.238282c.070313 1.179687-.371093 2.335937-1.214843 3.164062s-2.003907 1.253906-3.183594 1.164062h-217.28125c-1.171875.085938-2.320313-.34375-3.148437-1.175781-.832032-.832031-1.257813-1.980469-1.171876-3.152343zm17.375 18.328124h191.199219c-3.226562 29.195313-19.59375 55.324219-44.457031 70.960938-24.859375 15.640625-55.496094 19.085938-83.210938 9.351562-13.546874-4.882812-25.839843-12.714843-35.988281-22.929687-15.488281-15.40625-25.210937-35.664063-27.542969-57.382813zm70.449219 150c3.617188-15.8125 3.910157-32.207031.859375-48.144531l-.972656-4.921875c16.609375 3.886719 33.894531 3.875 50.5-.042968l-.980469 4.980468c-3.042969 15.929688-2.746093 32.320313.871094 48.128906zm0 0"/><path d="m118.027344 321.0625c.691406-3.800781-1.832032-7.449219-5.632813-8.140625-9.449219-1.71875-16.386719-6.144531-20.625-13.148437-1.96875-3.238282-3.25-6.847657-3.761719-10.605469-.304687-3.832031-3.648437-6.699219-7.484374-6.421875-3.835938.277344-6.726563 3.597656-6.476563 7.433594.609375 5.699218 2.425781 11.203124 5.332031 16.140624 4.371094 7.554688 13.210938 17.226563 30.507813 20.375 3.804687.695313 7.449219-1.828124 8.140625-5.632812zm0 0"/><path d="m128.714844 56.28125-18.476563 6.160156c-4.460937-10.324218-15.753906-15.890625-26.660156-13.128906-10.902344 2.757812-18.191406 13.027344-17.203125 24.230469.992188 11.203125 9.96875 20.035156 21.1875 20.839843 11.21875.800782 21.363281-6.65625 23.941406-17.605468l21.640625-7.214844c3.667969-1.226562 5.648438-5.191406 4.425781-8.859375-1.222656-3.664063-5.1875-5.648437-8.855468-4.421875zm-39.503906 24.160156c-4.925782 0-8.921876-3.992187-8.921876-8.914062 0-4.925782 3.992188-8.917969 8.917969-8.917969 4.921875 0 8.914063 3.996094 8.910157 8.921875-.007813 4.914062-3.992188 8.898438-8.90625 8.910156zm0 0"/><path d="m369.007812 402.910156v-2.21875c-.082031-14.804687-6.066406-28.964844-16.625-39.34375-5.238281-5.230468-11.488281-9.335937-18.375-12.0625v-8.675781c.042969-1.789063-.65625-3.511719-1.933593-4.765625-1.277344-1.25-3.019531-1.914062-4.804688-1.835938h-7.261719v-167c0-3.863281-3.132812-7-7-7-3.863281 0-7 3.136719-7 7v167h-7.339843c-1.777344-.074218-3.507813.59375-4.773438 1.84375-1.261719 1.253907-1.945312 2.980469-1.886719 4.757813v8.671875c-21.070312 8.375-34.929687 28.730469-35 51.410156v2.210938c-3.597656.429687-6.960937 2.011718-9.585937 4.507812-2.90625 2.925782-4.519531 6.894532-4.476563 11.019532.050782 8.617187 7.046876 15.578124 15.664063 15.578124h108.71875c4.136719.015626 8.101563-1.628906 11.019531-4.558593 2.988282-2.894531 4.703125-6.859375 4.765625-11.019531.082031-8.066407-6.066406-14.832032-14.105469-15.519532zm-98-2.214844c.0625-18.363281 12.132813-34.523437 29.71875-39.800781 3.015626-.867187 5.140626-3.5625 5.28125-6.695312v-6.191407h14v6.191407c.058594 3.101562 2.113282 5.808593 5.082032 6.695312 6.570312 1.996094 12.558594 5.546875 17.460937 10.355469 7.90625 7.761719 12.390625 18.359375 12.457031 29.441406v1.316406h-84zm97.441407 18.859376c-.296875.296874-.699219.460937-1.121094.460937h-108.71875c-.871094-.003906-1.578125-.707031-1.582031-1.582031-.003906-.402344.171875-.785156.476562-1.050782.304688-.265624.703125-.402343 1.105469-.375h108.71875c.410156-.015624.8125.132813 1.109375.417969.296875.28125.46875.671875.472656 1.082031.007813.398438-.160156.78125-.460937 1.042969zm0 0"/><path d="m376.386719 248.96875-17.519531 10.117188c-2.199219 1.234374-3.566407 3.554687-3.578126 6.078124-.011718 2.523438 1.335938 4.855469 3.527344 6.109376 2.191406 1.25 4.882813 1.226562 7.050782-.0625l17.519531-10.121094c3.292969-1.957032 4.402343-6.199219 2.484375-9.515625-1.914063-3.316407-6.140625-4.480469-9.484375-2.605469zm0 0"/><path d="m453.160156 259.085938-17.519531-10.117188c-2.167969-1.289062-4.863281-1.3125-7.050781-.0625-2.191406 1.25-3.539063 3.585938-3.527344 6.105469.011719 2.523437 1.378906 4.847656 3.578125 6.078125l17.519531 10.121094c2.167969 1.289062 4.863282 1.3125 7.050782.0625 2.191406-1.253907 3.539062-3.585938 3.527343-6.109376-.011719-2.523437-1.378906-4.84375-3.578125-6.078124zm0 0"/><path d="m381.25 229.007812h-20.230469c-3.867187 0-7 3.136719-7 7 0 3.867188 3.132813 7 7 7h20.230469c3.863281 0 7-3.132812 7-7 0-3.863281-3.136719-7-7-7zm0 0"/><path d="m451.019531 229.007812h-20.242187c-3.863282 0-7 3.136719-7 7 0 3.867188 3.136718 7 7 7h20.242187c3.867188 0 7-3.132812 7-7 0-3.863281-3.132812-7-7-7zm0 0"/><path d="m387.945312 210.996094-17.53125-9.648438c-3.382812-1.839844-7.617187-.601562-9.476562 2.773438s-.640625 7.617187 2.726562 9.492187l17.527344 9.648438c3.386719 1.839843 7.621094.601562 9.480469-2.773438 1.855469-3.375.640625-7.617187-2.726563-9.492187zm0 0"/><path d="m430.835938 223.261719 17.527343-9.648438c2.207031-1.199219 3.597657-3.488281 3.65625-5.996093.054688-2.507813-1.238281-4.855469-3.386719-6.148438-2.148437-1.296875-4.828124-1.34375-7.019531-.121094l-17.53125 9.648438c-2.203125 1.199218-3.597656 3.488281-3.652343 5.996094-.054688 2.507812 1.238281 4.855468 3.386718 6.148437 2.148438 1.296875 4.828125 1.34375 7.019532.121094zm0 0"/><path d="m424.386719 205.175781 10.121093-16.722656c2-3.304687.941407-7.609375-2.363281-9.613281-3.308593-2-7.613281-.941406-9.613281 2.363281l-10.121094 16.722656c-2.003906 3.304688-.945312 7.609375 2.363282 9.613281 3.308593 2 7.613281.941407 9.613281-2.363281zm0 0"/><path d="m399.617188 197.925781-10.109376-16.714843c-1.285156-2.152344-3.628906-3.453126-6.136718-3.40625-2.507813.046874-4.796875 1.433593-6.003906 3.632812-1.207032 2.199219-1.144532 4.875.160156 7.015625l10.113281 16.71875c2.007813 3.289063 6.296875 4.335937 9.59375 2.34375 3.296875-1.996094 4.363281-6.28125 2.382813-9.585937zm0 0"/><path d="m399.007812 172.160156v19.308594c0 3.867188 3.136719 7 7 7 3.867188 0 7-3.132812 7-7v-19.308594c0-3.867187-3.132812-7-7-7-3.863281 0-7 3.132813-7 7zm0 0"/><path d="m406.007812 218.820312c-3.863281 0-7 3.132813-7 7v201.1875c0 3.867188 3.136719 7 7 7 3.867188 0 7-3.132812 7-7v-201.1875c0-3.867187-3.132812-7-7-7zm0 0"/><path d="m68.507812 374.148438c1.4375-3.324219.101563-7.195313-3.078124-8.925782-11.089844-6.027344-16.277344-19.125-12.328126-31.113281 1.128907-3.441406-.554687-7.171875-3.875-8.605469-3.324218-1.4375-7.195312-.101562-8.925781 3.078125-6.03125 11.089844-19.132812 16.277344-31.121093 12.328125-3.441407-1.125-7.171876.554688-8.605469 3.878906-1.433594 3.320313-.101563 7.191407 3.078125 8.921876 11.085937 6.03125 16.273437 19.125 12.324218 31.113281-1.125 3.441406.554688 7.171875 3.878907 8.605469 3.324219 1.433593 7.191406.097656 8.921875-3.078126 6.035156-11.082031 19.128906-16.269531 31.117187-12.328124 3.441407 1.132812 7.179688-.550782 8.613281-3.875zm-38-5.371094c-.945312-4.726563-2.734374-9.246094-5.28125-13.335938 4.726563-.945312 9.246094-2.738281 13.339844-5.285156.945313 4.726562 2.734375 9.242188 5.285156 13.335938-4.726562.949218-9.246093 2.738281-13.34375 5.285156zm0 0"/><path d="m274.917969 106.457031c3.28125 1.53125 7.191406.300781 9.007812-2.835937 4.984375-8.609375 15.414063-12.421875 24.777344-9.0625 3.410156 1.222656 7.1875-.351563 8.714844-3.636719 1.527343-3.285156.296875-7.191406-2.835938-9.007813-6.351562-3.699218-10.261719-10.488281-10.273437-17.835937 0-2.367187.40625-4.714844 1.207031-6.941406 1.226563-3.410157-.347656-7.191407-3.632813-8.71875-3.285156-1.527344-7.191406-.296875-9.007812 2.839843-3.699219 6.347657-10.488281 10.257813-17.835938 10.273438-2.367187 0-4.714843-.410156-6.941406-1.210938-3.410156-1.226562-7.191406.351563-8.71875 3.636719-1.527344 3.285157-.296875 7.191407 2.835938 9.007813 6.351562 3.699218 10.261718 10.488281 10.273437 17.835937.003907 2.367188-.40625 4.714844-1.207031 6.941407-1.222656 3.40625.351562 7.1875 3.636719 8.714843zm16.210937-34.914062c.667969 3 1.730469 5.898437 3.160156 8.617187-3.003906.664063-5.902343 1.726563-8.625 3.15625-.667968-2.996094-1.730468-5.890625-3.160156-8.609375 3.003906-.667969 5.902344-1.730469 8.625-3.164062zm0 0"/><path d="m310.109375 150.488281c3.28125 1.527344 7.1875.296875 9.007813-2.835937 4.996093-8.609375 15.425781-12.425782 24.800781-9.070313 3.40625 1.21875 7.183593-.359375 8.710937-3.644531 1.523438-3.285156.289063-7.191406-2.84375-9.003906-6.355468-3.695313-10.273437-10.484375-10.285156-17.835938-.003906-2.363281.40625-4.710937 1.207031-6.9375 1.226563-3.410156-.351562-7.191406-3.636719-8.71875-3.285156-1.527344-7.191406-.296875-9.007812 2.839844-4.988281 8.617188-15.425781 12.429688-24.792969 9.0625-3.410156-1.210938-7.183593.371094-8.703125 3.65625-1.519531 3.28125-.285156 7.183594 2.84375 8.996094 6.351563 3.695312 10.257813 10.484375 10.269532 17.832031 0 2.367187-.40625 4.714844-1.207032 6.941406-1.226562 3.410157.351563 7.191407 3.636719 8.71875zm16.214844-34.917969c.667969 3 1.730469 5.898438 3.164062 8.621094-3.003906.664063-5.90625 1.722656-8.628906 3.152344-.667969-2.996094-1.730469-5.890625-3.160156-8.605469 3-.671875 5.902343-1.734375 8.621093-3.167969zm0 0"/></g></svg>