<svg height="470pt" viewBox="0 -37 470.00382 470" width="470pt" xmlns="http://www.w3.org/2000/svg"><path d="m411.9375 145.808594 51.078125 77.882812h-102.160156zm0 0" fill="#00efd1"/><path d="m316.097656 107.789062c14.988282 14.992188 10.4375 45.589844-8.8125 77.902344-2.371094 3.988282-2.582031 8.902344-.558594 13.078125 16.605469 34.609375 6.136719 76.136719-24.890624 98.742188-7.730469-37.851563-25.78125-64.390625-46.820313-64.390625s-39.089844 26.539062-46.820313 64.390625c-31.023437-22.605469-41.492187-64.132813-24.890624-98.742188 2.023437-4.175781 1.8125-9.089843-.558594-13.078125-19.25-32.3125-23.800782-62.910156-8.808594-77.902344 13.230469-13.230468 38.597656-11.238281 66.570312 2.621094 9.140626 4.53125 19.875 4.53125 29.019532 0 27.96875-13.859375 53.339844-15.851562 66.570312-2.621094zm0 0" fill="#00acea"/><path d="m109.175781 172.691406-51.078125 77.878906-51.082031-77.878906zm0 0" fill="#00acea"/><g fill="#083863"><path d="m417.789062 141.972656c-1.292968-1.972656-3.492187-3.164062-5.851562-3.164062s-4.5625 1.191406-5.855469 3.164062l-51.078125 77.878906c-1.414062 2.242188-1.527344 5.0625-.304687 7.414063 1.191406 2.324219 3.546875 3.824219 6.15625 3.925781h42.0625c-6.398438 42.476563-27.847657 81.238282-60.4375 109.222656-31.289063 26.828126-70.582031 42.089844-107.800781 42.089844-24.265626 0-49.644532-6.605468-73.394532-18.988281-24.683594-12.898437-46.09375-31.269531-62.585937-53.710937-2.277344-3.121094-6.65625-3.804688-9.777344-1.527344-3.117187 2.28125-3.800781 6.65625-1.523437 9.777344 17.769531 24.160156 40.824218 43.933593 67.410156 57.816406 25.738281 13.417968 53.355468 20.511718 79.867187 20.511718 40.507813 0 83.121094-16.367187 116.910157-45.339843 35.675781-30.65625 58.957031-73.269531 65.484374-119.851563h45.945313c2.605469-.117187 4.953125-1.609375 6.160156-3.921875 1.203125-2.3125 1.089844-5.089843-.304687-7.292969zm-43.972656 75.21875 38.117188-58.117187 38.121094 58.117187zm0 0"/><path d="m115.335938 169.613281c-1.25-2.203125-3.628907-3.523437-6.160157-3.421875h-42.058593c6.152343-42.703125 27.636718-81.703125 60.433593-109.726562 31.292969-26.828125 70.582031-42.339844 107.800781-42.339844 24.265626 0 49.644532 6.480469 73.402344 18.863281 24.679688 12.875 46.085938 31.226563 62.585938 53.648438 2.292968 3.121093 6.679687 3.792969 9.800781 1.5 3.117187-2.289063 3.789063-6.679688 1.5-9.796875-17.773437-24.164063-40.835937-43.941406-67.425781-57.824219-25.738282-13.417969-53.355469-20.515625-79.867188-20.515625-40.507812 0-83.121094 16.867188-116.910156 45.839844-35.878906 30.699218-59.191406 73.546875-65.476562 120.351562h-45.945313c-2.535156-.121094-4.921875 1.203125-6.164063 3.417969-1.238281 2.21875-1.117187 4.945313.3125 7.042969l51.078126 77.820312c1.304687 1.960938 3.511718 3.136719 5.867187 3.128906 2.359375-.011718 4.550781-1.203124 5.839844-3.175781l51.082031-77.765625c1.410156-2.105468 1.527344-4.824218.304688-7.046875zm-57.238282 68.691407-38.117187-58.113282h76.234375zm0 0"/><path d="m321.046875 102.839844c-15.160156-15.160156-42.363281-14.691406-74.632813 1.300781-7.1875 3.542969-15.613281 3.542969-22.800781 0-32.261719-15.988281-59.460937-16.460937-74.628906-1.300781-16.90625 16.910156-13.941406 50.03125 7.742187 86.421875 1.175782 1.976562 1.277344 4.410156.269532 6.476562-5.636719 11.6875-8.550782 24.503907-8.519532 37.480469.050782 27.65625 13.269532 53.632812 35.601563 69.949219 1.921875 1.402343 4.429687 1.730469 6.648437.867187 2.222657-.859375 3.851563-2.789062 4.328126-5.125 7.179687-35.164062 23.242187-58.789062 39.960937-58.789062 16.722656 0 32.78125 23.625 39.960937 58.789062.476563 2.335938 2.109376 4.265625 4.328126 5.125 2.222656.863282 4.726562.535156 6.652343-.867187 22.328125-16.316407 35.550781-42.292969 35.601563-69.949219.027344-12.988281-2.894532-25.816406-8.542969-37.511719-.441406-.917969-.671875-1.925781-.671875-2.945312 0-1.226563.328125-2.433594.953125-3.488281 21.691406-36.402344 24.660156-69.523438 7.75-86.433594zm-20.628906 98.964844c4.722656 9.796874 7.164062 20.539062 7.136719 31.414062-.035157 19.371094-7.785157 37.925781-21.539063 51.566406-9.894531-36.484375-28.90625-58.664062-51-58.664062s-41.097656 22.179687-51 58.664062c-13.753906-13.640625-21.503906-32.195312-21.539063-51.566406-.027343-10.863281 2.40625-21.597656 7.125-31.386719 3.050782-6.296875 2.738282-13.707031-.839843-19.726562-17.972657-30.164063-21.847657-57.390625-9.875-69.367188 10.332031-10.332031 32.75-8.820312 58.507812 3.941407 11.109375 5.472656 24.128907 5.472656 35.238281 0 25.761719-12.765626 48.183594-14.273438 58.511719-3.941407 11.976563 11.972657 8.101563 39.199219-9.878906 69.378907-3.566406 6.003906-3.882813 13.394531-.847656 19.683593zm0 0"/></g></svg>