<svg height="393pt" viewBox="0 -30 393.90593 393" width="393pt" xmlns="http://www.w3.org/2000/svg"><path d="m372.625 21.808594c24.152344 24.160156 16.8125 73.460937-14.199219 125.5-2.046875 3.449218-3.125 7.390625-3.121093 11.402344.003906 3.351562.761718 6.660156 2.222656 9.679687 26.742187 55.75 9.875 122.648437-40.101563 159.058594-12.460937-60.96875-41.519531-103.730469-75.417969-103.730469-33.902343 0-62.960937 42.761719-75.421874 103.730469-24.273438-17.65625-41.574219-43.277344-48.890626-72.390625 44.222657-10.445313 73.722657-52.214844 68.777344-97.382813-4.941406-45.167969-42.773437-79.566406-88.207031-80.207031-3.558594-23.328125.429687-42.96875 13.121094-55.660156 21.308593-21.296875 62.179687-18.089844 107.25 4.242187 14.730469 7.277344 32.011719 7.277344 46.738281 0 45.070312-22.332031 85.941406-25.539062 107.25-4.242187zm0 0" fill="#00efd1"/><path d="m187.007812 167.449219c0 49.707031-40.296874 90-90 90-49.707031 0-90-40.292969-90-90 0-49.703125 40.292969-90 90-90 .417969 0 .839844 0 1.257813.019531 49.210937.675781 88.75 40.765625 88.742187 89.980469zm-40 15v-30h-35v-35h-30v35h-35v30h35v35h30v-35zm0 0" fill="#00acea"/><path d="m147.007812 152.449219v30h-35v35h-30v-35h-35v-30h35v-35h30v35zm0 0" fill="#fedb41"/><g fill="#083863"><path d="m364.441406 150.894531c33.890625-56.875 38.925782-108.234375 13.132813-134.035156-11.714844-11.710937-29.015625-17.332031-50.015625-16.28125-19.320313.972656-41.898438 7.609375-65.289063 19.199219-12.777343 6.28125-27.746093 6.28125-40.527343 0-23.386719-11.589844-45.964844-18.226563-65.289063-19.199219-21.007813-1.050781-38.300781 4.574219-50.015625 16.28125-12.5 12.5-17.953125 31.007813-16 53.820313-35.671875 2.417968-67.117188 24.261718-81.835938 56.84375-14.71875 32.582031-10.320312 70.617187 11.441407 98.980468 21.765625 28.363282 57.367187 42.457032 92.648437 36.675782 8.566406 28.089843 26.039063 52.636718 49.777344 69.929687 1.925781 1.402344 4.429688 1.730469 6.652344.867187 2.21875-.859374 3.851562-2.789062 4.328125-5.125 12-58.695312 39.546875-98.128906 68.5625-98.128906 29.011719 0 56.566406 39.433594 68.558593 98.128906.476563 2.335938 2.109376 4.265626 4.328126 5.128907 2.222656.859375 4.730468.53125 6.652343-.871094 34.867188-25.476563 55.507813-66.039063 55.585938-109.21875.050781-20.269531-4.5-40.285156-13.308594-58.539063-.996094-2.070312-1.515625-4.339843-1.523437-6.636718-.003907-2.75.734374-5.449219 2.136718-7.816406zm-350.433594 16.554688c.050782-45.816407 37.179688-82.949219 83-83h.238282c.230468 0 .464844 0 .695312.011719.078125 0 .152344.007812.230469.007812 31.699219.445312 60.375 18.910156 73.902344 47.585938 13.523437 28.671874 9.53125 62.542968-10.285157 87.289062-22.03125 27.507812-59.03125 38.101562-92.28125 26.425781-33.253906-11.675781-55.503906-43.078125-55.5-78.320312zm337.210938 3.976562c7.890625 16.359375 11.96875 34.300781 11.917969 52.464844-.066407 34.890625-15.121094 68.070313-41.335938 91.097656-6.515625-26.574219-16.230469-49.34375-28.34375-66.332031-14.902343-20.894531-32.695312-31.9375-51.449219-31.9375-18.757812 0-36.546874 11.042969-51.449218 31.9375-12.117188 16.988281-21.832032 39.761719-28.347656 66.339844-16.796876-14.710938-29.207032-33.769532-35.863282-55.082032 40.289063-12.789062 67.660156-50.195312 67.660156-92.464843.007813-50.675781-39.003906-92.8125-89.53125-96.699219-1.414062-14.464844.027344-32.160156 11.859376-43.988281 18.253906-18.246094 55.335937-16.167969 99.199218 5.5625 16.695313 8.210937 36.257813 8.210937 52.953125 0 43.859375-21.730469 80.9375-23.808594 99.191407-5.5625 20.71875 20.726562 14.730468 66.636719-15.269532 116.980469-5.007812 8.445312-5.453125 18.839843-1.183594 27.683593zm0 0"/><path d="m118.996094 217.449219v-28h28.011718c1.855469 0 3.632813-.738281 4.945313-2.050781 1.308594-1.3125 2.046875-3.09375 2.042969-4.949219v-30c.003906-1.855469-.734375-3.636719-2.042969-4.949219-1.3125-1.3125-3.089844-2.050781-4.945313-2.050781h-28.011718v-28c.003906-1.855469-.734375-3.636719-2.042969-4.949219-1.3125-1.3125-3.089844-2.050781-4.945313-2.050781h-30c-3.867187 0-7.007812 3.132812-7.011718 7v28h-27.988282c-3.867187 0-7.007812 3.132812-7.011718 7v30c.003906 3.867187 3.144531 7 7.011718 7h27.988282v28c.003906 3.867187 3.144531 7 7.011718 7h30c1.855469 0 3.632813-.738281 4.945313-2.050781 1.308594-1.3125 2.046875-3.09375 2.042969-4.949219zm-14-35v28h-16v-28c.003906-1.855469-.734375-3.636719-2.042969-4.949219-1.3125-1.3125-3.089844-2.050781-4.945313-2.050781h-28.011718v-16h28.011718c1.855469 0 3.632813-.738281 4.945313-2.050781 1.308594-1.3125 2.046875-3.09375 2.042969-4.949219v-28h16v28c.003906 3.867187 3.144531 7 7.011718 7h27.988282v16h-27.988282c-3.867187 0-7.007812 3.132812-7.011718 7zm0 0"/></g></svg>