<svg height="393pt" viewBox="0 -30 393.91112 393" width="393pt" xmlns="http://www.w3.org/2000/svg"><path d="m296.898438 77.457031c50.03125-.449219 91 39.65625 91.621093 89.683594.617188 50.027344-39.34375 91.136719-89.367187 91.929687-50.027344.792969-91.273438-39.023437-92.242188-89.046874-.964844-50.023438 38.707032-91.40625 88.726563-92.546876.421875-.019531.839843-.019531 1.261719-.019531zm0 0" fill="#00acea"/><path d="m282.519531 21.816406c12.6875 12.6875 16.679688 32.328125 13.117188 55.660156-45.429688.636719-83.265625 35.039063-88.207031 80.207032-4.941407 45.167968 24.558593 86.933594 68.777343 97.382812-7.3125 29.109375-24.617187 54.730469-48.886719 72.390625-12.460937-60.972656-41.523437-103.730469-75.421874-103.730469-33.898438 0-62.960938 42.757813-75.421876 103.730469-49.976562-36.414062-66.839843-103.308593-40.097656-159.0625 1.460938-3.015625 2.21875-6.328125 2.21875-9.679687.007813-4.011719-1.070312-7.949219-3.121094-11.398438-31.007812-52.042968-38.347656-101.339844-14.199218-125.5 21.3125-21.300781 62.179687-18.089844 107.25 4.238282 14.730468 7.28125 32.011718 7.28125 46.742187 0 45.070313-22.328126 85.9375-25.539063 107.25-4.238282zm0 0" fill="#00efd1"/><g fill="#083863"><path d="m31.050781 154.632812c.363281 1.332032.546875 2.703126.546875 4.082032-.003906 2.300781-.527344 4.574218-1.527344 6.644531-8.804687 18.253906-13.351562 38.269531-13.300781 58.535156.078125 43.183594 20.722657 83.742188 55.589844 109.21875 1.925781 1.402344 4.429687 1.730469 6.652344.871094 2.21875-.863281 3.851562-2.792969 4.328125-5.128906 12-58.695313 39.546875-98.128907 68.5625-98.128907 29.011718 0 56.566406 39.433594 68.558594 98.128907.476562 2.335937 2.109374 4.265625 4.328124 5.125 2.222657.863281 4.726563.535156 6.652344-.867188 23.738282-17.292969 41.210938-41.839843 49.777344-69.933593 35.28125 5.785156 70.882812-8.308594 92.648438-36.671876 21.761718-28.363281 26.160156-66.398437 11.441406-98.980468-14.714844-32.582032-46.164063-54.425782-81.832032-56.847656 1.949219-22.808594-3.507812-41.316407-16.007812-53.816407-11.714844-11.707031-29-17.335937-50.015625-16.28125-19.324219.972657-41.898437 7.609375-65.289063 19.199219-12.777343 6.28125-27.746093 6.28125-40.527343 0-23.390625-11.589844-45.964844-18.230469-65.289063-19.199219-21.007812-1.054687-38.300781 4.574219-50.019531 16.28125-25.785156 25.800781-20.753906 77.15625 13.132813 134.019531.691406 1.175782 1.226562 2.4375 1.589843 3.75zm348.847657 12.824219c.011718 35.246094-22.238282 66.65625-55.496094 78.332031-33.253906 11.679688-70.261719 1.078126-92.285156-26.441406-19.828126-24.742187-23.824219-58.617187-10.296876-87.292968 13.527344-28.679688 42.210938-47.140626 73.914063-47.578126.078125 0 .15625 0 .238281-.007812.226563-.011719.453125-.011719.683594-.011719h.242188c45.820312.050781 82.949218 37.179688 83 83zm-353.671876-140.691406c18.257813-18.246094 55.335938-16.167969 99.199219 5.5625 16.695313 8.210937 36.257813 8.210937 52.953125 0 43.855469-21.730469 80.9375-23.808594 99.195313-5.5625 11.828125 11.828125 13.273437 29.523437 11.859375 43.988281-35.847656 2.769532-67.21875 25.136719-81.519532 58.121094-14.304687 32.984375-9.191406 71.175781 13.285157 99.234375 11.996093 14.921875 28.121093 25.988281 46.359375 31.808594-6.652344 21.3125-19.0625 40.375-35.859375 55.082031-6.519531-26.578125-16.230469-49.347656-28.347657-66.335938-14.898437-20.894531-32.691406-31.9375-51.449218-31.9375-18.757813 0-36.546875 11.042969-51.449219 31.9375-12.117187 16.984376-21.828125 39.757813-28.347656 66.332032-26.210938-23.027344-41.265625-56.207032-41.332031-91.101563-.050782-18.160156 4.023437-36.09375 11.910156-52.453125 4.277344-8.847656 3.832031-19.257812-1.1875-27.710937-29.996094-50.328125-35.988282-96.238281-15.269532-116.964844zm0 0"/><path d="m257.34375 156c-2.617188-2.84375-7.046875-3.023438-9.890625-.402344-2.839844 2.621094-3.019531 7.050782-.402344 9.894532l30.902344 33.507812c2.613281 2.835938 7.03125 3.023438 9.875.417969l58.507813-53.601563c2.84375-2.613281 3.03125-7.035156.425781-9.878906-2.609375-2.847656-7.03125-3.046875-9.882813-.445312l-53.363281 48.886718zm0 0"/><path d="m61.910156 96.957031c3.863282 0 7-3.136719 7-7v-31c0-3.867187-3.136718-7-7-7-3.867187 0-7 3.132813-7 7v31c0 3.863281 3.132813 7 7 7zm0 0"/><path d="m61.910156 134.957031c3.863282 0 7-3.136719 7-7v-14c0-3.867187-3.136718-7-7-7-3.867187 0-7 3.132813-7 7v14c0 3.863281 3.132813 7 7 7zm0 0"/></g></svg>