<svg height="395pt" viewBox="0 -31 395.56368 395" width="395pt" xmlns="http://www.w3.org/2000/svg"><path d="m296.832031 64.507812 5.890625-3.226562 85.492188 45.546875v51.382813c-.003906 47.808593-28.6875 90.949218-72.769532 109.449218l-13.011718 5.621094-11.539063-5.03125c-43.25-18.933594-71.21875-61.640625-71.289062-108.851562v-52.570313zm0 0" fill="#00acea"/><path d="m282.523438 21.640625c10.289062 10.289063 14.859374 25.160156 14.308593 42.867187l-77.226562 42.320313v52.570313c.015625 40.710937 20.882812 78.578124 55.289062 100.339843-7.96875 27.148438-24.695312 50.894531-47.570312 67.542969-12.460938-60.972656-41.519531-103.730469-75.421875-103.730469-33.898438 0-62.957032 42.757813-75.417969 103.730469-49.976563-36.414062-66.84375-103.308594-40.101563-159.0625 1.460938-3.015625 2.21875-6.328125 2.222657-9.679688.003906-4.011718-1.074219-7.949218-3.121094-11.398437-31.011719-52.042969-38.351563-101.339844-14.199219-125.5 21.308594-21.300781 62.179688-18.089844 107.25 4.238281 14.726563 7.28125 32.007813 7.28125 46.738282 0 45.070312-22.328125 85.941406-25.539062 107.25-4.238281zm0 0" fill="#00efd1"/><g fill="#083863"><path d="m62.5625 96.78125c3.867188 0 7-3.136719 7-7v-31c0-3.867188-3.132812-7-7-7-3.863281 0-7 3.132812-7 7v31c0 3.863281 3.136719 7 7 7zm0 0"/><path d="m62.5625 134.78125c3.867188 0 7-3.136719 7-7v-14c0-3.867188-3.132812-7-7-7-3.863281 0-7 3.132812-7 7v14c0 3.863281 3.136719 7 7 7zm0 0"/><path d="m31.058594 154.457031c.359375 1.332031.542968 2.703125.546875 4.082031-.007813 2.300782-.527344 4.570313-1.527344 6.644532-8.808594 18.253906-13.355469 38.269531-13.300781 58.535156.078125 43.183594 20.722656 83.742188 55.585937 109.21875 1.925781 1.402344 4.433594 1.730469 6.652344.867188 2.222656-.859376 3.851563-2.789063 4.328125-5.125 12-58.695313 39.546875-98.128907 68.5625-98.128907 29.011719 0 56.5625 39.433594 68.558594 98.128907.476562 2.332031 2.105468 4.265624 4.328125 5.125 2.21875.859374 4.726562.535156 6.652343-.871094 21.636719-15.808594 38.113282-37.660156 47.367188-62.808594 3.046875 1.640625 6.144531 3.167969 9.28125 4.539062l11.542969 5.03125c1.773437.773438 3.792969.777344 5.570312.007813l12.960938-5.597656c46.753906-19.554688 77.246093-65.214844 77.394531-115.894531v-51.382813c-.070312-2.613281-1.558594-4.980469-3.882812-6.175781l-85.574219-45.550782c-.78125-.40625-1.628907-.667968-2.5-.769531-1.3125-15.453125-6.800781-28.335937-16.113281-37.644531-11.710938-11.707031-29.007813-17.328125-50.027344-16.28125-19.324219.972656-41.902344 7.613281-65.296875 19.199219-12.777344 6.285156-27.75 6.285156-40.527344 0-23.390625-11.589844-45.96875-18.226563-65.292969-19.199219-21.011718-1.050781-38.300781 4.574219-50.019531 16.285156-25.785156 25.800782-20.753906 77.15625 13.132813 134.019532.695312 1.171874 1.230468 2.433593 1.597656 3.746093zm350.503906-43.425781v47.179688c-.160156 45.042968-27.261719 85.621093-68.808594 103.023437l-10.261718 4.414063-8.769532-3.8125c-5.226562-2.285157-10.269531-4.964844-15.09375-8.007813-32.460937-20.40625-52.132812-56.085937-52.066406-94.429687v-48.417969l73.613281-40.328125h.011719l2.753906-1.410156zm-355.332031-84.441406c18.257812-18.246094 55.339843-16.167969 99.203125 5.5625 16.695312 8.210937 36.253906 8.210937 52.953125 0 43.855469-21.730469 80.941406-23.808594 99.191406-5.5625 7.929687 7.929687 12.046875 19.269531 12.28125 33.761718l-73.632813 40.339844c-2.25 1.222656-3.652343 3.578125-3.664062 6.136719v52.570313c-.082031 41.214843 20.128906 79.824218 54.046875 103.238281-6.878906 20.148437-18.917969 38.140625-34.917969 52.183593-6.519531-26.574218-16.226562-49.347656-28.34375-66.332031-14.898437-20.894531-32.691406-31.9375-51.445312-31.9375-18.757813 0-36.546875 11.042969-51.449219 31.9375-12.117187 16.984375-21.828125 39.757813-28.347656 66.332031-26.210938-23.027343-41.265625-56.207031-41.332031-91.101562-.050782-18.160156 4.023437-36.09375 11.914062-52.453125 1.914062-3.96875 2.910156-8.316406 2.917969-12.726563.003906-5.273437-1.414063-10.449218-4.109375-14.980468-29.988282-50.332032-35.980469-96.242188-15.265625-116.96875zm0 0"/><path d="m264.351562 155.824219c-2.621093-2.84375-7.050781-3.023438-9.894531-.402344-2.839843 2.621094-3.019531 7.050781-.398437 9.890625l30.898437 33.511719c2.613281 2.835937 7.03125 3.023437 9.875.417969l58.507813-53.601563c2.84375-2.613281 3.03125-7.035156.421875-9.878906-2.605469-2.847657-7.027344-3.046875-9.878907-.445313l-53.363281 48.886719zm0 0"/></g></svg>