<svg height="458pt" viewBox="-42 0 458 458.8846" width="458pt" xmlns="http://www.w3.org/2000/svg"><path d="m367.441406 104.378906v111.382813c-.089844 96.414062-57.203125 183.648437-145.539062 222.289062l-31.730469 13.828125-34.269531-14.808594c-89.957032-37.8125-148.464844-125.878906-148.460938-223.460937v-109.449219l182.332032-97.160156zm-27 111.382813v-95.390625l-150.847656-82.679688-155.152344 82.679688v93.238281c.011719 86.761719 52.0625 165.050781 132.0625 198.632813l23.617188 10.199218 20.941406-9.121094c78.535156-34.3125 129.316406-111.855468 129.378906-197.558593zm0 0" fill="#00efd1"/><path d="m340.441406 120.371094v95.390625c-.0625 85.703125-50.84375 163.246093-129.378906 197.558593l-20.941406 9.121094-23.617188-10.199218c-80-33.582032-132.050781-111.871094-132.0625-198.632813v-93.238281l155.152344-82.679688zm-72.699218 95.878906c21.378906-35.890625 26.449218-69.898438 9.789062-86.558594-14.699219-14.691406-42.890625-12.480468-73.96875 2.917969-10.160156 5.03125-22.082031 5.03125-32.238281 0-31.082031-15.398437-59.273438-17.609375-73.972657-2.917969-16.660156 16.660156-11.589843 50.667969 9.789063 86.558594 2.625 4.4375 2.863281 9.890625.632813 14.539062-18.449219 38.453126-6.820313 84.59375 27.648437 109.710938 8.589844-42.058594 28.640625-71.550781 52.019531-71.550781 23.382813 0 43.429688 29.492187 52.019532 71.550781 34.464843-25.121094 46.09375-71.253906 27.660156-109.710938-2.238282-4.644531-2.007813-10.101562.621094-14.539062zm0 0" fill="#00acea"/><path d="m277.53125 129.691406c16.660156 16.660156 11.589844 50.667969-9.789062 86.558594-2.628907 4.4375-2.859376 9.894531-.621094 14.539062 18.433594 38.457032 6.804687 84.589844-27.660156 109.710938-8.589844-42.058594-28.636719-71.550781-52.019532-71.550781-23.378906 0-43.429687 29.492187-52.019531 71.550781-34.46875-25.117188-46.097656-71.257812-27.648437-109.710938 2.230468-4.648437 1.992187-10.101562-.632813-14.539062-21.378906-35.890625-26.449219-69.898438-9.789063-86.558594 14.699219-14.691406 42.890626-12.480468 73.972657 2.917969 10.15625 5.03125 22.078125 5.03125 32.238281 0 31.078125-15.398437 59.269531-17.609375 73.96875-2.917969zm0 0" fill="#00efd1"/><g fill="#083863"><path d="m370.804688 98.242188-177.667969-97.378907c-2.070313-1.136719-4.574219-1.152343-6.65625-.039062l-182.332031 97.15625c-2.28125 1.21875-3.707032 3.59375-3.707032 6.179687v109.449219c-.007812 100.386719 60.175782 190.988281 152.710938 229.902344l34.242187 14.796875c1.78125.769531 3.796875.765625 5.574219-.007813l31.746094-13.835937c90.878906-39.757813 149.636718-129.507813 149.726562-228.703125v-111.382813c0-2.554687-1.394531-4.910156-3.636718-6.136718zm-10.363282 117.519531c-.089844 93.628906-55.554687 178.34375-141.335937 215.871093l-28.945313 12.617188-31.480468-13.609375-.050782-.019531c-87.359375-36.722656-144.183594-122.246094-144.1875-217.011719v-105.246094l175.285156-93.402343 170.714844 93.566406zm0 0"/><path d="m186.300781 31.511719-155.152343 82.679687c-2.28125 1.21875-3.707032 3.59375-3.707032 6.179688v93.238281c.011719 89.5625 53.734375 170.386719 136.308594 205.066406l23.601562 10.191407c1.777344.769531 3.792969.765624 5.570313-.007813l20.953125-9.128906c81.0625-35.453125 133.476562-115.496094 133.566406-203.96875v-95.390625c0-2.558594-1.394531-4.910156-3.636718-6.140625l-150.847657-82.679688c-2.070312-1.132812-4.574219-1.148437-6.65625-.039062zm147.140625 93v91.25c-.085937 82.910156-49.210937 157.917969-125.175781 191.140625l-18.15625 7.90625-20.832031-9-.050782-.019532c-77.40625-32.484374-127.773437-108.230468-127.785156-192.179687v-89.039063l148.101563-78.921874zm0 0"/><path d="m174.429688 126.339844c-35.53125-17.605469-65.425782-18.1875-82.027344-1.597656-18.523438 18.523437-15.179688 54.960937 8.71875 95.074218 1.429687 2.421875 1.558594 5.394532.347656 7.933594-6.226562 12.882812-9.441406 27.011719-9.402344 41.320312.054688 30.476563 14.621094 59.105469 39.230469 77.085938 1.921875 1.402344 4.429687 1.730469 6.652344.871094 2.21875-.863282 3.847656-2.792969 4.324219-5.128906 8.058593-39.445313 26.207031-65.949219 45.164062-65.949219s37.105469 26.5 45.160156 65.949219c.476563 2.335937 2.109375 4.265624 4.328125 5.128906 2.222657.859375 4.726563.53125 6.652344-.871094 24.609375-17.980469 39.179687-46.609375 39.234375-77.085938.039062-14.308593-3.171875-28.441406-9.386719-41.328124-.550781-1.132813-.835937-2.375-.832031-3.632813-.003906-1.503906.398438-2.980469 1.160156-4.277344 23.910156-40.128906 27.253906-76.566406 8.726563-95.09375-16.601563-16.589843-46.5-16.007812-82.027344 1.601563-8.203125 4.042968-17.820313 4.042968-26.023437 0zm32.242187 12.546875c29.367187-14.554688 54.007813-16.136719 65.910156-4.242188 13.5625 13.5625 9.300781 44.191407-10.863281 78.042969-3.820312 6.453125-4.160156 14.386719-.902344 21.140625 5.300782 10.992187 8.039063 23.042969 8 35.246094-.039062 22.191406-9.109375 43.414062-25.121094 58.78125-4.539062-17.089844-11.019531-31.789063-18.992187-42.964844-10.699219-15.007813-23.585937-22.9375-37.253906-22.9375s-26.554688 7.929687-37.257813 22.9375c-7.972656 11.175781-14.449218 25.875-18.988281 42.964844-16.015625-15.367188-25.089844-36.589844-25.128906-58.785157-.039063-12.207031 2.703125-24.265624 8.011719-35.257812 3.242187-6.761719 2.894531-14.695312-.929688-21.144531-20.15625-33.835938-24.417969-64.464844-10.855469-78.027344 11.898438-11.898437 36.542969-10.308594 65.910157 4.238281 12.125 5.976563 26.335937 5.976563 38.460937.003906zm0 0"/></g></svg>