<svg height="467pt" viewBox="0 -20 467.50006 467" width="467pt" xmlns="http://www.w3.org/2000/svg"><path d="m252.820312 388.121094c-3.59375-19.921875-6.023437-40.035156-7.269531-60.242188-.539062-8.507812-.820312-16.269531-.820312-22.597656 0-36.519531 9.269531-70.820312 24.667969-96.769531-17.9375-10.101563-28.898438-22.722657-28.898438-37.523438 0-21.828125 23.851562-40.777343 58.839844-50.277343 10.210937-2.738282 20.632812-4.601563 31.160156-5.570313 6.488281-.621094 13.179688-.941406 20-.941406s13.511719.320312 20 .941406c51.199219 4.847656 90 28.019531 90 55.847656 0 14.800781-10.960938 28.261719-28.898438 38.371094 15.398438 25.949219 24.667969 59.402344 24.667969 95.921875 0 25.277344-4.449219 73.367188-12.300781 101.277344-2.082031 7.285156-8.753906 12.296875-16.328125 12.261718h-154.28125c-7.574219.035157-14.246094-4.976562-16.328125-12.261718-1.542969-5.480469-2.953125-11.730469-4.210938-18.4375zm160-6.742188c5.230469-18.96875 8.199219-51.648437 8.199219-68.828125 0-56.089843-31.570312-101.550781-70.519531-101.550781s-70.519531 45.460938-70.519531 101.550781c0 17.179688 2.96875 49.859375 8.199219 68.828125 1.335937 4.917969 5.796874 8.328125 10.890624 8.332032h102.859376c5.09375-.003907 9.554687-3.414063 10.890624-8.332032zm0 0" fill="#00efd1"/><path d="m448.058594 65.359375c5.222656 7.855469 3.820312 18.363281-3.277344 24.578125-7.09375 6.214844-17.695312 6.214844-24.792969 0-7.097656-6.214844-8.5-16.722656-3.277343-24.578125l15.679687-23.589844zm0 0" fill="#00acea"/><path d="m421.019531 312.550781c0 17.179688-2.96875 49.859375-8.199219 68.828125-1.335937 4.917969-5.796874 8.328125-10.890624 8.332032h-102.859376c-5.09375-.003907-9.554687-3.414063-10.890624-8.332032-5.230469-18.96875-8.199219-51.648437-8.199219-68.828125 0-56.089843 31.570312-101.550781 70.519531-101.550781s70.519531 45.460938 70.519531 101.550781zm0 0" fill="#00acea"/><path d="m370.5 84.488281h-53.851562v-32.429687h67.703124v32.429687zm0 0" fill="#00acea"/><path d="m370.5 84.488281v30.652344c-6.488281-.621094-13.171875-.941406-20-.941406s-13.511719.320312-20 .941406v-30.652344zm0 0" fill="#00ceb4"/><path d="m330.5 84.488281v30.652344c-10.527344.96875-20.949219 2.832031-31.160156 5.570313v-.011719c-42.582032-39.527344-107.179688-43.402344-154.179688-9.246094s-63.261718 96.796875-38.8125 149.5c24.445313 52.707031 82.769532 80.746094 139.203125 66.925781 1.246094 20.207032 3.675781 40.320313 7.269531 60.242188-80.675781 16.414062-162.324218-23.371094-199.117187-97.023438-36.789063-73.652344-19.558594-162.828125 42.019531-217.472656s152.171875-61.152344 220.925782-15.863281v26.726562zm0 0" fill="#fedb41"/><path d="m299.339844 120.699219v.011719c-34.988282 9.5-58.839844 28.449218-58.839844 50.277343 0 14.800781 10.960938 27.421875 28.898438 37.523438-15.398438 25.949219-24.667969 60.25-24.667969 96.769531 0 6.328125.28125 14.089844.820312 22.597656-56.484375 13.898438-114.902343-14.132812-139.394531-66.890625-24.496094-52.757812-8.210938-115.476562 38.851562-149.65625 47.066407-34.175781 111.746094-30.25 154.332032 9.367188zm-95.339844 38.550781c-13.6875-4.570312-24.429688-15.3125-29-29-4.570312 13.6875-15.3125 24.429688-29 29 13.691406 4.5625 24.4375 15.308594 29 29 4.570312-13.6875 15.3125-24.429688 29-29zm0 0" fill="#00acea"/><path d="m186.078125 148.171875c5.03125 5.035156 11.167969 8.828125 17.921875 11.078125-13.6875 4.570312-24.429688 15.3125-29 29-4.5625-13.691406-15.308594-24.4375-29-29 13.6875-4.570312 24.429688-15.3125 29-29 2.25 6.753906 6.042969 12.890625 11.078125 17.921875zm0 0" fill="#fedb41"/><path d="m60.898438 354.851562c6.769531 6.769532 15.019531 11.871094 24.101562 14.898438-18.410156 6.144531-32.855469 20.589844-39 39-6.140625-18.410156-20.589844-32.859375-39-39 18.410156-6.144531 32.855469-20.589844 39-39 3.03125 9.082031 8.132812 17.332031 14.898438 24.101562zm0 0" fill="#fedb41"/><g fill="#083863"><path d="m206.210938 152.609375c-11.597657-3.875-20.699219-12.976563-24.570313-24.574219-.953125-2.859375-3.628906-4.785156-6.640625-4.785156s-5.6875 1.925781-6.640625 4.785156c-3.871094 11.597656-12.972656 20.699219-24.570313 24.574219-2.859374.949219-4.789062 3.625-4.789062 6.640625 0 3.011719 1.929688 5.6875 4.789062 6.640625 11.585938 3.890625 20.679688 12.984375 24.570313 24.570313.953125 2.859374 3.625 4.789062 6.640625 4.789062 3.011719 0 5.6875-1.925781 6.640625-4.785156 3.871094-11.597656 12.972656-20.699219 24.570313-24.574219 2.859374-.949219 4.789062-3.625 4.789062-6.640625s-1.929688-5.691406-4.789062-6.640625zm-25.074219 12.765625c-2.269531 2.265625-4.324219 4.734375-6.144531 7.378906-3.648438-5.277344-8.222657-9.851562-13.5-13.5 5.285156-3.640625 9.863281-8.214844 13.5-13.5 3.640624 5.28125 8.21875 9.855469 13.503906 13.496094-2.636719 1.816406-5.097656 3.863281-7.359375 6.125zm0 0"/><path d="m350.5 204c-21.199219 0-40.949219 11.628906-55.613281 32.75-14.125 20.339844-21.902344 47.257812-21.902344 75.800781 0 16.78125 2.9375 50.457031 8.449219 70.453125 2.214844 7.890625 9.441406 13.320313 17.636718 13.246094h102.859376c8.195312.078125 15.425781-5.351562 17.636718-13.238281 5.515625-20 8.453125-53.792969 8.453125-70.578125 0-28.539063-7.78125-55.398438-21.898437-75.742188-14.671875-21.117187-34.421875-32.691406-55.621094-32.691406zm55.570312 175.300781c-.519531 1.832031-2.238281 3.054688-4.140624 2.949219h-102.859376c-1.902343.105469-3.625-1.125-4.140624-2.960938-5.1875-18.808593-7.949219-50.863281-7.949219-66.855468 0-52.132813 28.5-94.492188 63.519531-94.492188s63.519531 42.328125 63.519531 94.464844c0 15.988281-2.761719 48.074219-7.949219 66.890625zm0 0"/><path d="m467.5 170.988281c0-15.882812-10.222656-30.980469-29.015625-42.507812-15.910156-9.761719-37.734375-16.628907-60.734375-19.597657v-17.632812h6.601562c3.863282 0 7.398438-2.894531 7.398438-6.761719v-32.429687c0-3.863282-3.535156-6.808594-7.398438-6.808594h-26.601562v-31h33.542969l26.542969 12.277344c.898437.449218 1.886718.699218 2.890624.738281 3.289063.027344 6.148438-2.253906 6.847657-5.46875.703125-3.214844-.945313-6.480469-3.945313-7.824219l-27.921875-12.894531c-.898437-.476563-1.886719-.757813-2.902343-.828125h-89.683594c-3.867188 0-7 3.132812-7 7s3.132812 7 7 7h40.628906v31h-27.101562c-1.636719-.035156-3.230469.515625-4.5 1.550781-28.984376-17.058593-62.015626-26.035156-95.648438-26.003906-104.214844 0-189 84.761719-189 188.976563 0 104.214843 84.785156 188.988281 189 188.988281 10.320312-.003907 20.625-.847657 30.808594-2.523438.949218 4.433594 1.945312 8.742188 2.984375 12.433594 2.929687 10.332031 12.324219 17.492187 23.066406 17.578125h154.28125c10.738281-.085938 20.136719-7.246094 23.066406-17.578125 8.199219-29.140625 12.5625-78.75 12.5625-103.285156 0-33.71875-7.867187-66.671875-22.25-93.519531 17.136719-11.316407 26.480469-25.679688 26.480469-40.878907zm-103.75-63.390625c-8.660156-.503906-17.339844-.503906-26 0v-16.347656h26zm14-30.347656h-54v-18h54zm-336.25 132.5c0-96.496094 78.554688-175 175.050781-175 32.976563-.03125 65.285157 9.269531 93.199219 26.828125v22.910156c-.011719 1.824219.714844 3.570313 2.015625 4.847657 1.300781 1.273437 3.0625 1.964843 4.882813 1.914062h7.101562v17.632812c-7.542969.898438-15.019531 2.269532-22.394531 4.105469-23.449219-20.582031-53.597657-31.910156-84.796875-31.867187-70.925782 0-128.664063 57.699218-128.664063 128.628906.023438 38.066406 16.894531 74.167969 46.082031 98.605469 29.1875 24.433593 67.695313 34.695312 105.171876 28.023437 1.253906 16.007813 3.203124 32.164063 5.558593 46.101563-9.324219 1.511719-18.753906 2.269531-28.199219 2.273437-96.5-.003906-175.007812-78.503906-175.007812-175.003906zm218.472656 1.234375c-14.378906 26.886719-22.242187 60.074219-22.242187 94.296875 0 4.941406.167969 10.746094.488281 17.03125-42.773438 8.246094-86.527344-8.464844-112.914062-43.128906-26.386719-34.664063-30.84375-81.289063-11.503907-120.324219 19.339844-39.035156 59.136719-63.730469 102.699219-63.738281 24.714844-.03125 48.773438 7.957031 68.558594 22.765625-32.113282 11.628906-51.558594 31.328125-51.558594 53.101562 0 10.644531 4.777344 25.863281 26.472656 39.996094zm168.191406-7.722656c-1.640624.925781-2.839843 2.472656-3.328124 4.292969-.484376 1.820312-.21875 3.757812.742187 5.378906 15.277344 25.742187 23.691406 58.535156 23.691406 92.347656 0 23.722656-4.183593 71.671875-12.039062 99.597656-1.21875 4.304688-5.117188 7.300782-9.589844 7.371094h-154.28125c-4.472656-.070312-8.371094-3.066406-9.589844-7.367188-1.28125-4.5625-2.507812-9.933593-3.652343-15.78125.09375-.714843.082031-1.4375-.03125-2.148437-.132813-.789063-.398438-1.550781-.785157-2.253906-3.316406-18.941407-5.578125-38.054688-6.765625-57.25-.527344-8.300781-.804687-15.96875-.804687-22.164063 0-34.355468 8.414062-67.457031 23.691406-93.199218.960937-1.621094 1.226563-3.558594.742187-5.378907-.488281-1.820312-1.6875-3.371093-3.328124-4.292969-11.558594-6.507812-25.335938-17.238281-25.335938-31.421874 0-17.585938 21.066406-34.671876 53.679688-43.523438 9.824218-2.636719 19.855468-4.425781 29.988281-5.359375 6.304687-.597656 12.8125-.835937 19.332031-.835937s13.027344-.019532 19.335938.980468c47.699218 4 83.660156 25.460938 83.660156 48.808594.003906 11.601562-8.992188 22.988281-25.332032 32.199219zm0 0"/><path d="m304.578125 347.25c0 3.867188 3.136719 7 7 7h77.84375c3.863281 0 7-3.132812 7-7s-3.136719-7-7-7h-77.84375c-3.863281 0-7 3.132812-7 7zm0 0"/><path d="m328.5 320.25h44c3.867188 0 7-3.132812 7-7s-3.132812-7-7-7h-44c-3.867188 0-7 3.132812-7 7s3.132812 7 7 7zm0 0"/><path d="m426.558594 37.894531-15.683594 23.601563c-6.753906 10.25-5.398438 23.832031 3.253906 32.542968 10.085938 10.085938 26.4375 10.085938 36.523438 0 8.652344-8.714843 10.003906-22.304687 3.238281-32.550781l-15.667969-23.589843c-1.296875-1.953126-3.488281-3.125-5.832031-3.125-2.34375-.003907-4.53125 1.171874-5.832031 3.121093zm15.667968 31.335938c3.101563 4.695312 2.484376 10.925781-1.484374 14.917969-4.617188 4.601562-12.089844 4.601562-16.707032 0-3.960937-3.992188-4.582031-10.214844-1.492187-14.910157l9.847656-14.816406zm0 0"/><path d="m39.359375 410.964844c.953125 2.855468 3.628906 4.785156 6.640625 4.785156s5.683594-1.925781 6.640625-4.785156c5.445313-16.320313 18.253906-29.125 34.574219-34.574219 2.855468-.953125 4.785156-3.628906 4.785156-6.640625s-1.929688-5.6875-4.785156-6.640625c-16.320313-5.449219-29.128906-18.253906-34.574219-34.574219-.953125-2.859375-3.628906-4.785156-6.640625-4.785156s-5.6875 1.925781-6.640625 4.785156c-2.695313 8.046875-7.214844 15.359375-13.210937 21.363282-6.003907 5.996093-13.316407 10.515624-21.363282 13.210937-2.855468.953125-4.785156 3.628906-4.785156 6.640625s1.929688 5.6875 4.785156 6.640625c16.300782 5.480469 29.09375 18.273437 34.574219 34.574219zm-3.308594-51.164063c3.796875-3.804687 7.136719-8.042969 9.949219-12.625 5.636719 9.199219 13.371094 16.9375 22.570312 22.574219-9.203124 5.640625-16.9375 13.378906-22.574218 22.582031-5.667969-9.179687-13.398438-16.910156-22.574219-22.574219 4.582031-2.816406 8.820313-6.15625 12.628906-9.957031zm0 0"/></g></svg>