<svg height="354pt" viewBox="-60 0 354 354" width="354pt" xmlns="http://www.w3.org/2000/svg"><path d="m223.550781 315 3.449219 32h-220l3.449219-32.058594.550781.058594zm0 0" fill="#00efd1"/><path d="m211.378906 202.039062 12.171875 112.960938h-212.550781l-.550781-.058594 12.171875-112.902344c2.5-20.015624 19.515625-35.039062 39.6875-35.039062h109.382812c20.171875 0 37.1875 15.023438 39.6875 35.039062zm0 0" fill="#00acea"/><path d="m97 140h30v27h-30zm0 0" fill="#fedb41"/><path d="m127 22v118h-30v-118c0-8.285156 6.714844-15 15-15s15 6.714844 15 15zm0 0" fill="#00efd1"/><g fill="#083863"><path d="m7 354h220c1.988281 0 3.878906-.84375 5.207031-2.324219 1.328125-1.476562 1.964844-3.449219 1.753907-5.425781l-3.449219-32-12.171875-112.960938c0-.039062-.007813-.078124-.011719-.117187-2.96875-23.503906-22.945313-41.140625-46.636719-41.171875h-37.691406v-138c-.011719-12.144531-9.855469-21.9882812-22-22-12.144531.015625-21.984375 9.855469-22 22v138h-27.691406c-23.691406.03125-43.667969 17.667969-46.632813 41.171875 0 .039063-.011719.078125-.015625.117187l-15.6210935 144.960938c-.2109375 1.976562.4257815 3.949219 1.7539065 5.425781 1.328125 1.480469 3.21875 2.324219 5.207031 2.324219zm7.792969-14 1.941406-18h200.53125l1.941406 18zm97.207031-326c4.414062.011719 7.988281 3.585938 8 8v111h-16v-111c.003906-4.417969 3.582031-7.996094 8-8zm-8 133h16v13h-16zm-41.691406 27h109.382812c16.613282.023438 30.628906 12.375 32.734375 28.855469l11.328125 105.144531h-197.511718l11.332031-105.148438c2.109375-16.476562 16.125-28.828124 32.734375-28.851562zm0 0"/><path d="m97 295c3.867188 0 7-3.132812 7-7v-54c0-3.867188-3.132812-7-7-7s-7 3.132812-7 7v54c0 3.867188 3.132812 7 7 7zm0 0"/><path d="m137 295c3.867188 0 7-3.132812 7-7v-54c0-3.867188-3.132812-7-7-7s-7 3.132812-7 7v54c0 3.867188 3.132812 7 7 7zm0 0"/><path d="m57 295c3.867188 0 7-3.132812 7-7v-54c0-3.867188-3.132812-7-7-7s-7 3.132812-7 7v54c0 3.867188 3.132812 7 7 7zm0 0"/><path d="m177 295c3.867188 0 7-3.132812 7-7v-54c0-3.867188-3.132812-7-7-7s-7 3.132812-7 7v54c0 3.867188 3.132812 7 7 7zm0 0"/></g></svg>