<svg height="458pt" viewBox="0 -78 458.62 458" width="458pt" xmlns="http://www.w3.org/2000/svg"><path d="m451.621094 211.828125c0 8.285156-6.71875 15-15 15-8.285156 0-15-6.714844-15-15 0-8.28125 6.714844-15 15-15 8.28125 0 15 6.71875 15 15zm0 0" fill="#00acea"/><path d="m446.621094 270.019531c0 13.808594-11.195313 25-25 25-13.808594 0-25-11.191406-25-25 0-13.808593 11.191406-25 25-25 13.804687 0 25 11.191407 25 25zm0 0" fill="#00acea"/><path d="m233.980469 219.460938h-54.199219v-44.132813l-50.191406 44.132813h-65.609375l21.03125-88.269532h297.9375l21.03125 88.269532zm0 0" fill="#00acea"/><path d="m382.949219 21.390625v.007813c-.003907 7.617187-6.175781 13.785156-13.789063 13.792968h-185.308594c-15.238281 0-27.585937 12.355469-27.582031 27.589844v24.269531h182.539063c24.378906 0 44.140625 19.761719 44.140625 44.140625h-297.9375v-.472656c-.003907-24.117188 19.550781-43.667969 43.667969-43.667969v-25.378906c.003906-29.863281 24.207031-54.070313 54.070312-54.070313h186.410156c7.613282.003907 13.785156 6.175782 13.789063 13.789063zm0 0" fill="#00efd1"/><path d="m53.980469 160.328125c0 8.285156-6.714844 15-15 15-8.285157 0-15-6.714844-15-15 0-8.28125 6.714843-15 15-15 8.285156 0 15 6.71875 15 15zm0 0" fill="#00acea"/><path d="m47 231.828125c0 11.046875-8.953125 20-20 20s-20-8.953125-20-20c0-11.042969 8.953125-20 20-20s20 8.957031 20 20zm0 0" fill="#00acea"/><g fill="#083863"><path d="m133.976562 224.640625 38.332032-33.832031v28.652344c0 3.867187 3.601562 6.847656 7.472656 6.847656h224.199219c2.132812.035156 4.160156-.917969 5.492187-2.582032 1.332032-1.664062 1.816406-3.851562 1.316406-5.925781l-20.863281-87.417969c-.539062-27.835937-23.277343-50.109374-51.117187-50.074218h-175.5v-17.527344c0-5.441406 2.167968-10.660156 6.023437-14.5 3.851563-3.839844 9.078125-5.988281 14.519531-5.972656h185.308594c11.597656 0 21-9.402344 21-21s-9.402344-21-21-21h-186.410156c-33.675781 0-61.441406 27.6875-61.441406 61.363281v18.859375c-24.734375 3.703125-43.144532 24.789062-43.472656 49.800781l-20.757813 87.507813c-.480469 2.066406.023437 4.238281 1.363281 5.882812 1.351563 1.664063 3.394532 2.617188 5.539063 2.585938h65.609375c1.621094.027344 3.191406-.570313 4.386718-1.667969zm-5.480468-130.53125c1.84375-.023437 3.601562-.78125 4.878906-2.105469 1.28125-1.328125 1.976562-3.109375 1.933594-4.953125v-25.378906c.183594-26.113281 21.328125-47.226563 47.441406-47.363281h186.410156c3.867188 0 7 3.136718 7 7 0 3.867187-3.132812 7-7 7h-185.308594c-9.15625-.011719-17.9375 3.613281-24.414062 10.078125-6.480469 6.464843-10.121094 15.242187-10.128906 24.394531v24.269531c-.035156 3.910157 3.054687 7.132813 6.960937 7.257813h182.539063c17.761718.019531 33.035156 12.578125 36.480468 30h-282.699218c3.128906-17.402344 18.222656-30.097656 35.90625-30.199219zm-55.652344 118.199219 17.695312-74h286.882813l17.695313 74h-46.808594v-27.417969c0-3.867187-3.132813-7-7-7-3.863282 0-7 3.132813-7 7v27.417969h-40v-27.417969c0-3.867187-3.132813-7-7-7-3.863282 0-7 3.132813-7 7v27.417969h-39v-17.117188c0-3.867187-3.132813-7-7-7-3.863282 0-7 3.132813-7 7v17.117188h-41v-36.980469c.097656-2.707031-1.425782-5.214844-3.878906-6.375-2.449219-1.160156-5.355469-.75-7.390626 1.042969l-48.089843 42.3125zm0 0"/><path d="m27 204.828125c-14.910156 0-27 12.089844-27 27 0 14.914063 12.089844 27 27 27s27-12.085937 27-27c-.015625-14.902344-12.09375-26.980469-27-27zm0 40c-7.179688 0-13-5.820313-13-13s5.820312-13 13-13 13 5.820313 13 13c-.007812 7.179687-5.824219 12.992187-13 13zm0 0"/><path d="m421.621094 238.019531c-17.675782 0-32 14.328125-32 32s14.324218 32 32 32c17.671875 0 32-14.328125 32-32-.019532-17.664062-14.335938-31.980469-32-32zm0 50c-9.941406 0-18-8.058593-18-18 0-9.941406 8.058594-18 18-18s18 8.058594 18 18c-.011719 9.9375-8.066406 17.988281-18 18zm0 0"/><path d="m38.980469 138.328125c-12.152344 0-22 9.851563-22 22 0 12.152344 9.847656 22 22 22 12.148437 0 22-9.847656 22-22-.015625-12.144531-9.855469-21.984375-22-22zm0 30c-4.417969 0-8-3.578125-8-8 0-4.417969 3.582031-8 8-8s8 3.582031 8 8c-.003907 4.417969-3.585938 7.996094-8 8zm0 0"/><path d="m436.621094 189.828125c-12.152344 0-22 9.851563-22 22 0 12.152344 9.847656 22 22 22 12.148437 0 22-9.847656 22-22-.015625-12.144531-9.855469-21.984375-22-22zm0 30c-4.417969 0-8-3.578125-8-8 0-4.417969 3.582031-8 8-8 4.417968 0 8 3.582031 8 8-.007813 4.417969-3.585938 7.996094-8 8zm0 0"/><path d="m184.039062 276.308594h-102.71875c-3.867187 0-7 3.136718-7 7 0 3.867187 3.132813 7 7 7h102.71875c3.867188 0 7-3.132813 7-7 0-3.863282-3.132812-7-7-7zm0 0"/><path d="m340.839844 263.308594h-100.230469c-3.867187 0-7 3.136718-7 7 0 3.867187 3.132813 7 7 7h100.230469c3.867187 0 7-3.132813 7-7 0-3.863282-3.132813-7-7-7zm0 0"/></g></svg>