<svg height="386pt" viewBox="-12 0 386 386.18253" width="386pt" xmlns="http://www.w3.org/2000/svg"><path d="m280.742188 80.640625-7.082032-7.066406 63.640625-63.640625c3.90625-3.910156 10.238281-3.910156 14.144531-.007813 3.910157 3.90625 3.910157 10.238281.007813 14.148438l-63.640625 63.636719zm0 0" fill="#00efd1"/><path d="m106.792969 254.59375 35.347656 35.347656c7.8125 7.8125 7.8125 20.476563 0 28.292969l-2.117187 2.117187-98.992188-99 2.121094-2.117187c7.808594-7.808594 20.46875-7.808594 28.28125 0zm0 0" fill="#00acea"/><path d="m41.03125 221.351562 98.992188 99-12.023438 12.019532-42.429688-42.429688-14.136718-14.140625-14.140625-14.136719-14.140625-14.140624-14.140625-14.152344zm0 0" fill="#fedb41"/><g fill="#083863"><path d="m7.089844 262.292969c1.859375 0 3.640625-.734375 4.953125-2.050781l16.96875-16.96875 4.246093 4.246093-16.976562 16.972657c-2.734375 2.734374-2.734375 7.167968 0 9.898437 2.734375 2.734375 7.167969 2.734375 9.902344 0l16.972656-16.972656 4.238281 4.242187-16.972656 16.972656c-2.734375 2.734376-2.734375 7.164063 0 9.898438s7.167969 2.734375 9.898437 0l16.972657-16.972656 4.242187 4.242187-16.972656 16.972657c-2.734375 2.734374-2.734375 7.164062 0 9.898437s7.164062 2.734375 9.898438 0l16.972656-16.972656 4.238281 4.242187-16.96875 16.972656c-2.734375 2.730469-2.734375 7.164063 0 9.898438s7.164063 2.734375 9.898437 0l16.972657-16.972656 4.25 4.25-16.972657 16.972656c-2.734374 2.734375-2.734374 7.167969 0 9.898438 2.734376 2.734374 7.167969 2.734374 9.898438 0l16.972656-16.96875 4.238282 4.238281-16.96875 16.972656c-2.734376 2.734375-2.734376 7.167969 0 9.902344 2.734374 2.730469 7.164062 2.730469 9.898437 0l16.972656-16.972657 4.238281 4.242188-16.96875 16.96875c-2.734374 2.734375-2.734374 7.164062 0 9.898438 2.734376 2.734374 7.164063 2.734374 9.898438 0l21.921875-21.917969 14.136719-14.140625c10.546875-10.546875 10.546875-27.644532 0-38.191406l-30.398438-30.40625 164.050782-164.042969 2.121093 2.117187c2.730469 2.734375 7.164063 2.734375 9.898438 0l63.640625-63.636718c6.636718-6.644532 6.636718-17.410157-.007813-24.046876-6.640625-6.636718-17.40625-6.636718-24.042969.007813l-63.640624 63.636719c-2.734376 2.734375-2.734376 7.167968 0 9.902344l2.121093 2.121093-164.039062 164.046875-30.410157-30.410156c-10.550781-10.523438-27.628906-10.523438-38.179687 0l-36.0625 36.0625c-2 2-2.601563 5.011719-1.515625 7.628906 1.082031 2.613282 3.636719 4.320313 6.464844 4.320313zm335.160156-247.410157c1.171875-1.175781 3.074219-1.175781 4.246094-.003906 1.175781 1.167969 1.175781 3.070313.007812 4.242188l-58.691406 58.691406-4.246094-4.246094zm-212.128906 305.46875-2.121094 2.121094-89.089844-89.097656 2.121094-2.125zm-63.640625-96.167968 35.359375 35.359375 35.351562 35.347656c3.988282 3.988281 4.949219 10.09375 2.382813 15.113281l-88.191407-88.199218c5.015626-2.558594 11.109376-1.597657 15.097657 2.378906zm0 0"/><path d="m141.011719 374.183594c0 3.863281 3.132812 7 7 7h87c3.867187 0 7-3.136719 7-7 0-3.867188-3.132813-7-7-7h-87c-3.867188 0-7 3.132812-7 7zm0 0"/><path d="m85.011719 372.183594c-3.867188 0-7 3.132812-7 7 0 3.863281 3.132812 7 7 7h27c3.867187 0 7-3.136719 7-7 0-3.867188-3.132813-7-7-7zm0 0"/><path d="m271.011719 331.183594h-42c-3.867188 0-7 3.132812-7 7 0 3.863281 3.132812 7 7 7h42c14.910156 0 27-12.089844 27-27 0-14.914063-12.089844-27-27-27h-13c-9.402344.054687-16.996094 7.6875-17 17.089844.003906 4.5 1.800781 8.8125 4.988281 11.984374 3.191406 3.171876 7.511719 4.945313 12.011719 4.925782h4c3.867187 0 7-3.136719 7-7 0-3.867188-3.132813-7-7-7h-4c-.78125.023437-1.542969-.261719-2.121094-.792969-.5625-.578125-.878906-1.355469-.878906-2.164063 0-1.664062 1.335937-3.019531 3-3.042968h13c3.460937.023437 6.769531 1.425781 9.191406 3.898437 2.445313 2.414063 3.816406 5.710938 3.808594 9.144531-.011719 7.167969-5.832031 12.96875-13 12.957032zm0 0"/><path d="m199.011719 345.183594c3.867187 0 7-3.136719 7-7 0-3.867188-3.132813-7-7-7h-18c-3.867188 0-7 3.132812-7 7 0 3.863281 3.132812 7 7 7zm0 0"/></g></svg>