<svg height="354pt" viewBox="0 -3 354 354" width="354pt" xmlns="http://www.w3.org/2000/svg"><path d="m288.289062 197.851562c-.507812.039063-1.027343.058594-1.550781.058594h-43.167969c-.261718 0-.519531 0-.78125-.019531-11.960937-.417969-21.441406-10.242187-21.4375-22.210937v-143.101563c0-12.269531 9.945313-22.21875 22.21875-22.21875h43.167969c12.273438 0 22.21875 9.949219 22.222657 22.21875v143.101563c.003906 11.671874-9.027344 21.359374-20.671876 22.171874zm0 0" fill="#00efd1"/><path d="m288.289062 233.75v84.179688c0 12.566406-10.183593 22.75-22.75 22.75-12.5625 0-22.75-10.183594-22.75-22.75v-84.179688zm0 0" fill="#00acea"/><path d="m288.289062 197.851562v35.898438h-45.5v-35.859375c.261719.019531.519532.019531.78125.019531h43.167969c.523438 0 1.042969-.019531 1.550781-.058594zm0 0" fill="#f4b844"/><path d="m135.769531 7.320312c7.816407 0 14.152344 6.335938 14.152344 14.148438 0 7.816406-6.335937 14.152344-14.152344 14.152344h-85.789062c-8.011719.191406-14.464844 6.628906-14.679688 14.640625v10.519531h100.46875c7.816407 0 14.15625 6.335938 14.15625 14.152344 0 7.820312-6.339843 14.15625-14.15625 14.15625h-100.46875v21.230468h100.46875c7.816407 0 14.152344 6.335938 14.152344 14.148438 0 7.816406-6.335937 14.152344-14.152344 14.152344h-100.46875v21.230468h100.46875c7.816407 0 14.152344 6.332032 14.152344 14.148438s-6.335937 14.148438-14.152344 14.148438h-100.46875v21.230468h100.46875c7.816407 0 14.152344 6.335938 14.152344 14.152344 0 7.8125-6.335937 14.148438-14.152344 14.148438h-100.46875v21.230468h100.46875c7.816407 0 14.15625 6.335938 14.15625 14.15625 0 7.816406-6.339843 14.152344-14.15625 14.152344h-100.46875v10.851562c0 7.800782 6.871094 14.308594 14.679688 14.308594h85.789062c7.816407 0 14.152344 6.335938 14.152344 14.152344 0 7.8125-6.335937 14.148438-14.152344 14.148438h-85.789062c-23.429688 0-42.980469-19.191407-42.980469-42.609376v-247.808593c0-23.421875 19.550781-42.941407 42.980469-42.941407zm0 0" fill="#00acea"/><g fill="#083863"><path d="m347 43c3.867188 0 7-3.132812 7-7s-3.132812-7-7-7h-31.328125c-1.988281-15-14.203125-26-28.933594-26h-43.167969c-14.730468 0-26.941406 11-28.929687 26h-34.320313c-3.867187 0-7 3.132812-7 7s3.132813 7 7 7h33.679688v8h-33.679688c-3.867187 0-7 3.132812-7 7s3.132813 7 7 7h33.679688v9h-33.679688c-3.867187 0-7 3.132812-7 7s3.132813 7 7 7h33.679688v9h-33.679688c-3.867187 0-7 3.132812-7 7s3.132813 7 7 7h33.679688v9h-33.679688c-3.867187 0-7 3.132812-7 7s3.132813 7 7 7h33.679688v9h-33.679688c-3.867187 0-7 3.132812-7 7s3.132813 7 7 7h33.679688v9h-33.679688c-3.867187 0-7 3.132812-7 7s3.132813 7 7 7h34.394532c1.644531 11.515625 10.03125 20.917969 21.285156 23.859375v114.070313c-.058594 7.882812 3.042969 15.464843 8.609375 21.046874 5.496094 5.582032 13.007813 8.71875 20.839844 8.699219 7.863281-.015625 15.402343-3.160156 20.945312-8.742187 5.542969-5.582032 8.640625-13.136719 8.605469-21.003906v-114.308594c10.835938-3.257813 18.839844-12.441406 20.585938-23.621094h31.414062c3.867188 0 7-3.132812 7-7s-3.132812-7-7-7h-31v-9h31c3.867188 0 7-3.132812 7-7s-3.132812-7-7-7h-31v-9h31c3.867188 0 7-3.132812 7-7s-3.132812-7-7-7h-31v-9h31c3.867188 0 7-3.132812 7-7s-3.132812-7-7-7h-31v-9h31c3.867188 0 7-3.132812 7-7s-3.132812-7-7-7h-31v-9h31c3.867188 0 7-3.132812 7-7s-3.132812-7-7-7h-31v-8zm-66 162v22h-31v-22zm-15.601562 128.679688c-4.121094.007812-8.074219-1.652344-10.957032-4.605469-2.914062-2.96875-4.515625-6.984375-4.441406-11.144531v-76.929688h31v76.929688c.027344 4.160156-1.601562 8.160156-4.527344 11.113281-2.929687 2.957031-6.914062 4.625-11.074218 4.636719zm36.601562-158c-.03125 7.265624-5.171875 13.503906-12.300781 14.921874-.460938-.078124-.929688-.109374-1.398438-.09375-.863281 0-1.699219.5-2.460937.5h-40.601563c-.765625 0-1.589843-.5-2.453125-.5-.640625-.007812-1.28125.058594-1.90625.199219-7.386718-1.191406-12.832031-7.542969-12.878906-15.027343v-143.101563c.144531-8.539063 7.03125-15.425781 15.570312-15.578125h43.167969c8.480469.175781 15.261719 7.097656 15.261719 15.578125zm0 0"/><path d="m251.441406 97h-9.632812c-3.863282 0-7 3.132812-7 7s3.136718 7 7 7h9.632812c3.863282 0 7-3.132812 7-7s-3.136718-7-7-7zm0 0"/><path d="m251.441406 74h-9.632812c-3.863282 0-7 3.132812-7 7s3.136718 7 7 7h9.632812c3.863282 0 7-3.132812 7-7s-3.136718-7-7-7zm0 0"/><path d="m251.441406 51h-9.632812c-3.863282 0-7 3.132812-7 7s3.136718 7 7 7h9.632812c3.863282 0 7-3.132812 7-7s-3.136718-7-7-7zm0 0"/><path d="m251.441406 166h-9.632812c-3.863282 0-7 3.132812-7 7s3.136718 7 7 7h9.632812c3.863282 0 7-3.132812 7-7s-3.136718-7-7-7zm0 0"/><path d="m251.441406 143h-9.632812c-3.863282 0-7 3.132812-7 7s3.136718 7 7 7h9.632812c3.863282 0 7-3.132812 7-7s-3.136718-7-7-7zm0 0"/><path d="m251.441406 120h-9.632812c-3.863282 0-7 3.132812-7 7s3.136718 7 7 7h9.632812c3.863282 0 7-3.132812 7-7s-3.136718-7-7-7zm0 0"/><path d="m251.441406 29h-9.632812c-3.863282 0-7 3.132812-7 7s3.136718 7 7 7h9.632812c3.863282 0 7-3.132812 7-7s-3.136718-7-7-7zm0 0"/><path d="m284.03125 97h-10.371094c-3.867187 0-7 3.132812-7 7s3.132813 7 7 7h10.371094c3.863281 0 7-3.132812 7-7s-3.136719-7-7-7zm0 0"/><path d="m284.03125 74h-10.371094c-3.867187 0-7 3.132812-7 7s3.132813 7 7 7h10.371094c3.863281 0 7-3.132812 7-7s-3.136719-7-7-7zm0 0"/><path d="m284.03125 51h-10.371094c-3.867187 0-7 3.132812-7 7s3.132813 7 7 7h10.371094c3.863281 0 7-3.132812 7-7s-3.136719-7-7-7zm0 0"/><path d="m284.03125 166h-10.371094c-3.867187 0-7 3.132812-7 7s3.132813 7 7 7h10.371094c3.863281 0 7-3.132812 7-7s-3.136719-7-7-7zm0 0"/><path d="m284.03125 143h-10.371094c-3.867187 0-7 3.132812-7 7s3.132813 7 7 7h10.371094c3.863281 0 7-3.132812 7-7s-3.136719-7-7-7zm0 0"/><path d="m284.03125 120h-10.371094c-3.867187 0-7 3.132812-7 7s3.132813 7 7 7h10.371094c3.863281 0 7-3.132812 7-7s-3.136719-7-7-7zm0 0"/><path d="m284.03125 29h-10.371094c-3.867187 0-7 3.132812-7 7s3.132813 7 7 7h10.371094c3.863281 0 7-3.132812 7-7s-3.136719-7-7-7zm0 0"/><path d="m49.980469 43h85.789062c11.664063 0 21.152344-9.839844 21.152344-21.5s-9.488281-21.5-21.152344-21.5h-85.789062c-27.566407.351562-49.78125 22.695312-49.980469 50.261719v247.808593c.105469 27.550782 22.429688 49.851563 49.980469 49.929688h85.789062c11.664063 0 21.152344-9.835938 21.152344-21.5s-9.488281-21.5-21.152344-21.5h-85.789062c-4.019531 0-7.980469-3.101562-7.980469-6.929688v-4.070312h93.769531c11.597657 0 21-9.402344 21-21s-9.402343-21-21-21h-93.769531v-7h93.769531c11.664063 0 21.152344-9.835938 21.152344-21.5s-9.488281-21.5-21.152344-21.5h-93.769531v-7h93.769531c11.597657 0 21-9.402344 21-21s-9.402343-21-21-21h-93.769531v-7h93.769531c11.664063 0 21.152344-9.839844 21.152344-21.5s-9.488281-21.5-21.152344-21.5h-93.769531v-7h93.769531c11.597657 0 21-9.402344 21-21s-9.402343-21-21-21h-93.769531v-3.738281c0-3.929688 4.03125-7.261719 7.980469-7.261719zm-14.679688 25h100.46875c3.867188 0 7 3.132812 7 7s-3.132812 7-7 7h-100.46875c-3.945312.019531-7.167969 3.148438-7.300781 7.089844v21.230468c0 3.867188 3.433594 6.679688 7.300781 6.679688h100.46875c4 .195312 7.140625 3.496094 7.140625 7.5s-3.140625 7.304688-7.140625 7.5h-100.46875c-3.867187 0-7.300781 2.753906-7.300781 6.621094v21.230468c.128906 3.949219 3.34375 7.101563 7.300781 7.148438h100.46875c3.867188 0 7 3.132812 7 7s-3.132812 7-7 7h-100.46875c-3.957031.046875-7.171875 3.199219-7.300781 7.148438v21.230468c0 3.867188 3.433594 6.621094 7.300781 6.621094h100.46875c4 .195312 7.140625 3.496094 7.140625 7.5s-3.140625 7.304688-7.140625 7.5h-100.46875c-3.867187 0-7.300781 2.8125-7.300781 6.679688v21.230468c.132812 3.941406 3.355469 7.070313 7.300781 7.089844h100.46875c3.867188 0 7 3.132812 7 7s-3.132812 7-7 7h-100.46875c-3.96875.078125-7.179687 3.253906-7.300781 7.21875v10.851562c0 11.550782 10.230469 20.929688 21.980469 20.929688h85.789062c4 .195312 7.140625 3.496094 7.140625 7.5s-3.140625 7.304688-7.140625 7.5h-85.789062c-19.503907 0-35.980469-16.628906-35.980469-35.929688v-247.808593c0-19.484375 16.476562-36.261719 35.980469-36.261719h85.789062c4 .195312 7.140625 3.496094 7.140625 7.5s-3.140625 7.304688-7.140625 7.5h-85.789062c-11.75 0-21.980469 9.53125-21.980469 21.261719v10.519531c.121094 3.964844 3.332031 7.140625 7.300781 7.21875zm0 0"/></g></svg>