<svg height="426pt" viewBox="-43 0 426 426" width="426pt" xmlns="http://www.w3.org/2000/svg"><path d="m327.222656 109.921875c11.105469 18.960937 6.941406 43.167969-9.863281 57.328125-16.808594 14.164062-41.371094 14.164062-58.175781 0-16.804688-14.160156-20.96875-38.367188-9.863282-57.328125l38.949219-66.492187zm0 0" fill="#00efd1"/><path d="m176.589844 148.871094h10c22.09375 0 40 17.90625 40 40v190c0 22.089844-17.90625 40-40 40h-140c-22.089844 0-40-17.910156-40-40v-190c0-22.09375 17.910156-40 40-40zm0 0" fill="#00acea"/><path d="m176.589844 109.871094v39h-26.667969v-59h6.667969c11.046875-.003906 20.003906 8.953125 20 20zm0 0" fill="#fedb41"/><path d="m151.589844 44.871094v15h-70v-15c0-19.332032 15.671875-35 35-35 19.332031 0 35 15.667968 35 35zm0 0" fill="#fedb41"/><path d="m149.921875 90v58.871094h-33.5v-59h33.5zm0 0" fill="#f4b844"/><path d="m141.589844 59.871094v30h-50v-30zm0 0" fill="#00acea"/><path d="m116.421875 90v58.871094h-33.5v-59h33.5zm0 0" fill="#fedb41"/><path d="m82.921875 90v58.871094h-26.332031v-39c0-11.046875 8.957031-20 20-20h6.332031zm0 0" fill="#f4b844"/><g fill="#083863"><path d="m46.589844 426h140c25.917968 0 47.410156-21.214844 47.410156-47.128906v-190c0-25.917969-21.492188-46.871094-47.410156-46.871094h-2.589844v-32.128906c0-14.890625-12.519531-26.871094-27.410156-26.871094h-7.589844v-16h2.589844c3.972656-.03125 7.230468-3.160156 7.410156-7.128906v-9.121094c0-.710938.148438-1.46875.136719-2.257812-.191407-8.726563 3.101562-17.171876 9.152343-23.46875 6.050782-6.292969 14.359376-9.917969 23.085938-10.074219l89.976562-.820313c3.871094-.0625 6.972657-3.234375 6.949219-7.109375-.027343-3.871093-3.164062-7.003906-7.039062-7.019531h-.0625l-90.050781.886719c-12.476563.1875-24.355469 5.351562-33 14.347656-2.203126 2.28125-4.175782 4.777344-5.878907 7.453125-1.703125-2.726562-3.710937-5.253906-5.980469-7.53125-7.78125-7.886719-18.40625-12.316406-29.488281-12.289062-11.113281.019531-21.765625 4.457031-29.605469 12.335937-7.84375 7.878906-12.226562 18.550781-12.195312 29.667969v15c0 3.863281 2.726562 7.128906 6.589844 7.128906h3.410156v16h-8.410156c-7.101563-.003906-13.910156 2.832031-18.90625 7.882812-4.996094 5.046876-7.761719 11.886719-7.683594 18.988282v32.128906h-3.410156c-12.402344 0-24.296875 4.949219-33.042969 13.746094-8.742187 8.796875-13.6210938 20.71875-13.546875 33.125v190c0 25.914062 20.675781 47.128906 46.589844 47.128906zm123.410156-316.128906v32.128906h-13v-45.113281c7.105469.160156 12.832031 5.878906 13 12.984375zm-80-12.871094h19v45h-19zm33 0h20v45h-20zm-34-52.128906c0-15.464844 12.535156-28 28-28s28 12.535156 28 28v8.128906h-56zm10 22.128906h36v16h-36zm-35 42.871094c-.195312-6.871094 5.136719-12.632813 12-12.972656v45.101562h-12zm156 269.128906c0 18.226562-14.773438 33-33 33h-140c-18.222656 0-33-14.773438-33-33v-190c0-18.226562 14.777344-33 33-33h140c18.226562 0 33 14.773438 33 33zm0 0"/><path d="m65.589844 246h102c3.867187 0 7-3.132812 7-7s-3.132813-7-7-7h-102c-3.863282 0-7 3.132812-7 7s3.136718 7 7 7zm0 0"/><path d="m65.589844 291h85c3.867187 0 7-3.132812 7-7s-3.132813-7-7-7h-85c-3.863282 0-7 3.132812-7 7s3.136718 7 7 7zm0 0"/><path d="m65.589844 335h47c3.867187 0 7-3.132812 7-7s-3.132813-7-7-7h-47c-3.863282 0-7 3.132812-7 7s3.136718 7 7 7zm0 0"/><path d="m282.230469 39.890625-38.949219 66.492187c-12.828125 21.902344-8.019531 49.863282 11.390625 66.222657 19.414063 16.355469 47.785156 16.355469 67.195313 0 19.414062-16.359375 24.222656-44.320313 11.394531-66.222657l-38.949219-66.492187c-1.257812-2.144531-3.554688-3.460937-6.042969-3.460937-2.484375 0-4.78125 1.316406-6.039062 3.460937zm38.949219 73.566406c9.386718 16.023438 5.867187 36.476563-8.332032 48.441407-14.199218 11.964843-34.953125 11.964843-49.152344 0-14.199218-11.964844-17.71875-32.417969-8.335937-48.441407l32.910156-56.179687zm0 0"/><path d="m270.269531 128h10.730469v11.101562c0 3.863282 3.136719 7 7 7 3.867188 0 7-3.136718 7-7v-11.101562h11.269531c3.867188 0 7-3.132812 7-7s-3.132812-7-7-7h-11.269531v-10.898438c0-3.867187-3.132812-7-7-7-3.863281 0-7 3.132813-7 7v10.898438h-10.730469c-3.863281 0-7 3.132812-7 7s3.136719 7 7 7zm0 0"/></g></svg>