<svg height="470pt" viewBox="-41 0 470 470.21962" width="470pt" xmlns="http://www.w3.org/2000/svg"><path d="m236.433594 197.859375.5-.121094v-29.707031c0-9.378906 7.601562-16.980469 16.980468-16.980469 9.375 0 16.976563 7.601563 16.976563 16.980469v-16.980469c0-9.375 7.601563-16.976562 16.976563-16.976562s16.976562 7.601562 16.976562 16.976562v25.46875c0-9.378906 7.601562-16.980469 16.980469-16.980469 9.375 0 16.976562 7.601563 16.976562 16.980469v77.671875c0-19.460937 15.773438-35.234375 35.230469-35.230468 1.914062-.003907 3.75.753906 5.101562 2.109374 1.351563 1.351563 2.113282 3.1875 2.109376 5.097657v120.121093c.003906 19.917969-11.601563 38.011719-29.710938 46.308594v36.882813c0 18.75-15.195312 33.953125-33.949219 33.960937h-61.121093c-18.753907-.003906-33.957032-15.207031-33.957032-33.960937v-46.609375c-12.425781-10.917969-19.539062-26.664063-19.523437-43.203125v-137.6875c.007812-8.570313 6.398437-15.796875 14.90625-16.84375 8.507812-1.046875 16.460937 4.410156 18.546875 12.722656zm0 0" fill="#00efd1"/><path d="m294.472656 83.800781c4.121094 8.496094 1.8125 18.714844-5.566406 24.609375-7.375 5.894532-17.851562 5.894532-25.230469 0-7.375-5.894531-9.6875-16.113281-5.5625-24.609375l18.179688-28.820312zm0 0" fill="#00acea"/><path d="m225.882812 69.738281c8.976563 18.5 3.945313 40.75-12.117187 53.585938-16.0625 12.835937-38.875 12.835937-54.9375 0-16.0625-12.835938-21.09375-35.085938-12.117187-53.585938l39.582031-62.738281zm0 0" fill="#00acea"/><path d="m36.691406 392.597656c-18.105468-8.296875-29.714844-26.390625-29.710937-46.308594v-120.121093c0-1.910157.757812-3.746094 2.109375-5.097657 1.355468-1.355468 3.191406-2.113281 5.101562-2.109374 19.457032-.003907 35.234375 15.769531 35.230469 35.230468v-77.671875c0-9.378906 7.601563-16.980469 16.980469-16.980469s16.980468 7.601563 16.980468 16.980469v-25.46875c0-9.375 7.597657-16.976562 16.972657-16.976562s16.976562 7.601562 16.976562 16.976562v16.980469c0-9.378906 7.601563-16.980469 16.980469-16.980469s16.980469 7.601563 16.980469 16.980469v29.707031h.53125c2.132812-8.277343 10.09375-13.679687 18.574219-12.601562 8.484374 1.074219 14.84375 8.292969 14.84375 16.84375v137.6875c.019531 16.539062-7.09375 32.285156-19.519532 43.203125v46.609375c0 18.753906-15.203125 33.957031-33.960937 33.960937h-61.121094c-18.75-.007812-33.949219-15.210937-33.949219-33.960937zm0 0" fill="#00efd1"/><path d="m119.472656 39.800781c4.121094 8.496094 1.8125 18.714844-5.566406 24.609375-7.375 5.894532-17.851562 5.894532-25.230469 0-7.375-5.894531-9.6875-16.113281-5.5625-24.609375l18.179688-28.820312zm0 0" fill="#00acea"/><g fill="#083863"><path d="m192.113281 201.980469c-.011719-8.167969-4.175781-15.769531-11.050781-20.179688-6.878906-4.40625-15.523438-5.011719-22.949219-1.609375v-12.160156c.03125-8.238281-4.183593-15.910156-11.152343-20.300781s-15.707032-4.882813-23.125-1.300781c-2.445313-12.109376-13.648438-20.410157-25.945313-19.21875-12.296875 1.191406-21.703125 11.484374-21.777344 23.839843v3.667969c-3.082031-1.445312-6.445312-2.191406-9.847656-2.183594-13.28125-.019531-24.078125 10.703125-24.152344 23.984375v46.292969c-7.632812-7.066406-17.675781-10.949219-28.074219-10.851562-3.738281-.003907-7.316406 1.503906-9.925781 4.179687-2.621093 2.675781-4.0585935 6.285156-4 10.027344v120.121093c-.1992185 21.136719 11.359375 40.632813 30 50.601563v32.589844c-.078125 10.789062 4.164063 21.164062 11.773438 28.816406 7.613281 7.648437 17.964843 11.941406 28.753906 11.921875h61.121094c22.585937 0 41.351562-18.152344 41.351562-40.738281v-43.5625c12.15625-12.324219 18.980469-28.933594 19-46.246094zm-14 137.6875c.042969 23.460937-16.078125 43.855469-38.910156 49.234375-3.46875.808594-5.777344 4.089844-5.363281 7.628906.410156 3.535156 3.414062 6.199219 6.972656 6.1875.601562 0 1.203125-.0625 1.792969-.183594 5.691406-1.328125 10.511719-3.445312 16.511719-6.257812v33.199218c0 14.867188-12.484376 26.738282-27.351563 26.738282h-61.125c-7.078125.027344-13.871094-2.789063-18.859375-7.816406-4.984375-5.023438-7.746094-11.839844-7.667969-18.917969v-27.035157c4.570313 1.21875 9.28125 1.8125 14.007813 1.773438 18.65625-.007812 36.542968-7.4375 49.714844-20.648438l3.441406-3.472656c2.734375-2.738281 2.730468-7.175781-.007813-9.910156-2.742187-2.734375-7.175781-2.726562-9.910156.011719l-3.472656 3.46875c-10.601563 10.601562-24.980469 16.558593-39.972657 16.550781-6.296874.019531-12.523437-1.339844-18.238281-3.980469-15.582031-7.191406-25.5625-22.789062-25.5625-39.949219v-120.121093c0-.027344-.066406-.089844-.027343-.128907.082031-.078124-.046876-.078124-.015626-.078124 7.464844.015624 14.617188 3 19.878907 8.296874 5.261719 5.292969 8.199219 12.464844 8.164062 19.933594v48.808594c.070313 3.894531 3.257813 7.011719 7.152344 7 13.492187.007812 24.4375 10.917969 24.488281 24.410156.019532 3.875 3.164063 7.003906 7.039063 7 1.84375-.003906 3.605469-.75 4.898437-2.066406 1.289063-1.3125 1.996094-3.09375 1.96875-4.933594-.027344-18.550781-13.296875-34.441406-31.546875-37.769531v-120.121094c.046875-2.664062 1.148438-5.199219 3.066407-7.050781 1.847656-1.878906 4.375-2.933594 7.011718-2.929688 2.640625.007813 5.167969 1.0625 7.027344 2.933594 1.863281 1.871094 2.902344 4.40625 2.894531 7.046875v101.011719c0 3.863281 3.132813 7 7 7 3.863281 0 7-3.136719 7-7v-126.480469c.042969-2.664062 1.140625-5.203125 3.054688-7.0625 1.847656-1.875 4.375-2.925781 7.007812-2.917969 5.5.007813 9.949219 4.476563 9.9375 9.980469v126.480469c0 3.863281 3.132813 7 7 7 3.863281 0 7-3.136719 7-7v-109.5c.035157-2.664062 1.125-5.203125 3.027344-7.0625 1.855469-1.875 4.386719-2.925781 7.027344-2.917969 5.5.007813 9.953125 4.476563 9.945312 9.980469v29.707031c0 .503907.054688 1.003907.164063 1.496094-.109375.910156-.164063 1.828125-.164063 2.746094v58.578125c0 3.867187 3.132813 7 7 7 3.863281 0 7-3.132813 7-7v-58.578125c.03125-.84375.164063-1.679688.398438-2.492188 1.160156-4.410156 5.148437-7.484375 9.707031-7.480469 2.640625 0 5.167969 1.050782 7.027344 2.925782 1.859375 1.871094 2.894531 4.40625 2.875 7.046875zm0 0"/><path d="m338.929688 159.550781c-4.46875-4.5-10.554688-7.027343-16.894532-7.011719-3.429687-.007812-6.816406.738282-9.921875 2.179688v-3.667969c-.046875-12.375-9.460937-22.703125-21.777343-23.898437-12.316407-1.191406-23.535157 7.136718-25.957032 19.273437-3.226562-1.570312-6.769531-2.382812-10.359375-2.375-13.222656.019531-23.925781 10.753907-23.90625 23.980469v12.148438c-3.160156-1.4375-6.589843-2.175782-10.0625-2.171876-6.351562 0-12.449219 2.527344-16.9375 7.023438-4.492187 4.496094-7.011719 10.59375-7 16.949219v137.6875c.015625 17.3125 6.839844 33.925781 19 46.25v43.5625c0 22.585937 18.765625 40.738281 41.347657 40.738281h61.121093c10.792969.019531 21.144531-4.273438 28.753907-11.921875 7.613281-7.652344 11.851562-18.027344 11.777343-28.816406v-32.601563c18.636719-9.964844 30.195313-29.460937 30-50.59375v-120.117187c.027344-3.769531-1.457031-7.394531-4.117187-10.066407-2.585938-2.652343-6.136719-4.148437-9.839844-4.140624-10.390625-.097657-20.425781 3.785156-28.042969 10.851562v-46.292969c-.039062-6.386719-2.625-12.492187-7.183593-16.96875zm35.257812 66.410157c.027344 0-.050781 0-.011719.039062.078125.078125-.0625.140625-.0625.167969v120.121093c-.003906 17.164063-9.984375 32.757813-25.570312 39.949219-5.726563 2.640625-11.957031 4-18.261719 3.980469-14.984375.003906-29.355469-5.949219-39.945312-16.546875l-3.46875-3.472656c-2.734376-2.734375-7.164063-2.734375-9.898438 0s-2.734375 7.167969 0 9.898437l3.46875 3.472656c6.546875 6.554688 14.324219 11.75 22.882812 15.289063 8.480469 3.546875 17.585938 5.371094 26.78125 5.359375 4.730469.039062 9.441407-.554688 14.011719-1.773438v27.035157c.078125 7.078125-2.683593 13.894531-7.671875 18.921875-4.984375 5.023437-11.777344 7.839844-18.859375 7.816406h-61.121093c-14.863282 0-27.347657-11.875-27.347657-26.738281v-33.199219c6 2.8125 10.8125 4.929688 16.503907 6.257812.558593.121094 1.125.183594 1.695312.183594 3.261719-.003906 6.097656-2.242187 6.859375-5.414062.425781-1.804688.117187-3.703125-.859375-5.28125s-2.539062-2.699219-4.347656-3.125c-22.808594-5.402344-38.898438-25.792969-38.851563-49.234375v-137.6875c-.03125-2.640625.996094-5.179688 2.855469-7.054688 1.855469-1.871093 4.386719-2.921875 7.027344-2.917969 5.496094.085938 9.953125 4.476563 10.117187 9.972657v58.578125c0 3.867187 3.132813 7 7 7 3.863281 0 7-3.132813 7-7v-58.578125c-.003906-.921875-.054687-1.84375-.160156-2.757813.105469-.488281.160156-.984375.160156-1.484375v-29.707031c-.019531-2.636719 1.015625-5.171875 2.871094-7.046875 1.855469-1.871094 4.382813-2.929687 7.019531-2.933594 5.539063-.019531 10.054688 4.4375 10.109375 9.980469v109.5c0 3.863281 3.132813 7 7 7 3.863281 0 7-3.136719 7-7v-126.480469c-.023437-2.636719 1.007813-5.167969 2.859375-7.042969 1.851563-1.871093 4.375-2.929687 7.007813-2.9375 5.542969-.015624 10.0625 4.4375 10.132812 9.980469v126.480469c0 3.863281 3.132813 7 7 7 3.863281 0 7-3.136719 7-7v-101.011719c-.027343-2.632812.996094-5.164062 2.84375-7.039062 1.847657-1.875 4.367188-2.933594 7-2.941407 2.675781-.003906 5.242188 1.042969 7.148438 2.917969 1.902343 1.863281 2.984375 4.402344 3.007812 7.0625v120.121094c-18.253906 3.328125-31.53125 19.214844-31.566406 37.769531 0 3.832032 3.109375 6.941406 6.941406 6.941406 3.835938 0 6.941407-3.109374 6.941407-6.941406.082031-13.5 11.046874-24.40625 24.546874-24.410156 3.890626.011719 7.070313-3.109375 7.136719-7v-48.808594c-.027343-7.46875 2.917969-14.640625 8.183594-19.9375s12.421875-8.28125 19.890625-8.292968zm0 0"/><path d="m232.179688 66.6875c-.113282-.234375-.238282-.464844-.378907-.683594l-39.589843-62.738281c-1.28125-2.03125-3.515626-3.265625-5.917969-3.265625-2.402344 0-4.636719 1.234375-5.921875 3.265625l-39.578125 62.738281c-.140625.21875-.265625.445313-.378907.675782-10.402343 21.441406-4.570312 47.230468 14.046876 62.109374 18.617187 14.878907 45.058593 14.878907 63.675781 0 18.617187-14.878906 24.449219-40.667968 14.042969-62.109374zm-45.886719 59.273438c-9.820313.023437-19.238281-3.878907-26.160157-10.839844-11.046874-11.058594-13.960937-27.859375-7.285156-41.988282l33.445313-53.011718 33.453125 53.007812c5.417968 11.464844 4.589844 24.90625-2.195313 35.617188-6.78125 10.714844-18.578125 17.210937-31.257812 17.214844zm0 0"/><path d="m204.152344 77.21875h-11.039063v-10.808594c0-3.867187-3.136719-7-7-7-3.867187 0-7 3.132813-7 7v10.808594h-10.679687c-3.867188 0-7 3.136719-7 7 0 3.867188 3.132812 7 7 7h10.679687v10.910156c0 3.867188 3.132813 7 7 7 3.863281 0 7-3.132812 7-7v-10.910156h11.039063c3.867187 0 7-3.132812 7-7 0-3.863281-3.132813-7-7-7zm0 0"/><path d="m257.054688 111.859375c9.390624 9.394531 24.191406 10.628906 35.015624 2.929687 10.820313-7.703124 14.5-22.09375 8.699219-34.046874-.113281-.230469-.238281-.457032-.375-.675782l-18.183593-28.820312c-1.28125-2.035156-3.515626-3.265625-5.917969-3.265625-2.402344 0-4.636719 1.230469-5.921875 3.265625l-18.179688 28.820312c-.136718.21875-.265625.445313-.378906.675782-5.054688 10.429687-2.949219 22.917968 5.238281 31.117187zm7.207031-24.6875 12.03125-19.074219 12.03125 19.074219c2.507812 5.542969.910156 12.082031-3.878907 15.839844-4.785156 3.753906-11.519531 3.753906-16.304687 0-4.789063-3.757813-6.390625-10.296875-3.878906-15.839844zm0 0"/><path d="m82.054688 67.859375c9.390624 9.394531 24.191406 10.628906 35.015624 2.929687 10.820313-7.703124 14.5-22.09375 8.699219-34.046874-.113281-.230469-.238281-.457032-.375-.675782l-18.183593-28.820312c-1.28125-2.035156-3.515626-3.265625-5.917969-3.265625-2.402344 0-4.636719 1.230469-5.921875 3.265625l-18.179688 28.820312c-.136718.21875-.265625.445313-.378906.675782-5.054688 10.429687-2.949219 22.917968 5.238281 31.117187zm7.207031-24.6875 12.03125-19.074219 12.03125 19.074219c2.507812 5.542969.910156 12.082031-3.878907 15.839844-4.785156 3.753906-11.519531 3.753906-16.304687 0-4.789063-3.757813-6.390625-10.296875-3.878906-15.839844zm0 0"/></g></svg>