<svg height="470pt" viewBox="-7 0 470 470.07026" width="470pt" xmlns="http://www.w3.org/2000/svg"><path d="m358.066406 416.820312c11.117188-.003906 20.136719 9.003907 20.140625 20.125.003907 11.117188-9.007812 20.132813-20.128906 20.136719-11.117187 0-20.132813-9.011719-20.132813-20.132812 0-11.113281 9.003907-20.125 20.121094-20.128907zm0 0" fill="#00efd1"/><path d="m449.324219 216.21875v121.25c0 20.214844-16.386719 36.597656-36.597657 36.589844h-74.882812c-13.417969 0-29.089844-11.148438-35.519531-21.988282l18.441406-15.03125h54.519531v-120.820312l9.300782 2.660156c9.160156 2.609375 18.96875 1.648438 27.449218-2.6875 8.394532-4.3125 18.101563-5.300781 27.191406-2.769531zm0 0" fill="#00acea"/><path d="m334.894531 121.992188c.972657-.082032 1.960938-.121094 2.949219-.121094h74.882812c.988282 0 1.980469.039062 2.949219.121094 19.007813 1.527343 33.652344 17.398437 33.648438 36.46875v57.757812l-10.097657-2.796875c-9.089843-2.53125-18.796874-1.542969-27.191406 2.769531-8.480468 4.335938-18.289062 5.296875-27.449218 2.6875l-9.300782-2.660156v-41.847656h-74.039062v-15.910156c-.003906-19.070313 14.640625-34.941407 33.648437-36.46875zm0 0" fill="#fedb41"/><path d="m415.675781 95.621094v26.371094c-.96875-.082032-1.960937-.121094-2.949219-.121094h-74.882812c-.988281 0-1.976562.039062-2.949219.121094v-26.371094c0-7.441406 6.03125-13.472656 13.472657-13.472656h53.839843c7.4375 0 13.46875 6.03125 13.46875 13.472656zm0 0" fill="#00efd1"/><path d="m405.574219 6.921875v45.226563h-60.578125v-45.226563zm0 0" fill="#00efd1"/><path d="m358.457031 52.148438h33.660157v30h-33.660157zm0 0" fill="#00acea"/><path d="m375.285156 216.21875v120.820312h-54.519531l16.53125-13.480468c5.652344-4.609375 6.984375-12.710938 3.097656-18.886719s-11.765625-8.484375-18.367187-5.382813l-.191406-.410156 19.589843-15.96875c6.164063-5.03125 7.097657-14.097656 2.09375-20.28125-5.007812-6.183594-14.070312-7.15625-20.273437-2.179687l11.121094-9.070313c4.03125-3.25 6.011718-8.414062 5.195312-13.527344-.820312-5.117187-4.3125-9.402343-9.15625-11.234374-4.847656-1.832032-10.300781-.929688-14.300781 2.363281l-16.800781 13.699219c6.1875-5.039063 7.113281-14.144532 2.070312-20.328126-.039062-.054687-.082031-.105468-.128906-.152343v-47.828125h74.039062zm0 0" fill="#00efd1"/><path d="m320.765625 337.039062-18.441406 15.03125-9.257813 7.550782-22.960937 18.71875-23.628907 19.269531c-10.792968 8.820313-24.839843 12.605469-38.601562 10.410156l-.339844-.097656-30.789062 25.097656c-12.371094 10.085938-30.574219 8.238281-40.660156-4.128906l-32.871094-40.308594c-10.082032-12.375-8.226563-30.574219 4.140625-40.660156l5.851562-4.761719 12.847657-10.480468 5.492187-5.109376c-4.015625-16.269531 1.707031-33.394531 14.699219-43.980468l69.789062-56.898438 9.441406-7.699218c2.625-2.144532 6.488282-1.75 8.628907.878906 10.253906 12.570312 8.652343 31.015625-3.621094 41.628906l50.5625-41.21875c6.125-4.996094 15.125-4.140625 20.199219 1.917969.046875.046875.089844.097656.128906.152343 5.042969 6.183594 4.117188 15.289063-2.070312 20.328126l16.800781-13.699219c6.1875-4.992188 15.25-4.046875 20.273437 2.117187 5.023438 6.164063 4.125 15.226563-2.011718 20.28125l-11.121094 9.070313c6.203125-4.976563 15.265625-4.003907 20.273437 2.179687 5.003907 6.183594 4.070313 15.25-2.09375 20.28125l-19.589843 15.96875.191406.410156c6.601562-3.101562 14.480468-.792968 18.367187 5.382813s2.554688 14.277344-3.097656 18.886719zm0 0" fill="#fedb41"/><path d="m275.066406 422.820312c11.117188-.003906 20.136719 9.003907 20.140625 20.125.003907 11.117188-9.007812 20.132813-20.128906 20.136719-11.117187 0-20.132813-9.011719-20.132813-20.132812 0-11.113281 9.003907-20.125 20.121094-20.128907zm0 0" fill="#00efd1"/><path d="m282.683594 110.671875c5.164062 10.625 2.273437 23.410156-6.957032 30.785156-9.226562 7.378907-22.335937 7.378907-31.5625 0-9.230468-7.375-12.117187-20.160156-6.957031-30.785156l22.738281-36.042969zm0 0" fill="#00acea"/><path d="m67.027344 215.582031c7.0625-15.410156 22.457031-25.285156 39.40625-25.28125h102.230468c3.386719 0 6.132813 2.742188 6.132813 6.128907 0 16.5625-13.421875 29.988281-29.980469 29.992187h31l.21875.269531-69.789062 56.898438c-12.992188 10.585937-18.714844 27.710937-14.699219 43.980468l-5.492187 5.109376-12.847657 10.480468-.132812-.160156c-14.519531-.164062-28.265625-6.582031-37.71875-17.609375h-39.710938c-15.960937 0-28.898437-12.9375-28.898437-28.898437v-52.011719c0-15.960938 12.9375-28.898438 28.898437-28.898438zm0 0" fill="#00acea"/><path d="m171.066406 116.820312c11.117188-.003906 20.136719 9.003907 20.140625 20.125.003907 11.117188-9.007812 20.132813-20.128906 20.136719-11.117187 0-20.132813-9.011719-20.132813-20.132812 0-11.113281 9.003907-20.125 20.121094-20.128907zm0 0" fill="#00efd1"/><path d="m97.066406 76.820312c11.117188-.003906 20.136719 9.003907 20.140625 20.125.003907 11.117188-9.007812 20.132813-20.128906 20.136719-11.117187 0-20.132813-9.011719-20.132813-20.132812 0-11.113281 9.003907-20.125 20.121094-20.128907zm0 0" fill="#00efd1"/><g fill="#083863"><path d="m35.644531 332h36.644531c6.800782 7.511719 15.609376 12.917969 25.386719 15.585938-10.628906 13.25-10.578125 32.121093.113281 45.320312l32.871094 40.359375c6 7.40625 14.710938 12.105469 24.191406 13.050781 1.226563.128906 2.460938.195313 3.695313.199219 8.25.011719 16.246094-2.84375 22.621094-8.078125l28.390625-23.136719c14.863281 1.585938 29.746094-2.828125 41.339844-12.265625l50.15625-40.921875c8.761718 10.105469 23.113281 18.886719 36.789062 18.886719h74.882812c11.519532-.007812 22.5625-4.605469 30.691407-12.773438 8.125-8.167968 12.667969-19.234374 12.617187-30.757812v-179.007812c0-20.371094-14-37.894532-33-42.4375v-20.398438c-.167968-11.402344-9.429687-20.570312-20.828125-20.625h-3.171875v-16h6.539063c3.867187 0 7.460937-2.984375 7.460937-6.851562v-45.226563c0-3.867187-3.59375-6.921875-7.460937-6.921875h-60.578125c-1.84375-.015625-3.617188.707031-4.925782 2.007812-1.308593 1.300782-2.039062 3.070313-2.035156 4.914063v16.671875c-6-4.074219-12.285156-6.730469-19.644531-6.851562l-51.972656-.742188h-.074219c-3.875.089844-6.972656 3.242188-7 7.117188-.046875 3.882812 3.042969 7.082031 6.925781 7.167968l51.90625.601563c11 .207031 19.761719 9.273437 19.589844 20.277343-.011719.769532.109375 1.535157.363281 2.261719.65625 3.265625 3.539063 5.601563 6.867188 5.574219h6.039062v16h-2.667968c-11.304688.09375-20.398438 9.316406-20.332032 20.621094v20.40625c-19 4.546875-34 22.066406-34 42.433594v51.964843c-1.304687-.277343-2.640625-.414062-3.976562-.398437-4.917969.007812-9.679688 1.710937-13.488282 4.824218l-28.75 23.460938c-.113281-8.339844-3.035156-16.394531-8.300781-22.863281-4.59375-5.550781-12.753906-6.476563-18.472656-2.101563l-7.175781 5.652344h-.117188c5.257813-6.421875 8.101563-14.480469 8.042969-22.78125.007813-7.269531-5.859375-13.179688-13.132813-13.21875h-102.230468c-18.1875.105469-34.894532 10.054688-43.65625 26h-27.132813c-9.441406-.074219-18.523437 3.636719-25.214843 10.304688-6.6875 6.664062-10.43359425 15.730468-10.3945318 25.175781v52.011719c-.03906245 9.445312 3.7031248 18.515624 10.3945318 25.1875 6.6875 6.667968 15.769531 10.386718 25.214843 10.320312zm377.082031 35h-74.882812c-8.925781 0-19.53125-6.558594-25.933594-13.757812l11.34375-9.242188h52.03125c1.828125 0 3.574219-.742188 4.847656-2.050781 1.269532-1.3125 1.957032-3.082031 1.902344-4.910157v-111.539062l.5.105469c10.902344 3.101562 22.574219 1.960937 32.671875-3.191407 6.777344-3.511718 14.640625-4.316406 21.992188-2.25l4.835937 1.378907v115.925781c.054688 7.8125-3.011718 15.320312-8.511718 20.863281-5.503907 5.542969-12.988282 8.664063-20.796876 8.667969zm-67.949218-68.199219c-1.605469-1.964843-3.546875-3.628906-5.734375-4.917969l6.808593-5.550781c5.535157-4.527343 8.457032-11.515625 7.789063-18.636719-.667969-7.121093-4.839844-13.441406-11.121094-16.859374 6.378907-8.699219 5.296875-20.785157-2.527343-28.214844-7.824219-7.429688-19.949219-7.886719-28.3125-1.066406l-1.328126 1c-.558593-1.636719-1.339843-3.191407-2.316406-4.621094v-38.933594h60v149h-27.609375l1.289063-1.03125c4.414062-3.589844 7.214844-8.789062 7.792968-14.449219.574219-5.65625-1.128906-11.3125-4.730468-15.714843zm7.257812-284.800781h47v31h-47zm13 45h20v16h-20zm-16.667968 30h53.839843c3.671875.046875 6.667969 2.953125 6.828125 6.621094v19.378906h-67v-19.378906c-.074218-3.574219 2.757813-6.535156 6.332032-6.621094zm-13 40.03125c.773437-.0625 1.675781-.03125 2.476562-.03125h74.878906c.800782 0 1.457032-.03125 2.25.035156 15.296875 1.285156 27.0625 14.074219 27.0625 29.425782v48.554687l-1.078125-.339844c-10.757812-3.011719-22.261719-1.835937-32.1875 3.285157-6.941406 3.496093-14.933593 4.277343-22.421875 2.1875l-4.3125-1.207032v-36.570312c0-3.867188-2.882812-7.371094-6.75-7.371094h-67.25v-8.539062c.117188-15.40625 11.976563-28.171876 27.332032-29.429688zm-101.511719 109.757812c.003906 6.6875-2.898438 13.042969-7.953125 17.417969-.148438.128907-.300782.25-.449219.378907l-26.679687 21.75c-2.996094 2.441406-3.445313 6.851562-1.003907 9.847656 2.441407 2.996094 6.851563 3.445312 9.847657 1.003906l22.417968-18.277344 4.3125-3.515625c.1875-.15625.371094-.308593.550782-.460937l.007812-.007813 50.554688-41.214843c3.15625-2.582032 7.800781-2.140626 10.417968.984374.042969.050782.082032.101563.125.144532 2.535156 3.195312 2.035156 7.835937-1.125 10.414062l-66.617187 54.320313c-1.957031 1.574219-2.921875 4.078125-2.523438 6.558593.394531 2.480469 2.089844 4.558594 4.4375 5.445313 2.351563.886719 4.996094.445313 6.933594-1.152344l66.613281-54.316406h.003906l16.796876-13.695313c3.1875-2.601562 7.878906-2.128906 10.480468 1.0625 2.597656 3.191407 2.121094 7.878907-1.0625 10.484376l-11.039062 9c-.054688.042968-.109375.082031-.160156.125l-16.789063 13.691406-55.429687 45.199218c-2.960938 2.453126-3.386719 6.835938-.957032 9.8125 2.429688 2.980469 6.808594 3.441407 9.804688 1.035157l55.429687-45.199219 16.671875-13.59375c.058594-.042969.117188-.089844.171875-.136719 1.316407-1.0625 2.957031-1.640625 4.652344-1.632812 3.148437 0 5.960937 1.984375 7.015625 4.953125 1.058594 2.96875.132812 6.28125-2.308594 8.269531l-19.589844 15.972656c-.351562.285157-.671874.605469-.960937.953125-.636719.410156-1.25.859375-1.839844 1.335938l-38.640625 31.488281c-2.953125 2.457031-3.378906 6.832031-.953125 9.808594 2.425781 2.976562 6.796875 3.441406 9.796875 1.046875l38.652344-31.5c.476562-.390625.996094-.714844 1.550781-.972656 3.40625-1.585938 7.460938-.390626 9.457031 2.792968 1.996094 3.183594 1.308594 7.355469-1.605468 9.726563l-90.816406 74.050781c-9.148438 7.441406-21 10.703125-32.667969 8.984375-2.179688-.597656-4.519531-.105469-6.273438 1.324219l-30.792969 25.101562c-9.371093 7.640625-23.164062 6.238282-30.808593-3.132812l-32.871094-40.304688c-7.621094-9.378906-6.222656-23.15625 3.132813-30.808594l18.707031-15.25c.117187-.097656.230469-.199218.34375-.300781l5.488281-5.109375c1.863281-1.730468 2.636719-4.335937 2.03125-6.800781-3.324219-13.640625 1.46875-27.980469 12.324219-36.878906l78.546875-64.042969c3.027344 3.96875 4.660156 8.828125 4.640625 13.820312zm-219.820313 5.691407c-.042968-5.734375 2.226563-11.242188 6.289063-15.28125 4.066406-4.042969 9.589843-6.277344 15.320312-6.199219h21.675781c-.851562 3.554688-1.261718 7.195312-1.226562 10.851562.011719 16.144532 6.445312 31.625 17.882812 43.023438l2.949219 2.921875c2.746094 2.703125 7.15625 2.683594 9.878907-.042969 2.722656-2.730468 2.730468-7.140625.019531-9.878906l-2.949219-2.953125c-8.828125-8.824219-13.785156-20.796875-13.78125-33.28125-.074219-20.152344 16.191406-36.550781 36.339844-36.640625h101.347656c-.460938 13-10.585938 22-22.964844 22h-41.539062c-3.90625.097656-7.019532 3.304688-7 7.210938-.003906 10.910156-8.8125 19.769531-19.722656 19.835937-3.875.023437-7.003907 3.175781-7 7.050781.007812 1.839844.753906 3.59375 2.070312 4.878906 1.316406 1.28125 3.09375 1.980469 4.929688 1.9375 16.058593.1875 29.949218-11.144531 32.992187-26.914062h47.152344l-18.265625 15h-13.476563c-3.320312.058594-6.160156 2.398438-6.855469 5.644531-.691406 3.25.941407 6.542969 3.949219 7.957031l-20.226562 16.527344c-13.867188 11.378906-20.679688 29.246094-17.910157 46.96875l-2.460937 2.296875-10.480469 8.546875c-11.746094-.730468-22.695312-6.199218-30.335937-15.152344-4.582031-5.199218-7.820313-11.441406-9.441407-18.175781-.417968-1.808593-1.539062-3.378906-3.117187-4.359375-1.578125-.980468-3.476563-1.292968-5.285156-.871094-1.796875.375-3.363281 1.457032-4.347657 3.003907-.984374 1.542969-1.304687 3.421875-.886718 5.207031 1.027344 4.3125 2.585937 8.480469 4.652344 12.40625h-26.566407c-5.734375.070312-11.257812-2.167969-15.320312-6.214844-4.066407-4.046875-6.332031-9.558594-6.289063-15.292968zm0 0"/><path d="m230.910156 107.609375c-6.585937 13.570313-2.894531 29.890625 8.886719 39.308594 11.78125 9.414062 28.515625 9.414062 40.300781 0 11.78125-9.417969 15.472656-25.738281 8.886719-39.308594-.113281-.234375-.242187-.460937-.378906-.679687l-22.738281-36.03125c-1.285157-2.03125-3.519532-3.261719-5.921876-3.261719-2.402343 0-4.636718 1.230469-5.917968 3.261719l-22.742188 36.042968c-.136718.214844-.261718.4375-.375.667969zm12.4375 6.441406 16.601563-26.296875 16.59375 26.296875c3.714843 8.042969 1.128906 17.589844-6.136719 22.65625-7.265625 5.066407-17.121094 4.195313-23.382812-2.070312-5.417969-5.414063-6.882813-13.628907-3.675782-20.585938zm0 0"/><path d="m143.945312 136.949219c.003907 14.980469 12.148438 27.125 27.128907 27.121093 14.980469-.003906 27.125-12.148437 27.121093-27.128906-.003906-14.980468-12.148437-27.125-27.128906-27.121094-14.976562.019532-27.105468 12.15625-27.121094 27.128907zm40.25 0c-.003906 7.25-5.878906 13.121093-13.125 13.121093-7.25 0-13.125-5.875-13.125-13.125 0-7.246093 5.871094-13.121093 13.121094-13.125 7.246094.007813 13.121094 5.882813 13.128906 13.128907zm0 0"/><path d="m69.945312 96.949219c.003907 14.980469 12.148438 27.125 27.128907 27.121093 14.980469-.003906 27.125-12.148437 27.121093-27.128906-.003906-14.980468-12.148437-27.125-27.128906-27.121094-14.976562.019532-27.105468 12.15625-27.121094 27.128907zm40.25 0c-.003906 7.25-5.878906 13.121093-13.125 13.121093-7.25 0-13.125-5.875-13.125-13.125 0-7.246093 5.871094-13.121093 13.121094-13.125 7.246094.007813 13.121094 5.882813 13.128906 13.128907zm0 0"/><path d="m247.945312 442.949219c.003907 14.980469 12.148438 27.125 27.128907 27.121093 14.980469-.003906 27.125-12.148437 27.121093-27.128906-.003906-14.980468-12.148437-27.125-27.128906-27.121094-14.976562.019532-27.105468 12.15625-27.121094 27.128907zm40.25 0c-.003906 7.25-5.878906 13.121093-13.125 13.121093-7.25 0-13.125-5.875-13.125-13.125 0-7.246093 5.871094-13.121093 13.121094-13.125 7.246094.007813 13.121094 5.882813 13.128906 13.128907zm0 0"/><path d="m330.945312 436.949219c.003907 14.980469 12.148438 27.125 27.128907 27.121093 14.980469-.003906 27.125-12.148437 27.121093-27.128906-.003906-14.980468-12.148437-27.125-27.128906-27.121094-14.976562.019532-27.105468 12.15625-27.121094 27.128907zm40.25 0c-.003906 7.25-5.878906 13.121093-13.125 13.121093-7.25 0-13.125-5.875-13.125-13.125 0-7.246093 5.871094-13.121093 13.121094-13.125 7.246094.007813 13.121094 5.882813 13.128906 13.128907zm0 0"/></g></svg>