<svg height="425pt" viewBox="-13 0 425 425.61269" width="425pt" xmlns="http://www.w3.org/2000/svg"><path d="m323.121094 242.699219.160156-.089844 69.019531 37.828125v43.640625c-.023437 39.210937-23.257812 74.691406-59.1875 90.390625l-9.582031 4.167969-10.808594-4.667969c-17.890625-7.539062-33.167968-20.167969-43.941406-36.320312-.839844-1.261719-1.648438-2.53125-2.417969-3.828126-9.214843-15.316406-14.074219-32.851562-14.0625-50.722656v-42.660156zm40.703125 100.378906v-24.910156h-29.070313v-29.058594h-24.902344v29.058594h-29.070312v24.910156h29.070312v29.058594h24.902344v-29.058594zm0 0" fill="#00acea"/><path d="m377.300781 192.019531h-54.179687v50.679688l-70.820313 37.738281v42.660156c-.011719 17.871094 4.847657 35.40625 14.0625 50.722656l-.671875.40625h-204.210937v-182.207031h-54.179688l185-185zm0 0" fill="#00efd1"/><path d="m363.824219 318.167969v24.910156h-29.070313v29.058594h-24.902344v-29.058594h-29.070312v-24.910156h29.070312v-29.058594h24.902344v29.058594zm0 0" fill="#fedb41"/><g fill="#083863"><path d="m395.257812 274.300781-65.457031-35.925781v-39.546875h47.5c2.816407.042969 5.375-1.632813 6.464844-4.230469s.488281-5.597656-1.511719-7.574218l-185-184.980469c-2.738281-2.730469-7.171875-2.722657-9.902344.011719l-185 185.007812c-2 1.972656-2.597656 4.96875-1.507812 7.558594s3.648438 4.257812 6.457031 4.207031h47.5v175.398437c-.054687 1.785157.632813 3.507813 1.898438 4.761719 1.269531 1.25 3.003906 1.917969 4.78125 1.839844h201.28125c.066406 1 .125.398437.195312.5 11.507813 17.3125 27.847657 30.863281 46.988281 38.964844l10.8125 4.71875c1.769532.789062 3.789063.800781 5.570313.03125l9.34375-4.171875c38.410156-16.851563 63.195313-54.847656 63.128906-96.792969v-43.640625c.039063-2.542969-1.324219-4.898438-3.542969-6.136719zm-333.777343-89.472656h-37.277344l168.097656-168.101563 168.101563 168.101563h-37.28125c-3.964844.0625-7.183594 3.226563-7.320313 7.191406v46.476563l-67.199219 35.765625c-2.304687 1.207031-3.761718 3.578125-3.800781 6.175781v42.660156c.085938 15.15625 3.5625 30.097656 10.179688 43.730469h-186.179688v-174.808594c-.132812-3.964843-3.351562-7.128906-7.320312-7.191406zm323.320312 139.25c.066407 36.382813-21.421875 69.347656-54.734375 83.972656l-6.664062 2.957031-8.011719-3.488281c-16.621094-7-30.816406-18.738281-40.8125-33.753906-.839844-1.261719-1.550781-2.414063-2.207031-3.515625-.003906-.011719-.253906-.027344-.261719-.039062-8.625-14.207032-13.226563-30.492188-13.308594-47.113282v-38.457031l63.941407-34.074219 62.058593 34.019532zm0 0"/><path d="m302.800781 289.109375v21.71875h-22.019531c-3.925781.164063-7.015625 3.410156-6.980469 7.339844v24.910156c.007813 1.828125.75 3.578125 2.066407 4.847656 1.316406 1.273438 3.085937 1.957031 4.914062 1.902344h22.019531v22.308594c.027344 1.832031.789063 3.574219 2.117188 4.832031 1.324219 1.261719 3.105469 1.929688 4.933593 1.859375h24.902344c1.828125.070313 3.605469-.597656 4.933594-1.859375 1.328125-1.257812 2.089844-3 2.113281-4.832031v-22.308594h22.023438c1.824219.054687 3.597656-.628906 4.914062-1.902344 1.3125-1.269531 2.058594-3.019531 2.0625-4.847656v-24.910156c.035157-3.929688-3.050781-7.175781-6.976562-7.339844h-22.023438v-21.71875c0-3.933594-3.121093-7.152344-7.046875-7.28125h-24.902344c-3.929687.128906-7.046874 3.347656-7.050781 7.28125zm14 29.058594v-22.339844h11v22.339844c.003907 1.816406.746094 3.554687 2.058594 4.8125 1.3125 1.253906 3.078125 1.921875 4.894531 1.847656h22.046875v11h-22.046875c-3.90625.121094-6.996094 3.34375-6.953125 7.25v21.75h-11v-21.75c.042969-3.90625-3.042969-7.128906-6.949219-7.25h-22.050781v-11h22.050781c1.816407.074219 3.582032-.59375 4.894532-1.847656 1.3125-1.257813 2.054687-2.996094 2.054687-4.8125zm0 0"/></g></svg>