<svg height="418pt" viewBox="-16 0 418 418.03022" width="418pt" xmlns="http://www.w3.org/2000/svg"><path d="m356.171875 218.558594h7.289063c8.679687.003906 15.714843 7.042968 15.710937 15.722656v9.949219c0 .609375-.007813 1.21875-.019531 1.828125h-64.121094v-11.777344c.003906-8.683594 7.039062-15.71875 15.722656-15.722656zm0 0" fill="#00acea"/><path d="m360.84375 246.058594-7.792969 69.320312v.011719c-15.722656 18.5625-37.164062 31.382813-60.957031 36.449219l-.292969.082031c-1.054687-4.039063-4.703125-6.859375-8.878906-6.863281h-27.5c-4.160156.007812-7.796875 2.808594-8.859375 6.832031-23.910156-5.011719-45.464844-17.851563-61.261719-36.492187v-.019532l-7.789062-69.320312h121.019531v25.722656c-.0625 4.171875 2.933594 7.761719 7.050781 8.449219 2.371094.34375 4.777344-.359375 6.59375-1.925781 1.8125-1.570313 2.855469-3.847657 2.855469-6.246094v-26zm0 0" fill="#00efd1"/><path d="m282.683594 188.230469c12.355468-12.132813 30.757812-15.71875 46.761718-9.113281 16.007813 6.605468 26.523438 22.128906 26.726563 39.441406h-25.417969c-8.683594.003906-15.71875 7.039062-15.722656 15.722656v37.777344c0 2.398437-1.042969 4.675781-2.855469 6.246094-1.816406 1.566406-4.222656 2.269531-6.59375 1.925781-4.117187-.6875-7.113281-4.277344-7.050781-8.449219v-37.5c.003906-8.679688-7.03125-15.71875-15.707031-15.722656h-13.070313c.117188-11.421875 4.769532-22.332032 12.929688-30.328125zm0 0" fill="#00acea"/><path d="m353.050781 315.390625-8.886719 79.160156c-.9375 9.371094-8.824218 16.507813-18.242187 16.507813h-113.488281c-9.417969 0-17.304688-7.136719-18.242188-16.507813l-8.890625-79.152343c15.796875 18.640624 37.351563 31.480468 61.261719 36.492187-.203125.761719-.304688 1.550781-.300781 2.339844 0 5.058593 4.101562 9.160156 9.160156 9.160156h27.5c2.433594.003906 4.765625-.957031 6.488281-2.675781 1.71875-1.71875 2.683594-4.054688 2.683594-6.484375 0-.78125-.097656-1.554688-.292969-2.308594l.292969-.082031c23.792969-5.066406 45.234375-17.886719 60.957031-36.449219zm0 0" fill="#00efd1"/><path d="m326.601562 126.78125c0 7.59375-6.15625 13.75-13.75 13.75s-13.75-6.15625-13.75-13.75 6.15625-13.75 13.75-13.75 13.75 6.15625 13.75 13.75zm0 0" fill="#00acea"/><path d="m186.890625 218.558594h95.933594c8.675781.003906 15.710937 7.042968 15.707031 15.722656v11.777344h-139.339844c-.019531-.609375-.019531-1.21875-.019531-1.828125v-9.949219c0-8.683594 7.039063-15.71875 15.71875-15.722656zm0 0" fill="#00acea"/><path d="m246.5625 351.890625c1.0625-4.023437 4.699219-6.824219 8.859375-6.832031h27.5c5.0625 0 9.164063 4.105468 9.164063 9.167968 0 5.058594-4.101563 9.164063-9.164063 9.164063h-27.5c-5.058594 0-9.160156-4.101563-9.160156-9.160156-.003907-.789063.097656-1.578125.300781-2.339844zm0 0" fill="#fedb41"/><path d="m222.992188 189.371094c1.214843-15.382813 13.902343-27.335938 29.328124-27.628906 15.425782-.292969 28.5625 11.164062 30.363282 26.488281-8.160156 7.996093-12.8125 18.90625-12.929688 30.328125h-82.863281c.050781-8.996094 4.136719-17.492188 11.132813-23.148438 6.996093-5.65625 16.160156-7.875 24.96875-6.039062zm0 0" fill="#00acea"/><path d="m214.171875 151.988281c0 6.078125-4.925781 11-11 11s-11-4.921875-11-11c0-6.074219 4.925781-11 11-11s11 4.925781 11 11zm0 0" fill="#00acea"/><path d="m167.09375 359.089844 10.019531 50.800781-170 1.167969 8.75-50.9375.1875-.0625c1.234375 3.59375 4.621094 6.003906 8.421875 5.980468l134.351563-1.039062c3.726562-.027344 7.035156-2.390625 8.269531-5.910156zm0 0" fill="#00acea"/><path d="m167.09375 359.089844c-1.234375 3.519531-4.542969 5.882812-8.269531 5.910156l-134.351563 1.039062c-3.800781.023438-7.1875-2.386718-8.421875-5.980468-.3125-.894532-.472656-1.839844-.476562-2.789063v-.070312c0-4.851563 3.914062-8.796875 8.769531-8.828125l28.488281-.222656-.050781-5.636719c-.039062-5.34375 4.257812-9.707031 9.601562-9.75l58.019532-.441407c2.566406-.023437 5.039062.976563 6.867187 2.777344 1.828125 1.800782 2.867188 4.253906 2.882813 6.824219l.050781 5.628906 28.488281-.222656c4.878906-.03125 8.863282 3.894531 8.902344 8.773437.007812 1.015626-.160156 2.027344-.5 2.988282zm0 0" fill="#00efd1"/><g fill="#083863"><path d="m221.171875 151.988281c0-9.9375-8.058594-18-18-18s-18 8.0625-18 18c0 9.941407 8.058594 18 18 18 9.9375-.011719 17.988281-8.0625 18-18zm-22 0c0-2.207031 1.792969-4 4-4 2.210937 0 4 1.792969 4 4 0 2.210938-1.789063 4-4 4-2.207031 0-4-1.789062-4-4zm0 0"/><path d="m333.601562 126.78125c0-11.460938-9.289062-20.75-20.75-20.75-11.460937 0-20.75 9.289062-20.75 20.75 0 11.457031 9.289063 20.75 20.75 20.75 11.457032-.015625 20.738282-9.296875 20.75-20.75zm-27.5 0c0-3.730469 3.023438-6.75 6.75-6.75 3.730469 0 6.75 3.019531 6.75 6.75 0 3.726562-3.019531 6.75-6.75 6.75-3.726562-.003906-6.746093-3.023438-6.75-6.75zm0 0"/><path d="m362.601562 212.03125c-2.480468-16.707031-13.175781-31.054688-28.472656-38.210938-15.300781-7.152343-33.167968-6.15625-47.578125 2.65625-6.429687-14.140624-21.007812-22.753906-36.496093-21.570312-15.488282 1.183594-28.585938 11.917969-32.792969 26.871094-.121094 0-.246094.210937-.371094.210937-17.6875.136719-32.847656 12.6875-36.28125 30.042969h-5.71875c-12.523437 0-22.75 9.722656-22.75 22.25v11.777344c.007813.257812.027344.515625.0625.769531.597656 26.070313 9.875 51.191406 26.363281 71.390625l8.65625 77.015625c1.265625 12.960937 12.183594 22.835937 25.210938 22.796875h113.488281c13 .054688 23.910156-9.78125 25.199219-22.714844l8.664062-77.125c16.472656-20.1875 25.738282-45.296875 26.328125-71.347656.027344-.261719.035157-.523438.03125-.785156v-11.777344c-.015625-5.972656-2.425781-11.6875-6.6875-15.871094-4.261719-4.179687-10.023437-6.476562-15.996093-6.378906zm-14.207031 0h-17.640625c-5.964844-.097656-11.714844 2.207031-15.964844 6.386719-4.253906 4.183593-6.644531 9.898437-6.648437 15.863281v37.777344c-.011719.375-.191406.71875-.484375.949218-.371094.25-.820312.351563-1.261719.292969-.699219-.1875-1.203125-.796875-1.253906-1.519531v-37.5c.066406-5.933594-2.265625-11.640625-6.46875-15.832031-4.203125-4.1875-9.917969-6.503907-15.847656-6.417969h-5.300781c1.441406-7.007812 4.945312-13.421875 10.058593-18.421875.523438-.515625 1.066407-1.578125 1.621094-1.578125h.6875s-.015625-.523438-.019531-.714844c9.832031-8.007812 23.128906-10.308594 35.078125-6.078125 11.953125 4.230469 20.839843 14.382813 23.445312 26.792969zm23.371094 41c-1.007813 11.246094-3.820313 22.261719-8.332031 32.613281l3.664062-32.613281zm-25.421875 59.367188c-13.53125 15.289062-31.28125 26.230468-51.015625 31.449218-3.070313-3.679687-7.613281-5.8125-12.40625-5.816406h-27.5c-4.292969-.003906-8.40625 1.707031-11.429687 4.753906-.335938.335938-.652344.699219-.957032 1.066406-19.738281-5.21875-37.492187-16.160156-51.023437-31.449218l-6.667969-59.371094h105.796875v18.75c.039063 7.695312 5.671875 14.222656 13.28125 15.382812.738281.097657 1.484375.148438 2.234375.148438 3.71875.003906 7.316406-1.324219 10.140625-3.746094 3.355469-2.882812 5.304687-7.078125 5.34375-11.507812v-19.027344h30.871094zm-61.25 41.832031c.007812.523437-.226562 1.019531-.632812 1.351562-.433594.34375-.988282.503907-1.539063.449219h-27.5c-.550781.039062-1.097656-.152344-1.507813-.527344-.40625-.375-.644531-.898437-.652343-1.453125 0-.15625.019531-.3125.070312-.464843.097657-.359376.289063-.6875.558594-.945313.410156-.402344.960937-.621094 1.53125-.609375h27.5c.988281.011719 1.84375.675781 2.101563 1.628906.046874.1875.070312.378906.070312.570313zm-113.839844-101.199219 3.667969 32.648438c-4.515625-10.367188-7.332031-21.390626-8.34375-32.648438zm45.636719-57.054688c1.574219-.039062 3.148437.082032 4.695313.367188 3.074218.609375 5.988281 1.851562 8.554687 3.652344 3.171875 2.230468 7.550781 1.46875 9.78125-1.703125 2.230469-3.167969 1.46875-7.546875-1.703125-9.777344-2.230469-1.574219-4.628906-2.898437-7.152344-3.945313 3.175782-9.75 12.4375-16.207031 22.683594-15.808593 10.246094.394531 18.984375 7.542969 21.398438 17.511719-6.410157 7.21875-10.527344 16.1875-11.828126 25.757812h-68.269531c2.804688-9.679688 11.765625-16.265625 21.839844-16.054688zm-50.75 38.304688c0-4.808594 3.945313-8.25 8.75-8.25h10.441406c.5 0 1.023438.179688 1.558594.179688.539063 0 1.058594-.179688 1.5625-.179688h94.371094c2.21875-.089844 4.375.75 5.953125 2.3125 1.578125 1.566406 2.433594 3.714844 2.363281 5.9375v4.75h-125zm171.058594 159.554688c-.566407 5.800781-5.449219 10.214843-11.277344 10.195312h-113.488281c-5.855469.011719-10.75-4.449219-11.285156-10.277344l-6.6875-59.539062c13.175781 10.882812 28.578124 18.742187 45.121093 23.027344 1.550781 7.5 8.183594 12.855468 15.839844 12.789062h27.5c7.652344.152344 14.320313-5.183594 15.851563-12.679688 16.550781-4.347656 31.949218-12.257812 45.121093-23.183593zm34.941406-159.554688v4.75h-50v-4.75c0-4.808594 3.800781-8.25 8.613281-8.25h32.707032c4.804687 0 8.679687 3.441406 8.679687 8.25zm0 0"/><path d="m275.140625 269.988281c-3.863281 0-7 3.136719-7 7v23c0 3.867188 3.136719 7 7 7 3.867187 0 7-3.132812 7-7v-23c0-3.863281-3.132813-7-7-7zm0 0"/><path d="m312.140625 299.988281c-3.863281 0-7 3.136719-7 7v17c0 3.867188 3.136719 7 7 7 3.867187 0 7-3.132812 7-7v-17c0-3.863281-3.132813-7-7-7zm0 0"/><path d="m7.113281 418.03125h.046875l170-1.15625c2.085938-.011719 4.054688-.953125 5.375-2.566406 1.320313-1.613282 1.847656-3.730469 1.445313-5.777344l-9.714844-49.238281c.222656-1.121094.332031-2.257813.328125-3.398438-.074219-8.730469-7.128906-15.785156-15.859375-15.863281h-.097656l-21.550781.316406c-.34375-3.921875-2.089844-7.585937-4.917969-10.324218-3.15625-3.09375-7.417969-4.800782-11.835938-4.742188l-21.191406.203125v-318.484375c0-3.867188-3.132813-7-7-7s-7 3.132812-7 7v318.585938l-22.828125.175781c-8.675781.078125-15.847656 6.789062-16.496094 15.441406l-21.753906.167969c-8.722656.074218-15.792969 7.105468-15.921875 15.828125v.148437c.078125.855469.226563 1.703125.445313 2.535156l-8.480469 49.992188c-.332031 2.046875.261719 4.132812 1.617187 5.699219 1.351563 1.566406 3.320313 2.460937 5.390625 2.457031zm151.027344-15.011719v-12.320312c0-3.863281-3.132813-7-7-7-3.863281 0-7 3.136719-7 7v12.414062l-15 .109375v-12.523437c0-3.863281-3.132813-7-7-7-3.863281 0-7 3.136719-7 7v12.617187l-16 .109375v-12.726562c0-3.863281-3.132813-7-7-7-3.863281 0-7 3.136719-7 7v12.824219l-16 .105468v-12.929687c0-3.863281-3.132813-7-7-7-3.863281 0-7 3.136719-7 7v13.03125l-15 .109375v-13.140625c0-3.863281-3.132813-7-7-7-3.863281 0-7 3.136719-7 7v13.230469l-10.554687.070312 5.3125-31.386719c1.160156.277344 2.351562.417969 3.542968.417969h.082032l134.351562-1.035156c1.195312-.011719 2.386719-.15625 3.546875-.433594l6 31.382812zm-133.746094-47.648437 28.492188-.222656c1.859375-.011719 3.632812-.765626 4.9375-2.089844 1.300781-1.324219 2.023437-3.113282 2.007812-4.972656l-.050781-5.628907c-.019531-1.503906 1.148438-2.761719 2.652344-2.84375l58.035156-.582031h.027344c.714844.035156 1.386718.359375 1.859375.898438.507812.53125.792969 1.238281.800781 1.976562l.046875 5.90625c.015625 3.894531 3.105469 7.082031 7 7.210938h.054687l28.480469-.457032c.476563-.03125.945313.132813 1.296875.457032.347656.324218.550782.777343.558594 1.257812.003906.191406-.035156.382812-.109375.5625-.261719.71875-.949219 1.195312-1.714844 1.1875l-134.332031 1h-.011719c-.78125 0-1.480469-.492188-1.746093-1.230469-.011719-.03125-.023438-.0625-.035157-.097656-.050781-.164063-.074219-.332031-.070312-.5.003906-1.007813.816406-1.824219 1.820312-1.832031zm0 0"/></g></svg>