<svg height="325pt" viewBox="-13 0 325 325.82924" width="325pt" xmlns="http://www.w3.org/2000/svg"><path d="m156.503906 6.964844 8.152344 19.398437-.03125.011719h-39.851562l-.277344-.632812zm0 0" fill="#fedb41"/><path d="m274.84375 78.464844c13.230469 3.441406 21.164062 16.960937 17.722656 30.1875l-49.910156 191.601562c-3.4375 13.230469-16.953125 21.167969-30.179688 17.71875l-17.59375-4.578125c12.941407-.933593 22.957032-11.707031 22.953126-24.679687v-180.449219l44.707031-33.011719zm0 0" fill="#00acea"/><path d="m257.355469 33.222656 18.789062 32.011719-13.601562 10.019531-44.707031 33.011719v-17.542969c.007812-8.160156-4.019532-15.796875-10.761719-20.398437l9.519531-7.03125zm0 0" fill="#fedb41"/><path d="m257.273438 32.972656.082031.25-40.761719 30.070313-9.519531 7.03125c-4.113281-2.839844-8.992188-4.355469-13.988281-4.351563h-12.710938l1.839844-2.289062 8.789062-10.839844-26.25-26.238281-.097656-.242188-8.152344-19.398437.179688-.191406zm0 0" fill="#00acea"/><path d="m217.835938 108.265625v180.449219c.003906 12.972656-10.011719 23.746094-22.953126 24.679687-.589843.050781-1.199218.070313-1.796874.070313h-80.441407v-221.480469l-.050781-.050781.050781-.058594 25.851563 25.847656 17.75-21.917968 24.128906-29.832032h12.710938c13.660156.019532 24.730468 11.089844 24.75 24.75zm0 0" fill="#00efd1"/><path d="m191.003906 52.84375-8.789062 10.839844-1.839844 2.289062-24.128906 29.832032-17.75 21.917968-25.851563-25.847656.398438-.390625-.398438-.5 20.25-25.011719 6.300781-7.777344 25.558594-31.589843zm0 0" fill="#fedb41"/><path d="m112.644531 90.984375-20.238281-25.011719-4.632812-5.707031-27.238282-33.660156.140625-.230469h103.949219l.03125-.011719.097656.242188-25.558594 31.589843-6.300781 7.777344zm0 0" fill="#00acea"/><path d="m112.644531 313.234375v.230469h-80.429687c-6.566406.003906-12.863282-2.601563-17.503906-7.246094-4.644532-4.640625-7.25-10.941406-7.246094-17.503906v-197.992188c-.003906-13.667968 11.078125-24.753906 24.75-24.75h12.710937l31.289063 38.671875 10.578125 13.078125 25.800781-25.789062.050781.050781zm0 0" fill="#00acea"/><path d="m92.40625 65.972656 20.238281 25.011719-.390625.5.390625.390625-.050781.058594-25.800781 25.789062-10.578125-13.078125-31.289063-38.671875-10.632812-13.128906 26.242187-26.238281 27.238282 33.660156zm0 0" fill="#fedb41"/><g fill="#083863"><path d="m178.234375 155.785156h-25.988281c-3.867188 0-7 3.132813-7 7 0 3.863282 3.132812 7 7 7h25.988281c3.867187 0 7-3.136718 7-7 0-3.867187-3.132813-7-7-7zm0 0"/><path d="m32.214844 320.785156h160.871094c.371093 0 .734374-.171875 1.089843-.183594l16.539063 4.226563c2.628906.675781 5.335937 1.011719 8.050781 1 14.433594-.058594 27.023437-9.828125 30.664063-23.800781l49.910156-191.609375c4.195312-16.246094-4.949219-32.957031-20.894532-38.179688l1.851563-1.367187c2.886719-2.125 3.699219-6.089844 1.882813-9.179688l-18.789063-32.011718c-.964844-1.640626-2.558594-2.816407-4.410156-3.253907l.058593-.226562-100.589843-26.199219-.0625.234375c-1.855469-.445313-3.8125-.121094-5.425781.898437l-31.441407 18.652344h-61.105469v-.171875c-1.867187-.058593-3.671874.683594-4.960937 2.039063l-26.171875 26.242187c-2.523438 2.542969-2.722656 6.578125-.460938 9.355469l1.4375 1.785156c-16.75 1.03125-29.816406 14.90625-29.84375 31.6875v197.992188c.015626 17.597656 14.203126 31.90625 31.800782 32.070312zm87.199218-14v-198.011718l14.015626 13.898437c1.335937 1.316406 3.132812 2.050781 5.007812 2.050781.121094 0 .273438 0 .398438-.007812 1.996093-.140625 3.84375-1.113282 5.089843-2.683594l39.789063-49.246094h9.367187c3.589844.027344 7.082031 1.148438 10.019531 3.210938v.042968c.003907 0-.199218.035157-.199218.035157 4.777344 3.335937 7.59375 8.824219 7.511718 14.648437v197.992188c.074219 9.246094-7.019531 16.976562-16.238281 17.699218l.605469 6.980469-.542969-6.8125c-.378906.089844-.765625.15625-1.152343.199219zm30.855469-273-37.625 46.484375-37.625-46.484375zm56.300781 28.210938c-3.636718-1.714844-7.566406-2.714844-11.582031-2.949219l1.453125-1.792969c2.257813-2.785156 2.046875-6.828125-.488281-9.359375l-25.277344-25.269531-2.347656-5.585938 73.296875 19.09375zm-41.265624-24.945313 16.289062 16.285157-43.648438 53.941406-16.292968-16.292969zm120.484374 69.839844-49.910156 191.601563c-1.171875 4.5625-4.117187 8.464843-8.1875 10.839843-3.828125 2.210938-8.332031 2.949219-12.667968 2.074219 6.070312-5.984375 9.457031-14.167969 9.390624-22.691406v-116.300782l9.757813 2.484376c.613281.152343 1.242187.226562 1.871094.226562 3.199219 0 5.996093-2.148438 6.824219-5.238281.472656-1.792969.210937-3.703125-.722657-5.304688-.9375-1.601562-2.46875-2.761719-4.265625-3.234375l-12.765625-3.261718c-.164062-.046876.300781-.074219-.699219-.101563v-46.1875l39.386719-28.925781 9.171875 2.367187c9.496094 2.46875 15.222656 12.136719 12.816406 21.652344zm-19.085937-43.550781-42.289063 31.054687v-3.671875c.078126-7.140625-2.277343-14.097656-6.671874-19.730468l37.300781-27.519532zm-113.554687-45.878906.976562 2.324218h-4.941406zm-93.164063 19.59375 43.65625 53.929687-16.300781 16.289063-43.644532-53.9375zm-45.570313 53.667968c.019532-9.84375 7.957032-17.84375 17.800782-17.9375h9.363281l39.773437 49.246094c1.242188 1.554688 3.085938 2.511719 5.074219 2.636719.121094.003906.246094.03125.367188.03125 1.820312.003906 3.566406-.730469 4.835937-2.035157l13.785156-13.878906v198h-73.199218c-9.871094-.160156-17.792969-8.199218-17.800782-18.070312zm0 0"/></g></svg>