<svg height="424pt" viewBox="0 -55 424.00068 424" width="424pt" xmlns="http://www.w3.org/2000/svg"><path d="m406.960938 186.960938-26.171876 104.6875c-2.226562 8.90625-10.226562 15.15625-19.410156 15.152343h-289.679687c-8.746094 0-16.476563-5.683593-19.089844-14.03125l-33.050781-105.757812c29.960937 1 30.820312 19.628906 62.441406 19.628906 4.863281.054687 9.714844-.480469 14.449219-1.601563l2.722656 2.722657 17.839844 17.828125 34.347656 34.359375c4.390625 4.410156 11.382813 4.847656 16.289063 1.019531 4.902343-3.832031 6.175781-10.71875 2.960937-16.046875l.332031-.203125 15.21875 15.230469c4.804688 4.804687 12.59375 4.800781 17.394532-.003907 4.804687-4.804687 4.800781-12.59375-.003907-17.394531l8.699219 8.699219c4.804688 4.804688 12.59375 4.804688 17.398438 0 4.808593-4.804688 4.808593-12.59375 0-17.398438l-13.046876-13.050781c4.800782 4.804688 12.589844 4.808594 17.394532.003907 4.804687-4.800782 4.804687-12.589844.003906-17.394532l-.648438-.648437c13.777344-5.730469 20.398438-15.800781 43.640626-15.800781 20.488281 0 28.066406 7.828124 39.007812 13.609374l.242188.03125c-.164063 1.125-.242188 2.261719-.242188 3.398438 0 13.808594 11.191406 25 25 25s25-11.191406 25-25c0-.792969-.039062-1.589844-.121094-2.378906 12.152344-5.820313 19.339844-14.652344 41.082032-14.660156zm-107.960938 60.039062c0-8.285156-6.714844-15-15-15s-15 6.714844-15 15 6.714844 15 15 15 15-6.714844 15-15zm0 0" fill="#00acea"/><path d="m396 109c0 8.285156-6.714844 15-15 15s-15-6.714844-15-15 6.714844-15 15-15 15 6.714844 15 15zm0 0" fill="#00efd1"/><path d="m381 30c0 12.703125-10.296875 23-23 23s-23-10.296875-23-23 10.296875-23 23-23 23 10.296875 23 23zm0 0" fill="#00efd1"/><path d="m365.878906 201.621094c.082032.789062.121094 1.585937.121094 2.378906 0 13.808594-11.191406 25-25 25s-25-11.191406-25-25c0-1.136719.078125-2.273438.242188-3.398438 1.71875-12.570312 12.585937-21.855468 25.273437-21.597656 12.683594.261719 23.160156 9.984375 24.363281 22.617188zm0 0" fill="#00efd1"/><path d="m316 114c0 14.910156-12.089844 27-27 27s-27-12.089844-27-27 12.089844-27 27-27 27 12.089844 27 27zm0 0" fill="#00efd1"/><path d="m299 247c0 8.285156-6.714844 15-15 15s-15-6.714844-15-15 6.714844-15 15-15 15 6.714844 15 15zm0 0" fill="#00efd1"/><path d="m129.808594 86.171875c13.53125-5.027344 28.75-1.703125 38.953125 8.507813l61.546875 61.539062c2.042968 2.042969 2.042968 5.351562 0 7.390625-9.96875 9.972656-26.136719 9.972656-36.109375 0l39.800781 39.800781c4.800781 4.804688 4.800781 12.59375-.003906 17.394532-4.804688 4.804687-12.59375 4.800781-17.394532-.003907l13.046876 13.050781c4.808593 4.804688 4.808593 12.59375 0 17.398438-4.804688 4.804688-12.59375 4.804688-17.398438 0l-8.699219-8.699219c4.804688 4.800781 4.808594 12.589844.003907 17.394531-4.800782 4.804688-12.589844 4.808594-17.394532.003907l-15.21875-15.230469-.332031.203125c3.214844 5.328125 1.941406 12.214844-2.960937 16.046875-4.90625 3.828125-11.898438 3.390625-16.289063-1.019531l-34.347656-34.359375-17.839844-17.828125-2.722656-2.722657-15.628907-15.640624c-8.484374-8.464844-12.90625-20.175782-12.128906-32.136719l-23.882812-23.882813c-9.605469-9.605468-9.605469-25.179687 0-34.789062l31.3125-31.308594c9.609375-9.609375 25.191406-9.609375 34.800781 0zm0 0" fill="#fedb41"/><path d="m237 60c0 8.285156-6.714844 15-15 15s-15-6.714844-15-15 6.714844-15 15-15 15 6.714844 15 15zm0 0" fill="#00efd1"/><g fill="#083863"><path d="m418.699219 140.007812c-3.75-.9375-7.550781 1.34375-8.488281 5.09375l-8.765626 35.0625c-14.648437 1.039063-23.058593 6.101563-30.554687 10.636719l-.558594.335938c-5.039062-11.457031-16.292969-18.933594-28.804687-19.128907-12.515625-.199218-24 6.914063-29.398438 18.207032-8.167968-4.929688-17.640625-10.253906-35.132812-10.253906-18.199219 0-27.714844 5.761718-36.117188 10.847656-2.039062 1.234375-4.019531 2.414062-6.074218 3.5l-16.765626-16.757813c6.527344-1.160156 12.539063-4.300781 17.21875-8.988281 4.777344-4.777344 4.777344-12.515625 0-17.292969l-61.546874-61.535156c-10.976563-10.949219-26.90625-15.316406-41.933594-11.5l-15.90625-15.902344c-12.34375-12.34375-32.359375-12.34375-44.699219 0l-31.3125 31.308594c-12.339844 12.339844-12.339844 32.351563 0 44.691406l21.761719 21.757813c.046875 12.851562 5.167968 25.164062 14.25 34.257812l5.273437 5.277344c-13.699219-.164062-20.355469-4.171875-28.019531-8.808594-7.082031-4.289062-15.03125-9.078125-28.304688-10.449218l-11.136718-35.652344c-1.152344-3.691406-5.078125-5.75-8.769532-4.597656-3.691406 1.152343-5.75 5.078124-4.597656 8.769531l45.613282 146.023437c3.488281 11.300782 13.941406 19.007813 25.769531 18.988282h289.679687c12.40625-.007813 23.210938-8.460938 26.203125-20.5l36.207031-144.871094c.941407-3.757813-1.335937-7.566406-5.089843-8.519532zm-95.519531 61.53125c1.242187-9.042968 9.066406-15.722656 18.191406-15.535156 9.128906.1875 16.671875 7.179688 17.542968 16.269532v.054687c.054688.554687.085938 1.113281.085938 1.671875 0 9.941406-8.058594 18-18 18s-18-8.058594-18-18c0-.824219.058594-1.644531.175781-2.460938zm-247.503907-43.839843c.355469-5.699219 2.117188-11.222657 5.128907-16.074219 2.042968-3.285156 1.039062-7.601562-2.246094-9.644531-3.28125-2.042969-7.597656-1.039063-9.640625 2.242187-1.761719 2.84375-3.21875 5.863282-4.355469 9.011719l-14.800781-14.800781c-6.875-6.871094-6.875-18.015625 0-24.886719l31.3125-31.3125c6.875-6.875 18.023437-6.875 24.898437 0l12.148438 12.148437c-2.332032 1.574219-4.507813 3.371094-6.5 5.359376-9.972656 9.929687-15.589844 23.414062-15.621094 37.488281v3.539062c0 3.867188 3.132812 7 7 7s7-3.132812 7-7v-3.539062c.03125-10.359375 4.167969-20.28125 11.5-27.601563 3.035156-3.050781 6.699219-5.402344 10.734375-6.898437 10.972656-4.046875 23.292969-1.355469 31.574219 6.898437l60.238281 60.226563c-7.375 6.0625-18.144531 5.542969-24.902344-1.199219l-.007812-.007812-3.25-3.253907h-.003907l-21.734374-21.742187c-1.3125-1.3125-3.09375-2.050782-4.949219-2.050782s-3.636719.738282-4.949219 2.050782c-6.160156 6.144531-16.132812 6.144531-22.292969 0-2.734375-2.734375-7.164062-2.734375-9.898437 0s-2.734375 7.164062 0 9.898437c9.722656 9.699219 24.816406 11.5 36.550781 4.363281l17.378906 17.386719h.003907l43.058593 43.058594c2.066407 2.070313 2.066407 5.429687-.003906 7.496094-2.070313 2.070312-5.429687 2.066406-7.496094-.003907l-51.75-51.75c-2.734375-2.734374-7.167969-2.734374-9.902343 0-2.730469 2.734376-2.730469 7.164063 0 9.898438l64.800781 64.800781c2.070312 2.070313 2.070312 5.429688 0 7.5-2.070313 2.070313-5.429688 2.070313-7.5 0l-8.710938-8.710937-13.019531-13.03125-.007812-.007813-43.0625-43.058593c-2.730469-2.734376-7.164063-2.734376-9.898438 0-2.734375 2.730468-2.734375 7.164062 0 9.898437l43.070312 43.070313 13.03125 13.039062v.007812l.011719.011719c.992188.992188 1.550781 2.339844 1.546875 3.746094-.003906 1.402344-.5625 2.75-1.558594 3.738281-2.070312 2.066406-5.421874 2.066406-7.488281 0l-15.222656-15.230468c-.28125-.28125-.589844-.535157-.917969-.765626-.398437-.484374-.816406-.957031-1.261718-1.398437l-30.011719-30.019531c-2.734375-2.734375-7.164063-2.734375-9.898438 0s-2.734375 7.167968 0 9.902344l30.011719 30.007812c.308594.308594.578125.65625.800781 1.035156 1.386719 2.296875.832031 5.269532-1.285156 6.917969s-5.132813 1.453125-7.023437-.457031l-70.539063-70.546875c-7.042969-7.058594-10.71875-16.796875-10.089844-26.75zm298.324219 132.300781c-1.4375 5.804688-6.640625 9.882812-12.621094 9.898438h-289.679687c-5.699219 0-10.730469-3.71875-12.40625-9.167969l-29.800781-95.410157c6.597656 1.578126 11.257812 4.378907 16.386718 7.484376 8.402344 5.085937 17.925782 10.839843 36.125 10.839843 4.082032.023438 8.15625-.304687 12.179688-.980469l52.226562 52.234376c7.539063 7.535156 19.761719 7.535156 27.300782 0 1.265624-1.269532 2.351562-2.710938 3.222656-4.28125l4.277344 4.28125c4.402343 4.414062 10.667968 6.425781 16.816406 5.402343 6.148437-1.027343 11.421875-4.964843 14.152344-10.566406 8.4375 4.308594 18.761718 1.855469 24.351562-5.792969 5.59375-7.652344 4.804688-18.230468-1.863281-24.964844 8.289062-4.585937 12.011719-14.519531 8.773437-23.421874 1.617188-.917969 3.164063-1.847657 4.683594-2.769532 7.824219-4.734375 14.578125-8.824218 28.867188-8.824218 14.285156 0 21.050781 4.089843 28.875 8.832031 1.027343.621093 2.074218 1.253906 3.148437 1.886719.359375 17.183593 14.230469 31.015624 31.414063 31.320312 17.1875.308594 31.542968-13.019531 32.515624-30.179688 1.800782-1 3.515626-2.03125 5.1875-3.039062 5.925782-3.585938 11.246094-6.769531 19.695313-8.117188zm0 0"/><path d="m328 30c0 16.570312 13.433594 30 30 30 16.570312 0 30-13.429688 30-30 0-16.566406-13.429688-30-30-30-16.558594.0195312-29.980469 13.441406-30 30zm46 0c0 8.835938-7.164062 16-16 16s-16-7.164062-16-16 7.164062-16 16-16c8.832031.011719 15.988281 7.167969 16 16zm0 0"/><path d="m289 148c18.777344 0 34-15.222656 34-34s-15.222656-34-34-34-34 15.222656-34 34c.019531 18.769531 15.230469 33.980469 34 34zm0-54c11.046875 0 20 8.953125 20 20s-8.953125 20-20 20-20-8.953125-20-20c.011719-11.039062 8.960938-19.988281 20-20zm0 0"/><path d="m200 60c0 12.152344 9.851562 22 22 22 12.152344 0 22-9.847656 22-22 0-12.148438-9.847656-22-22-22-12.144531.015625-21.984375 9.855469-22 22zm30 0c0 4.417969-3.582031 8-8 8s-8-3.582031-8-8 3.582031-8 8-8c4.417969.003906 7.996094 3.585938 8 8zm0 0"/><path d="m359 109c0 12.152344 9.851562 22 22 22 12.152344 0 22-9.847656 22-22 0-12.148438-9.847656-22-22-22-12.144531.015625-21.984375 9.855469-22 22zm30 0c0 4.417969-3.582031 8-8 8s-8-3.582031-8-8 3.582031-8 8-8c4.417969.003906 7.996094 3.585938 8 8zm0 0"/><path d="m284 225c-12.148438 0-22 9.851562-22 22 0 12.152344 9.851562 22 22 22 12.152344 0 22-9.847656 22-22-.011719-12.144531-9.855469-21.984375-22-22zm0 30c-4.417969 0-8-3.582031-8-8s3.582031-8 8-8 8 3.582031 8 8c-.003906 4.417969-3.582031 7.996094-8 8zm0 0"/></g></svg>