<svg height="468pt" viewBox="-67 0 468 468.04409" width="468pt" xmlns="http://www.w3.org/2000/svg"><g fill="#00acea"><path d="m323.011719 100.589844c7.191406 12.269531 4.496093 27.933594-6.378907 37.097656-10.871093 9.164062-26.765624 9.164062-37.640624 0s-13.566407-24.828125-6.378907-37.097656l25.199219-43.019532zm0 0"/><path d="m132.0625 382c-5.859375-15.050781-8.859375-31.058594-8.847656-47.210938v-56.367187l38.199218-20.351563 55.589844-29.621093 2.980469 1.628906 88.207031 48.34375v57.667969c-.035156 51.808594-30.730468 98.6875-78.207031 119.429687l-12.660156 5.519531-14.28125-6.167968c-32.550781-13.679688-58.160157-39.972656-70.980469-72.871094zm138.5-20.800781v-32.917969h-38.398438v-38.402344h-32.921874v38.402344h-38.398438v32.917969h38.398438v38.402343h32.921874v-38.402343zm0 0"/><path d="m138.464844 61.148438h-65.242188v-15.957032c0-21.113281 17.117188-38.230468 38.230469-38.230468h170.128906v13.808593l-87.617187.800781c-21.507813.351563-38.65625 18.074219-38.300782 39.578126zm0 0"/></g><path d="m270.5625 328.28125v32.917969h-38.398438v38.402343h-32.921874v-38.402343h-38.398438v-32.917969h38.398438v-38.402344h32.921874v38.402344zm0 0" fill="#00efd1"/><path d="m221.214844 227.839844-1.230469 2.238281-2.980469-1.628906-55.589844 29.621093-.390624-.742187v-23.328125h-95v148h66.039062c7.136719 18.328125 18.335938 34.800781 32.761719 48.171875l-.839844 2.128906h-118.019531c-21.507813 0-38.941406-17.433593-38.941406-38.941406v-165.519531c-.023438-32.039063 15.734374-62.03125 42.128906-80.191406h129.929687c26.394531 18.160156 42.152344 48.152343 42.132813 80.191406zm0 0" fill="#00efd1"/><path d="m177.402344 147.160156v.488282h-126.570313v-28.71875h126.570313zm0 0" fill="#00acea"/><path d="m162.804688 118.800781v.128907h-97.363282v-29.339844h97.363282zm0 0" fill="#00efd1"/><path d="m161.023438 257.328125.390624.742187-38.199218 20.351563v56.367187c-.011719 16.152344 2.988281 32.160157 8.847656 47.210938h-66.039062v-148h95zm0 0" fill="#fedb41"/><path d="m89.78125 61.148438h48.683594v28.441406h-48.683594zm0 0" fill="#fedb41"/><path d="m65.441406 83c-3.863281 0-7.417968 2.722656-7.417968 6.589844v22.410156h-7.191407c-1.828125-.007812-3.585937.722656-4.867187 2.027344-1.28125 1.304687-1.984375 3.074218-1.941406 4.902344v23.917968c-27.714844 19.402344-44.152344 51.160156-44.0000005 84.992188v165.519531c.0234375 12.148437 4.8828125 23.789063 13.5000005 32.351563 8.621093 8.5625 20.292968 13.34375 32.441406 13.289062h118.058594v-.199219c10.867187 9.308594 23.097656 16.894531 36.261718 22.5l14.269532 6.167969c1.777343.769531 3.792968.765625 5.570312-.007812l12.585938-5.527344c49.992187-21.882813 82.296874-71.273438 82.3125-125.84375v-57.667969c.035156-2.546875-1.328126-4.902344-3.550782-6.140625l-83.511718-45.679688c-.515626-33.3125-16.824219-64.398437-43.9375-83.753906v-23.917968c.082031-1.808594-.578126-3.570313-1.828126-4.878907-1.25-1.3125-2.980468-2.050781-4.792968-2.050781h-7.378906v-22.410156c0-3.867188-3.355469-6.589844-7.21875-6.589844h-17.78125v-15h10.640624c1.867188.035156 3.667969-.691406 4.988282-2.011719 1.320312-1.320312 2.046875-3.121093 2.011718-4.988281-.289062-17.613281 13.746094-32.132812 31.359376-32.4375l87.839843-.800781c3.882813-.015625 7.054688-3.109375 7.160157-6.992188v-13.808593c0-3.867188-3.574219-6.960938-7.441407-6.960938h-170.128906c-5.941406-.0078125-11.828125 1.15625-17.320313 3.425781-5.511718 2.269531-10.527343 5.597657-14.757812 9.792969-8.539062 8.449219-13.347656 19.960938-13.351562 31.972656v15.957032c.105468 3.875 3.324218 6.9375 7.199218 6.851562h9.800782v15zm235.582032 253.089844c-.019532 49.007812-29.03125 93.359375-73.921876 113.011718l-9.832031 4.304688-11.523437-4.984375c-30.769532-13.027344-55.007813-37.878906-67.257813-68.964844-5.582031-14.230469-8.453125-29.378906-8.464843-44.667969v-52.167968l86.753906-46.222656 84.246094 46.167968zm-147-82.015625-34.199219 18.167969c-2.304688 1.207031-3.761719 3.578124-3.800781 6.179687v56.367187c.050781 13.636719 2.140624 27.191407 6.199218 40.210938h-49.199218v-134h81zm60.003906-31.773438c-.105469.050781-.210938 0-.316406.058594l-45.6875 24.253906v-12.613281c0-3.867188-3.132813-7-7-7h-95c-3.867188 0-7 3.132812-7 7v148c0 3.867188 3.132812 7 7 7h61.355468c3.265625 7.542969 7.210938 14.777344 11.789063 21.609375 3.378906 5.082031 7.125 10.390625 11.175781 14.390625h-104.378906c-8.4375.058594-16.550782-3.246094-22.542969-9.183594-5.996094-5.9375-9.378906-14.019531-9.398437-22.457031v-165.519531c.015624-28.875 13.914062-55.976563 37.355468-72.839844h125.480469c21.796875 15.777344 35.421875 40.449219 37.167969 67.300781zm-44.003906-81.300781h-112v-15h112zm-14-29h-84v-15h84zm-76-66.808594c.09375-17.28125 14.148437-31.230468 31.429687-31.191406h149.269531l-66.871094.589844c-12.179687.132812-23.800781 5.140625-32.261718 13.902344-6.679688 7.019531-11.042969 15.925781-12.5 25.507812h-69.066406zm17 22.808594h34v15h-34zm0 0" fill="#083863"/><path d="m329.054688 97.050781-25.203126-43.019531c-1.253906-2.144531-3.554687-3.460938-6.039062-3.460938s-4.785156 1.316407-6.039062 3.460938l-25.199219 43.019531c-8.914063 15.210938-5.574219 34.628907 7.90625 45.992188 13.480469 11.359375 33.183593 11.359375 46.664062 0 13.480469-11.363281 16.820313-30.78125 7.910157-45.992188zm-15.542969 34.007813c-7.898438 7.898437-20.433594 8.699218-29.273438 1.867187-8.839843-6.828125-11.230469-19.160156-5.585937-28.796875l19.160156-32.710937 19.160156 32.710937c5.105469 8.71875 3.683594 19.785156-3.460937 26.929688zm0 0" fill="#083863"/><path d="m192.023438 289.878906v31.121094h-31.179688c-3.882812.148438-6.925781 3.394531-6.820312 7.28125v32.917969c-.035157 1.816406.675781 3.570312 1.960937 4.851562 1.289063 1.285157 3.042969 1.988281 4.859375 1.949219h31.179688v31.601562c.070312 3.984376 3.234374 7.230469 7.21875 7.398438h32.921874c3.863282 0 6.859376-3.535156 6.859376-7.398438v-31.601562h31.539062c3.867188 0 7.460938-2.933594 7.460938-6.800781v-32.917969c-.191407-4.007812-3.449219-7.1875-7.460938-7.28125h-31.539062v-31.121094c.027343-1.828125-.6875-3.589844-1.976563-4.886718-1.292969-1.296876-3.054687-2.015626-4.882813-1.992188h-32.921874c-3.882813-.074219-7.105469 2.996094-7.21875 6.878906zm14 38.402344v-31.28125h19v31.28125c.042968 1.839844.824218 3.589844 2.164062 4.851562 1.34375 1.261719 3.132812 1.933594 4.976562 1.867188h31.859376v19h-31.859376c-3.933593.082031-7.089843 3.265625-7.140624 7.199219v31.800781h-19v-31.800781c.117187-3.859375-2.917969-7.085938-6.78125-7.199219h-31.21875v-19h31.21875c1.804687.054688 3.550781-.632812 4.835937-1.902344 1.28125-1.273437 1.984375-3.011718 1.945313-4.816406zm0 0" fill="#083863"/></svg>