<svg height="467pt" viewBox="0 -3 467.00341 467" width="467pt" xmlns="http://www.w3.org/2000/svg"><path d="m460.5 377.152344v65c0 5.523437-4.476562 10-10 10h-206c-5.523438 0-10-4.476563-10-10v-65c0-5.523438 4.476562-10 10-10h93v26h-44.851562c-3.25.003906-5.886719 2.636718-5.886719 5.890625v21.210937c0 3.253906 2.632812 5.894532 5.886719 5.898438h109.703124c3.253907-.003906 5.886719-2.644532 5.886719-5.898438v-21.210937c0-3.253907-2.636719-5.886719-5.886719-5.890625h-44.851562v-26h93c5.523438 0 10 4.476562 10 10zm0 0" fill="#00efd1"/><path d="m408.238281 399.042969v21.210937c0 3.253906-2.632812 5.894532-5.886719 5.898438h-109.703124c-3.253907-.003906-5.886719-2.644532-5.886719-5.898438v-21.210937c0-3.253907 2.636719-5.886719 5.886719-5.890625h44.851562v5.851562c0 5.519532 4.476562 10 10 10s10-4.480468 10-10v-5.851562h44.851562c3.25.003906 5.886719 2.636718 5.886719 5.890625zm0 0" fill="#00acea"/><path d="m337.5 393.152344v-51.148438h20v57c0 5.519532-4.476562 10-10 10s-10-4.480468-10-10zm0 0" fill="#fedb41"/><path d="m347.5 107.003906h-10v-23.851562h20v23.851562zm0 0" fill="#fedb41"/><path d="m337.5 59.152344h20v24h-20zm0 0" fill="#00acea"/><path d="m357.5 17.003906v42.148438h-20v-42.148438c0-5.523437 4.476562-10 10-10s10 4.476563 10 10zm0 0" fill="#00efd1"/><path d="m204.710938 261.722656h7.078124c8.675782 0 15.710938 7.035156 15.710938 15.710938v9.949218c0 .621094-.011719 1.230469-.019531 1.839844h-124.121094v-11.789062c-.003906-4.167969 1.652344-8.167969 4.597656-11.113282 2.949219-2.945312 6.945313-4.601562 11.113281-4.597656zm0 0" fill="#00acea"/><path d="m209.171875 289.222656-7.792969 69.320313c.011719.007812 0 .007812 0 .007812-15.726562 18.558594-37.167968 31.375-60.957031 36.441407l-.292969.082031c-1.058594-4.035157-4.707031-6.851563-8.878906-6.851563h-27.5c-4.164062 0-7.804688 2.804688-8.871094 6.828125-23.914062-5.011719-45.46875-17.863281-61.257812-36.507812l-7.792969-69.320313h61.03125v65.71875c-.054687 4.566406 3.53125 8.34375 8.089844 8.53125 2.214843.039063 4.355469-.808594 5.9375-2.359375 1.582031-1.554687 2.472656-3.675781 2.472656-5.890625v-66zm0 0" fill="#00efd1"/><path d="m171.710938 259.710938c.011718-9.113282 7.40625-16.488282 16.519531-16.480469 9.113281.011719 16.492187 7.410156 16.480469 16.523437v1.96875h-33v-.390625c0-.539062-.011719-1.078125-.039063-1.621093zm0 0" fill="#00acea"/><path d="m201.378906 358.550781-8.898437 79.160157c-.933594 9.375-8.820313 16.511718-18.242188 16.511718h-113.476562c-9.421875 0-17.308594-7.136718-18.242188-16.511718l-8.898437-79.167969c15.789062 18.644531 37.34375 31.496093 61.257812 36.507812-.203125.761719-.300781 1.546875-.300781 2.332031 0 5.0625 4.105469 9.171876 9.171875 9.167969h27.5c5.066406.003907 9.171875-4.101562 9.171875-9.167969 0-.78125-.097656-1.554687-.292969-2.308593l.292969-.082031c23.789063-5.066407 45.230469-17.882813 60.957031-36.441407zm0 0" fill="#00efd1"/><path d="m203.929688 216.933594c0 7.59375-6.15625 13.75-13.75 13.75s-13.75-6.15625-13.75-13.75 6.15625-13.75 13.75-13.75 13.75 6.15625 13.75 13.75zm0 0" fill="#00acea"/><path d="m171.710938 261.332031v.390625h-52.640626c-3.390624-.007812-6.6875 1.089844-9.398437 3.121094l-.8125-.761719c0-.90625-.085937-1.808593-.257813-2.699219l.257813-.050781c.003906-17.039062 13.582031-30.972656 30.617187-31.410156 17.03125-.441406 31.3125 12.773437 32.195313 29.789063.027344.542968.039063 1.082031.039063 1.621093zm0 0" fill="#00acea"/><path d="m94.878906 395.050781c1.066406-4.023437 4.707032-6.828125 8.871094-6.828125h27.5c5.0625 0 9.164062 4.101563 9.164062 9.164063s-4.101562 9.164062-9.164062 9.164062h-27.5c-5.066406.003907-9.171875-4.105469-9.171875-9.167969 0-.785156.097656-1.570312.300781-2.332031zm0 0" fill="#fedb41"/><path d="m108.859375 264.082031.8125.761719c-3.976563 2.960938-6.316406 7.628906-6.3125 12.589844v77.789062c0 2.214844-.890625 4.335938-2.472656 5.890625-1.582031 1.550781-3.722657 2.398438-5.9375 2.359375-4.558594-.1875-8.144531-3.964844-8.089844-8.53125v-77.507812c.003906-5.226563-2.59375-10.113282-6.929687-13.03125l.640624-.320313c0-7.8125 6.332032-14.144531 14.144532-14.144531s14.144531 6.332031 14.144531 14.144531zm0 0" fill="#00acea"/><path d="m93.140625 206.332031c0 6.074219-4.925781 11-11 11s-11-4.925781-11-11 4.925781-11 11-11 11 4.925781 11 11zm0 0" fill="#00acea"/><path d="m79.78125 264.300781c.046875.039063.097656.070313.148438.101563 4.335937 2.917968 6.933593 7.804687 6.929687 13.03125v11.789062h-79.339844c-.007812-.609375-.019531-1.230468-.019531-1.839844v-9.949218c0-8.675782 7.035156-15.710938 15.710938-15.710938h47.929687c3.070313-.003906 6.074219.890625 8.640625 2.578125zm0 0" fill="#00acea"/><path d="m56.210938 241.113281c12.871093-.003906 23.363281 10.320313 23.570312 23.1875-2.566406-1.6875-5.570312-2.582031-8.640625-2.578125h-38.3125c1.492187-11.777344 11.511719-20.609375 23.382813-20.609375zm0 0" fill="#00acea"/><g fill="#083863"><path d="m26.898438 361.363281 8.660156 77.234375c1.234375 13.011719 12.132812 22.964844 25.203125 23.015625h113.476562c13.042969-.039062 23.933594-9.945312 25.203125-22.925781l8.667969-77.226562c16.410156-20.234376 25.59375-45.367188 26.101563-71.410157.027343-.257812-.199219-.566406-.199219-.828125v-11.789062c-.011719-12.519532-9.699219-22.820313-22.222657-22.820313h-.628906c-2-8.335937-8.261718-14.996093-16.460937-17.5 10.078125-2.316406 16.886719-11.730469 15.929687-22.027343-.953125-10.292969-9.375-18.292969-19.707031-18.71875-10.328125-.425782-19.382813 6.855468-21.175781 17.039062-1.796875 10.179688 4.214844 20.121094 14.066406 23.257812-3.871094.738282-7.488281 2.441407-10.523438 4.949219-7.363281-12.320312-20.972656-19.507812-35.296874-18.648437-14.324219.863281-26.972657 9.636718-32.804688 22.746094-7.527344-4.308594-16.925781-3.566407-23.683594 1.878906-6.445312-9.628906-17.789062-14.773438-29.277344-13.285156-11.492187 1.488281-21.148437 9.355468-24.925781 20.308593h-4.089843c-12.523438 0-23.210938 10.300781-23.210938 22.820313v11.789062c0 .261719.269531.519532.300781.777344.6875 26.082031 10.046875 51.191406 26.597657 71.363281zm-11.992188-64.75h4.667969l3.664062 32.605469c-4.511719-10.351562-7.324219-21.359375-8.332031-32.605469zm79.992188 73.859375h.238281c3.945312.007813 7.730469-1.570312 10.5-4.378906 2.871093-2.878906 4.449219-6.804688 4.363281-10.871094v-58.609375h91.339844l-6.667969 59.152344c-13.53125 15.308594-31.28125 26.28125-51.023437 31.546875-3.082032-3.644531-7.625-5.734375-12.398438-5.699219h-27.5c-4.265625-.082031-8.382812 1.554688-11.433594 4.535157-.339844.339843-.65625.597656-.964844.96875-19.726562-5.164063-37.480468-16.054688-51.023437-31.304688l-6.667969-59.199219h46.339844v58.328125c-.0625 8.359375 6.546875 15.246094 14.898438 15.53125zm125.195312-73.859375c-1.007812 11.246094-3.820312 22.257813-8.332031 32.613281l3.664062-32.613281zm-86.671875 100.769531c-.003906.585938-.230469 1.148438-.640625 1.570313-.402344.417969-.953125.65625-1.53125.660156h-27.5c-.675781-.015625-1.304688-.335937-1.714844-.875-.40625-.535156-.550781-1.230469-.386718-1.882812.101562-.3125.296874-.585938.558593-.785157.441407-.339843.988281-.5 1.542969-.457031h27.5c.945312-.074219 1.8125.511719 2.101562 1.410157.042969.117187.066407.238281.070313.359374zm52.097656 39.832032c-.542969 5.84375-5.414062 10.332031-11.28125 10.398437h-113.476562c-5.898438-.082031-10.773438-4.613281-11.285157-10.488281l-6.695312-59.648438c13.167969 10.929688 28.570312 18.84375 45.121094 23.191407 1.535156 7.53125 8.160156 12.941406 15.847656 12.945312h27.5c7.699219-.027343 14.320312-5.457031 15.851562-13 16.542969-4.328125 31.941407-12.222656 45.117188-23.128906zm34.480469-159.78125v5.179687h-110v-5.179687c.054688-2.796875 1.417969-5.402344 3.683594-7.039063 1.5625-1.148437 3.449218-1.769531 5.386718-1.78125h92.71875c4.804688 0 8.210938 4.015625 8.210938 8.820313zm-29.820312-67.25c3.726562 0 6.75 3.019531 6.75 6.75 0 3.726562-3.023438 6.75-6.75 6.75-3.726563 0-6.75-3.023438-6.75-6.75.003906-3.726563 3.023437-6.746094 6.75-6.75zm-1.96875 39.957031c3.304687-.136719 6.414062 1.589844 8.042968 4.472656h-16.085937c1.628906-2.882812 4.734375-4.605469 8.042969-4.472656zm-47.921876-13.292969c10.890626.105469 20.4375 7.316406 23.511719 17.765625h-44.730469c-.78125.011719-1.558593.066407-2.332031.15625 2.929688-10.585937 12.566407-17.917969 23.550781-17.921875zm-45.578124 20.085938c3.421874 0 6.367187 2.429687 7.019531 5.789062 0 .019532-.175781.035156-.175781.050782-3.511719 4.085937-5.476563 9.273437-5.554688 14.660156v77.789062c0 .429688-.023438.722656-.191406.886719-.167969.246094-.445313.382813-.738282.363281-.65625-.011718-1.070312-.726562-1.070312-1.53125v-77.507812c-.023438-5.703125-2.1875-11.1875-6.066406-15.371094.863281-3.027344 3.625-5.121094 6.777344-5.128906zm-38.5-8.929688c5.1875.015625 10.070312 2.460938 13.1875 6.609375h-26.414063c3.132813-4.148437 8.027344-6.59375 13.226563-6.609375zm-42.210938 29.429688c0-4.800782 4.40625-8.820313 9.210938-8.820313h47.929687c1.664063.015625 3.292969.507813 4.6875 1.414063.101563.070312.261719.15625.34375.207031 2.375 1.632813 3.804687 4.320313 3.828125 7.203125v5.175781h-66zm0 0"/><path d="m82.140625 224.332031c9.941406 0 18-8.058593 18-18 0-9.941406-8.058594-18-18-18s-18 8.058594-18 18c.011719 9.9375 8.0625 17.988281 18 18zm0-22c2.207031 0 4 1.792969 4 4 0 2.210938-1.792969 4-4 4-2.210937 0-4-1.789062-4-4 0-2.207031 1.789063-4 4-4zm0 0"/><path d="m99.429688 192.902344c1.855468.003906 3.636718-.734375 4.949218-2.050782l9.820313-9.820312c2.734375-2.734375 2.734375-7.164062 0-9.898438-2.734375-2.734374-7.167969-2.734374-9.898438 0l-9.824219 9.820313c-2 2-2.601562 5.011719-1.515624 7.628906 1.082031 2.613281 3.636718 4.320313 6.46875 4.320313zm0 0"/><path d="m46.550781 221.492188c2.734375 2.734374 7.164063 2.734374 9.898438 0 2.734375-2.734376 2.734375-7.167969 0-9.898438l-9.039063-9.042969c-2.734375-2.730469-7.167968-2.730469-9.898437 0-2.734375 2.734375-2.734375 7.167969 0 9.902344zm0 0"/><path d="m200.96875 194.457031c2.917969 2.535157 7.339844 2.226563 9.875-.695312l7.730469-8.898438c1.652343-1.886719 2.167969-4.511719 1.351562-6.882812-.8125-2.371094-2.832031-4.128907-5.292969-4.601563-2.464843-.472656-4.992187.40625-6.628906 2.304688l-7.730468 8.898437c-2.535157 2.917969-2.222657 7.339844.695312 9.875zm0 0"/><path d="m146.339844 212.851562c2.734375 2.734376 7.167968 2.734376 9.902344 0 2.734374-2.734374 2.734374-7.164062 0-9.898437l-7.859376-7.859375c-2.734374-2.734375-7.167968-2.734375-9.902343 0-2.734375 2.730469-2.734375 7.164062 0 9.898438zm0 0"/><path d="m227 377.152344v65c.207031 9.570312 7.929688 17.273437 17.5 17.460937h206c9.375 0 16.5-8.085937 16.5-17.460937v-65c.089844-4.40625-1.617188-8.660156-4.730469-11.78125s-7.363281-4.839844-11.769531-4.757813h-86.5v-18.609375c0-3.867187-2.632812-7.390625-6.5-7.390625h-3.5v-221h3.5c1.761719.066407 3.472656-.609375 4.710938-1.867187 1.238281-1.257813 1.886718-2.980469 1.789062-4.742188v-90c.105469-4.480468-1.601562-8.8125-4.730469-12.023437-4.898437-4.859375-12.234375-6.3125-18.621093-3.691407-6.382813 2.621094-10.578126 8.8125-10.648438 15.714844v90c0 3.863282 3.632812 6.609375 7.5 6.609375h2.5v221h-2.5c-4.039062.140625-7.296875 3.351563-7.5 7.390625v18.609375h-85.5c-9.375 0-17.5 7.164063-17.5 16.539063zm117-286.539063h6v9h-6zm0-14v-10h6v10zm3.25-62.609375c.761719-.007812 1.492188.308594 2 .878906.515625.582032.785156 1.34375.75 2.121094v35.609375h-6v-35.609375c.121094-1.703125 1.542969-3.015625 3.25-3zm-16.695312 386.609375c.289062 4.027344 2.039062 7.8125 4.925781 10.640625 3.167969 3.230469 7.492187 5.066406 12.019531 5.097656 8.984375 0 16.347656-7.734374 16.941406-15.734374h36.558594v19h-107v-19.003907zm19.445312-52v50.390625c.054688.765625-.207031 1.523438-.730469 2.089844-.519531.570312-1.25.898438-2.019531.910156-.832031-.007812-1.632812-.320312-2.246094-.878906-.605468-.542969-.964844-1.308594-1-2.121094v-50.390625zm-20 38h-37.351562c-3.34375-.09375-6.578126 1.179688-8.964844 3.523438-2.386719 2.347656-3.714844 5.5625-3.683594 8.90625v21.210937c0 7.113282 5.542969 13.359375 12.648438 13.359375h109.703124c7.105469 0 12.648438-6.246093 12.648438-13.359375v-21.210937c.03125-3.34375-1.296875-6.558594-3.683594-8.90625-2.386718-2.34375-5.621094-3.617188-8.964844-3.523438h-38.351562v-12h86.5c.691406-.085937 1.386719.15625 1.875.652344.488281.5.71875 1.195313.625 1.886719v65c0 1.652344-.847656 3.460937-2.5 3.460937h-206c-1.839844-.175781-3.304688-1.621093-3.5-3.460937v-65c0-1.652344 1.847656-2.539063 3.5-2.539063h85.5zm0 0"/><path d="m260.5 400.613281h4c3.867188 0 7-3.136719 7-7 0-3.867187-3.132812-7-7-7h-4c-3.867188 0-7 3.132813-7 7 0 3.863281 3.132812 7 7 7zm0 0"/><path d="m260.5 433.613281h4c3.867188 0 7-3.136719 7-7 0-3.867187-3.132812-7-7-7h-4c-3.867188 0-7 3.132813-7 7 0 3.863281 3.132812 7 7 7zm0 0"/><path d="m430.5 400.613281h4c3.867188 0 7-3.136719 7-7 0-3.867187-3.132812-7-7-7h-4c-3.867188 0-7 3.132813-7 7 0 3.863281 3.132812 7 7 7zm0 0"/><path d="m430.5 433.613281h4c3.867188 0 7-3.136719 7-7 0-3.867187-3.132812-7-7-7h-4c-3.867188 0-7 3.132813-7 7 0 3.863281 3.132812 7 7 7zm0 0"/></g></svg>