<svg height="459pt" viewBox="-109 0 459 459.57" width="459pt" xmlns="http://www.w3.org/2000/svg"><path d="m233.285156 373.140625v69c0 5.523437-4.476562 10-10 10h-206c-5.523437 0-10-4.476563-10-10v-69c0-5.523437 4.476563-10 10-10h93v26h-44.851562c-3.253906.003906-5.886719 2.644531-5.886719 5.898437v25.199219c0 3.257813 2.632813 5.894531 5.886719 5.902344h109.703125c3.253906-.007813 5.886719-2.644531 5.886719-5.902344v-25.199219c0-3.253906-2.632813-5.894531-5.886719-5.898437h-44.851563v-26h93c5.523438 0 10 4.476563 10 10zm0 0" fill="#00efd1"/><path d="m181.023438 395.039062v25.199219c0 3.257813-2.632813 5.894531-5.886719 5.902344h-109.703125c-3.253906-.007813-5.886719-2.644531-5.886719-5.902344v-25.199219c0-3.253906 2.632813-5.894531 5.886719-5.898437h44.851562v5.859375c0 5.523438 4.476563 10 10 10 5.523438 0 10-4.476562 10-10v-5.859375h44.851563c3.253906.003906 5.886719 2.644531 5.886719 5.898437zm0 0" fill="#00acea"/><path d="m110.285156 389.140625v-54.140625h20v60c0 5.523438-4.476562 10-10 10-5.523437 0-10-4.476562-10-10zm0 0" fill="#fedb41"/><path d="m120.285156 107h-10v-23.859375h20v23.859375zm0 0" fill="#00acea"/><path d="m110.285156 59.140625h20v24h-20zm0 0" fill="#fedb41"/><path d="m130.285156 17v42.140625h-20v-42.140625c0-5.523438 4.476563-10 10-10 5.523438 0 10 4.476562 10 10zm0 0" fill="#00acea"/><g fill="#083863"><path d="m17.285156 459.570312h206c9.375 0 17-8.054687 17-17.429687v-69c-.023437-4.464844-1.835937-8.730469-5.03125-11.84375-3.195312-3.117187-7.507812-4.820313-11.96875-4.726563h-86v-21.570312c0-3.867188-3.132812-7.429688-7-7.429688h-3v-214h3c3.867188 0 7-2.699218 7-6.570312v-90c0-9.390625-7.609375-17-17-17-9.382812.0117188-16.988281 7.617188-17 17v90c0 3.867188 3.132813 6.570312 7 6.570312h3v214h-3c-3.867187 0-7 3.5625-7 7.429688v21.570312h-86c-4.460937-.09375-8.773437 1.609376-11.96875 4.726563-3.195312 3.113281-5.007812 7.378906-5.03125 11.84375v69c0 9.375 7.625 17.429687 17 17.429687zm100-369h6v9h-6zm0-14v-10h6v10zm3-62.570312c.800782 0 1.570313.320312 2.132813.894531.558593.554688.871093 1.316407.867187 2.105469v35.570312h-6v-35.570312c0-1.65625 1.34375-3 3-3zm-16.945312 382.570312c.285156 4.035157 2.039062 7.828126 4.925781 10.664063 3.167969 3.230469 7.496094 5.058594 12.019531 5.089844 8.988282 0 16.351563-7.753907 16.941406-15.753907h37.058594v23h-108v-23zm13.945312-55h6v53.429688c0 1.65625-1.34375 3-3 3s-3-1.34375-3-3zm-103 31.570313c0-1.65625 1.347656-2.570313 3-2.570313h86v12h-37.851562c-7.105469 0-13.148438 5.355469-13.148438 12.46875v25.199219c.09375 7.253907 5.898438 13.140625 13.148438 13.332031h109.703125c7.25-.191406 13.054687-6.078124 13.148437-13.332031v-25.199219c0-7.113281-6.042968-12.46875-13.148437-12.46875h-37.851563v-12h86c1.652344 0 3 .914063 3 2.570313v69c0 1.652344-1.347656 3.429687-3 3.429687h-206c-1.652344 0-3-1.777343-3-3.429687zm0 0"/><path d="m33.285156 396.570312h4c3.867188 0 7-3.132812 7-7 0-3.867187-3.132812-7-7-7h-4c-3.867187 0-7 3.132813-7 7 0 3.867188 3.132813 7 7 7zm0 0"/><path d="m33.285156 433.570312h4c3.867188 0 7-3.132812 7-7 0-3.867187-3.132812-7-7-7h-4c-3.867187 0-7 3.132813-7 7 0 3.867188 3.132813 7 7 7zm0 0"/><path d="m203.285156 396.570312h4c3.867188 0 7-3.132812 7-7 0-3.867187-3.132812-7-7-7h-4c-3.867187 0-7 3.132813-7 7 0 3.867188 3.132813 7 7 7zm0 0"/><path d="m203.285156 433.570312h4c3.867188 0 7-3.132812 7-7 0-3.867187-3.132812-7-7-7h-4c-3.867187 0-7 3.132813-7 7 0 3.867188 3.132813 7 7 7zm0 0"/></g></svg>