<svg height="386pt" viewBox="0 -13 386.00077 386" width="386pt" xmlns="http://www.w3.org/2000/svg"><path d="m330.289062 119c-.597656 59.671875-26.558593 107.691406-58.507812 107.691406-32.332031 0-58.539062-49.179687-58.539062-109.839844 0-60.660156 26.207031-109.851562 58.539062-109.851562 32.328125 0 58.527344 49.179688 58.527344 109.851562 0 .71875 0 1.429688-.019532 2.148438zm-39.167968 0c.027344-.710938.039062-1.429688.039062-2.148438 0-20.160156-8.679687-36.492187-19.378906-36.492187s-19.390625 16.332031-19.390625 36.492187c0 20.160157 8.679687 36.480469 19.390625 36.480469 10.320312 0 18.757812-15.183593 19.339844-34.332031zm0 0" fill="#00acea"/><path d="m291.121094 119c-.582032 19.148438-9.019532 34.332031-19.339844 34.332031-10.710938 0-19.390625-16.332031-19.390625-36.480469 0-20.152343 8.679687-36.492187 19.390625-36.492187s19.378906 16.332031 19.378906 36.492187c0 .71875-.011718 1.4375-.039062 2.148438zm0 0" fill="#fedb41"/><path d="m120.121094 7h151.660156c-32.332031 0-58.539062 49.179688-58.539062 109.851562v66.128907h-206.34375v-65.75c0-60.820313 52.410156-110.230469 113.222656-110.230469zm0 0" fill="#00efd1"/><path d="m271.78125 226.691406h-58.539062v-109.839844c0 60.660157 26.207031 109.839844 58.539062 109.839844zm0 0" fill="#00efd1"/><path d="m213.242188 226.691406v106.308594l-25.421876 20-25.421874-20-25.417969 20-25.421875-20-25.417969 20-25.410156-20-25.421875 20-28.410156-20v-150.019531h206.34375zm0 0" fill="#00acea"/><path d="m386 119v-29c0-3.867188-3.132812-7-7-7s-7 3.132812-7 7v22h-34.746094c-1.355468-61.839844-28.253906-109.898438-63.253906-111.9257812v-.0742188h-153.878906c-31.464844.0273438-61.675782 12.320312-84.222656 34.269531-23.179688 22.34375-35.898438 51.804688-35.898438 82.960938v215.769531c-.0195312 2.269531 1.070312 4.40625 2.921875 5.722656l28.382813 20c2.523437 1.78125 5.917968 1.691406 8.34375-.222656l21.085937-16.589844 21.078125 16.589844c2.539062 2 6.117188 2 8.65625 0l21.089844-16.59375 21.09375 16.59375c2.539062 2 6.117187 2 8.65625 0l21.089844-16.59375 21.09375 16.59375c2.539062 2 6.117187 2 8.65625 0l25.300781-20c1.65625-1.339844 2.597656-3.371094 2.550781-5.5v-99h51.78125c34.78125 0 62.761719-47.074219 65.324219-108h42c1.84375-.003906 3.613281-.746094 4.90625-2.0625 1.296875-1.3125 2.011719-3.09375 1.988281-4.9375zm-340.386719-74.652344c19.941407-19.425781 46.667969-30.316406 74.507813-30.347656h120.078125c-20.394531 19.589844-34.199219 57.875-34.199219 102.851562v59.148438h-192v-58.769531c0-27.316407 11.199219-53.203125 31.613281-72.882813zm142.085938 299.746094-21.03125-16.59375c-2.527344-2-6.097657-2-8.625 0l-21.078125 16.59375-21.085938-16.59375c-2.535156-2-6.113281-2-8.652344 0l-21.085937 16.59375-21.082031-16.59375c-2.539063-1.996094-6.117188-1.996094-8.65625 0l-21.273438 16.777344-21.128906-14.910156v-139.367188h192v139.601562zm32.300781-124.09375v-30.167969c6 12.222657 12.429688 22.167969 20.199219 30.167969zm86.640625-28.117188c-9.730469 17.929688-22.109375 27.808594-34.859375 27.808594-27.9375 0-51.539062-47.097656-51.539062-102.839844 0-55.746093 23.601562-102.851562 51.539062-102.851562 27.117188 0 50.148438 44.398438 51.46875 98h-25.242188c-1.371093-22.339844-12.1875-38.640625-26.226562-38.640625-15.046875 0-26.390625 18.699219-26.390625 43.492187 0 24.789063 11.34375 43.480469 26.390625 43.480469 13.132812 0 23.433594-14.109375 25.835938-34.332031h25.464843c-1.128906 25.070312-6.882812 48.253906-16.441406 65.882812zm-47.066406-79.882812c1.160156-15.1875 7.625-24.640625 12.207031-24.640625s11.035156 9.453125 12.199219 24.640625zm23.890625 14c-1.960938 12.605469-7.699219 20.332031-11.683594 20.332031-4.132812 0-9.792969-7.6875-11.71875-20.332031zm0 0" fill="#083863"/></svg>