<svg height="412pt" viewBox="-79 0 412 412.88" width="412pt" xmlns="http://www.w3.org/2000/svg"><path d="m236.175781 27.289062c6.222657 0 11.265625 5.042969 11.265625 11.265626 0 6.222656-5.042968 11.265624-11.265625 11.265624h-56.339843v-22.53125zm0 0" fill="#00acea"/><path d="m236.175781 49.820312c6.226563 0 11.269531 5.046876 11.269531 11.269532s-5.042968 11.269531-11.269531 11.269531h-56.339843v-22.539063zm0 0" fill="#00efd1"/><path d="m236.175781 72.359375c6.222657 0 11.265625 5.042969 11.265625 11.265625s-5.042968 11.265625-11.265625 11.265625h-56.339843v-22.53125zm0 0" fill="#00acea"/><path d="m236.175781 94.890625c6.226563 0 11.269531 5.046875 11.269531 11.269531s-5.042968 11.269532-11.269531 11.269532h-56.339843v-22.539063zm0 0" fill="#00efd1"/><path d="m115.617188 34.050781v281.6875l-33.929688 32.363281h-39.761719l-34.480469-32.363281v-281.6875zm0 0" fill="#00acea"/><path d="m7.445312 7h108.171876v27.050781h-108.171876zm0 0" fill="#fedb41"/><path d="m93.078125 372.070312-11.261719 33.808594h-39.890625l-11.269531-33.808594zm0 0" fill="#00acea"/><path d="m81.816406 348.101562v23.96875h-39.890625v-23.96875zm0 0" fill="#00efd1"/><g fill="#083863"><path d="m120.179688 320.804688c1.410156-1.308594 2.230468-3.136719 2.265624-5.066407v-308.738281c.023438-1.792969-.699218-3.515625-1.992187-4.757812-1.292969-1.242188-3.042969-1.894532-4.835937-1.800782h-108.171876c-3.863281 0-7 2.691406-7 6.558594v308.738281c-.085937 1.902344.628907 3.753907 1.972657 5.101563l32.027343 30.292968v14.308594h-3.789062c-2.222656-.085937-4.347656.929688-5.675781 2.714844-1.328125 1.789062-1.6875 4.113281-.964844 6.21875l11.273437 33.546875c.980469 2.796875 3.671876 4.628906 6.636719 4.519531h39.890625c2.976563.09375 5.664063-1.757812 6.644532-4.570312l11.257812-33.699219c.710938-2.054687.351562-4.332031-.964844-6.066406-1.34375-1.761719-3.460937-2.757813-5.675781-2.664063h-4.632813v-14.46875zm-11.734376-306.363282v13h-94v-13zm-94 27h94v271.296875l-29.558593 28.703125h-34.1875l-30.253907-28.730468zm62.324219 357h-29.800781l-6.597656-19h43zm-28.324219-33v-10h26v10zm0 0"/><path d="m45.445312 260.609375c3.867188 0 7-3.132813 7-7v-152.109375c0-3.867188-3.132812-7-7-7-3.863281 0-7 3.132812-7 7v152.109375c0 3.867187 3.136719 7 7 7zm0 0"/><path d="m77.445312 260.609375c3.867188 0 7-3.132813 7-7v-109.300781c0-3.863282-3.132812-7-7-7-3.863281 0-7 3.136718-7 7v109.300781c0 3.867187 3.136719 7 7 7zm0 0"/><path d="m236.175781 20.441406h-49.730469v-13.441406c0-3.867188-3.132812-7-7-7-3.863281 0-7 3.132812-7 7v398.878906c0 3.867188 3.136719 7 7 7 3.867188 0 7-3.132812 7-7v-281.4375h49.730469c6.996094.007813 13.378907-3.984375 16.433594-10.273437 3.058594-6.289063 2.253906-13.769531-2.074219-19.265625 5.214844-6.605469 5.214844-15.925782 0-22.535156 5.214844-6.605469 5.214844-15.929688 0-22.535157 2.539063-3.183593 3.917969-7.136719 3.910156-11.207031-.015624-10.066406-8.199218-18.210938-18.269531-18.183594zm4.269531 40.457032c.007813 1.175781-.441406 2.304687-1.25 3.15625-.785156.839843-1.867187 1.339843-3.019531 1.386718h-49.730469v-9h49.730469c2.394531.089844 4.285157 2.0625 4.269531 4.457032zm0 22.761718c.003907 1.0625-.453124 2.074219-1.25 2.78125-.824218.730469-1.917968 1.09375-3.019531 1h-49.730469v-8h49.730469c1.128907-.011718 2.210938.429688 3.011719 1.222656.800781.789063 1.253906 1.871094 1.257812 2.996094zm-4.269531-49.21875c1.125-.019531 2.207031.414063 3.011719 1.199219.800781.789063 1.253906 1.863281 1.257812 2.984375.003907 1.066406-.453124 2.082031-1.25 2.792969-.824218.738281-1.914062 1.109375-3.019531 1.023437h-49.730469v-8zm3.019531 74.742188c-.796874.804687-1.882812 1.257812-3.019531 1.257812h-49.730469v-9h49.730469c2.402344.109375 4.289063 2.09375 4.269531 4.5.007813 1.199219-.4375 2.355469-1.25 3.242188zm0 0"/></g></svg>