<svg height="344pt" viewBox="-75 0 344 344.10007" width="344pt" xmlns="http://www.w3.org/2000/svg"><path d="m82.449219 211.179688c23.378906-4.339844 47.472656 1.945312 65.753906 17.148437 18.28125 15.199219 28.851563 37.746094 28.847656 61.523437.007813 7.339844-1 14.644532-2.992187 21.707032h-154.019532c-6.085937-21.644532-2.792968-44.851563 9.082032-63.945313 11.871094-19.09375 31.222656-32.316406 53.328125-36.433593zm0 0" fill="#00acea"/><path d="m111.648438 55.199219v155.980469c-9.652344-1.773438-19.546876-1.773438-29.199219 0v-155.980469zm0 0" fill="#00efd1"/><path d="m111.648438 21.601562v33.597657h-29.199219v-33.597657c0-8.066406 6.539062-14.601562 14.601562-14.601562s14.597657 6.535156 14.597657 14.601562zm0 0" fill="#fedb41"/><g fill="#083863"><path d="m20.039062 318.101562h154.019532c3.09375.097657 5.859375-1.902343 6.738281-4.867187 6.570313-22.476563 3.695313-46.660156-7.953125-66.976563-11.652344-20.3125-31.074219-35.003906-53.792969-40.683593v-183.972657c-.058593-5.761718-2.410156-11.257812-6.53125-15.28125-4.160156-4.066406-9.75-6.335937-15.570312-6.320312-11.980469-.0117188-21.746094 9.617188-21.898438 21.601562v183.972657c-38.402343 9.949219-65.21875 44.605469-65.199219 84.277343.027344 7.910157 1.15625 15.78125 3.351563 23.382813.925781 2.976563 3.722656 4.96875 6.835937 4.867187zm85.011719-114.910156c-5.324219-.4375-10.675781-.4375-16 0v-141.089844h16zm-8.199219-189.191406c2.105469-.003906 4.136719.792969 5.679688 2.230469 1.507812 1.390625 2.414062 3.320312 2.519531 5.371093v26.5h-16v-26.5c.097657-4.234374 3.566407-7.613281 7.800781-7.601562zm-13.136718 204.0625c8.816406-1.609375 17.851562-1.609375 26.667968 0 34.566407 6.300781 59.683594 36.421875 59.667969 71.558594.042969 4.867187-.453125 9.722656-1.488281 14.480468h-143.027344c-1.03125-4.757812-1.53125-9.613281-1.484375-14.480468-.015625-35.136719 25.097657-65.257813 59.664063-71.558594zm0 0"/><path d="m7.050781 344.101562h180c3.867188 0 7-3.136718 7-7 0-3.867187-3.132812-7-7-7h-180c-3.867187 0-6.9999998 3.132813-6.9999998 7 0 3.863282 3.1328128 7 6.9999998 7zm0 0"/></g></svg>