<svg height="361pt" viewBox="0 -2 361.98 361" width="361pt" xmlns="http://www.w3.org/2000/svg"><path d="m354.980469 113.941406c0 .726563-.082031 1.457032-.242188 2.167969l-27.226562 122.152344v.007812h-100.972657v-.007812l-27.230468-122.152344c-1.074219-4.847656 1.589844-9.75 6.242187-11.488281 46.078125-17.308594 96.871094-17.308594 142.949219 0 3.890625 1.453125 6.46875 5.167968 6.480469 9.320312zm0 0" fill="#00efd1"/><path d="m217.089844 315.140625v-76.871094h119.871094v91.980469c0 5.523438-4.476563 10-10 10h-99.871094c-5.523438 0-10-4.476562-10-10zm0 0" fill="#00acea"/><path d="m328.101562 18.101562c.621094-.511718 1.484376-.613281 2.207032-.265624.726562.351562 1.183594 1.089843 1.171875 1.894531-.480469 24.910156-5.441407 44.410156-30.960938 44.410156h17.5c8.285157 0 15 6.714844 15 15s-6.714843 15-15 15h-8l-.03125.1875c-21.996093-3.613281-44.4375-3.585937-66.429687.082031l-.039063-.269531h-7.5c-8.285156 0-15-6.714844-15-15s6.714844-15 15-15h18.5c-8.285156 0-15-6.714844-15-15s6.714844-15 15-15h37.800781c14.410157 0 29.257813-10.691406 35.78125-16.039063zm0 0" fill="#00acea"/><path d="m207.019531 26.988281v12c.003907 11.046875-8.953125 20.003907-20 20h-160c-11.046875 0-20-8.953125-20-20v-12c0-11.042969 8.953125-20 20-20h160c11.046875 0 20.003907 8.953125 20 20zm0 0" fill="#00acea"/><path d="m52.019531 58.988281h110c0 13.808594-11.191406 25-25 25h-60c-13.808593 0-25-11.191406-25-25zm0 0" fill="#00efd1"/><path d="m127.019531 206.988281v123c0 11.046875-8.953125 20-20 20s-20-8.953125-20-20v-123zm0 0" fill="#00efd1"/><path d="m87.019531 162.988281h40v44h-40zm0 0" fill="#fedb41"/><path d="m87.019531 118.988281v-34h40v78h-40zm0 0" fill="#00acea"/><g fill="#083863"><path d="m45.800781 66.488281c3.390625 14.539063 16.292969 24.867188 31.21875 25h2.980469v238.5c0 14.914063 12.089844 27 27 27s27-12.085937 27-27v-238.5h3.019531c14.929688-.132812 27.828125-10.460937 31.21875-25h18.78125c14.886719 0 26.980469-12.609375 26.980469-27.5v-12c0-14.886719-12.09375-26.5-26.980469-26.5h-160c-14.886719 0-27.019531 11.613281-27.019531 26.5v12c0 14.890625 12.132812 27.5 27.019531 27.5zm74.199219 46h-26v-20h26zm-26 58h26v30h-26zm0-14v-30h26v30zm13 186.5c-7.175781-.007812-12.992188-5.820312-13-13v-115.5h26v115.5c-.007812 7.179688-5.824219 12.992188-13 13zm30.019531-265.5h-60c-7.445312 0-13.847656-5-16.582031-11h93.164062c-2.734374 6-9.136718 11-16.582031 11zm62.980469-38c0 7.179688-5.820312 13-13 13h-160c-7.179688 0-13-5.820312-13-13v-12c0-7.179687 5.820312-13 13-13h160c7.179688 0 13 5.820313 13 13zm0 0"/><path d="m36.019531 40.488281h142c3.867188 0 7-3.132812 7-7 0-3.863281-3.132812-7-7-7h-142c-3.867187 0-7 3.136719-7 7 0 3.867188 3.132813 7 7 7zm0 0"/><path d="m107 302.988281c-3.867188 0-7 3.136719-7 7v6c0 3.867188 3.132812 7 7 7s7-3.132812 7-7v-6c0-3.863281-3.132812-7-7-7zm0 0"/><path d="m350.960938 98.066406c-5.175782-1.941406-10.429688-3.675781-15.765626-5.199218 4.105469-5.140626 5.695313-11.847657 4.335938-18.28125-1.355469-6.4375-5.519531-11.925782-11.351562-14.972657 9.761718-11.871093 10.109374-29.972656 10.300781-39.722656.101562-3.550781-1.90625-6.828125-5.117188-8.351563-3.210937-1.519531-7.019531-1-9.703125 1.328126-5.296875 4.34375-18.949218 14.621093-31.339844 14.621093h-37.800781c-5.8125-.03125-11.402343 2.253907-15.53125 6.347657-4.128906 4.09375-6.453125 9.664062-6.46875 15.480468-.003906 2.738282.515625 5.453125 1.53125 8-8.066406.699219-15.085937 5.785156-18.269531 13.226563-3.179688 7.445312-2.003906 16.03125 3.058594 22.347656-5.3125 1.53125-10.574219 3.25-15.75 5.191406-7.90625 3.039063-12.414063 11.394531-10.613282 19.671875l25.332032 113.734375h-.71875c-1.84375-.050781-3.628906.636719-4.960938 1.910157-1.332031 1.273437-2.097656 3.027343-2.128906 4.871093v91.980469c.03125 9.449219 7.640625 17.125 17.089844 17.238281h99.871094c9.4375-.117187 17.027343-7.800781 17.039062-17.238281v-91.980469c-.019531-1.835937-.773438-3.589843-2.097656-4.867187-1.324219-1.273438-3.105469-1.964844-4.941406-1.914063h-.722657l25.335938-113.75c.269531-1.226562.40625-2.484375.40625-3.742187-.03125-7.078125-4.410157-13.40625-11.019531-15.929688zm-114.941407-26.578125h18.5c3.898438-.082031 7.015625-3.273437 7-7.171875.007813-3.882812-3.117187-7.046875-7-7.089844-2.125-.007812-4.160156-.867187-5.648437-2.382812-1.503906-1.4375-2.351563-3.425781-2.351563-5.507812.007813-2.105469.859375-4.117188 2.363281-5.59375 1.5-1.472657 3.53125-2.285157 5.636719-2.253907h37.800781c11.660157 0 23.113282-5.824219 31.617188-11.445312-1.882812 19.921875-8.578125 27.183593-23.417969 27.183593-3.882812.078126-6.984375 3.25-6.984375 7.132813s3.101563 7.050781 6.984375 7.128906h17.5c2.097657-.070312 4.136719.707031 5.652344 2.15625 1.507813 1.535157 2.351563 3.605469 2.347656 5.757813.003907 4.433594-3.566406 8.042968-8 8.085937h-8.019531v-.234375c-21.863281-3.484375-44.144531-3.457031-66 .078125v.15625h-7.980469c-2.140625-.058593-4.171875-.960937-5.648437-2.511719-1.507813-1.464843-2.355469-3.476562-2.351563-5.574218.007813-2.113282.855469-4.132813 2.355469-5.621094 1.5-1.484375 3.53125-2.308594 5.644531-2.292969zm90.941407 262h-99.871094c-1.71875-.109375-3.0625-1.519531-3.089844-3.238281v-7.761719h15.089844c3.867187 0 7-3.132812 7-7 0-3.863281-3.132813-7-7-7h-15.089844v-11h15.089844c3.867187 0 7-3.132812 7-7 0-3.863281-3.132813-7-7-7h-15.089844v-11h15.089844c3.867187 0 7-3.132812 7-7 0-3.863281-3.132813-7-7-7h-15.089844v-13h106v13h-15.039062c-3.867188 0-7 3.136719-7 7 0 3.867188 3.132812 7 7 7h15.039062v11h-15.039062c-3.867188 0-7 3.136719-7 7 0 3.867188 3.132812 7 7 7h15.039062v11h-15.039062c-3.867188 0-7 3.136719-7 7 0 3.867188 3.132812 7 7 7h15.039062v7.761719c-.003906 1.710938-1.332031 3.128906-3.039062 3.238281zm20.945312-218.792969-26.007812 116.792969h-20.898438v-21.347656c0-3.867187-3.132812-7-7-7s-7 3.132813-7 7v21.347656h-19v-21.347656c0-3.867187-3.132812-7-7-7s-7 3.132813-7 7v21.347656h-21.847656l-26.011719-116.792969c-.308594-1.457031.480469-2.921874 1.867187-3.464843 44.484376-16.738281 93.53125-16.757813 138.027344-.050781 1.164063.453124 1.933594 1.570312 1.945313 2.820312 0 .234375-.023438.46875-.074219.695312zm0 0"/></g></svg>