<svg height="322pt" viewBox="-37 0 322 322" width="322pt" xmlns="http://www.w3.org/2000/svg"><path d="m157.066406 170.5c5.523438 0 10 4.476562 10 10s-4.476562 10-10 10h-140c-5.523437 0-10-4.476562-10-10s4.476563-10 10-10zm0 0" fill="#00efd1"/><path d="m157.066406 150.5v20h-140v-20c0-38.660156 31.339844-70 70-70s70 31.339844 70 70zm0 0" fill="#00acea"/><g fill="#083863"><path d="m240.816406 0c-3.863281 0-7 3.132812-7 7v25h-106.25c-24.140625.023438-44.535156 17.910156-47.714844 41.839844-39.609374 3.691406-69.925781 36.878906-70.035156 76.660156v14.519531c-1.851562.804688-3.519531 1.984375-4.898437 3.460938-4.8281252 4.972656-6.246094 12.335937-3.609375 18.746093 2.640625 6.410157 8.828125 10.640626 15.757812 10.773438h140c8.054688-.179688 14.910156-5.90625 16.527344-13.796875 1.613281-7.890625-2.441406-15.847656-9.777344-19.175781v-14.527344c.121094-39.761719-30.144531-73.03125-69.738281-76.671875 3.019531-16.121094 17.085937-27.808594 33.488281-27.828125h106.25v29c0 3.867188 3.136719 7 7 7 3.867188 0 7-3.132812 7-7v-68c0-3.867188-3.132812-7-7-7zm-81.628906 182.871094c-.519531.648437-1.289062 1.058594-2.121094 1.128906h-140c-1.699218-.121094-3.015625-1.542969-3-3.25-.007812-.761719.3125-1.492188.878906-2 .585938-.515625 1.34375-.785156 2.121094-.75h140c.78125-.027344 1.542969.261719 2.109375.804688.5625.542968.886719 1.289062.890625 2.070312.007813.761719-.3125 1.488281-.878906 1.996094zm-9.371094-32.371094v13.5h-126v-13.5c.101563-34.800781 28.324219-62.96875 63.125-63 16.699219.003906 32.707032 6.644531 44.5 18.464844 11.796875 11.816406 18.40625 27.839844 18.375 44.535156zm0 0"/><path d="m38.785156 233.554688c3.25-3.113282 8.03125-7.816407 8.03125-16.554688v-4c0-3.867188-3.132812-7-7-7-3.863281 0-7 3.132812-7 7v4c0 2.628906-.859375 3.710938-3.71875 6.445312-3.246094 3.113282-8.09375 7.816407-8.09375 16.554688s4.941406 13.441406 8.1875 16.554688c2.855469 2.734374 3.859375 3.816406 3.859375 6.445312s-.976562 3.710938-3.835937 6.445312c-3.246094 3.113282-8.152344 7.816407-8.152344 16.554688s4.785156 13.441406 8.035156 16.554688c2.855469 2.734374 3.71875 3.816406 3.71875 6.445312v6c0 3.867188 3.136719 7 7 7 3.867188 0 7-3.132812 7-7v-6c0-8.738281-4.78125-13.441406-8.03125-16.554688-2.855468-2.734374-3.78125-3.816406-3.78125-6.445312s1.019532-3.710938 3.875-6.445312c3.25-3.113282 8.171875-7.816407 8.171875-16.554688s-4.898437-13.441406-8.148437-16.554688c-2.855469-2.734374-3.898438-3.816406-3.898438-6.445312s.925782-3.710938 3.78125-6.445312zm0 0"/><path d="m88.785156 233.554688c3.25-3.113282 8.03125-7.816407 8.03125-16.554688v-4c0-3.867188-3.132812-7-7-7-3.863281 0-7 3.132812-7 7v4c0 2.628906-.859375 3.710938-3.71875 6.445312-3.246094 3.113282-8.09375 7.816407-8.09375 16.554688s4.941406 13.441406 8.1875 16.554688c2.855469 2.734374 3.859375 3.816406 3.859375 6.445312s-.976562 3.710938-3.835937 6.445312c-3.246094 3.113282-8.152344 7.816407-8.152344 16.554688s4.785156 13.441406 8.035156 16.554688c2.855469 2.734374 3.71875 3.816406 3.71875 6.445312v6c0 3.867188 3.136719 7 7 7 3.867188 0 7-3.132812 7-7v-6c0-8.738281-4.78125-13.441406-8.03125-16.554688-2.855468-2.734374-3.78125-3.816406-3.78125-6.445312s1.019532-3.710938 3.875-6.445312c3.25-3.113282 8.171875-7.816407 8.171875-16.554688s-4.898437-13.441406-8.148437-16.554688c-2.855469-2.734374-3.898438-3.816406-3.898438-6.445312s.925782-3.710938 3.78125-6.445312zm0 0"/><path d="m138.785156 233.554688c3.25-3.113282 8.03125-7.816407 8.03125-16.554688v-4c0-3.867188-3.132812-7-7-7-3.863281 0-7 3.132812-7 7v4c0 2.628906-.859375 3.710938-3.71875 6.445312-3.246094 3.113282-8.09375 7.816407-8.09375 16.554688s4.941406 13.441406 8.1875 16.554688c2.855469 2.734374 3.859375 3.816406 3.859375 6.445312s-.976562 3.710938-3.835937 6.445312c-3.246094 3.113282-8.152344 7.816407-8.152344 16.554688s4.785156 13.441406 8.035156 16.554688c2.855469 2.734374 3.71875 3.816406 3.71875 6.445312v6c0 3.867188 3.136719 7 7 7 3.867188 0 7-3.132812 7-7v-6c0-8.738281-4.78125-13.441406-8.03125-16.554688-2.855468-2.734374-3.78125-3.816406-3.78125-6.445312s1.019532-3.710938 3.875-6.445312c3.25-3.113282 8.171875-7.816407 8.171875-16.554688s-4.898437-13.441406-8.148437-16.554688c-2.855469-2.734374-3.898438-3.816406-3.898438-6.445312s.925782-3.710938 3.78125-6.445312zm0 0"/></g></svg>