<svg height="483pt" viewBox="-64 0 483 483.5" width="483pt" xmlns="http://www.w3.org/2000/svg"><g fill="#00acea"><path d="m347.25 19c0 6.628906-5.371094 12-12 12s-12-5.371094-12-12 5.371094-12 12-12 12 5.371094 12 12zm0 0"/><path d="m347.25 62c0 6.628906-5.371094 12-12 12s-12-5.371094-12-12 5.371094-12 12-12 12 5.371094 12 12zm0 0"/><path d="m347.25 105c0 6.628906-5.371094 12-12 12s-12-5.371094-12-12 5.371094-12 12-12 12 5.371094 12 12zm0 0"/><path d="m305.25 42c0 6.628906-5.371094 12-12 12s-12-5.371094-12-12 5.371094-12 12-12 12 5.371094 12 12zm0 0"/><path d="m305.25 82c0 6.628906-5.371094 12-12 12s-12-5.371094-12-12 5.371094-12 12-12 12 5.371094 12 12zm0 0"/><path d="m263.25 62c0 6.628906-5.371094 12-12 12s-12-5.371094-12-12 5.371094-12 12-12 12 5.371094 12 12zm0 0"/><path d="m217.25 398v38c0 22.089844-17.910156 40-40 40h-130c-22.089844 0-40-17.910156-40-40v-61s39.988281-58.980469 114-10c68 45 96 33 96 33zm0 0"/></g><path d="m217.25 297.648438v100.351562s-28 12-96-33c-74.011719-48.980469-114 10-114 10v-78.800781c0-6.691407 1.679688-13.273438 4.878906-19.148438l55.121094-101.050781h80l63.75 100.171875c4.082031 6.417969 6.25 13.871094 6.25 21.476563zm0 0" fill="#00efd1"/><path d="m200.25 57v3.71875c.003906 6.246094-3.691406 11.902344-9.410156 14.410156l-63.589844 27.871094v23h-40v-23l-41-12 10-46h144zm0 0" fill="#00acea"/><path d="m152.25 126v50h-90v-50zm0 0" fill="#fedb41"/><path d="m.25 296.199219v139.800781c0 25.914062 21.085938 47.5 47 47.5h130c25.914062 0 47-21.585938 47-47.5v-138.351562c.003906-8.9375-2.546875-17.695313-7.34375-25.238282l-58.855469-92.484375c.785157-1.160156 1.203125-2.527343 1.199219-3.925781v-50c0-3.867188-3.132812-6.5-7-6.5h-18v-11.925781l59.398438-25.785157c7.027343-3.214843 12.023437-9.679687 13.363281-17.289062h9.238281c3.867188 0 7-3.132812 7-7s-3.132812-7-7-7h-9v-5.5c0-3.867188-3.132812-6.5-7-6.5h-144c-3.246094-.109375-6.113281 2.097656-6.839844 5.261719l-10 45.875c-.78125 3.578125 1.355469 7.140625 4.875 8.144531l35.964844 10.464844v11.253906h-18c-3.867188 0-7 2.632812-7 6.5v50c0 1.625.5625 3.199219 1.601562 4.453125l-50.867187 93.246094c-3.757813 6.90625-5.730469 14.640625-5.734375 22.5zm177 173.300781h-130c-18.199219 0-33-15.300781-33-33.5v-58.667969c6.765625-8.289062 15.359375-14.898437 25.109375-19.3125 23.210937-10.398437 49.464844-6.085937 78.027344 12.820313 45.246093 29.941406 73.835937 35.675781 89.101562 35.671875 1.363281 0 2.613281-.046875 3.765625-.125v29.613281c-.003906 18.199219-14.804687 33.5-33.003906 33.5zm-88.035156-373.21875-34.738282-9.917969 7.414063-33.863281h131.359375v8.21875c0 3.46875-2.046875 6.605469-5.21875 8l-63.589844 27.871094c-2.546875 1.117187-4.191406 3.632812-4.191406 6.410156v16.5h-26v-16.5c0-3.109375-2.050781-5.84375-5.035156-6.71875zm-19.964844 37.21875h76v36h-76zm-50.976562 147.152344 53.132812-97.152344h72l61.683594 96.675781c3.371094 5.203125 5.160156 11.273438 5.160156 17.472657v94.613281c-9.851562.84375-36.707031-1.046875-85.136719-33.101563-22.566406-14.933594-56.757812-29.472656-91.476562-13.917968-7 3.160156-13.527344 7.28125-19.386719 12.242187v-61.285156c.003906-5.4375 1.390625-10.789063 4.023438-15.546875zm0 0" fill="#083863"/><path d="m232.25 62c0 10.492188 8.507812 19 19 19s19-8.507812 19-19-8.507812-19-19-19c-10.488281.011719-18.988281 8.511719-19 19zm24 0c0 2.761719-2.238281 5-5 5s-5-2.238281-5-5 2.238281-5 5-5c2.761719.003906 4.996094 2.238281 5 5zm0 0" fill="#083863"/><path d="m335.25 0c-10.492188 0-19 8.507812-19 19s8.507812 19 19 19 19-8.507812 19-19c-.011719-10.488281-8.511719-18.9882812-19-19zm0 24c-2.761719 0-5-2.238281-5-5s2.238281-5 5-5 5 2.238281 5 5c-.003906 2.761719-2.238281 4.996094-5 5zm0 0" fill="#083863"/><path d="m335.25 86c-10.492188 0-19 8.507812-19 19s8.507812 19 19 19 19-8.507812 19-19c-.011719-10.488281-8.511719-18.988281-19-19zm0 24c-2.761719 0-5-2.238281-5-5s2.238281-5 5-5 5 2.238281 5 5c-.003906 2.761719-2.238281 4.996094-5 5zm0 0" fill="#083863"/><path d="m335.25 43c-10.492188 0-19 8.507812-19 19s8.507812 19 19 19 19-8.507812 19-19c-.011719-10.488281-8.511719-18.988281-19-19zm0 24c-2.761719 0-5-2.238281-5-5s2.238281-5 5-5 5 2.238281 5 5c-.003906 2.761719-2.238281 4.996094-5 5zm0 0" fill="#083863"/><path d="m293.25 23c-10.492188 0-19 8.507812-19 19s8.507812 19 19 19 19-8.507812 19-19c-.011719-10.488281-8.511719-18.988281-19-19zm0 24c-2.761719 0-5-2.238281-5-5s2.238281-5 5-5 5 2.238281 5 5c-.003906 2.761719-2.238281 4.996094-5 5zm0 0" fill="#083863"/><path d="m293.25 63c-10.492188 0-19 8.507812-19 19s8.507812 19 19 19 19-8.507812 19-19c-.011719-10.488281-8.511719-18.988281-19-19zm0 24c-2.761719 0-5-2.238281-5-5s2.238281-5 5-5 5 2.238281 5 5c-.003906 2.761719-2.238281 4.996094-5 5zm0 0" fill="#083863"/></svg>