<svg height="389pt" viewBox="0 -18 389.10428 389" width="389pt" xmlns="http://www.w3.org/2000/svg"><path d="m344.371094 117.683594-36.058594 62.46875-30.800781-22.871094v149.132812h-.011719c-55 15.707032-113.304688 15.707032-168.308594 0v-149.132812l-30.800781 22.871094-36.070313-62.46875 66.871094-43.691406h36.070313c0 26.558593 21.53125 48.089843 48.089843 48.089843 26.558594 0 48.089844-21.53125 48.089844-48.089843h36.070313zm0 0" fill="#00efd1"/><g fill="#00acea"><path d="m279.910156 13.0625-7.839844 19.589844-16.207031 40.519531-15.210937-38.039063-8.832032-22.070312zm0 0"/><path d="m277.511719 306.414062v28.847657h-.011719c-55 15.722656-113.304688 15.722656-168.308594 0v-28.847657c55.003906 15.707032 113.308594 15.707032 168.308594 0zm0 0"/><path d="m145.261719 73.992188h96.179687c0 26.558593-21.53125 48.089843-48.089844 48.089843-26.558593 0-48.089843-21.53125-48.089843-48.089843zm0 0"/><path d="m154.882812 13.0625-7.980468 19.949219-16.070313 40.160156-24.039062-60.109375zm0 0"/></g><path d="m4.894531 13.726562c1.734375.550782 42.621094 13.367188 103.367188 21.894532l12.5625 31.433594h-11.632813c-1.355468-.011719-2.6875.375-3.828125 1.109374l-66.871093 43.675782c-3.109376 2.027344-4.089844 6.132812-2.234376 9.351562l36.070313 62.464844c1 1.730469 2.6875 2.949219 4.644531 3.351562 2.011719.40625 4.101563-.039062 5.773438-1.234374l19.804687-14.574219v164.0625c-.074219 3.09375 1.933594 5.855469 4.902344 6.730469 56.140625 16.074218 115.660156 16.097656 171.8125.066406 3.117187-.777344 5.300781-3.585938 5.289063-6.800782v-164.058593l19.609374 14.574219c1.597657 1.191406 3.632813 1.640624 5.585938 1.234374s3.636719-1.625 4.632812-3.355468l36.058594-62.46875c1.855469-3.21875.875-7.328125-2.234375-9.359375l-66.867187-43.660157c-1.140625-.734374-2.46875-1.121093-3.828125-1.109374h-11.640625l11.152344-27.894532c1.078124-.121094 2.15625-.25 3.238281-.382812 37.628906-4.59375 72.734375-13.070313 104.34375-25.179688 3.613281-1.382812 5.417969-5.433594 4.035156-9.042968-1.382813-3.613282-5.429687-5.417969-9.042969-4.035157-29.3125 11.226563-61.808594 19.214844-96.640625 23.777344l3.453125-8.632813c.863282-2.15625.601563-4.601562-.699218-6.527343-1.304688-1.925781-3.476563-3.082031-5.800782-3.082031h-48.089844c-2.320312 0-4.492187 1.152343-5.796874 3.078124-1.300782 1.925782-1.5625 4.371094-.703126 6.527344l5.152344 12.882813c-24.53125.78125-49.085937.203125-73.554687-1.730469l4.460937-11.152344c.863282-2.15625.601563-4.601562-.699218-6.527344-1.300782-1.921874-3.472657-3.078124-5.796876-3.078124h-48.089843c-2.324219 0-4.496094 1.152343-5.796875 3.078124-1.304688 1.925782-1.566406 4.367188-.703125 6.527344l1.960937 4.90625c-55.21875-8.339844-92.75-20.066406-93.144531-20.191406-3.6875-1.160156-7.621094.882812-8.785156 4.570312-1.164063 3.6875.882812 7.617188 4.570312 8.78125zm111.65625 316.207032v-14.394532c50.523438 12.890626 103.476563 12.890626 154 0v14.394532c-50.445312 13.507812-103.554687 13.507812-154 0zm218.445313-209.980469-28.820313 49.914063-24.492187-18.195313c-2.117188-1.578125-4.941406-1.824219-7.300782-.636719-2.355468 1.1875-3.839843 3.609375-3.832031 6.246094v143.800781c-50.445312 13.5-103.554687 13.5-154 0v-143.800781c-.082031-2.667969-1.632812-5.074219-4.03125-6.25-2.394531-1.175781-5.246093-.933594-7.410156.632812l-24.539063 18.1875-28.851562-49.898437 59.558594-38.898437h27.4375c3.523437 27.484374 26.921875 48.074218 54.632812 48.074218 27.714844 0 51.109375-20.589844 54.632813-48.074218h27.449219zm-182.132813-38.898437h80.96875c-3.546875 19.609374-20.550781 33.917968-40.480469 34.058593-10.902343.035157-21.367187-4.296875-29.054687-12.027343-5.953125-6.015626-9.941406-13.699219-11.433594-22.03125zm116.707031-61-3.964843 9.914062c0 .011719-.011719.023438-.015625.035156l-.015625.046875-9.710938 24.265625-13.703125-34.261718zm-59.964843 22.851562c8.917969 0 17.710937-.175781 26.386719-.53125l9.859374 24.679688h-105.007812l10.632812-26.601563c19.753907 1.648437 39.195313 2.453125 58.128907 2.453125zm-65.0625-22.851562-13.710938 34.261718-13.703125-34.261718zm0 0" fill="#083863"/><path d="m246.25 164.054688h-25.25c-3.863281 0-7 3.132812-7 7 0 3.863281 3.136719 7 7 7h25.25c3.867188 0 7-3.136719 7-7 0-3.867188-3.132812-7-7-7zm0 0" fill="#083863"/></svg>