<svg height="321pt" viewBox="0 0 321.83219 321" width="321pt" xmlns="http://www.w3.org/2000/svg"><path d="m128.101562 173.496094 166.082032-166.082032 20.648437 20.652344-166.078125 166.078125zm0 0" fill="#00efd1"/><path d="m148.75 194.148438-47.328125 47.328124c-5.703125 5.703126-14.949219 5.703126-20.648437 0-5.703126-5.703124-5.703126-14.949218 0-20.648437l47.328124-47.332031zm0 0" fill="#00acea"/><g fill="#083863"><path d="m69.496094 231.152344c0 8.738281 5.261718 16.613281 13.335937 19.957031 8.070313 3.34375 17.363281 1.496094 23.539063-4.683594l47.332031-47.328125 166.078125-166.082031c2.734375-2.734375 2.734375-7.164063 0-9.898437l-20.648438-20.652344c-2.734374-2.730469-7.167968-2.730469-9.902343 0l-213.410157 213.410156c-4.0625 4.042969-6.339843 9.542969-6.324218 15.277344zm224.6875-213.835938 10.75 10.75-156.183594 156.179688-10.75-10.75zm-208.460938 208.460938 42.378906-42.378906 10.75 10.75-42.378906 42.378906c-2.96875 2.96875-7.78125 2.96875-10.75 0s-2.96875-7.78125 0-10.75zm0 0"/><path d="m187.238281 246.675781c3.722657.976563 7.535157-1.238281 8.53125-4.957031.996094-3.71875-1.195312-7.542969-4.90625-8.5625l-34.347656-9.210938c-3.726563-.972656-7.535156 1.242188-8.53125 4.960938-1 3.714844 1.191406 7.542969 4.90625 8.5625zm0 0"/><path d="m83 167.578125c.636719 2.429687 2.523438 4.335937 4.949219 4.988281 2.421875.65625 5.011719-.039062 6.785156-1.820312 1.769531-1.777344 2.453125-4.371094 1.789063-6.792969l-9.210938-34.347656c-1.019531-3.714844-4.84375-5.90625-8.5625-4.90625-3.71875.996093-5.933594 4.804687-4.960938 8.53125zm0 0"/><path d="m124.25 247.886719c-2.730469 2.734375-2.730469 7.167969 0 9.898437l25.152344 25.152344c2.734375 2.734375 7.164062 2.734375 9.898437 0s2.734375-7.167969 0-9.902344l-25.148437-25.148437c-2.734375-2.734375-7.167969-2.734375-9.902344 0zm0 0"/><path d="m62.683594 196.214844c2.730468 2.734375 7.164062 2.734375 9.898437 0 2.734375-2.730469 2.734375-7.164063 0-9.898438l-25.148437-25.148437c-2.734375-2.734375-7.167969-2.734375-9.902344 0s-2.734375 7.164062 0 9.898437zm0 0"/><path d="m111.558594 312.789062c2.199218 0 4.273437-1.039062 5.597656-2.796874 1.320312-1.757813 1.738281-4.039063 1.128906-6.152344l-9.78125-33.78125c-1.074218-3.710938-4.957031-5.851563-8.667968-4.777344-3.714844 1.078125-5.855469 4.957031-4.777344 8.671875l9.777344 33.78125c.867187 2.992187 3.605468 5.050781 6.722656 5.054687zm0 0"/><path d="m12.734375 215.628906 33.78125 9.78125c3.710937 1.074219 7.59375-1.0625 8.671875-4.777344 1.074219-3.710937-1.066406-7.59375-4.777344-8.671874l-33.78125-9.777344c-3.714844-1.078125-7.597656 1.0625-8.671875 4.777344-1.074219 3.710937 1.0625 7.59375 4.777344 8.667968zm0 0"/><path d="m7.003906 264.527344c.566406 0 1.132813-.066406 1.679688-.199219l33.359375-8.210937c2.445312-.585938 4.386719-2.433594 5.089843-4.84375.703126-2.410157.0625-5.011719-1.679687-6.820313s-4.320313-2.542969-6.753906-1.929687l-33.359375 8.210937c-3.445313.839844-5.714844 4.121094-5.2890628 7.636719.4257808 3.519531 3.4101568 6.164062 6.9531248 6.160156zm0 0"/><path d="m62.949219 320.457031c3.21875-.003906 6.019531-2.199219 6.789062-5.328125l8.210938-33.359375c.894531-3.742187-1.398438-7.507812-5.136719-8.429687-3.734375-.917969-7.515625 1.351562-8.457031 5.082031l-8.210938 33.363281c-.515625 2.085938-.039062 4.296875 1.289063 5.992188 1.328125 1.691406 3.359375 2.679687 5.511718 2.679687zm0 0"/><path d="m48.171875 272.296875c-2.734375-2.734375-7.167969-2.734375-9.898437 0l-24 24c-2.734376 2.734375-2.734376 7.164063 0 9.898437 2.730468 2.734376 7.164062 2.734376 9.898437 0l24-24c2.734375-2.734374 2.734375-7.164062 0-9.898437zm0 0"/></g></svg>