<svg height="447pt" viewBox="-5 0 447 447" width="447pt" xmlns="http://www.w3.org/2000/svg"><path d="m408 242v18.609375l-16.898438 21.390625-18.332031-21.390625-22.328125 21.390625-22.339844-21.390625-18.332031 21.390625-21.769531-21.390625v-23.609375h120zm0 0" fill="#00acea"/><path d="m408 230v7h-120v-70h120zm0 0" fill="#00efd1"/><path d="m247.988281 256.898438c-.746093 1.957031-1.902343 3.730468-3.386719 5.203124-2.804687 2.820313-6.621093 4.402344-10.601562 4.398438h-212c-6.199219 0-11.757812-3.816406-13.988281-9.601562-.675781-1.71875-1.015625-3.550782-1.011719-5.398438.011719-8.277344 6.722656-14.988281 15-15h212c8.285156.003906 14.996094 6.71875 15 15 .003906 1.847656-.335938 3.679688-1.011719 5.398438zm0 0" fill="#fedb41"/><path d="m88.039062 369.679688c-47.8125-16.921876-79.84375-62.058594-80.027343-112.78125 2.230469 5.785156 7.789062 9.601562 13.988281 9.601562h212c3.980469.003906 7.796875-1.578125 10.601562-4.398438 1.484376-1.472656 2.640626-3.246093 3.386719-5.203124-.148437 38.871093-19.105469 75.261718-50.871093 97.664062-31.769532 22.398438-72.414063 28.03125-109.078126 15.117188zm0 0" fill="#00acea"/><path d="m219 86.5v150h-190v-150c0-44.183594 35.816406-80 80-80h30c44.183594 0 80 35.816406 80 80zm-30 123.679688v-127.359376c0-22.089843-17.910156-40-40-40h-50c-22.089844 0-40 17.910157-40 40v127.359376zm0 0" fill="#00acea"/><path d="m189 82.820312v127.359376h-130v-127.359376c0-22.089843 17.910156-40 40-40h50c22.089844 0 40 17.910157 40 40zm0 0" fill="#00efd1"/><path d="m168 439.5h-80c4.058594-12.191406 6.109375-21.070312 6.109375-30.898438-.101563-6.765624-.875-13.5-2.308594-20.113281l-3.761719-18.808593c25.863282 9.09375 54.058594 9.09375 79.921876 0l-3.761719 18.808593c-4.058594 20.320313-2.75 31.351563 3.800781 51.011719zm0 0" fill="#00efd1"/><g fill="#083863"><path d="m149 36h-50c-25.910156-.054688-46.957031 20.910156-47 46.820312v127.359376c.007812 1.839843.753906 3.597656 2.070312 4.878906 1.316407 1.28125 3.09375 1.980468 4.929688 1.941406h130c1.835938.039062 3.613281-.660156 4.929688-1.941406 1.316406-1.28125 2.0625-3.039063 2.070312-4.878906v-127.359376c-.042969-25.910156-21.089844-46.875-47-46.820312zm33 167h-116v-120.179688c.015625-8.730468 3.503906-17.097656 9.695312-23.253906 6.191407-6.15625 14.574219-9.597656 23.304688-9.566406h50c8.730469-.03125 17.113281 3.410156 23.304688 9.566406 6.191406 6.15625 9.679687 14.523438 9.695312 23.253906zm0 0"/><path d="m38.199219 346.300781c12.457031 12.4375 27.347656 22.167969 43.742187 28.578125l3 14.984375c1.339844 6.160157 2.066406 12.4375 2.171875 18.738281 0 8.324219-1.558593 16.101563-5.75 28.6875-.710937 2.21875-.355469 4.636719.960938 6.558594 1.289062 1.882813 3.394531 3.054688 5.675781 3.152344h80c2.28125-.113281 4.378906-1.28125 5.679688-3.160156 1.300781-1.875 1.65625-4.25.960937-6.425782-6.019531-18.074218-7.464844-28.019531-3.578125-47.488281l3-15.03125c48.203125-18.851562 80.1875-65.019531 80.902344-116.773437.683594-2.050782 1.03125-4.199219 1.035156-6.363282-.015625-5.808593-2.347656-11.367187-6.476562-15.453124-4.128907-4.082032-9.714844-6.351563-15.523438-6.304688h-8v-143.5c0-47.972656-39.027344-86.5-87-86.5h-30c-47.972656 0-87 38.527344-87 86.5v143c-7.007812-.015625-13.601562 3.316406-17.746094 8.964844-4.148437 5.652344-5.34375 12.941406-3.226562 19.621094.3125 33.148437 13.667968 64.839843 37.171875 88.214843zm59.300781 86.699219c2.246094-9 3.617188-15.875 3.617188-24.148438-.101563-7.265624-.921876-14.503906-2.445313-21.609374l-1.476563-7.453126c20.238282 5.003907 41.394532 4.988282 61.625-.046874l-1.476562 7.632812c-3.5 17.519531-3.375 28.625 1.183594 45.625zm68.132812-69.917969c-41.042968 14.507813-86.777343 4.128907-117.53125-26.683593-17.289062-17.101563-28.507812-39.390626-31.945312-63.464844 1.890625.617187 3.855469.976562 5.84375 1.066406h212c1.972656-.089844 3.921875-.441406 5.800781-1.042969-6.074219 41.484375-34.632812 76.183594-74.175781 90.125zm-129.632812-276.582031c0-40.253906 32.75-72.5 73-72.5h30c40.253906 0 73 32.246094 73 72.5v143.5h-176zm-19.640625 159.589844c1.519531-1.433594 3.554687-2.1875 5.640625-2.089844h212c2.09375-.054688 4.121094.738281 5.628906 2.195312 1.503906 1.457032 2.359375 3.460938 2.371094 5.554688.003906.929688-.171875 1.851562-.523438 2.714844-.011718.023437-.019531-.015625-.027343.007812-.398438 1.101563-1.011719 2.109375-1.808594 2.96875-1.46875 1.5625-3.496094 2.484375-5.640625 2.558594h-212c-3.355469-.125-6.308594-2.261719-7.476562-5.410156-.351563-.90625-.527344-1.867188-.523438-2.839844-.003906-2.125.84375-4.164062 2.359375-5.660156zm0 0"/><path d="m92.253906 319.613281c-26.953125-4.898437-29.1875-27.582031-29.273437-28.636719-.324219-3.816406-3.65625-6.660156-7.476563-6.386718-3.820312.273437-6.710937 3.566406-6.488281 7.386718.824219 11.910157 10.390625 35.890626 40.734375 41.40625 2.472656.480469 5.011719-.40625 6.652344-2.324218 1.636718-1.914063 2.117187-4.5625 1.257812-6.933594s-2.925781-4.09375-5.410156-4.515625zm0 0"/><path d="m431 190h-16v-23c0-3.867188-3.132812-7-7-7h-120c-3.867188 0-7 3.132812-7 7v23h-16c-3.867188 0-7 3.132812-7 7s3.132812 7 7 7h16v56.609375c0 1.878906.753906 3.675781 2.09375 4.992187l21.769531 21.390626c1.308594 1.289062 3.070313 2.007812 4.90625 2.007812.101563 0 .199219 0 .300781-.007812 1.9375-.082032 3.753907-.964844 5.015626-2.4375l13.515624-15.773438 17 16.273438c2.707032 2.59375 6.972657 2.59375 9.679688 0l16.988281-16.269532 13.515625 15.769532c1.359375 1.589843 3.363282 2.488281 5.453125 2.445312 2.09375-.042969 4.054688-1.015625 5.355469-2.660156l16.898438-21.390625c.976562-1.234375 1.507812-2.765625 1.507812-4.339844v-56.609375h16c3.867188 0 7-3.132812 7-7s-3.132812-7-7-7zm-136-16h106v56h-106zm95.878906 96.984375-12.796875-14.929687c-1.253906-1.460938-3.050781-2.34375-4.972656-2.4375s-3.796875.605468-5.1875 1.9375l-17.488281 16.753906-17.5-16.753906c-1.386719-1.332032-3.265625-2.03125-5.183594-1.9375-1.921875.09375-3.71875.976562-4.972656 2.4375l-13.453125 15.699218-14.324219-14.078125v-13.675781h106v14.179688zm0 0"/></g></svg>