<svg height="412pt" viewBox="-2 0 412 412.00346" width="412pt" xmlns="http://www.w3.org/2000/svg"><path d="m249.683594 389.722656c-5.320313-6.957031-8.195313-15.472656-8.183594-24.230468v-21c0-44.183594 35.820312-80 80-80 44.183594 0 80 35.816406 80 80v21c0 22.089843-17.90625 40-40 40h-80c-12.488281.015624-24.265625-5.824219-31.816406-15.769532zm0 0" fill="#00acea"/><path d="m371.5 214.433594-15.777344 23.519531c-.328125-.039063-.652344-.054687-.980468-.050781h-66.492188c-.324219-.003906-.652344.011718-.976562.050781l-15.773438-23.519531s11.75-17.171875 29.203125-2.28125c.808594.691406 1.628906 1.449218 2.457031 2.28125 18.8125 18.796875 34.171875 0 34.171875 0s16.609375-17.550782 34.167969 0zm0 0" fill="#00acea"/><path d="m287.273438 237.953125c.324218-.039063.652343-.054687.976562-.050781h66.492188c.328124-.003906.652343.011718.980468.050781 5.832032.554687 10.203125 5.585937 9.941406 11.441406-.261718 5.851563-5.0625 10.472657-10.921874 10.507813h-66.492188c-5.855469-.035156-10.660156-4.65625-10.921875-10.507813-.261719-5.855469 4.109375-10.886719 9.945313-11.441406zm0 0" fill="#f4b844"/><path d="m314.703125 98.402344h-282.703125c-13.804688 0-25-11.191406-25-25s11.195312-25 25-25h292.160156c13.808594 0 25 11.191406 25 25s-11.191406 25-25 25zm0 0" fill="#00acea"/><path d="m314.703125 98.402344-13.980469 113.71875-.019531.03125c-17.453125-14.890625-29.203125 2.28125-29.203125 2.28125l15.773438 23.519531c-5.835938.554687-10.207032 5.585937-9.945313 11.441406.261719 5.851563 5.066406 10.472657 10.921875 10.507813h6.722656l-1.160156 9.511718c-31.441406 11.601563-52.316406 41.566407-52.3125 75.078126v21c-.011719 8.757812 2.863281 17.273437 8.183594 24.230468h-135.441406c-19.460938 0-35.957032-14.308594-38.710938-33.570312l-34.050781-257.75zm0 0" fill="#00efd1"/><g fill="#083863"><path d="m178.25 152.992188c-3.863281 0-7 3.132812-7 7v156.421874c0 3.863282 3.136719 7 7 7 3.867188 0 7-3.136718 7-7v-156.421874c0-3.867188-3.132812-7-7-7zm0 0"/><path d="m231.308594 153.003906c-1.855469-.125-3.679688.5-5.074219 1.730469-1.394531 1.226563-2.238281 2.960937-2.347656 4.816406l-9.78125 156.421875c-.246094 3.859375 2.6875 7.1875 6.546875 7.429688.148437.011718.300781.015625.445312.015625 3.691406-.003907 6.746094-2.878907 6.976563-6.566407l9.78125-156.417968c.246093-3.859375-2.6875-7.1875-6.546875-7.429688zm0 0"/><path d="m132.277344 159.554688c-.128906-2.511719-1.601563-4.765626-3.851563-5.890626-2.253906-1.128906-4.9375-.960937-7.03125.4375-2.09375 1.398438-3.273437 3.816407-3.089843 6.328126l9.78125 156.417968c.230468 3.6875 3.285156 6.5625 6.980468 6.566406.144532 0 .296875 0 .441406-.015624 3.859376-.242188 6.789063-3.5625 6.550782-7.421876zm0 0"/><path d="m359.5625 266.226562c6.164062-1.707031 10.957031-6.566406 12.585938-12.753906 1.628906-6.1875-.152344-12.773437-4.675782-17.300781-.421875-.421875-.867187-.8125-1.328125-1.1875l11.171875-16.652344c1.863282-2.777343 1.5-6.484375-.867187-8.851562-6.648438-6.644531-14.054688-9.988281-21.984375-9.84375-12.574219.171875-21.265625 8.980469-22.21875 9.984375-.113282.121094-.226563.25-.335938.382812-.042968.054688-4.726562 5.457032-10.953125 5.769532-4.132812.199218-8.460937-1.910157-12.84375-6.292969l-.011719-.210938 12.792969-104.265625h3.265625c17.675782 0 32-14.328125 32-32 0-17.675781-14.324218-32-32-32h-99.910156v-14.941406c0-14.640625-11.976562-26.05859375-26.617188-26.05859375h-39.101562c-6.960938-.09375005-13.664062 2.61328175-18.605469 7.51562475-4.941406 4.902344-7.707031 11.582031-7.675781 18.542969v14.941406h-100.25c-17.671875 0-32 14.324219-32 32 0 17.671875 14.328125 32 32 32h3.34375l33.257812 252.078125c3.222657 22.5625 22.84375 39.921875 45.640626 39.921875h132.160156c8.910156 10 21.503906 15 35.097656 15h80c12.382812.085938 24.289062-4.777344 33.070312-13.511718 8.777344-8.734376 13.703126-20.617188 13.679688-33v-21c.03125-33.242188-18.855469-63.601563-48.6875-78.265626zm-71.683594-21.296874c.082032-.007813.117188.039062.195313.027343.039062 0 .082031.046875.121093.046875h66.683594c.078125 0 .160156-.03125.238282-.027344.917968.074219 1.785156.464844 2.441406 1.109376.757812.769531 1.183594 1.804687 1.183594 2.882812 0 2.214844-1.785157 4.015625-4 4.035156h-66.492188c-2.144531-.023437-3.898438-1.71875-3.996094-3.863281-.097656-2.140625 1.492188-3.992187 3.625-4.210937zm33.78125-15.171876c11.539063-.582031 19.171875-8.660156 20.828125-10.582031.800781-.773437 5.953125-5.5 12.261719-5.542969 2.625.03125 5.1875.808594 7.390625 2.242188l-10.117187 15.128906h-61.050782l-10.480468-15.6875c1.472656-1.128906 3.207031-1.871094 5.042968-2.148437 3.207032-.398438 6.789063 1.050781 10.628906 4.328125.664063.566406 1.355469 1.199218 2.046876 1.894531 7.304687 7.296875 15.191406 10.777344 23.449218 10.363281zm-175.410156-203.695312c-.035156-3.25 1.253906-6.371094 3.570312-8.648438 2.316407-2.277343 5.464844-3.507812 8.710938-3.410156h39.101562c6.917969 0 12.617188 5.136719 12.617188 12.058594v14.941406h-64zm-132.25 46.941406c.011719-9.9375 8.066406-17.988281 18-18h292.160156c4.800782.058594 9.375 2.027344 12.722656 5.46875 3.386719 3.328125 5.289063 7.878906 5.277344 12.628906-.007812 4.761719-1.910156 9.324219-5.285156 12.683594-3.378906 3.355469-7.953125 5.234375-12.714844 5.21875h-292.160156c-9.933594-.011718-17.988281-8.066406-18-18zm68.472656 282.171875-33.007812-250.171875h257.324218l-11.707031 95.4375c-3.660156-1.371094-7.605469-1.804687-11.476562-1.265625-10.921875 1.453125-17.199219 10.257813-17.878907 11.253907-1.617187 2.371093-1.632812 5.488281-.039062 7.875l11.191406 16.699218c-5.203125 4.234375-7.613281 11.015625-6.253906 17.582032 1.363281 6.566406 6.269531 11.828124 12.726562 13.644531-29.925781 14.617187-48.960937 44.957031-49.101562 78.261719v21c0 5.992187 1.363281 11.511718 3.5 17.511718h-123.507812c-15.875 0-29.539063-12.191406-31.769532-27.828125zm311.777344 10.316407c.03125 8.671874-3.417969 16.996093-9.574219 23.105468s-14.503906 9.496094-23.175781 9.40625h-5.25v-26.101562c0-3.867188-3.132812-7-7-7-3.863281 0-7 3.132812-7 7v26.101562h-19v-26.101562c0-3.867188-3.132812-7-7-7-3.863281 0-7 3.132812-7 7v26.101562h-20v-26.101562c0-3.867188-3.132812-7-7-7-3.863281 0-7 3.132812-7 7v25.941406c-15.5-3.066406-26.753906-16.550781-27-32.351562v-21c.039062-40.375 32.816406-73.066407 73.191406-73 19.339844.007812 37.886719 7.703124 51.542969 21.398437 13.660156 13.695313 21.3125 32.261719 21.265625 51.601563zm0 0"/></g></svg>