<svg height="417pt" viewBox="-95 0 417 417.11594" width="417pt" xmlns="http://www.w3.org/2000/svg"><path d="m29.515625 120.105469c-17.574219-14.972657-25.753906-38.222657-21.433594-60.898438 4.320313-22.679687 20.480469-41.289062 42.328125-48.75 21.847656-7.460937 46.015625-2.617187 63.304688 12.679688 19.589844-17.308594 47.71875-21.011719 71.121094-9.363281 23.402343 11.652343 37.402343 36.328124 35.398437 62.394531-2.003906 26.066406-19.609375 48.3125-44.519531 56.246093-7.5625 28.023438-32.980469 47.488282-62.003906 47.488282-29.023438 0-54.441407-19.464844-62.007813-47.488282-8.144531-2.574218-15.691406-6.761718-22.1875-12.308593zm151.027344-53.328125c.003906-12.042969-9.753907-21.808594-21.796875-21.8125-12.042969 0-21.808594 9.757812-21.8125 21.800781 0 12.042969 9.757812 21.808594 21.800781 21.808594 12.042969.007812 21.808594-9.753907 21.808594-21.796875zm-45.027344 55.589844c.003906-12.046876-9.761719-21.808594-21.804687-21.8125-12.042969 0-21.808594 9.765624-21.804688 21.808593 0 12.042969 9.765625 21.804688 21.808594 21.800781 12.039062-.003906 21.796875-9.761718 21.800781-21.796874zm-45.03125-55.589844c.003906-12.046875-9.757813-21.808594-21.804687-21.8125-12.042969 0-21.804688 9.765625-21.804688 21.808594 0 12.042968 9.765625 21.804687 21.808594 21.800781 12.042968 0 21.800781-9.757813 21.800781-21.796875zm0 0" fill="#00efd1"/><path d="m52.863281 212.886719h-1.117187c-12.277344 0-22.234375-9.953125-22.230469-22.230469v-70.550781c6.496094 5.546875 14.042969 9.734375 22.1875 12.308593 7.566406 28.023438 32.984375 47.488282 62.007813 47.488282 29.023437 0 54.441406-19.464844 62.003906-47.488282 8.148437-2.589843 15.699218-6.785156 22.199218-12.339843v70.582031c-.003906 12.277344-9.960937 22.230469-22.238281 22.230469zm0 0" fill="#00acea"/><path d="m158.734375 44.964844c12.042969 0 21.808594 9.757812 21.808594 21.800781.003906 12.042969-9.753907 21.808594-21.796875 21.808594-12.042969.003906-21.808594-9.753907-21.8125-21.796875-.003906-12.046875 9.757812-21.8125 21.800781-21.8125zm0 0" fill="#f4b844"/><path d="m174.554688 212.886719v136.230469c0 33.601562-27.242188 60.84375-60.84375 60.84375-33.605469 0-60.847657-27.242188-60.847657-60.84375v-136.230469zm-48.839844 134.660156v-26c0-6.628906-5.371094-12-12-12s-12 5.371094-12 12v26c0 6.625 5.371094 12 12 12s12-5.375 12-12zm0 0" fill="#00efd1"/><path d="m113.714844 100.554688c12.042968.003906 21.800781 9.765624 21.800781 21.808593 0 12.039063-9.761719 21.800781-21.804687 21.800781-12.039063.003907-21.804688-9.757812-21.804688-21.796874-.003906-12.046876 9.761719-21.8125 21.808594-21.8125zm0 0" fill="#f4b844"/><path d="m125.714844 321.546875v26c0 6.625-5.371094 12-12 12s-12-5.375-12-12v-26c0-6.628906 5.371094-12 12-12s12 5.371094 12 12zm0 0" fill="#00acea"/><path d="m68.683594 44.964844c12.042968.003906 21.800781 9.765625 21.800781 21.808594 0 12.039062-9.761719 21.800781-21.804687 21.800781-12.039063.003906-21.800782-9.757813-21.804688-21.796875-.003906-12.050782 9.761719-21.816406 21.808594-21.8125zm0 0" fill="#f4b844"/><g fill="#083863"><path d="m160.59375.144531c-16.792969-1.078125-33.417969 3.878907-46.882812 13.976563-30.292969-22.566406-72.941407-17.523438-97.136719 11.480468-24.199219 29.007813-21.511719 71.867188 6.121093 97.625v67.429688c-.015624 13.765625 9.554688 25.679688 23 28.636719v129.824219c0 37.554687 30.445313 68 68 68 37.554688 0 68-30.445313 68-68v-129.824219c13.441407-2.957031 23.015626-14.871094 23-28.636719v-67.46875c15-13.453125 22.648438-32.203125 22.640626-51.96875.054687-37.613281-29.195313-68.765625-66.742188-71.074219zm-46.808594 402.820313c-29.789062.023437-53.980468-24.058594-54.089844-53.847656v-129.632813h108v129.632813c-.0625 29.738281-24.171874 53.820312-53.910156 53.847656zm61.890625-197.480469h-123.929687c-3.976563.082031-7.820313-1.449219-10.652344-4.242187-2.832031-2.789063-4.417969-6.609376-4.398438-10.585938v-57.21875c3.019532 1.714844 6.171876 3.191406 9.421876 4.417969 6.632812 20.378906 22.109374 36.679687 42.117187 44.359375 20.007813 7.683594 42.414063 5.925781 60.984375-4.78125 15.25-8.734375 26.691406-22.851563 32.074219-39.582032 3.246093-1.230468 6.390625-2.710937 9.402343-4.433593v57.230469c.027344 3.976562-1.550781 7.792968-4.378906 10.589843-2.828125 2.792969-6.667968 4.324219-10.640625 4.246094zm17.691407-90.730469c-5.785157 4.953125-12.511719 8.691406-19.773438 10.992188-2.269531.722656-4.015625 2.546875-4.636719 4.847656-8.226562 30.511719-39.640625 48.574219-70.152343 40.335938-19.648438-5.347657-34.996094-20.695313-40.339844-40.34375-.625-2.300782-2.371094-4.125-4.640625-4.847657-7.257813-2.289062-13.976563-6.015625-19.761719-10.957031-15.558594-13.367188-22.769531-34.042969-18.902344-54.183594 3.867188-20.144531 18.222656-36.675781 37.625-43.332031s40.882813-2.414063 56.300782 11.113281c2.648437 2.34375 6.625 2.34375 9.273437 0 23.851563-20.714844 59.980469-18.171875 80.695313 5.679688 20.714843 23.851562 18.171874 59.980468-5.679688 80.695312zm0 0"/><path d="m158.734375 37.964844c-15.90625.003906-28.800781 12.902344-28.800781 28.808594.003906 15.90625 12.898437 28.800781 28.804687 28.800781 15.90625.003906 28.804688-12.890625 28.804688-28.796875-.011719-15.90625-12.902344-28.796875-28.808594-28.8125zm0 43.609375c-8.175781 0-14.800781-6.632813-14.800781-14.808594.003906-8.175781 6.632812-14.800781 14.8125-14.800781 8.175781.003906 14.800781 6.632812 14.796875 14.8125-.007813 8.171875-6.632813 14.792968-14.808594 14.796875zm0 0"/><path d="m97.484375 66.777344c.003906-15.910156-12.894531-28.808594-28.804687-28.8125-15.90625 0-28.804688 12.898437-28.804688 28.808594 0 15.910156 12.898438 28.804687 28.808594 28.800781 15.898437-.019531 28.78125-12.902344 28.800781-28.796875zm-28.800781 14.796875c-8.175782.003906-14.808594-6.625-14.808594-14.800781 0-8.179688 6.628906-14.808594 14.804688-14.808594 8.179687.003906 14.808593 6.632812 14.804687 14.8125-.011719 8.167968-6.628906 14.785156-14.800781 14.796875zm0 0"/><path d="m113.714844 93.554688c-15.910156 0-28.808594 12.894531-28.808594 28.800781-.003906 15.910156 12.890625 28.808593 28.796875 28.808593 15.910156.003907 28.808594-12.890624 28.8125-28.796874-.019531-15.902344-12.902344-28.789063-28.800781-28.8125zm0 43.609374c-8.179688.003907-14.808594-6.625-14.808594-14.800781-.003906-8.179687 6.628906-14.808593 14.804688-14.808593 8.179687.003906 14.808593 6.632812 14.804687 14.8125-.011719 8.167968-6.632813 14.785156-14.800781 14.796874zm0 0"/><path d="m135.644531 232.484375h-43.859375c-3.867187 0-7 3.136719-7 7 0 3.867187 3.132813 7 7 7h43.859375c3.867188 0 7-3.132813 7-7 0-3.863281-3.132812-7-7-7zm0 0"/><path d="m135.644531 252.484375h-43.859375c-3.867187 0-7 3.136719-7 7 0 3.867187 3.132813 7 7 7h43.859375c3.867188 0 7-3.132813 7-7 0-3.863281-3.132812-7-7-7zm0 0"/><path d="m135.644531 272.484375h-43.859375c-3.867187 0-7 3.136719-7 7 0 3.867187 3.132813 7 7 7h43.859375c3.867188 0 7-3.132813 7-7 0-3.863281-3.132812-7-7-7zm0 0"/><path d="m113.703125 302.546875c-10.488281.011719-18.992187 8.507813-19.007813 19v26c0 10.492187 8.507813 19 19 19 10.492188 0 19-8.507813 19-19v-26c.003907-10.492187-8.5-19-18.992187-19zm4.992187 45c0 2.761719-2.238281 5-5 5-2.761718 0-5-2.238281-5-5v-26c.007813-2.761719 2.246094-5 5.007813-5 1.328125 0 2.597656.527344 3.53125 1.464844.9375.9375 1.460937 2.210937 1.460937 3.535156zm0 0"/></g></svg>