<svg height="472pt" viewBox="-16 0 472 472" width="472pt" xmlns="http://www.w3.org/2000/svg"><path d="m432.75 465h-141c4.566406-18.722656 18.804688-33.570312 37.320312-38.910156l.25.839844c-2.859374 2.859374-3.714843 7.160156-2.167968 10.898437 1.546875 3.734375 5.195312 6.171875 9.238281 6.171875h51.71875c4.042969 0 7.691406-2.4375 9.238281-6.171875 1.546875-3.738281.691406-8.039063-2.167968-10.898437l.25-.839844c18.515624 5.339844 32.753906 20.1875 37.320312 38.910156zm0 0" fill="#00acea"/><path d="m395.179688 426.929688c2.859374 2.859374 3.714843 7.160156 2.167968 10.898437-1.546875 3.734375-5.195312 6.171875-9.238281 6.171875h-51.71875c-4.042969 0-7.691406-2.4375-9.238281-6.171875-1.546875-3.738281-.691406-8.039063 2.167968-10.898437l-.25-.839844c4.839844-1.386719 9.847657-2.089844 14.878907-2.089844h36.601562c5.03125 0 10.039063.703125 14.878907 2.089844zm0 0" fill="#fedb41"/><path d="m287.25 380.089844v12.898437h-47.890625v-36.847656h23.941406c13.226563 0 23.949219 10.722656 23.949219 23.949219zm0 0" fill="#00acea"/><path d="m239.359375 392.988281h47.890625c0 13.226563-10.71875 23.945313-23.945312 23.945313-13.222657 0-23.945313-10.71875-23.945313-23.945313zm0 0" fill="#fedb41"/><path d="m115.011719 201.558594c28.28125-10.558594 59.945312-6.589844 84.746093 10.625 24.804688 17.214844 39.597657 45.484375 39.601563 75.675781v100.519531c0 10.179688-8.253906 18.425782-18.429687 18.421875h-147.359376c-10.175781.003907-18.429687-8.242187-18.429687-18.421875v-100.519531c-.003906-38.441406 23.863281-72.839844 59.871094-86.300781zm87.5 156.429687c0-6.105469-4.945313-11.054687-11.050781-11.058593h-88.421876c-6.105468 0-11.054687 4.949218-11.054687 11.054687s4.949219 11.054687 11.054687 11.054687h88.421876c6.097656-.003906 11.042968-4.949218 11.050781-11.050781zm-36.839844-81.707031c0-10.175781-8.25-18.421875-18.421875-18.421875s-18.421875 8.246094-18.421875 18.421875c0 10.171875 8.25 18.417969 18.421875 18.417969s18.421875-8.246094 18.421875-18.417969zm0 0" fill="#00efd1"/><path d="m191.460938 346.929688c6.105468 0 11.054687 4.949218 11.054687 11.054687s-4.949219 11.054687-11.054687 11.054687h-88.421876c-6.105468 0-11.054687-4.949218-11.054687-11.054687s4.949219-11.054687 11.054687-11.054687zm0 0" fill="#00acea"/><path d="m179.488281 187.460938v14.097656c-20.792969-7.746094-43.683593-7.746094-64.476562 0v-14.097656c.007812-10.171876 8.25-18.410157 18.417969-18.421876h27.640624c10.171876.003907 18.417969 8.25 18.417969 18.421876zm0 0" fill="#00acea"/><path d="m165.671875 276.28125c0 10.171875-8.25 18.417969-18.421875 18.417969s-18.421875-8.246094-18.421875-18.417969c0-10.175781 8.25-18.421875 18.421875-18.421875s18.421875 8.246094 18.421875 18.421875zm0 0" fill="#fedb41"/><path d="m55.140625 388.378906v4.609375h-47.890625v-12.898437c0-13.226563 10.722656-23.949219 23.949219-23.949219h23.941406zm0 0" fill="#00acea"/><path d="m7.25 392.988281h47.890625c0 13.226563-10.722656 23.945313-23.945313 23.945313-13.226562 0-23.945312-10.71875-23.945312-23.945313zm0 0" fill="#fedb41"/><g fill="#083863"><path d="m147.25 301.699219c14.039062 0 25.421875-11.378907 25.421875-25.417969s-11.382813-25.421875-25.421875-25.421875-25.421875 11.382813-25.421875 25.421875c.015625 14.03125 11.390625 25.402344 25.421875 25.417969zm0-36.839844c6.308594 0 11.421875 5.113281 11.421875 11.421875 0 6.304688-5.113281 11.417969-11.421875 11.417969s-11.421875-5.113281-11.421875-11.417969c.007813-6.304688 5.117187-11.414062 11.421875-11.421875zm0 0"/><path d="m90.28125 345.253906c-3.398438 3.367188-5.304688 7.953125-5.292969 12.734375.015625 9.957031 8.09375 18.019531 18.050781 18.011719h88.421876c9.941406 0 18-8.058594 18-18s-8.058594-18-18-18h-88.421876c-4.785156-.023438-9.378906 1.867188-12.757812 5.253906zm105.230469 12.769532c0 1.066406-.429688 2.082031-1.191407 2.824218-.761718.753906-1.792968 1.167969-2.859374 1.152344h-88.421876c-2.230468.007812-4.042968-1.796875-4.050781-4.03125 0-1.0625.429688-2.082031 1.191407-2.824219.761718-.75 1.792968-1.164062 2.859374-1.144531h88.421876c1.070312-.003906 2.101562.417969 2.859374 1.171875.761719.753906 1.1875 1.78125 1.191407 2.851563zm0 0"/><path d="m397.367188 419.363281h-.011719c-5.464844-1.566406-11.121094-2.363281-16.804688-2.363281h-9.550781v-381c0-19.882812-16.117188-36-36-36s-36 16.117188-36 36v12c.050781 6.335938-2.429688 12.433594-6.886719 16.9375s-10.527343 7.046875-16.863281 7.0625h-74.480469c-15.75-.015625-28.53125 12.738281-28.550781 28.492188-.015625 15.75 12.742188 28.53125 28.492188 28.546874l31.277343.03125c4.269531.003907 7.726563 3.460938 7.730469 7.730469.011719 2.121094-.800781 4.160157-2.257812 5.699219-1.425782 1.519531-3.390626 2.417969-5.472657 2.5h-67.238281c-10.726562-.152344-20.273438 6.761719-23.476562 17h-7.84375c-14.042969.027344-25.417969 11.414062-25.429688 25.460938v9.390624c-36.28125 15.746094-59.824219 51.457032-60 91.007813v61.140625h-16.800781c-17.160157.066406-31.074219 13.929688-31.199219 31.089844v12.898437c.0703125 14.011719 9.496094 26.246094 23.027344 29.878907 13.53125 3.632812 27.820312-2.230469 34.898437-14.320313 4.464844 3.503906 9.96875 5.421875 15.644531 5.453125h147.359376c5.65625-.03125 11.140624-1.949219 15.585937-5.453125 6.976563 12.109375 21.238281 18.003906 34.730469 14.351563 13.492187-3.652344 22.835937-15.929688 22.753906-29.910157v-12.898437c.109375-17.0625-13.636719-30.984375-30.699219-31.089844h-17.300781v-61.140625c.046875-26.308594-10.429688-51.539063-29.09375-70.078125-8.785156-8.996094-19.296875-16.121094-30.90625-20.949219v-9.371093c0-14.019532-10.914062-25.460938-24.929688-25.460938h-4.125c2.082032-2.027344 4.898438-3.109375 7.800782-3h67.238281c12.152344 0 22-9.851562 22-22s-9.847656-22-22-22h-31.246094c-8-.003906-14.488281-6.492188-14.492187-14.492188.011718-8.015624 6.511718-14.503906 14.523437-14.507812h74.480469c10.046875-.019531 19.675781-4.039062 26.757812-11.167969 7.082032-7.128906 11.039063-16.785156 10.992188-26.832031v-12c.03125-5.851562 2.394531-11.453125 6.566406-15.558594 4.09375-4.140625 9.675782-6.460937 15.5-6.441406 12.128906.019531 21.949219 9.867188 21.933594 22v381h-13.050781c-28-.007812-52.375 19.140625-59 46.34375-.507813 2.089844-.027344 4.292969 1.296875 5.980469 1.328125 1.6875 3.355468 2.675781 5.503906 2.675781h141c2.148438 0 4.175781-.988281 5.503906-2.675781s1.804688-3.894531 1.296875-5.980469c-5.179687-21.152344-21.265625-37.921875-42.183593-43.980469zm-366.167969-56.363281h16.800781v23h-34v-5.910156c.117188-9.433594 7.765625-17.035156 17.199219-17.089844zm0 46.941406c-6.660157.050782-12.714844-3.855468-15.417969-9.941406h30.828125c-2.699219 6.085938-8.75 9.992188-15.410156 9.941406zm232.101562 0c-6.660156.050782-12.710937-3.855468-15.410156-9.941406h30.828125c-2.703125 6.085938-8.757812 9.992188-15.417969 9.941406zm16.699219-29.851562v5.910156h-34v-23h17.300781c4.480469.046875 8.761719 1.875 11.894531 5.082031 3.132813 3.207031 4.859376 7.527344 4.804688 12.007813zm-48-92.230469v100.519531c0 6.300782-4.769531 11.621094-11.070312 11.621094h-147.359376c-6.375-.085938-11.511718-5.246094-11.570312-11.621094v-100.519531c.019531-47.039063 38.175781-85.148437 85.214844-85.109375 10.179687-.015625 20.277344 1.800781 29.8125 5.367188 33.152344 12.527343 55.054687 44.304687 54.972656 79.742187zm-60-100.398437v4.554687c-16.382812-4.355469-33.617188-4.355469-50 0v-4.554687c.011719-6.3125 5.117188-11.433594 11.429688-11.460938h27.640624c6.296876 0 10.929688 5.164062 10.929688 11.460938zm208.550781 243.539062c3.296875 0 6.585938.347656 9.8125 1.035156.773438.886719.960938 2.140625.476563 3.210938-.488282 1.070312-1.554688 1.757812-2.730469 1.753906h-51.71875c-1.175781.003906-2.242187-.683594-2.730469-1.753906-.484375-1.070313-.296875-2.324219.476563-3.210938 3.226562-.6875 6.515625-1.035156 9.8125-1.035156zm-78.949219 27c3.902344-8.429688 10.25-15.492188 18.210938-20.277344 1.722656 7.769532 8.621094 13.292969 16.578125 13.277344h51.71875c6.878906.011719 13.085937-4.132812 15.707031-10.492188.371094-.902343.660156-1.832031.875-2.78125 7.941406 4.804688 14.28125 11.863282 18.214844 20.273438zm0 0"/></g></svg>