<svg height="414pt" viewBox="0 -1 414.07 414" width="414pt" xmlns="http://www.w3.org/2000/svg"><path d="m366.96875 270.574219v22.910156h-80.199219v-22.910156zm0 0" fill="#00efd1"/><path d="m315.410156 41.433594-17.179687-3.4375v-30.929688h57.28125v42.386719l-17.101563-3.417969zm0 0" fill="#00acea"/><path d="m349.78125 75.804688v194.769531h-45.820312v-194.769531zm0 0" fill="#00acea"/><path d="m338.410156 46.035156-.082031.417969v29.351563h-22.917969v-34.371094zm0 0" fill="#00efd1"/><path d="m303.960938 103.304688v34.371093h-184.460938v-34.371093zm0 0" fill="#00efd1"/><path d="m140.171875 299.964844h60.078125c7.25 0 13.128906 5.878906 13.128906 13.128906 0 7.253906-5.878906 13.132812-13.128906 13.132812h19.691406c7.25 0 13.128906 5.875 13.128906 13.128907 0 7.25-5.878906 13.128906-13.128906 13.128906h-13.132812c7.253906 0 13.132812 5.878906 13.132812 13.128906 0 7.253907-5.878906 13.132813-13.132812 13.132813h-22.980469l-.089844.390625c6.429688 1.613281 10.644531 7.765625 9.835938 14.34375-.8125 6.578125-6.398438 11.519531-13.023438 11.523437h-104.550781c-38.070312 0-68.933594-30.863281-68.933594-68.933594 0-38.070312 30.863282-68.933593 68.933594-68.933593h85.839844c3.082031 0 5.578125 2.496093 5.582031 5.578125 0 15.050781-12.199219 27.253906-27.25 27.25zm0 0" fill="#fedb41"/><path d="m137.828125 137.675781h38.953125v25.199219h-38.953125zm0 0" fill="#00acea"/><g fill="#083863"><path d="m374.070312 270.574219c0-3.863281-3.234374-6.539063-7.101562-6.539063h-9.898438v-188.230468c0-3.867188-3.425781-6.769532-7.289062-6.769532h-4.710938v-14.476562l8.9375 1.761718c.472657.089844.953126.132813 1.4375.132813 1.5625 0 3.070313-.5625 4.25-1.585937 1.570313-1.351563 2.445313-3.339844 2.375-5.414063v-42.386719c0-3.867187-2.695312-7.0312498-6.558593-7.0312498h-57.28125c-3.902344 0-7.085938 3.1289058-7.160157 7.0312498v5.707032l-33.207031-4.621094c-3.828125-.539063-7.371093 2.128906-7.90625 5.960937-.539062 3.828125 2.128907 7.367188 5.960938 7.90625l35.152343 4.890625v11.085938c-.039062 3.316406 2.28125 6.199218 5.535157 6.863281l11.464843 2.3125v21.863281h-4.109374c-1.820313-.046875-3.582032.644532-4.882813 1.921875-1.300781 1.277344-2.023437 3.027344-2.007813 4.847657v20.230468h-177.570312c-4.003906.09375-7.25 3.269532-7.429688 7.269532v34.371093c.171876 4.015625 3.410157 7.226563 7.429688 7.359375h11.570312v17.839844c-.058593 1.847656.621094 3.644531 1.890626 4.988281 1.269531 1.34375 3.019531 2.125 4.867187 2.171875h38.953125c3.953125-.050781 7.164062-3.207031 7.289062-7.160156v-17.839844h113v119h-10.300781c-1.773437-.09375-3.507812.5625-4.78125 1.804688-1.273437 1.238281-1.96875 2.957031-1.917969 4.734375v15.460937h-33.398437c-3.867187 0-7 3.132813-7 7 0 3.867188 3.132813 7 7 7h160.398437c3.867188 0 7-3.132812 7-7 0-3.867187-3.132812-7-7-7h-33zm-69-256.539063h43v26.878906l-43-8.65625zm17 35.9375 9 1.785156v17.277344h-9zm-152 106.0625h-25v-11h25zm-44-25v-21h171v21zm185-48h32v181h-32zm-17 195h66v8h-66zm0 0"/><path d="m150.070312 194.386719c0-3.867188-3.132812-7-7-7-3.867187 0-7 3.132812-7 7v8.019531c0 3.863281 3.132813 7 7 7 3.867188 0 7-3.136719 7-7zm0 0"/><path d="m172.070312 220.613281c-3.867187 0-7 3.136719-7 7v6.871094c0 3.867187 3.132813 7 7 7 3.867188 0 7-3.132813 7-7v-6.871094c0-3.863281-3.132812-7-7-7zm0 0"/><path d="m143.070312 218.316406c-3.867187 0-7 3.132813-7 7v6.878906c0 3.867188 3.132813 7 7 7 3.867188 0 7-3.132812 7-7v-6.878906c0-3.867187-3.132812-7-7-7zm0 0"/><path d="m179.070312 194.386719c0-3.867188-3.132812-7-7-7-3.867187 0-7 3.132812-7 7v8.019531c0 3.863281 3.132813 7 7 7 3.867188 0 7-3.136719 7-7zm0 0"/><path d="m76 412.035156h104.550781c5.335938.015625 10.457031-2.109375 14.21875-5.898437 5.34375-5.210938 7.261719-13.007813 4.945313-20.101563h7.097656c11.140625-.082031 20.128906-9.132812 20.132812-20.273437-.003906-2.40625-.429687-4.792969-1.261718-7.046875 9.574218-2.925782 15.582031-12.398438 14.148437-22.304688-1.433593-9.90625-9.882812-17.285156-19.890625-17.375h-.523437c1.933593-6.089844.835937-12.742187-2.957031-17.886718-3.792969-5.140626-9.820313-8.160157-16.210938-8.113282h-32.449219c4.296875-5.910156 6.613281-13.027344 6.621094-20.335937-.003906-6.960938-5.621094-12.617188-12.582031-12.664063h-85.839844c-41.972656 0-76 34.027344-76 76s34.027344 76 76 76zm-43.789062-119.808594c11.582031-11.667968 27.347656-18.21875 43.789062-18.191406h84.371094c-.726563 10.640625-9.535156 18.925782-20.199219 19h-53.210937c-3.867188 0-7 3.132813-7 7 0 3.867188 3.132812 7 7 7h113.289062c1.628906-.015625 3.191406.621094 4.339844 1.773438 1.148437 1.101562 1.796875 2.621094 1.789062 4.207031-.003906 1.613281-.65625 3.160156-1.808594 4.289063-1.152343 1.132812-2.707031 1.753906-4.320312 1.730468h-85.859375c-3.867187 0-7 3.132813-7 7 0 3.867188 3.132813 7 7 7h105.550781c1.640625.03125 3.203125.714844 4.339844 1.898438 1.144531 1.074218 1.792969 2.574218 1.789062 4.144531-.007812 1.609375-.664062 3.144531-1.816406 4.265625s-2.707031 1.730469-4.3125 1.691406h-105.550781c-3.867187 0-7 3.132813-7 7 0 3.867188 3.132813 7 7 7h92.417969c1.660156.082032 3.21875.8125 4.34375 2.035156 1.15625 1.242188 1.796875 2.878907 1.789062 4.578126.015625 3.433593-2.699218 6.261718-6.132812 6.386718h-22.980469c-.410156 0-.816406.039063-1.222656.113282-.683594-.074219-1.367188-.109376-2.054688-.113282h-45.300781c-3.867188 0-7 3.132813-7 7 0 3.867188 3.132812 7 7 7h45.300781c.496094-.046875.996094-.035156 1.488281.035156 2.984376.738282 4.949219 3.589844 4.570313 6.644532-.378906 3.050781-2.984375 5.335937-6.058594 5.320312h-104.550781c-25.058594-.023437-47.636719-15.132812-57.21875-38.285156-9.582031-23.15625-4.28125-49.800781 13.429688-67.523438zm0 0"/></g></svg>