<svg height="383pt" viewBox="0 -11 383.96115 383" width="383pt" xmlns="http://www.w3.org/2000/svg"><path d="m270.582031 147.710938v39.660156l29.558594-21.941406 34.609375 59.949218-64.167969 41.933594h-34.621093c0-25.492188-20.664063-46.15625-46.15625-46.15625-25.488282 0-46.152344 20.664062-46.152344 46.15625h-34.613282l-64.179687-41.933594 34.621094-59.949218 29.558593 21.941406v-109.660156c0-10.199219 7.671876-18.765626 17.8125-19.878907l2.960938 7.398438 3.007812-7.519531h113.980469l3.011719 7.519531 3.007812-7.519531h17.140626c.210937 0 .421874 0 .621093.019531zm0 0" fill="#00efd1"/><path d="m291.960938 79.832031v67.878907h-21.378907v-65.21875h.777344c2.351563-.25 4.691406-.523438 7.042969-.8125 4.507812-.550782 9.027344-1.164063 13.558594-1.847657zm0 0" fill="#00acea"/><path d="m291.960938 79.710938v.121093c-4.53125.6875-9.050782 1.304688-13.558594 1.847657-2.351563.289062-4.691406.5625-7.042969.8125h-.777344v-24.761719c11.902344.328125 21.378907 10.074219 21.378907 21.980469zm0 0" fill="#00acea"/><path d="m272.882812 7.539062-20.0625 50.171876h-6.019531l-20.070312-50.171876zm0 0" fill="#00acea"/><path d="m235.960938 267.3125h-92.308594c0-25.492188 20.664062-46.15625 46.152344-46.15625 25.492187 0 46.15625 20.664062 46.15625 46.15625zm0 0" fill="#00acea"/><path d="m152.882812 7.539062-20.0625 50.171876h-3.78125c-.730468 0-1.460937.039062-2.1875.121093l-20.121093-50.292969zm0 0" fill="#00acea"/><g fill="#083863"><path d="m4.8125 64.59375c1.648438.523438 40.148438 12.515625 97.148438 20.695312v88.167969l-18.347657-13.648437c-1.597656-1.1875-3.628906-1.632813-5.578125-1.230469-1.949218.40625-3.632812 1.625-4.625 3.351563l-34.613281 59.949218c-1.859375 3.222656-.878906 7.332032 2.234375 9.363282l64.179688 42.015624c1.132812.769532 2.460937 1.191407 3.828124 1.222657h161.542969c1.367188-.03125 2.695313-.457031 3.828125-1.226563l64.167969-41.972656c3.113281-2.039062 4.09375-6.152344 2.234375-9.378906l-34.609375-59.960938c-.996094-1.730468-2.6875-2.953125-4.640625-3.359375-1.894531-.40625-3.871094.046875-5.402344 1.230469l-18.199218 13.644531v-18.976562h14c1.832031.050781 3.609374-.636719 4.925781-1.910157 1.316406-1.273437 2.066406-3.027343 2.074219-4.859374v-61.894532c27.488281-4.378906 54.457031-11.535156 80.5-21.359375 3.609374-1.378906 5.417968-5.425781 4.039062-9.039062-1.382812-3.609375-5.429688-5.417969-9.039062-4.039063-24.78125 9.347656-50.433594 16.1875-76.578126 20.417969-3.328124-12.023437-14-20.554687-26.460937-21.148437-.277344-.074219-.554687-.132813-.835937-.171876h-7.425782l16.222656-40.453124c.859376-2.148438.59375-4.585938-.710937-6.5-1.304687-1.917969-3.472656-3.054688-5.789063-3.042969h-46.152343c-2.328125.011719-4.5 1.171875-5.800781 3.105469-1.300782 1.886718-1.5625 4.300781-.699219 6.425781l16.230469 40.46875h-93.300782l16.222656-40.457031c.859376-2.148438.59375-4.585938-.710937-6.5-1.304687-1.917969-3.472656-3.054688-5.789063-3.042969h-46.152343c-2.328125.011719-4.496094 1.175781-5.796875 3.105469-1.300782 1.929687-1.5625 4.378906-.703125 6.539062l17.261719 43.15625c-7.351563 3.472656-12.742188 10.074219-14.675782 17.972656-55.359375-8.019531-93.359375-19.886718-93.75-20.011718-3.671875-1.128907-7.570312.910156-8.734375 4.570312-1.167969 3.660156.832031 7.578125 4.480469 8.78125zm257.730469-50.113281-12.730469 31.847656-12.742188-31.847656zm-111.253907 246c3.3125-18 19.320313-32.234375 38.523438-32.234375 10.394531-.015625 20.363281 4.132812 27.679688 11.515625 5.691406 5.601562 9.480468 12.847656 10.835937 20.71875zm126.671876-120v-51.660157c.488281-.101562.980468-.164062 1.476562-.191406 1.960938-.238281 3.660156-.484375 5.523438-.730468v52.582031zm6.242187-66.554688c-2.027344.273438-4.242187.539063-6.242187.800781v-7.957031c2 1.636719 5 4.136719 6.242187 7.15625zm-141.660156-59.445312-12.730469 31.84375-12.742188-31.84375zm-26.582031 63.230469c.007812-4.726563 2.582031-9.074219 6.71875-11.359376l.613281 1.480469c1.066406 2.65625 3.640625 4.398438 6.507812 4.398438h.003907c2.882812-.046875 5.449218-1.832031 6.5-4.511719l1.257812-3.238281h104.5l1.246094 3.234375c1.035156 2.695312 3.625 4.46875 6.511718 4.464844 2.882813-.007813 5.464844-1.792969 6.488282-4.492188l1.253906-3.207031h6.398438v122.890625c-.089844 2.617187 1.339843 5.050781 3.664062 6.253906 2.328125 1.199219 5.140625.953125 7.222656-.632812l23.199219-17.257813 27.347656 47.5-56.898437 37.246094h-26c-1.40625-11.636719-6.730469-22.453125-15.097656-30.660157-9.949219-9.996093-23.484376-15.589843-37.585938-15.53125-26.640625.054688-49.144531 19.785157-52.683594 46.191407h-26l-56.890625-37.25 27.378907-47.457031 23.253906 17.238281c2.117187 1.574219 4.941406 1.808593 7.292968.613281 2.347657-1.195312 3.820313-3.617188 3.796876-6.253906zm0 0"/><path d="m139.039062 181.480469h24.230469c3.867188 0 7-3.132813 7-7 0-3.867188-3.132812-7-7-7h-24.230469c-3.863281 0-7 3.132812-7 7 0 3.867187 3.136719 7 7 7zm0 0"/><path d="m73.960938 316.421875v27c0 3.863281 3.132812 7 7 7 3.867187 0 7-3.136719 7-7v-27c0-3.867187-3.132813-7-7-7-3.867188 0-7 3.132813-7 7zm0 0"/><path d="m104.960938 294.421875v26c0 3.863281 3.132812 7 7 7 3.867187 0 7-3.136719 7-7v-26c0-3.867187-3.132813-7-7-7-3.867188 0-7 3.132813-7 7zm0 0"/><path d="m233.960938 294.421875v23c0 3.863281 3.132812 7 7 7 3.867187 0 7-3.136719 7-7v-23c0-3.867187-3.132813-7-7-7-3.867188 0-7 3.132813-7 7zm0 0"/><path d="m265.960938 324.421875v31c0 3.863281 3.132812 7 7 7 3.867187 0 7-3.136719 7-7v-31c0-3.867187-3.132813-7-7-7-3.867188 0-7 3.132813-7 7zm0 0"/><path d="m290.960938 278.421875v22c0 3.863281 3.132812 7 7 7 3.867187 0 7-3.136719 7-7v-22c0-3.867187-3.132813-7-7-7-3.867188 0-7 3.132813-7 7zm0 0"/><path d="m40.960938 278.421875v23c0 3.863281 3.132812 7 7 7 3.867187 0 7-3.136719 7-7v-23c0-3.867187-3.132813-7-7-7-3.867188 0-7 3.132813-7 7zm0 0"/></g></svg>