<svg height="453pt" viewBox="0 -88 453.92258 453" width="453pt" xmlns="http://www.w3.org/2000/svg"><path d="m442.78125 130.527344-29.058594 42.46875-37.800781-22.867188v83.410156c-50.070313 24.878907-117.050781 3.457032-128.320313-.460937v-82.949219l-36.800781 22.867188-30.070312-42.46875 66.871093-43.6875h16.070313c11.589844 14.59375 29.183594 23.132812 47.820313 23.214844 18.636718.082031 36.300781-8.304688 48.019531-22.796876l.339843-.417968h16.070313zm0 0" fill="#00efd1"/><path d="m375.921875 233.539062v24.570313h-.011719c-55 15.71875-73.308594 15.71875-128.308594 0v-25.03125c11.269532 3.917969 78.25 25.339844 128.320313.460937zm0 0" fill="#00acea"/><path d="m359.851562 86.839844-.339843.417968c-11.71875 14.492188-29.382813 22.878907-48.019531 22.796876-18.636719-.082032-36.230469-8.621094-47.820313-23.214844zm0 0" fill="#00acea"/><path d="m163.03125 130.46875v14.398438c0 4.660156-1.847656 9.132812-5.140625 12.429687l-6.4375 6.441406c-9.1875-3.011719-14.195313-12.898437-11.1875-22.085937 3.011719-9.1875 12.898437-14.195313 22.085937-11.183594zm0 0" fill="#00efd1"/><path d="m163.03125 77.988281v52.480469h-.679688c-9.1875-3.011719-19.074218 1.996094-22.085937 11.183594-3.007813 9.1875 2 19.074218 11.1875 22.085937l-28.671875 28.660157c-7.140625 7.257812-18.773438 7.476562-26.179688.488281-3.542968-3.4375-5.5625-8.15625-5.597656-13.097657-.039062-4.9375 1.90625-9.6875 5.398438-13.179687l20.949218-20.960937v-67.660157zm0 0" fill="#00acea"/><path d="m83.03125 129.46875v14.398438c0 4.660156-1.847656 9.132812-5.140625 12.429687l-6.4375 6.441406c-9.1875-3.011719-14.195313-12.898437-11.1875-22.085937 3.011719-9.1875 12.898437-14.195313 22.085937-11.183594zm0 0" fill="#00efd1"/><path d="m83.03125 76.988281v52.480469h-.679688c-9.1875-3.011719-19.074218 1.996094-22.085937 11.183594-3.007813 9.1875 2 19.074218 11.1875 22.085937l-28.671875 28.660157c-7.140625 7.257812-18.773438 7.476562-26.179688.488281-3.542968-3.4375-5.5625-8.15625-5.597656-13.097657-.039062-4.9375 1.90625-9.6875 5.398438-13.179687l20.949218-20.960937v-67.660157zm0 0" fill="#00acea"/><path d="m4.972656 41.210938c.75.21875 17.648438 5.199218 45.988282 11.332031v17.15625h-13.609376c-4 .101562-7.230468 3.292969-7.390624 7.289062v64.761719l-18.699219 18.90625c-7.242188 7.28125-9.390625 18.203125-5.445313 27.679688 3.949219 9.480468 13.214844 15.652343 23.480469 15.636718 6.910156.007813 13.539063-2.734375 18.425781-7.625l28.675782-28.660156 6.414062-6.445312c4.605469-4.605469 7.179688-10.863282 7.148438-17.375v-66.878907c.054687-3.910156-3.023438-7.148437-6.929688-7.289062h-15.136719l4.894531-12.84375c19.90625 3.855469 40.101563 7.28125 60.171876 9.929687v3.914063h-15.609376c-4 .101562-7.230468 3.292969-7.390624 7.289062v64.761719l-18.699219 18.90625c-7.242188 7.28125-9.390625 18.203125-5.445313 27.679688 3.949219 9.480468 13.214844 15.652343 23.480469 15.636718 6.910156.007813 13.539063-2.734375 18.425781-7.625l28.675782-28.660156 6.414062-6.445312c4.605469-4.605469 7.179688-10.863282 7.148438-17.375v-66.878907c.054687-3.910156-3.023438-7.148437-6.929688-7.289062h-13.511719l.777344-1.929688c30.101563 3.535157 60.363281 5.53125 90.664063 5.976563v8.066406l-64.058594 41.855469c-1.59375 1.039062-2.691406 2.683593-3.046875 4.550781-.355469 1.871094.0625 3.800781 1.164062 5.355469l30.070313 42.46875c2.214844 3.027343 6.382812 3.855469 9.585937 1.898437l26.285157-16.222656v95.390625c-.074219 3.09375 1.933593 5.851563 4.902343 6.730469 28.097657 8.03125 47 12.046875 65.988281 12.046875 18.9375 0 37.851563-3.996094 65.824219-11.984375 3.117188-.777344 5.300781-3.585938 5.289063-6.796875v-95.558594l27.15625 16.441406c3.175781 1.921875 7.296875 1.027344 9.390625-2.039062l29.058593-42.46875c1.0625-1.554688 1.453126-3.46875 1.085938-5.316407-.367188-1.847656-1.464844-3.46875-3.039062-4.496093l-62.128907-40.601563 10.273438-25.511718c18.648437-4.597657 36.957031-10.464844 54.804687-17.5625 3.566406-1.453126 5.285156-5.511719 3.851563-9.085938-1.433594-3.574219-5.484375-5.316406-9.0625-3.90625-14.078125 5.609375-28.460938 10.414062-43.082031 14.390625l10.179687-25.277344c1.445313-3.585937-.292969-7.664062-3.878906-9.109375-3.585938-1.445312-7.664063.292969-9.109375 3.878906l-14 34.765626c-.5.117187-1 .230468-1.5.34375v-39.496094c0-3.863282-3.132813-7-7-7-3.863282 0-7 3.136718-7 7v42.476562c-32.359375 6.398438-67.636719 10-105.136719 10.714844l16.789063-51c1.207031-3.671875-.789063-7.628906-4.464844-8.835938-3.671875-1.207031-7.628906.789063-8.835938 4.460938l-12.355468 37.53125v-35.347656c0-3.863282-3.132813-7-7-7-3.863282 0-7 3.136718-7 7v53.25c-27.558594-.3125-56.265626-2.097656-85.570313-5.34375l17.121094-45.4375c1.3125-3.601563-.519531-7.589844-4.109375-8.941406-3.589844-1.351563-7.597656.433593-8.988282 4.007812l-12.453124 33.039062v-30.574218c0-3.863282-3.132813-7-7-7-3.863282 0-7 3.136718-7 7v45.171875c-18.410157-2.464844-36.898438-5.464844-55.164063-8.953125l12.714844-33.746094c.898437-2.34375.472656-4.992188-1.113281-6.933594-1.589844-1.945312-4.097657-2.890625-6.574219-2.480468-2.472657.414062-4.539063 2.121093-5.414063 4.472656l-12.449218 33.039062v-30.570312c0-3.863282-3.132813-7-7-7-3.863282 0-7 3.136718-7 7v30.71875c-26.070313-5.734375-41.839844-10.378906-42.011719-10.429688-3.699219-1.070312-7.566407 1.042969-8.660157 4.734375-1.09375 3.691407 1 7.574219 4.683594 8.691407zm67.933594 110.136718-2.75 2.765625c-3.21875-2.726562-4.484375-7.121093-3.21875-11.144531 1.269531-4.023438 4.824219-6.894531 9.023438-7.289062v8.1875c.019531 2.800781-1.078126 5.496093-3.054688 7.480468zm3.054688-29.699218c-9.871094.398437-18.535157 6.6875-21.96875 15.949218-3.433594 9.261719-.964844 19.679688 6.257812 26.414063l-22.429688 22.441406c-4.433593 4.554687-11.699218 4.738281-16.355468.40625-2.195313-2.136719-3.441406-5.0625-3.464844-8.125-.019531-3.066406 1.1875-6.007813 3.351562-8.175781l20.753907-20.960938c1.257812-1.332031 1.929687-3.117187 1.855469-4.949218v-60.949219h32zm76.945312 30.699218-2.75 2.765625c-3.21875-2.726562-4.484375-7.121093-3.21875-11.144531 1.269531-4.023438 4.824219-6.894531 9.023438-7.289062v8.1875c.019531 2.800781-1.078126 5.496093-3.054688 7.480468zm3.054688-29.699218c-9.871094.398437-18.53125 6.6875-21.96875 15.949218-3.433594 9.261719-.964844 19.679688 6.257812 26.417969l-22.429688 22.433594c-4.433593 4.558593-11.699218 4.742187-16.355468.40625-2.195313-2.136719-3.441406-5.0625-3.464844-8.125-.019531-3.0625 1.1875-6.007813 3.351562-8.175781l20.753907-20.957032c1.257812-1.335937 1.925781-3.117187 1.855469-4.949218v-60.949219h32zm99 130.160156v-10.164063c20.925781 6.269531 42.628906 9.558594 64.472656 9.761719 16.324218 0 33.527344-2.171875 49.527344-8.226562v8.628906c-48 13.390625-66 13.390625-114 .003906zm156.722656-89.230469-32.136719-19.441406c-2.160156-1.308594-4.851563-1.347657-7.046875-.105469s-3.550781 3.574219-3.539062 6.097656v78.945313c-42 18.570312-97 4.25-114-1.074219v-77.871094c-.082032-2.566406-1.519532-4.894531-3.777344-6.117187-2.257813-1.226563-4.992188-1.160157-7.1875.171875l-31.246094 19.390625-22.089844-31.230469 59.027344-38.644531h10.726562c12.925782 15 31.335938 23 51.050782 23h.300781c19.800781 0 38.320313-8 51.320313-23h10.746093l59.128907 38.707031zm-130.222656-69.878906h60.601562c-9.023438 6.0625-19.664062 9.273437-30.535156 9.214843-10.71875.015626-21.195313-3.195312-30.066406-9.214843zm87.5-29.464844v15.464844h-111.4375l1.667968-5.007813c39.050782-.488281 75.910156-3.949218 109.769532-10.457031zm0 0" fill="#083863"/></svg>