<svg height="374pt" viewBox="-45 0 374 374" width="374pt" xmlns="http://www.w3.org/2000/svg"><path d="m277 322v25c.003906 11.046875-8.953125 20.003906-20 20h-230c-11.046875.003906-20.003906-8.953125-20-20v-25zm0 0" fill="#00acea"/><path d="m218.109375 177.300781c-12.894531-39.921875-54.324219-63.207031-95.128906-53.46875-40.804688 9.742188-67.253907 49.230469-60.726563 90.671875 6.523438 41.4375 43.828125 70.886719 85.652344 67.613282 41.824219-3.273438 74.09375-38.164063 74.09375-80.117188.003906-8.386719-1.308594-16.722656-3.890625-24.699219zm58.890625-86.300781v231h-270v-231zm0 0" fill="#00efd1"/><path d="m277 27v64h-270v-64c-.003906-11.046875 8.953125-20.003906 20-20h30v46h78v-46h122c11.046875-.003906 20.003906 8.953125 20 20zm0 0" fill="#00acea"/><path d="m218.109375 177.300781c5.1875 16.058594 5.1875 33.339844 0 49.398438-12.15625-1.914063-21.109375-12.390625-21.109375-24.699219s8.953125-22.785156 21.109375-24.699219zm0 0" fill="#fedb41"/><path d="m218.109375 177.300781c-12.15625 1.914063-21.109375 12.390625-21.109375 24.699219s8.953125 22.785156 21.109375 24.699219c-12.152344 37.433593-49.722656 60.46875-88.59375 54.316406-38.871094-6.148437-67.496094-39.660156-67.496094-79.015625s28.625-72.867188 67.496094-79.015625c38.871094-6.152344 76.441406 16.882813 88.59375 54.316406zm0 0" fill="#00acea"/><path d="m57 7h78v46h-78zm0 0" fill="#fedb41"/><g fill="#083863"><path d="m27 374h230c14.90625-.015625 26.984375-12.09375 27-27v-320c-.015625-14.90625-12.09375-26.984375-27-27h-230c-14.90625.015625-26.984375 12.09375-27 27v320c.015625 14.90625 12.09375 26.984375 27 27zm230-14h-230c-7.175781-.007812-12.992188-5.824219-13-13v-18h256v18c-.007812 7.175781-5.824219 12.992188-13 13zm-243-45v-217h256v217zm50-301h64v32h-64zm-37 0h23v39c0 3.867188 3.132812 7 7 7h78c3.867188 0 7-3.132812 7-7v-39h115c7.175781.007812 12.992188 5.824219 13 13v57h-256v-57c.007812-7.175781 5.824219-12.992188 13-13zm0 0"/><path d="m224.765625 175.136719c-14.023437-43.398438-59.066406-68.707031-103.425781-58.113281s-73.109375 53.523437-66.007813 98.574218c7.097657 45.050782 47.652344 77.0625 93.121094 73.503906 45.46875-3.5625 80.546875-41.496093 80.546875-87.101562.007812-9.121094-1.417969-18.1875-4.234375-26.863281zm-20.765625 26.863281c-.03125-6.558594 3.53125-12.609375 9.28125-15.769531 2.292969 10.390625 2.292969 21.152343 0 31.539062-5.75-3.160156-9.3125-9.210937-9.28125-15.769531zm-62 73c-36.453125-.003906-67.320312-26.898438-72.308594-63.011719-4.984375-36.113281 17.433594-70.367187 52.519532-80.253906 35.089843-9.882813 72.09375 7.632813 86.6875 41.039063-11.503907 5.171874-18.902344 16.613281-18.902344 29.226562s7.398437 24.054688 18.902344 29.230469c-11.574219 26.625-37.863282 43.828125-66.898438 43.769531zm0 0"/><path d="m179 38h30c3.867188 0 7-3.132812 7-7s-3.132812-7-7-7h-30c-3.867188 0-7 3.132812-7 7s3.132812 7 7 7zm0 0"/><path d="m179 60h30c3.867188 0 7-3.132812 7-7s-3.132812-7-7-7h-30c-3.867188 0-7 3.132812-7 7s3.132812 7 7 7zm0 0"/></g></svg>