<svg height="424pt" viewBox="0 -88 424.00012 424" width="424pt" xmlns="http://www.w3.org/2000/svg"><path d="m406.960938 120.78125-26.171876 104.6875c-2.230468 8.90625-10.230468 15.148438-19.410156 15.152344h-289.679687c-8.746094-.003906-16.476563-5.691406-19.089844-14.039063l-33.046875-105.75c29.957031 1 30.816406 19.617188 62.4375 19.617188 32.5 0 32.5-19.667969 65-19.667969s32.5 19.667969 64.992188 19.667969c32.488281 0 32.5-19.667969 65-19.667969s32.5 19.667969 65 19.667969 32.507812-19.648438 64.96875-19.667969zm0 0" fill="#00acea"/><path d="m346.46875 40.25c5.554688 9.480469 3.476562 21.582031-4.925781 28.664062-8.402344 7.082032-20.683594 7.082032-29.085938 0-8.398437-7.082031-10.480469-19.183593-4.925781-28.664062l19.46875-33.25zm0 0" fill="#00efd1"/><path d="m269.8125 40.25c5.550781 9.484375 3.46875 21.585938-4.933594 28.667969s-20.683594 7.082031-29.085937 0c-8.402344-7.082031-10.484375-19.183594-4.933594-28.667969l19.472656-33.25zm0 0" fill="#00efd1"/><path d="m193.140625 40.25c5.550781 9.480469 3.46875 21.582031-4.933594 28.660156-8.402343 7.078125-20.679687 7.078125-29.082031 0s-10.484375-19.179687-4.933594-28.660156l19.480469-33.25zm0 0" fill="#00efd1"/><path d="m116.46875 40.25c5.554688 9.480469 3.476562 21.582031-4.925781 28.664062-8.402344 7.082032-20.683594 7.082032-29.085938 0-8.398437-7.082031-10.480469-19.183593-4.925781-28.664062l19.46875-33.25zm0 0" fill="#00efd1"/><g fill="#083863"><path d="m418.699219 73.828125c-3.75-.9375-7.546875 1.34375-8.488281 5.09375l-8.761719 35.0625c-14.660157 1.042969-23.070313 6.101563-30.566407 10.640625-7.824218 4.738281-14.582031 8.824219-28.890624 8.824219-14.304688 0-21.050782-4.085938-28.875-8.824219-8.398438-5.082031-17.921876-10.84375-36.125-10.84375-18.203126 0-27.722657 5.761719-36.121094 10.84375-7.824219 4.738281-14.582032 8.824219-28.878906 8.824219-14.296876 0-21.042969-4.085938-28.863282-8.820313-8.398437-5.085937-17.921875-10.847656-36.125-10.847656-18.207031 0-27.726562 5.761719-36.125 10.84375-7.820312 4.738281-14.578125 8.824219-28.875 8.824219s-21.050781-4.085938-28.875-8.820313c-7.085937-4.285156-15.03125-9.070312-28.300781-10.441406l-11.140625-35.652344c-1.152344-3.691406-5.082031-5.75-8.773438-4.597656-3.691406 1.152344-5.75 5.082031-4.59375 8.773438l45.609376 146.050781c3.480468 11.320312 13.929687 19.042969 25.769531 19.050781h289.679687c12.414063-.03125 23.214844-8.503906 26.203125-20.550781l36.207031-144.898438c.9375-3.761719-1.335937-7.570312-5.089843-8.535156zm-44.699219 150.035156c-1.433594 5.8125-6.632812 9.910157-12.621094 9.949219h-289.679687c-5.707031-.027344-10.738281-3.765625-12.40625-9.226562l-29.800781-95.421876c6.605468 1.578126 11.257812 4.363282 16.390624 7.46875 8.398438 5.082032 17.921876 10.828126 36.121094 10.828126 18.199219 0 27.726563-5.765626 36.125-10.851563 7.824219-4.734375 14.578125-8.824219 28.875-8.824219s21.054688 4.085938 28.875 8.820313c8.402344 5.085937 17.917969 10.847656 36.117188 10.847656 18.195312 0 27.722656-5.765625 36.121094-10.847656 7.824218-4.734375 14.582031-8.824219 28.878906-8.824219s21.050781 4.089844 28.875 8.824219c8.398437 5.082031 17.921875 10.84375 36.125 10.84375s27.734375-5.761719 36.136718-10.84375c5.925782-3.585938 11.242188-6.75 19.699219-8.101563zm0 0"/><path d="m250.328125 0c-2.484375 0-4.78125 1.320312-6.039063 3.464844l-19.46875 33.246094c-7.273437 12.421874-4.542968 28.277343 6.464844 37.550781 11.007813 9.273437 27.09375 9.273437 38.101563 0 11.007812-9.273438 13.738281-25.128907 6.464843-37.550781l-19.480468-33.25c-1.257813-2.144532-3.554688-3.460938-6.042969-3.460938zm11.011719 62.660156c-5.535156 5.542969-14.328125 6.109375-20.527344 1.320313-6.199219-4.785157-7.875-13.4375-3.910156-20.191407l13.429687-22.9375 13.4375 22.9375c3.574219 6.113282 2.578125 13.863282-2.429687 18.871094zm0 0"/><path d="m327 0c-2.484375 0-4.785156 1.320312-6.039062 3.464844l-19.46875 33.246094c-7.277344 12.421874-4.550782 28.277343 6.457031 37.554687 11.007812 9.277344 27.097656 9.277344 38.105469 0 11.007812-9.277344 13.734374-25.132813 6.457031-37.554687l-19.46875-33.25c-1.257813-2.144532-3.558594-3.460938-6.042969-3.460938zm11.011719 62.660156c-5.535157 5.542969-14.328125 6.105469-20.527344 1.320313-6.199219-4.789063-7.875-13.4375-3.914063-20.191407l13.429688-22.933593 13.429688 22.933593c3.578124 6.109376 2.585937 13.863282-2.417969 18.871094zm0 0"/><path d="m173.671875 0c-2.484375 0-4.785156 1.316406-6.039063 3.460938l-19.480468 33.25c-7.277344 12.421874-4.550782 28.28125 6.460937 37.558593 11.007813 9.273438 27.097657 9.273438 38.105469 0 11.011719-9.277343 13.738281-25.136719 6.464844-37.558593l-19.472656-33.25c-1.253907-2.144532-3.554688-3.460938-6.039063-3.460938zm11.007813 62.660156c-5.535157 5.539063-14.324219 6.101563-20.523438 1.316406-6.199219-4.78125-7.878906-13.429687-3.925781-20.1875l13.4375-22.9375 13.433593 22.9375c3.578126 6.109376 2.582032 13.863282-2.421874 18.871094zm0 0"/><path d="m103.042969 3.464844c-1.257813-2.144532-3.554688-3.464844-6.042969-3.464844-2.484375 0-4.785156 1.320312-6.039062 3.464844l-19.46875 33.246094c-7.277344 12.421874-4.550782 28.277343 6.457031 37.554687 11.007812 9.277344 27.097656 9.277344 38.105469 0 11.007812-9.277344 13.734374-25.132813 6.457031-37.554687zm4.96875 59.199218c-5.535157 5.539063-14.328125 6.105469-20.527344 1.316407-6.199219-4.785157-7.875-13.433594-3.914063-20.191407l13.429688-22.933593 13.429688 22.933593c3.578124 6.109376 2.585937 13.863282-2.417969 18.871094zm0 0"/></g></svg>