<svg height="414pt" viewBox="-16 0 414 414.00039" width="414pt" xmlns="http://www.w3.org/2000/svg"><path d="m375.191406 227.660156v11.308594l-85.511718 16.203125h-19.789063l-85.511719-16.203125v-11.308594zm0 0" fill="#00acea"/><path d="m375.191406 220.601562v7.058594h-190.8125v-31.199218h190.8125zm0 0" fill="#00efd1"/><path d="m289.679688 255.171875v124.4375c-.167969 5.34375-4.550782 9.585937-9.894532 9.585937s-9.726562-4.242187-9.894531-9.585937v-124.4375zm0 0" fill="#fedb41"/><path d="m137.011719 23.671875h26.660156v32.21875h-26.660156zm0 0" fill="#fedb41"/><path d="m155.898438 333.820312v62.070313c0 6.136719-4.972657 11.109375-11.109376 11.109375h-97v-126c0-22.089844 17.910157-40 40-40h36.449219c20.480469 25.871094 31.660157 53.679688 31.660157 92.820312zm0 0" fill="#00acea"/><path d="m137.011719 23.671875v32.21875h-26.671875c-12.269532 0-22.21875 9.949219-22.21875 22.21875v58.890625h-47.78125v-57.78125l-25-25 30.558594-30.546875zm0 0" fill="#00acea"/><path d="m124.238281 241h-36.449219c-22.089843 0-40 17.910156-40 40v126h-18.558593c-12.273438 0-22.21875-9.949219-22.21875-22.21875l.078125-139.222656c-.050782-21.269532 6.230468-42.078125 18.039062-59.769532 6.648438-9.886718 14.609375-18.824218 23.660156-26.570312h39.332032v22.492188c.035156 13.671874 5.542968 26.761718 15.300781 36.339843 7.402344 7.214844 14.355469 14.882813 20.816406 22.949219zm0 0" fill="#00efd1"/><path d="m48.789062 159.21875h-8.449218v-22.21875h47.78125v22.21875zm0 0" fill="#fedb41"/><g fill="#083863"><path d="m29.230469 414h115.558593c10.039063.007812 18.207032-8.074219 18.3125-18.109375v-62.070313c0-38.21875-10.332031-68.1875-33.269531-97.160156-6.664062-8.296875-13.828125-16.175781-21.453125-23.589844-8.46875-8.238281-13.253906-19.546874-13.277344-31.359374v-103.601563c.011719-7.832031 5.960938-14.378906 13.757813-15.144531.335937 9.9375 2.167969 19.765625 5.4375 29.152344 6.160156 17.363281 20.417969 39.660156 53.355469 47.265624 3.769531.867188 7.527344-1.480468 8.398437-5.246093.867188-3.769531-1.480469-7.527344-5.246093-8.398438-21.328126-4.921875-35.847657-17.609375-43.15625-37.820312-2.859376-8.011719-4.464844-16.417969-4.761719-24.917969h40.785156c3.972656-.019531 7.234375-3.140625 7.429687-7.109375v-32.21875c0-3.867187-3.566406-6.671875-7.429687-6.671875h-117.773437c-1.832032-.058594-3.617188.617188-4.945313 1.882812l-30.5625 30.46875c-2.6875 2.710938-2.742187 7.0625-.121094 9.839844l22.832031 22.929688v77.097656c.039063 1.390625.488282 2.734375 1.289063 3.871094-5.582031 5.808594-10.644531 12.097656-15.128906 18.792968-12.601563 18.835938-19.2851565 41.011719-19.199219 63.671876l-.0625 139.226562c.0273438 16.128906 13.097656 29.199219 29.230469 29.21875zm119.871093-80.179688v62.070313c-.097656 2.304687-2.003906 4.121094-4.3125 4.109375h-89.6875v-119c-.0625-8.714844 3.351563-17.097656 9.488282-23.289062 6.132812-6.195313 14.484375-9.6875 23.199218-9.710938h33.023438c19.65625 25.800781 28.289062 51.667969 28.289062 85.820312zm-68-181.820312h-33.527343l-.472657-.066406v-7.933594h34zm76-103h-13v-18h13zm-111.929687 25.269531-19.992187-19.882812 23.621093-23.386719h81.300781v18h-19.761718c-16.113282-.035156-29.203125 12.996094-29.238282 29.109375v51.890625h-34v-50.78125c.042969-1.839844-.652343-3.621094-1.929687-4.949219zm-31.082031 171.296875c-.074219-19.921875 5.792968-39.414062 16.851562-55.984375 5.832032-8.679687 12.71875-16.601562 20.5-23.582031h29.660156v15.710938c.082032 15.535156 6.335938 30.402343 17.390626 41.320312 3.828124 3.777344 7.339843 7.417969 10.582031 10.96875h-21.285157c-12.425781.027344-24.335937 4.996094-33.09375 13.8125-8.761718 8.820312-13.652343 20.757812-13.59375 33.1875v119h-11.871093c-8.402344-.007812-15.207031-6.816406-15.21875-15.214844zm0 0"/><path d="m249.558594 40c0-3.867188-3.132813-7-7-7h-32.21875c-3.867188 0-7 3.132812-7 7s3.132812 7 7 7h32.21875c3.867187 0 7-3.132812 7-7zm0 0"/><path d="m199.230469 25.113281c.777343 0 1.546875-.132812 2.28125-.386719l32.21875-11.109374c3.65625-1.257813 5.597656-5.242188 4.335937-8.898438-1.257812-3.65625-5.242187-5.597656-8.898437-4.335938l-32.21875 11.109376c-3.238281 1.113281-5.195313 4.402343-4.628907 7.777343.5625 3.375 3.488282 5.847657 6.910157 5.84375zm0 0"/><path d="m196.949219 69.179688 32.21875 11.109374c3.65625 1.257813 7.640625-.683593 8.898437-4.335937 1.261719-3.65625-.679687-7.640625-4.335937-8.902344l-32.21875-11.109375c-3.65625-1.257812-7.640625.683594-8.898438 4.335938-1.261719 3.65625.679688 7.640625 4.335938 8.902344zm0 0"/><path d="m81.789062 311c-3.863281 0-7 3.132812-7 7s3.136719 7 7 7h43c3.867188 0 7-3.132812 7-7s-3.132812-7-7-7zm0 0"/><path d="m115.789062 349h-34c-3.863281 0-7 3.132812-7 7s3.136719 7 7 7h34c3.867188 0 7-3.132812 7-7s-3.132812-7-7-7zm0 0"/><path d="m177.101562 196.460938v42.507812c.105469 3.410156 2.585938 6.277344 5.941407 6.878906l80.058593 15.121094v118.640625c-.050781 4.46875 1.695313 8.769531 4.84375 11.941406 4.878907 4.828125 12.171876 6.273438 18.527344 3.671875 6.351563-2.601562 10.535156-8.746094 10.628906-15.613281v-118.640625l79.554688-15.121094c3.253906-.652344 5.558594-3.5625 5.445312-6.878906v-42.507812c0-3.867188-3.046874-7.460938-6.910156-7.460938h-190.8125c-4.007812.191406-7.183594 3.449219-7.277344 7.460938zm111.921876 51.539062h-18.476563l-71.3125-13h161.101563zm-5.921876 131.609375c-.101562 1.636719-1.464843 2.90625-3.101562 2.890625-1.597656 0-2.894531-1.292969-2.898438-2.890625v-117.609375h6zm-92-176.609375h177v18h-177zm0 0"/></g></svg>