<svg id="Layer_1" height="512" viewBox="0 0 512 512" width="512" xmlns="http://www.w3.org/2000/svg" data-name="Layer 1"><g id="_Group_3" data-name=" Group 3"><path d="m418.01 187.97c37.11 0 67.71 30.6 67.71 67.71a68.083 68.083 0 0 1 -67.71 67.71h-93.97v-135.42z" fill="#00acea"/><path d="m324.04 323.39v94.62c0 37.11-30.6 67.71-67.71 67.71a68.083 68.083 0 0 1 -67.71-67.71v-94.62z" fill="#00acea"/><path d="m324.04 187.97v135.42h-135.42v-135.42zm-18.45 30.16c.33-8.14-6.18-14.65-14.65-14.65a14.65 14.65 0 1 0 14.65 14.65zm0 75.09a14.2 14.2 0 0 0 -14.65-14.65 14.65 14.65 0 1 0 14.65 14.65zm-34.64-37.52a14.645 14.645 0 1 0 -14.64 14.64 15.01 15.01 0 0 0 14.64-14.64zm-34.59-37.57a14.65 14.65 0 1 0 -14.65 14.65 15.025 15.025 0 0 0 14.65-14.65zm-14.65 89.74a15.025 15.025 0 0 0 14.65-14.65c0-8.46-6.51-14.97-14.65-14.65a14.65 14.65 0 0 0 0 29.3z" fill="#fedb41"/><path d="m324.04 93.34v94.63h-135.42v-93.98c0-37.11 30.6-67.71 67.71-67.71h.59a67.106 67.106 0 0 1 67.12 67.06z" fill="#00acea"/><path d="m290.94 203.48c8.47 0 14.98 6.51 14.65 14.65a14.65 14.65 0 1 1 -14.65-14.65z" fill="#00efd1"/><path d="m290.94 278.57a14.2 14.2 0 0 1 14.65 14.65 14.65 14.65 0 1 1 -14.65-14.65z" fill="#00efd1"/><path d="m256.31 241.05a14.645 14.645 0 1 1 -14.65 14.65 15.01 15.01 0 0 1 14.65-14.65z" fill="#00efd1"/><circle cx="221.71" cy="218.13" fill="#00efd1" r="14.65"/><path d="m236.36 293.22a14.65 14.65 0 1 1 -14.65-14.65c8.14-.32 14.65 6.19 14.65 14.65z" fill="#00efd1"/><path d="m188.62 187.97v135.42h-94.63c-37.11 0-67.71-30.6-67.71-67.71a68.433 68.433 0 0 1 20.06-47.9 67.251 67.251 0 0 1 47.65-19.81z" fill="#00acea"/><g fill="#083863"><path d="m418.01 182h-88.01v-88.66c0-40.285-32.762-73.34-73.08-73.34h-.59a73.994 73.994 0 0 0 -73.33 73.99v88.01h-89.01a72.971 72.971 0 0 0 -51.89 21.554 74.182 74.182 0 0 0 -21.82 52.133 73.739 73.739 0 0 0 73.71 73.313h89.01v89.01a73.5 73.5 0 0 0 147 0v-89.01h88.01a73.5 73.5 0 0 0 0-147zm-223.01-88.01a62 62 0 0 1 61.33-61.99h.59c33.702 0 61.08 27.672 61.08 61.34v88.66h-123zm123 100.01v123h-123v-123zm-224.01 123a61.744 61.744 0 0 1 -61.71-61.366 62.082 62.082 0 0 1 18.3-43.643 60.994 60.994 0 0 1 43.41-17.991h89.01v123zm224.01 101.01a61.5 61.5 0 1 1 -123 0v-89.01h123zm143.537-119a61.041 61.041 0 0 1 -43.527 17.99h-88.01v-123h88.01a61.4 61.4 0 0 1 43.527 105.013z"/><path d="m221.591 272.57a20.191 20.191 0 1 0 14.458 5.514 19.7 19.7 0 0 0 -14.458-5.514zm.119 29.3a8.65 8.65 0 0 1 0-17.3h.236.33a7.8 7.8 0 0 1 5.456 2.174 8.869 8.869 0 0 1 2.628 6.486 8.992 8.992 0 0 1 -8.65 8.64z"/><path d="m290.822 272.57a20.65 20.65 0 1 0 20.767 20.771 20.2 20.2 0 0 0 -20.767-20.771zm8.768 20.65a8.65 8.65 0 1 1 -8.65-8.65h.236.317a8.2 8.2 0 0 1 8.1 8.417c-.002.071-.003.152-.003.233z"/><path d="m221.71 238.78a20.65 20.65 0 1 0 -20.65-20.65 20.927 20.927 0 0 0 20.65 20.65zm0-29.3a8.65 8.65 0 1 1 -8.65 8.65 8.993 8.993 0 0 1 8.65-8.65z"/><path d="m290.94 238.78a20.929 20.929 0 0 0 20.649-20.528 19.686 19.686 0 0 0 -5.5-14.452 20.735 20.735 0 1 0 -15.151 34.98zm0-29.3a8.877 8.877 0 0 1 6.5 2.631 7.8 7.8 0 0 1 2.159 5.776c0 .081-.005.162-.005.243a8.65 8.65 0 1 1 -8.65-8.65z"/><path d="m235.66 255.7a20.645 20.645 0 1 0 20.65-20.65 20.922 20.922 0 0 0 -20.65 20.65zm20.65-8.65a8.645 8.645 0 1 1 -8.65 8.65 8.986 8.986 0 0 1 8.65-8.65z"/></g></g></svg>