<svg id="Layer_1" height="512" viewBox="0 0 512 512" width="512" xmlns="http://www.w3.org/2000/svg" data-name="Layer 1"><g id="_Group_3" data-name=" Group 3"><path d="m317.95 495.6h-173.13v-123.36a74.157 74.157 0 0 1 74.16-74.16h74.04a74.157 74.157 0 0 1 74.16 74.16v123.36z" fill="#00acea"/><path d="m227.53 248.08h77.59a25 25 0 1 1 0 50h-98.24a25 25 0 0 1 0-50z" fill="#fedb41"/><path d="m227.53 107.35h56.94v140.73h-56.94z" fill="#f4b844"/><path d="m284.47 44.87v62.48h-56.94v-62.48a28.47 28.47 0 0 1 56.94 0z" fill="#00efd1"/><path d="m323.353 298.094a31.949 31.949 0 0 0 3.647-3.094 31.043 31.043 0 0 0 -21.877-53h-15.123v-197.13a34.016 34.016 0 0 0 -9.858-24.37 33.4 33.4 0 0 0 -24.025-10.1 34.209 34.209 0 0 0 -34.117 34.47v197.13h-15.12a30.983 30.983 0 0 0 -18.207 56.064 80.22 80.22 0 0 0 -49.673 74.176v123.36c0 3.314 2.507 6.4 5.82 6.4h222.36c3.313 0 5.82-3.086 5.82-6.4v-123.36a80.192 80.192 0 0 0 -49.647-74.146zm-67.118-275.694a21.485 21.485 0 0 1 15.535 6.583 22 22 0 0 1 6.23 15.887v56.13h-44v-56.13a22.3 22.3 0 0 1 22.235-22.47zm-22.235 90.6h44v129h-44zm-27.12 179a19 19 0 0 1 0-38h98.24a19.055 19.055 0 0 1 19 19.04 18.957 18.957 0 0 1 -19 18.96zm154.12 198h-34.136c5.078-18 5.546-46.9 5.546-56.829 0-12.029-.679-52.431-9.419-65.974a5.98 5.98 0 1 0 -10.082 6.432c4.416 6.844 7.5 31.444 7.5 59.555 0 25.146-2.47 46.816-6.152 56.816h-52.257v-119.65a6 6 0 0 0 -12 0v119.65h-53.308c-3.682-10-6.152-31.682-6.152-56.829 0-28.11 3.085-52.623 7.5-59.468a6.057 6.057 0 0 0 -1.788-8.344 5.993 5.993 0 0 0 -8.294 1.763c-8.74 13.543-9.419 54.032-9.419 66.062 0 9.931.468 38.816 5.546 56.816h-33.085v-117.76a68.152 68.152 0 0 1 67.98-68.24h74.04a68.152 68.152 0 0 1 67.98 68.24z" fill="#083863"/></g></svg>