<svg id="Layer_1" height="512" viewBox="0 0 512 512" width="512" xmlns="http://www.w3.org/2000/svg" data-name="Layer 1"><g id="_Group_3" data-name=" Group 3"><path d="m260.69 84.81a112.356 112.356 0 0 1 102.28-69.35c.53-.03 1.05-.03 1.57-.03a112.375 112.375 0 0 1 9.59 224.34q-4.74.4-9.59.41a112.436 112.436 0 0 1 -103.85-155.37z" fill="#00efd1"/><path d="m369.88 272.14a163.973 163.973 0 0 1 16.22 71.33c0 54.7-26.69 123.18-67.75 153.1-16.01-78.37-53.36-73.32-96.93-73.32s-80.92-5.05-96.93 73.32c-41.07-29.92-67.75-98.4-67.75-153.1a164.108 164.108 0 0 1 16.21-71.33 28.69 28.69 0 0 0 -1.16-27.09c-39.85-66.88-49.28-130.24-18.25-161.29 27.39-27.38 79.92-23.26 137.84 5.44a67.784 67.784 0 0 0 60.08 0q4.635-2.3 9.23-4.39a112.3 112.3 0 0 0 103.85 155.37q4.845 0 9.59-.41v.01q-1.5 2.625-3.08 5.27a28.715 28.715 0 0 0 -1.17 27.09z" fill="#00acea"/><g fill="#083863"><path d="m364.54 9.43c-.587 0-1.173 0-1.769.032a118.231 118.231 0 0 0 -106.665 70.852c-2.358 1.1-4.807 2.27-7.309 3.509a62.038 62.038 0 0 1 -54.753 0c-29.694-14.714-58.3-23.139-82.732-24.366-26.137-1.31-47.574 5.625-62.012 20.062-32.12 32.14-25.476 96.745 17.332 168.589a22.705 22.705 0 0 1 3.168 11.582 22.816 22.816 0 0 1 -2.256 9.849 169.126 169.126 0 0 0 -16.8 73.931c0 28.193 6.732 59.514 18.954 88.2 12.917 30.309 31.122 55.082 51.263 69.754a6 6 0 0 0 9.412-3.648c6.548-32.057 16.857-51.285 32.441-60.512 14-8.292 31.19-8.179 51.1-8.043 4.959.034 10.055.034 15.014 0 40.325-.268 69.444-.468 83.544 68.555a6 6 0 0 0 9.412 3.648c20.138-14.673 38.342-39.446 51.259-69.754 12.225-28.683 18.958-60 18.958-88.195a169.021 169.021 0 0 0 -16.82-73.945 22.724 22.724 0 0 1 .922-21.4c.535-.9 1.046-1.79 1.569-2.686a118.375 118.375 0 0 0 -13.232-236.014zm15.56 334.04c0 26.61-6.392 56.26-18 83.49-10.471 24.568-24.482 45.12-40.02 58.9-17.173-69.152-54.168-68.907-93.237-68.64-4.905.033-9.948.033-14.852 0-39.08-.262-76.064-.509-93.237 68.641-15.54-13.776-29.553-34.329-40.024-58.9-11.6-27.227-17.993-56.877-17.993-83.49a157.219 157.219 0 0 1 15.615-68.725 34.9 34.9 0 0 0 3.448-15.056 34.705 34.705 0 0 0 -4.856-17.711c-19.464-32.667-31.534-64.392-34.9-91.744-3.335-27.07 2.108-48.59 15.742-62.232 24.414-24.409 73.361-21.952 130.931 6.574a74.152 74.152 0 0 0 61.695 1.706 118.258 118.258 0 0 0 113.363 149.886 34.721 34.721 0 0 0 .7 28.575 157.1 157.1 0 0 1 15.625 68.726zm62.61-143.509a106.009 106.009 0 0 1 -69.091 33.831 106.161 106.161 0 0 1 -92.1-39.471 106.347 106.347 0 0 1 81.532-172.862c.085 0 .17-.219.256-.223.33-.019.655-.236.98-.236h.253c58.66 0 106.38 47.937 106.38 106.6a106.563 106.563 0 0 1 -28.21 72.361z"/><path d="m405 123h-36v-37a6 6 0 0 0 -12 0v37h-37a6 6 0 0 0 0 12h37v36a6 6 0 0 0 12 0v-36h36a6 6 0 0 0 0-12z"/></g></g></svg>