<svg id="Layer_1" height="512" viewBox="0 0 512 512" width="512" xmlns="http://www.w3.org/2000/svg" data-name="Layer 1"><g id="_Group_3" data-name=" Group 3"><path d="m477.91 422.02 4.51 41.84h-287.6l4.52-41.92.71.08h47.12 182.89z" fill="#f4b844"/><path d="m462 274.35 15.91 147.67h-47.85l-15.37-134.84a16 16 0 0 0 -15.9-14.19h-120.35a16 16 0 0 0 -15.89 14.19l-15.38 134.84h-47.12l-.71-.08 15.9-147.59a52.278 52.278 0 0 1 51.88-45.8h142.99a52.288 52.288 0 0 1 51.89 45.8z" fill="#00acea"/><path d="m414.69 287.18 15.37 134.84h-182.89l15.38-134.84a16 16 0 0 1 15.89-14.19h120.35a16 16 0 0 1 15.9 14.19z" fill="#fedb41"/><path d="m352.69 65.44 9.46 163.11h-60.14l9.46-163.11a18.36 18.36 0 0 1 18.33-17.3h4.56a18.36 18.36 0 0 1 18.33 17.3z" fill="#00efd1"/><path d="m66.3 55.83h72.84v171.74h-72.84z" fill="#00acea"/><path d="m66.3 227.57v222.68a18.36 18.36 0 0 1 -36.72 0v-406.86h36.72z" fill="#f4b844"/><g fill="#083863"><path d="m194.82 470h287.6a6.112 6.112 0 0 0 5.965-6.748l-4.51-41.858v-.008l-15.909-147.674c0-.034-.008.155-.012.121a58.186 58.186 0 0 0 -57.844-50.833h-42.3l-9.13-157.751a24.635 24.635 0 0 0 -24.32-23.249h-4.56a24.635 24.635 0 0 0 -24.32 23.248l-9.132 157.752h-29.228a58.178 58.178 0 0 0 -57.834 50.831c0 .034-.008-.045-.012-.011l-20.419 189.453a6.07 6.07 0 0 0 5.965 6.727zm6.682-12 3.215-30h267.8l3.217 30zm52.391-42 14.618-128.146a9.978 9.978 0 0 1 9.929-8.854h120.35a9.984 9.984 0 0 1 9.939 8.855l14.608 128.145zm63.567-350.059a12.628 12.628 0 0 1 12.34-11.941h4.56a12.628 12.628 0 0 1 12.34 11.942l9.092 157.058h-47.424zm-96.26 209.318a46.151 46.151 0 0 1 45.92-40.259h142.99a46.156 46.156 0 0 1 45.93 40.259l15.189 140.741h-35.814l-14.764-129.5a21.976 21.976 0 0 0 -21.861-19.5h-120.35a21.97 21.97 0 0 0 -21.851 19.5l-14.774 129.5h-35.805z"/><path d="m48 474.61a24.083 24.083 0 0 0 24-24.36v-216.25h67.14c3.314 0 5.86-3.117 5.86-6.43v-171.74a5.739 5.739 0 0 0 -5.86-5.83h-67.14v-6.61c0-3.314-2.386-6.39-5.7-6.39h-36.72c-3.314 0-5.58 3.076-5.58 6.39v406.86a24.083 24.083 0 0 0 24 24.36zm85-252.61h-61v-160h61zm-97-173h24v401.25a12.005 12.005 0 1 1 -24 0z"/></g></g></svg>