<svg id="Layer_1" height="512" viewBox="0 0 512 512" width="512" xmlns="http://www.w3.org/2000/svg" data-name="Layer 1"><g id="_Group_3" data-name=" Group 3"><path d="m338.28 349.1h-71.66-109.66-91.63-51.09l10.65-94.91h385.6l10.65 94.91z" fill="#00acea"/><path d="m410.49 253.73v.46h-385.6v-.01a42.626 42.626 0 0 1 42.63-42.62h274.16v-23.45a26.646 26.646 0 0 0 -26.65-26.64h-159.64a13.32 13.32 0 0 1 0-26.64h160.71a52.22 52.22 0 0 1 52.22 52.22v24.51a42.17 42.17 0 0 1 42.17 42.17z" fill="#00efd1"/><g fill="#083863"><path d="m421.14 355a5.953 5.953 0 0 0 4.473-1.951 5.793 5.793 0 0 0 1.245-4.643l-10.858-94.552v-.124a47.876 47.876 0 0 0 -42-47.8v-18.88a57.868 57.868 0 0 0 -57.9-58.05h-160.71a19.27 19.27 0 0 0 -19.32 19.235 18.562 18.562 0 0 0 5.657 13.385 18.935 18.935 0 0 0 13.663 5.38h159.64a21.35 21.35 0 0 1 20.97 21.11v17.89h-268.48a48.489 48.489 0 0 0 -48.62 47.976l-10.623 94.565a5.772 5.772 0 0 0 1.49 4.563 5.9 5.9 0 0 0 4.473 1.896zm-353.62-137h274.16a6.67 6.67 0 0 0 6.32-6.44v-23.45c0-18-14.967-33.11-32.97-33.11h-159.64a7.065 7.065 0 0 1 -5.177-1.907 6.816 6.816 0 0 1 -2.143-4.975 7.159 7.159 0 0 1 7.32-7.118h160.71a45.854 45.854 0 0 1 45.9 46.05v24.51a6.058 6.058 0 0 0 6.16 5.9 36.606 36.606 0 0 1 35.906 30.54h-372.686c2.868-17 17.982-30 36.14-30zm-37.266 42h374.871l9.3 83h-70.425v-36.53a6 6 0 0 0 -12 0v36.53h-59v-17.35a6 6 0 0 0 -12 0v17.35h-98v-27.29a6 6 0 0 0 -12 0v27.29h-80v-27.29a6 6 0 0 0 -12 0v27.29h-38.049z"/><path d="m469.87 315h-8.48a20.131 20.131 0 0 0 -19.94 20.14 19.861 19.861 0 0 0 19.94 19.86h5.58a6 6 0 0 0 0-12h-5.58a7.789 7.789 0 0 1 -5.609-2.179 8.21 8.21 0 0 1 -2.331-5.748 8.06 8.06 0 0 1 7.94-8.073h8.48a22 22 0 0 1 0 44h-87.56a6 6 0 1 0 0 12h87.56a34 34 0 0 0 0-68z"/><path d="m350.13 371h-25.11a6 6 0 0 0 0 12h25.11a6 6 0 0 0 0-12z"/><path d="m279.96 371h-25.1a6 6 0 0 0 0 12h25.1a6 6 0 1 0 0-12z"/></g></g></svg>