<svg id="Layer_1" height="512" viewBox="0 0 512 512" width="512" xmlns="http://www.w3.org/2000/svg" data-name="Layer 1"><g id="_Group_3" data-name=" Group 3"><path d="m460.41 297.02a33.738 33.738 0 0 0 20.83 9.76 33.772 33.772 0 0 0 -30.59 30.58 33.778 33.778 0 0 0 -30.59-30.58 33.8 33.8 0 0 0 30.59-30.59 33.738 33.738 0 0 0 9.76 20.83z" fill="#00acea"/><path d="m427.28 97.86-40.66 55.66-41.85-33.41.41 55.31.11.07a34.593 34.593 0 0 1 -26.08 15.92 34.6 34.6 0 0 1 26.2 16.11v.01l.55 25.29v.13h-175.28v-.13l1.18-112.71-41.84 33.42-40.66-55.67 57.24-50.09a28.386 28.386 0 0 1 11.82 20.58 28.42 28.42 0 0 1 25.73-25.72 28.345 28.345 0 0 1 -17.52-8.2 29.331 29.331 0 0 1 -2.1-2.35l12.15-10.63a15.113 15.113 0 0 1 9.93-3.73h36.2a35.51 35.51 0 0 0 71.02 0h36.21a15.061 15.061 0 0 1 9.91 3.73z" fill="#fedb41"/><path d="m413.98 238.86a20.16 20.16 0 0 1 -14.25 34.42h-282.31a20.165 20.165 0 0 1 0-40.33h282.31a20.062 20.062 0 0 1 14.25 5.91z" fill="#00efd1"/><path d="m389.64 273.28-16.96 184.98a40.325 40.325 0 0 1 -40.18 36.83h-147.86a40.315 40.315 0 0 1 -40.17-36.83l-16.97-184.98zm-80.66 55.46a20.161 20.161 0 0 0 -20.16-20.17h-60.49a20.165 20.165 0 1 0 0 40.33h60.49a20.161 20.161 0 0 0 20.16-20.16z" fill="#00acea"/><path d="m360.51 181.42a34.569 34.569 0 0 0 21.33 9.99 34.592 34.592 0 0 0 -31.32 31.31 34.467 34.467 0 0 0 -5.11-15.19v-.01a34.6 34.6 0 0 0 -26.2-16.11 34.563 34.563 0 0 0 31.31-31.32 34.569 34.569 0 0 0 9.99 21.33z" fill="#00acea"/><path d="m288.82 308.57a20.165 20.165 0 0 1 0 40.33h-60.49a20.165 20.165 0 0 1 0-40.33z" fill="#fedb41"/><path d="m222.81 17.72h71.02a35.51 35.51 0 0 1 -71.02 0z" fill="#00efd1"/><path d="m166.63 34.43a28.345 28.345 0 0 0 17.52 8.2 28.42 28.42 0 0 0 -25.73 25.72 28.391 28.391 0 0 0 -25.72-25.72 28.39 28.39 0 0 0 25.72-25.72 28.3 28.3 0 0 0 6.11 15.17 29.331 29.331 0 0 0 2.1 2.35z" fill="#00acea"/><path d="m86.84 183.19a46.924 46.924 0 0 0 28.96 13.56 46.966 46.966 0 0 0 -42.52 42.52 46.952 46.952 0 0 0 -42.52-42.52 46.952 46.952 0 0 0 42.52-42.52 46.952 46.952 0 0 0 13.56 28.96z" fill="#00acea"/><g fill="#083863"><path d="m117.42 227a26.173 26.173 0 0 0 -26.16 26.145 25.9 25.9 0 0 0 26.16 25.855h4.605l16.468 179.594a46.141 46.141 0 0 0 46.147 42.406h147.86a46.142 46.142 0 0 0 46.155-42.377l16.46-179.623h4.615a26.07 26.07 0 0 0 26.16-26.02 26.015 26.015 0 0 0 -26.16-25.98h-44.981a6.13 6.13 0 0 0 1.746-3.709 28.6 28.6 0 0 1 25.887-25.891 6.005 6.005 0 0 0 0-11.96 28.594 28.594 0 0 1 -25.882-25.896 5.981 5.981 0 0 0 -5.473-5.406l-.159-21.486 32.013 25.557a6 6 0 0 0 8.589-1.15l40.66-55.66a6 6 0 0 0 -.895-8.055l-87.335-76.267a20.9 20.9 0 0 0 -13.86-5.077h-143.43a20.971 20.971 0 0 0 -13.881 5.074l-6.749 5.835a22.628 22.628 0 0 1 -1.58-6.509 6 6 0 0 0 -11.952-.026 22.381 22.381 0 0 1 -20.286 20.28 6 6 0 0 0 0 11.95 22.39 22.39 0 0 1 3.638.648l-50.391 44.093a6 6 0 0 0 -.894 8.054l40.66 55.67a6 6 0 0 0 8.59 1.149l31.963-25.506-.987 94.288zm249.28 230.556a34.216 34.216 0 0 1 -34.2 31.444h-147.86a34.217 34.217 0 0 1 -34.195-31.473l-16.369-178.527h248.988zm43.034-214.429a13.724 13.724 0 0 1 4.153 9.866 14.046 14.046 0 0 1 -14.157 14.007h-282.31a13.926 13.926 0 0 1 -14.16-13.925 14.1 14.1 0 0 1 14.16-14.075h282.31a14.011 14.011 0 0 1 10.007 4.127zm-53.466-57.46a40.684 40.684 0 0 0 7.234 5.736 40.7 40.7 0 0 0 -12.985 12.982c-.008-.013-.017.211-.025.2l-5.075 3.415h-.017l5.094-3.427a41.618 41.618 0 0 0 -5.713-7.3 40.912 40.912 0 0 0 -7.241-5.808 40.7 40.7 0 0 0 7.241-5.776 41.132 41.132 0 0 0 5.572-6.971c.058-.091.116-.19.173-.282a40.521 40.521 0 0 0 5.745 7.231zm-69.056-161.667a29.528 29.528 0 0 1 -28.887 23h-.015a29.518 29.518 0 0 1 -28.885-23zm-132.744 14.668a34.481 34.481 0 0 0 3.952-4.748q.679.976 1.428 1.912l.008.011a35.3 35.3 0 0 0 2.532 2.83 34.229 34.229 0 0 0 4.744 3.956 34.515 34.515 0 0 0 -8.712 8.712 34.119 34.119 0 0 0 -8.341-8.459c-.12-.086-.24-.17-.361-.254a34.367 34.367 0 0 0 4.75-3.96zm20.021 76.049a6 6 0 0 0 -6.374.7l-36.945 29.51-33.725-46.17 49.149-43.009a21.987 21.987 0 0 1 5.85 12.97 5.851 5.851 0 0 0 5.974 5.282 5.851 5.851 0 0 0 5.975-5.278 22.333 22.333 0 0 1 20.3-20.2 5.965 5.965 0 0 0 0-11.886 22.434 22.434 0 0 1 -11.321-4.325l7.255-6.2a8.966 8.966 0 0 1 5.983-2.111h30.64a41.168 41.168 0 0 0 41.057 35h.021a41.181 41.181 0 0 0 41.06-35h30.652a8.913 8.913 0 0 1 5.96 2.106l83.194 72.721-33.725 46.132-36.956-29.521a5.994 5.994 0 0 0 -9.743 4.721l.4 53.653a28.481 28.481 0 0 1 -20.5 11.624 6 6 0 0 0 .006 11.95 28.617 28.617 0 0 1 17.627 8.256 28.917 28.917 0 0 1 3.152 3.773l.376 17.585h-163.089l1.117-106.8a6.034 6.034 0 0 0 -3.37-5.483z"/><path d="m228.33 355h60.49a26.052 26.052 0 0 0 18.509-7.723 25.581 25.581 0 0 0 7.651-18.3 26.033 26.033 0 0 0 -26.16-25.977h-60.49a25.813 25.813 0 0 0 -26.17 25.9 26.146 26.146 0 0 0 26.17 26.1zm-10.018-36.062a13.88 13.88 0 0 1 10.018-3.938h60.49a14 14 0 1 1 0 28h-60.49a14.132 14.132 0 0 1 -14.17-14.1 13.945 13.945 0 0 1 4.152-9.962z"/><path d="m30.215 202.725a41.068 41.068 0 0 1 25.263 11.828 40.656 40.656 0 0 1 11.822 25.122 5.883 5.883 0 0 0 5.977 5.325 5.884 5.884 0 0 0 5.975-5.32 40.9 40.9 0 0 1 37.087-37.022 5.972 5.972 0 0 0 0-11.9 40.911 40.911 0 0 1 -37.09-37.193 6.1 6.1 0 0 0 -5.969-5.565 6.1 6.1 0 0 0 -5.973 5.575 41 41 0 0 1 -37.089 37.171 6.016 6.016 0 0 0 0 11.979zm33.748-15.292a52.954 52.954 0 0 0 9.321-12.613 52.681 52.681 0 0 0 21.916 21.921 53.085 53.085 0 0 0 -21.923 21.925 52.792 52.792 0 0 0 -21.926-21.916 52.913 52.913 0 0 0 12.612-9.317z"/><path d="m414.06 306.78a6 6 0 0 0 5.455 5.975 27.779 27.779 0 0 1 25.16 25.149 6 6 0 0 0 11.95 0 27.772 27.772 0 0 1 25.156-25.149 6 6 0 0 0 0-11.95 27.8 27.8 0 0 1 -25.16-25.16 6 6 0 0 0 -11.95 0 27.8 27.8 0 0 1 -25.159 25.159 6 6 0 0 0 -5.452 5.976zm31.073-5.517a39.773 39.773 0 0 0 5.517-6.912 39.653 39.653 0 0 0 12.414 12.42 39.864 39.864 0 0 0 -12.419 12.419 39.619 39.619 0 0 0 -12.418-12.414 39.718 39.718 0 0 0 6.906-5.513z"/></g></g></svg>