<svg id="Layer_1" height="512" viewBox="0 0 512 512" width="512" xmlns="http://www.w3.org/2000/svg" data-name="Layer 1"><g id="_Group_3" data-name=" Group 3"><path d="m313.27 136.21c52.35 8.66 90.23 34 90.23 63.9 0 0-10.26 245.41-19.53 278.4a19.975 19.975 0 0 1 -19.3 14.49h-182.34a19.975 19.975 0 0 1 -19.3-14.49c-9.27-32.99-19.53-278.4-19.53-278.4 0-29.9 37.88-55.24 90.23-63.9a247.968 247.968 0 0 1 79.54 0zm36.01 315.39v-207h-151.56v207z" fill="#00acea"/><path d="m197.72 244.6h151.56v207h-151.56z" fill="#fedb41"/><path d="m313.5 69v34h-10-60-10v-34h40z" fill="#fedb41"/><path d="m303.5 103 9.77 33.21a247.968 247.968 0 0 0 -79.54 0l9.77-33.21z" fill="#00efd1"/><path d="m145.16 96.24a20 20 0 1 1 -33.32 0l16.66-25.07z" fill="#00efd1"/><g fill="#083863"><path d="m317.975 130.951-6.456-21.951h1.981c3.314 0 5.5-2.687 5.5-6v-34c0-3.313-2.186-6-5.5-6h-34.5v-38h50.5a6 6 0 0 0 0-12h-167a6.01 6.01 0 0 0 -2.483.538l-33 15a6 6 0 1 0 4.966 10.924l31.817-14.462h103.2v38h-33.5c-3.314 0-6.5 2.687-6.5 6v34c0 3.313 3.186 6 6.5 6h1.981l-6.458 21.952c-54.9 10.014-91.523 37.535-91.523 69.158v.25c.42 10.05 10.4 246.492 19.748 279.771a26.068 26.068 0 0 0 25.082 18.869h182.34a26.067 26.067 0 0 0 25.076-18.867c9.354-33.281 19.329-269.723 19.754-279.773 0-.083 0-.167 0-.25 0-31.626-36.625-59.148-91.525-69.159zm-78.975-55.951h68v22h-68zm60.011 34 5.863 19.929a256.088 256.088 0 0 0 -62.746 0l5.861-19.929zm79.182 367.888a14.026 14.026 0 0 1 -13.523 10.112h-182.34a14.028 14.028 0 0 1 -13.524-10.113c-8.892-31.648-19.018-270.132-19.306-276.962.107-25.793 35.116-49.925 85.209-57.925h.008a245.217 245.217 0 0 1 38.783-3.064 236.519 236.519 0 0 1 38.791 3.161c50.093 8.287 85.1 32.084 85.209 57.877-.288 6.826-10.413 245.264-19.307 276.914z"/><path d="m227.5 334h92a6 6 0 0 0 0-12h-92a6 6 0 0 0 0 12z"/><path d="m247.5 294h52a6 6 0 0 0 0-12h-52a6 6 0 0 0 0 12z"/><path d="m150.157 92.919-16.657-25.07a6 6 0 0 0 -9.994 0l-16.665 25.073a26.085 26.085 0 0 0 3.271 32.766 25.991 25.991 0 0 0 36.776 0 26.087 26.087 0 0 0 3.269-32.769zm-11.757 24.289a13.99 13.99 0 0 1 -19.789 0 14.049 14.049 0 0 1 -1.766-17.647l11.655-17.55 11.661 17.547a14.05 14.05 0 0 1 -1.761 17.65z"/><path d="m356 245a6 6 0 0 0 -6-6h-152a6 6 0 0 0 -6 6v207a6 6 0 0 0 6 6h152a6 6 0 0 0 6-6zm-13 201h-139v-195h139z"/><path d="m227.5 373h92a6 6 0 0 0 0-12h-92a6 6 0 0 0 0 12z"/><path d="m227.5 411h92a6 6 0 0 0 0-12h-92a6 6 0 0 0 0 12z"/></g></g></svg>