<svg id="Layer_1" height="512" viewBox="0 0 512 512" width="512" xmlns="http://www.w3.org/2000/svg" data-name="Layer 1"><g id="_Group_3" data-name=" Group 3"><path d="m256.19 291.49h-66.39c-.69 0-1.38-.02-2.07-.05a40 40 0 0 1 -37.93-39.95v-200.31a40 40 0 0 1 40-40h132.4a40 40 0 0 1 40 40v200.31a40 40 0 0 1 -37.93 39.95c-.69.03-1.38.05-2.07.05z" fill="#00acea"/><path d="m324.27 291.44v42.71a22.76 22.76 0 0 1 -22.76 22.76h-7.2v-65.42h27.89c.69 0 1.38-.02 2.07-.05z" fill="#fedb41"/><path d="m294.31 356.76v.15h-9.86-28.26v-.15-65.27h38.12z" fill="#f4b844"/><path d="m284.45 356.91v41.72h-56.9v-41.72h28.64z" fill="#00efd1"/><path d="m275.63 466.56a22.755 22.755 0 1 1 -39.26 0l19.63-33.52z" fill="#f4b844"/><path d="m256.19 356.76v.15h-28.64-9.48v-.15-65.27h38.12z" fill="#fedb41"/><path d="m218.07 356.76v.15h-7.58a22.76 22.76 0 0 1 -22.76-22.76v-42.71c.69.03 1.38.05 2.07.05h28.27z" fill="#f4b844"/><g fill="#083863"><path d="m261.178 430.008a6 6 0 0 0 -10.356 0l-19.629 33.517a28.767 28.767 0 0 0 4.475 34.877v.006a28.756 28.756 0 0 0 45.135-34.881zm6.675 59.9a16.755 16.755 0 0 1 -26.305-20.32l14.452-24.675 14.453 24.681a16.76 16.76 0 0 1 -2.6 20.318z"/><path d="m322.2 5h-132.4c-25.364 0-45.8 20.815-45.8 46.18v200.31a45.722 45.722 0 0 0 38 45.285v37.375a28.64 28.64 0 0 0 28.49 28.85h11.51v35.63c0 3.313 2.236 6.37 5.55 6.37h56.9c3.314 0 5.55-3.057 5.55-6.37v-35.63h11.51a28.64 28.64 0 0 0 28.49-28.85v-37.375a45.722 45.722 0 0 0 38-45.285v-200.31c0-25.365-20.436-46.18-45.8-46.18zm-128.2 329.15v-37.15h18v54h-1.51a16.628 16.628 0 0 1 -16.49-16.85zm68 16.85v-54h26v54zm-12 0h-26v-54h26zm28 42h-44v-30h44zm23.51-42h-1.51v-54h18v37.15a16.628 16.628 0 0 1 -16.49 16.85zm54.49-99.51a33.651 33.651 0 0 1 -32.085 33.71c-.605.026-1.11-.2-1.715-.2h-132.4c-.6 0-1.092.227-1.687.2a33.661 33.661 0 0 1 -32.113-33.71v-200.31a34.022 34.022 0 0 1 33.8-34.18h132.4a34.022 34.022 0 0 1 33.8 34.18z"/><path d="m290.33 135h-28.33v-27.88a6 6 0 0 0 -12 0v27.88h-27.94a6 6 0 0 0 0 12h27.94v28.39a6 6 0 0 0 12 0v-28.39h28.33a6 6 0 0 0 0-12z"/></g></g></svg>