<svg id="Layer_1" height="512" viewBox="0 0 512 512" width="512" xmlns="http://www.w3.org/2000/svg" data-name="Layer 1"><g id="_Group_3" data-name=" Group 3"><path d="m293.87 468.69h133.45v33.36h-133.45z" fill="#00acea"/><path d="m427.32 121.16v347.53h-133.45v-347.53l41.86-39.93h49.06zm-43.26 304.84v-248.19h-46.93v248.19z" fill="#fedb41"/><path d="m384.79 9.95 13.9 41.7h-13.9-49.22-13.9l13.9-41.7z" fill="#00efd1"/><path d="m384.79 51.65v29.58h-49.06-.16v-29.58z" fill="#00acea"/><path d="m337.13 177.81h46.93v248.19h-46.93z" fill="#00efd1"/><path d="m187.06 155.48a12.176 12.176 0 0 1 -4.25-9.25v-124.09a12.2 12.2 0 0 1 24.4 0v124.09a12.2 12.2 0 0 1 -20.15 9.25z" fill="#00acea"/><path d="m204.03 155.24v27.34a70.046 70.046 0 0 1 -22.81 51.85v107.48l-.15.43a25.539 25.539 0 0 0 -16.73-.16l-.09-.27v-115.4l3.13-2.54a53.139 53.139 0 0 0 19.68-41.39v-27.1a12.19 12.19 0 0 0 16.58-.63z" fill="#00efd1"/><path d="m197.93 471.3v5.3a25.455 25.455 0 1 1 -50.91 0v-5.3z" fill="#fedb41"/><path d="m147.02 436.65h50.91v34.65h-50.91z" fill="#00acea"/><path d="m147.02 402.01h50.91v34.64h-50.91z" fill="#fedb41"/><path d="m147.02 367.36h50.91v34.65h-50.91z" fill="#00acea"/><path d="m197.93 366.3v1.06h-50.91v-1.06a25.455 25.455 0 0 1 50.91 0z" fill="#fedb41"/><path d="m135.31 32.62v88.6a27.617 27.617 0 0 1 -27.62 27.61h-23.01l4.62-5.89a86.247 86.247 0 0 0 18.39-53.25v-38.66a23.012 23.012 0 0 1 23.01-23.01 4.6 4.6 0 0 1 4.61 4.6z" fill="#00acea"/><g fill="#083863"><path d="m391 78.634v-20.634h7.69a6.25 6.25 0 0 0 5.693-8.16l-13.9-41.719a6.017 6.017 0 0 0 -5.693-4.121h-49.22a5.976 5.976 0 0 0 -5.692 4.078l-13.9 41.687a6.349 6.349 0 0 0 .825 5.574 6.161 6.161 0 0 0 4.867 2.661h8.33v20.814l-39.992 38a6.158 6.158 0 0 0 -2.008 4.346v380.89a5.849 5.849 0 0 0 5.87 5.95h133.45a5.693 5.693 0 0 0 5.68-5.95v-380.89a5.769 5.769 0 0 0 -1.628-4.374zm-51.1-62.634h40.571l9.9 30h-60.377zm39.1 42v17h-37v-17zm-40.866 29h44.281l38.585 36.757v339.243h-121v-339.271zm-38.134 409v-21h121v21z"/><path d="m390 178a6 6 0 0 0 -6-6h-47a6 6 0 0 0 -6 6v248a6 6 0 0 0 6 6h47a6 6 0 0 0 6-6zm-47 6h35v236h-35z"/><path d="m194.905 3.94a18.163 18.163 0 0 0 -17.936 16.06h-27.829a6 6 0 0 0 0 12h27.86v10h-27.86a6 6 0 0 0 0 12h27.86v10h-27.86a6 6 0 0 0 0 12h27.86v11h-27.86a6 6 0 0 0 0 12h27.86v10h-27.86a6 6 0 0 0 0 12h27.86v10h-27.86a6 6 0 0 0 0 12h27.86v3.23c0 4.293 1 8.393 4 11.643v24.707a47.138 47.138 0 0 1 -17.431 36.731l-3.24 2.54a6.111 6.111 0 0 0 -2.329 4.659v111.751a30.026 30.026 0 0 0 -7.9 5.8 31.135 31.135 0 0 0 -9.1 22.239v110.3a31.5 31.5 0 0 0 63 0v-110.3c0-11.712-7-22.366-17-27.767v-101.526a74.777 74.777 0 0 0 23-54.427v-26.09a18.382 18.382 0 0 0 3-10.26v-124.09a18.131 18.131 0 0 0 -18.095-18.2zm-5.905 18.2a6.1 6.1 0 0 1 1.717-4.388 5.818 5.818 0 0 1 4.235-1.812 6.079 6.079 0 0 1 6.048 6.2v124.09a6.031 6.031 0 0 1 -6.043 6.2 5.735 5.735 0 0 1 -3.911-1.494 6.1 6.1 0 0 1 -2.046-4.706zm-9.958 325.666a19.426 19.426 0 0 1 12.233 13.194h-37.6a20.412 20.412 0 0 1 5.051-8.638 19.247 19.247 0 0 1 7.532-4.587 19.514 19.514 0 0 1 12.786.031zm-26.042 117.194v-22h39v22zm0-34v-23h39v23zm0-35v-23h39v23zm19.47 99.91a19.19 19.19 0 0 1 -19.415-18.91h38.845a19.558 19.558 0 0 1 -19.426 18.91zm4.574-265.91a6.093 6.093 0 0 0 -2.044 4.43v100.554a30.568 30.568 0 0 0 -5-.045v-105.571l1.012-.744a59.217 59.217 0 0 0 21.988-46.044v-18.267c1 .07 1.31.117 1.965.117a18.629 18.629 0 0 0 3.035-.268v18.418a64.524 64.524 0 0 1 -20.956 47.42z"/><path d="m141 32.62a10.486 10.486 0 0 0 -10.455-10.6 28.62 28.62 0 0 0 -28.545 29.01v38.66a80.766 80.766 0 0 1 -17.266 49.547l-4.7 5.89a6.157 6.157 0 0 0 -.713 6.413 6.025 6.025 0 0 0 5.359 3.46h23.01c18.539 0 33.31-15.247 33.31-33.78zm-12 88.6a21.523 21.523 0 0 1 -21.31 21.78h-10.835c10.886-16 17.145-34.335 17.145-53.31v-38.66a16.611 16.611 0 0 1 4.667-12.022 16.192 16.192 0 0 1 10.333-4.933z"/></g></g></svg>