<svg id="Layer_1" height="512" viewBox="0 0 512 512" width="512" xmlns="http://www.w3.org/2000/svg" data-name="Layer 1"><g id="_Group_3" data-name=" Group 3"><path d="m481.19 158.59-22.42 20.18-125.54-125.54 20.18-22.42z" fill="#00efd1"/><path d="m458.77 178.77-277.39 249.56a11.144 11.144 0 0 1 -14.9-.78 29.049 29.049 0 0 0 -35.25-4.48l-.25-1.04-41.01-41.01-1.04-.25a29.045 29.045 0 0 0 -4.48-35.25 11.135 11.135 0 0 1 -.78-14.9l249.56-277.39zm-260.73 178.57 180.62-180.62-43.38-43.38-180.62 180.62z" fill="#00acea"/><path d="m138.942 214.666h255.435v61.349h-255.435z" fill="#fedb41" transform="matrix(.707 -.707 .707 .707 -95.379 260.416)"/><path d="m130.98 422.03.25 1.04a29.163 29.163 0 0 0 -5.77 4.48l-9.46 9.47-41.02-41.02 9.47-9.46a29.163 29.163 0 0 0 4.48-5.77l1.04.25z" fill="#fedb41"/><path d="m120.73 441.75-52.06 39.44-37.86-37.86 39.44-52.06 4.73 4.73 41.02 41.02z" fill="#00efd1"/><g fill="#083863"><path d="m357.652 26.567a6 6 0 0 0 -8.7.229l-20.182 22.421-249.561 277.39c-.068.077-.135.155-.2.235a17.134 17.134 0 0 0 1.2 22.918 23.022 23.022 0 0 1 3.562 27.953 23.274 23.274 0 0 1 -3.561 4.587l-5.228 5.223-.49-.491a6 6 0 0 0 -9.024.62l-39.441 52.06a6 6 0 0 0 .54 7.866l37.861 37.86a6 6 0 0 0 7.865.54l52.061-39.44a6 6 0 0 0 .619-9.026l-.49-.489 5.219-5.225a22.877 22.877 0 0 1 16.268-6.733 22.853 22.853 0 0 1 16.267 6.732 17.1 17.1 0 0 0 22.922 1.2c.079-.064.157-.131.234-.2l277.39-249.562 22.421-20.18a6 6 0 0 0 .229-8.7zm-288.437 446.683-30.465-30.465 32.126-42.405 40.743 40.745zm14.252-77.25 5.226-5.221c.427-.426.834-.87 1.237-1.317l32.6 32.605c-.448.4-.892.812-1.32 1.24l-5.21 5.225zm94.033 27.748a5.131 5.131 0 0 1 -6.779-.441 34.981 34.981 0 0 0 -37.721-7.746l-36.551-36.546a35.029 35.029 0 0 0 -7.757-37.738 5.135 5.135 0 0 1 -.44-6.779l245.209-272.553 116.594 116.6zm281.487-253.248-117.487-117.487 12.14-13.489 118.837 118.837z"/><path d="m382.9 172.478-43.378-43.378a6 6 0 0 0 -8.484 0l-180.62 180.62a6 6 0 0 0 0 8.486l43.38 43.38a6 6 0 0 0 8.484 0l180.618-180.623a6 6 0 0 0 0-8.485zm-184.86 176.376-34.894-34.894 172.134-172.135 34.9 34.9z"/></g></g></svg>