<svg id="Layer_1" height="512" viewBox="0 0 512 512" width="512" xmlns="http://www.w3.org/2000/svg" data-name="Layer 1"><g id="_Group_3" data-name=" Group 3"><path d="m467.44 44.56a20.955 20.955 0 0 1 0 29.64l-34.09 34.1-29.64-29.64 34.09-34.1a20.949 20.949 0 0 1 29.64 0z" fill="#00efd1"/><path d="m433.35 108.3-114.88 114.87-.2.21-29.64-29.64.2-.21 114.88-114.87z" fill="#fedb41"/><path d="m318.86 223.97a28.7 28.7 0 0 1 0 40.59l-29.79 29.79-.03.01a114.945 114.945 0 0 0 -71.4-71.4l.01-.03 29.79-29.79a28.7 28.7 0 0 1 40.59 0l.6.6 29.64 29.64z" fill="#00efd1"/><path d="m289.04 294.36a114.91 114.91 0 0 1 -52.51 137.4l-156.29-156.29a114.838 114.838 0 0 1 208.8 18.89z" fill="#00acea"/><path d="m241.6 436.83a21.528 21.528 0 0 1 -30.44 30.45l-166.44-166.44a21.528 21.528 0 1 1 30.45-30.44l5.07 5.07 156.29 156.29z" fill="#fedb41"/><path d="m206.917 471.522a27.524 27.524 0 0 0 39.259-38.585 120.8 120.8 0 0 0 49.7-136.913l27.22-27.219a34.714 34.714 0 0 0 3.382-45.162l111.11-111.1 34.09-34.1a26.959 26.959 0 1 0 -38.126-38.125l-34.089 34.1-111.111 111.1a34.715 34.715 0 0 0 -45.152 3.382l-27.221 27.222a120.9 120.9 0 0 0 -136.916 49.702 27.524 27.524 0 0 0 -38.586 39.259zm217.948-363.222-106.6 106.59-21.155-21.155 106.6-106.59zm17.178-59.5a14.958 14.958 0 1 1 21.157 21.158l-29.851 29.856-21.149-21.154zm-190.358 148.581a22.7 22.7 0 0 1 32.1 0l30.83 30.831a22.7 22.7 0 0 1 0 32.1l-23.3 23.3a121.083 121.083 0 0 0 -62.934-62.935zm-148.2 57.262a108.806 108.806 0 1 1 134 169.587l-149.715-149.716a108.393 108.393 0 0 1 15.713-19.871zm-54.521 20a15.522 15.522 0 0 1 21.965 0l166.43 166.43a15.527 15.527 0 0 1 -21.959 21.964l-166.437-166.437a15.549 15.549 0 0 1 -.001-21.957z" fill="#083863"/></g></svg>