<svg id="Layer_1" height="512" viewBox="0 0 512 512" width="512" xmlns="http://www.w3.org/2000/svg" data-name="Layer 1"><g id="_Group_3" data-name=" Group 3"><path d="m385.39 14.52-61.29 306.48-3.4 17.01-10.57 1.76a329.437 329.437 0 0 1 -108.26 0l-10.57-1.76-3.4-17.01-61.29-306.48z" fill="#00acea"/><path d="m358.44 341.13v129.39c0 14.89-45.87 26.96-102.44 26.96s-102.44-12.07-102.44-26.96v-129.39c0 14.88 45.87 26.95 102.44 26.95s102.44-12.07 102.44-26.95z" fill="#fedb41"/><path d="m324.46 321.07c20.86 4.94 33.98 12.09 33.98 20.06 0 14.88-45.87 26.95-102.44 26.95s-102.44-12.07-102.44-26.95c0-7.97 13.12-15.12 33.98-20.06l.36-.07 3.4 17.01 10.57 1.76a329.437 329.437 0 0 0 108.26 0l10.57-1.76 3.4-17.01z" fill="#00efd1"/><path d="m385.39 9h-258.78a5.654 5.654 0 0 0 -5.883 6.817l60.166 300.81c-20.93 5.66-31.866 13.324-33.007 22.885a6.071 6.071 0 0 0 .114 1.078v130.47a6.463 6.463 0 0 0 -.119 1.077c1.144 9.725 12.58 17.542 34.268 23.249 19.833 5.219 46.045 8.094 73.906 8.094s54.1-2.875 73.933-8.094c21.719-5.715 33.04-13.544 34.156-23.288.06-.337-.144-.684-.144-1.038v-130.47a6.4 6.4 0 0 0 .114-1.108c-1.141-9.562-12.187-17.255-33.119-22.916l60.223-300.866a5.481 5.481 0 0 0 -1.218-4.744 5.732 5.732 0 0 0 -4.61-1.956zm-58.7 474.781c-18.865 4.965-43.937 7.7-70.8 7.7s-51.767-2.734-70.632-7.7c-20.843-5.481-25.258-11.564-25.258-13.261v-113.134c5 3.252 12.849 6.125 22.259 8.6 19.835 5.219 45.992 8.093 73.851 8.093s53.851-2.874 73.686-8.093c9.41-2.476 17.2-5.349 22.2-8.6v113.134c.004 1.697-4.466 7.78-25.309 13.261zm25.75-142.651c0 1.695-4.69 7.769-25.533 13.252-18.867 4.964-44.049 7.7-70.907 7.7s-52.04-2.734-70.907-7.7c-20.843-5.482-25.533-11.557-25.533-13.252 0-1.727 4.533-7.455 23.692-12.766l2.164 10.822a6 6 0 0 0 4.9 4.742l10.57 1.76a334.639 334.639 0 0 0 110.231 0l10.571-1.76a6 6 0 0 0 4.9-4.742l2.163-10.823c19.156 5.312 23.689 11.037 23.689 12.767zm-34.224-21.067v-.119l-2.588 12.888-6.484 1.05a322.75 322.75 0 0 1 -106.289-.015l-6.483-.848-62.443-312.019h41.071v66.31a6 6 0 0 0 12 0v-66.31h37v83.56a6 6 0 0 0 12 0v-83.56h87v33.96a6 6 0 0 0 12 0v-33.96h43.071z" fill="#083863"/></g></svg>