<svg id="Layer_1" height="512" viewBox="0 0 512 512" width="512" xmlns="http://www.w3.org/2000/svg" data-name="Layer 1"><g id="_Group_3" data-name=" Group 3"><path d="m117.77 16.76h276.46v31.9h-276.46z" fill="#00acea"/><path d="m394.16 335.5v39.85h-276.32v-39.85h17.27 241.78z" fill="#fedb41"/><path d="m278.68 206.67a120.916 120.916 0 0 1 98.21 118.74v10.09h-241.78v-10.09a120.921 120.921 0 0 1 143.57-118.74z" fill="#00acea"/><path d="m278.68 48.84v157.83a121.253 121.253 0 0 0 -45.36 0v-157.83z" fill="#00efd1"/><g fill="#083863"><path d="m175 402.89a6 6 0 0 0 -6 6v6.91c0 7.37-3.655 10.792-8.6 15.529-5.439 5.213-12.25 11.7-12.25 24.191s6.75 18.98 12.19 24.191c4.941 4.737 8.5 8.159 8.5 15.529a6 6 0 1 0 11.992 0c0-12.49-6.771-18.978-12.21-24.192-4.941-4.736-8.512-8.158-8.512-15.528s3.655-10.792 8.6-15.528c5.436-5.214 12.29-11.702 12.29-24.192v-6.91a6 6 0 0 0 -6-6z"/><path d="m261 402.89a6 6 0 0 0 -6 6v6.91c0 7.37-3.48 10.792-8.422 15.529-5.439 5.213-12.163 11.7-12.163 24.191s6.791 18.978 12.231 24.191c4.941 4.737 8.522 8.159 8.522 15.529a6 6 0 0 0 12.009 0c0-12.49-6.768-18.978-12.207-24.192-4.941-4.736-8.511-8.158-8.511-15.528s3.481-10.792 8.422-15.528c5.439-5.214 12.119-11.702 12.119-24.192v-6.91a6 6 0 0 0 -6-6z"/><path d="m348 402.89a6 6 0 0 0 -6 6v6.91c0 7.37-3.805 10.792-8.747 15.529-5.439 5.213-12.326 11.7-12.326 24.191s6.711 18.978 12.15 24.191c4.942 4.737 8.483 8.159 8.483 15.529a5.989 5.989 0 1 0 11.978 0c0-12.49-6.774-18.978-12.213-24.192-4.941-4.736-8.514-8.158-8.514-15.528s3.805-10.792 8.746-15.528c5.443-5.214 12.443-11.702 12.443-24.192v-6.91a6 6 0 0 0 -6-6z"/><path d="m394.23 11h-276.46a5.606 5.606 0 0 0 -5.77 5.76v31.9c0 3.314 2.456 6.34 5.77 6.34h109.23v146.806a126.939 126.939 0 0 0 -98 123.6v4.594h-11.16c-3.314 0-5.84 2.187-5.84 5.5v39.85a5.575 5.575 0 0 0 5.84 5.65h276.32a5.575 5.575 0 0 0 5.84-5.65v-39.85c0-3.313-2.526-5.5-5.84-5.5h-11.16v-4.59a126.78 126.78 0 0 0 -98-123.61v-146.8h109.23c3.314 0 5.77-3.026 5.77-6.34v-31.9a5.606 5.606 0 0 0 -5.77-5.76zm-121.23 188.635a133.692 133.692 0 0 0 -34 0v-144.635h34zm115 169.365h-264v-27h264zm-17-43.59v4.59h-230v-4.59a114.94 114.94 0 0 1 92.225-112.61h.068a6.047 6.047 0 0 0 2.253-.437 115.908 115.908 0 0 1 40.888.1 6.088 6.088 0 0 0 2.246.536h.007c22.2 4 42.481 15.159 58.607 31.284a113.911 113.911 0 0 1 33.706 81.127zm17-282.41h-264v-20h264z"/></g></g></svg>