<svg id="Layer_1" height="512" viewBox="0 0 512 512" width="512" xmlns="http://www.w3.org/2000/svg" data-name="Layer 1"><g id="_Group_3" data-name=" Group 3"><path d="m398.55 25.23v90.97h-39.94-205.18-39.98v-90.97z" fill="#00efd1"/><path d="m358.61 116.84v53.99a27.1 27.1 0 0 1 -27.09 27.09h-151a27.092 27.092 0 0 1 -27.09-27.09v-54.63h205.18z" fill="#fedb41"/><path d="m330.16 198.77v213.87a74.14 74.14 0 1 1 -148.28 0v-214.72h148.28zm-59.52 211.94v-43.86a14.62 14.62 0 0 0 -29.24 0v43.86a14.62 14.62 0 0 0 29.24 0z" fill="#00acea"/><path d="m270.64 366.85v43.86a14.62 14.62 0 1 1 -29.24 0v-43.86a14.62 14.62 0 1 1 29.24 0z" fill="#00efd1"/><g fill="#083863"><path d="m282.74 260h-53.44a6 6 0 0 0 0 12h53.44a6 6 0 0 0 0-12z"/><path d="m282.74 309h-53.44a6 6 0 1 0 0 12h53.44a6 6 0 0 0 0-12z"/><path d="m255.819 346.23a20.815 20.815 0 0 0 -20.819 20.62v43.86a20.715 20.715 0 0 0 6.229 14.574 21.1 21.1 0 0 0 14.871 6.046 20.884 20.884 0 0 0 20.9-20.62v-43.86a20.819 20.819 0 0 0 -6.325-14.591 21.182 21.182 0 0 0 -14.856-6.029zm9.181 64.48a8.786 8.786 0 0 1 -8.8 8.62 9.218 9.218 0 0 1 -6.38-2.515 8.9 8.9 0 0 1 -2.82-6.105v-43.86a8.8 8.8 0 0 1 8.819-8.62 9.253 9.253 0 0 1 6.37 2.514 8.892 8.892 0 0 1 2.811 6.106z"/><path d="m398.55 19h-285.1a6.6 6.6 0 0 0 -6.45 6.23v90.97c0 3.314 3.137 5.8 6.45 5.8h33.55v48.83c0 16.671 13 30.494 29 32.758v209.052a80 80 0 1 0 160 0v-209.052c16-2.265 29-16.087 29-32.758v-48.83h33.55c3.313 0 6.45-2.486 6.45-5.8v-90.97a6.6 6.6 0 0 0 -6.45-6.23zm-142.611 461.77a67.953 67.953 0 0 1 -67.939-68.13v-208.64h136v208.64a68.144 68.144 0 0 1 -68.061 68.13zm97.061-309.944c0 11.631-9.859 21.174-21.48 21.174h-151c-11.629 0-21.52-9.541-21.52-21.17v-48.83h194zm40-60.826h-274v-79h274z"/><path d="m137.82 65h236.36a6 6 0 0 0 0-12h-236.36a6 6 0 0 0 0 12z"/><path d="m137.82 89h236.36a6 6 0 0 0 0-12h-236.36a6 6 0 0 0 0 12z"/></g></g></svg>