<svg id="Layer_1" height="512" viewBox="0 0 512 512" width="512" xmlns="http://www.w3.org/2000/svg" data-name="Layer 1"><g id="_Group_3" data-name=" Group 3"><path d="m413.62 173.08 23.87 242.75h-63.07v-239.97a26.374 26.374 0 0 0 -26.15-26.37h39.13a26.373 26.373 0 0 1 26.22 23.59z" fill="#00acea"/><path d="m374.42 415.83v53.62h-117.35v-304.39l47.77 40.25 27.19-55.82h16.24a26.374 26.374 0 0 1 26.15 26.37z" fill="#f4b844"/><path d="m347.53 49-8.4 21.01-17.38 43.45-16.32-40.8-9.46-23.66z" fill="#00acea"/><path d="m345.09 122.7-13.05 26.79h-.01l-27.19 55.82-47.77-40.25 87.88-42.29z" fill="#00efd1"/><path d="m257.07 165.06-88.02-42.36.13-.04a287.235 287.235 0 0 1 175.76.08l.01.03z" fill="#f4b844"/><path d="m257.07 165.06v304.39h-117.34v-293.59a26.367 26.367 0 0 1 26.15-26.37h15.6l.5-.25 27.32 56.07z" fill="#fedb41"/><path d="m257.07 165.06-47.77 40.25-27.32-56.07-12.93-26.54z" fill="#00efd1"/><path d="m213.46 49-8.56 21.39-17.23 43.07-25.78-64.46z" fill="#00acea"/><path d="m126.75 149.49h39.13a26.367 26.367 0 0 0 -26.15 26.37v239.97h-63.07l23.87-242.75a26.366 26.366 0 0 1 26.22-23.59z" fill="#00acea"/><path d="m454.974 36.947c-32.269 12.36-68.1 21.07-106.525 25.917l4.651-11.636a6 6 0 0 0 -5.57-8.228h-51.56a6 6 0 0 0 -5.572 8.228l6.314 15.786a713.825 713.825 0 0 1 -83.222-1.939l5.54-13.846a6 6 0 0 0 -5.57-8.229h-51.57a6 6 0 0 0 -5.572 8.228l3.082 7.692c-60.761-8.977-102.282-21.955-102.713-22.092a6 6 0 0 0 -3.615 11.443c.457.144 45.96 14.381 111.466 23.51l16.462 41.154q-6.819 1.834-13.585 3.991l-.13.04v.009a5.981 5.981 0 0 0 -2.488 1.493 5.628 5.628 0 0 0 -1.141 6.615l8.85 17.917h-45.756a32.525 32.525 0 0 0 -32.191 29.248l-23.871 242.872a6.336 6.336 0 0 0 1.527 4.764 6.15 6.15 0 0 0 4.445 2.116h57.34v47.45a5.406 5.406 0 0 0 5.73 5.55h234.69a5.285 5.285 0 0 0 5.58-5.55v-47.45h57.49a6.138 6.138 0 0 0 5.972-6.715l-23.875-243.061a32.534 32.534 0 0 0 -32.187-29.224h-45.763l8.847-17.917a5.815 5.815 0 0 0 -1.173-6.77 5.893 5.893 0 0 0 -3.373-1.607c-5.669-1.806-11.369-3.4-17.093-4.857l14.528-36.305c1.45-.166 2.9-.318 4.354-.5 40.22-4.907 77.748-13.955 111.54-26.9a6 6 0 1 0 -4.293-11.2zm-116.304 18.053-5.089 12.726-.019.05v.006l-11.812 29.523-16.92-42.305zm-134.07 0-16.929 42.305-16.92-42.305zm123.689 69.129-71.219 34.271-71.311-34.319a279.09 279.09 0 0 1 142.527.048zm3.711 25.364-5.382-2.63-23.809 48.9-34.786-29.314 64.11-30.851-5.506 11.268 5.373 2.622zm-85.887 16.953-34.792 29.315-29.315-60.167zm-112.113 9.414v234.14h-50.721l23.221-236.448a20.616 20.616 0 0 1 20.25-18.552h14.241a34.242 34.242 0 0 0 -6.991 20.86zm12 0c0-11.14 8.792-19.86 19.88-20.86h12.473l25.553 52.693a6.4 6.4 0 0 0 5.394 3.556 5.879 5.879 0 0 0 3.831-1.381l37.869-31.907v285.039h-105zm261.649-2.353 23.222 236.493h-50.871v-234.14a34.091 34.091 0 0 0 -6.845-20.86h14.245a20.6 20.6 0 0 1 20.249 18.507zm-39.649 2.353v287.14h-105v-285.038l37.938 31.938a6.05 6.05 0 0 0 3.884 1.412 6.112 6.112 0 0 0 1.252-.13 6.351 6.351 0 0 0 4.156-3.488l25.552-52.694h12.438c11.138 1 19.78 9.72 19.78 20.86zm-172.225-66.508 13.046-32.608c21.5 1.821 42.67 2.746 63.282 2.746q14.877 0 29.339-.648l11.8 29.512a290.552 290.552 0 0 0 -117.467.998z" fill="#083863"/></g></svg>