<svg id="Layer_1" height="512" viewBox="0 0 512 512" width="512" xmlns="http://www.w3.org/2000/svg" data-name="Layer 1"><g id="_Group_3" data-name=" Group 3"><path d="m332.51 247.46a35.03 35.03 0 0 1 -35.04-35.05 7.17 7.17 0 0 1 7.17-7.17h110.39a88.655 88.655 0 0 1 0 177.31h-134.45a16.895 16.895 0 0 1 -4.22-33.25v-.53h-29.55a16.885 16.885 0 0 1 0-33.77h-16.89a16.885 16.885 0 0 1 0-33.77h25.33a16.885 16.885 0 0 1 0-33.77z" fill="#fedb41"/><path d="m228.9 148.35a25.734 25.734 0 1 1 -42.87 0l21.43-32.26z" fill="#fedb41"/><path d="m87.64 78.67-52.84 5.08-24.21-32.28a11.332 11.332 0 1 1 18.13-13.6l16.58 22.11 59.58-5.73a155.428 155.428 0 0 1 102.47 26.39 11.335 11.335 0 1 1 -12.8 18.71 132.72 132.72 0 0 0 -77.45-23.12c-3.35.06-6.71.25-10.06.58z" fill="#00efd1"/><path d="m193.02 286.03v169.97a22.66 22.66 0 0 1 -22.66 22.66h-135.98a22.66 22.66 0 0 1 -22.66-22.66v-169.97a90.735 90.735 0 0 1 56.66-84.06v-39.45h67.98v39.45a90.675 90.675 0 0 1 56.66 84.06zm-44.19 157.69v-141.26h-92.92v141.26z" fill="#00acea"/><path d="m55.91 302.46h92.92v141.26h-92.92z" fill="#fedb41"/><path d="m127.87 118.32v44.2h-51v-44.2h10.77 29.46z" fill="#00efd1"/><path d="m117.1 76.4v41.92h-29.46v-39.65l19.4-1.86c3.35-.33 6.71-.52 10.06-.58z" fill="#fedb41"/><g fill="#083863"><path d="m415.03 199h-110.39a13.288 13.288 0 0 0 -13.17 13.29 40.437 40.437 0 0 0 12.021 28.866s.009-.156.014-.156h-48.255a23.28 23.28 0 0 0 -22.88 23.11 22.064 22.064 0 0 0 2.76 10.89h-5.21a22.991 22.991 0 0 0 -3.119 45.753 23.081 23.081 0 0 0 20.009 34.247h13.643a21.657 21.657 0 0 0 -2.753 10.775 23.171 23.171 0 0 0 22.88 23.225h134.45c52.19 0 94.65-42.689 94.65-94.885a95.031 95.031 0 0 0 -94.65-95.115zm0 178h-134.45a11.276 11.276 0 0 1 -10.88-11.227 10.6 10.6 0 0 1 10.88-10.773h58.26a6 6 0 0 0 0-12h-58.26a23.281 23.281 0 0 0 -2.813.173 5.983 5.983 0 0 0 -1.407-.173h-29.55a11 11 0 0 1 -7.69-18.757 10.835 10.835 0 0 1 7.69-3.243h118.86a6 6 0 1 0 0-12h-135.75a10.893 10.893 0 0 1 -10.88-10.88 11.076 11.076 0 0 1 3.183-7.812 10.929 10.929 0 0 1 7.7-3.308h135.747a6 6 0 1 0 0-12h-110.42a10.8 10.8 0 0 1 -10.88-10.775 11.218 11.218 0 0 1 3.192-7.869 10.971 10.971 0 0 1 7.688-3.356h145.69a6 6 0 1 0 0-12h-68.43a28.641 28.641 0 0 1 -29.04-28.825 1.176 1.176 0 0 1 1.17-1.175h110.39a82.838 82.838 0 0 1 82.65 83.055c0 45.579-37.08 82.945-82.65 82.945z"/><path d="m199 456v-169.97a95.836 95.836 0 0 0 -57-88.013v-35.5a5.309 5.309 0 0 0 -5.64-5.52h-2.36v-38.677a6.393 6.393 0 0 0 -6.13-6.32h-4.87v-29.732a128.269 128.269 0 0 1 68.114 22.032 17.347 17.347 0 1 0 19.618-28.615 161.416 161.416 0 0 0 -106.432-27.408l-56.222 5.408-14.56-19.416a17.332 17.332 0 1 0 -27.728 20.801l24.21 32.28a6.332 6.332 0 0 0 5.554 2.373l46.446-4.445v26.722h-5.13a6.173 6.173 0 0 0 -5.87 6.32v38.68h-2.62c-3.314 0-6.38 2.207-6.38 5.52v35.5a102.435 102.435 0 0 0 -28.023 19.671 95.7 95.7 0 0 0 -27.977 68.339v169.97c0 15.8 12.577 29 28.38 29h135.98c15.803 0 28.64-13.2 28.64-29zm-183.611-408.131a5.332 5.332 0 1 1 8.531-6.4l16.58 22.111a6.009 6.009 0 0 0 5.374 2.373l59.581-5.731a149.391 149.391 0 0 1 98.505 25.369 5.335 5.335 0 1 1 -6.022 8.807 139.738 139.738 0 0 0 -78.312-24.193c-.876 0-1.757.009-2.633.026-3.545.063-7.091.268-10.526.606l-68.888 6.618zm78.611 36.256 13.758-1.344c1.143-.112 2.242-.19 3.242-.27v29.489h-17zm-11 39.875h39v33h-39zm-65 332v-169.97a84.823 84.823 0 0 1 52.51-78.5 5.773 5.773 0 0 0 3.49-5.56v-32.97h56v32.97a6.16 6.16 0 0 0 3.919 5.562 84.487 84.487 0 0 1 53.081 78.498v169.97c0 9.187-7.454 17-16.64 17h-135.98c-9.186 0-16.38-7.813-16.38-17z"/><path d="m155 302a6 6 0 0 0 -6-6h-93a6 6 0 0 0 -6 6v141a6 6 0 0 0 6 6h93a6 6 0 0 0 6-6zm-12 136h-81v-130h81z"/><path d="m207.459 110.09a6 6 0 0 0 -5 2.68l-21.431 32.261a31.74 31.74 0 0 0 26.429 49.3 31.5 31.5 0 0 0 22.447-9.3 31.836 31.836 0 0 0 3.99-40l-21.44-32.26a6 6 0 0 0 -4.995-2.681zm13.958 66.457a19.725 19.725 0 0 1 -27.9-.007 19.789 19.789 0 0 1 -2.483-24.875l16.434-24.738 16.432 24.742a19.8 19.8 0 0 1 -2.483 24.878z"/></g></g></svg>