<svg id="Layer_1" height="512" viewBox="0 0 512 512" width="512" xmlns="http://www.w3.org/2000/svg" data-name="Layer 1"><g id="_Group_3" data-name=" Group 3"><path d="m482.94 148.8v56.59h-26.26-71.99-205.47v-56.59z" fill="#00efd1"/><path d="m384.69 205.39h71.99v41.5h-71.99z" fill="#fedb41"/><path d="m253.93 462.38v39.23h-224.87v-39.23h46.41 132.05z" fill="#00acea"/><path d="m207.52 424.65v37.73h-132.05v-37.73h28.3 75.45z" fill="#fedb41"/><path d="m160.36 66.98-37.87 7.58-28.15 5.63v-69.8h94.32v22.64 28.29z" fill="#00efd1"/><path d="m160.36 123.58h18.86v25.22 56.59 219.26h-75.45v-301.07h18.86z" fill="#00acea"/><path d="m160.36 66.98v56.6h-37.73v-.72-47.61l-.14-.69z" fill="#fedb41"/><g fill="#083863"><path d="m482.94 143h-297.94v-19.42a5.47 5.47 0 0 0 -5.78-5.58h-13.22v-46.1l23.827-4.7a6.323 6.323 0 0 0 5.173-5.88v-23.065l62.565-8.712a6 6 0 0 0 -1.608-11.887l-60.957 8.483v-15.749a6.642 6.642 0 0 0 -6.34-6.39h-94.32a6.642 6.642 0 0 0 -6.34 6.39v69.8a6.272 6.272 0 0 0 6.255 6 8.516 8.516 0 0 0 1.4-.116l21.345-4.224v36.15h-13.23a5.463 5.463 0 0 0 -5.77 5.58v295.42h-22.53c-3.314 0-6.47 2.337-6.47 5.65v31.35h-39.94a6.388 6.388 0 0 0 -6.06 6.38v39.23a6.4 6.4 0 0 0 6.06 6.39h224.87a6.4 6.4 0 0 0 6.07-6.39v-39.23a6.4 6.4 0 0 0 -6.07-6.38h-39.93v-31.35c0-3.313-3.166-5.65-6.48-5.65h-22.52v-208h194v35.89a5.839 5.839 0 0 0 5.69 6.11h71.99a6.376 6.376 0 0 0 6.32-6.11v-35.89h19.94c3.313 0 6.06-2.3 6.06-5.61v-56.59a5.885 5.885 0 0 0 -6.06-5.8zm-382.94-127h83v40.4l-83 16.47zm29 63.449 25-5.149v43.7h-25zm119 416.551h-213v-28h213zm-46-40h-121v-25h121zm-92-37v-289h63v18.156c0 .212-.035.426-.035.644s.035.428.035.638v55.308c0 .212-.035.426-.035.644s.035.428.035.638v212.972zm341-178h-60v-30h60zm26-42h-292v-44h292z"/><path d="m444 275.11a6 6 0 0 0 -6 6v13.21a6 6 0 0 0 12 0v-13.21a6 6 0 0 0 -6-6z"/><path d="m397 275.11a6 6 0 0 0 -6 6v13.21a6 6 0 0 0 12 0v-13.21a6 6 0 0 0 -6-6z"/><path d="m444 324.15a6 6 0 0 0 -6 6v13.21a6 6 0 0 0 12 0v-13.21a6 6 0 0 0 -6-6z"/><path d="m397 324.15a6 6 0 0 0 -6 6v13.21a6 6 0 0 0 12 0v-13.21a6 6 0 0 0 -6-6z"/><path d="m444 373.19a6 6 0 0 0 -6 6v13.21a6 6 0 0 0 12 0v-13.21a6 6 0 0 0 -6-6z"/><path d="m397 373.19a6 6 0 0 0 -6 6v13.21a6 6 0 0 0 12 0v-13.21a6 6 0 0 0 -6-6z"/></g></g></svg>