<svg id="Layer_1" height="512" viewBox="0 0 512 512" width="512" xmlns="http://www.w3.org/2000/svg" data-name="Layer 1"><g id="_Group_3" data-name=" Group 3"><path d="m428.89 142.05v322.86a25.611 25.611 0 0 1 -25.61 25.62h-294.56a25.611 25.611 0 0 1 -25.61-25.62v-322.86zm-52.52 164.16a120.37 120.37 0 1 0 -120.37 120.37 120.368 120.368 0 0 0 120.37-120.37z" fill="#00acea"/><path d="m428.89 47.09v94.96h-345.78v-94.96a25.611 25.611 0 0 1 25.61-25.62h294.56a25.611 25.611 0 0 1 25.61 25.62zm-181.85 60.3v-50.92h-99.9v50.92z" fill="#fedb41"/><path d="m256 185.84a120.37 120.37 0 1 1 -120.37 120.37 120.368 120.368 0 0 1 120.37-120.37zm18 189.55a68.32 68.32 0 1 0 -36 0 18.188 18.188 0 0 1 36 0z" fill="#00efd1"/><path d="m324.32 309.49a68.44 68.44 0 0 1 -50.32 65.9 18.188 18.188 0 0 0 -36 0 68.322 68.322 0 1 1 86.32-65.9z" fill="#fedb41"/><path d="m147.14 56.47h99.9v50.92h-99.9z" fill="#00efd1"/><g fill="#083863"><path d="m108.72 497h294.56c17.43 0 31.72-14.655 31.72-32.09v-417.82c0-17.435-14.29-32.09-31.72-32.09h-294.56c-17.43 0-31.72 14.655-31.72 32.09v417.82c0 17.435 14.29 32.09 31.72 32.09zm294.56-12h-294.56c-10.813 0-19.72-9.271-19.72-20.09v-316.91h334v316.91c0 10.819-8.907 20.09-19.72 20.09zm-294.56-458h294.56c10.813 0 19.72 9.271 19.72 20.09v88.91h-334v-88.91c0-10.819 8.907-20.09 19.72-20.09z"/><path d="m256 179.84a126.37 126.37 0 1 0 126.37 126.37 126.513 126.513 0 0 0 -126.37-126.37zm0 240.74a114.37 114.37 0 1 1 114.37-114.37 114.5 114.5 0 0 1 -114.37 114.37z"/><path d="m253 56a6 6 0 0 0 -6-6h-100a6 6 0 0 0 -6 6v51a6 6 0 0 0 6 6h100a6 6 0 0 0 6-6zm-100 6h88v39h-88z"/><path d="m309.39 73h38.42a6 6 0 0 0 0-12h-38.42a6 6 0 0 0 0 12z"/><path d="m309.39 101h38.42a6 6 0 0 0 0-12h-38.42a6 6 0 0 0 0 12z"/><path d="m256 235.16a74.323 74.323 0 0 0 -19.583 146.018 6 6 0 0 0 7.521-4.925 12.187 12.187 0 0 1 24.124 0 6 6 0 0 0 7.521 4.925 74.323 74.323 0 0 0 -19.583-146.018zm21.925 132.657a24.163 24.163 0 0 0 -43.85 0 62.32 62.32 0 1 1 43.85 0z"/></g></g></svg>