<svg id="Layer_1" height="512" viewBox="0 0 512 512" width="512" xmlns="http://www.w3.org/2000/svg" data-name="Layer 1"><g id="_Group_3" data-name=" Group 3"><path d="m324.27 105.36v-26.94-8.98h156.73v44.9h-42.32-27.44-86.97z" fill="#fedb41"/><path d="m470.67 300.23v200.77h-190.2v-140.7a120.475 120.475 0 0 1 86.54-115.59 46.941 46.941 0 0 0 33.89-44.98v-27.92h47.75c14.56 37.79 22.02 87.94 22.02 128.42zm-36.58 161.55v-129.96h-77.32a29.392 29.392 0 0 0 -29.39 29.39v100.57z" fill="#00acea"/><path d="m448.65 171.81h-47.75-9.64v-26.94h19.98 27.44 19.98v26.94z" fill="#fedb41"/><path d="m411.24 114.34h27.44v30.53h-27.44z" fill="#00efd1"/><path d="m434.09 331.82v129.96h-106.71v-100.57a29.392 29.392 0 0 1 29.39-29.39z" fill="#00efd1"/><path d="m324.27 78.42v26.94h-14.7c-9.4 0-15.43-6.03-15.43-13.47s6.03-13.47 15.43-13.47z" fill="#00efd1"/><path d="m285.24 236.05v32.16h-254.24v-32.16-9.42h254.24z" fill="#00efd1"/><path d="m285.24 211.57v15.06h-254.24v-15.06l113.94-21.59h26.36z" fill="#fedb41"/><path d="m171.3 24.18v165.8h-26.36v-165.8a13.18 13.18 0 1 1 26.36 0z" fill="#00acea"/><g fill="#083863"><path d="m31 274h254.24a5.623 5.623 0 0 0 5.76-5.79v-56.64a6.026 6.026 0 0 0 -4.913-5.895l-109.087-20.665v-160.83a18.924 18.924 0 0 0 -18.925-19.18 19.112 19.112 0 0 0 -19.075 19.18v160.83l-109.087 20.665a6.026 6.026 0 0 0 -4.913 5.895v56.64a5.825 5.825 0 0 0 6 5.79zm120-249.82a7.163 7.163 0 0 1 7.15-7.18 6.76 6.76 0 0 1 4.912 2.1 6.986 6.986 0 0 1 1.938 5.08v159.82h-14zm-5.5 171.82h25.234l108.266 20.54v4.46h-242v-4.46zm-108.5 37h242v29h-242z"/><path d="m318 69.44v2.56h-8.43c-12.217 0-21.43 8.4-21.43 19.5s9.213 19.5 21.43 19.5h8.43v3.34c0 3.313 2.957 5.66 6.27 5.66h30.989c-.844 11-5.333 35.133-28.234 46.274a6.078 6.078 0 0 0 2.629 11.525 6.2 6.2 0 0 0 2.621-.755c28.961-14.089 34.134-44.044 35-57.044h37.725v19h-13.74a6.119 6.119 0 0 0 -6.26 5.87v26.94a6.391 6.391 0 0 0 6.26 6.19h3.74v21.73a41.238 41.238 0 0 1 -29.625 39.221 128.017 128.017 0 0 0 -65.375 44.881 125.543 125.543 0 0 0 -26 76.468v140.7c0 3.314 3.156 6 6.47 6h190.2a6.29 6.29 0 0 0 6.33-6v-200.77c0-41.361-7.707-87.23-19.788-122.23h1.448a6.463 6.463 0 0 0 6.34-6.19v-26.94c0-3.313-3.026-5.87-6.34-5.87h-13.66v-19h36a5.72 5.72 0 0 0 6-5.66v-44.9c0-3.314-2.687-6.44-6-6.44h-156.73a6.626 6.626 0 0 0 -6.27 6.44zm-8.43 29.56c-5.64 0-9.43-3.032-9.43-7.5s3.79-7.5 9.43-7.5h8.43v15zm155.43 201.23v194.77h-179v-134.7a113.618 113.618 0 0 1 23.527-69.2 115.694 115.694 0 0 1 59.1-40.628c22.496-6.596 38.373-27.46 38.373-50.742v-21.73h37.487c12.49 34 20.513 80.535 20.513 122.23zm-12-134.23h-56v-15h56zm-20-27h-16v-19h16zm-103-64h145v33h-145z"/><path d="m356.77 326c-19.514 0-35.77 15.7-35.77 35.21v100.57a6.526 6.526 0 0 0 6.38 6.22h106.71a6.117 6.117 0 0 0 5.91-6.22v-129.96a5.773 5.773 0 0 0 -5.91-5.82zm71.23 130h-95v-94.79c0-12.9 10.873-23.21 23.77-23.21h71.23z"/><path d="m347.35 399a6 6 0 0 0 6 6h54.77a6 6 0 0 0 0-12h-54.77a6 6 0 0 0 -6 6z"/><path d="m408.12 418h-43.99a6 6 0 0 0 0 12h43.99a6 6 0 0 0 0-12z"/></g></g></svg>